%TF.GenerationSoftware,KiCad,Pcbnew,(5.1.5)-3*%
%TF.CreationDate,2021-01-24T02:28:12+08:00*%
%TF.ProjectId,STM32_FOC,53544d33-325f-4464-9f43-2e6b69636164,rev?*%
%TF.SameCoordinates,Original*%
%TF.FileFunction,Soldermask,Bot*%
%TF.FilePolarity,Negative*%
%FSLAX46Y46*%
G04 Gerber Fmt 4.6, Leading zero omitted, Abs format (unit mm)*
G04 Created by KiCad (PCBNEW (5.1.5)-3) date 2021-01-24 02:28:12*
%MOMM*%
%LPD*%
G04 APERTURE LIST*
%ADD10C,0.100000*%
G04 APERTURE END LIST*
D10*
G36*
X101914481Y-110529112D02*
G01*
X101980239Y-110540707D01*
X101980241Y-110540707D01*
X102455188Y-110624453D01*
X102793963Y-110684188D01*
X102837237Y-110696291D01*
X102871811Y-110713813D01*
X102902301Y-110737742D01*
X102927543Y-110767165D01*
X102946554Y-110800939D01*
X102958614Y-110837782D01*
X102963253Y-110876259D01*
X102959825Y-110921064D01*
X102700561Y-112391430D01*
X102688458Y-112434704D01*
X102670936Y-112469278D01*
X102647007Y-112499768D01*
X102617584Y-112525010D01*
X102583808Y-112544022D01*
X102546970Y-112556081D01*
X102508491Y-112560720D01*
X102463685Y-112557292D01*
X102397927Y-112545697D01*
X102397925Y-112545697D01*
X101649962Y-112413811D01*
X101649963Y-112413811D01*
X101584203Y-112402216D01*
X101540929Y-112390113D01*
X101506355Y-112372591D01*
X101475865Y-112348662D01*
X101450623Y-112319239D01*
X101431612Y-112285465D01*
X101419552Y-112248622D01*
X101414913Y-112210145D01*
X101418341Y-112165340D01*
X101677605Y-110694974D01*
X101689708Y-110651700D01*
X101707230Y-110617126D01*
X101731159Y-110586636D01*
X101760582Y-110561394D01*
X101794358Y-110542382D01*
X101831196Y-110530323D01*
X101869675Y-110525684D01*
X101914481Y-110529112D01*
G37*
G36*
X105769408Y-109167436D02*
G01*
X105806738Y-109177876D01*
X105841312Y-109195398D01*
X105871802Y-109219327D01*
X105901066Y-109253438D01*
X106757438Y-110476465D01*
X106779479Y-110515622D01*
X106791539Y-110552465D01*
X106796178Y-110590942D01*
X106793221Y-110629593D01*
X106782781Y-110666923D01*
X106765259Y-110701497D01*
X106741330Y-110731987D01*
X106707219Y-110761251D01*
X105975684Y-111273477D01*
X105936527Y-111295518D01*
X105899684Y-111307578D01*
X105861207Y-111312217D01*
X105822556Y-111309260D01*
X105785226Y-111298820D01*
X105750652Y-111281298D01*
X105720162Y-111257369D01*
X105690898Y-111223258D01*
X104834526Y-110000231D01*
X104812485Y-109961074D01*
X104800425Y-109924231D01*
X104795786Y-109885754D01*
X104798743Y-109847103D01*
X104809183Y-109809773D01*
X104826705Y-109775199D01*
X104850634Y-109744709D01*
X104884745Y-109715445D01*
X105616280Y-109203219D01*
X105655437Y-109181178D01*
X105692280Y-109169118D01*
X105730757Y-109164479D01*
X105769408Y-109167436D01*
G37*
G36*
X93445134Y-109035737D02*
G01*
X93510892Y-109047332D01*
X93510894Y-109047332D01*
X94114230Y-109153716D01*
X94324616Y-109190813D01*
X94367890Y-109202916D01*
X94402464Y-109220438D01*
X94432954Y-109244367D01*
X94458196Y-109273790D01*
X94477207Y-109307564D01*
X94489267Y-109344407D01*
X94493906Y-109382884D01*
X94490478Y-109427689D01*
X94231214Y-110898055D01*
X94219111Y-110941329D01*
X94201589Y-110975903D01*
X94177660Y-111006393D01*
X94148237Y-111031635D01*
X94114461Y-111050647D01*
X94077623Y-111062706D01*
X94039144Y-111067345D01*
X93994338Y-111063917D01*
X93928580Y-111052322D01*
X93928578Y-111052322D01*
X93240163Y-110930936D01*
X93114856Y-110908841D01*
X93071582Y-110896738D01*
X93037008Y-110879216D01*
X93006518Y-110855287D01*
X92981276Y-110825864D01*
X92962265Y-110792090D01*
X92950205Y-110755247D01*
X92945566Y-110716770D01*
X92948994Y-110671965D01*
X93208258Y-109201599D01*
X93220361Y-109158325D01*
X93237883Y-109123751D01*
X93261812Y-109093261D01*
X93291235Y-109068019D01*
X93325011Y-109049007D01*
X93361849Y-109036948D01*
X93400328Y-109032309D01*
X93445134Y-109035737D01*
G37*
G36*
X108718355Y-107102560D02*
G01*
X108755685Y-107113000D01*
X108790259Y-107130522D01*
X108820749Y-107154451D01*
X108850013Y-107188562D01*
X109706385Y-108411589D01*
X109728426Y-108450746D01*
X109740486Y-108487589D01*
X109745125Y-108526066D01*
X109742168Y-108564717D01*
X109731728Y-108602047D01*
X109714206Y-108636621D01*
X109690277Y-108667111D01*
X109656166Y-108696375D01*
X108924631Y-109208601D01*
X108885474Y-109230642D01*
X108848631Y-109242702D01*
X108810154Y-109247341D01*
X108771503Y-109244384D01*
X108734173Y-109233944D01*
X108699599Y-109216422D01*
X108669109Y-109192493D01*
X108639845Y-109158382D01*
X107783473Y-107935355D01*
X107761432Y-107896198D01*
X107749372Y-107859355D01*
X107744733Y-107820878D01*
X107747690Y-107782227D01*
X107758130Y-107744897D01*
X107775652Y-107710323D01*
X107799581Y-107679833D01*
X107833692Y-107650569D01*
X108565227Y-107138343D01*
X108604384Y-107116302D01*
X108641227Y-107104242D01*
X108679704Y-107099603D01*
X108718355Y-107102560D01*
G37*
G36*
X92019591Y-108093085D02*
G01*
X92053569Y-108103393D01*
X92084890Y-108120134D01*
X92112339Y-108142661D01*
X92134866Y-108170110D01*
X92151607Y-108201431D01*
X92161915Y-108235409D01*
X92166000Y-108276890D01*
X92166000Y-108878110D01*
X92161915Y-108919591D01*
X92151607Y-108953569D01*
X92134866Y-108984890D01*
X92112339Y-109012339D01*
X92084890Y-109034866D01*
X92053569Y-109051607D01*
X92019591Y-109061915D01*
X91978110Y-109066000D01*
X91301890Y-109066000D01*
X91260409Y-109061915D01*
X91226431Y-109051607D01*
X91195110Y-109034866D01*
X91167661Y-109012339D01*
X91145134Y-108984890D01*
X91128393Y-108953569D01*
X91118085Y-108919591D01*
X91114000Y-108878110D01*
X91114000Y-108276890D01*
X91118085Y-108235409D01*
X91128393Y-108201431D01*
X91145134Y-108170110D01*
X91167661Y-108142661D01*
X91195110Y-108120134D01*
X91226431Y-108103393D01*
X91260409Y-108093085D01*
X91301890Y-108089000D01*
X91978110Y-108089000D01*
X92019591Y-108093085D01*
G37*
G36*
X101496818Y-106647617D02*
G01*
X101552307Y-106657401D01*
X101552319Y-106657402D01*
X101897987Y-106718353D01*
X101897989Y-106718354D01*
X101953491Y-106728140D01*
X101980652Y-106735736D01*
X102000305Y-106745696D01*
X102017638Y-106759299D01*
X102031983Y-106776021D01*
X102042791Y-106795221D01*
X102049646Y-106816163D01*
X102052283Y-106838035D01*
X102050131Y-106866160D01*
X102040347Y-106921647D01*
X102040346Y-106921662D01*
X101814430Y-108202897D01*
X101814427Y-108202908D01*
X101804642Y-108258401D01*
X101797046Y-108285562D01*
X101787086Y-108305215D01*
X101773483Y-108322548D01*
X101756761Y-108336893D01*
X101737561Y-108347701D01*
X101716618Y-108354556D01*
X101694747Y-108357193D01*
X101666622Y-108355041D01*
X101611133Y-108345257D01*
X101611121Y-108345256D01*
X101265453Y-108284305D01*
X101265451Y-108284304D01*
X101209949Y-108274518D01*
X101182788Y-108266922D01*
X101163135Y-108256962D01*
X101145802Y-108243359D01*
X101131457Y-108226637D01*
X101120649Y-108207437D01*
X101113794Y-108186495D01*
X101111157Y-108164623D01*
X101113309Y-108136498D01*
X101123093Y-108081011D01*
X101123094Y-108080996D01*
X101349010Y-106799761D01*
X101349013Y-106799750D01*
X101358798Y-106744257D01*
X101366394Y-106717096D01*
X101376354Y-106697443D01*
X101389957Y-106680110D01*
X101406679Y-106665765D01*
X101425879Y-106654957D01*
X101446822Y-106648102D01*
X101468693Y-106645465D01*
X101496818Y-106647617D01*
G37*
G36*
X100512010Y-106473969D02*
G01*
X100567499Y-106483753D01*
X100567511Y-106483754D01*
X100913179Y-106544705D01*
X100913181Y-106544706D01*
X100968683Y-106554492D01*
X100995844Y-106562088D01*
X101015497Y-106572048D01*
X101032830Y-106585651D01*
X101047175Y-106602373D01*
X101057983Y-106621573D01*
X101064838Y-106642515D01*
X101067475Y-106664387D01*
X101065323Y-106692512D01*
X101055539Y-106747999D01*
X101055538Y-106748014D01*
X100829622Y-108029249D01*
X100829619Y-108029260D01*
X100819834Y-108084753D01*
X100812238Y-108111914D01*
X100802278Y-108131567D01*
X100788675Y-108148900D01*
X100771953Y-108163245D01*
X100752753Y-108174053D01*
X100731810Y-108180908D01*
X100709939Y-108183545D01*
X100681814Y-108181393D01*
X100626325Y-108171609D01*
X100626313Y-108171608D01*
X100280645Y-108110657D01*
X100280643Y-108110656D01*
X100225141Y-108100870D01*
X100197980Y-108093274D01*
X100178327Y-108083314D01*
X100160994Y-108069711D01*
X100146649Y-108052989D01*
X100135841Y-108033789D01*
X100128986Y-108012847D01*
X100126349Y-107990975D01*
X100128501Y-107962850D01*
X100138285Y-107907363D01*
X100138286Y-107907348D01*
X100364202Y-106626113D01*
X100364205Y-106626102D01*
X100373990Y-106570609D01*
X100381586Y-106543448D01*
X100391546Y-106523795D01*
X100405149Y-106506462D01*
X100421871Y-106492117D01*
X100441071Y-106481309D01*
X100462014Y-106474454D01*
X100483885Y-106471817D01*
X100512010Y-106473969D01*
G37*
G36*
X99527202Y-106300321D02*
G01*
X99582691Y-106310105D01*
X99582703Y-106310106D01*
X99928371Y-106371057D01*
X99928373Y-106371058D01*
X99983875Y-106380844D01*
X100011036Y-106388440D01*
X100030689Y-106398400D01*
X100048022Y-106412003D01*
X100062367Y-106428725D01*
X100073175Y-106447925D01*
X100080030Y-106468867D01*
X100082667Y-106490739D01*
X100080515Y-106518864D01*
X100070731Y-106574351D01*
X100070730Y-106574366D01*
X99844814Y-107855601D01*
X99844811Y-107855612D01*
X99835026Y-107911105D01*
X99827430Y-107938266D01*
X99817470Y-107957919D01*
X99803867Y-107975252D01*
X99787145Y-107989597D01*
X99767945Y-108000405D01*
X99747002Y-108007260D01*
X99725131Y-108009897D01*
X99697006Y-108007745D01*
X99641517Y-107997961D01*
X99641505Y-107997960D01*
X99295837Y-107937009D01*
X99295835Y-107937008D01*
X99240333Y-107927222D01*
X99213172Y-107919626D01*
X99193519Y-107909666D01*
X99176186Y-107896063D01*
X99161841Y-107879341D01*
X99151033Y-107860141D01*
X99144178Y-107839199D01*
X99141541Y-107817327D01*
X99143693Y-107789202D01*
X99153477Y-107733715D01*
X99153478Y-107733700D01*
X99379394Y-106452465D01*
X99379397Y-106452454D01*
X99389182Y-106396961D01*
X99396778Y-106369800D01*
X99406738Y-106350147D01*
X99420341Y-106332814D01*
X99437063Y-106318469D01*
X99456263Y-106307661D01*
X99477206Y-106300806D01*
X99499077Y-106298169D01*
X99527202Y-106300321D01*
G37*
G36*
X98542394Y-106126672D02*
G01*
X98597883Y-106136456D01*
X98597895Y-106136457D01*
X98943563Y-106197408D01*
X98943565Y-106197409D01*
X98999067Y-106207195D01*
X99026228Y-106214791D01*
X99045881Y-106224751D01*
X99063214Y-106238354D01*
X99077559Y-106255076D01*
X99088367Y-106274276D01*
X99095222Y-106295218D01*
X99097859Y-106317090D01*
X99095707Y-106345215D01*
X99085923Y-106400702D01*
X99085922Y-106400717D01*
X98860006Y-107681952D01*
X98860003Y-107681963D01*
X98850218Y-107737456D01*
X98842622Y-107764617D01*
X98832662Y-107784270D01*
X98819059Y-107801603D01*
X98802337Y-107815948D01*
X98783137Y-107826756D01*
X98762194Y-107833611D01*
X98740323Y-107836248D01*
X98712198Y-107834096D01*
X98656709Y-107824312D01*
X98656697Y-107824311D01*
X98311029Y-107763360D01*
X98311027Y-107763359D01*
X98255525Y-107753573D01*
X98228364Y-107745977D01*
X98208711Y-107736017D01*
X98191378Y-107722414D01*
X98177033Y-107705692D01*
X98166225Y-107686492D01*
X98159370Y-107665550D01*
X98156733Y-107643678D01*
X98158885Y-107615553D01*
X98168669Y-107560066D01*
X98168670Y-107560051D01*
X98394586Y-106278816D01*
X98394589Y-106278805D01*
X98404374Y-106223312D01*
X98411970Y-106196151D01*
X98421930Y-106176498D01*
X98435533Y-106159165D01*
X98452255Y-106144820D01*
X98471455Y-106134012D01*
X98492398Y-106127157D01*
X98514269Y-106124520D01*
X98542394Y-106126672D01*
G37*
G36*
X97557587Y-105953024D02*
G01*
X97613076Y-105962808D01*
X97613088Y-105962809D01*
X97958756Y-106023760D01*
X97958758Y-106023761D01*
X98014260Y-106033547D01*
X98041421Y-106041143D01*
X98061074Y-106051103D01*
X98078407Y-106064706D01*
X98092752Y-106081428D01*
X98103560Y-106100628D01*
X98110415Y-106121570D01*
X98113052Y-106143442D01*
X98110900Y-106171567D01*
X98101116Y-106227054D01*
X98101115Y-106227069D01*
X97875199Y-107508304D01*
X97875196Y-107508315D01*
X97865411Y-107563808D01*
X97857815Y-107590969D01*
X97847855Y-107610622D01*
X97834252Y-107627955D01*
X97817530Y-107642300D01*
X97798330Y-107653108D01*
X97777387Y-107659963D01*
X97755516Y-107662600D01*
X97727391Y-107660448D01*
X97671902Y-107650664D01*
X97671890Y-107650663D01*
X97326222Y-107589712D01*
X97326220Y-107589711D01*
X97270718Y-107579925D01*
X97243557Y-107572329D01*
X97223904Y-107562369D01*
X97206571Y-107548766D01*
X97192226Y-107532044D01*
X97181418Y-107512844D01*
X97174563Y-107491902D01*
X97171926Y-107470030D01*
X97174078Y-107441905D01*
X97183862Y-107386418D01*
X97183863Y-107386403D01*
X97409779Y-106105168D01*
X97409782Y-106105157D01*
X97419567Y-106049664D01*
X97427163Y-106022503D01*
X97437123Y-106002850D01*
X97450726Y-105985517D01*
X97467448Y-105971172D01*
X97486648Y-105960364D01*
X97507591Y-105953509D01*
X97529462Y-105950872D01*
X97557587Y-105953024D01*
G37*
G36*
X92019591Y-106518085D02*
G01*
X92053569Y-106528393D01*
X92084890Y-106545134D01*
X92112339Y-106567661D01*
X92134866Y-106595110D01*
X92151607Y-106626431D01*
X92161915Y-106660409D01*
X92166000Y-106701890D01*
X92166000Y-107303110D01*
X92161915Y-107344591D01*
X92151607Y-107378569D01*
X92134866Y-107409890D01*
X92112339Y-107437339D01*
X92084890Y-107459866D01*
X92053569Y-107476607D01*
X92019591Y-107486915D01*
X91978110Y-107491000D01*
X91301890Y-107491000D01*
X91260409Y-107486915D01*
X91226431Y-107476607D01*
X91195110Y-107459866D01*
X91167661Y-107437339D01*
X91145134Y-107409890D01*
X91128393Y-107378569D01*
X91118085Y-107344591D01*
X91114000Y-107303110D01*
X91114000Y-106701890D01*
X91118085Y-106660409D01*
X91128393Y-106626431D01*
X91145134Y-106595110D01*
X91167661Y-106567661D01*
X91195110Y-106545134D01*
X91226431Y-106528393D01*
X91260409Y-106518085D01*
X91301890Y-106514000D01*
X91978110Y-106514000D01*
X92019591Y-106518085D01*
G37*
G36*
X96572779Y-105779376D02*
G01*
X96628268Y-105789160D01*
X96628280Y-105789161D01*
X96973948Y-105850112D01*
X96973950Y-105850113D01*
X97029452Y-105859899D01*
X97056613Y-105867495D01*
X97076266Y-105877455D01*
X97093599Y-105891058D01*
X97107944Y-105907780D01*
X97118752Y-105926980D01*
X97125607Y-105947922D01*
X97128244Y-105969794D01*
X97126092Y-105997919D01*
X97116308Y-106053406D01*
X97116307Y-106053421D01*
X96890391Y-107334656D01*
X96890388Y-107334667D01*
X96880603Y-107390160D01*
X96873007Y-107417321D01*
X96863047Y-107436974D01*
X96849444Y-107454307D01*
X96832722Y-107468652D01*
X96813522Y-107479460D01*
X96792579Y-107486315D01*
X96770708Y-107488952D01*
X96742583Y-107486800D01*
X96687094Y-107477016D01*
X96687082Y-107477015D01*
X96341414Y-107416064D01*
X96341412Y-107416063D01*
X96285910Y-107406277D01*
X96258749Y-107398681D01*
X96239096Y-107388721D01*
X96221763Y-107375118D01*
X96207418Y-107358396D01*
X96196610Y-107339196D01*
X96189755Y-107318254D01*
X96187118Y-107296382D01*
X96189270Y-107268257D01*
X96199054Y-107212770D01*
X96199055Y-107212755D01*
X96424971Y-105931520D01*
X96424974Y-105931509D01*
X96434759Y-105876016D01*
X96442355Y-105848855D01*
X96452315Y-105829202D01*
X96465918Y-105811869D01*
X96482640Y-105797524D01*
X96501840Y-105786716D01*
X96522783Y-105779861D01*
X96544654Y-105777224D01*
X96572779Y-105779376D01*
G37*
G36*
X95587971Y-105605728D02*
G01*
X95643460Y-105615512D01*
X95643472Y-105615513D01*
X95989140Y-105676464D01*
X95989142Y-105676465D01*
X96044644Y-105686251D01*
X96071805Y-105693847D01*
X96091458Y-105703807D01*
X96108791Y-105717410D01*
X96123136Y-105734132D01*
X96133944Y-105753332D01*
X96140799Y-105774274D01*
X96143436Y-105796146D01*
X96141284Y-105824271D01*
X96131500Y-105879758D01*
X96131499Y-105879773D01*
X95905583Y-107161008D01*
X95905580Y-107161019D01*
X95895795Y-107216512D01*
X95888199Y-107243673D01*
X95878239Y-107263326D01*
X95864636Y-107280659D01*
X95847914Y-107295004D01*
X95828714Y-107305812D01*
X95807771Y-107312667D01*
X95785900Y-107315304D01*
X95757775Y-107313152D01*
X95702286Y-107303368D01*
X95702274Y-107303367D01*
X95356606Y-107242416D01*
X95356604Y-107242415D01*
X95301102Y-107232629D01*
X95273941Y-107225033D01*
X95254288Y-107215073D01*
X95236955Y-107201470D01*
X95222610Y-107184748D01*
X95211802Y-107165548D01*
X95204947Y-107144606D01*
X95202310Y-107122734D01*
X95204462Y-107094609D01*
X95214246Y-107039122D01*
X95214247Y-107039107D01*
X95440163Y-105757872D01*
X95440166Y-105757861D01*
X95449951Y-105702368D01*
X95457547Y-105675207D01*
X95467507Y-105655554D01*
X95481110Y-105638221D01*
X95497832Y-105623876D01*
X95517032Y-105613068D01*
X95537975Y-105606213D01*
X95559846Y-105603576D01*
X95587971Y-105605728D01*
G37*
G36*
X104443788Y-105487230D02*
G01*
X104465004Y-105493163D01*
X104484660Y-105503125D01*
X104501991Y-105516726D01*
X104520357Y-105538135D01*
X105331229Y-106696180D01*
X105345065Y-106720760D01*
X105351920Y-106741703D01*
X105354557Y-106763574D01*
X105352876Y-106785547D01*
X105346942Y-106806765D01*
X105336982Y-106826418D01*
X105323379Y-106843751D01*
X105301976Y-106862112D01*
X104922116Y-107128094D01*
X104897541Y-107141927D01*
X104876599Y-107148782D01*
X104854727Y-107151419D01*
X104832754Y-107149738D01*
X104811538Y-107143805D01*
X104791882Y-107133843D01*
X104774551Y-107120242D01*
X104756185Y-107098833D01*
X103945313Y-105940788D01*
X103931477Y-105916208D01*
X103924622Y-105895265D01*
X103921985Y-105873394D01*
X103923666Y-105851421D01*
X103929600Y-105830203D01*
X103939560Y-105810550D01*
X103953163Y-105793217D01*
X103974566Y-105774856D01*
X104032726Y-105734132D01*
X104089967Y-105694051D01*
X104354426Y-105508874D01*
X104379001Y-105495041D01*
X104399943Y-105488186D01*
X104421815Y-105485549D01*
X104443788Y-105487230D01*
G37*
G36*
X105262940Y-104913654D02*
G01*
X105284156Y-104919587D01*
X105303812Y-104929549D01*
X105321143Y-104943150D01*
X105339509Y-104964559D01*
X106150381Y-106122604D01*
X106164217Y-106147184D01*
X106171072Y-106168127D01*
X106173709Y-106189998D01*
X106172028Y-106211971D01*
X106166094Y-106233189D01*
X106156134Y-106252842D01*
X106142531Y-106270175D01*
X106121128Y-106288536D01*
X105741268Y-106554518D01*
X105716693Y-106568351D01*
X105695751Y-106575206D01*
X105673879Y-106577843D01*
X105651906Y-106576162D01*
X105630690Y-106570229D01*
X105611034Y-106560267D01*
X105593703Y-106546666D01*
X105575337Y-106525257D01*
X104764465Y-105367212D01*
X104750629Y-105342632D01*
X104743774Y-105321689D01*
X104741137Y-105299818D01*
X104742818Y-105277845D01*
X104748752Y-105256627D01*
X104758712Y-105236974D01*
X104772315Y-105219641D01*
X104793718Y-105201280D01*
X105173578Y-104935298D01*
X105198153Y-104921465D01*
X105219095Y-104914610D01*
X105240967Y-104911973D01*
X105262940Y-104913654D01*
G37*
G36*
X103385197Y-104085360D02*
G01*
X103419392Y-104094924D01*
X103451065Y-104110975D01*
X103479006Y-104132904D01*
X103506144Y-104164538D01*
X103538469Y-104210703D01*
X103777273Y-104551750D01*
X103894001Y-104718456D01*
X103914453Y-104754788D01*
X103925499Y-104788533D01*
X103929749Y-104823785D01*
X103927040Y-104859196D01*
X103917476Y-104893390D01*
X103901423Y-104925068D01*
X103879496Y-104953007D01*
X103847862Y-104980145D01*
X103355381Y-105324983D01*
X103319049Y-105345435D01*
X103285304Y-105356481D01*
X103250051Y-105360731D01*
X103214639Y-105358022D01*
X103180444Y-105348458D01*
X103148771Y-105332407D01*
X103120830Y-105310478D01*
X103093692Y-105278844D01*
X102949096Y-105072339D01*
X102738157Y-104771087D01*
X102738156Y-104771085D01*
X102705835Y-104724926D01*
X102685383Y-104688594D01*
X102674337Y-104654849D01*
X102670087Y-104619597D01*
X102672796Y-104584186D01*
X102682360Y-104549992D01*
X102698413Y-104518314D01*
X102720340Y-104490375D01*
X102751974Y-104463237D01*
X103244455Y-104118399D01*
X103280787Y-104097947D01*
X103314532Y-104086901D01*
X103349785Y-104082651D01*
X103385197Y-104085360D01*
G37*
G36*
X101049591Y-104078085D02*
G01*
X101083569Y-104088393D01*
X101114890Y-104105134D01*
X101142339Y-104127661D01*
X101164866Y-104155110D01*
X101181607Y-104186431D01*
X101191915Y-104220409D01*
X101196000Y-104261890D01*
X101196000Y-104938110D01*
X101191915Y-104979591D01*
X101181607Y-105013569D01*
X101164866Y-105044890D01*
X101142339Y-105072339D01*
X101114890Y-105094866D01*
X101083569Y-105111607D01*
X101049591Y-105121915D01*
X101008110Y-105126000D01*
X100406890Y-105126000D01*
X100365409Y-105121915D01*
X100331431Y-105111607D01*
X100300110Y-105094866D01*
X100272661Y-105072339D01*
X100250134Y-105044890D01*
X100233393Y-105013569D01*
X100223085Y-104979591D01*
X100219000Y-104938110D01*
X100219000Y-104261890D01*
X100223085Y-104220409D01*
X100233393Y-104186431D01*
X100250134Y-104155110D01*
X100272661Y-104127661D01*
X100300110Y-104105134D01*
X100331431Y-104088393D01*
X100365409Y-104078085D01*
X100406890Y-104074000D01*
X101008110Y-104074000D01*
X101049591Y-104078085D01*
G37*
G36*
X99474591Y-104078085D02*
G01*
X99508569Y-104088393D01*
X99539890Y-104105134D01*
X99567339Y-104127661D01*
X99589866Y-104155110D01*
X99606607Y-104186431D01*
X99616915Y-104220409D01*
X99621000Y-104261890D01*
X99621000Y-104938110D01*
X99616915Y-104979591D01*
X99606607Y-105013569D01*
X99589866Y-105044890D01*
X99567339Y-105072339D01*
X99539890Y-105094866D01*
X99508569Y-105111607D01*
X99474591Y-105121915D01*
X99433110Y-105126000D01*
X98831890Y-105126000D01*
X98790409Y-105121915D01*
X98756431Y-105111607D01*
X98725110Y-105094866D01*
X98697661Y-105072339D01*
X98675134Y-105044890D01*
X98658393Y-105013569D01*
X98648085Y-104979591D01*
X98644000Y-104938110D01*
X98644000Y-104261890D01*
X98648085Y-104220409D01*
X98658393Y-104186431D01*
X98675134Y-104155110D01*
X98697661Y-104127661D01*
X98725110Y-104105134D01*
X98756431Y-104088393D01*
X98790409Y-104078085D01*
X98831890Y-104074000D01*
X99433110Y-104074000D01*
X99474591Y-104078085D01*
G37*
G36*
X95824591Y-103748085D02*
G01*
X95858569Y-103758393D01*
X95889890Y-103775134D01*
X95917339Y-103797661D01*
X95939866Y-103825110D01*
X95956607Y-103856431D01*
X95966915Y-103890409D01*
X95971000Y-103931890D01*
X95971000Y-104608110D01*
X95966915Y-104649591D01*
X95956607Y-104683569D01*
X95939866Y-104714890D01*
X95917339Y-104742339D01*
X95889890Y-104764866D01*
X95858569Y-104781607D01*
X95824591Y-104791915D01*
X95783110Y-104796000D01*
X95181890Y-104796000D01*
X95140409Y-104791915D01*
X95106431Y-104781607D01*
X95075110Y-104764866D01*
X95047661Y-104742339D01*
X95025134Y-104714890D01*
X95008393Y-104683569D01*
X94998085Y-104649591D01*
X94994000Y-104608110D01*
X94994000Y-103931890D01*
X94998085Y-103890409D01*
X95008393Y-103856431D01*
X95025134Y-103825110D01*
X95047661Y-103797661D01*
X95075110Y-103775134D01*
X95106431Y-103758393D01*
X95140409Y-103748085D01*
X95181890Y-103744000D01*
X95783110Y-103744000D01*
X95824591Y-103748085D01*
G37*
G36*
X97399591Y-103748085D02*
G01*
X97433569Y-103758393D01*
X97464890Y-103775134D01*
X97492339Y-103797661D01*
X97514866Y-103825110D01*
X97531607Y-103856431D01*
X97541915Y-103890409D01*
X97546000Y-103931890D01*
X97546000Y-104608110D01*
X97541915Y-104649591D01*
X97531607Y-104683569D01*
X97514866Y-104714890D01*
X97492339Y-104742339D01*
X97464890Y-104764866D01*
X97433569Y-104781607D01*
X97399591Y-104791915D01*
X97358110Y-104796000D01*
X96756890Y-104796000D01*
X96715409Y-104791915D01*
X96681431Y-104781607D01*
X96650110Y-104764866D01*
X96622661Y-104742339D01*
X96600134Y-104714890D01*
X96583393Y-104683569D01*
X96573085Y-104649591D01*
X96569000Y-104608110D01*
X96569000Y-103931890D01*
X96573085Y-103890409D01*
X96583393Y-103856431D01*
X96600134Y-103825110D01*
X96622661Y-103797661D01*
X96650110Y-103775134D01*
X96681431Y-103758393D01*
X96715409Y-103748085D01*
X96756890Y-103744000D01*
X97358110Y-103744000D01*
X97399591Y-103748085D01*
G37*
G36*
X104675361Y-103181978D02*
G01*
X104709556Y-103191542D01*
X104741229Y-103207593D01*
X104769170Y-103229522D01*
X104796308Y-103261156D01*
X104828633Y-103307321D01*
X105066206Y-103646610D01*
X105184165Y-103815074D01*
X105204617Y-103851406D01*
X105215663Y-103885151D01*
X105219913Y-103920403D01*
X105217204Y-103955814D01*
X105207640Y-103990008D01*
X105191587Y-104021686D01*
X105169660Y-104049625D01*
X105138026Y-104076763D01*
X104645545Y-104421601D01*
X104609213Y-104442053D01*
X104575468Y-104453099D01*
X104540215Y-104457349D01*
X104504803Y-104454640D01*
X104470608Y-104445076D01*
X104438935Y-104429025D01*
X104410994Y-104407096D01*
X104383856Y-104375462D01*
X104201594Y-104115164D01*
X104028321Y-103867705D01*
X104028320Y-103867703D01*
X103995999Y-103821544D01*
X103975547Y-103785212D01*
X103964501Y-103751467D01*
X103960251Y-103716215D01*
X103962960Y-103680804D01*
X103972524Y-103646610D01*
X103988577Y-103614932D01*
X104010504Y-103586993D01*
X104042138Y-103559855D01*
X104534619Y-103215017D01*
X104570951Y-103194565D01*
X104604696Y-103183519D01*
X104639949Y-103179269D01*
X104675361Y-103181978D01*
G37*
G36*
X98446000Y-103451000D02*
G01*
X97744000Y-103451000D01*
X97744000Y-101949000D01*
X98446000Y-101949000D01*
X98446000Y-103451000D01*
G37*
G36*
X102256000Y-103451000D02*
G01*
X101554000Y-103451000D01*
X101554000Y-101949000D01*
X102256000Y-101949000D01*
X102256000Y-103451000D01*
G37*
G36*
X100986000Y-103451000D02*
G01*
X100284000Y-103451000D01*
X100284000Y-101949000D01*
X100986000Y-101949000D01*
X100986000Y-103451000D01*
G37*
G36*
X99716000Y-103451000D02*
G01*
X99014000Y-103451000D01*
X99014000Y-101949000D01*
X99716000Y-101949000D01*
X99716000Y-103451000D01*
G37*
G36*
X104239591Y-100083085D02*
G01*
X104273569Y-100093393D01*
X104304890Y-100110134D01*
X104332339Y-100132661D01*
X104354866Y-100160110D01*
X104371607Y-100191431D01*
X104381915Y-100225409D01*
X104386000Y-100266890D01*
X104386000Y-100868110D01*
X104381915Y-100909591D01*
X104371607Y-100943569D01*
X104354866Y-100974890D01*
X104332339Y-101002339D01*
X104304890Y-101024866D01*
X104273569Y-101041607D01*
X104239591Y-101051915D01*
X104198110Y-101056000D01*
X103521890Y-101056000D01*
X103480409Y-101051915D01*
X103446431Y-101041607D01*
X103415110Y-101024866D01*
X103387661Y-101002339D01*
X103365134Y-100974890D01*
X103348393Y-100943569D01*
X103338085Y-100909591D01*
X103334000Y-100868110D01*
X103334000Y-100266890D01*
X103338085Y-100225409D01*
X103348393Y-100191431D01*
X103365134Y-100160110D01*
X103387661Y-100132661D01*
X103415110Y-100110134D01*
X103446431Y-100093393D01*
X103480409Y-100083085D01*
X103521890Y-100079000D01*
X104198110Y-100079000D01*
X104239591Y-100083085D01*
G37*
G36*
X108850974Y-98707566D02*
G01*
X109000274Y-98737263D01*
X109164246Y-98805183D01*
X109311816Y-98903786D01*
X109437315Y-99029285D01*
X109535918Y-99176855D01*
X109603838Y-99340827D01*
X109638462Y-99514898D01*
X109638462Y-99692380D01*
X109603838Y-99866451D01*
X109535918Y-100030423D01*
X109437315Y-100177993D01*
X109311816Y-100303492D01*
X109164246Y-100402095D01*
X109000274Y-100470015D01*
X108850974Y-100499712D01*
X108826204Y-100504639D01*
X108648720Y-100504639D01*
X108623950Y-100499712D01*
X108474650Y-100470015D01*
X108310678Y-100402095D01*
X108163108Y-100303492D01*
X108037609Y-100177993D01*
X107939006Y-100030423D01*
X107871086Y-99866451D01*
X107836462Y-99692380D01*
X107836462Y-99514898D01*
X107871086Y-99340827D01*
X107939006Y-99176855D01*
X108037609Y-99029285D01*
X108163108Y-98903786D01*
X108310678Y-98805183D01*
X108474650Y-98737263D01*
X108623950Y-98707566D01*
X108648720Y-98702639D01*
X108826204Y-98702639D01*
X108850974Y-98707566D01*
G37*
G36*
X104239591Y-98508085D02*
G01*
X104273569Y-98518393D01*
X104304890Y-98535134D01*
X104332339Y-98557661D01*
X104354866Y-98585110D01*
X104371607Y-98616431D01*
X104381915Y-98650409D01*
X104386000Y-98691890D01*
X104386000Y-99293110D01*
X104381915Y-99334591D01*
X104371607Y-99368569D01*
X104354866Y-99399890D01*
X104332339Y-99427339D01*
X104304890Y-99449866D01*
X104273569Y-99466607D01*
X104239591Y-99476915D01*
X104198110Y-99481000D01*
X103521890Y-99481000D01*
X103480409Y-99476915D01*
X103446431Y-99466607D01*
X103415110Y-99449866D01*
X103387661Y-99427339D01*
X103365134Y-99399890D01*
X103348393Y-99368569D01*
X103338085Y-99334591D01*
X103334000Y-99293110D01*
X103334000Y-98691890D01*
X103338085Y-98650409D01*
X103348393Y-98616431D01*
X103365134Y-98585110D01*
X103387661Y-98557661D01*
X103415110Y-98535134D01*
X103446431Y-98518393D01*
X103480409Y-98508085D01*
X103521890Y-98504000D01*
X104198110Y-98504000D01*
X104239591Y-98508085D01*
G37*
G36*
X107982243Y-96320746D02*
G01*
X108131543Y-96350443D01*
X108295515Y-96418363D01*
X108443085Y-96516966D01*
X108568584Y-96642465D01*
X108667187Y-96790035D01*
X108735107Y-96954007D01*
X108769731Y-97128078D01*
X108769731Y-97305560D01*
X108735107Y-97479631D01*
X108667187Y-97643603D01*
X108568584Y-97791173D01*
X108443085Y-97916672D01*
X108295515Y-98015275D01*
X108131543Y-98083195D01*
X107982243Y-98112892D01*
X107957473Y-98117819D01*
X107779989Y-98117819D01*
X107755219Y-98112892D01*
X107605919Y-98083195D01*
X107441947Y-98015275D01*
X107294377Y-97916672D01*
X107168878Y-97791173D01*
X107070275Y-97643603D01*
X107002355Y-97479631D01*
X106967731Y-97305560D01*
X106967731Y-97128078D01*
X107002355Y-96954007D01*
X107070275Y-96790035D01*
X107168878Y-96642465D01*
X107294377Y-96516966D01*
X107441947Y-96418363D01*
X107605919Y-96350443D01*
X107755219Y-96320746D01*
X107779989Y-96315819D01*
X107957473Y-96315819D01*
X107982243Y-96320746D01*
G37*
G36*
X102256000Y-98051000D02*
G01*
X101554000Y-98051000D01*
X101554000Y-96549000D01*
X102256000Y-96549000D01*
X102256000Y-98051000D01*
G37*
G36*
X100986000Y-98051000D02*
G01*
X100284000Y-98051000D01*
X100284000Y-96549000D01*
X100986000Y-96549000D01*
X100986000Y-98051000D01*
G37*
G36*
X99716000Y-98051000D02*
G01*
X99014000Y-98051000D01*
X99014000Y-96549000D01*
X99716000Y-96549000D01*
X99716000Y-98051000D01*
G37*
G36*
X98446000Y-98051000D02*
G01*
X97744000Y-98051000D01*
X97744000Y-96549000D01*
X98446000Y-96549000D01*
X98446000Y-98051000D01*
G37*
G36*
X105236216Y-95178942D02*
G01*
X104399307Y-96176332D01*
X103631730Y-95532258D01*
X104468639Y-94534868D01*
X105236216Y-95178942D01*
G37*
G36*
X97149591Y-95078085D02*
G01*
X97183569Y-95088393D01*
X97214890Y-95105134D01*
X97242339Y-95127661D01*
X97264866Y-95155110D01*
X97281607Y-95186431D01*
X97291915Y-95220409D01*
X97296000Y-95261890D01*
X97296000Y-95938110D01*
X97291915Y-95979591D01*
X97281607Y-96013569D01*
X97264866Y-96044890D01*
X97242339Y-96072339D01*
X97214890Y-96094866D01*
X97183569Y-96111607D01*
X97149591Y-96121915D01*
X97108110Y-96126000D01*
X96506890Y-96126000D01*
X96465409Y-96121915D01*
X96431431Y-96111607D01*
X96400110Y-96094866D01*
X96372661Y-96072339D01*
X96350134Y-96044890D01*
X96333393Y-96013569D01*
X96323085Y-95979591D01*
X96319000Y-95938110D01*
X96319000Y-95261890D01*
X96323085Y-95220409D01*
X96333393Y-95186431D01*
X96350134Y-95155110D01*
X96372661Y-95127661D01*
X96400110Y-95105134D01*
X96431431Y-95088393D01*
X96465409Y-95078085D01*
X96506890Y-95074000D01*
X97108110Y-95074000D01*
X97149591Y-95078085D01*
G37*
G36*
X98724591Y-95078085D02*
G01*
X98758569Y-95088393D01*
X98789890Y-95105134D01*
X98817339Y-95127661D01*
X98839866Y-95155110D01*
X98856607Y-95186431D01*
X98866915Y-95220409D01*
X98871000Y-95261890D01*
X98871000Y-95938110D01*
X98866915Y-95979591D01*
X98856607Y-96013569D01*
X98839866Y-96044890D01*
X98817339Y-96072339D01*
X98789890Y-96094866D01*
X98758569Y-96111607D01*
X98724591Y-96121915D01*
X98683110Y-96126000D01*
X98081890Y-96126000D01*
X98040409Y-96121915D01*
X98006431Y-96111607D01*
X97975110Y-96094866D01*
X97947661Y-96072339D01*
X97925134Y-96044890D01*
X97908393Y-96013569D01*
X97898085Y-95979591D01*
X97894000Y-95938110D01*
X97894000Y-95261890D01*
X97898085Y-95220409D01*
X97908393Y-95186431D01*
X97925134Y-95155110D01*
X97947661Y-95127661D01*
X97975110Y-95105134D01*
X98006431Y-95088393D01*
X98040409Y-95078085D01*
X98081890Y-95074000D01*
X98683110Y-95074000D01*
X98724591Y-95078085D01*
G37*
G36*
X100199591Y-95083085D02*
G01*
X100233569Y-95093393D01*
X100264890Y-95110134D01*
X100292339Y-95132661D01*
X100314866Y-95160110D01*
X100331607Y-95191431D01*
X100341915Y-95225409D01*
X100346000Y-95266890D01*
X100346000Y-95868110D01*
X100341915Y-95909591D01*
X100331607Y-95943569D01*
X100314866Y-95974890D01*
X100292339Y-96002339D01*
X100264890Y-96024866D01*
X100233569Y-96041607D01*
X100199591Y-96051915D01*
X100158110Y-96056000D01*
X99481890Y-96056000D01*
X99440409Y-96051915D01*
X99406431Y-96041607D01*
X99375110Y-96024866D01*
X99347661Y-96002339D01*
X99325134Y-95974890D01*
X99308393Y-95943569D01*
X99298085Y-95909591D01*
X99294000Y-95868110D01*
X99294000Y-95266890D01*
X99298085Y-95225409D01*
X99308393Y-95191431D01*
X99325134Y-95160110D01*
X99347661Y-95132661D01*
X99375110Y-95110134D01*
X99406431Y-95093393D01*
X99440409Y-95083085D01*
X99481890Y-95079000D01*
X100158110Y-95079000D01*
X100199591Y-95083085D01*
G37*
G36*
X107984939Y-94901750D02*
G01*
X108138353Y-95323250D01*
X108154823Y-95368503D01*
X106937011Y-95811750D01*
X106461498Y-95984823D01*
X106461497Y-95984823D01*
X105968967Y-94631607D01*
X105845177Y-94291498D01*
X105845177Y-94291497D01*
X107090463Y-93838250D01*
X107538502Y-93675177D01*
X107538503Y-93675177D01*
X107984939Y-94901750D01*
G37*
G36*
X95159591Y-94183085D02*
G01*
X95193569Y-94193393D01*
X95224890Y-94210134D01*
X95252339Y-94232661D01*
X95274866Y-94260110D01*
X95291607Y-94291431D01*
X95301915Y-94325409D01*
X95306000Y-94366890D01*
X95306000Y-94968110D01*
X95301915Y-95009591D01*
X95291607Y-95043569D01*
X95274866Y-95074890D01*
X95252339Y-95102339D01*
X95224890Y-95124866D01*
X95193569Y-95141607D01*
X95159591Y-95151915D01*
X95118110Y-95156000D01*
X94441890Y-95156000D01*
X94400409Y-95151915D01*
X94366431Y-95141607D01*
X94335110Y-95124866D01*
X94307661Y-95102339D01*
X94285134Y-95074890D01*
X94268393Y-95043569D01*
X94258085Y-95009591D01*
X94254000Y-94968110D01*
X94254000Y-94366890D01*
X94258085Y-94325409D01*
X94268393Y-94291431D01*
X94285134Y-94260110D01*
X94307661Y-94232661D01*
X94335110Y-94210134D01*
X94366431Y-94193393D01*
X94400409Y-94183085D01*
X94441890Y-94179000D01*
X95118110Y-94179000D01*
X95159591Y-94183085D01*
G37*
G36*
X93689591Y-94173085D02*
G01*
X93723569Y-94183393D01*
X93754890Y-94200134D01*
X93782339Y-94222661D01*
X93804866Y-94250110D01*
X93821607Y-94281431D01*
X93831915Y-94315409D01*
X93836000Y-94356890D01*
X93836000Y-94958110D01*
X93831915Y-94999591D01*
X93821607Y-95033569D01*
X93804866Y-95064890D01*
X93782339Y-95092339D01*
X93754890Y-95114866D01*
X93723569Y-95131607D01*
X93689591Y-95141915D01*
X93648110Y-95146000D01*
X92971890Y-95146000D01*
X92930409Y-95141915D01*
X92896431Y-95131607D01*
X92865110Y-95114866D01*
X92837661Y-95092339D01*
X92815134Y-95064890D01*
X92798393Y-95033569D01*
X92788085Y-94999591D01*
X92784000Y-94958110D01*
X92784000Y-94356890D01*
X92788085Y-94315409D01*
X92798393Y-94281431D01*
X92815134Y-94250110D01*
X92837661Y-94222661D01*
X92865110Y-94200134D01*
X92896431Y-94183393D01*
X92930409Y-94173085D01*
X92971890Y-94169000D01*
X93648110Y-94169000D01*
X93689591Y-94173085D01*
G37*
G36*
X97149591Y-93598085D02*
G01*
X97183569Y-93608393D01*
X97214890Y-93625134D01*
X97242339Y-93647661D01*
X97264866Y-93675110D01*
X97281607Y-93706431D01*
X97291915Y-93740409D01*
X97296000Y-93781890D01*
X97296000Y-94458110D01*
X97291915Y-94499591D01*
X97281607Y-94533569D01*
X97264866Y-94564890D01*
X97242339Y-94592339D01*
X97214890Y-94614866D01*
X97183569Y-94631607D01*
X97149591Y-94641915D01*
X97108110Y-94646000D01*
X96506890Y-94646000D01*
X96465409Y-94641915D01*
X96431431Y-94631607D01*
X96400110Y-94614866D01*
X96372661Y-94592339D01*
X96350134Y-94564890D01*
X96333393Y-94533569D01*
X96323085Y-94499591D01*
X96319000Y-94458110D01*
X96319000Y-93781890D01*
X96323085Y-93740409D01*
X96333393Y-93706431D01*
X96350134Y-93675110D01*
X96372661Y-93647661D01*
X96400110Y-93625134D01*
X96431431Y-93608393D01*
X96465409Y-93598085D01*
X96506890Y-93594000D01*
X97108110Y-93594000D01*
X97149591Y-93598085D01*
G37*
G36*
X98724591Y-93598085D02*
G01*
X98758569Y-93608393D01*
X98789890Y-93625134D01*
X98817339Y-93647661D01*
X98839866Y-93675110D01*
X98856607Y-93706431D01*
X98866915Y-93740409D01*
X98871000Y-93781890D01*
X98871000Y-94458110D01*
X98866915Y-94499591D01*
X98856607Y-94533569D01*
X98839866Y-94564890D01*
X98817339Y-94592339D01*
X98789890Y-94614866D01*
X98758569Y-94631607D01*
X98724591Y-94641915D01*
X98683110Y-94646000D01*
X98081890Y-94646000D01*
X98040409Y-94641915D01*
X98006431Y-94631607D01*
X97975110Y-94614866D01*
X97947661Y-94592339D01*
X97925134Y-94564890D01*
X97908393Y-94533569D01*
X97898085Y-94499591D01*
X97894000Y-94458110D01*
X97894000Y-93781890D01*
X97898085Y-93740409D01*
X97908393Y-93706431D01*
X97925134Y-93675110D01*
X97947661Y-93647661D01*
X97975110Y-93625134D01*
X98006431Y-93608393D01*
X98040409Y-93598085D01*
X98081890Y-93594000D01*
X98683110Y-93594000D01*
X98724591Y-93598085D01*
G37*
G36*
X100199591Y-93508085D02*
G01*
X100233569Y-93518393D01*
X100264890Y-93535134D01*
X100292339Y-93557661D01*
X100314866Y-93585110D01*
X100331607Y-93616431D01*
X100341915Y-93650409D01*
X100346000Y-93691890D01*
X100346000Y-94293110D01*
X100341915Y-94334591D01*
X100331607Y-94368569D01*
X100314866Y-94399890D01*
X100292339Y-94427339D01*
X100264890Y-94449866D01*
X100233569Y-94466607D01*
X100199591Y-94476915D01*
X100158110Y-94481000D01*
X99481890Y-94481000D01*
X99440409Y-94476915D01*
X99406431Y-94466607D01*
X99375110Y-94449866D01*
X99347661Y-94427339D01*
X99325134Y-94399890D01*
X99308393Y-94368569D01*
X99298085Y-94334591D01*
X99294000Y-94293110D01*
X99294000Y-93691890D01*
X99298085Y-93650409D01*
X99308393Y-93616431D01*
X99325134Y-93585110D01*
X99347661Y-93557661D01*
X99375110Y-93535134D01*
X99406431Y-93518393D01*
X99440409Y-93508085D01*
X99481890Y-93504000D01*
X100158110Y-93504000D01*
X100199591Y-93508085D01*
G37*
G36*
X102708270Y-93057742D02*
G01*
X101871361Y-94055132D01*
X101103784Y-93411058D01*
X101940693Y-92413668D01*
X102708270Y-93057742D01*
G37*
G36*
X95159591Y-92608085D02*
G01*
X95193569Y-92618393D01*
X95224890Y-92635134D01*
X95252339Y-92657661D01*
X95274866Y-92685110D01*
X95291607Y-92716431D01*
X95301915Y-92750409D01*
X95306000Y-92791890D01*
X95306000Y-93393110D01*
X95301915Y-93434591D01*
X95291607Y-93468569D01*
X95274866Y-93499890D01*
X95252339Y-93527339D01*
X95224890Y-93549866D01*
X95193569Y-93566607D01*
X95159591Y-93576915D01*
X95118110Y-93581000D01*
X94441890Y-93581000D01*
X94400409Y-93576915D01*
X94366431Y-93566607D01*
X94335110Y-93549866D01*
X94307661Y-93527339D01*
X94285134Y-93499890D01*
X94268393Y-93468569D01*
X94258085Y-93434591D01*
X94254000Y-93393110D01*
X94254000Y-92791890D01*
X94258085Y-92750409D01*
X94268393Y-92716431D01*
X94285134Y-92685110D01*
X94307661Y-92657661D01*
X94335110Y-92635134D01*
X94366431Y-92618393D01*
X94400409Y-92608085D01*
X94441890Y-92604000D01*
X95118110Y-92604000D01*
X95159591Y-92608085D01*
G37*
G36*
X93689591Y-92598085D02*
G01*
X93723569Y-92608393D01*
X93754890Y-92625134D01*
X93782339Y-92647661D01*
X93804866Y-92675110D01*
X93821607Y-92706431D01*
X93831915Y-92740409D01*
X93836000Y-92781890D01*
X93836000Y-93383110D01*
X93831915Y-93424591D01*
X93821607Y-93458569D01*
X93804866Y-93489890D01*
X93782339Y-93517339D01*
X93754890Y-93539866D01*
X93723569Y-93556607D01*
X93689591Y-93566915D01*
X93648110Y-93571000D01*
X92971890Y-93571000D01*
X92930409Y-93566915D01*
X92896431Y-93556607D01*
X92865110Y-93539866D01*
X92837661Y-93517339D01*
X92815134Y-93489890D01*
X92798393Y-93458569D01*
X92788085Y-93424591D01*
X92784000Y-93383110D01*
X92784000Y-92781890D01*
X92788085Y-92740409D01*
X92798393Y-92706431D01*
X92815134Y-92675110D01*
X92837661Y-92647661D01*
X92865110Y-92625134D01*
X92896431Y-92608393D01*
X92930409Y-92598085D01*
X92971890Y-92594000D01*
X93648110Y-92594000D01*
X93689591Y-92598085D01*
G37*
G36*
X107055138Y-91954621D02*
G01*
X107089725Y-91962686D01*
X107127689Y-91979887D01*
X107176494Y-92008065D01*
X107176497Y-92008066D01*
X107664503Y-92289816D01*
X107664511Y-92289822D01*
X107713312Y-92317997D01*
X107747190Y-92342274D01*
X107771466Y-92368193D01*
X107790218Y-92398348D01*
X107802726Y-92431583D01*
X107808511Y-92466623D01*
X107807350Y-92502109D01*
X107799285Y-92536696D01*
X107782084Y-92574660D01*
X107753906Y-92623465D01*
X107753905Y-92623468D01*
X107509655Y-93046522D01*
X107509650Y-93046530D01*
X107481474Y-93095331D01*
X107457197Y-93129209D01*
X107431276Y-93153487D01*
X107401122Y-93172238D01*
X107367891Y-93184745D01*
X107332848Y-93190530D01*
X107297362Y-93189369D01*
X107262775Y-93181304D01*
X107224811Y-93164103D01*
X107176006Y-93135925D01*
X107176003Y-93135924D01*
X106687997Y-92854174D01*
X106687989Y-92854168D01*
X106639188Y-92825993D01*
X106605310Y-92801716D01*
X106581034Y-92775797D01*
X106562282Y-92745642D01*
X106549774Y-92712407D01*
X106543989Y-92677367D01*
X106545150Y-92641881D01*
X106553215Y-92607294D01*
X106570416Y-92569330D01*
X106609226Y-92502109D01*
X106842845Y-92097468D01*
X106842850Y-92097460D01*
X106871026Y-92048659D01*
X106895303Y-92014781D01*
X106921224Y-91990503D01*
X106951378Y-91971752D01*
X106984609Y-91959245D01*
X107019652Y-91953460D01*
X107055138Y-91954621D01*
G37*
G36*
X105879318Y-90086659D02*
G01*
X105889101Y-90088940D01*
X105903871Y-90095633D01*
X107192274Y-90839492D01*
X107199615Y-90844753D01*
X107205455Y-90848938D01*
X107212323Y-90856271D01*
X107217628Y-90864802D01*
X107221167Y-90874204D01*
X107222803Y-90884116D01*
X107222803Y-90884119D01*
X107222475Y-90894158D01*
X107220194Y-90903941D01*
X107213500Y-90918713D01*
X105969642Y-93073139D01*
X105960826Y-93085442D01*
X105960196Y-93086321D01*
X105952863Y-93093189D01*
X105944332Y-93098494D01*
X105934930Y-93102033D01*
X105925018Y-93103669D01*
X105925015Y-93103669D01*
X105914976Y-93103341D01*
X105905193Y-93101060D01*
X105890423Y-93094367D01*
X104602020Y-92350508D01*
X104588840Y-92341063D01*
X104581971Y-92333729D01*
X104576666Y-92325198D01*
X104573127Y-92315796D01*
X104571491Y-92305884D01*
X104571819Y-92295843D01*
X104571819Y-92295842D01*
X104574100Y-92286059D01*
X104580794Y-92271287D01*
X105824652Y-90116861D01*
X105834097Y-90103680D01*
X105841431Y-90096811D01*
X105849962Y-90091506D01*
X105859364Y-90087967D01*
X105869276Y-90086331D01*
X105869279Y-90086331D01*
X105879318Y-90086659D01*
G37*
G36*
X91960721Y-91850174D02*
G01*
X92060995Y-91891709D01*
X92060996Y-91891710D01*
X92151242Y-91952010D01*
X92227990Y-92028758D01*
X92227991Y-92028760D01*
X92288291Y-92119005D01*
X92329826Y-92219279D01*
X92351000Y-92325730D01*
X92351000Y-92434270D01*
X92329826Y-92540721D01*
X92288291Y-92640995D01*
X92288290Y-92640996D01*
X92227990Y-92731242D01*
X92151242Y-92807990D01*
X92124298Y-92825993D01*
X92060995Y-92868291D01*
X91960721Y-92909826D01*
X91854270Y-92931000D01*
X91745730Y-92931000D01*
X91639279Y-92909826D01*
X91539005Y-92868291D01*
X91475702Y-92825993D01*
X91448758Y-92807990D01*
X91372010Y-92731242D01*
X91311710Y-92640996D01*
X91311709Y-92640995D01*
X91270174Y-92540721D01*
X91249000Y-92434270D01*
X91249000Y-92325730D01*
X91270174Y-92219279D01*
X91311709Y-92119005D01*
X91372009Y-92028760D01*
X91372010Y-92028758D01*
X91448758Y-91952010D01*
X91539004Y-91891710D01*
X91539005Y-91891709D01*
X91639279Y-91850174D01*
X91745730Y-91829000D01*
X91854270Y-91829000D01*
X91960721Y-91850174D01*
G37*
G36*
X93170721Y-90790174D02*
G01*
X93270995Y-90831709D01*
X93296778Y-90848937D01*
X93361242Y-90892010D01*
X93437990Y-90968758D01*
X93437991Y-90968760D01*
X93498291Y-91059005D01*
X93539826Y-91159279D01*
X93561000Y-91265730D01*
X93561000Y-91374270D01*
X93539826Y-91480721D01*
X93498291Y-91580995D01*
X93498290Y-91580996D01*
X93437990Y-91671242D01*
X93361242Y-91747990D01*
X93351973Y-91754183D01*
X93270995Y-91808291D01*
X93170721Y-91849826D01*
X93064270Y-91871000D01*
X92955730Y-91871000D01*
X92849279Y-91849826D01*
X92749005Y-91808291D01*
X92668027Y-91754183D01*
X92658758Y-91747990D01*
X92582010Y-91671242D01*
X92521710Y-91580996D01*
X92521709Y-91580995D01*
X92480174Y-91480721D01*
X92459000Y-91374270D01*
X92459000Y-91265730D01*
X92480174Y-91159279D01*
X92521709Y-91059005D01*
X92582009Y-90968760D01*
X92582010Y-90968758D01*
X92658758Y-90892010D01*
X92723222Y-90848937D01*
X92749005Y-90831709D01*
X92849279Y-90790174D01*
X92955730Y-90769000D01*
X93064270Y-90769000D01*
X93170721Y-90790174D01*
G37*
G36*
X107842638Y-90590631D02*
G01*
X107877225Y-90598696D01*
X107915189Y-90615897D01*
X107963994Y-90644075D01*
X107963997Y-90644076D01*
X108452003Y-90925826D01*
X108452011Y-90925832D01*
X108500812Y-90954007D01*
X108534690Y-90978284D01*
X108558966Y-91004203D01*
X108577718Y-91034358D01*
X108590226Y-91067593D01*
X108596011Y-91102633D01*
X108594850Y-91138119D01*
X108586785Y-91172706D01*
X108569584Y-91210670D01*
X108541406Y-91259475D01*
X108541405Y-91259478D01*
X108297155Y-91682532D01*
X108297150Y-91682540D01*
X108268974Y-91731341D01*
X108244697Y-91765219D01*
X108218776Y-91789497D01*
X108188622Y-91808248D01*
X108155391Y-91820755D01*
X108120348Y-91826540D01*
X108084862Y-91825379D01*
X108050275Y-91817314D01*
X108012311Y-91800113D01*
X107963506Y-91771935D01*
X107963503Y-91771934D01*
X107475497Y-91490184D01*
X107475489Y-91490178D01*
X107426688Y-91462003D01*
X107392810Y-91437726D01*
X107368534Y-91411807D01*
X107349782Y-91381652D01*
X107337274Y-91348417D01*
X107331489Y-91313377D01*
X107332650Y-91277891D01*
X107340715Y-91243304D01*
X107357916Y-91205340D01*
X107396726Y-91138119D01*
X107630345Y-90733478D01*
X107630350Y-90733470D01*
X107658526Y-90684669D01*
X107682803Y-90650791D01*
X107708724Y-90626513D01*
X107738878Y-90607762D01*
X107772109Y-90595255D01*
X107807152Y-90589470D01*
X107842638Y-90590631D01*
G37*
G36*
X102675024Y-88236659D02*
G01*
X102684807Y-88238940D01*
X102699577Y-88245633D01*
X103987980Y-88989492D01*
X104001160Y-88998937D01*
X104001161Y-88998938D01*
X104008029Y-89006271D01*
X104013334Y-89014802D01*
X104016873Y-89024204D01*
X104018509Y-89034116D01*
X104018509Y-89034119D01*
X104018181Y-89044158D01*
X104015900Y-89053941D01*
X104009206Y-89068713D01*
X102765348Y-91223139D01*
X102755903Y-91236320D01*
X102755902Y-91236321D01*
X102748569Y-91243189D01*
X102740038Y-91248494D01*
X102730636Y-91252033D01*
X102720724Y-91253669D01*
X102720721Y-91253669D01*
X102710682Y-91253341D01*
X102700899Y-91251060D01*
X102686129Y-91244367D01*
X101397726Y-90500508D01*
X101384546Y-90491063D01*
X101377677Y-90483729D01*
X101372372Y-90475198D01*
X101368833Y-90465796D01*
X101367197Y-90455884D01*
X101367525Y-90445843D01*
X101367525Y-90445842D01*
X101369806Y-90436059D01*
X101376500Y-90421287D01*
X102620358Y-88266861D01*
X102629803Y-88253680D01*
X102637137Y-88246811D01*
X102645668Y-88241506D01*
X102655070Y-88237967D01*
X102664982Y-88236331D01*
X102664985Y-88236331D01*
X102675024Y-88236659D01*
G37*
G36*
X97622199Y-88829954D02*
G01*
X97634450Y-88830556D01*
X97652869Y-88830556D01*
X97675149Y-88832750D01*
X97759233Y-88849476D01*
X97780660Y-88855976D01*
X97859858Y-88888780D01*
X97865303Y-88891691D01*
X97865309Y-88891693D01*
X97874169Y-88896429D01*
X97874173Y-88896432D01*
X97879614Y-88899340D01*
X97950899Y-88946971D01*
X97968204Y-88961172D01*
X98028828Y-89021796D01*
X98043029Y-89039101D01*
X98090660Y-89110386D01*
X98093568Y-89115827D01*
X98093571Y-89115831D01*
X98098307Y-89124691D01*
X98098309Y-89124697D01*
X98101220Y-89130142D01*
X98134024Y-89209340D01*
X98140524Y-89230767D01*
X98157250Y-89314851D01*
X98159444Y-89337131D01*
X98159444Y-89355550D01*
X98160046Y-89367801D01*
X98161852Y-89386139D01*
X98161852Y-89873860D01*
X98160263Y-89889999D01*
X98157348Y-89899608D01*
X98152610Y-89908472D01*
X98146237Y-89916237D01*
X98133794Y-89926448D01*
X98123425Y-89933378D01*
X98106098Y-89950705D01*
X98092485Y-89971080D01*
X98083109Y-89993720D01*
X98078329Y-90017753D01*
X98078330Y-90042257D01*
X98083112Y-90066290D01*
X98092490Y-90088929D01*
X98106105Y-90109302D01*
X98123432Y-90126629D01*
X98133802Y-90133558D01*
X98146237Y-90143763D01*
X98152610Y-90151528D01*
X98157348Y-90160392D01*
X98160263Y-90170001D01*
X98161852Y-90186140D01*
X98161852Y-90673862D01*
X98160046Y-90692199D01*
X98159444Y-90704450D01*
X98159444Y-90722869D01*
X98157250Y-90745149D01*
X98140524Y-90829233D01*
X98134024Y-90850660D01*
X98101220Y-90929858D01*
X98098309Y-90935303D01*
X98098307Y-90935309D01*
X98093571Y-90944169D01*
X98093568Y-90944173D01*
X98090660Y-90949614D01*
X98043029Y-91020899D01*
X98028828Y-91038204D01*
X97968204Y-91098828D01*
X97950899Y-91113029D01*
X97879614Y-91160660D01*
X97874173Y-91163568D01*
X97874169Y-91163571D01*
X97865309Y-91168307D01*
X97865303Y-91168309D01*
X97859858Y-91171220D01*
X97780660Y-91204024D01*
X97759233Y-91210524D01*
X97675149Y-91227250D01*
X97652869Y-91229444D01*
X97634450Y-91229444D01*
X97622199Y-91230046D01*
X97603862Y-91231852D01*
X97116138Y-91231852D01*
X97097801Y-91230046D01*
X97085550Y-91229444D01*
X97067131Y-91229444D01*
X97044851Y-91227250D01*
X96960767Y-91210524D01*
X96939340Y-91204024D01*
X96860142Y-91171220D01*
X96854697Y-91168309D01*
X96854691Y-91168307D01*
X96845831Y-91163571D01*
X96845827Y-91163568D01*
X96840386Y-91160660D01*
X96769101Y-91113029D01*
X96751796Y-91098828D01*
X96691172Y-91038204D01*
X96676971Y-91020899D01*
X96629340Y-90949614D01*
X96626432Y-90944173D01*
X96626429Y-90944169D01*
X96621693Y-90935309D01*
X96621691Y-90935303D01*
X96618780Y-90929858D01*
X96585976Y-90850660D01*
X96579476Y-90829233D01*
X96562750Y-90745149D01*
X96560556Y-90722869D01*
X96560556Y-90704450D01*
X96559954Y-90692199D01*
X96558148Y-90673862D01*
X96558148Y-90186140D01*
X96559737Y-90170001D01*
X96562652Y-90160392D01*
X96567390Y-90151528D01*
X96573763Y-90143763D01*
X96586206Y-90133552D01*
X96596575Y-90126622D01*
X96613902Y-90109295D01*
X96627515Y-90088920D01*
X96636891Y-90066280D01*
X96641671Y-90042247D01*
X96641670Y-90017743D01*
X96636888Y-89993710D01*
X96627510Y-89971071D01*
X96613895Y-89950698D01*
X96596568Y-89933371D01*
X96586198Y-89926442D01*
X96573763Y-89916237D01*
X96567390Y-89908472D01*
X96562652Y-89899608D01*
X96559737Y-89889999D01*
X96558148Y-89873860D01*
X96558148Y-89386139D01*
X96559954Y-89367801D01*
X96560556Y-89355550D01*
X96560556Y-89337131D01*
X96562750Y-89314851D01*
X96579476Y-89230767D01*
X96585976Y-89209340D01*
X96618780Y-89130142D01*
X96621691Y-89124697D01*
X96621693Y-89124691D01*
X96626429Y-89115831D01*
X96626432Y-89115827D01*
X96629340Y-89110386D01*
X96676971Y-89039101D01*
X96691172Y-89021796D01*
X96751796Y-88961172D01*
X96769101Y-88946971D01*
X96840386Y-88899340D01*
X96845827Y-88896432D01*
X96845831Y-88896429D01*
X96854691Y-88891693D01*
X96854697Y-88891691D01*
X96860142Y-88888780D01*
X96939340Y-88855976D01*
X96960767Y-88849476D01*
X97044851Y-88832750D01*
X97067131Y-88830556D01*
X97085550Y-88830556D01*
X97097801Y-88829954D01*
X97116139Y-88828148D01*
X97603861Y-88828148D01*
X97622199Y-88829954D01*
G37*
G36*
X94430721Y-89900174D02*
G01*
X94530995Y-89941709D01*
X94530996Y-89941710D01*
X94621242Y-90002010D01*
X94697990Y-90078758D01*
X94714642Y-90103680D01*
X94758291Y-90169005D01*
X94799826Y-90269279D01*
X94821000Y-90375730D01*
X94821000Y-90484270D01*
X94799826Y-90590721D01*
X94758291Y-90690995D01*
X94736993Y-90722869D01*
X94697990Y-90781242D01*
X94621242Y-90857990D01*
X94611047Y-90864802D01*
X94530995Y-90918291D01*
X94430721Y-90959826D01*
X94324270Y-90981000D01*
X94215730Y-90981000D01*
X94109279Y-90959826D01*
X94009005Y-90918291D01*
X93928953Y-90864802D01*
X93918758Y-90857990D01*
X93842010Y-90781242D01*
X93803007Y-90722869D01*
X93781709Y-90690995D01*
X93740174Y-90590721D01*
X93719000Y-90484270D01*
X93719000Y-90375730D01*
X93740174Y-90269279D01*
X93781709Y-90169005D01*
X93825358Y-90103680D01*
X93842010Y-90078758D01*
X93918758Y-90002010D01*
X94009004Y-89941710D01*
X94009005Y-89941709D01*
X94109279Y-89900174D01*
X94215730Y-89879000D01*
X94324270Y-89879000D01*
X94430721Y-89900174D01*
G37*
G36*
X95710721Y-89100174D02*
G01*
X95810995Y-89141709D01*
X95810996Y-89141710D01*
X95901242Y-89202010D01*
X95977990Y-89278758D01*
X95977991Y-89278760D01*
X96038291Y-89369005D01*
X96079826Y-89469279D01*
X96101000Y-89575730D01*
X96101000Y-89684270D01*
X96079826Y-89790721D01*
X96038291Y-89890995D01*
X96011395Y-89931247D01*
X95977990Y-89981242D01*
X95901242Y-90057990D01*
X95888835Y-90066280D01*
X95810995Y-90118291D01*
X95710721Y-90159826D01*
X95604270Y-90181000D01*
X95495730Y-90181000D01*
X95389279Y-90159826D01*
X95289005Y-90118291D01*
X95211165Y-90066280D01*
X95198758Y-90057990D01*
X95122010Y-89981242D01*
X95088605Y-89931247D01*
X95061709Y-89890995D01*
X95020174Y-89790721D01*
X94999000Y-89684270D01*
X94999000Y-89575730D01*
X95020174Y-89469279D01*
X95061709Y-89369005D01*
X95122009Y-89278760D01*
X95122010Y-89278758D01*
X95198758Y-89202010D01*
X95289004Y-89141710D01*
X95289005Y-89141709D01*
X95389279Y-89100174D01*
X95495730Y-89079000D01*
X95604270Y-89079000D01*
X95710721Y-89100174D01*
G37*
M02*
