%TF.GenerationSoftware,KiCad,Pcbnew,(5.1.5)-3*%
%TF.CreationDate,2021-10-31T01:47:11+08:00*%
%TF.ProjectId,STM32_FOC,53544d33-325f-4464-9f43-2e6b69636164,rev?*%
%TF.SameCoordinates,Original*%
%TF.FileFunction,Copper,L2,Inr*%
%TF.FilePolarity,Positive*%
%FSLAX46Y46*%
G04 Gerber Fmt 4.6, Leading zero omitted, Abs format (unit mm)*
G04 Created by KiCad (PCBNEW (5.1.5)-3) date 2021-10-31 01:47:11*
%MOMM*%
%LPD*%
G04 APERTURE LIST*
%TA.AperFunction,ViaPad*%
%ADD10C,1.700000*%
%TD*%
%TA.AperFunction,ViaPad*%
%ADD11C,0.100000*%
%TD*%
%TA.AperFunction,ViaPad*%
%ADD12C,0.450000*%
%TD*%
%TA.AperFunction,ViaPad*%
%ADD13C,0.600000*%
%TD*%
%TA.AperFunction,ViaPad*%
%ADD14C,0.800000*%
%TD*%
%TA.AperFunction,Conductor*%
%ADD15C,0.254000*%
%TD*%
G04 APERTURE END LIST*
D10*
%TO.N,W*%
%TO.C,J3*%
X110457462Y-100493639D02*
X110457462Y-100493639D01*
%TO.N,V*%
X109588731Y-98106819D02*
X109588731Y-98106819D01*
%TA.AperFunction,ViaPad*%
D11*
%TO.N,U*%
G36*
X109228022Y-94630544D02*
G01*
X109809456Y-96228022D01*
X108211978Y-96809456D01*
X107630544Y-95211978D01*
X109228022Y-94630544D01*
G37*
%TD.AperFunction*%
%TD*%
D12*
%TO.N,GND*%
X99950000Y-106650000D03*
X99950000Y-106150000D03*
X101100000Y-106150000D03*
X100550000Y-106150000D03*
X101100000Y-106650000D03*
X101100000Y-107200000D03*
X101100000Y-107750000D03*
X100550000Y-106650000D03*
X100550000Y-107200000D03*
X100550000Y-107750000D03*
X99950000Y-107750000D03*
X99950000Y-107200000D03*
D13*
X89650000Y-96500000D03*
X90750000Y-92500000D03*
X91250000Y-91250000D03*
X94700000Y-91850000D03*
X98050000Y-94300000D03*
X106200000Y-89250000D03*
X108400000Y-91650000D03*
X106200000Y-97550000D03*
X106550000Y-101700000D03*
X106400000Y-99400000D03*
X93100000Y-97750000D03*
X96150000Y-88550000D03*
X97320797Y-90849653D03*
D12*
X100000000Y-99500006D03*
X101450000Y-96300000D03*
D13*
X90100000Y-98049990D03*
D12*
X97350000Y-108300000D03*
X102950000Y-101950000D03*
D13*
X90110000Y-99149990D03*
X90750000Y-102400000D03*
X100616971Y-95203340D03*
D12*
X95300000Y-104700000D03*
D13*
X98900000Y-112600000D03*
%TO.N,+3V3*%
X110800000Y-95250000D03*
X100575010Y-94300000D03*
D12*
X96950000Y-94650000D03*
D13*
X94750000Y-92850000D03*
X95100000Y-90850000D03*
X90100000Y-100950000D03*
X104100000Y-101850000D03*
X98095000Y-97300000D03*
X95975769Y-97225769D03*
%TO.N,Net-(C9-Pad2)*%
X105675010Y-93500000D03*
D12*
%TO.N,V*%
X99825000Y-110802580D03*
X99825000Y-111300000D03*
D13*
%TO.N,USART2_RX*%
X94425000Y-103400000D03*
%TO.N,USART2_TX*%
X96250002Y-107550002D03*
D12*
%TO.N,SWCLK*%
X101400000Y-91300000D03*
%TO.N,SWDIO*%
X105150000Y-105254402D03*
D14*
%TO.N,+12V*%
X87900000Y-99850000D03*
X87950000Y-100800000D03*
X88950000Y-100800000D03*
D13*
X93700000Y-110500000D03*
X94100000Y-111200000D03*
X94500000Y-110450000D03*
X105000000Y-109500000D03*
X94800000Y-111200000D03*
X102450000Y-89600000D03*
X106100000Y-109500000D03*
D12*
X102450000Y-90200000D03*
D13*
X104600020Y-91650000D03*
D14*
X88950004Y-99900000D03*
D13*
%TO.N,Net-(JP1-Pad2)*%
X99100000Y-94050000D03*
D12*
%TO.N,I2C1_SCL*%
X98884310Y-91715711D03*
X99400000Y-102255820D03*
%TO.N,I2C1_SDA*%
X98389327Y-91350010D03*
X100632149Y-102417851D03*
%TO.N,EN1*%
X97000000Y-102650000D03*
D13*
X92500006Y-102650000D03*
D12*
%TO.N,SPI2_MOSI*%
X103850000Y-97950000D03*
X93100000Y-93300000D03*
%TO.N,SPI2_MISO*%
X104100000Y-98450000D03*
X95700000Y-96200000D03*
%TO.N,SPI2_SCK*%
X93250000Y-95200000D03*
X103849989Y-98950000D03*
%TO.N,SPI2_CS*%
X92599479Y-95950521D03*
X103300000Y-99849991D03*
%TO.N,CS*%
X97375010Y-98100000D03*
%TO.N,SCK*%
X96900000Y-98700000D03*
%TO.N,MISO*%
X100700000Y-97600000D03*
%TO.N,MOSI*%
X97749979Y-99250000D03*
%TO.N,A*%
X95299994Y-102100000D03*
%TO.N,B*%
X101500000Y-98500000D03*
%TO.N,Z*%
X107699970Y-101900000D03*
%TD*%
D15*
%TO.N,GND*%
G36*
X101037609Y-87477916D02*
G01*
X102408844Y-87668062D01*
X103750839Y-88007901D01*
X105047303Y-88493308D01*
X106282500Y-89118391D01*
X107441436Y-89875561D01*
X108510043Y-90755629D01*
X109475350Y-91747911D01*
X110325638Y-92840362D01*
X111050588Y-94019721D01*
X111239486Y-94420005D01*
X111072729Y-94350932D01*
X110892089Y-94315000D01*
X110707911Y-94315000D01*
X110527271Y-94350932D01*
X110357111Y-94421414D01*
X110203972Y-94523738D01*
X110073738Y-94653972D01*
X109971414Y-94807111D01*
X109971358Y-94807245D01*
X109827614Y-94412311D01*
X109773517Y-94299529D01*
X109698458Y-94199469D01*
X109605320Y-94115974D01*
X109497683Y-94052254D01*
X109379683Y-94010758D01*
X109255854Y-93993079D01*
X109130956Y-93999898D01*
X109009789Y-94030952D01*
X107412311Y-94612386D01*
X107299529Y-94666483D01*
X107199469Y-94741542D01*
X107115974Y-94834680D01*
X107052254Y-94942317D01*
X107010758Y-95060317D01*
X106993079Y-95184146D01*
X106999898Y-95309044D01*
X107030952Y-95430211D01*
X107612386Y-97027689D01*
X107666483Y-97140471D01*
X107741542Y-97240531D01*
X107834680Y-97324026D01*
X107942317Y-97387746D01*
X108060317Y-97429242D01*
X108184146Y-97446921D01*
X108256350Y-97442979D01*
X108160799Y-97673661D01*
X108103731Y-97960559D01*
X108103731Y-98253079D01*
X108160799Y-98539977D01*
X108272741Y-98810230D01*
X108435256Y-99053451D01*
X108642099Y-99260294D01*
X108885320Y-99422809D01*
X109155573Y-99534751D01*
X109293804Y-99562247D01*
X109141472Y-99790228D01*
X109029530Y-100060481D01*
X108972462Y-100347379D01*
X108972462Y-100639899D01*
X109029530Y-100926797D01*
X109141472Y-101197050D01*
X109303987Y-101440271D01*
X109510830Y-101647114D01*
X109754051Y-101809629D01*
X110024304Y-101921571D01*
X110311202Y-101978639D01*
X110603722Y-101978639D01*
X110890620Y-101921571D01*
X111160873Y-101809629D01*
X111404094Y-101647114D01*
X111610937Y-101440271D01*
X111773452Y-101197050D01*
X111885394Y-100926797D01*
X111942462Y-100639899D01*
X111942462Y-100347379D01*
X111885394Y-100060481D01*
X111773452Y-99790228D01*
X111610937Y-99547007D01*
X111404094Y-99340164D01*
X111160873Y-99177649D01*
X110890620Y-99065707D01*
X110752389Y-99038211D01*
X110904721Y-98810230D01*
X111016663Y-98539977D01*
X111073731Y-98253079D01*
X111073731Y-97960559D01*
X111016663Y-97673661D01*
X110904721Y-97403408D01*
X110742206Y-97160187D01*
X110535363Y-96953344D01*
X110292142Y-96790829D01*
X110179559Y-96744196D01*
X110240531Y-96698458D01*
X110324026Y-96605320D01*
X110387746Y-96497683D01*
X110429242Y-96379683D01*
X110446921Y-96255854D01*
X110440102Y-96130956D01*
X110434943Y-96110825D01*
X110527271Y-96149068D01*
X110707911Y-96185000D01*
X110892089Y-96185000D01*
X111072729Y-96149068D01*
X111242889Y-96078586D01*
X111396028Y-95976262D01*
X111526262Y-95846028D01*
X111628586Y-95692889D01*
X111699068Y-95522729D01*
X111709530Y-95470134D01*
X112090897Y-96581020D01*
X112393630Y-97931869D01*
X112545920Y-99307822D01*
X112545920Y-100692178D01*
X112393630Y-102068131D01*
X112090897Y-103418980D01*
X111641398Y-104728327D01*
X111050588Y-105980279D01*
X110325638Y-107159638D01*
X109475350Y-108252089D01*
X108510043Y-109244371D01*
X107441436Y-110124439D01*
X106282500Y-110881609D01*
X105047303Y-111506692D01*
X103750839Y-111992099D01*
X102408844Y-112331938D01*
X101037609Y-112522084D01*
X99653780Y-112560229D01*
X98274153Y-112445910D01*
X96915475Y-112180514D01*
X95594239Y-111767264D01*
X95556533Y-111750725D01*
X95628586Y-111642889D01*
X95699068Y-111472729D01*
X95735000Y-111292089D01*
X95735000Y-111107911D01*
X95699068Y-110927271D01*
X95628586Y-110757111D01*
X95602371Y-110717877D01*
X98965000Y-110717877D01*
X98965000Y-110887283D01*
X98997623Y-111051290D01*
X98965000Y-111215297D01*
X98965000Y-111384703D01*
X98998049Y-111550853D01*
X99062878Y-111707363D01*
X99156995Y-111848218D01*
X99276782Y-111968005D01*
X99417637Y-112062122D01*
X99574147Y-112126951D01*
X99740297Y-112160000D01*
X99909703Y-112160000D01*
X100075853Y-112126951D01*
X100232363Y-112062122D01*
X100373218Y-111968005D01*
X100493005Y-111848218D01*
X100587122Y-111707363D01*
X100651951Y-111550853D01*
X100685000Y-111384703D01*
X100685000Y-111215297D01*
X100652377Y-111051290D01*
X100685000Y-110887283D01*
X100685000Y-110717877D01*
X100651951Y-110551727D01*
X100587122Y-110395217D01*
X100493005Y-110254362D01*
X100373218Y-110134575D01*
X100232363Y-110040458D01*
X100075853Y-109975629D01*
X99909703Y-109942580D01*
X99740297Y-109942580D01*
X99574147Y-109975629D01*
X99417637Y-110040458D01*
X99276782Y-110134575D01*
X99156995Y-110254362D01*
X99062878Y-110395217D01*
X98998049Y-110551727D01*
X98965000Y-110717877D01*
X95602371Y-110717877D01*
X95526262Y-110603972D01*
X95435000Y-110512710D01*
X95435000Y-110357911D01*
X95399068Y-110177271D01*
X95328586Y-110007111D01*
X95226262Y-109853972D01*
X95096028Y-109723738D01*
X94942889Y-109621414D01*
X94772729Y-109550932D01*
X94592089Y-109515000D01*
X94407911Y-109515000D01*
X94227271Y-109550932D01*
X94057111Y-109621414D01*
X94043743Y-109630347D01*
X93972729Y-109600932D01*
X93792089Y-109565000D01*
X93607911Y-109565000D01*
X93427271Y-109600932D01*
X93257111Y-109671414D01*
X93103972Y-109773738D01*
X92973738Y-109903972D01*
X92871414Y-110057111D01*
X92800932Y-110227271D01*
X92791972Y-110272314D01*
X92012131Y-109699133D01*
X91695780Y-109407911D01*
X104065000Y-109407911D01*
X104065000Y-109592089D01*
X104100932Y-109772729D01*
X104171414Y-109942889D01*
X104273738Y-110096028D01*
X104403972Y-110226262D01*
X104557111Y-110328586D01*
X104727271Y-110399068D01*
X104907911Y-110435000D01*
X105092089Y-110435000D01*
X105272729Y-110399068D01*
X105442889Y-110328586D01*
X105550000Y-110257017D01*
X105657111Y-110328586D01*
X105827271Y-110399068D01*
X106007911Y-110435000D01*
X106192089Y-110435000D01*
X106372729Y-110399068D01*
X106542889Y-110328586D01*
X106696028Y-110226262D01*
X106826262Y-110096028D01*
X106928586Y-109942889D01*
X106999068Y-109772729D01*
X107035000Y-109592089D01*
X107035000Y-109407911D01*
X106999068Y-109227271D01*
X106928586Y-109057111D01*
X106826262Y-108903972D01*
X106696028Y-108773738D01*
X106542889Y-108671414D01*
X106372729Y-108600932D01*
X106192089Y-108565000D01*
X106007911Y-108565000D01*
X105827271Y-108600932D01*
X105657111Y-108671414D01*
X105550000Y-108742983D01*
X105442889Y-108671414D01*
X105272729Y-108600932D01*
X105092089Y-108565000D01*
X104907911Y-108565000D01*
X104727271Y-108600932D01*
X104557111Y-108671414D01*
X104403972Y-108773738D01*
X104273738Y-108903972D01*
X104171414Y-109057111D01*
X104100932Y-109227271D01*
X104065000Y-109407911D01*
X91695780Y-109407911D01*
X90993628Y-108761534D01*
X90084449Y-107717583D01*
X89904399Y-107457913D01*
X95315002Y-107457913D01*
X95315002Y-107642091D01*
X95350934Y-107822731D01*
X95421416Y-107992891D01*
X95523740Y-108146030D01*
X95653974Y-108276264D01*
X95807113Y-108378588D01*
X95977273Y-108449070D01*
X96157913Y-108485002D01*
X96342091Y-108485002D01*
X96522731Y-108449070D01*
X96692891Y-108378588D01*
X96846030Y-108276264D01*
X96976264Y-108146030D01*
X97078588Y-107992891D01*
X97149070Y-107822731D01*
X97185002Y-107642091D01*
X97185002Y-107457913D01*
X97149070Y-107277273D01*
X97078588Y-107107113D01*
X96976264Y-106953974D01*
X96846030Y-106823740D01*
X96692891Y-106721416D01*
X96522731Y-106650934D01*
X96342091Y-106615002D01*
X96157913Y-106615002D01*
X95977273Y-106650934D01*
X95807113Y-106721416D01*
X95653974Y-106823740D01*
X95523740Y-106953974D01*
X95421416Y-107107113D01*
X95350934Y-107277273D01*
X95315002Y-107457913D01*
X89904399Y-107457913D01*
X89295633Y-106579950D01*
X88636752Y-105362446D01*
X88522207Y-105080430D01*
X89178330Y-105080430D01*
X89178330Y-105419570D01*
X89244493Y-105752192D01*
X89374276Y-106065516D01*
X89562692Y-106347500D01*
X89802500Y-106587308D01*
X90084484Y-106775724D01*
X90397808Y-106905507D01*
X90730430Y-106971670D01*
X91069570Y-106971670D01*
X91402192Y-106905507D01*
X91715516Y-106775724D01*
X91997500Y-106587308D01*
X92237308Y-106347500D01*
X92425724Y-106065516D01*
X92555507Y-105752192D01*
X92621670Y-105419570D01*
X92621670Y-105169699D01*
X104290000Y-105169699D01*
X104290000Y-105339105D01*
X104323049Y-105505255D01*
X104387878Y-105661765D01*
X104481995Y-105802620D01*
X104601782Y-105922407D01*
X104742637Y-106016524D01*
X104899147Y-106081353D01*
X105065297Y-106114402D01*
X105234703Y-106114402D01*
X105400853Y-106081353D01*
X105557363Y-106016524D01*
X105698218Y-105922407D01*
X105818005Y-105802620D01*
X105912122Y-105661765D01*
X105976951Y-105505255D01*
X106010000Y-105339105D01*
X106010000Y-105169699D01*
X105992244Y-105080430D01*
X107378330Y-105080430D01*
X107378330Y-105419570D01*
X107444493Y-105752192D01*
X107574276Y-106065516D01*
X107762692Y-106347500D01*
X108002500Y-106587308D01*
X108284484Y-106775724D01*
X108597808Y-106905507D01*
X108930430Y-106971670D01*
X109269570Y-106971670D01*
X109602192Y-106905507D01*
X109915516Y-106775724D01*
X110197500Y-106587308D01*
X110437308Y-106347500D01*
X110625724Y-106065516D01*
X110755507Y-105752192D01*
X110821670Y-105419570D01*
X110821670Y-105080430D01*
X110755507Y-104747808D01*
X110625724Y-104434484D01*
X110437308Y-104152500D01*
X110197500Y-103912692D01*
X109915516Y-103724276D01*
X109602192Y-103594493D01*
X109269570Y-103528330D01*
X108930430Y-103528330D01*
X108597808Y-103594493D01*
X108284484Y-103724276D01*
X108002500Y-103912692D01*
X107762692Y-104152500D01*
X107574276Y-104434484D01*
X107444493Y-104747808D01*
X107378330Y-105080430D01*
X105992244Y-105080430D01*
X105976951Y-105003549D01*
X105912122Y-104847039D01*
X105818005Y-104706184D01*
X105698218Y-104586397D01*
X105557363Y-104492280D01*
X105400853Y-104427451D01*
X105234703Y-104394402D01*
X105065297Y-104394402D01*
X104899147Y-104427451D01*
X104742637Y-104492280D01*
X104601782Y-104586397D01*
X104481995Y-104706184D01*
X104387878Y-104847039D01*
X104323049Y-105003549D01*
X104290000Y-105169699D01*
X92621670Y-105169699D01*
X92621670Y-105080430D01*
X92555507Y-104747808D01*
X92425724Y-104434484D01*
X92237308Y-104152500D01*
X91997500Y-103912692D01*
X91715516Y-103724276D01*
X91402192Y-103594493D01*
X91069570Y-103528330D01*
X90730430Y-103528330D01*
X90397808Y-103594493D01*
X90084484Y-103724276D01*
X89802500Y-103912692D01*
X89562692Y-104152500D01*
X89374276Y-104434484D01*
X89244493Y-104747808D01*
X89178330Y-105080430D01*
X88522207Y-105080430D01*
X88115806Y-104079849D01*
X87739118Y-102747728D01*
X87707444Y-102557911D01*
X91565006Y-102557911D01*
X91565006Y-102742089D01*
X91600938Y-102922729D01*
X91671420Y-103092889D01*
X91773744Y-103246028D01*
X91903978Y-103376262D01*
X92057117Y-103478586D01*
X92227277Y-103549068D01*
X92407917Y-103585000D01*
X92592095Y-103585000D01*
X92772735Y-103549068D01*
X92942895Y-103478586D01*
X93096034Y-103376262D01*
X93164385Y-103307911D01*
X93490000Y-103307911D01*
X93490000Y-103492089D01*
X93525932Y-103672729D01*
X93596414Y-103842889D01*
X93698738Y-103996028D01*
X93828972Y-104126262D01*
X93982111Y-104228586D01*
X94152271Y-104299068D01*
X94332911Y-104335000D01*
X94517089Y-104335000D01*
X94697729Y-104299068D01*
X94867889Y-104228586D01*
X95021028Y-104126262D01*
X95151262Y-103996028D01*
X95253586Y-103842889D01*
X95324068Y-103672729D01*
X95360000Y-103492089D01*
X95360000Y-103307911D01*
X95324068Y-103127271D01*
X95254783Y-102960000D01*
X95384697Y-102960000D01*
X95550847Y-102926951D01*
X95707357Y-102862122D01*
X95848212Y-102768005D01*
X95967999Y-102648218D01*
X96023405Y-102565297D01*
X96140000Y-102565297D01*
X96140000Y-102734703D01*
X96173049Y-102900853D01*
X96237878Y-103057363D01*
X96331995Y-103198218D01*
X96451782Y-103318005D01*
X96592637Y-103412122D01*
X96749147Y-103476951D01*
X96915297Y-103510000D01*
X97084703Y-103510000D01*
X97250853Y-103476951D01*
X97407363Y-103412122D01*
X97548218Y-103318005D01*
X97668005Y-103198218D01*
X97762122Y-103057363D01*
X97826951Y-102900853D01*
X97860000Y-102734703D01*
X97860000Y-102565297D01*
X97826951Y-102399147D01*
X97762122Y-102242637D01*
X97714334Y-102171117D01*
X98540000Y-102171117D01*
X98540000Y-102340523D01*
X98573049Y-102506673D01*
X98637878Y-102663183D01*
X98731995Y-102804038D01*
X98851782Y-102923825D01*
X98992637Y-103017942D01*
X99149147Y-103082771D01*
X99315297Y-103115820D01*
X99484703Y-103115820D01*
X99650853Y-103082771D01*
X99807363Y-103017942D01*
X99939714Y-102929507D01*
X99964144Y-102966069D01*
X100083931Y-103085856D01*
X100224786Y-103179973D01*
X100381296Y-103244802D01*
X100547446Y-103277851D01*
X100716852Y-103277851D01*
X100883002Y-103244802D01*
X101039512Y-103179973D01*
X101180367Y-103085856D01*
X101300154Y-102966069D01*
X101394271Y-102825214D01*
X101459100Y-102668704D01*
X101492149Y-102502554D01*
X101492149Y-102333148D01*
X101459100Y-102166998D01*
X101394271Y-102010488D01*
X101300154Y-101869633D01*
X101188432Y-101757911D01*
X103165000Y-101757911D01*
X103165000Y-101942089D01*
X103200932Y-102122729D01*
X103271414Y-102292889D01*
X103373738Y-102446028D01*
X103503972Y-102576262D01*
X103657111Y-102678586D01*
X103827271Y-102749068D01*
X104007911Y-102785000D01*
X104192089Y-102785000D01*
X104372729Y-102749068D01*
X104542889Y-102678586D01*
X104696028Y-102576262D01*
X104826262Y-102446028D01*
X104928586Y-102292889D01*
X104999068Y-102122729D01*
X105035000Y-101942089D01*
X105035000Y-101815297D01*
X106839970Y-101815297D01*
X106839970Y-101984703D01*
X106873019Y-102150853D01*
X106937848Y-102307363D01*
X107031965Y-102448218D01*
X107151752Y-102568005D01*
X107292607Y-102662122D01*
X107449117Y-102726951D01*
X107615267Y-102760000D01*
X107784673Y-102760000D01*
X107950823Y-102726951D01*
X108107333Y-102662122D01*
X108248188Y-102568005D01*
X108367975Y-102448218D01*
X108462092Y-102307363D01*
X108526921Y-102150853D01*
X108559970Y-101984703D01*
X108559970Y-101815297D01*
X108526921Y-101649147D01*
X108462092Y-101492637D01*
X108367975Y-101351782D01*
X108248188Y-101231995D01*
X108107333Y-101137878D01*
X107950823Y-101073049D01*
X107784673Y-101040000D01*
X107615267Y-101040000D01*
X107449117Y-101073049D01*
X107292607Y-101137878D01*
X107151752Y-101231995D01*
X107031965Y-101351782D01*
X106937848Y-101492637D01*
X106873019Y-101649147D01*
X106839970Y-101815297D01*
X105035000Y-101815297D01*
X105035000Y-101757911D01*
X104999068Y-101577271D01*
X104928586Y-101407111D01*
X104826262Y-101253972D01*
X104696028Y-101123738D01*
X104542889Y-101021414D01*
X104372729Y-100950932D01*
X104192089Y-100915000D01*
X104007911Y-100915000D01*
X103827271Y-100950932D01*
X103657111Y-101021414D01*
X103503972Y-101123738D01*
X103373738Y-101253972D01*
X103271414Y-101407111D01*
X103200932Y-101577271D01*
X103165000Y-101757911D01*
X101188432Y-101757911D01*
X101180367Y-101749846D01*
X101039512Y-101655729D01*
X100883002Y-101590900D01*
X100716852Y-101557851D01*
X100547446Y-101557851D01*
X100381296Y-101590900D01*
X100224786Y-101655729D01*
X100092435Y-101744164D01*
X100068005Y-101707602D01*
X99948218Y-101587815D01*
X99807363Y-101493698D01*
X99650853Y-101428869D01*
X99484703Y-101395820D01*
X99315297Y-101395820D01*
X99149147Y-101428869D01*
X98992637Y-101493698D01*
X98851782Y-101587815D01*
X98731995Y-101707602D01*
X98637878Y-101848457D01*
X98573049Y-102004967D01*
X98540000Y-102171117D01*
X97714334Y-102171117D01*
X97668005Y-102101782D01*
X97548218Y-101981995D01*
X97407363Y-101887878D01*
X97250853Y-101823049D01*
X97084703Y-101790000D01*
X96915297Y-101790000D01*
X96749147Y-101823049D01*
X96592637Y-101887878D01*
X96451782Y-101981995D01*
X96331995Y-102101782D01*
X96237878Y-102242637D01*
X96173049Y-102399147D01*
X96140000Y-102565297D01*
X96023405Y-102565297D01*
X96062116Y-102507363D01*
X96126945Y-102350853D01*
X96159994Y-102184703D01*
X96159994Y-102015297D01*
X96126945Y-101849147D01*
X96062116Y-101692637D01*
X95967999Y-101551782D01*
X95848212Y-101431995D01*
X95707357Y-101337878D01*
X95550847Y-101273049D01*
X95384697Y-101240000D01*
X95215291Y-101240000D01*
X95049141Y-101273049D01*
X94892631Y-101337878D01*
X94751776Y-101431995D01*
X94631989Y-101551782D01*
X94537872Y-101692637D01*
X94473043Y-101849147D01*
X94439994Y-102015297D01*
X94439994Y-102184703D01*
X94473043Y-102350853D01*
X94520615Y-102465701D01*
X94517089Y-102465000D01*
X94332911Y-102465000D01*
X94152271Y-102500932D01*
X93982111Y-102571414D01*
X93828972Y-102673738D01*
X93698738Y-102803972D01*
X93596414Y-102957111D01*
X93525932Y-103127271D01*
X93490000Y-103307911D01*
X93164385Y-103307911D01*
X93226268Y-103246028D01*
X93328592Y-103092889D01*
X93399074Y-102922729D01*
X93435006Y-102742089D01*
X93435006Y-102557911D01*
X93399074Y-102377271D01*
X93328592Y-102207111D01*
X93226268Y-102053972D01*
X93096034Y-101923738D01*
X92942895Y-101821414D01*
X92772735Y-101750932D01*
X92592095Y-101715000D01*
X92407917Y-101715000D01*
X92227277Y-101750932D01*
X92057117Y-101821414D01*
X91903978Y-101923738D01*
X91773744Y-102053972D01*
X91671420Y-102207111D01*
X91600938Y-102377271D01*
X91565006Y-102557911D01*
X87707444Y-102557911D01*
X87575130Y-101765000D01*
X87648102Y-101795226D01*
X87848061Y-101835000D01*
X88051939Y-101835000D01*
X88251898Y-101795226D01*
X88440256Y-101717205D01*
X88450000Y-101710694D01*
X88459744Y-101717205D01*
X88648102Y-101795226D01*
X88848061Y-101835000D01*
X89051939Y-101835000D01*
X89251898Y-101795226D01*
X89440256Y-101717205D01*
X89502995Y-101675285D01*
X89503972Y-101676262D01*
X89657111Y-101778586D01*
X89827271Y-101849068D01*
X90007911Y-101885000D01*
X90192089Y-101885000D01*
X90372729Y-101849068D01*
X90542889Y-101778586D01*
X90696028Y-101676262D01*
X90826262Y-101546028D01*
X90928586Y-101392889D01*
X90999068Y-101222729D01*
X91035000Y-101042089D01*
X91035000Y-100857911D01*
X90999068Y-100677271D01*
X90928586Y-100507111D01*
X90826262Y-100353972D01*
X90696028Y-100223738D01*
X90542889Y-100121414D01*
X90372729Y-100050932D01*
X90192089Y-100015000D01*
X90007911Y-100015000D01*
X89981355Y-100020282D01*
X89985004Y-100001939D01*
X89985004Y-99798061D01*
X89945230Y-99598102D01*
X89867209Y-99409744D01*
X89753941Y-99240226D01*
X89609778Y-99096063D01*
X89440260Y-98982795D01*
X89251902Y-98904774D01*
X89051943Y-98865000D01*
X88848065Y-98865000D01*
X88648106Y-98904774D01*
X88463044Y-98981430D01*
X88390256Y-98932795D01*
X88201898Y-98854774D01*
X88001939Y-98815000D01*
X87798061Y-98815000D01*
X87598102Y-98854774D01*
X87495847Y-98897130D01*
X87511261Y-98617747D01*
X87739118Y-97252272D01*
X88115806Y-95920151D01*
X88137874Y-95865818D01*
X91739479Y-95865818D01*
X91739479Y-96035224D01*
X91772528Y-96201374D01*
X91837357Y-96357884D01*
X91931474Y-96498739D01*
X92051261Y-96618526D01*
X92192116Y-96712643D01*
X92348626Y-96777472D01*
X92514776Y-96810521D01*
X92684182Y-96810521D01*
X92850332Y-96777472D01*
X93006842Y-96712643D01*
X93147697Y-96618526D01*
X93267484Y-96498739D01*
X93361601Y-96357884D01*
X93426430Y-96201374D01*
X93443551Y-96115297D01*
X94840000Y-96115297D01*
X94840000Y-96284703D01*
X94873049Y-96450853D01*
X94937878Y-96607363D01*
X95031995Y-96748218D01*
X95123598Y-96839821D01*
X95076701Y-96953040D01*
X95040769Y-97133680D01*
X95040769Y-97317858D01*
X95076701Y-97498498D01*
X95147183Y-97668658D01*
X95249507Y-97821797D01*
X95379741Y-97952031D01*
X95532880Y-98054355D01*
X95703040Y-98124837D01*
X95883680Y-98160769D01*
X96067858Y-98160769D01*
X96248498Y-98124837D01*
X96266324Y-98117453D01*
X96231995Y-98151782D01*
X96137878Y-98292637D01*
X96073049Y-98449147D01*
X96040000Y-98615297D01*
X96040000Y-98784703D01*
X96073049Y-98950853D01*
X96137878Y-99107363D01*
X96231995Y-99248218D01*
X96351782Y-99368005D01*
X96492637Y-99462122D01*
X96649147Y-99526951D01*
X96815297Y-99560000D01*
X96947528Y-99560000D01*
X96987857Y-99657363D01*
X97081974Y-99798218D01*
X97201761Y-99918005D01*
X97342616Y-100012122D01*
X97499126Y-100076951D01*
X97665276Y-100110000D01*
X97834682Y-100110000D01*
X98000832Y-100076951D01*
X98157342Y-100012122D01*
X98298197Y-99918005D01*
X98417984Y-99798218D01*
X98439987Y-99765288D01*
X102440000Y-99765288D01*
X102440000Y-99934694D01*
X102473049Y-100100844D01*
X102537878Y-100257354D01*
X102631995Y-100398209D01*
X102751782Y-100517996D01*
X102892637Y-100612113D01*
X103049147Y-100676942D01*
X103215297Y-100709991D01*
X103384703Y-100709991D01*
X103550853Y-100676942D01*
X103707363Y-100612113D01*
X103848218Y-100517996D01*
X103968005Y-100398209D01*
X104062122Y-100257354D01*
X104126951Y-100100844D01*
X104160000Y-99934694D01*
X104160000Y-99765288D01*
X104157640Y-99753424D01*
X104257352Y-99712122D01*
X104398207Y-99618005D01*
X104517994Y-99498218D01*
X104612111Y-99357363D01*
X104676940Y-99200853D01*
X104704643Y-99061580D01*
X104768005Y-98998218D01*
X104862122Y-98857363D01*
X104926951Y-98700853D01*
X104960000Y-98534703D01*
X104960000Y-98365297D01*
X104926951Y-98199147D01*
X104862122Y-98042637D01*
X104768005Y-97901782D01*
X104704657Y-97838434D01*
X104676951Y-97699147D01*
X104612122Y-97542637D01*
X104518005Y-97401782D01*
X104398218Y-97281995D01*
X104257363Y-97187878D01*
X104100853Y-97123049D01*
X103934703Y-97090000D01*
X103765297Y-97090000D01*
X103599147Y-97123049D01*
X103442637Y-97187878D01*
X103301782Y-97281995D01*
X103181995Y-97401782D01*
X103087878Y-97542637D01*
X103023049Y-97699147D01*
X102990000Y-97865297D01*
X102990000Y-98034703D01*
X103023049Y-98200853D01*
X103087878Y-98357363D01*
X103149771Y-98449992D01*
X103087867Y-98542637D01*
X103023038Y-98699147D01*
X102989989Y-98865297D01*
X102989989Y-99034703D01*
X102992349Y-99046567D01*
X102892637Y-99087869D01*
X102751782Y-99181986D01*
X102631995Y-99301773D01*
X102537878Y-99442628D01*
X102473049Y-99599138D01*
X102440000Y-99765288D01*
X98439987Y-99765288D01*
X98512101Y-99657363D01*
X98576930Y-99500853D01*
X98609979Y-99334703D01*
X98609979Y-99165297D01*
X98576930Y-98999147D01*
X98512101Y-98842637D01*
X98417984Y-98701782D01*
X98298197Y-98581995D01*
X98157342Y-98487878D01*
X98146981Y-98483586D01*
X98201961Y-98350853D01*
X98226567Y-98227147D01*
X98367729Y-98199068D01*
X98537889Y-98128586D01*
X98691028Y-98026262D01*
X98821262Y-97896028D01*
X98923586Y-97742889D01*
X98994068Y-97572729D01*
X99005492Y-97515297D01*
X99840000Y-97515297D01*
X99840000Y-97684703D01*
X99873049Y-97850853D01*
X99937878Y-98007363D01*
X100031995Y-98148218D01*
X100151782Y-98268005D01*
X100292637Y-98362122D01*
X100449147Y-98426951D01*
X100615297Y-98460000D01*
X100640000Y-98460000D01*
X100640000Y-98584703D01*
X100673049Y-98750853D01*
X100737878Y-98907363D01*
X100831995Y-99048218D01*
X100951782Y-99168005D01*
X101092637Y-99262122D01*
X101249147Y-99326951D01*
X101415297Y-99360000D01*
X101584703Y-99360000D01*
X101750853Y-99326951D01*
X101907363Y-99262122D01*
X102048218Y-99168005D01*
X102168005Y-99048218D01*
X102262122Y-98907363D01*
X102326951Y-98750853D01*
X102360000Y-98584703D01*
X102360000Y-98415297D01*
X102326951Y-98249147D01*
X102262122Y-98092637D01*
X102168005Y-97951782D01*
X102048218Y-97831995D01*
X101907363Y-97737878D01*
X101750853Y-97673049D01*
X101584703Y-97640000D01*
X101560000Y-97640000D01*
X101560000Y-97515297D01*
X101526951Y-97349147D01*
X101462122Y-97192637D01*
X101368005Y-97051782D01*
X101248218Y-96931995D01*
X101107363Y-96837878D01*
X100950853Y-96773049D01*
X100784703Y-96740000D01*
X100615297Y-96740000D01*
X100449147Y-96773049D01*
X100292637Y-96837878D01*
X100151782Y-96931995D01*
X100031995Y-97051782D01*
X99937878Y-97192637D01*
X99873049Y-97349147D01*
X99840000Y-97515297D01*
X99005492Y-97515297D01*
X99030000Y-97392089D01*
X99030000Y-97207911D01*
X98994068Y-97027271D01*
X98923586Y-96857111D01*
X98821262Y-96703972D01*
X98691028Y-96573738D01*
X98537889Y-96471414D01*
X98367729Y-96400932D01*
X98187089Y-96365000D01*
X98002911Y-96365000D01*
X97822271Y-96400932D01*
X97652111Y-96471414D01*
X97498972Y-96573738D01*
X97368738Y-96703972D01*
X97266414Y-96857111D01*
X97195932Y-97027271D01*
X97160000Y-97207911D01*
X97160000Y-97265919D01*
X97124157Y-97273049D01*
X96967647Y-97337878D01*
X96897458Y-97384777D01*
X96910769Y-97317858D01*
X96910769Y-97133680D01*
X96874837Y-96953040D01*
X96804355Y-96782880D01*
X96702031Y-96629741D01*
X96571797Y-96499507D01*
X96520888Y-96465491D01*
X96526951Y-96450853D01*
X96560000Y-96284703D01*
X96560000Y-96115297D01*
X96526951Y-95949147D01*
X96462122Y-95792637D01*
X96368005Y-95651782D01*
X96248218Y-95531995D01*
X96107363Y-95437878D01*
X95950853Y-95373049D01*
X95784703Y-95340000D01*
X95615297Y-95340000D01*
X95449147Y-95373049D01*
X95292637Y-95437878D01*
X95151782Y-95531995D01*
X95031995Y-95651782D01*
X94937878Y-95792637D01*
X94873049Y-95949147D01*
X94840000Y-96115297D01*
X93443551Y-96115297D01*
X93459479Y-96035224D01*
X93459479Y-96035181D01*
X93500853Y-96026951D01*
X93657363Y-95962122D01*
X93798218Y-95868005D01*
X93918005Y-95748218D01*
X94012122Y-95607363D01*
X94076951Y-95450853D01*
X94110000Y-95284703D01*
X94110000Y-95115297D01*
X94076951Y-94949147D01*
X94012122Y-94792637D01*
X93918005Y-94651782D01*
X93831520Y-94565297D01*
X96090000Y-94565297D01*
X96090000Y-94734703D01*
X96123049Y-94900853D01*
X96187878Y-95057363D01*
X96281995Y-95198218D01*
X96401782Y-95318005D01*
X96542637Y-95412122D01*
X96699147Y-95476951D01*
X96865297Y-95510000D01*
X97034703Y-95510000D01*
X97200853Y-95476951D01*
X97357363Y-95412122D01*
X97498218Y-95318005D01*
X97618005Y-95198218D01*
X97712122Y-95057363D01*
X97776951Y-94900853D01*
X97810000Y-94734703D01*
X97810000Y-94565297D01*
X97776951Y-94399147D01*
X97712122Y-94242637D01*
X97618005Y-94101782D01*
X97498218Y-93981995D01*
X97462175Y-93957911D01*
X98165000Y-93957911D01*
X98165000Y-94142089D01*
X98200932Y-94322729D01*
X98271414Y-94492889D01*
X98373738Y-94646028D01*
X98503972Y-94776262D01*
X98657111Y-94878586D01*
X98827271Y-94949068D01*
X99007911Y-94985000D01*
X99192089Y-94985000D01*
X99372729Y-94949068D01*
X99542889Y-94878586D01*
X99696028Y-94776262D01*
X99741438Y-94730852D01*
X99746424Y-94742889D01*
X99848748Y-94896028D01*
X99978982Y-95026262D01*
X100132121Y-95128586D01*
X100302281Y-95199068D01*
X100482921Y-95235000D01*
X100667099Y-95235000D01*
X100847739Y-95199068D01*
X101017899Y-95128586D01*
X101171038Y-95026262D01*
X101301272Y-94896028D01*
X101403596Y-94742889D01*
X101474078Y-94572729D01*
X101510010Y-94392089D01*
X101510010Y-94207911D01*
X101474078Y-94027271D01*
X101403596Y-93857111D01*
X101301272Y-93703972D01*
X101171038Y-93573738D01*
X101017899Y-93471414D01*
X100864588Y-93407911D01*
X104740010Y-93407911D01*
X104740010Y-93592089D01*
X104775942Y-93772729D01*
X104846424Y-93942889D01*
X104948748Y-94096028D01*
X105078982Y-94226262D01*
X105232121Y-94328586D01*
X105402281Y-94399068D01*
X105582921Y-94435000D01*
X105767099Y-94435000D01*
X105947739Y-94399068D01*
X106117899Y-94328586D01*
X106271038Y-94226262D01*
X106401272Y-94096028D01*
X106503596Y-93942889D01*
X106574078Y-93772729D01*
X106610010Y-93592089D01*
X106610010Y-93407911D01*
X106574078Y-93227271D01*
X106503596Y-93057111D01*
X106401272Y-92903972D01*
X106271038Y-92773738D01*
X106117899Y-92671414D01*
X105947739Y-92600932D01*
X105767099Y-92565000D01*
X105582921Y-92565000D01*
X105402281Y-92600932D01*
X105232121Y-92671414D01*
X105078982Y-92773738D01*
X104948748Y-92903972D01*
X104846424Y-93057111D01*
X104775942Y-93227271D01*
X104740010Y-93407911D01*
X100864588Y-93407911D01*
X100847739Y-93400932D01*
X100667099Y-93365000D01*
X100482921Y-93365000D01*
X100302281Y-93400932D01*
X100132121Y-93471414D01*
X99978982Y-93573738D01*
X99933572Y-93619148D01*
X99928586Y-93607111D01*
X99826262Y-93453972D01*
X99696028Y-93323738D01*
X99542889Y-93221414D01*
X99372729Y-93150932D01*
X99192089Y-93115000D01*
X99007911Y-93115000D01*
X98827271Y-93150932D01*
X98657111Y-93221414D01*
X98503972Y-93323738D01*
X98373738Y-93453972D01*
X98271414Y-93607111D01*
X98200932Y-93777271D01*
X98165000Y-93957911D01*
X97462175Y-93957911D01*
X97357363Y-93887878D01*
X97200853Y-93823049D01*
X97034703Y-93790000D01*
X96865297Y-93790000D01*
X96699147Y-93823049D01*
X96542637Y-93887878D01*
X96401782Y-93981995D01*
X96281995Y-94101782D01*
X96187878Y-94242637D01*
X96123049Y-94399147D01*
X96090000Y-94565297D01*
X93831520Y-94565297D01*
X93798218Y-94531995D01*
X93657363Y-94437878D01*
X93500853Y-94373049D01*
X93334703Y-94340000D01*
X93165297Y-94340000D01*
X92999147Y-94373049D01*
X92842637Y-94437878D01*
X92701782Y-94531995D01*
X92581995Y-94651782D01*
X92487878Y-94792637D01*
X92423049Y-94949147D01*
X92390000Y-95115297D01*
X92390000Y-95115340D01*
X92348626Y-95123570D01*
X92192116Y-95188399D01*
X92051261Y-95282516D01*
X91931474Y-95402303D01*
X91837357Y-95543158D01*
X91772528Y-95699668D01*
X91739479Y-95865818D01*
X88137874Y-95865818D01*
X88636752Y-94637554D01*
X89295633Y-93420050D01*
X89437605Y-93215297D01*
X92240000Y-93215297D01*
X92240000Y-93384703D01*
X92273049Y-93550853D01*
X92337878Y-93707363D01*
X92431995Y-93848218D01*
X92551782Y-93968005D01*
X92692637Y-94062122D01*
X92849147Y-94126951D01*
X93015297Y-94160000D01*
X93184703Y-94160000D01*
X93350853Y-94126951D01*
X93507363Y-94062122D01*
X93648218Y-93968005D01*
X93768005Y-93848218D01*
X93862122Y-93707363D01*
X93926951Y-93550853D01*
X93960000Y-93384703D01*
X93960000Y-93350637D01*
X94023738Y-93446028D01*
X94153972Y-93576262D01*
X94307111Y-93678586D01*
X94477271Y-93749068D01*
X94657911Y-93785000D01*
X94842089Y-93785000D01*
X95022729Y-93749068D01*
X95192889Y-93678586D01*
X95346028Y-93576262D01*
X95476262Y-93446028D01*
X95578586Y-93292889D01*
X95649068Y-93122729D01*
X95685000Y-92942089D01*
X95685000Y-92757911D01*
X95649068Y-92577271D01*
X95578586Y-92407111D01*
X95476262Y-92253972D01*
X95346028Y-92123738D01*
X95192889Y-92021414D01*
X95022729Y-91950932D01*
X94842089Y-91915000D01*
X94657911Y-91915000D01*
X94477271Y-91950932D01*
X94307111Y-92021414D01*
X94153972Y-92123738D01*
X94023738Y-92253972D01*
X93921414Y-92407111D01*
X93850932Y-92577271D01*
X93815000Y-92757911D01*
X93815000Y-92822114D01*
X93768005Y-92751782D01*
X93648218Y-92631995D01*
X93507363Y-92537878D01*
X93350853Y-92473049D01*
X93184703Y-92440000D01*
X93015297Y-92440000D01*
X92849147Y-92473049D01*
X92692637Y-92537878D01*
X92551782Y-92631995D01*
X92431995Y-92751782D01*
X92337878Y-92892637D01*
X92273049Y-93049147D01*
X92240000Y-93215297D01*
X89437605Y-93215297D01*
X90084449Y-92282417D01*
X90993628Y-91238466D01*
X91515649Y-90757911D01*
X94165000Y-90757911D01*
X94165000Y-90942089D01*
X94200932Y-91122729D01*
X94271414Y-91292889D01*
X94373738Y-91446028D01*
X94503972Y-91576262D01*
X94657111Y-91678586D01*
X94827271Y-91749068D01*
X95007911Y-91785000D01*
X95192089Y-91785000D01*
X95372729Y-91749068D01*
X95542889Y-91678586D01*
X95696028Y-91576262D01*
X95826262Y-91446028D01*
X95928586Y-91292889D01*
X95940010Y-91265307D01*
X97529327Y-91265307D01*
X97529327Y-91434713D01*
X97562376Y-91600863D01*
X97627205Y-91757373D01*
X97721322Y-91898228D01*
X97841109Y-92018015D01*
X97981964Y-92112132D01*
X98138474Y-92176961D01*
X98161217Y-92181485D01*
X98216305Y-92263929D01*
X98336092Y-92383716D01*
X98476947Y-92477833D01*
X98633457Y-92542662D01*
X98799607Y-92575711D01*
X98969013Y-92575711D01*
X99135163Y-92542662D01*
X99291673Y-92477833D01*
X99432528Y-92383716D01*
X99552315Y-92263929D01*
X99646432Y-92123074D01*
X99711261Y-91966564D01*
X99744310Y-91800414D01*
X99744310Y-91631008D01*
X99711261Y-91464858D01*
X99646432Y-91308348D01*
X99552315Y-91167493D01*
X99550887Y-91166065D01*
X99830430Y-91221670D01*
X100169570Y-91221670D01*
X100502192Y-91155507D01*
X100556355Y-91133072D01*
X100540000Y-91215297D01*
X100540000Y-91384703D01*
X100573049Y-91550853D01*
X100637878Y-91707363D01*
X100731995Y-91848218D01*
X100851782Y-91968005D01*
X100992637Y-92062122D01*
X101149147Y-92126951D01*
X101315297Y-92160000D01*
X101484703Y-92160000D01*
X101650853Y-92126951D01*
X101807363Y-92062122D01*
X101948218Y-91968005D01*
X102068005Y-91848218D01*
X102162122Y-91707363D01*
X102224027Y-91557911D01*
X103665020Y-91557911D01*
X103665020Y-91742089D01*
X103700952Y-91922729D01*
X103771434Y-92092889D01*
X103873758Y-92246028D01*
X104003992Y-92376262D01*
X104157131Y-92478586D01*
X104327291Y-92549068D01*
X104507931Y-92585000D01*
X104692109Y-92585000D01*
X104872749Y-92549068D01*
X105042909Y-92478586D01*
X105196048Y-92376262D01*
X105326282Y-92246028D01*
X105428606Y-92092889D01*
X105499088Y-91922729D01*
X105535020Y-91742089D01*
X105535020Y-91557911D01*
X105499088Y-91377271D01*
X105428606Y-91207111D01*
X105326282Y-91053972D01*
X105196048Y-90923738D01*
X105042909Y-90821414D01*
X104872749Y-90750932D01*
X104692109Y-90715000D01*
X104507931Y-90715000D01*
X104327291Y-90750932D01*
X104157131Y-90821414D01*
X104003992Y-90923738D01*
X103873758Y-91053972D01*
X103771434Y-91207111D01*
X103700952Y-91377271D01*
X103665020Y-91557911D01*
X102224027Y-91557911D01*
X102226951Y-91550853D01*
X102260000Y-91384703D01*
X102260000Y-91215297D01*
X102226951Y-91049147D01*
X102219428Y-91030985D01*
X102365297Y-91060000D01*
X102534703Y-91060000D01*
X102700853Y-91026951D01*
X102857363Y-90962122D01*
X102998218Y-90868005D01*
X103118005Y-90748218D01*
X103212122Y-90607363D01*
X103276951Y-90450853D01*
X103310000Y-90284703D01*
X103310000Y-90115297D01*
X103290078Y-90015144D01*
X103349068Y-89872729D01*
X103385000Y-89692089D01*
X103385000Y-89507911D01*
X103349068Y-89327271D01*
X103278586Y-89157111D01*
X103176262Y-89003972D01*
X103046028Y-88873738D01*
X102892889Y-88771414D01*
X102722729Y-88700932D01*
X102542089Y-88665000D01*
X102357911Y-88665000D01*
X102177271Y-88700932D01*
X102007111Y-88771414D01*
X101853972Y-88873738D01*
X101723738Y-89003972D01*
X101672104Y-89081248D01*
X101655507Y-88997808D01*
X101525724Y-88684484D01*
X101337308Y-88402500D01*
X101097500Y-88162692D01*
X100815516Y-87974276D01*
X100502192Y-87844493D01*
X100169570Y-87778330D01*
X99830430Y-87778330D01*
X99497808Y-87844493D01*
X99184484Y-87974276D01*
X98902500Y-88162692D01*
X98662692Y-88402500D01*
X98474276Y-88684484D01*
X98344493Y-88997808D01*
X98278330Y-89330430D01*
X98278330Y-89669570D01*
X98344493Y-90002192D01*
X98474276Y-90315516D01*
X98608779Y-90516813D01*
X98474030Y-90490010D01*
X98304624Y-90490010D01*
X98138474Y-90523059D01*
X97981964Y-90587888D01*
X97841109Y-90682005D01*
X97721322Y-90801792D01*
X97627205Y-90942647D01*
X97562376Y-91099157D01*
X97529327Y-91265307D01*
X95940010Y-91265307D01*
X95999068Y-91122729D01*
X96035000Y-90942089D01*
X96035000Y-90757911D01*
X95999068Y-90577271D01*
X95928586Y-90407111D01*
X95826262Y-90253972D01*
X95696028Y-90123738D01*
X95542889Y-90021414D01*
X95372729Y-89950932D01*
X95192089Y-89915000D01*
X95007911Y-89915000D01*
X94827271Y-89950932D01*
X94657111Y-90021414D01*
X94503972Y-90123738D01*
X94373738Y-90253972D01*
X94271414Y-90407111D01*
X94200932Y-90577271D01*
X94165000Y-90757911D01*
X91515649Y-90757911D01*
X92012131Y-90300867D01*
X93127596Y-89481003D01*
X94326483Y-88788825D01*
X95594239Y-88232736D01*
X96915475Y-87819486D01*
X98274153Y-87554090D01*
X99653780Y-87439771D01*
X101037609Y-87477916D01*
G37*
X101037609Y-87477916D02*
X102408844Y-87668062D01*
X103750839Y-88007901D01*
X105047303Y-88493308D01*
X106282500Y-89118391D01*
X107441436Y-89875561D01*
X108510043Y-90755629D01*
X109475350Y-91747911D01*
X110325638Y-92840362D01*
X111050588Y-94019721D01*
X111239486Y-94420005D01*
X111072729Y-94350932D01*
X110892089Y-94315000D01*
X110707911Y-94315000D01*
X110527271Y-94350932D01*
X110357111Y-94421414D01*
X110203972Y-94523738D01*
X110073738Y-94653972D01*
X109971414Y-94807111D01*
X109971358Y-94807245D01*
X109827614Y-94412311D01*
X109773517Y-94299529D01*
X109698458Y-94199469D01*
X109605320Y-94115974D01*
X109497683Y-94052254D01*
X109379683Y-94010758D01*
X109255854Y-93993079D01*
X109130956Y-93999898D01*
X109009789Y-94030952D01*
X107412311Y-94612386D01*
X107299529Y-94666483D01*
X107199469Y-94741542D01*
X107115974Y-94834680D01*
X107052254Y-94942317D01*
X107010758Y-95060317D01*
X106993079Y-95184146D01*
X106999898Y-95309044D01*
X107030952Y-95430211D01*
X107612386Y-97027689D01*
X107666483Y-97140471D01*
X107741542Y-97240531D01*
X107834680Y-97324026D01*
X107942317Y-97387746D01*
X108060317Y-97429242D01*
X108184146Y-97446921D01*
X108256350Y-97442979D01*
X108160799Y-97673661D01*
X108103731Y-97960559D01*
X108103731Y-98253079D01*
X108160799Y-98539977D01*
X108272741Y-98810230D01*
X108435256Y-99053451D01*
X108642099Y-99260294D01*
X108885320Y-99422809D01*
X109155573Y-99534751D01*
X109293804Y-99562247D01*
X109141472Y-99790228D01*
X109029530Y-100060481D01*
X108972462Y-100347379D01*
X108972462Y-100639899D01*
X109029530Y-100926797D01*
X109141472Y-101197050D01*
X109303987Y-101440271D01*
X109510830Y-101647114D01*
X109754051Y-101809629D01*
X110024304Y-101921571D01*
X110311202Y-101978639D01*
X110603722Y-101978639D01*
X110890620Y-101921571D01*
X111160873Y-101809629D01*
X111404094Y-101647114D01*
X111610937Y-101440271D01*
X111773452Y-101197050D01*
X111885394Y-100926797D01*
X111942462Y-100639899D01*
X111942462Y-100347379D01*
X111885394Y-100060481D01*
X111773452Y-99790228D01*
X111610937Y-99547007D01*
X111404094Y-99340164D01*
X111160873Y-99177649D01*
X110890620Y-99065707D01*
X110752389Y-99038211D01*
X110904721Y-98810230D01*
X111016663Y-98539977D01*
X111073731Y-98253079D01*
X111073731Y-97960559D01*
X111016663Y-97673661D01*
X110904721Y-97403408D01*
X110742206Y-97160187D01*
X110535363Y-96953344D01*
X110292142Y-96790829D01*
X110179559Y-96744196D01*
X110240531Y-96698458D01*
X110324026Y-96605320D01*
X110387746Y-96497683D01*
X110429242Y-96379683D01*
X110446921Y-96255854D01*
X110440102Y-96130956D01*
X110434943Y-96110825D01*
X110527271Y-96149068D01*
X110707911Y-96185000D01*
X110892089Y-96185000D01*
X111072729Y-96149068D01*
X111242889Y-96078586D01*
X111396028Y-95976262D01*
X111526262Y-95846028D01*
X111628586Y-95692889D01*
X111699068Y-95522729D01*
X111709530Y-95470134D01*
X112090897Y-96581020D01*
X112393630Y-97931869D01*
X112545920Y-99307822D01*
X112545920Y-100692178D01*
X112393630Y-102068131D01*
X112090897Y-103418980D01*
X111641398Y-104728327D01*
X111050588Y-105980279D01*
X110325638Y-107159638D01*
X109475350Y-108252089D01*
X108510043Y-109244371D01*
X107441436Y-110124439D01*
X106282500Y-110881609D01*
X105047303Y-111506692D01*
X103750839Y-111992099D01*
X102408844Y-112331938D01*
X101037609Y-112522084D01*
X99653780Y-112560229D01*
X98274153Y-112445910D01*
X96915475Y-112180514D01*
X95594239Y-111767264D01*
X95556533Y-111750725D01*
X95628586Y-111642889D01*
X95699068Y-111472729D01*
X95735000Y-111292089D01*
X95735000Y-111107911D01*
X95699068Y-110927271D01*
X95628586Y-110757111D01*
X95602371Y-110717877D01*
X98965000Y-110717877D01*
X98965000Y-110887283D01*
X98997623Y-111051290D01*
X98965000Y-111215297D01*
X98965000Y-111384703D01*
X98998049Y-111550853D01*
X99062878Y-111707363D01*
X99156995Y-111848218D01*
X99276782Y-111968005D01*
X99417637Y-112062122D01*
X99574147Y-112126951D01*
X99740297Y-112160000D01*
X99909703Y-112160000D01*
X100075853Y-112126951D01*
X100232363Y-112062122D01*
X100373218Y-111968005D01*
X100493005Y-111848218D01*
X100587122Y-111707363D01*
X100651951Y-111550853D01*
X100685000Y-111384703D01*
X100685000Y-111215297D01*
X100652377Y-111051290D01*
X100685000Y-110887283D01*
X100685000Y-110717877D01*
X100651951Y-110551727D01*
X100587122Y-110395217D01*
X100493005Y-110254362D01*
X100373218Y-110134575D01*
X100232363Y-110040458D01*
X100075853Y-109975629D01*
X99909703Y-109942580D01*
X99740297Y-109942580D01*
X99574147Y-109975629D01*
X99417637Y-110040458D01*
X99276782Y-110134575D01*
X99156995Y-110254362D01*
X99062878Y-110395217D01*
X98998049Y-110551727D01*
X98965000Y-110717877D01*
X95602371Y-110717877D01*
X95526262Y-110603972D01*
X95435000Y-110512710D01*
X95435000Y-110357911D01*
X95399068Y-110177271D01*
X95328586Y-110007111D01*
X95226262Y-109853972D01*
X95096028Y-109723738D01*
X94942889Y-109621414D01*
X94772729Y-109550932D01*
X94592089Y-109515000D01*
X94407911Y-109515000D01*
X94227271Y-109550932D01*
X94057111Y-109621414D01*
X94043743Y-109630347D01*
X93972729Y-109600932D01*
X93792089Y-109565000D01*
X93607911Y-109565000D01*
X93427271Y-109600932D01*
X93257111Y-109671414D01*
X93103972Y-109773738D01*
X92973738Y-109903972D01*
X92871414Y-110057111D01*
X92800932Y-110227271D01*
X92791972Y-110272314D01*
X92012131Y-109699133D01*
X91695780Y-109407911D01*
X104065000Y-109407911D01*
X104065000Y-109592089D01*
X104100932Y-109772729D01*
X104171414Y-109942889D01*
X104273738Y-110096028D01*
X104403972Y-110226262D01*
X104557111Y-110328586D01*
X104727271Y-110399068D01*
X104907911Y-110435000D01*
X105092089Y-110435000D01*
X105272729Y-110399068D01*
X105442889Y-110328586D01*
X105550000Y-110257017D01*
X105657111Y-110328586D01*
X105827271Y-110399068D01*
X106007911Y-110435000D01*
X106192089Y-110435000D01*
X106372729Y-110399068D01*
X106542889Y-110328586D01*
X106696028Y-110226262D01*
X106826262Y-110096028D01*
X106928586Y-109942889D01*
X106999068Y-109772729D01*
X107035000Y-109592089D01*
X107035000Y-109407911D01*
X106999068Y-109227271D01*
X106928586Y-109057111D01*
X106826262Y-108903972D01*
X106696028Y-108773738D01*
X106542889Y-108671414D01*
X106372729Y-108600932D01*
X106192089Y-108565000D01*
X106007911Y-108565000D01*
X105827271Y-108600932D01*
X105657111Y-108671414D01*
X105550000Y-108742983D01*
X105442889Y-108671414D01*
X105272729Y-108600932D01*
X105092089Y-108565000D01*
X104907911Y-108565000D01*
X104727271Y-108600932D01*
X104557111Y-108671414D01*
X104403972Y-108773738D01*
X104273738Y-108903972D01*
X104171414Y-109057111D01*
X104100932Y-109227271D01*
X104065000Y-109407911D01*
X91695780Y-109407911D01*
X90993628Y-108761534D01*
X90084449Y-107717583D01*
X89904399Y-107457913D01*
X95315002Y-107457913D01*
X95315002Y-107642091D01*
X95350934Y-107822731D01*
X95421416Y-107992891D01*
X95523740Y-108146030D01*
X95653974Y-108276264D01*
X95807113Y-108378588D01*
X95977273Y-108449070D01*
X96157913Y-108485002D01*
X96342091Y-108485002D01*
X96522731Y-108449070D01*
X96692891Y-108378588D01*
X96846030Y-108276264D01*
X96976264Y-108146030D01*
X97078588Y-107992891D01*
X97149070Y-107822731D01*
X97185002Y-107642091D01*
X97185002Y-107457913D01*
X97149070Y-107277273D01*
X97078588Y-107107113D01*
X96976264Y-106953974D01*
X96846030Y-106823740D01*
X96692891Y-106721416D01*
X96522731Y-106650934D01*
X96342091Y-106615002D01*
X96157913Y-106615002D01*
X95977273Y-106650934D01*
X95807113Y-106721416D01*
X95653974Y-106823740D01*
X95523740Y-106953974D01*
X95421416Y-107107113D01*
X95350934Y-107277273D01*
X95315002Y-107457913D01*
X89904399Y-107457913D01*
X89295633Y-106579950D01*
X88636752Y-105362446D01*
X88522207Y-105080430D01*
X89178330Y-105080430D01*
X89178330Y-105419570D01*
X89244493Y-105752192D01*
X89374276Y-106065516D01*
X89562692Y-106347500D01*
X89802500Y-106587308D01*
X90084484Y-106775724D01*
X90397808Y-106905507D01*
X90730430Y-106971670D01*
X91069570Y-106971670D01*
X91402192Y-106905507D01*
X91715516Y-106775724D01*
X91997500Y-106587308D01*
X92237308Y-106347500D01*
X92425724Y-106065516D01*
X92555507Y-105752192D01*
X92621670Y-105419570D01*
X92621670Y-105169699D01*
X104290000Y-105169699D01*
X104290000Y-105339105D01*
X104323049Y-105505255D01*
X104387878Y-105661765D01*
X104481995Y-105802620D01*
X104601782Y-105922407D01*
X104742637Y-106016524D01*
X104899147Y-106081353D01*
X105065297Y-106114402D01*
X105234703Y-106114402D01*
X105400853Y-106081353D01*
X105557363Y-106016524D01*
X105698218Y-105922407D01*
X105818005Y-105802620D01*
X105912122Y-105661765D01*
X105976951Y-105505255D01*
X106010000Y-105339105D01*
X106010000Y-105169699D01*
X105992244Y-105080430D01*
X107378330Y-105080430D01*
X107378330Y-105419570D01*
X107444493Y-105752192D01*
X107574276Y-106065516D01*
X107762692Y-106347500D01*
X108002500Y-106587308D01*
X108284484Y-106775724D01*
X108597808Y-106905507D01*
X108930430Y-106971670D01*
X109269570Y-106971670D01*
X109602192Y-106905507D01*
X109915516Y-106775724D01*
X110197500Y-106587308D01*
X110437308Y-106347500D01*
X110625724Y-106065516D01*
X110755507Y-105752192D01*
X110821670Y-105419570D01*
X110821670Y-105080430D01*
X110755507Y-104747808D01*
X110625724Y-104434484D01*
X110437308Y-104152500D01*
X110197500Y-103912692D01*
X109915516Y-103724276D01*
X109602192Y-103594493D01*
X109269570Y-103528330D01*
X108930430Y-103528330D01*
X108597808Y-103594493D01*
X108284484Y-103724276D01*
X108002500Y-103912692D01*
X107762692Y-104152500D01*
X107574276Y-104434484D01*
X107444493Y-104747808D01*
X107378330Y-105080430D01*
X105992244Y-105080430D01*
X105976951Y-105003549D01*
X105912122Y-104847039D01*
X105818005Y-104706184D01*
X105698218Y-104586397D01*
X105557363Y-104492280D01*
X105400853Y-104427451D01*
X105234703Y-104394402D01*
X105065297Y-104394402D01*
X104899147Y-104427451D01*
X104742637Y-104492280D01*
X104601782Y-104586397D01*
X104481995Y-104706184D01*
X104387878Y-104847039D01*
X104323049Y-105003549D01*
X104290000Y-105169699D01*
X92621670Y-105169699D01*
X92621670Y-105080430D01*
X92555507Y-104747808D01*
X92425724Y-104434484D01*
X92237308Y-104152500D01*
X91997500Y-103912692D01*
X91715516Y-103724276D01*
X91402192Y-103594493D01*
X91069570Y-103528330D01*
X90730430Y-103528330D01*
X90397808Y-103594493D01*
X90084484Y-103724276D01*
X89802500Y-103912692D01*
X89562692Y-104152500D01*
X89374276Y-104434484D01*
X89244493Y-104747808D01*
X89178330Y-105080430D01*
X88522207Y-105080430D01*
X88115806Y-104079849D01*
X87739118Y-102747728D01*
X87707444Y-102557911D01*
X91565006Y-102557911D01*
X91565006Y-102742089D01*
X91600938Y-102922729D01*
X91671420Y-103092889D01*
X91773744Y-103246028D01*
X91903978Y-103376262D01*
X92057117Y-103478586D01*
X92227277Y-103549068D01*
X92407917Y-103585000D01*
X92592095Y-103585000D01*
X92772735Y-103549068D01*
X92942895Y-103478586D01*
X93096034Y-103376262D01*
X93164385Y-103307911D01*
X93490000Y-103307911D01*
X93490000Y-103492089D01*
X93525932Y-103672729D01*
X93596414Y-103842889D01*
X93698738Y-103996028D01*
X93828972Y-104126262D01*
X93982111Y-104228586D01*
X94152271Y-104299068D01*
X94332911Y-104335000D01*
X94517089Y-104335000D01*
X94697729Y-104299068D01*
X94867889Y-104228586D01*
X95021028Y-104126262D01*
X95151262Y-103996028D01*
X95253586Y-103842889D01*
X95324068Y-103672729D01*
X95360000Y-103492089D01*
X95360000Y-103307911D01*
X95324068Y-103127271D01*
X95254783Y-102960000D01*
X95384697Y-102960000D01*
X95550847Y-102926951D01*
X95707357Y-102862122D01*
X95848212Y-102768005D01*
X95967999Y-102648218D01*
X96023405Y-102565297D01*
X96140000Y-102565297D01*
X96140000Y-102734703D01*
X96173049Y-102900853D01*
X96237878Y-103057363D01*
X96331995Y-103198218D01*
X96451782Y-103318005D01*
X96592637Y-103412122D01*
X96749147Y-103476951D01*
X96915297Y-103510000D01*
X97084703Y-103510000D01*
X97250853Y-103476951D01*
X97407363Y-103412122D01*
X97548218Y-103318005D01*
X97668005Y-103198218D01*
X97762122Y-103057363D01*
X97826951Y-102900853D01*
X97860000Y-102734703D01*
X97860000Y-102565297D01*
X97826951Y-102399147D01*
X97762122Y-102242637D01*
X97714334Y-102171117D01*
X98540000Y-102171117D01*
X98540000Y-102340523D01*
X98573049Y-102506673D01*
X98637878Y-102663183D01*
X98731995Y-102804038D01*
X98851782Y-102923825D01*
X98992637Y-103017942D01*
X99149147Y-103082771D01*
X99315297Y-103115820D01*
X99484703Y-103115820D01*
X99650853Y-103082771D01*
X99807363Y-103017942D01*
X99939714Y-102929507D01*
X99964144Y-102966069D01*
X100083931Y-103085856D01*
X100224786Y-103179973D01*
X100381296Y-103244802D01*
X100547446Y-103277851D01*
X100716852Y-103277851D01*
X100883002Y-103244802D01*
X101039512Y-103179973D01*
X101180367Y-103085856D01*
X101300154Y-102966069D01*
X101394271Y-102825214D01*
X101459100Y-102668704D01*
X101492149Y-102502554D01*
X101492149Y-102333148D01*
X101459100Y-102166998D01*
X101394271Y-102010488D01*
X101300154Y-101869633D01*
X101188432Y-101757911D01*
X103165000Y-101757911D01*
X103165000Y-101942089D01*
X103200932Y-102122729D01*
X103271414Y-102292889D01*
X103373738Y-102446028D01*
X103503972Y-102576262D01*
X103657111Y-102678586D01*
X103827271Y-102749068D01*
X104007911Y-102785000D01*
X104192089Y-102785000D01*
X104372729Y-102749068D01*
X104542889Y-102678586D01*
X104696028Y-102576262D01*
X104826262Y-102446028D01*
X104928586Y-102292889D01*
X104999068Y-102122729D01*
X105035000Y-101942089D01*
X105035000Y-101815297D01*
X106839970Y-101815297D01*
X106839970Y-101984703D01*
X106873019Y-102150853D01*
X106937848Y-102307363D01*
X107031965Y-102448218D01*
X107151752Y-102568005D01*
X107292607Y-102662122D01*
X107449117Y-102726951D01*
X107615267Y-102760000D01*
X107784673Y-102760000D01*
X107950823Y-102726951D01*
X108107333Y-102662122D01*
X108248188Y-102568005D01*
X108367975Y-102448218D01*
X108462092Y-102307363D01*
X108526921Y-102150853D01*
X108559970Y-101984703D01*
X108559970Y-101815297D01*
X108526921Y-101649147D01*
X108462092Y-101492637D01*
X108367975Y-101351782D01*
X108248188Y-101231995D01*
X108107333Y-101137878D01*
X107950823Y-101073049D01*
X107784673Y-101040000D01*
X107615267Y-101040000D01*
X107449117Y-101073049D01*
X107292607Y-101137878D01*
X107151752Y-101231995D01*
X107031965Y-101351782D01*
X106937848Y-101492637D01*
X106873019Y-101649147D01*
X106839970Y-101815297D01*
X105035000Y-101815297D01*
X105035000Y-101757911D01*
X104999068Y-101577271D01*
X104928586Y-101407111D01*
X104826262Y-101253972D01*
X104696028Y-101123738D01*
X104542889Y-101021414D01*
X104372729Y-100950932D01*
X104192089Y-100915000D01*
X104007911Y-100915000D01*
X103827271Y-100950932D01*
X103657111Y-101021414D01*
X103503972Y-101123738D01*
X103373738Y-101253972D01*
X103271414Y-101407111D01*
X103200932Y-101577271D01*
X103165000Y-101757911D01*
X101188432Y-101757911D01*
X101180367Y-101749846D01*
X101039512Y-101655729D01*
X100883002Y-101590900D01*
X100716852Y-101557851D01*
X100547446Y-101557851D01*
X100381296Y-101590900D01*
X100224786Y-101655729D01*
X100092435Y-101744164D01*
X100068005Y-101707602D01*
X99948218Y-101587815D01*
X99807363Y-101493698D01*
X99650853Y-101428869D01*
X99484703Y-101395820D01*
X99315297Y-101395820D01*
X99149147Y-101428869D01*
X98992637Y-101493698D01*
X98851782Y-101587815D01*
X98731995Y-101707602D01*
X98637878Y-101848457D01*
X98573049Y-102004967D01*
X98540000Y-102171117D01*
X97714334Y-102171117D01*
X97668005Y-102101782D01*
X97548218Y-101981995D01*
X97407363Y-101887878D01*
X97250853Y-101823049D01*
X97084703Y-101790000D01*
X96915297Y-101790000D01*
X96749147Y-101823049D01*
X96592637Y-101887878D01*
X96451782Y-101981995D01*
X96331995Y-102101782D01*
X96237878Y-102242637D01*
X96173049Y-102399147D01*
X96140000Y-102565297D01*
X96023405Y-102565297D01*
X96062116Y-102507363D01*
X96126945Y-102350853D01*
X96159994Y-102184703D01*
X96159994Y-102015297D01*
X96126945Y-101849147D01*
X96062116Y-101692637D01*
X95967999Y-101551782D01*
X95848212Y-101431995D01*
X95707357Y-101337878D01*
X95550847Y-101273049D01*
X95384697Y-101240000D01*
X95215291Y-101240000D01*
X95049141Y-101273049D01*
X94892631Y-101337878D01*
X94751776Y-101431995D01*
X94631989Y-101551782D01*
X94537872Y-101692637D01*
X94473043Y-101849147D01*
X94439994Y-102015297D01*
X94439994Y-102184703D01*
X94473043Y-102350853D01*
X94520615Y-102465701D01*
X94517089Y-102465000D01*
X94332911Y-102465000D01*
X94152271Y-102500932D01*
X93982111Y-102571414D01*
X93828972Y-102673738D01*
X93698738Y-102803972D01*
X93596414Y-102957111D01*
X93525932Y-103127271D01*
X93490000Y-103307911D01*
X93164385Y-103307911D01*
X93226268Y-103246028D01*
X93328592Y-103092889D01*
X93399074Y-102922729D01*
X93435006Y-102742089D01*
X93435006Y-102557911D01*
X93399074Y-102377271D01*
X93328592Y-102207111D01*
X93226268Y-102053972D01*
X93096034Y-101923738D01*
X92942895Y-101821414D01*
X92772735Y-101750932D01*
X92592095Y-101715000D01*
X92407917Y-101715000D01*
X92227277Y-101750932D01*
X92057117Y-101821414D01*
X91903978Y-101923738D01*
X91773744Y-102053972D01*
X91671420Y-102207111D01*
X91600938Y-102377271D01*
X91565006Y-102557911D01*
X87707444Y-102557911D01*
X87575130Y-101765000D01*
X87648102Y-101795226D01*
X87848061Y-101835000D01*
X88051939Y-101835000D01*
X88251898Y-101795226D01*
X88440256Y-101717205D01*
X88450000Y-101710694D01*
X88459744Y-101717205D01*
X88648102Y-101795226D01*
X88848061Y-101835000D01*
X89051939Y-101835000D01*
X89251898Y-101795226D01*
X89440256Y-101717205D01*
X89502995Y-101675285D01*
X89503972Y-101676262D01*
X89657111Y-101778586D01*
X89827271Y-101849068D01*
X90007911Y-101885000D01*
X90192089Y-101885000D01*
X90372729Y-101849068D01*
X90542889Y-101778586D01*
X90696028Y-101676262D01*
X90826262Y-101546028D01*
X90928586Y-101392889D01*
X90999068Y-101222729D01*
X91035000Y-101042089D01*
X91035000Y-100857911D01*
X90999068Y-100677271D01*
X90928586Y-100507111D01*
X90826262Y-100353972D01*
X90696028Y-100223738D01*
X90542889Y-100121414D01*
X90372729Y-100050932D01*
X90192089Y-100015000D01*
X90007911Y-100015000D01*
X89981355Y-100020282D01*
X89985004Y-100001939D01*
X89985004Y-99798061D01*
X89945230Y-99598102D01*
X89867209Y-99409744D01*
X89753941Y-99240226D01*
X89609778Y-99096063D01*
X89440260Y-98982795D01*
X89251902Y-98904774D01*
X89051943Y-98865000D01*
X88848065Y-98865000D01*
X88648106Y-98904774D01*
X88463044Y-98981430D01*
X88390256Y-98932795D01*
X88201898Y-98854774D01*
X88001939Y-98815000D01*
X87798061Y-98815000D01*
X87598102Y-98854774D01*
X87495847Y-98897130D01*
X87511261Y-98617747D01*
X87739118Y-97252272D01*
X88115806Y-95920151D01*
X88137874Y-95865818D01*
X91739479Y-95865818D01*
X91739479Y-96035224D01*
X91772528Y-96201374D01*
X91837357Y-96357884D01*
X91931474Y-96498739D01*
X92051261Y-96618526D01*
X92192116Y-96712643D01*
X92348626Y-96777472D01*
X92514776Y-96810521D01*
X92684182Y-96810521D01*
X92850332Y-96777472D01*
X93006842Y-96712643D01*
X93147697Y-96618526D01*
X93267484Y-96498739D01*
X93361601Y-96357884D01*
X93426430Y-96201374D01*
X93443551Y-96115297D01*
X94840000Y-96115297D01*
X94840000Y-96284703D01*
X94873049Y-96450853D01*
X94937878Y-96607363D01*
X95031995Y-96748218D01*
X95123598Y-96839821D01*
X95076701Y-96953040D01*
X95040769Y-97133680D01*
X95040769Y-97317858D01*
X95076701Y-97498498D01*
X95147183Y-97668658D01*
X95249507Y-97821797D01*
X95379741Y-97952031D01*
X95532880Y-98054355D01*
X95703040Y-98124837D01*
X95883680Y-98160769D01*
X96067858Y-98160769D01*
X96248498Y-98124837D01*
X96266324Y-98117453D01*
X96231995Y-98151782D01*
X96137878Y-98292637D01*
X96073049Y-98449147D01*
X96040000Y-98615297D01*
X96040000Y-98784703D01*
X96073049Y-98950853D01*
X96137878Y-99107363D01*
X96231995Y-99248218D01*
X96351782Y-99368005D01*
X96492637Y-99462122D01*
X96649147Y-99526951D01*
X96815297Y-99560000D01*
X96947528Y-99560000D01*
X96987857Y-99657363D01*
X97081974Y-99798218D01*
X97201761Y-99918005D01*
X97342616Y-100012122D01*
X97499126Y-100076951D01*
X97665276Y-100110000D01*
X97834682Y-100110000D01*
X98000832Y-100076951D01*
X98157342Y-100012122D01*
X98298197Y-99918005D01*
X98417984Y-99798218D01*
X98439987Y-99765288D01*
X102440000Y-99765288D01*
X102440000Y-99934694D01*
X102473049Y-100100844D01*
X102537878Y-100257354D01*
X102631995Y-100398209D01*
X102751782Y-100517996D01*
X102892637Y-100612113D01*
X103049147Y-100676942D01*
X103215297Y-100709991D01*
X103384703Y-100709991D01*
X103550853Y-100676942D01*
X103707363Y-100612113D01*
X103848218Y-100517996D01*
X103968005Y-100398209D01*
X104062122Y-100257354D01*
X104126951Y-100100844D01*
X104160000Y-99934694D01*
X104160000Y-99765288D01*
X104157640Y-99753424D01*
X104257352Y-99712122D01*
X104398207Y-99618005D01*
X104517994Y-99498218D01*
X104612111Y-99357363D01*
X104676940Y-99200853D01*
X104704643Y-99061580D01*
X104768005Y-98998218D01*
X104862122Y-98857363D01*
X104926951Y-98700853D01*
X104960000Y-98534703D01*
X104960000Y-98365297D01*
X104926951Y-98199147D01*
X104862122Y-98042637D01*
X104768005Y-97901782D01*
X104704657Y-97838434D01*
X104676951Y-97699147D01*
X104612122Y-97542637D01*
X104518005Y-97401782D01*
X104398218Y-97281995D01*
X104257363Y-97187878D01*
X104100853Y-97123049D01*
X103934703Y-97090000D01*
X103765297Y-97090000D01*
X103599147Y-97123049D01*
X103442637Y-97187878D01*
X103301782Y-97281995D01*
X103181995Y-97401782D01*
X103087878Y-97542637D01*
X103023049Y-97699147D01*
X102990000Y-97865297D01*
X102990000Y-98034703D01*
X103023049Y-98200853D01*
X103087878Y-98357363D01*
X103149771Y-98449992D01*
X103087867Y-98542637D01*
X103023038Y-98699147D01*
X102989989Y-98865297D01*
X102989989Y-99034703D01*
X102992349Y-99046567D01*
X102892637Y-99087869D01*
X102751782Y-99181986D01*
X102631995Y-99301773D01*
X102537878Y-99442628D01*
X102473049Y-99599138D01*
X102440000Y-99765288D01*
X98439987Y-99765288D01*
X98512101Y-99657363D01*
X98576930Y-99500853D01*
X98609979Y-99334703D01*
X98609979Y-99165297D01*
X98576930Y-98999147D01*
X98512101Y-98842637D01*
X98417984Y-98701782D01*
X98298197Y-98581995D01*
X98157342Y-98487878D01*
X98146981Y-98483586D01*
X98201961Y-98350853D01*
X98226567Y-98227147D01*
X98367729Y-98199068D01*
X98537889Y-98128586D01*
X98691028Y-98026262D01*
X98821262Y-97896028D01*
X98923586Y-97742889D01*
X98994068Y-97572729D01*
X99005492Y-97515297D01*
X99840000Y-97515297D01*
X99840000Y-97684703D01*
X99873049Y-97850853D01*
X99937878Y-98007363D01*
X100031995Y-98148218D01*
X100151782Y-98268005D01*
X100292637Y-98362122D01*
X100449147Y-98426951D01*
X100615297Y-98460000D01*
X100640000Y-98460000D01*
X100640000Y-98584703D01*
X100673049Y-98750853D01*
X100737878Y-98907363D01*
X100831995Y-99048218D01*
X100951782Y-99168005D01*
X101092637Y-99262122D01*
X101249147Y-99326951D01*
X101415297Y-99360000D01*
X101584703Y-99360000D01*
X101750853Y-99326951D01*
X101907363Y-99262122D01*
X102048218Y-99168005D01*
X102168005Y-99048218D01*
X102262122Y-98907363D01*
X102326951Y-98750853D01*
X102360000Y-98584703D01*
X102360000Y-98415297D01*
X102326951Y-98249147D01*
X102262122Y-98092637D01*
X102168005Y-97951782D01*
X102048218Y-97831995D01*
X101907363Y-97737878D01*
X101750853Y-97673049D01*
X101584703Y-97640000D01*
X101560000Y-97640000D01*
X101560000Y-97515297D01*
X101526951Y-97349147D01*
X101462122Y-97192637D01*
X101368005Y-97051782D01*
X101248218Y-96931995D01*
X101107363Y-96837878D01*
X100950853Y-96773049D01*
X100784703Y-96740000D01*
X100615297Y-96740000D01*
X100449147Y-96773049D01*
X100292637Y-96837878D01*
X100151782Y-96931995D01*
X100031995Y-97051782D01*
X99937878Y-97192637D01*
X99873049Y-97349147D01*
X99840000Y-97515297D01*
X99005492Y-97515297D01*
X99030000Y-97392089D01*
X99030000Y-97207911D01*
X98994068Y-97027271D01*
X98923586Y-96857111D01*
X98821262Y-96703972D01*
X98691028Y-96573738D01*
X98537889Y-96471414D01*
X98367729Y-96400932D01*
X98187089Y-96365000D01*
X98002911Y-96365000D01*
X97822271Y-96400932D01*
X97652111Y-96471414D01*
X97498972Y-96573738D01*
X97368738Y-96703972D01*
X97266414Y-96857111D01*
X97195932Y-97027271D01*
X97160000Y-97207911D01*
X97160000Y-97265919D01*
X97124157Y-97273049D01*
X96967647Y-97337878D01*
X96897458Y-97384777D01*
X96910769Y-97317858D01*
X96910769Y-97133680D01*
X96874837Y-96953040D01*
X96804355Y-96782880D01*
X96702031Y-96629741D01*
X96571797Y-96499507D01*
X96520888Y-96465491D01*
X96526951Y-96450853D01*
X96560000Y-96284703D01*
X96560000Y-96115297D01*
X96526951Y-95949147D01*
X96462122Y-95792637D01*
X96368005Y-95651782D01*
X96248218Y-95531995D01*
X96107363Y-95437878D01*
X95950853Y-95373049D01*
X95784703Y-95340000D01*
X95615297Y-95340000D01*
X95449147Y-95373049D01*
X95292637Y-95437878D01*
X95151782Y-95531995D01*
X95031995Y-95651782D01*
X94937878Y-95792637D01*
X94873049Y-95949147D01*
X94840000Y-96115297D01*
X93443551Y-96115297D01*
X93459479Y-96035224D01*
X93459479Y-96035181D01*
X93500853Y-96026951D01*
X93657363Y-95962122D01*
X93798218Y-95868005D01*
X93918005Y-95748218D01*
X94012122Y-95607363D01*
X94076951Y-95450853D01*
X94110000Y-95284703D01*
X94110000Y-95115297D01*
X94076951Y-94949147D01*
X94012122Y-94792637D01*
X93918005Y-94651782D01*
X93831520Y-94565297D01*
X96090000Y-94565297D01*
X96090000Y-94734703D01*
X96123049Y-94900853D01*
X96187878Y-95057363D01*
X96281995Y-95198218D01*
X96401782Y-95318005D01*
X96542637Y-95412122D01*
X96699147Y-95476951D01*
X96865297Y-95510000D01*
X97034703Y-95510000D01*
X97200853Y-95476951D01*
X97357363Y-95412122D01*
X97498218Y-95318005D01*
X97618005Y-95198218D01*
X97712122Y-95057363D01*
X97776951Y-94900853D01*
X97810000Y-94734703D01*
X97810000Y-94565297D01*
X97776951Y-94399147D01*
X97712122Y-94242637D01*
X97618005Y-94101782D01*
X97498218Y-93981995D01*
X97462175Y-93957911D01*
X98165000Y-93957911D01*
X98165000Y-94142089D01*
X98200932Y-94322729D01*
X98271414Y-94492889D01*
X98373738Y-94646028D01*
X98503972Y-94776262D01*
X98657111Y-94878586D01*
X98827271Y-94949068D01*
X99007911Y-94985000D01*
X99192089Y-94985000D01*
X99372729Y-94949068D01*
X99542889Y-94878586D01*
X99696028Y-94776262D01*
X99741438Y-94730852D01*
X99746424Y-94742889D01*
X99848748Y-94896028D01*
X99978982Y-95026262D01*
X100132121Y-95128586D01*
X100302281Y-95199068D01*
X100482921Y-95235000D01*
X100667099Y-95235000D01*
X100847739Y-95199068D01*
X101017899Y-95128586D01*
X101171038Y-95026262D01*
X101301272Y-94896028D01*
X101403596Y-94742889D01*
X101474078Y-94572729D01*
X101510010Y-94392089D01*
X101510010Y-94207911D01*
X101474078Y-94027271D01*
X101403596Y-93857111D01*
X101301272Y-93703972D01*
X101171038Y-93573738D01*
X101017899Y-93471414D01*
X100864588Y-93407911D01*
X104740010Y-93407911D01*
X104740010Y-93592089D01*
X104775942Y-93772729D01*
X104846424Y-93942889D01*
X104948748Y-94096028D01*
X105078982Y-94226262D01*
X105232121Y-94328586D01*
X105402281Y-94399068D01*
X105582921Y-94435000D01*
X105767099Y-94435000D01*
X105947739Y-94399068D01*
X106117899Y-94328586D01*
X106271038Y-94226262D01*
X106401272Y-94096028D01*
X106503596Y-93942889D01*
X106574078Y-93772729D01*
X106610010Y-93592089D01*
X106610010Y-93407911D01*
X106574078Y-93227271D01*
X106503596Y-93057111D01*
X106401272Y-92903972D01*
X106271038Y-92773738D01*
X106117899Y-92671414D01*
X105947739Y-92600932D01*
X105767099Y-92565000D01*
X105582921Y-92565000D01*
X105402281Y-92600932D01*
X105232121Y-92671414D01*
X105078982Y-92773738D01*
X104948748Y-92903972D01*
X104846424Y-93057111D01*
X104775942Y-93227271D01*
X104740010Y-93407911D01*
X100864588Y-93407911D01*
X100847739Y-93400932D01*
X100667099Y-93365000D01*
X100482921Y-93365000D01*
X100302281Y-93400932D01*
X100132121Y-93471414D01*
X99978982Y-93573738D01*
X99933572Y-93619148D01*
X99928586Y-93607111D01*
X99826262Y-93453972D01*
X99696028Y-93323738D01*
X99542889Y-93221414D01*
X99372729Y-93150932D01*
X99192089Y-93115000D01*
X99007911Y-93115000D01*
X98827271Y-93150932D01*
X98657111Y-93221414D01*
X98503972Y-93323738D01*
X98373738Y-93453972D01*
X98271414Y-93607111D01*
X98200932Y-93777271D01*
X98165000Y-93957911D01*
X97462175Y-93957911D01*
X97357363Y-93887878D01*
X97200853Y-93823049D01*
X97034703Y-93790000D01*
X96865297Y-93790000D01*
X96699147Y-93823049D01*
X96542637Y-93887878D01*
X96401782Y-93981995D01*
X96281995Y-94101782D01*
X96187878Y-94242637D01*
X96123049Y-94399147D01*
X96090000Y-94565297D01*
X93831520Y-94565297D01*
X93798218Y-94531995D01*
X93657363Y-94437878D01*
X93500853Y-94373049D01*
X93334703Y-94340000D01*
X93165297Y-94340000D01*
X92999147Y-94373049D01*
X92842637Y-94437878D01*
X92701782Y-94531995D01*
X92581995Y-94651782D01*
X92487878Y-94792637D01*
X92423049Y-94949147D01*
X92390000Y-95115297D01*
X92390000Y-95115340D01*
X92348626Y-95123570D01*
X92192116Y-95188399D01*
X92051261Y-95282516D01*
X91931474Y-95402303D01*
X91837357Y-95543158D01*
X91772528Y-95699668D01*
X91739479Y-95865818D01*
X88137874Y-95865818D01*
X88636752Y-94637554D01*
X89295633Y-93420050D01*
X89437605Y-93215297D01*
X92240000Y-93215297D01*
X92240000Y-93384703D01*
X92273049Y-93550853D01*
X92337878Y-93707363D01*
X92431995Y-93848218D01*
X92551782Y-93968005D01*
X92692637Y-94062122D01*
X92849147Y-94126951D01*
X93015297Y-94160000D01*
X93184703Y-94160000D01*
X93350853Y-94126951D01*
X93507363Y-94062122D01*
X93648218Y-93968005D01*
X93768005Y-93848218D01*
X93862122Y-93707363D01*
X93926951Y-93550853D01*
X93960000Y-93384703D01*
X93960000Y-93350637D01*
X94023738Y-93446028D01*
X94153972Y-93576262D01*
X94307111Y-93678586D01*
X94477271Y-93749068D01*
X94657911Y-93785000D01*
X94842089Y-93785000D01*
X95022729Y-93749068D01*
X95192889Y-93678586D01*
X95346028Y-93576262D01*
X95476262Y-93446028D01*
X95578586Y-93292889D01*
X95649068Y-93122729D01*
X95685000Y-92942089D01*
X95685000Y-92757911D01*
X95649068Y-92577271D01*
X95578586Y-92407111D01*
X95476262Y-92253972D01*
X95346028Y-92123738D01*
X95192889Y-92021414D01*
X95022729Y-91950932D01*
X94842089Y-91915000D01*
X94657911Y-91915000D01*
X94477271Y-91950932D01*
X94307111Y-92021414D01*
X94153972Y-92123738D01*
X94023738Y-92253972D01*
X93921414Y-92407111D01*
X93850932Y-92577271D01*
X93815000Y-92757911D01*
X93815000Y-92822114D01*
X93768005Y-92751782D01*
X93648218Y-92631995D01*
X93507363Y-92537878D01*
X93350853Y-92473049D01*
X93184703Y-92440000D01*
X93015297Y-92440000D01*
X92849147Y-92473049D01*
X92692637Y-92537878D01*
X92551782Y-92631995D01*
X92431995Y-92751782D01*
X92337878Y-92892637D01*
X92273049Y-93049147D01*
X92240000Y-93215297D01*
X89437605Y-93215297D01*
X90084449Y-92282417D01*
X90993628Y-91238466D01*
X91515649Y-90757911D01*
X94165000Y-90757911D01*
X94165000Y-90942089D01*
X94200932Y-91122729D01*
X94271414Y-91292889D01*
X94373738Y-91446028D01*
X94503972Y-91576262D01*
X94657111Y-91678586D01*
X94827271Y-91749068D01*
X95007911Y-91785000D01*
X95192089Y-91785000D01*
X95372729Y-91749068D01*
X95542889Y-91678586D01*
X95696028Y-91576262D01*
X95826262Y-91446028D01*
X95928586Y-91292889D01*
X95940010Y-91265307D01*
X97529327Y-91265307D01*
X97529327Y-91434713D01*
X97562376Y-91600863D01*
X97627205Y-91757373D01*
X97721322Y-91898228D01*
X97841109Y-92018015D01*
X97981964Y-92112132D01*
X98138474Y-92176961D01*
X98161217Y-92181485D01*
X98216305Y-92263929D01*
X98336092Y-92383716D01*
X98476947Y-92477833D01*
X98633457Y-92542662D01*
X98799607Y-92575711D01*
X98969013Y-92575711D01*
X99135163Y-92542662D01*
X99291673Y-92477833D01*
X99432528Y-92383716D01*
X99552315Y-92263929D01*
X99646432Y-92123074D01*
X99711261Y-91966564D01*
X99744310Y-91800414D01*
X99744310Y-91631008D01*
X99711261Y-91464858D01*
X99646432Y-91308348D01*
X99552315Y-91167493D01*
X99550887Y-91166065D01*
X99830430Y-91221670D01*
X100169570Y-91221670D01*
X100502192Y-91155507D01*
X100556355Y-91133072D01*
X100540000Y-91215297D01*
X100540000Y-91384703D01*
X100573049Y-91550853D01*
X100637878Y-91707363D01*
X100731995Y-91848218D01*
X100851782Y-91968005D01*
X100992637Y-92062122D01*
X101149147Y-92126951D01*
X101315297Y-92160000D01*
X101484703Y-92160000D01*
X101650853Y-92126951D01*
X101807363Y-92062122D01*
X101948218Y-91968005D01*
X102068005Y-91848218D01*
X102162122Y-91707363D01*
X102224027Y-91557911D01*
X103665020Y-91557911D01*
X103665020Y-91742089D01*
X103700952Y-91922729D01*
X103771434Y-92092889D01*
X103873758Y-92246028D01*
X104003992Y-92376262D01*
X104157131Y-92478586D01*
X104327291Y-92549068D01*
X104507931Y-92585000D01*
X104692109Y-92585000D01*
X104872749Y-92549068D01*
X105042909Y-92478586D01*
X105196048Y-92376262D01*
X105326282Y-92246028D01*
X105428606Y-92092889D01*
X105499088Y-91922729D01*
X105535020Y-91742089D01*
X105535020Y-91557911D01*
X105499088Y-91377271D01*
X105428606Y-91207111D01*
X105326282Y-91053972D01*
X105196048Y-90923738D01*
X105042909Y-90821414D01*
X104872749Y-90750932D01*
X104692109Y-90715000D01*
X104507931Y-90715000D01*
X104327291Y-90750932D01*
X104157131Y-90821414D01*
X104003992Y-90923738D01*
X103873758Y-91053972D01*
X103771434Y-91207111D01*
X103700952Y-91377271D01*
X103665020Y-91557911D01*
X102224027Y-91557911D01*
X102226951Y-91550853D01*
X102260000Y-91384703D01*
X102260000Y-91215297D01*
X102226951Y-91049147D01*
X102219428Y-91030985D01*
X102365297Y-91060000D01*
X102534703Y-91060000D01*
X102700853Y-91026951D01*
X102857363Y-90962122D01*
X102998218Y-90868005D01*
X103118005Y-90748218D01*
X103212122Y-90607363D01*
X103276951Y-90450853D01*
X103310000Y-90284703D01*
X103310000Y-90115297D01*
X103290078Y-90015144D01*
X103349068Y-89872729D01*
X103385000Y-89692089D01*
X103385000Y-89507911D01*
X103349068Y-89327271D01*
X103278586Y-89157111D01*
X103176262Y-89003972D01*
X103046028Y-88873738D01*
X102892889Y-88771414D01*
X102722729Y-88700932D01*
X102542089Y-88665000D01*
X102357911Y-88665000D01*
X102177271Y-88700932D01*
X102007111Y-88771414D01*
X101853972Y-88873738D01*
X101723738Y-89003972D01*
X101672104Y-89081248D01*
X101655507Y-88997808D01*
X101525724Y-88684484D01*
X101337308Y-88402500D01*
X101097500Y-88162692D01*
X100815516Y-87974276D01*
X100502192Y-87844493D01*
X100169570Y-87778330D01*
X99830430Y-87778330D01*
X99497808Y-87844493D01*
X99184484Y-87974276D01*
X98902500Y-88162692D01*
X98662692Y-88402500D01*
X98474276Y-88684484D01*
X98344493Y-88997808D01*
X98278330Y-89330430D01*
X98278330Y-89669570D01*
X98344493Y-90002192D01*
X98474276Y-90315516D01*
X98608779Y-90516813D01*
X98474030Y-90490010D01*
X98304624Y-90490010D01*
X98138474Y-90523059D01*
X97981964Y-90587888D01*
X97841109Y-90682005D01*
X97721322Y-90801792D01*
X97627205Y-90942647D01*
X97562376Y-91099157D01*
X97529327Y-91265307D01*
X95940010Y-91265307D01*
X95999068Y-91122729D01*
X96035000Y-90942089D01*
X96035000Y-90757911D01*
X95999068Y-90577271D01*
X95928586Y-90407111D01*
X95826262Y-90253972D01*
X95696028Y-90123738D01*
X95542889Y-90021414D01*
X95372729Y-89950932D01*
X95192089Y-89915000D01*
X95007911Y-89915000D01*
X94827271Y-89950932D01*
X94657111Y-90021414D01*
X94503972Y-90123738D01*
X94373738Y-90253972D01*
X94271414Y-90407111D01*
X94200932Y-90577271D01*
X94165000Y-90757911D01*
X91515649Y-90757911D01*
X92012131Y-90300867D01*
X93127596Y-89481003D01*
X94326483Y-88788825D01*
X95594239Y-88232736D01*
X96915475Y-87819486D01*
X98274153Y-87554090D01*
X99653780Y-87439771D01*
X101037609Y-87477916D01*
%TD*%
M02*
