%TF.GenerationSoftware,KiCad,Pcbnew,(5.1.5)-3*%
%TF.CreationDate,2021-08-14T21:38:10+08:00*%
%TF.ProjectId,STM32_FOC,53544d33-325f-4464-9f43-2e6b69636164,rev?*%
%TF.SameCoordinates,Original*%
%TF.FileFunction,Soldermask,Top*%
%TF.FilePolarity,Negative*%
%FSLAX46Y46*%
G04 Gerber Fmt 4.6, Leading zero omitted, Abs format (unit mm)*
G04 Created by KiCad (PCBNEW (5.1.5)-3) date 2021-08-14 21:38:10*
%MOMM*%
%LPD*%
G04 APERTURE LIST*
%ADD10C,0.100000*%
G04 APERTURE END LIST*
D10*
G36*
X97751824Y-111842080D02*
G01*
X97779545Y-111850490D01*
X97805089Y-111864144D01*
X97827480Y-111882520D01*
X97845856Y-111904911D01*
X97859510Y-111930455D01*
X97867920Y-111958176D01*
X97871000Y-111989453D01*
X97871000Y-112380547D01*
X97867920Y-112411824D01*
X97859510Y-112439545D01*
X97845856Y-112465089D01*
X97827480Y-112487480D01*
X97805089Y-112505856D01*
X97779545Y-112519510D01*
X97751824Y-112527920D01*
X97720547Y-112531000D01*
X97279453Y-112531000D01*
X97248176Y-112527920D01*
X97220455Y-112519510D01*
X97194911Y-112505856D01*
X97172520Y-112487480D01*
X97154144Y-112465089D01*
X97140490Y-112439545D01*
X97132080Y-112411824D01*
X97129000Y-112380547D01*
X97129000Y-111989453D01*
X97132080Y-111958176D01*
X97140490Y-111930455D01*
X97154144Y-111904911D01*
X97172520Y-111882520D01*
X97194911Y-111864144D01*
X97220455Y-111850490D01*
X97248176Y-111842080D01*
X97279453Y-111839000D01*
X97720547Y-111839000D01*
X97751824Y-111842080D01*
G37*
G36*
X96611824Y-110882080D02*
G01*
X96639545Y-110890490D01*
X96665089Y-110904144D01*
X96687480Y-110922520D01*
X96705856Y-110944911D01*
X96719510Y-110970455D01*
X96727920Y-110998176D01*
X96731000Y-111029453D01*
X96731000Y-111470547D01*
X96727920Y-111501824D01*
X96719510Y-111529545D01*
X96705856Y-111555089D01*
X96687480Y-111577480D01*
X96665089Y-111595856D01*
X96639545Y-111609510D01*
X96611824Y-111617920D01*
X96580547Y-111621000D01*
X96189453Y-111621000D01*
X96158176Y-111617920D01*
X96130455Y-111609510D01*
X96104911Y-111595856D01*
X96082520Y-111577480D01*
X96064144Y-111555089D01*
X96050490Y-111529545D01*
X96042080Y-111501824D01*
X96039000Y-111470547D01*
X96039000Y-111029453D01*
X96042080Y-110998176D01*
X96050490Y-110970455D01*
X96064144Y-110944911D01*
X96082520Y-110922520D01*
X96104911Y-110904144D01*
X96130455Y-110890490D01*
X96158176Y-110882080D01*
X96189453Y-110879000D01*
X96580547Y-110879000D01*
X96611824Y-110882080D01*
G37*
G36*
X95641824Y-110882080D02*
G01*
X95669545Y-110890490D01*
X95695089Y-110904144D01*
X95717480Y-110922520D01*
X95735856Y-110944911D01*
X95749510Y-110970455D01*
X95757920Y-110998176D01*
X95761000Y-111029453D01*
X95761000Y-111470547D01*
X95757920Y-111501824D01*
X95749510Y-111529545D01*
X95735856Y-111555089D01*
X95717480Y-111577480D01*
X95695089Y-111595856D01*
X95669545Y-111609510D01*
X95641824Y-111617920D01*
X95610547Y-111621000D01*
X95219453Y-111621000D01*
X95188176Y-111617920D01*
X95160455Y-111609510D01*
X95134911Y-111595856D01*
X95112520Y-111577480D01*
X95094144Y-111555089D01*
X95080490Y-111529545D01*
X95072080Y-111501824D01*
X95069000Y-111470547D01*
X95069000Y-111029453D01*
X95072080Y-110998176D01*
X95080490Y-110970455D01*
X95094144Y-110944911D01*
X95112520Y-110922520D01*
X95134911Y-110904144D01*
X95160455Y-110890490D01*
X95188176Y-110882080D01*
X95219453Y-110879000D01*
X95610547Y-110879000D01*
X95641824Y-110882080D01*
G37*
G36*
X97751824Y-110872080D02*
G01*
X97779545Y-110880490D01*
X97805089Y-110894144D01*
X97827480Y-110912520D01*
X97845856Y-110934911D01*
X97859510Y-110960455D01*
X97867920Y-110988176D01*
X97871000Y-111019453D01*
X97871000Y-111410547D01*
X97867920Y-111441824D01*
X97859510Y-111469545D01*
X97845856Y-111495089D01*
X97827480Y-111517480D01*
X97805089Y-111535856D01*
X97779545Y-111549510D01*
X97751824Y-111557920D01*
X97720547Y-111561000D01*
X97279453Y-111561000D01*
X97248176Y-111557920D01*
X97220455Y-111549510D01*
X97194911Y-111535856D01*
X97172520Y-111517480D01*
X97154144Y-111495089D01*
X97140490Y-111469545D01*
X97132080Y-111441824D01*
X97129000Y-111410547D01*
X97129000Y-111019453D01*
X97132080Y-110988176D01*
X97140490Y-110960455D01*
X97154144Y-110934911D01*
X97172520Y-110912520D01*
X97194911Y-110894144D01*
X97220455Y-110880490D01*
X97248176Y-110872080D01*
X97279453Y-110869000D01*
X97720547Y-110869000D01*
X97751824Y-110872080D01*
G37*
G36*
X103707180Y-110361140D02*
G01*
X103300380Y-110361140D01*
X103300380Y-109019620D01*
X103707180Y-109019620D01*
X103707180Y-110361140D01*
G37*
G36*
X104357420Y-110361140D02*
G01*
X103950620Y-110361140D01*
X103950620Y-109019620D01*
X104357420Y-109019620D01*
X104357420Y-110361140D01*
G37*
G36*
X102406700Y-110361140D02*
G01*
X101999900Y-110361140D01*
X101999900Y-109019620D01*
X102406700Y-109019620D01*
X102406700Y-110361140D01*
G37*
G36*
X101756460Y-110361140D02*
G01*
X101349660Y-110361140D01*
X101349660Y-109019620D01*
X101756460Y-109019620D01*
X101756460Y-110361140D01*
G37*
G36*
X101106220Y-110361140D02*
G01*
X100699420Y-110361140D01*
X100699420Y-109019620D01*
X101106220Y-109019620D01*
X101106220Y-110361140D01*
G37*
G36*
X100455980Y-110361140D02*
G01*
X100049180Y-110361140D01*
X100049180Y-109019620D01*
X100455980Y-109019620D01*
X100455980Y-110361140D01*
G37*
G36*
X99810820Y-110361140D02*
G01*
X99404020Y-110361140D01*
X99404020Y-109019620D01*
X99810820Y-109019620D01*
X99810820Y-110361140D01*
G37*
G36*
X98510340Y-110361140D02*
G01*
X98103540Y-110361140D01*
X98103540Y-109019620D01*
X98510340Y-109019620D01*
X98510340Y-110361140D01*
G37*
G36*
X97860100Y-110361140D02*
G01*
X97453300Y-110361140D01*
X97453300Y-109019620D01*
X97860100Y-109019620D01*
X97860100Y-110361140D01*
G37*
G36*
X97209860Y-110361140D02*
G01*
X96803060Y-110361140D01*
X96803060Y-109019620D01*
X97209860Y-109019620D01*
X97209860Y-110361140D01*
G37*
G36*
X96559620Y-110361140D02*
G01*
X96152820Y-110361140D01*
X96152820Y-109019620D01*
X96559620Y-109019620D01*
X96559620Y-110361140D01*
G37*
G36*
X95909380Y-110361140D02*
G01*
X95502580Y-110361140D01*
X95502580Y-109019620D01*
X95909380Y-109019620D01*
X95909380Y-110361140D01*
G37*
G36*
X103056940Y-110361140D02*
G01*
X102650140Y-110361140D01*
X102650140Y-109019620D01*
X103056940Y-109019620D01*
X103056940Y-110361140D01*
G37*
G36*
X99160580Y-110361140D02*
G01*
X98753780Y-110361140D01*
X98753780Y-109019620D01*
X99160580Y-109019620D01*
X99160580Y-110361140D01*
G37*
G36*
X94101824Y-108442080D02*
G01*
X94129545Y-108450490D01*
X94155089Y-108464144D01*
X94177480Y-108482520D01*
X94195856Y-108504911D01*
X94209510Y-108530455D01*
X94217920Y-108558176D01*
X94221000Y-108589453D01*
X94221000Y-108980547D01*
X94217920Y-109011824D01*
X94209510Y-109039545D01*
X94195856Y-109065089D01*
X94177480Y-109087480D01*
X94155089Y-109105856D01*
X94129545Y-109119510D01*
X94101824Y-109127920D01*
X94070547Y-109131000D01*
X93629453Y-109131000D01*
X93598176Y-109127920D01*
X93570455Y-109119510D01*
X93544911Y-109105856D01*
X93522520Y-109087480D01*
X93504144Y-109065089D01*
X93490490Y-109039545D01*
X93482080Y-109011824D01*
X93479000Y-108980547D01*
X93479000Y-108589453D01*
X93482080Y-108558176D01*
X93490490Y-108530455D01*
X93504144Y-108504911D01*
X93522520Y-108482520D01*
X93544911Y-108464144D01*
X93570455Y-108450490D01*
X93598176Y-108442080D01*
X93629453Y-108439000D01*
X94070547Y-108439000D01*
X94101824Y-108442080D01*
G37*
G36*
X105751824Y-108342080D02*
G01*
X105779545Y-108350490D01*
X105805089Y-108364144D01*
X105827480Y-108382520D01*
X105845856Y-108404911D01*
X105859510Y-108430455D01*
X105867920Y-108458176D01*
X105871000Y-108489453D01*
X105871000Y-108880547D01*
X105867920Y-108911824D01*
X105859510Y-108939545D01*
X105845856Y-108965089D01*
X105827480Y-108987480D01*
X105805089Y-109005856D01*
X105779545Y-109019510D01*
X105751824Y-109027920D01*
X105720547Y-109031000D01*
X105279453Y-109031000D01*
X105248176Y-109027920D01*
X105220455Y-109019510D01*
X105194911Y-109005856D01*
X105172520Y-108987480D01*
X105154144Y-108965089D01*
X105140490Y-108939545D01*
X105132080Y-108911824D01*
X105129000Y-108880547D01*
X105129000Y-108489453D01*
X105132080Y-108458176D01*
X105140490Y-108430455D01*
X105154144Y-108404911D01*
X105172520Y-108382520D01*
X105194911Y-108364144D01*
X105220455Y-108350490D01*
X105248176Y-108342080D01*
X105279453Y-108339000D01*
X105720547Y-108339000D01*
X105751824Y-108342080D01*
G37*
G36*
X102580690Y-108250400D02*
G01*
X97279310Y-108250400D01*
X97279310Y-105049600D01*
X102580690Y-105049600D01*
X102580690Y-108250400D01*
G37*
G36*
X94101824Y-107472080D02*
G01*
X94129545Y-107480490D01*
X94155089Y-107494144D01*
X94177480Y-107512520D01*
X94195856Y-107534911D01*
X94209510Y-107560455D01*
X94217920Y-107588176D01*
X94221000Y-107619453D01*
X94221000Y-108010547D01*
X94217920Y-108041824D01*
X94209510Y-108069545D01*
X94195856Y-108095089D01*
X94177480Y-108117480D01*
X94155089Y-108135856D01*
X94129545Y-108149510D01*
X94101824Y-108157920D01*
X94070547Y-108161000D01*
X93629453Y-108161000D01*
X93598176Y-108157920D01*
X93570455Y-108149510D01*
X93544911Y-108135856D01*
X93522520Y-108117480D01*
X93504144Y-108095089D01*
X93490490Y-108069545D01*
X93482080Y-108041824D01*
X93479000Y-108010547D01*
X93479000Y-107619453D01*
X93482080Y-107588176D01*
X93490490Y-107560455D01*
X93504144Y-107534911D01*
X93522520Y-107512520D01*
X93544911Y-107494144D01*
X93570455Y-107480490D01*
X93598176Y-107472080D01*
X93629453Y-107469000D01*
X94070547Y-107469000D01*
X94101824Y-107472080D01*
G37*
G36*
X107199477Y-107153450D02*
G01*
X107240559Y-107165912D01*
X107278424Y-107186152D01*
X107311612Y-107213388D01*
X107338848Y-107246576D01*
X107359088Y-107284441D01*
X107371550Y-107325523D01*
X107376000Y-107370704D01*
X107376000Y-107904296D01*
X107371550Y-107949477D01*
X107359088Y-107990559D01*
X107338848Y-108028424D01*
X107311612Y-108061612D01*
X107278424Y-108088848D01*
X107240559Y-108109088D01*
X107199477Y-108121550D01*
X107154296Y-108126000D01*
X106545704Y-108126000D01*
X106500523Y-108121550D01*
X106459441Y-108109088D01*
X106421576Y-108088848D01*
X106388388Y-108061612D01*
X106361152Y-108028424D01*
X106340912Y-107990559D01*
X106328450Y-107949477D01*
X106324000Y-107904296D01*
X106324000Y-107370704D01*
X106328450Y-107325523D01*
X106340912Y-107284441D01*
X106361152Y-107246576D01*
X106388388Y-107213388D01*
X106421576Y-107186152D01*
X106459441Y-107165912D01*
X106500523Y-107153450D01*
X106545704Y-107149000D01*
X107154296Y-107149000D01*
X107199477Y-107153450D01*
G37*
G36*
X105751824Y-107372080D02*
G01*
X105779545Y-107380490D01*
X105805089Y-107394144D01*
X105827480Y-107412520D01*
X105845856Y-107434911D01*
X105859510Y-107460455D01*
X105867920Y-107488176D01*
X105871000Y-107519453D01*
X105871000Y-107910547D01*
X105867920Y-107941824D01*
X105859510Y-107969545D01*
X105845856Y-107995089D01*
X105827480Y-108017480D01*
X105805089Y-108035856D01*
X105779545Y-108049510D01*
X105751824Y-108057920D01*
X105720547Y-108061000D01*
X105279453Y-108061000D01*
X105248176Y-108057920D01*
X105220455Y-108049510D01*
X105194911Y-108035856D01*
X105172520Y-108017480D01*
X105154144Y-107995089D01*
X105140490Y-107969545D01*
X105132080Y-107941824D01*
X105129000Y-107910547D01*
X105129000Y-107519453D01*
X105132080Y-107488176D01*
X105140490Y-107460455D01*
X105154144Y-107434911D01*
X105172520Y-107412520D01*
X105194911Y-107394144D01*
X105220455Y-107380490D01*
X105248176Y-107372080D01*
X105279453Y-107369000D01*
X105720547Y-107369000D01*
X105751824Y-107372080D01*
G37*
G36*
X107199477Y-105578450D02*
G01*
X107240559Y-105590912D01*
X107278424Y-105611152D01*
X107311612Y-105638388D01*
X107338848Y-105671576D01*
X107359088Y-105709441D01*
X107371550Y-105750523D01*
X107376000Y-105795704D01*
X107376000Y-106329296D01*
X107371550Y-106374477D01*
X107359088Y-106415559D01*
X107338848Y-106453424D01*
X107311612Y-106486612D01*
X107278424Y-106513848D01*
X107240559Y-106534088D01*
X107199477Y-106546550D01*
X107154296Y-106551000D01*
X106545704Y-106551000D01*
X106500523Y-106546550D01*
X106459441Y-106534088D01*
X106421576Y-106513848D01*
X106388388Y-106486612D01*
X106361152Y-106453424D01*
X106340912Y-106415559D01*
X106328450Y-106374477D01*
X106324000Y-106329296D01*
X106324000Y-105795704D01*
X106328450Y-105750523D01*
X106340912Y-105709441D01*
X106361152Y-105671576D01*
X106388388Y-105638388D01*
X106421576Y-105611152D01*
X106459441Y-105590912D01*
X106500523Y-105578450D01*
X106545704Y-105574000D01*
X107154296Y-105574000D01*
X107199477Y-105578450D01*
G37*
G36*
X97209860Y-104280380D02*
G01*
X96803060Y-104280380D01*
X96803060Y-102938860D01*
X97209860Y-102938860D01*
X97209860Y-104280380D01*
G37*
G36*
X102406700Y-104280380D02*
G01*
X101999900Y-104280380D01*
X101999900Y-102938860D01*
X102406700Y-102938860D01*
X102406700Y-104280380D01*
G37*
G36*
X103056940Y-104280380D02*
G01*
X102650140Y-104280380D01*
X102650140Y-102938860D01*
X103056940Y-102938860D01*
X103056940Y-104280380D01*
G37*
G36*
X101756460Y-104280380D02*
G01*
X101349660Y-104280380D01*
X101349660Y-102938860D01*
X101756460Y-102938860D01*
X101756460Y-104280380D01*
G37*
G36*
X101106220Y-104280380D02*
G01*
X100699420Y-104280380D01*
X100699420Y-102938860D01*
X101106220Y-102938860D01*
X101106220Y-104280380D01*
G37*
G36*
X103707180Y-104280380D02*
G01*
X103300380Y-104280380D01*
X103300380Y-102938860D01*
X103707180Y-102938860D01*
X103707180Y-104280380D01*
G37*
G36*
X99810820Y-104280380D02*
G01*
X99404020Y-104280380D01*
X99404020Y-102938860D01*
X99810820Y-102938860D01*
X99810820Y-104280380D01*
G37*
G36*
X98510340Y-104280380D02*
G01*
X98103540Y-104280380D01*
X98103540Y-102938860D01*
X98510340Y-102938860D01*
X98510340Y-104280380D01*
G37*
G36*
X97860100Y-104280380D02*
G01*
X97453300Y-104280380D01*
X97453300Y-102938860D01*
X97860100Y-102938860D01*
X97860100Y-104280380D01*
G37*
G36*
X99160580Y-104280380D02*
G01*
X98753780Y-104280380D01*
X98753780Y-102938860D01*
X99160580Y-102938860D01*
X99160580Y-104280380D01*
G37*
G36*
X96559620Y-104280380D02*
G01*
X96152820Y-104280380D01*
X96152820Y-102938860D01*
X96559620Y-102938860D01*
X96559620Y-104280380D01*
G37*
G36*
X95909380Y-104280380D02*
G01*
X95502580Y-104280380D01*
X95502580Y-102938860D01*
X95909380Y-102938860D01*
X95909380Y-104280380D01*
G37*
G36*
X104357420Y-104280380D02*
G01*
X103950620Y-104280380D01*
X103950620Y-102938860D01*
X104357420Y-102938860D01*
X104357420Y-104280380D01*
G37*
G36*
X100455980Y-104280380D02*
G01*
X100049180Y-104280380D01*
X100049180Y-102938860D01*
X100455980Y-102938860D01*
X100455980Y-104280380D01*
G37*
G36*
X106801824Y-103192080D02*
G01*
X106829545Y-103200490D01*
X106855089Y-103214144D01*
X106877480Y-103232520D01*
X106895856Y-103254911D01*
X106909510Y-103280455D01*
X106917920Y-103308176D01*
X106921000Y-103339453D01*
X106921000Y-103730547D01*
X106917920Y-103761824D01*
X106909510Y-103789545D01*
X106895856Y-103815089D01*
X106877480Y-103837480D01*
X106855089Y-103855856D01*
X106829545Y-103869510D01*
X106801824Y-103877920D01*
X106770547Y-103881000D01*
X106329453Y-103881000D01*
X106298176Y-103877920D01*
X106270455Y-103869510D01*
X106244911Y-103855856D01*
X106222520Y-103837480D01*
X106204144Y-103815089D01*
X106190490Y-103789545D01*
X106182080Y-103761824D01*
X106179000Y-103730547D01*
X106179000Y-103339453D01*
X106182080Y-103308176D01*
X106190490Y-103280455D01*
X106204144Y-103254911D01*
X106222520Y-103232520D01*
X106244911Y-103214144D01*
X106270455Y-103200490D01*
X106298176Y-103192080D01*
X106329453Y-103189000D01*
X106770547Y-103189000D01*
X106801824Y-103192080D01*
G37*
G36*
X105796824Y-103192080D02*
G01*
X105824545Y-103200490D01*
X105850089Y-103214144D01*
X105872480Y-103232520D01*
X105890856Y-103254911D01*
X105904510Y-103280455D01*
X105912920Y-103308176D01*
X105916000Y-103339453D01*
X105916000Y-103730547D01*
X105912920Y-103761824D01*
X105904510Y-103789545D01*
X105890856Y-103815089D01*
X105872480Y-103837480D01*
X105850089Y-103855856D01*
X105824545Y-103869510D01*
X105796824Y-103877920D01*
X105765547Y-103881000D01*
X105324453Y-103881000D01*
X105293176Y-103877920D01*
X105265455Y-103869510D01*
X105239911Y-103855856D01*
X105217520Y-103837480D01*
X105199144Y-103815089D01*
X105185490Y-103789545D01*
X105177080Y-103761824D01*
X105174000Y-103730547D01*
X105174000Y-103339453D01*
X105177080Y-103308176D01*
X105185490Y-103280455D01*
X105199144Y-103254911D01*
X105217520Y-103232520D01*
X105239911Y-103214144D01*
X105265455Y-103200490D01*
X105293176Y-103192080D01*
X105324453Y-103189000D01*
X105765547Y-103189000D01*
X105796824Y-103192080D01*
G37*
G36*
X106801824Y-102222080D02*
G01*
X106829545Y-102230490D01*
X106855089Y-102244144D01*
X106877480Y-102262520D01*
X106895856Y-102284911D01*
X106909510Y-102310455D01*
X106917920Y-102338176D01*
X106921000Y-102369453D01*
X106921000Y-102760547D01*
X106917920Y-102791824D01*
X106909510Y-102819545D01*
X106895856Y-102845089D01*
X106877480Y-102867480D01*
X106855089Y-102885856D01*
X106829545Y-102899510D01*
X106801824Y-102907920D01*
X106770547Y-102911000D01*
X106329453Y-102911000D01*
X106298176Y-102907920D01*
X106270455Y-102899510D01*
X106244911Y-102885856D01*
X106222520Y-102867480D01*
X106204144Y-102845089D01*
X106190490Y-102819545D01*
X106182080Y-102791824D01*
X106179000Y-102760547D01*
X106179000Y-102369453D01*
X106182080Y-102338176D01*
X106190490Y-102310455D01*
X106204144Y-102284911D01*
X106222520Y-102262520D01*
X106244911Y-102244144D01*
X106270455Y-102230490D01*
X106298176Y-102222080D01*
X106329453Y-102219000D01*
X106770547Y-102219000D01*
X106801824Y-102222080D01*
G37*
G36*
X105796824Y-102222080D02*
G01*
X105824545Y-102230490D01*
X105850089Y-102244144D01*
X105872480Y-102262520D01*
X105890856Y-102284911D01*
X105904510Y-102310455D01*
X105912920Y-102338176D01*
X105916000Y-102369453D01*
X105916000Y-102760547D01*
X105912920Y-102791824D01*
X105904510Y-102819545D01*
X105890856Y-102845089D01*
X105872480Y-102867480D01*
X105850089Y-102885856D01*
X105824545Y-102899510D01*
X105796824Y-102907920D01*
X105765547Y-102911000D01*
X105324453Y-102911000D01*
X105293176Y-102907920D01*
X105265455Y-102899510D01*
X105239911Y-102885856D01*
X105217520Y-102867480D01*
X105199144Y-102845089D01*
X105185490Y-102819545D01*
X105177080Y-102791824D01*
X105174000Y-102760547D01*
X105174000Y-102369453D01*
X105177080Y-102338176D01*
X105185490Y-102310455D01*
X105199144Y-102284911D01*
X105217520Y-102262520D01*
X105239911Y-102244144D01*
X105265455Y-102230490D01*
X105293176Y-102222080D01*
X105324453Y-102219000D01*
X105765547Y-102219000D01*
X105796824Y-102222080D01*
G37*
G36*
X91961824Y-101232080D02*
G01*
X91989545Y-101240490D01*
X92015089Y-101254144D01*
X92037480Y-101272520D01*
X92055856Y-101294911D01*
X92069510Y-101320455D01*
X92077920Y-101348176D01*
X92081000Y-101379453D01*
X92081000Y-101820547D01*
X92077920Y-101851824D01*
X92069510Y-101879545D01*
X92055856Y-101905089D01*
X92037480Y-101927480D01*
X92015089Y-101945856D01*
X91989545Y-101959510D01*
X91961824Y-101967920D01*
X91930547Y-101971000D01*
X91539453Y-101971000D01*
X91508176Y-101967920D01*
X91480455Y-101959510D01*
X91454911Y-101945856D01*
X91432520Y-101927480D01*
X91414144Y-101905089D01*
X91400490Y-101879545D01*
X91392080Y-101851824D01*
X91389000Y-101820547D01*
X91389000Y-101379453D01*
X91392080Y-101348176D01*
X91400490Y-101320455D01*
X91414144Y-101294911D01*
X91432520Y-101272520D01*
X91454911Y-101254144D01*
X91480455Y-101240490D01*
X91508176Y-101232080D01*
X91539453Y-101229000D01*
X91930547Y-101229000D01*
X91961824Y-101232080D01*
G37*
G36*
X90991824Y-101232080D02*
G01*
X91019545Y-101240490D01*
X91045089Y-101254144D01*
X91067480Y-101272520D01*
X91085856Y-101294911D01*
X91099510Y-101320455D01*
X91107920Y-101348176D01*
X91111000Y-101379453D01*
X91111000Y-101820547D01*
X91107920Y-101851824D01*
X91099510Y-101879545D01*
X91085856Y-101905089D01*
X91067480Y-101927480D01*
X91045089Y-101945856D01*
X91019545Y-101959510D01*
X90991824Y-101967920D01*
X90960547Y-101971000D01*
X90569453Y-101971000D01*
X90538176Y-101967920D01*
X90510455Y-101959510D01*
X90484911Y-101945856D01*
X90462520Y-101927480D01*
X90444144Y-101905089D01*
X90430490Y-101879545D01*
X90422080Y-101851824D01*
X90419000Y-101820547D01*
X90419000Y-101379453D01*
X90422080Y-101348176D01*
X90430490Y-101320455D01*
X90444144Y-101294911D01*
X90462520Y-101272520D01*
X90484911Y-101254144D01*
X90510455Y-101240490D01*
X90538176Y-101232080D01*
X90569453Y-101229000D01*
X90960547Y-101229000D01*
X90991824Y-101232080D01*
G37*
G36*
X96020180Y-100085687D02*
G01*
X96034301Y-100089971D01*
X96047312Y-100096925D01*
X96058715Y-100106285D01*
X96068075Y-100117688D01*
X96075029Y-100130699D01*
X96079313Y-100144820D01*
X96080242Y-100154255D01*
X96082154Y-100163868D01*
X96085904Y-100172924D01*
X96091350Y-100181073D01*
X96098280Y-100188004D01*
X96106430Y-100193450D01*
X96115485Y-100197201D01*
X96125098Y-100199113D01*
X96134900Y-100199113D01*
X96144513Y-100197201D01*
X96153569Y-100193451D01*
X96161718Y-100188005D01*
X96168649Y-100181075D01*
X96174095Y-100172925D01*
X96177846Y-100163870D01*
X96179758Y-100154255D01*
X96180687Y-100144820D01*
X96184971Y-100130699D01*
X96191925Y-100117688D01*
X96201285Y-100106285D01*
X96212688Y-100096925D01*
X96225699Y-100089971D01*
X96239820Y-100085687D01*
X96256953Y-100084000D01*
X96503047Y-100084000D01*
X96520180Y-100085687D01*
X96534301Y-100089971D01*
X96547312Y-100096925D01*
X96558715Y-100106285D01*
X96568075Y-100117688D01*
X96575029Y-100130699D01*
X96579313Y-100144820D01*
X96580242Y-100154255D01*
X96582154Y-100163868D01*
X96585904Y-100172924D01*
X96591350Y-100181073D01*
X96598280Y-100188004D01*
X96606430Y-100193450D01*
X96615485Y-100197201D01*
X96625098Y-100199113D01*
X96634900Y-100199113D01*
X96644513Y-100197201D01*
X96653569Y-100193451D01*
X96661718Y-100188005D01*
X96668649Y-100181075D01*
X96674095Y-100172925D01*
X96677846Y-100163870D01*
X96679758Y-100154255D01*
X96680687Y-100144820D01*
X96684971Y-100130699D01*
X96691925Y-100117688D01*
X96701285Y-100106285D01*
X96712688Y-100096925D01*
X96725699Y-100089971D01*
X96739820Y-100085687D01*
X96756953Y-100084000D01*
X97003047Y-100084000D01*
X97020180Y-100085687D01*
X97034301Y-100089971D01*
X97047312Y-100096925D01*
X97058715Y-100106285D01*
X97068075Y-100117688D01*
X97075029Y-100130699D01*
X97079313Y-100144820D01*
X97080242Y-100154255D01*
X97082154Y-100163868D01*
X97085904Y-100172924D01*
X97091350Y-100181073D01*
X97098280Y-100188004D01*
X97106430Y-100193450D01*
X97115485Y-100197201D01*
X97125098Y-100199113D01*
X97134900Y-100199113D01*
X97144513Y-100197201D01*
X97153569Y-100193451D01*
X97161718Y-100188005D01*
X97168649Y-100181075D01*
X97174095Y-100172925D01*
X97177846Y-100163870D01*
X97179758Y-100154255D01*
X97180687Y-100144820D01*
X97184971Y-100130699D01*
X97191925Y-100117688D01*
X97201285Y-100106285D01*
X97212688Y-100096925D01*
X97225699Y-100089971D01*
X97239820Y-100085687D01*
X97256953Y-100084000D01*
X97503047Y-100084000D01*
X97520180Y-100085687D01*
X97534301Y-100089971D01*
X97547312Y-100096925D01*
X97558715Y-100106285D01*
X97568075Y-100117688D01*
X97575029Y-100130699D01*
X97579313Y-100144820D01*
X97580242Y-100154255D01*
X97582154Y-100163868D01*
X97585904Y-100172924D01*
X97591350Y-100181073D01*
X97598280Y-100188004D01*
X97606430Y-100193450D01*
X97615485Y-100197201D01*
X97625098Y-100199113D01*
X97634900Y-100199113D01*
X97644513Y-100197201D01*
X97653569Y-100193451D01*
X97661718Y-100188005D01*
X97668649Y-100181075D01*
X97674095Y-100172925D01*
X97677846Y-100163870D01*
X97679758Y-100154255D01*
X97680687Y-100144820D01*
X97684971Y-100130699D01*
X97691925Y-100117688D01*
X97701285Y-100106285D01*
X97712688Y-100096925D01*
X97725699Y-100089971D01*
X97739820Y-100085687D01*
X97756953Y-100084000D01*
X98003047Y-100084000D01*
X98020180Y-100085687D01*
X98034301Y-100089971D01*
X98047312Y-100096925D01*
X98058715Y-100106285D01*
X98068075Y-100117688D01*
X98075029Y-100130699D01*
X98079313Y-100144820D01*
X98080242Y-100154255D01*
X98082154Y-100163868D01*
X98085904Y-100172924D01*
X98091350Y-100181073D01*
X98098280Y-100188004D01*
X98106430Y-100193450D01*
X98115485Y-100197201D01*
X98125098Y-100199113D01*
X98134900Y-100199113D01*
X98144513Y-100197201D01*
X98153569Y-100193451D01*
X98161718Y-100188005D01*
X98168649Y-100181075D01*
X98174095Y-100172925D01*
X98177846Y-100163870D01*
X98179758Y-100154255D01*
X98180687Y-100144820D01*
X98184971Y-100130699D01*
X98191925Y-100117688D01*
X98201285Y-100106285D01*
X98212688Y-100096925D01*
X98225699Y-100089971D01*
X98239820Y-100085687D01*
X98256953Y-100084000D01*
X98503047Y-100084000D01*
X98520180Y-100085687D01*
X98534301Y-100089971D01*
X98547312Y-100096925D01*
X98558715Y-100106285D01*
X98568075Y-100117688D01*
X98575029Y-100130699D01*
X98579313Y-100144820D01*
X98580242Y-100154255D01*
X98582154Y-100163868D01*
X98585904Y-100172924D01*
X98591350Y-100181073D01*
X98598280Y-100188004D01*
X98606430Y-100193450D01*
X98615485Y-100197201D01*
X98625098Y-100199113D01*
X98634900Y-100199113D01*
X98644513Y-100197201D01*
X98653569Y-100193451D01*
X98661718Y-100188005D01*
X98668649Y-100181075D01*
X98674095Y-100172925D01*
X98677846Y-100163870D01*
X98679758Y-100154255D01*
X98680687Y-100144820D01*
X98684971Y-100130699D01*
X98691925Y-100117688D01*
X98701285Y-100106285D01*
X98712688Y-100096925D01*
X98725699Y-100089971D01*
X98739820Y-100085687D01*
X98756953Y-100084000D01*
X99003047Y-100084000D01*
X99020180Y-100085687D01*
X99034301Y-100089971D01*
X99047312Y-100096925D01*
X99058715Y-100106285D01*
X99068075Y-100117688D01*
X99075029Y-100130699D01*
X99079313Y-100144820D01*
X99080242Y-100154255D01*
X99082154Y-100163868D01*
X99085904Y-100172924D01*
X99091350Y-100181073D01*
X99098280Y-100188004D01*
X99106430Y-100193450D01*
X99115485Y-100197201D01*
X99125098Y-100199113D01*
X99134900Y-100199113D01*
X99144513Y-100197201D01*
X99153569Y-100193451D01*
X99161718Y-100188005D01*
X99168649Y-100181075D01*
X99174095Y-100172925D01*
X99177846Y-100163870D01*
X99179758Y-100154255D01*
X99180687Y-100144820D01*
X99184971Y-100130699D01*
X99191925Y-100117688D01*
X99201285Y-100106285D01*
X99212688Y-100096925D01*
X99225699Y-100089971D01*
X99239820Y-100085687D01*
X99256953Y-100084000D01*
X99503047Y-100084000D01*
X99520180Y-100085687D01*
X99534301Y-100089971D01*
X99547312Y-100096925D01*
X99558715Y-100106285D01*
X99568075Y-100117688D01*
X99575029Y-100130699D01*
X99579313Y-100144820D01*
X99580242Y-100154255D01*
X99582154Y-100163868D01*
X99585904Y-100172924D01*
X99591350Y-100181073D01*
X99598280Y-100188004D01*
X99606430Y-100193450D01*
X99615485Y-100197201D01*
X99625098Y-100199113D01*
X99634900Y-100199113D01*
X99644513Y-100197201D01*
X99653569Y-100193451D01*
X99661718Y-100188005D01*
X99668649Y-100181075D01*
X99674095Y-100172925D01*
X99677846Y-100163870D01*
X99679758Y-100154255D01*
X99680687Y-100144820D01*
X99684971Y-100130699D01*
X99691925Y-100117688D01*
X99701285Y-100106285D01*
X99712688Y-100096925D01*
X99725699Y-100089971D01*
X99739820Y-100085687D01*
X99756953Y-100084000D01*
X100003047Y-100084000D01*
X100020180Y-100085687D01*
X100034301Y-100089971D01*
X100047312Y-100096925D01*
X100058715Y-100106285D01*
X100068075Y-100117688D01*
X100075029Y-100130699D01*
X100079313Y-100144820D01*
X100080242Y-100154255D01*
X100082154Y-100163868D01*
X100085904Y-100172924D01*
X100091350Y-100181073D01*
X100098280Y-100188004D01*
X100106430Y-100193450D01*
X100115485Y-100197201D01*
X100125098Y-100199113D01*
X100134900Y-100199113D01*
X100144513Y-100197201D01*
X100153569Y-100193451D01*
X100161718Y-100188005D01*
X100168649Y-100181075D01*
X100174095Y-100172925D01*
X100177846Y-100163870D01*
X100179758Y-100154255D01*
X100180687Y-100144820D01*
X100184971Y-100130699D01*
X100191925Y-100117688D01*
X100201285Y-100106285D01*
X100212688Y-100096925D01*
X100225699Y-100089971D01*
X100239820Y-100085687D01*
X100256953Y-100084000D01*
X100503047Y-100084000D01*
X100520180Y-100085687D01*
X100534301Y-100089971D01*
X100547312Y-100096925D01*
X100558715Y-100106285D01*
X100568075Y-100117688D01*
X100575029Y-100130699D01*
X100579313Y-100144820D01*
X100580242Y-100154255D01*
X100582154Y-100163868D01*
X100585904Y-100172924D01*
X100591350Y-100181073D01*
X100598280Y-100188004D01*
X100606430Y-100193450D01*
X100615485Y-100197201D01*
X100625098Y-100199113D01*
X100634900Y-100199113D01*
X100644513Y-100197201D01*
X100653569Y-100193451D01*
X100661718Y-100188005D01*
X100668649Y-100181075D01*
X100674095Y-100172925D01*
X100677846Y-100163870D01*
X100679758Y-100154255D01*
X100680687Y-100144820D01*
X100684971Y-100130699D01*
X100691925Y-100117688D01*
X100701285Y-100106285D01*
X100712688Y-100096925D01*
X100725699Y-100089971D01*
X100739820Y-100085687D01*
X100756953Y-100084000D01*
X101003047Y-100084000D01*
X101020180Y-100085687D01*
X101034301Y-100089971D01*
X101047312Y-100096925D01*
X101058715Y-100106285D01*
X101068075Y-100117688D01*
X101075029Y-100130699D01*
X101079313Y-100144820D01*
X101080242Y-100154255D01*
X101082154Y-100163868D01*
X101085904Y-100172924D01*
X101091350Y-100181073D01*
X101098280Y-100188004D01*
X101106430Y-100193450D01*
X101115485Y-100197201D01*
X101125098Y-100199113D01*
X101134900Y-100199113D01*
X101144513Y-100197201D01*
X101153569Y-100193451D01*
X101161718Y-100188005D01*
X101168649Y-100181075D01*
X101174095Y-100172925D01*
X101177846Y-100163870D01*
X101179758Y-100154255D01*
X101180687Y-100144820D01*
X101184971Y-100130699D01*
X101191925Y-100117688D01*
X101201285Y-100106285D01*
X101212688Y-100096925D01*
X101225699Y-100089971D01*
X101239820Y-100085687D01*
X101256953Y-100084000D01*
X101503047Y-100084000D01*
X101520180Y-100085687D01*
X101534301Y-100089971D01*
X101547312Y-100096925D01*
X101558715Y-100106285D01*
X101568075Y-100117688D01*
X101575029Y-100130699D01*
X101579313Y-100144820D01*
X101581000Y-100161953D01*
X101581000Y-101583047D01*
X101579313Y-101600180D01*
X101575029Y-101614301D01*
X101568075Y-101627312D01*
X101558715Y-101638715D01*
X101547312Y-101648075D01*
X101534301Y-101655029D01*
X101520180Y-101659313D01*
X101503047Y-101661000D01*
X101256953Y-101661000D01*
X101239820Y-101659313D01*
X101225699Y-101655029D01*
X101212688Y-101648075D01*
X101201285Y-101638715D01*
X101191925Y-101627312D01*
X101184971Y-101614301D01*
X101180687Y-101600180D01*
X101179758Y-101590745D01*
X101177846Y-101581132D01*
X101174096Y-101572076D01*
X101168650Y-101563927D01*
X101161720Y-101556996D01*
X101153570Y-101551550D01*
X101144515Y-101547799D01*
X101134902Y-101545887D01*
X101125100Y-101545887D01*
X101115487Y-101547799D01*
X101106431Y-101551549D01*
X101098282Y-101556995D01*
X101091351Y-101563925D01*
X101085905Y-101572075D01*
X101082154Y-101581130D01*
X101080242Y-101590745D01*
X101079313Y-101600180D01*
X101075029Y-101614301D01*
X101068075Y-101627312D01*
X101058715Y-101638715D01*
X101047312Y-101648075D01*
X101034301Y-101655029D01*
X101020180Y-101659313D01*
X101003047Y-101661000D01*
X100756953Y-101661000D01*
X100739820Y-101659313D01*
X100725699Y-101655029D01*
X100712688Y-101648075D01*
X100701285Y-101638715D01*
X100691925Y-101627312D01*
X100684971Y-101614301D01*
X100680687Y-101600180D01*
X100679758Y-101590745D01*
X100677846Y-101581132D01*
X100674096Y-101572076D01*
X100668650Y-101563927D01*
X100661720Y-101556996D01*
X100653570Y-101551550D01*
X100644515Y-101547799D01*
X100634902Y-101545887D01*
X100625100Y-101545887D01*
X100615487Y-101547799D01*
X100606431Y-101551549D01*
X100598282Y-101556995D01*
X100591351Y-101563925D01*
X100585905Y-101572075D01*
X100582154Y-101581130D01*
X100580242Y-101590745D01*
X100579313Y-101600180D01*
X100575029Y-101614301D01*
X100568075Y-101627312D01*
X100558715Y-101638715D01*
X100547312Y-101648075D01*
X100534301Y-101655029D01*
X100520180Y-101659313D01*
X100503047Y-101661000D01*
X100256953Y-101661000D01*
X100239820Y-101659313D01*
X100225699Y-101655029D01*
X100212688Y-101648075D01*
X100201285Y-101638715D01*
X100191925Y-101627312D01*
X100184971Y-101614301D01*
X100180687Y-101600180D01*
X100179758Y-101590745D01*
X100177846Y-101581132D01*
X100174096Y-101572076D01*
X100168650Y-101563927D01*
X100161720Y-101556996D01*
X100153570Y-101551550D01*
X100144515Y-101547799D01*
X100134902Y-101545887D01*
X100125100Y-101545887D01*
X100115487Y-101547799D01*
X100106431Y-101551549D01*
X100098282Y-101556995D01*
X100091351Y-101563925D01*
X100085905Y-101572075D01*
X100082154Y-101581130D01*
X100080242Y-101590745D01*
X100079313Y-101600180D01*
X100075029Y-101614301D01*
X100068075Y-101627312D01*
X100058715Y-101638715D01*
X100047312Y-101648075D01*
X100034301Y-101655029D01*
X100020180Y-101659313D01*
X100003047Y-101661000D01*
X99756953Y-101661000D01*
X99739820Y-101659313D01*
X99725699Y-101655029D01*
X99712688Y-101648075D01*
X99701285Y-101638715D01*
X99691925Y-101627312D01*
X99684971Y-101614301D01*
X99680687Y-101600180D01*
X99679758Y-101590745D01*
X99677846Y-101581132D01*
X99674096Y-101572076D01*
X99668650Y-101563927D01*
X99661720Y-101556996D01*
X99653570Y-101551550D01*
X99644515Y-101547799D01*
X99634902Y-101545887D01*
X99625100Y-101545887D01*
X99615487Y-101547799D01*
X99606431Y-101551549D01*
X99598282Y-101556995D01*
X99591351Y-101563925D01*
X99585905Y-101572075D01*
X99582154Y-101581130D01*
X99580242Y-101590745D01*
X99579313Y-101600180D01*
X99575029Y-101614301D01*
X99568075Y-101627312D01*
X99558715Y-101638715D01*
X99547312Y-101648075D01*
X99534301Y-101655029D01*
X99520180Y-101659313D01*
X99503047Y-101661000D01*
X99256953Y-101661000D01*
X99239820Y-101659313D01*
X99225699Y-101655029D01*
X99212688Y-101648075D01*
X99201285Y-101638715D01*
X99191925Y-101627312D01*
X99184971Y-101614301D01*
X99180687Y-101600180D01*
X99179758Y-101590745D01*
X99177846Y-101581132D01*
X99174096Y-101572076D01*
X99168650Y-101563927D01*
X99161720Y-101556996D01*
X99153570Y-101551550D01*
X99144515Y-101547799D01*
X99134902Y-101545887D01*
X99125100Y-101545887D01*
X99115487Y-101547799D01*
X99106431Y-101551549D01*
X99098282Y-101556995D01*
X99091351Y-101563925D01*
X99085905Y-101572075D01*
X99082154Y-101581130D01*
X99080242Y-101590745D01*
X99079313Y-101600180D01*
X99075029Y-101614301D01*
X99068075Y-101627312D01*
X99058715Y-101638715D01*
X99047312Y-101648075D01*
X99034301Y-101655029D01*
X99020180Y-101659313D01*
X99003047Y-101661000D01*
X98756953Y-101661000D01*
X98739820Y-101659313D01*
X98725699Y-101655029D01*
X98712688Y-101648075D01*
X98701285Y-101638715D01*
X98691925Y-101627312D01*
X98684971Y-101614301D01*
X98680687Y-101600180D01*
X98679758Y-101590745D01*
X98677846Y-101581132D01*
X98674096Y-101572076D01*
X98668650Y-101563927D01*
X98661720Y-101556996D01*
X98653570Y-101551550D01*
X98644515Y-101547799D01*
X98634902Y-101545887D01*
X98625100Y-101545887D01*
X98615487Y-101547799D01*
X98606431Y-101551549D01*
X98598282Y-101556995D01*
X98591351Y-101563925D01*
X98585905Y-101572075D01*
X98582154Y-101581130D01*
X98580242Y-101590745D01*
X98579313Y-101600180D01*
X98575029Y-101614301D01*
X98568075Y-101627312D01*
X98558715Y-101638715D01*
X98547312Y-101648075D01*
X98534301Y-101655029D01*
X98520180Y-101659313D01*
X98503047Y-101661000D01*
X98256953Y-101661000D01*
X98239820Y-101659313D01*
X98225699Y-101655029D01*
X98212688Y-101648075D01*
X98201285Y-101638715D01*
X98191925Y-101627312D01*
X98184971Y-101614301D01*
X98180687Y-101600180D01*
X98179758Y-101590745D01*
X98177846Y-101581132D01*
X98174096Y-101572076D01*
X98168650Y-101563927D01*
X98161720Y-101556996D01*
X98153570Y-101551550D01*
X98144515Y-101547799D01*
X98134902Y-101545887D01*
X98125100Y-101545887D01*
X98115487Y-101547799D01*
X98106431Y-101551549D01*
X98098282Y-101556995D01*
X98091351Y-101563925D01*
X98085905Y-101572075D01*
X98082154Y-101581130D01*
X98080242Y-101590745D01*
X98079313Y-101600180D01*
X98075029Y-101614301D01*
X98068075Y-101627312D01*
X98058715Y-101638715D01*
X98047312Y-101648075D01*
X98034301Y-101655029D01*
X98020180Y-101659313D01*
X98003047Y-101661000D01*
X97756953Y-101661000D01*
X97739820Y-101659313D01*
X97725699Y-101655029D01*
X97712688Y-101648075D01*
X97701285Y-101638715D01*
X97691925Y-101627312D01*
X97684971Y-101614301D01*
X97680687Y-101600180D01*
X97679758Y-101590745D01*
X97677846Y-101581132D01*
X97674096Y-101572076D01*
X97668650Y-101563927D01*
X97661720Y-101556996D01*
X97653570Y-101551550D01*
X97644515Y-101547799D01*
X97634902Y-101545887D01*
X97625100Y-101545887D01*
X97615487Y-101547799D01*
X97606431Y-101551549D01*
X97598282Y-101556995D01*
X97591351Y-101563925D01*
X97585905Y-101572075D01*
X97582154Y-101581130D01*
X97580242Y-101590745D01*
X97579313Y-101600180D01*
X97575029Y-101614301D01*
X97568075Y-101627312D01*
X97558715Y-101638715D01*
X97547312Y-101648075D01*
X97534301Y-101655029D01*
X97520180Y-101659313D01*
X97503047Y-101661000D01*
X97256953Y-101661000D01*
X97239820Y-101659313D01*
X97225699Y-101655029D01*
X97212688Y-101648075D01*
X97201285Y-101638715D01*
X97191925Y-101627312D01*
X97184971Y-101614301D01*
X97180687Y-101600180D01*
X97179758Y-101590745D01*
X97177846Y-101581132D01*
X97174096Y-101572076D01*
X97168650Y-101563927D01*
X97161720Y-101556996D01*
X97153570Y-101551550D01*
X97144515Y-101547799D01*
X97134902Y-101545887D01*
X97125100Y-101545887D01*
X97115487Y-101547799D01*
X97106431Y-101551549D01*
X97098282Y-101556995D01*
X97091351Y-101563925D01*
X97085905Y-101572075D01*
X97082154Y-101581130D01*
X97080242Y-101590745D01*
X97079313Y-101600180D01*
X97075029Y-101614301D01*
X97068075Y-101627312D01*
X97058715Y-101638715D01*
X97047312Y-101648075D01*
X97034301Y-101655029D01*
X97020180Y-101659313D01*
X97003047Y-101661000D01*
X96756953Y-101661000D01*
X96739820Y-101659313D01*
X96725699Y-101655029D01*
X96712688Y-101648075D01*
X96701285Y-101638715D01*
X96691925Y-101627312D01*
X96684971Y-101614301D01*
X96680687Y-101600180D01*
X96679758Y-101590745D01*
X96677846Y-101581132D01*
X96674096Y-101572076D01*
X96668650Y-101563927D01*
X96661720Y-101556996D01*
X96653570Y-101551550D01*
X96644515Y-101547799D01*
X96634902Y-101545887D01*
X96625100Y-101545887D01*
X96615487Y-101547799D01*
X96606431Y-101551549D01*
X96598282Y-101556995D01*
X96591351Y-101563925D01*
X96585905Y-101572075D01*
X96582154Y-101581130D01*
X96580242Y-101590745D01*
X96579313Y-101600180D01*
X96575029Y-101614301D01*
X96568075Y-101627312D01*
X96558715Y-101638715D01*
X96547312Y-101648075D01*
X96534301Y-101655029D01*
X96520180Y-101659313D01*
X96503047Y-101661000D01*
X96256953Y-101661000D01*
X96239820Y-101659313D01*
X96225699Y-101655029D01*
X96212688Y-101648075D01*
X96201285Y-101638715D01*
X96191925Y-101627312D01*
X96184971Y-101614301D01*
X96180687Y-101600180D01*
X96179758Y-101590745D01*
X96177846Y-101581132D01*
X96174096Y-101572076D01*
X96168650Y-101563927D01*
X96161720Y-101556996D01*
X96153570Y-101551550D01*
X96144515Y-101547799D01*
X96134902Y-101545887D01*
X96125100Y-101545887D01*
X96115487Y-101547799D01*
X96106431Y-101551549D01*
X96098282Y-101556995D01*
X96091351Y-101563925D01*
X96085905Y-101572075D01*
X96082154Y-101581130D01*
X96080242Y-101590745D01*
X96079313Y-101600180D01*
X96075029Y-101614301D01*
X96068075Y-101627312D01*
X96058715Y-101638715D01*
X96047312Y-101648075D01*
X96034301Y-101655029D01*
X96020180Y-101659313D01*
X96003047Y-101661000D01*
X95756953Y-101661000D01*
X95739820Y-101659313D01*
X95725699Y-101655029D01*
X95712688Y-101648075D01*
X95701285Y-101638715D01*
X95691925Y-101627312D01*
X95684971Y-101614301D01*
X95680687Y-101600180D01*
X95679000Y-101583047D01*
X95679000Y-100161953D01*
X95680687Y-100144820D01*
X95684971Y-100130699D01*
X95691925Y-100117688D01*
X95701285Y-100106285D01*
X95712688Y-100096925D01*
X95725699Y-100089971D01*
X95739820Y-100085687D01*
X95756953Y-100084000D01*
X96003047Y-100084000D01*
X96020180Y-100085687D01*
G37*
G36*
X103711824Y-100832080D02*
G01*
X103739545Y-100840490D01*
X103765089Y-100854144D01*
X103787480Y-100872520D01*
X103805856Y-100894911D01*
X103819510Y-100920455D01*
X103827920Y-100948176D01*
X103831000Y-100979453D01*
X103831000Y-101420547D01*
X103827920Y-101451824D01*
X103819510Y-101479545D01*
X103805856Y-101505089D01*
X103787480Y-101527480D01*
X103765089Y-101545856D01*
X103739545Y-101559510D01*
X103711824Y-101567920D01*
X103680547Y-101571000D01*
X103289453Y-101571000D01*
X103258176Y-101567920D01*
X103230455Y-101559510D01*
X103204911Y-101545856D01*
X103182520Y-101527480D01*
X103164144Y-101505089D01*
X103150490Y-101479545D01*
X103142080Y-101451824D01*
X103139000Y-101420547D01*
X103139000Y-100979453D01*
X103142080Y-100948176D01*
X103150490Y-100920455D01*
X103164144Y-100894911D01*
X103182520Y-100872520D01*
X103204911Y-100854144D01*
X103230455Y-100840490D01*
X103258176Y-100832080D01*
X103289453Y-100829000D01*
X103680547Y-100829000D01*
X103711824Y-100832080D01*
G37*
G36*
X102741824Y-100832080D02*
G01*
X102769545Y-100840490D01*
X102795089Y-100854144D01*
X102817480Y-100872520D01*
X102835856Y-100894911D01*
X102849510Y-100920455D01*
X102857920Y-100948176D01*
X102861000Y-100979453D01*
X102861000Y-101420547D01*
X102857920Y-101451824D01*
X102849510Y-101479545D01*
X102835856Y-101505089D01*
X102817480Y-101527480D01*
X102795089Y-101545856D01*
X102769545Y-101559510D01*
X102741824Y-101567920D01*
X102710547Y-101571000D01*
X102319453Y-101571000D01*
X102288176Y-101567920D01*
X102260455Y-101559510D01*
X102234911Y-101545856D01*
X102212520Y-101527480D01*
X102194144Y-101505089D01*
X102180490Y-101479545D01*
X102172080Y-101451824D01*
X102169000Y-101420547D01*
X102169000Y-100979453D01*
X102172080Y-100948176D01*
X102180490Y-100920455D01*
X102194144Y-100894911D01*
X102212520Y-100872520D01*
X102234911Y-100854144D01*
X102260455Y-100840490D01*
X102288176Y-100832080D01*
X102319453Y-100829000D01*
X102710547Y-100829000D01*
X102741824Y-100832080D01*
G37*
G36*
X110567888Y-99596952D02*
G01*
X110720274Y-99627263D01*
X110884246Y-99695183D01*
X111031816Y-99793786D01*
X111157315Y-99919285D01*
X111255918Y-100066855D01*
X111323838Y-100230827D01*
X111358462Y-100404898D01*
X111358462Y-100582380D01*
X111323838Y-100756451D01*
X111255918Y-100920423D01*
X111157315Y-101067993D01*
X111031816Y-101193492D01*
X110884246Y-101292095D01*
X110720274Y-101360015D01*
X110567888Y-101390326D01*
X110546204Y-101394639D01*
X110368720Y-101394639D01*
X110347036Y-101390326D01*
X110194650Y-101360015D01*
X110030678Y-101292095D01*
X109883108Y-101193492D01*
X109757609Y-101067993D01*
X109659006Y-100920423D01*
X109591086Y-100756451D01*
X109556462Y-100582380D01*
X109556462Y-100404898D01*
X109591086Y-100230827D01*
X109659006Y-100066855D01*
X109757609Y-99919285D01*
X109883108Y-99793786D01*
X110030678Y-99695183D01*
X110194650Y-99627263D01*
X110347036Y-99596952D01*
X110368720Y-99592639D01*
X110546204Y-99592639D01*
X110567888Y-99596952D01*
G37*
G36*
X91961824Y-100132080D02*
G01*
X91989545Y-100140490D01*
X92015089Y-100154144D01*
X92037480Y-100172520D01*
X92055856Y-100194911D01*
X92069510Y-100220455D01*
X92077920Y-100248176D01*
X92081000Y-100279453D01*
X92081000Y-100720547D01*
X92077920Y-100751824D01*
X92069510Y-100779545D01*
X92055856Y-100805089D01*
X92037480Y-100827480D01*
X92015089Y-100845856D01*
X91989545Y-100859510D01*
X91961824Y-100867920D01*
X91930547Y-100871000D01*
X91539453Y-100871000D01*
X91508176Y-100867920D01*
X91480455Y-100859510D01*
X91454911Y-100845856D01*
X91432520Y-100827480D01*
X91414144Y-100805089D01*
X91400490Y-100779545D01*
X91392080Y-100751824D01*
X91389000Y-100720547D01*
X91389000Y-100279453D01*
X91392080Y-100248176D01*
X91400490Y-100220455D01*
X91414144Y-100194911D01*
X91432520Y-100172520D01*
X91454911Y-100154144D01*
X91480455Y-100140490D01*
X91508176Y-100132080D01*
X91539453Y-100129000D01*
X91930547Y-100129000D01*
X91961824Y-100132080D01*
G37*
G36*
X90991824Y-100132080D02*
G01*
X91019545Y-100140490D01*
X91045089Y-100154144D01*
X91067480Y-100172520D01*
X91085856Y-100194911D01*
X91099510Y-100220455D01*
X91107920Y-100248176D01*
X91111000Y-100279453D01*
X91111000Y-100720547D01*
X91107920Y-100751824D01*
X91099510Y-100779545D01*
X91085856Y-100805089D01*
X91067480Y-100827480D01*
X91045089Y-100845856D01*
X91019545Y-100859510D01*
X90991824Y-100867920D01*
X90960547Y-100871000D01*
X90569453Y-100871000D01*
X90538176Y-100867920D01*
X90510455Y-100859510D01*
X90484911Y-100845856D01*
X90462520Y-100827480D01*
X90444144Y-100805089D01*
X90430490Y-100779545D01*
X90422080Y-100751824D01*
X90419000Y-100720547D01*
X90419000Y-100279453D01*
X90422080Y-100248176D01*
X90430490Y-100220455D01*
X90444144Y-100194911D01*
X90462520Y-100172520D01*
X90484911Y-100154144D01*
X90510455Y-100140490D01*
X90538176Y-100132080D01*
X90569453Y-100129000D01*
X90960547Y-100129000D01*
X90991824Y-100132080D01*
G37*
G36*
X90991824Y-99032080D02*
G01*
X91019545Y-99040490D01*
X91045089Y-99054144D01*
X91067480Y-99072520D01*
X91085856Y-99094911D01*
X91099510Y-99120455D01*
X91107920Y-99148176D01*
X91111000Y-99179453D01*
X91111000Y-99620547D01*
X91107920Y-99651824D01*
X91099510Y-99679545D01*
X91085856Y-99705089D01*
X91067480Y-99727480D01*
X91045089Y-99745856D01*
X91019545Y-99759510D01*
X90991824Y-99767920D01*
X90960547Y-99771000D01*
X90569453Y-99771000D01*
X90538176Y-99767920D01*
X90510455Y-99759510D01*
X90484911Y-99745856D01*
X90462520Y-99727480D01*
X90444144Y-99705089D01*
X90430490Y-99679545D01*
X90422080Y-99651824D01*
X90419000Y-99620547D01*
X90419000Y-99179453D01*
X90422080Y-99148176D01*
X90430490Y-99120455D01*
X90444144Y-99094911D01*
X90462520Y-99072520D01*
X90484911Y-99054144D01*
X90510455Y-99040490D01*
X90538176Y-99032080D01*
X90569453Y-99029000D01*
X90960547Y-99029000D01*
X90991824Y-99032080D01*
G37*
G36*
X91961824Y-99032080D02*
G01*
X91989545Y-99040490D01*
X92015089Y-99054144D01*
X92037480Y-99072520D01*
X92055856Y-99094911D01*
X92069510Y-99120455D01*
X92077920Y-99148176D01*
X92081000Y-99179453D01*
X92081000Y-99620547D01*
X92077920Y-99651824D01*
X92069510Y-99679545D01*
X92055856Y-99705089D01*
X92037480Y-99727480D01*
X92015089Y-99745856D01*
X91989545Y-99759510D01*
X91961824Y-99767920D01*
X91930547Y-99771000D01*
X91539453Y-99771000D01*
X91508176Y-99767920D01*
X91480455Y-99759510D01*
X91454911Y-99745856D01*
X91432520Y-99727480D01*
X91414144Y-99705089D01*
X91400490Y-99679545D01*
X91392080Y-99651824D01*
X91389000Y-99620547D01*
X91389000Y-99179453D01*
X91392080Y-99148176D01*
X91400490Y-99120455D01*
X91414144Y-99094911D01*
X91432520Y-99072520D01*
X91454911Y-99054144D01*
X91480455Y-99040490D01*
X91508176Y-99032080D01*
X91539453Y-99029000D01*
X91930547Y-99029000D01*
X91961824Y-99032080D01*
G37*
G36*
X95195180Y-93760687D02*
G01*
X95209301Y-93764971D01*
X95222312Y-93771925D01*
X95233715Y-93781285D01*
X95243075Y-93792688D01*
X95250029Y-93805699D01*
X95254313Y-93819820D01*
X95256000Y-93836953D01*
X95256000Y-94083047D01*
X95254313Y-94100180D01*
X95250029Y-94114301D01*
X95243075Y-94127312D01*
X95233715Y-94138715D01*
X95222312Y-94148075D01*
X95209301Y-94155029D01*
X95195180Y-94159313D01*
X95185745Y-94160242D01*
X95176132Y-94162154D01*
X95167076Y-94165904D01*
X95158927Y-94171350D01*
X95151996Y-94178280D01*
X95146550Y-94186430D01*
X95142799Y-94195485D01*
X95140887Y-94205098D01*
X95140887Y-94214900D01*
X95142799Y-94224513D01*
X95146549Y-94233569D01*
X95151995Y-94241718D01*
X95158925Y-94248649D01*
X95167075Y-94254095D01*
X95176130Y-94257846D01*
X95185745Y-94259758D01*
X95195180Y-94260687D01*
X95209301Y-94264971D01*
X95222312Y-94271925D01*
X95233715Y-94281285D01*
X95243075Y-94292688D01*
X95250029Y-94305699D01*
X95254313Y-94319820D01*
X95256000Y-94336953D01*
X95256000Y-94583047D01*
X95254313Y-94600180D01*
X95250029Y-94614301D01*
X95243075Y-94627312D01*
X95233715Y-94638715D01*
X95222312Y-94648075D01*
X95209301Y-94655029D01*
X95195180Y-94659313D01*
X95185745Y-94660242D01*
X95176132Y-94662154D01*
X95167076Y-94665904D01*
X95158927Y-94671350D01*
X95151996Y-94678280D01*
X95146550Y-94686430D01*
X95142799Y-94695485D01*
X95140887Y-94705098D01*
X95140887Y-94714900D01*
X95142799Y-94724513D01*
X95146549Y-94733569D01*
X95151995Y-94741718D01*
X95158925Y-94748649D01*
X95167075Y-94754095D01*
X95176130Y-94757846D01*
X95185745Y-94759758D01*
X95195180Y-94760687D01*
X95209301Y-94764971D01*
X95222312Y-94771925D01*
X95233715Y-94781285D01*
X95243075Y-94792688D01*
X95250029Y-94805699D01*
X95254313Y-94819820D01*
X95256000Y-94836953D01*
X95256000Y-95083047D01*
X95254313Y-95100180D01*
X95250029Y-95114301D01*
X95243075Y-95127312D01*
X95233715Y-95138715D01*
X95222312Y-95148075D01*
X95209301Y-95155029D01*
X95195180Y-95159313D01*
X95185745Y-95160242D01*
X95176132Y-95162154D01*
X95167076Y-95165904D01*
X95158927Y-95171350D01*
X95151996Y-95178280D01*
X95146550Y-95186430D01*
X95142799Y-95195485D01*
X95140887Y-95205098D01*
X95140887Y-95214900D01*
X95142799Y-95224513D01*
X95146549Y-95233569D01*
X95151995Y-95241718D01*
X95158925Y-95248649D01*
X95167075Y-95254095D01*
X95176130Y-95257846D01*
X95185745Y-95259758D01*
X95195180Y-95260687D01*
X95209301Y-95264971D01*
X95222312Y-95271925D01*
X95233715Y-95281285D01*
X95243075Y-95292688D01*
X95250029Y-95305699D01*
X95254313Y-95319820D01*
X95256000Y-95336953D01*
X95256000Y-95583047D01*
X95254313Y-95600180D01*
X95250029Y-95614301D01*
X95243075Y-95627312D01*
X95233715Y-95638715D01*
X95222312Y-95648075D01*
X95209301Y-95655029D01*
X95195180Y-95659313D01*
X95185745Y-95660242D01*
X95176132Y-95662154D01*
X95167076Y-95665904D01*
X95158927Y-95671350D01*
X95151996Y-95678280D01*
X95146550Y-95686430D01*
X95142799Y-95695485D01*
X95140887Y-95705098D01*
X95140887Y-95714900D01*
X95142799Y-95724513D01*
X95146549Y-95733569D01*
X95151995Y-95741718D01*
X95158925Y-95748649D01*
X95167075Y-95754095D01*
X95176130Y-95757846D01*
X95185745Y-95759758D01*
X95195180Y-95760687D01*
X95209301Y-95764971D01*
X95222312Y-95771925D01*
X95233715Y-95781285D01*
X95243075Y-95792688D01*
X95250029Y-95805699D01*
X95254313Y-95819820D01*
X95256000Y-95836953D01*
X95256000Y-96083047D01*
X95254313Y-96100180D01*
X95250029Y-96114301D01*
X95243075Y-96127312D01*
X95233715Y-96138715D01*
X95222312Y-96148075D01*
X95209301Y-96155029D01*
X95195180Y-96159313D01*
X95185745Y-96160242D01*
X95176132Y-96162154D01*
X95167076Y-96165904D01*
X95158927Y-96171350D01*
X95151996Y-96178280D01*
X95146550Y-96186430D01*
X95142799Y-96195485D01*
X95140887Y-96205098D01*
X95140887Y-96214900D01*
X95142799Y-96224513D01*
X95146549Y-96233569D01*
X95151995Y-96241718D01*
X95158925Y-96248649D01*
X95167075Y-96254095D01*
X95176130Y-96257846D01*
X95185745Y-96259758D01*
X95195180Y-96260687D01*
X95209301Y-96264971D01*
X95222312Y-96271925D01*
X95233715Y-96281285D01*
X95243075Y-96292688D01*
X95250029Y-96305699D01*
X95254313Y-96319820D01*
X95256000Y-96336953D01*
X95256000Y-96583047D01*
X95254313Y-96600180D01*
X95250029Y-96614301D01*
X95243075Y-96627312D01*
X95233715Y-96638715D01*
X95222312Y-96648075D01*
X95209301Y-96655029D01*
X95195180Y-96659313D01*
X95185745Y-96660242D01*
X95176132Y-96662154D01*
X95167076Y-96665904D01*
X95158927Y-96671350D01*
X95151996Y-96678280D01*
X95146550Y-96686430D01*
X95142799Y-96695485D01*
X95140887Y-96705098D01*
X95140887Y-96714900D01*
X95142799Y-96724513D01*
X95146549Y-96733569D01*
X95151995Y-96741718D01*
X95158925Y-96748649D01*
X95167075Y-96754095D01*
X95176130Y-96757846D01*
X95185745Y-96759758D01*
X95195180Y-96760687D01*
X95209301Y-96764971D01*
X95222312Y-96771925D01*
X95233715Y-96781285D01*
X95243075Y-96792688D01*
X95250029Y-96805699D01*
X95254313Y-96819820D01*
X95256000Y-96836953D01*
X95256000Y-97083047D01*
X95254313Y-97100180D01*
X95250029Y-97114301D01*
X95243075Y-97127312D01*
X95233715Y-97138715D01*
X95222312Y-97148075D01*
X95209301Y-97155029D01*
X95195180Y-97159313D01*
X95185745Y-97160242D01*
X95176132Y-97162154D01*
X95167076Y-97165904D01*
X95158927Y-97171350D01*
X95151996Y-97178280D01*
X95146550Y-97186430D01*
X95142799Y-97195485D01*
X95140887Y-97205098D01*
X95140887Y-97214900D01*
X95142799Y-97224513D01*
X95146549Y-97233569D01*
X95151995Y-97241718D01*
X95158925Y-97248649D01*
X95167075Y-97254095D01*
X95176130Y-97257846D01*
X95185745Y-97259758D01*
X95195180Y-97260687D01*
X95209301Y-97264971D01*
X95222312Y-97271925D01*
X95233715Y-97281285D01*
X95243075Y-97292688D01*
X95250029Y-97305699D01*
X95254313Y-97319820D01*
X95256000Y-97336953D01*
X95256000Y-97583047D01*
X95254313Y-97600180D01*
X95250029Y-97614301D01*
X95243075Y-97627312D01*
X95233715Y-97638715D01*
X95222312Y-97648075D01*
X95209301Y-97655029D01*
X95195180Y-97659313D01*
X95185745Y-97660242D01*
X95176132Y-97662154D01*
X95167076Y-97665904D01*
X95158927Y-97671350D01*
X95151996Y-97678280D01*
X95146550Y-97686430D01*
X95142799Y-97695485D01*
X95140887Y-97705098D01*
X95140887Y-97714900D01*
X95142799Y-97724513D01*
X95146549Y-97733569D01*
X95151995Y-97741718D01*
X95158925Y-97748649D01*
X95167075Y-97754095D01*
X95176130Y-97757846D01*
X95185745Y-97759758D01*
X95195180Y-97760687D01*
X95209301Y-97764971D01*
X95222312Y-97771925D01*
X95233715Y-97781285D01*
X95243075Y-97792688D01*
X95250029Y-97805699D01*
X95254313Y-97819820D01*
X95256000Y-97836953D01*
X95256000Y-98083047D01*
X95254313Y-98100180D01*
X95250029Y-98114301D01*
X95243075Y-98127312D01*
X95233715Y-98138715D01*
X95222312Y-98148075D01*
X95209301Y-98155029D01*
X95195180Y-98159313D01*
X95185745Y-98160242D01*
X95176132Y-98162154D01*
X95167076Y-98165904D01*
X95158927Y-98171350D01*
X95151996Y-98178280D01*
X95146550Y-98186430D01*
X95142799Y-98195485D01*
X95140887Y-98205098D01*
X95140887Y-98214900D01*
X95142799Y-98224513D01*
X95146549Y-98233569D01*
X95151995Y-98241718D01*
X95158925Y-98248649D01*
X95167075Y-98254095D01*
X95176130Y-98257846D01*
X95185745Y-98259758D01*
X95195180Y-98260687D01*
X95209301Y-98264971D01*
X95222312Y-98271925D01*
X95233715Y-98281285D01*
X95243075Y-98292688D01*
X95250029Y-98305699D01*
X95254313Y-98319820D01*
X95256000Y-98336953D01*
X95256000Y-98583047D01*
X95254313Y-98600180D01*
X95250029Y-98614301D01*
X95243075Y-98627312D01*
X95233715Y-98638715D01*
X95222312Y-98648075D01*
X95209301Y-98655029D01*
X95195180Y-98659313D01*
X95185745Y-98660242D01*
X95176132Y-98662154D01*
X95167076Y-98665904D01*
X95158927Y-98671350D01*
X95151996Y-98678280D01*
X95146550Y-98686430D01*
X95142799Y-98695485D01*
X95140887Y-98705098D01*
X95140887Y-98714900D01*
X95142799Y-98724513D01*
X95146549Y-98733569D01*
X95151995Y-98741718D01*
X95158925Y-98748649D01*
X95167075Y-98754095D01*
X95176130Y-98757846D01*
X95185745Y-98759758D01*
X95195180Y-98760687D01*
X95209301Y-98764971D01*
X95222312Y-98771925D01*
X95233715Y-98781285D01*
X95243075Y-98792688D01*
X95250029Y-98805699D01*
X95254313Y-98819820D01*
X95256000Y-98836953D01*
X95256000Y-99083047D01*
X95254313Y-99100180D01*
X95250029Y-99114301D01*
X95243075Y-99127312D01*
X95233715Y-99138715D01*
X95222312Y-99148075D01*
X95209301Y-99155029D01*
X95195180Y-99159313D01*
X95185745Y-99160242D01*
X95176132Y-99162154D01*
X95167076Y-99165904D01*
X95158927Y-99171350D01*
X95151996Y-99178280D01*
X95146550Y-99186430D01*
X95142799Y-99195485D01*
X95140887Y-99205098D01*
X95140887Y-99214900D01*
X95142799Y-99224513D01*
X95146549Y-99233569D01*
X95151995Y-99241718D01*
X95158925Y-99248649D01*
X95167075Y-99254095D01*
X95176130Y-99257846D01*
X95185745Y-99259758D01*
X95195180Y-99260687D01*
X95209301Y-99264971D01*
X95222312Y-99271925D01*
X95233715Y-99281285D01*
X95243075Y-99292688D01*
X95250029Y-99305699D01*
X95254313Y-99319820D01*
X95256000Y-99336953D01*
X95256000Y-99583047D01*
X95254313Y-99600180D01*
X95250029Y-99614301D01*
X95243075Y-99627312D01*
X95233715Y-99638715D01*
X95222312Y-99648075D01*
X95209301Y-99655029D01*
X95195180Y-99659313D01*
X95178047Y-99661000D01*
X93756953Y-99661000D01*
X93739820Y-99659313D01*
X93725699Y-99655029D01*
X93712688Y-99648075D01*
X93701285Y-99638715D01*
X93691925Y-99627312D01*
X93684971Y-99614301D01*
X93680687Y-99600180D01*
X93679000Y-99583047D01*
X93679000Y-99336953D01*
X93680687Y-99319820D01*
X93684971Y-99305699D01*
X93691925Y-99292688D01*
X93701285Y-99281285D01*
X93712688Y-99271925D01*
X93725699Y-99264971D01*
X93739820Y-99260687D01*
X93749255Y-99259758D01*
X93758868Y-99257846D01*
X93767924Y-99254096D01*
X93776073Y-99248650D01*
X93783004Y-99241720D01*
X93788450Y-99233570D01*
X93792201Y-99224515D01*
X93794113Y-99214902D01*
X93794113Y-99205100D01*
X93792201Y-99195487D01*
X93788451Y-99186431D01*
X93783005Y-99178282D01*
X93776075Y-99171351D01*
X93767925Y-99165905D01*
X93758870Y-99162154D01*
X93749255Y-99160242D01*
X93739820Y-99159313D01*
X93725699Y-99155029D01*
X93712688Y-99148075D01*
X93701285Y-99138715D01*
X93691925Y-99127312D01*
X93684971Y-99114301D01*
X93680687Y-99100180D01*
X93679000Y-99083047D01*
X93679000Y-98836953D01*
X93680687Y-98819820D01*
X93684971Y-98805699D01*
X93691925Y-98792688D01*
X93701285Y-98781285D01*
X93712688Y-98771925D01*
X93725699Y-98764971D01*
X93739820Y-98760687D01*
X93749255Y-98759758D01*
X93758868Y-98757846D01*
X93767924Y-98754096D01*
X93776073Y-98748650D01*
X93783004Y-98741720D01*
X93788450Y-98733570D01*
X93792201Y-98724515D01*
X93794113Y-98714902D01*
X93794113Y-98705100D01*
X93792201Y-98695487D01*
X93788451Y-98686431D01*
X93783005Y-98678282D01*
X93776075Y-98671351D01*
X93767925Y-98665905D01*
X93758870Y-98662154D01*
X93749255Y-98660242D01*
X93739820Y-98659313D01*
X93725699Y-98655029D01*
X93712688Y-98648075D01*
X93701285Y-98638715D01*
X93691925Y-98627312D01*
X93684971Y-98614301D01*
X93680687Y-98600180D01*
X93679000Y-98583047D01*
X93679000Y-98336953D01*
X93680687Y-98319820D01*
X93684971Y-98305699D01*
X93691925Y-98292688D01*
X93701285Y-98281285D01*
X93712688Y-98271925D01*
X93725699Y-98264971D01*
X93739820Y-98260687D01*
X93749255Y-98259758D01*
X93758868Y-98257846D01*
X93767924Y-98254096D01*
X93776073Y-98248650D01*
X93783004Y-98241720D01*
X93788450Y-98233570D01*
X93792201Y-98224515D01*
X93794113Y-98214902D01*
X93794113Y-98205100D01*
X93792201Y-98195487D01*
X93788451Y-98186431D01*
X93783005Y-98178282D01*
X93776075Y-98171351D01*
X93767925Y-98165905D01*
X93758870Y-98162154D01*
X93749255Y-98160242D01*
X93739820Y-98159313D01*
X93725699Y-98155029D01*
X93712688Y-98148075D01*
X93701285Y-98138715D01*
X93691925Y-98127312D01*
X93684971Y-98114301D01*
X93680687Y-98100180D01*
X93679000Y-98083047D01*
X93679000Y-97836953D01*
X93680687Y-97819820D01*
X93684971Y-97805699D01*
X93691925Y-97792688D01*
X93701285Y-97781285D01*
X93712688Y-97771925D01*
X93725699Y-97764971D01*
X93739820Y-97760687D01*
X93749255Y-97759758D01*
X93758868Y-97757846D01*
X93767924Y-97754096D01*
X93776073Y-97748650D01*
X93783004Y-97741720D01*
X93788450Y-97733570D01*
X93792201Y-97724515D01*
X93794113Y-97714902D01*
X93794113Y-97705100D01*
X93792201Y-97695487D01*
X93788451Y-97686431D01*
X93783005Y-97678282D01*
X93776075Y-97671351D01*
X93767925Y-97665905D01*
X93758870Y-97662154D01*
X93749255Y-97660242D01*
X93739820Y-97659313D01*
X93725699Y-97655029D01*
X93712688Y-97648075D01*
X93701285Y-97638715D01*
X93691925Y-97627312D01*
X93684971Y-97614301D01*
X93680687Y-97600180D01*
X93679000Y-97583047D01*
X93679000Y-97336953D01*
X93680687Y-97319820D01*
X93684971Y-97305699D01*
X93691925Y-97292688D01*
X93701285Y-97281285D01*
X93712688Y-97271925D01*
X93725699Y-97264971D01*
X93739820Y-97260687D01*
X93749255Y-97259758D01*
X93758868Y-97257846D01*
X93767924Y-97254096D01*
X93776073Y-97248650D01*
X93783004Y-97241720D01*
X93788450Y-97233570D01*
X93792201Y-97224515D01*
X93794113Y-97214902D01*
X93794113Y-97205100D01*
X93792201Y-97195487D01*
X93788451Y-97186431D01*
X93783005Y-97178282D01*
X93776075Y-97171351D01*
X93767925Y-97165905D01*
X93758870Y-97162154D01*
X93749255Y-97160242D01*
X93739820Y-97159313D01*
X93725699Y-97155029D01*
X93712688Y-97148075D01*
X93701285Y-97138715D01*
X93691925Y-97127312D01*
X93684971Y-97114301D01*
X93680687Y-97100180D01*
X93679000Y-97083047D01*
X93679000Y-96836953D01*
X93680687Y-96819820D01*
X93684971Y-96805699D01*
X93691925Y-96792688D01*
X93701285Y-96781285D01*
X93712688Y-96771925D01*
X93725699Y-96764971D01*
X93739820Y-96760687D01*
X93749255Y-96759758D01*
X93758868Y-96757846D01*
X93767924Y-96754096D01*
X93776073Y-96748650D01*
X93783004Y-96741720D01*
X93788450Y-96733570D01*
X93792201Y-96724515D01*
X93794113Y-96714902D01*
X93794113Y-96705100D01*
X93792201Y-96695487D01*
X93788451Y-96686431D01*
X93783005Y-96678282D01*
X93776075Y-96671351D01*
X93767925Y-96665905D01*
X93758870Y-96662154D01*
X93749255Y-96660242D01*
X93739820Y-96659313D01*
X93725699Y-96655029D01*
X93712688Y-96648075D01*
X93701285Y-96638715D01*
X93691925Y-96627312D01*
X93684971Y-96614301D01*
X93680687Y-96600180D01*
X93679000Y-96583047D01*
X93679000Y-96336953D01*
X93680687Y-96319820D01*
X93684971Y-96305699D01*
X93691925Y-96292688D01*
X93701285Y-96281285D01*
X93712688Y-96271925D01*
X93725699Y-96264971D01*
X93739820Y-96260687D01*
X93749255Y-96259758D01*
X93758868Y-96257846D01*
X93767924Y-96254096D01*
X93776073Y-96248650D01*
X93783004Y-96241720D01*
X93788450Y-96233570D01*
X93792201Y-96224515D01*
X93794113Y-96214902D01*
X93794113Y-96205100D01*
X93792201Y-96195487D01*
X93788451Y-96186431D01*
X93783005Y-96178282D01*
X93776075Y-96171351D01*
X93767925Y-96165905D01*
X93758870Y-96162154D01*
X93749255Y-96160242D01*
X93739820Y-96159313D01*
X93725699Y-96155029D01*
X93712688Y-96148075D01*
X93701285Y-96138715D01*
X93691925Y-96127312D01*
X93684971Y-96114301D01*
X93680687Y-96100180D01*
X93679000Y-96083047D01*
X93679000Y-95836953D01*
X93680687Y-95819820D01*
X93684971Y-95805699D01*
X93691925Y-95792688D01*
X93701285Y-95781285D01*
X93712688Y-95771925D01*
X93725699Y-95764971D01*
X93739820Y-95760687D01*
X93749255Y-95759758D01*
X93758868Y-95757846D01*
X93767924Y-95754096D01*
X93776073Y-95748650D01*
X93783004Y-95741720D01*
X93788450Y-95733570D01*
X93792201Y-95724515D01*
X93794113Y-95714902D01*
X93794113Y-95705100D01*
X93792201Y-95695487D01*
X93788451Y-95686431D01*
X93783005Y-95678282D01*
X93776075Y-95671351D01*
X93767925Y-95665905D01*
X93758870Y-95662154D01*
X93749255Y-95660242D01*
X93739820Y-95659313D01*
X93725699Y-95655029D01*
X93712688Y-95648075D01*
X93701285Y-95638715D01*
X93691925Y-95627312D01*
X93684971Y-95614301D01*
X93680687Y-95600180D01*
X93679000Y-95583047D01*
X93679000Y-95336953D01*
X93680687Y-95319820D01*
X93684971Y-95305699D01*
X93691925Y-95292688D01*
X93701285Y-95281285D01*
X93712688Y-95271925D01*
X93725699Y-95264971D01*
X93739820Y-95260687D01*
X93749255Y-95259758D01*
X93758868Y-95257846D01*
X93767924Y-95254096D01*
X93776073Y-95248650D01*
X93783004Y-95241720D01*
X93788450Y-95233570D01*
X93792201Y-95224515D01*
X93794113Y-95214902D01*
X93794113Y-95205100D01*
X93792201Y-95195487D01*
X93788451Y-95186431D01*
X93783005Y-95178282D01*
X93776075Y-95171351D01*
X93767925Y-95165905D01*
X93758870Y-95162154D01*
X93749255Y-95160242D01*
X93739820Y-95159313D01*
X93725699Y-95155029D01*
X93712688Y-95148075D01*
X93701285Y-95138715D01*
X93691925Y-95127312D01*
X93684971Y-95114301D01*
X93680687Y-95100180D01*
X93679000Y-95083047D01*
X93679000Y-94836953D01*
X93680687Y-94819820D01*
X93684971Y-94805699D01*
X93691925Y-94792688D01*
X93701285Y-94781285D01*
X93712688Y-94771925D01*
X93725699Y-94764971D01*
X93739820Y-94760687D01*
X93749255Y-94759758D01*
X93758868Y-94757846D01*
X93767924Y-94754096D01*
X93776073Y-94748650D01*
X93783004Y-94741720D01*
X93788450Y-94733570D01*
X93792201Y-94724515D01*
X93794113Y-94714902D01*
X93794113Y-94705100D01*
X93792201Y-94695487D01*
X93788451Y-94686431D01*
X93783005Y-94678282D01*
X93776075Y-94671351D01*
X93767925Y-94665905D01*
X93758870Y-94662154D01*
X93749255Y-94660242D01*
X93739820Y-94659313D01*
X93725699Y-94655029D01*
X93712688Y-94648075D01*
X93701285Y-94638715D01*
X93691925Y-94627312D01*
X93684971Y-94614301D01*
X93680687Y-94600180D01*
X93679000Y-94583047D01*
X93679000Y-94336953D01*
X93680687Y-94319820D01*
X93684971Y-94305699D01*
X93691925Y-94292688D01*
X93701285Y-94281285D01*
X93712688Y-94271925D01*
X93725699Y-94264971D01*
X93739820Y-94260687D01*
X93749255Y-94259758D01*
X93758868Y-94257846D01*
X93767924Y-94254096D01*
X93776073Y-94248650D01*
X93783004Y-94241720D01*
X93788450Y-94233570D01*
X93792201Y-94224515D01*
X93794113Y-94214902D01*
X93794113Y-94205100D01*
X93792201Y-94195487D01*
X93788451Y-94186431D01*
X93783005Y-94178282D01*
X93776075Y-94171351D01*
X93767925Y-94165905D01*
X93758870Y-94162154D01*
X93749255Y-94160242D01*
X93739820Y-94159313D01*
X93725699Y-94155029D01*
X93712688Y-94148075D01*
X93701285Y-94138715D01*
X93691925Y-94127312D01*
X93684971Y-94114301D01*
X93680687Y-94100180D01*
X93679000Y-94083047D01*
X93679000Y-93836953D01*
X93680687Y-93819820D01*
X93684971Y-93805699D01*
X93691925Y-93792688D01*
X93701285Y-93781285D01*
X93712688Y-93771925D01*
X93725699Y-93764971D01*
X93739820Y-93760687D01*
X93756953Y-93759000D01*
X95178047Y-93759000D01*
X95195180Y-93760687D01*
G37*
G36*
X103520180Y-93760687D02*
G01*
X103534301Y-93764971D01*
X103547312Y-93771925D01*
X103558715Y-93781285D01*
X103568075Y-93792688D01*
X103575029Y-93805699D01*
X103579313Y-93819820D01*
X103581000Y-93836953D01*
X103581000Y-94083047D01*
X103579313Y-94100180D01*
X103575029Y-94114301D01*
X103568075Y-94127312D01*
X103558715Y-94138715D01*
X103547312Y-94148075D01*
X103534301Y-94155029D01*
X103520180Y-94159313D01*
X103510745Y-94160242D01*
X103501132Y-94162154D01*
X103492076Y-94165904D01*
X103483927Y-94171350D01*
X103476996Y-94178280D01*
X103471550Y-94186430D01*
X103467799Y-94195485D01*
X103465887Y-94205098D01*
X103465887Y-94214900D01*
X103467799Y-94224513D01*
X103471549Y-94233569D01*
X103476995Y-94241718D01*
X103483925Y-94248649D01*
X103492075Y-94254095D01*
X103501130Y-94257846D01*
X103510745Y-94259758D01*
X103520180Y-94260687D01*
X103534301Y-94264971D01*
X103547312Y-94271925D01*
X103558715Y-94281285D01*
X103568075Y-94292688D01*
X103575029Y-94305699D01*
X103579313Y-94319820D01*
X103581000Y-94336953D01*
X103581000Y-94583047D01*
X103579313Y-94600180D01*
X103575029Y-94614301D01*
X103568075Y-94627312D01*
X103558715Y-94638715D01*
X103547312Y-94648075D01*
X103534301Y-94655029D01*
X103520180Y-94659313D01*
X103510745Y-94660242D01*
X103501132Y-94662154D01*
X103492076Y-94665904D01*
X103483927Y-94671350D01*
X103476996Y-94678280D01*
X103471550Y-94686430D01*
X103467799Y-94695485D01*
X103465887Y-94705098D01*
X103465887Y-94714900D01*
X103467799Y-94724513D01*
X103471549Y-94733569D01*
X103476995Y-94741718D01*
X103483925Y-94748649D01*
X103492075Y-94754095D01*
X103501130Y-94757846D01*
X103510745Y-94759758D01*
X103520180Y-94760687D01*
X103534301Y-94764971D01*
X103547312Y-94771925D01*
X103558715Y-94781285D01*
X103568075Y-94792688D01*
X103575029Y-94805699D01*
X103579313Y-94819820D01*
X103581000Y-94836953D01*
X103581000Y-95083047D01*
X103579313Y-95100180D01*
X103575029Y-95114301D01*
X103568075Y-95127312D01*
X103558715Y-95138715D01*
X103547312Y-95148075D01*
X103534301Y-95155029D01*
X103520180Y-95159313D01*
X103510745Y-95160242D01*
X103501132Y-95162154D01*
X103492076Y-95165904D01*
X103483927Y-95171350D01*
X103476996Y-95178280D01*
X103471550Y-95186430D01*
X103467799Y-95195485D01*
X103465887Y-95205098D01*
X103465887Y-95214900D01*
X103467799Y-95224513D01*
X103471549Y-95233569D01*
X103476995Y-95241718D01*
X103483925Y-95248649D01*
X103492075Y-95254095D01*
X103501130Y-95257846D01*
X103510745Y-95259758D01*
X103520180Y-95260687D01*
X103534301Y-95264971D01*
X103547312Y-95271925D01*
X103558715Y-95281285D01*
X103568075Y-95292688D01*
X103575029Y-95305699D01*
X103579313Y-95319820D01*
X103581000Y-95336953D01*
X103581000Y-95583047D01*
X103579313Y-95600180D01*
X103575029Y-95614301D01*
X103568075Y-95627312D01*
X103558715Y-95638715D01*
X103547312Y-95648075D01*
X103534301Y-95655029D01*
X103520180Y-95659313D01*
X103510745Y-95660242D01*
X103501132Y-95662154D01*
X103492076Y-95665904D01*
X103483927Y-95671350D01*
X103476996Y-95678280D01*
X103471550Y-95686430D01*
X103467799Y-95695485D01*
X103465887Y-95705098D01*
X103465887Y-95714900D01*
X103467799Y-95724513D01*
X103471549Y-95733569D01*
X103476995Y-95741718D01*
X103483925Y-95748649D01*
X103492075Y-95754095D01*
X103501130Y-95757846D01*
X103510745Y-95759758D01*
X103520180Y-95760687D01*
X103534301Y-95764971D01*
X103547312Y-95771925D01*
X103558715Y-95781285D01*
X103568075Y-95792688D01*
X103575029Y-95805699D01*
X103579313Y-95819820D01*
X103581000Y-95836953D01*
X103581000Y-96083047D01*
X103579313Y-96100180D01*
X103575029Y-96114301D01*
X103568075Y-96127312D01*
X103558715Y-96138715D01*
X103547312Y-96148075D01*
X103534301Y-96155029D01*
X103520180Y-96159313D01*
X103510745Y-96160242D01*
X103501132Y-96162154D01*
X103492076Y-96165904D01*
X103483927Y-96171350D01*
X103476996Y-96178280D01*
X103471550Y-96186430D01*
X103467799Y-96195485D01*
X103465887Y-96205098D01*
X103465887Y-96214900D01*
X103467799Y-96224513D01*
X103471549Y-96233569D01*
X103476995Y-96241718D01*
X103483925Y-96248649D01*
X103492075Y-96254095D01*
X103501130Y-96257846D01*
X103510745Y-96259758D01*
X103520180Y-96260687D01*
X103534301Y-96264971D01*
X103547312Y-96271925D01*
X103558715Y-96281285D01*
X103568075Y-96292688D01*
X103575029Y-96305699D01*
X103579313Y-96319820D01*
X103581000Y-96336953D01*
X103581000Y-96583047D01*
X103579313Y-96600180D01*
X103575029Y-96614301D01*
X103568075Y-96627312D01*
X103558715Y-96638715D01*
X103547312Y-96648075D01*
X103534301Y-96655029D01*
X103520180Y-96659313D01*
X103510745Y-96660242D01*
X103501132Y-96662154D01*
X103492076Y-96665904D01*
X103483927Y-96671350D01*
X103476996Y-96678280D01*
X103471550Y-96686430D01*
X103467799Y-96695485D01*
X103465887Y-96705098D01*
X103465887Y-96714900D01*
X103467799Y-96724513D01*
X103471549Y-96733569D01*
X103476995Y-96741718D01*
X103483925Y-96748649D01*
X103492075Y-96754095D01*
X103501130Y-96757846D01*
X103510745Y-96759758D01*
X103520180Y-96760687D01*
X103534301Y-96764971D01*
X103547312Y-96771925D01*
X103558715Y-96781285D01*
X103568075Y-96792688D01*
X103575029Y-96805699D01*
X103579313Y-96819820D01*
X103581000Y-96836953D01*
X103581000Y-97083047D01*
X103579313Y-97100180D01*
X103575029Y-97114301D01*
X103568075Y-97127312D01*
X103558715Y-97138715D01*
X103547312Y-97148075D01*
X103534301Y-97155029D01*
X103520180Y-97159313D01*
X103510745Y-97160242D01*
X103501132Y-97162154D01*
X103492076Y-97165904D01*
X103483927Y-97171350D01*
X103476996Y-97178280D01*
X103471550Y-97186430D01*
X103467799Y-97195485D01*
X103465887Y-97205098D01*
X103465887Y-97214900D01*
X103467799Y-97224513D01*
X103471549Y-97233569D01*
X103476995Y-97241718D01*
X103483925Y-97248649D01*
X103492075Y-97254095D01*
X103501130Y-97257846D01*
X103510745Y-97259758D01*
X103520180Y-97260687D01*
X103534301Y-97264971D01*
X103547312Y-97271925D01*
X103558715Y-97281285D01*
X103568075Y-97292688D01*
X103575029Y-97305699D01*
X103579313Y-97319820D01*
X103581000Y-97336953D01*
X103581000Y-97583047D01*
X103579313Y-97600180D01*
X103575029Y-97614301D01*
X103568075Y-97627312D01*
X103558715Y-97638715D01*
X103547312Y-97648075D01*
X103534301Y-97655029D01*
X103520180Y-97659313D01*
X103510745Y-97660242D01*
X103501132Y-97662154D01*
X103492076Y-97665904D01*
X103483927Y-97671350D01*
X103476996Y-97678280D01*
X103471550Y-97686430D01*
X103467799Y-97695485D01*
X103465887Y-97705098D01*
X103465887Y-97714900D01*
X103467799Y-97724513D01*
X103471549Y-97733569D01*
X103476995Y-97741718D01*
X103483925Y-97748649D01*
X103492075Y-97754095D01*
X103501130Y-97757846D01*
X103510745Y-97759758D01*
X103520180Y-97760687D01*
X103534301Y-97764971D01*
X103547312Y-97771925D01*
X103558715Y-97781285D01*
X103568075Y-97792688D01*
X103575029Y-97805699D01*
X103579313Y-97819820D01*
X103581000Y-97836953D01*
X103581000Y-98083047D01*
X103579313Y-98100180D01*
X103575029Y-98114301D01*
X103568075Y-98127312D01*
X103558715Y-98138715D01*
X103547312Y-98148075D01*
X103534301Y-98155029D01*
X103520180Y-98159313D01*
X103510745Y-98160242D01*
X103501132Y-98162154D01*
X103492076Y-98165904D01*
X103483927Y-98171350D01*
X103476996Y-98178280D01*
X103471550Y-98186430D01*
X103467799Y-98195485D01*
X103465887Y-98205098D01*
X103465887Y-98214900D01*
X103467799Y-98224513D01*
X103471549Y-98233569D01*
X103476995Y-98241718D01*
X103483925Y-98248649D01*
X103492075Y-98254095D01*
X103501130Y-98257846D01*
X103510745Y-98259758D01*
X103520180Y-98260687D01*
X103534301Y-98264971D01*
X103547312Y-98271925D01*
X103558715Y-98281285D01*
X103568075Y-98292688D01*
X103575029Y-98305699D01*
X103579313Y-98319820D01*
X103581000Y-98336953D01*
X103581000Y-98583047D01*
X103579313Y-98600180D01*
X103575029Y-98614301D01*
X103568075Y-98627312D01*
X103558715Y-98638715D01*
X103547312Y-98648075D01*
X103534301Y-98655029D01*
X103520180Y-98659313D01*
X103510745Y-98660242D01*
X103501132Y-98662154D01*
X103492076Y-98665904D01*
X103483927Y-98671350D01*
X103476996Y-98678280D01*
X103471550Y-98686430D01*
X103467799Y-98695485D01*
X103465887Y-98705098D01*
X103465887Y-98714900D01*
X103467799Y-98724513D01*
X103471549Y-98733569D01*
X103476995Y-98741718D01*
X103483925Y-98748649D01*
X103492075Y-98754095D01*
X103501130Y-98757846D01*
X103510745Y-98759758D01*
X103520180Y-98760687D01*
X103534301Y-98764971D01*
X103547312Y-98771925D01*
X103558715Y-98781285D01*
X103568075Y-98792688D01*
X103575029Y-98805699D01*
X103579313Y-98819820D01*
X103581000Y-98836953D01*
X103581000Y-99083047D01*
X103579313Y-99100180D01*
X103575029Y-99114301D01*
X103568075Y-99127312D01*
X103558715Y-99138715D01*
X103547312Y-99148075D01*
X103534301Y-99155029D01*
X103520180Y-99159313D01*
X103510745Y-99160242D01*
X103501132Y-99162154D01*
X103492076Y-99165904D01*
X103483927Y-99171350D01*
X103476996Y-99178280D01*
X103471550Y-99186430D01*
X103467799Y-99195485D01*
X103465887Y-99205098D01*
X103465887Y-99214900D01*
X103467799Y-99224513D01*
X103471549Y-99233569D01*
X103476995Y-99241718D01*
X103483925Y-99248649D01*
X103492075Y-99254095D01*
X103501130Y-99257846D01*
X103510745Y-99259758D01*
X103520180Y-99260687D01*
X103534301Y-99264971D01*
X103547312Y-99271925D01*
X103558715Y-99281285D01*
X103568075Y-99292688D01*
X103575029Y-99305699D01*
X103579313Y-99319820D01*
X103581000Y-99336953D01*
X103581000Y-99583047D01*
X103579313Y-99600180D01*
X103575029Y-99614301D01*
X103568075Y-99627312D01*
X103558715Y-99638715D01*
X103547312Y-99648075D01*
X103534301Y-99655029D01*
X103520180Y-99659313D01*
X103503047Y-99661000D01*
X102081953Y-99661000D01*
X102064820Y-99659313D01*
X102050699Y-99655029D01*
X102037688Y-99648075D01*
X102026285Y-99638715D01*
X102016925Y-99627312D01*
X102009971Y-99614301D01*
X102005687Y-99600180D01*
X102004000Y-99583047D01*
X102004000Y-99336953D01*
X102005687Y-99319820D01*
X102009971Y-99305699D01*
X102016925Y-99292688D01*
X102026285Y-99281285D01*
X102037688Y-99271925D01*
X102050699Y-99264971D01*
X102064820Y-99260687D01*
X102074255Y-99259758D01*
X102083868Y-99257846D01*
X102092924Y-99254096D01*
X102101073Y-99248650D01*
X102108004Y-99241720D01*
X102113450Y-99233570D01*
X102117201Y-99224515D01*
X102119113Y-99214902D01*
X102119113Y-99205100D01*
X102117201Y-99195487D01*
X102113451Y-99186431D01*
X102108005Y-99178282D01*
X102101075Y-99171351D01*
X102092925Y-99165905D01*
X102083870Y-99162154D01*
X102074255Y-99160242D01*
X102064820Y-99159313D01*
X102050699Y-99155029D01*
X102037688Y-99148075D01*
X102026285Y-99138715D01*
X102016925Y-99127312D01*
X102009971Y-99114301D01*
X102005687Y-99100180D01*
X102004000Y-99083047D01*
X102004000Y-98836953D01*
X102005687Y-98819820D01*
X102009971Y-98805699D01*
X102016925Y-98792688D01*
X102026285Y-98781285D01*
X102037688Y-98771925D01*
X102050699Y-98764971D01*
X102064820Y-98760687D01*
X102074255Y-98759758D01*
X102083868Y-98757846D01*
X102092924Y-98754096D01*
X102101073Y-98748650D01*
X102108004Y-98741720D01*
X102113450Y-98733570D01*
X102117201Y-98724515D01*
X102119113Y-98714902D01*
X102119113Y-98705100D01*
X102117201Y-98695487D01*
X102113451Y-98686431D01*
X102108005Y-98678282D01*
X102101075Y-98671351D01*
X102092925Y-98665905D01*
X102083870Y-98662154D01*
X102074255Y-98660242D01*
X102064820Y-98659313D01*
X102050699Y-98655029D01*
X102037688Y-98648075D01*
X102026285Y-98638715D01*
X102016925Y-98627312D01*
X102009971Y-98614301D01*
X102005687Y-98600180D01*
X102004000Y-98583047D01*
X102004000Y-98336953D01*
X102005687Y-98319820D01*
X102009971Y-98305699D01*
X102016925Y-98292688D01*
X102026285Y-98281285D01*
X102037688Y-98271925D01*
X102050699Y-98264971D01*
X102064820Y-98260687D01*
X102074255Y-98259758D01*
X102083868Y-98257846D01*
X102092924Y-98254096D01*
X102101073Y-98248650D01*
X102108004Y-98241720D01*
X102113450Y-98233570D01*
X102117201Y-98224515D01*
X102119113Y-98214902D01*
X102119113Y-98205100D01*
X102117201Y-98195487D01*
X102113451Y-98186431D01*
X102108005Y-98178282D01*
X102101075Y-98171351D01*
X102092925Y-98165905D01*
X102083870Y-98162154D01*
X102074255Y-98160242D01*
X102064820Y-98159313D01*
X102050699Y-98155029D01*
X102037688Y-98148075D01*
X102026285Y-98138715D01*
X102016925Y-98127312D01*
X102009971Y-98114301D01*
X102005687Y-98100180D01*
X102004000Y-98083047D01*
X102004000Y-97836953D01*
X102005687Y-97819820D01*
X102009971Y-97805699D01*
X102016925Y-97792688D01*
X102026285Y-97781285D01*
X102037688Y-97771925D01*
X102050699Y-97764971D01*
X102064820Y-97760687D01*
X102074255Y-97759758D01*
X102083868Y-97757846D01*
X102092924Y-97754096D01*
X102101073Y-97748650D01*
X102108004Y-97741720D01*
X102113450Y-97733570D01*
X102117201Y-97724515D01*
X102119113Y-97714902D01*
X102119113Y-97705100D01*
X102117201Y-97695487D01*
X102113451Y-97686431D01*
X102108005Y-97678282D01*
X102101075Y-97671351D01*
X102092925Y-97665905D01*
X102083870Y-97662154D01*
X102074255Y-97660242D01*
X102064820Y-97659313D01*
X102050699Y-97655029D01*
X102037688Y-97648075D01*
X102026285Y-97638715D01*
X102016925Y-97627312D01*
X102009971Y-97614301D01*
X102005687Y-97600180D01*
X102004000Y-97583047D01*
X102004000Y-97336953D01*
X102005687Y-97319820D01*
X102009971Y-97305699D01*
X102016925Y-97292688D01*
X102026285Y-97281285D01*
X102037688Y-97271925D01*
X102050699Y-97264971D01*
X102064820Y-97260687D01*
X102074255Y-97259758D01*
X102083868Y-97257846D01*
X102092924Y-97254096D01*
X102101073Y-97248650D01*
X102108004Y-97241720D01*
X102113450Y-97233570D01*
X102117201Y-97224515D01*
X102119113Y-97214902D01*
X102119113Y-97205100D01*
X102117201Y-97195487D01*
X102113451Y-97186431D01*
X102108005Y-97178282D01*
X102101075Y-97171351D01*
X102092925Y-97165905D01*
X102083870Y-97162154D01*
X102074255Y-97160242D01*
X102064820Y-97159313D01*
X102050699Y-97155029D01*
X102037688Y-97148075D01*
X102026285Y-97138715D01*
X102016925Y-97127312D01*
X102009971Y-97114301D01*
X102005687Y-97100180D01*
X102004000Y-97083047D01*
X102004000Y-96836953D01*
X102005687Y-96819820D01*
X102009971Y-96805699D01*
X102016925Y-96792688D01*
X102026285Y-96781285D01*
X102037688Y-96771925D01*
X102050699Y-96764971D01*
X102064820Y-96760687D01*
X102074255Y-96759758D01*
X102083868Y-96757846D01*
X102092924Y-96754096D01*
X102101073Y-96748650D01*
X102108004Y-96741720D01*
X102113450Y-96733570D01*
X102117201Y-96724515D01*
X102119113Y-96714902D01*
X102119113Y-96705100D01*
X102117201Y-96695487D01*
X102113451Y-96686431D01*
X102108005Y-96678282D01*
X102101075Y-96671351D01*
X102092925Y-96665905D01*
X102083870Y-96662154D01*
X102074255Y-96660242D01*
X102064820Y-96659313D01*
X102050699Y-96655029D01*
X102037688Y-96648075D01*
X102026285Y-96638715D01*
X102016925Y-96627312D01*
X102009971Y-96614301D01*
X102005687Y-96600180D01*
X102004000Y-96583047D01*
X102004000Y-96336953D01*
X102005687Y-96319820D01*
X102009971Y-96305699D01*
X102016925Y-96292688D01*
X102026285Y-96281285D01*
X102037688Y-96271925D01*
X102050699Y-96264971D01*
X102064820Y-96260687D01*
X102074255Y-96259758D01*
X102083868Y-96257846D01*
X102092924Y-96254096D01*
X102101073Y-96248650D01*
X102108004Y-96241720D01*
X102113450Y-96233570D01*
X102117201Y-96224515D01*
X102119113Y-96214902D01*
X102119113Y-96205100D01*
X102117201Y-96195487D01*
X102113451Y-96186431D01*
X102108005Y-96178282D01*
X102101075Y-96171351D01*
X102092925Y-96165905D01*
X102083870Y-96162154D01*
X102074255Y-96160242D01*
X102064820Y-96159313D01*
X102050699Y-96155029D01*
X102037688Y-96148075D01*
X102026285Y-96138715D01*
X102016925Y-96127312D01*
X102009971Y-96114301D01*
X102005687Y-96100180D01*
X102004000Y-96083047D01*
X102004000Y-95836953D01*
X102005687Y-95819820D01*
X102009971Y-95805699D01*
X102016925Y-95792688D01*
X102026285Y-95781285D01*
X102037688Y-95771925D01*
X102050699Y-95764971D01*
X102064820Y-95760687D01*
X102074255Y-95759758D01*
X102083868Y-95757846D01*
X102092924Y-95754096D01*
X102101073Y-95748650D01*
X102108004Y-95741720D01*
X102113450Y-95733570D01*
X102117201Y-95724515D01*
X102119113Y-95714902D01*
X102119113Y-95705100D01*
X102117201Y-95695487D01*
X102113451Y-95686431D01*
X102108005Y-95678282D01*
X102101075Y-95671351D01*
X102092925Y-95665905D01*
X102083870Y-95662154D01*
X102074255Y-95660242D01*
X102064820Y-95659313D01*
X102050699Y-95655029D01*
X102037688Y-95648075D01*
X102026285Y-95638715D01*
X102016925Y-95627312D01*
X102009971Y-95614301D01*
X102005687Y-95600180D01*
X102004000Y-95583047D01*
X102004000Y-95336953D01*
X102005687Y-95319820D01*
X102009971Y-95305699D01*
X102016925Y-95292688D01*
X102026285Y-95281285D01*
X102037688Y-95271925D01*
X102050699Y-95264971D01*
X102064820Y-95260687D01*
X102074255Y-95259758D01*
X102083868Y-95257846D01*
X102092924Y-95254096D01*
X102101073Y-95248650D01*
X102108004Y-95241720D01*
X102113450Y-95233570D01*
X102117201Y-95224515D01*
X102119113Y-95214902D01*
X102119113Y-95205100D01*
X102117201Y-95195487D01*
X102113451Y-95186431D01*
X102108005Y-95178282D01*
X102101075Y-95171351D01*
X102092925Y-95165905D01*
X102083870Y-95162154D01*
X102074255Y-95160242D01*
X102064820Y-95159313D01*
X102050699Y-95155029D01*
X102037688Y-95148075D01*
X102026285Y-95138715D01*
X102016925Y-95127312D01*
X102009971Y-95114301D01*
X102005687Y-95100180D01*
X102004000Y-95083047D01*
X102004000Y-94836953D01*
X102005687Y-94819820D01*
X102009971Y-94805699D01*
X102016925Y-94792688D01*
X102026285Y-94781285D01*
X102037688Y-94771925D01*
X102050699Y-94764971D01*
X102064820Y-94760687D01*
X102074255Y-94759758D01*
X102083868Y-94757846D01*
X102092924Y-94754096D01*
X102101073Y-94748650D01*
X102108004Y-94741720D01*
X102113450Y-94733570D01*
X102117201Y-94724515D01*
X102119113Y-94714902D01*
X102119113Y-94705100D01*
X102117201Y-94695487D01*
X102113451Y-94686431D01*
X102108005Y-94678282D01*
X102101075Y-94671351D01*
X102092925Y-94665905D01*
X102083870Y-94662154D01*
X102074255Y-94660242D01*
X102064820Y-94659313D01*
X102050699Y-94655029D01*
X102037688Y-94648075D01*
X102026285Y-94638715D01*
X102016925Y-94627312D01*
X102009971Y-94614301D01*
X102005687Y-94600180D01*
X102004000Y-94583047D01*
X102004000Y-94336953D01*
X102005687Y-94319820D01*
X102009971Y-94305699D01*
X102016925Y-94292688D01*
X102026285Y-94281285D01*
X102037688Y-94271925D01*
X102050699Y-94264971D01*
X102064820Y-94260687D01*
X102074255Y-94259758D01*
X102083868Y-94257846D01*
X102092924Y-94254096D01*
X102101073Y-94248650D01*
X102108004Y-94241720D01*
X102113450Y-94233570D01*
X102117201Y-94224515D01*
X102119113Y-94214902D01*
X102119113Y-94205100D01*
X102117201Y-94195487D01*
X102113451Y-94186431D01*
X102108005Y-94178282D01*
X102101075Y-94171351D01*
X102092925Y-94165905D01*
X102083870Y-94162154D01*
X102074255Y-94160242D01*
X102064820Y-94159313D01*
X102050699Y-94155029D01*
X102037688Y-94148075D01*
X102026285Y-94138715D01*
X102016925Y-94127312D01*
X102009971Y-94114301D01*
X102005687Y-94100180D01*
X102004000Y-94083047D01*
X102004000Y-93836953D01*
X102005687Y-93819820D01*
X102009971Y-93805699D01*
X102016925Y-93792688D01*
X102026285Y-93781285D01*
X102037688Y-93771925D01*
X102050699Y-93764971D01*
X102064820Y-93760687D01*
X102081953Y-93759000D01*
X103503047Y-93759000D01*
X103520180Y-93760687D01*
G37*
G36*
X109699157Y-97210132D02*
G01*
X109851543Y-97240443D01*
X110015515Y-97308363D01*
X110163085Y-97406966D01*
X110288584Y-97532465D01*
X110387187Y-97680035D01*
X110455107Y-97844007D01*
X110485123Y-97994911D01*
X110489731Y-98018077D01*
X110489731Y-98195561D01*
X110485884Y-98214900D01*
X110455107Y-98369631D01*
X110387187Y-98533603D01*
X110288584Y-98681173D01*
X110163085Y-98806672D01*
X110015515Y-98905275D01*
X109851543Y-98973195D01*
X109699157Y-99003506D01*
X109677473Y-99007819D01*
X109499989Y-99007819D01*
X109478305Y-99003506D01*
X109325919Y-98973195D01*
X109161947Y-98905275D01*
X109014377Y-98806672D01*
X108888878Y-98681173D01*
X108790275Y-98533603D01*
X108722355Y-98369631D01*
X108691578Y-98214900D01*
X108687731Y-98195561D01*
X108687731Y-98018077D01*
X108692339Y-97994911D01*
X108722355Y-97844007D01*
X108790275Y-97680035D01*
X108888878Y-97532465D01*
X109014377Y-97406966D01*
X109161947Y-97308363D01*
X109325919Y-97240443D01*
X109478305Y-97210132D01*
X109499989Y-97205819D01*
X109677473Y-97205819D01*
X109699157Y-97210132D01*
G37*
G36*
X91961824Y-97932080D02*
G01*
X91989545Y-97940490D01*
X92015089Y-97954144D01*
X92037480Y-97972520D01*
X92055856Y-97994911D01*
X92069510Y-98020455D01*
X92077920Y-98048176D01*
X92081000Y-98079453D01*
X92081000Y-98520547D01*
X92077920Y-98551824D01*
X92069510Y-98579545D01*
X92055856Y-98605089D01*
X92037480Y-98627480D01*
X92015089Y-98645856D01*
X91989545Y-98659510D01*
X91961824Y-98667920D01*
X91930547Y-98671000D01*
X91539453Y-98671000D01*
X91508176Y-98667920D01*
X91480455Y-98659510D01*
X91454911Y-98645856D01*
X91432520Y-98627480D01*
X91414144Y-98605089D01*
X91400490Y-98579545D01*
X91392080Y-98551824D01*
X91389000Y-98520547D01*
X91389000Y-98079453D01*
X91392080Y-98048176D01*
X91400490Y-98020455D01*
X91414144Y-97994911D01*
X91432520Y-97972520D01*
X91454911Y-97954144D01*
X91480455Y-97940490D01*
X91508176Y-97932080D01*
X91539453Y-97929000D01*
X91930547Y-97929000D01*
X91961824Y-97932080D01*
G37*
G36*
X90991824Y-97932080D02*
G01*
X91019545Y-97940490D01*
X91045089Y-97954144D01*
X91067480Y-97972520D01*
X91085856Y-97994911D01*
X91099510Y-98020455D01*
X91107920Y-98048176D01*
X91111000Y-98079453D01*
X91111000Y-98520547D01*
X91107920Y-98551824D01*
X91099510Y-98579545D01*
X91085856Y-98605089D01*
X91067480Y-98627480D01*
X91045089Y-98645856D01*
X91019545Y-98659510D01*
X90991824Y-98667920D01*
X90960547Y-98671000D01*
X90569453Y-98671000D01*
X90538176Y-98667920D01*
X90510455Y-98659510D01*
X90484911Y-98645856D01*
X90462520Y-98627480D01*
X90444144Y-98605089D01*
X90430490Y-98579545D01*
X90422080Y-98551824D01*
X90419000Y-98520547D01*
X90419000Y-98079453D01*
X90422080Y-98048176D01*
X90430490Y-98020455D01*
X90444144Y-97994911D01*
X90462520Y-97972520D01*
X90484911Y-97954144D01*
X90510455Y-97940490D01*
X90538176Y-97932080D01*
X90569453Y-97929000D01*
X90960547Y-97929000D01*
X90991824Y-97932080D01*
G37*
G36*
X105651000Y-98051000D02*
G01*
X104349000Y-98051000D01*
X104349000Y-97049000D01*
X105651000Y-97049000D01*
X105651000Y-98051000D01*
G37*
G36*
X92201000Y-97251000D02*
G01*
X90299000Y-97251000D01*
X90299000Y-96749000D01*
X92201000Y-96749000D01*
X92201000Y-97251000D01*
G37*
G36*
X109874823Y-96258503D02*
G01*
X108181497Y-96874823D01*
X107565177Y-95181497D01*
X109258503Y-94565177D01*
X109874823Y-96258503D01*
G37*
G36*
X92101000Y-96051000D02*
G01*
X90399000Y-96051000D01*
X90399000Y-95549000D01*
X92101000Y-95549000D01*
X92101000Y-96051000D01*
G37*
G36*
X92201000Y-94851000D02*
G01*
X90299000Y-94851000D01*
X90299000Y-94349000D01*
X92201000Y-94349000D01*
X92201000Y-94851000D01*
G37*
G36*
X110601824Y-94142080D02*
G01*
X110629545Y-94150490D01*
X110655089Y-94164144D01*
X110677480Y-94182520D01*
X110695856Y-94204911D01*
X110709510Y-94230455D01*
X110717920Y-94258176D01*
X110721000Y-94289453D01*
X110721000Y-94680547D01*
X110717920Y-94711824D01*
X110709510Y-94739545D01*
X110695856Y-94765089D01*
X110677480Y-94787480D01*
X110655089Y-94805856D01*
X110629545Y-94819510D01*
X110601824Y-94827920D01*
X110570547Y-94831000D01*
X110129453Y-94831000D01*
X110098176Y-94827920D01*
X110070455Y-94819510D01*
X110044911Y-94805856D01*
X110022520Y-94787480D01*
X110004144Y-94765089D01*
X109990490Y-94739545D01*
X109982080Y-94711824D01*
X109979000Y-94680547D01*
X109979000Y-94289453D01*
X109982080Y-94258176D01*
X109990490Y-94230455D01*
X110004144Y-94204911D01*
X110022520Y-94182520D01*
X110044911Y-94164144D01*
X110070455Y-94150490D01*
X110098176Y-94142080D01*
X110129453Y-94139000D01*
X110570547Y-94139000D01*
X110601824Y-94142080D01*
G37*
G36*
X105651000Y-94751000D02*
G01*
X104349000Y-94751000D01*
X104349000Y-93749000D01*
X105651000Y-93749000D01*
X105651000Y-94751000D01*
G37*
G36*
X106891824Y-93632080D02*
G01*
X106919545Y-93640490D01*
X106945089Y-93654144D01*
X106967480Y-93672520D01*
X106985856Y-93694911D01*
X106999510Y-93720455D01*
X107007920Y-93748176D01*
X107011000Y-93779453D01*
X107011000Y-94220547D01*
X107007920Y-94251824D01*
X106999510Y-94279545D01*
X106985856Y-94305089D01*
X106967480Y-94327480D01*
X106945089Y-94345856D01*
X106919545Y-94359510D01*
X106891824Y-94367920D01*
X106860547Y-94371000D01*
X106469453Y-94371000D01*
X106438176Y-94367920D01*
X106410455Y-94359510D01*
X106384911Y-94345856D01*
X106362520Y-94327480D01*
X106344144Y-94305089D01*
X106330490Y-94279545D01*
X106322080Y-94251824D01*
X106319000Y-94220547D01*
X106319000Y-93779453D01*
X106322080Y-93748176D01*
X106330490Y-93720455D01*
X106344144Y-93694911D01*
X106362520Y-93672520D01*
X106384911Y-93654144D01*
X106410455Y-93640490D01*
X106438176Y-93632080D01*
X106469453Y-93629000D01*
X106860547Y-93629000D01*
X106891824Y-93632080D01*
G37*
G36*
X107861824Y-93632080D02*
G01*
X107889545Y-93640490D01*
X107915089Y-93654144D01*
X107937480Y-93672520D01*
X107955856Y-93694911D01*
X107969510Y-93720455D01*
X107977920Y-93748176D01*
X107981000Y-93779453D01*
X107981000Y-94220547D01*
X107977920Y-94251824D01*
X107969510Y-94279545D01*
X107955856Y-94305089D01*
X107937480Y-94327480D01*
X107915089Y-94345856D01*
X107889545Y-94359510D01*
X107861824Y-94367920D01*
X107830547Y-94371000D01*
X107439453Y-94371000D01*
X107408176Y-94367920D01*
X107380455Y-94359510D01*
X107354911Y-94345856D01*
X107332520Y-94327480D01*
X107314144Y-94305089D01*
X107300490Y-94279545D01*
X107292080Y-94251824D01*
X107289000Y-94220547D01*
X107289000Y-93779453D01*
X107292080Y-93748176D01*
X107300490Y-93720455D01*
X107314144Y-93694911D01*
X107332520Y-93672520D01*
X107354911Y-93654144D01*
X107380455Y-93640490D01*
X107408176Y-93632080D01*
X107439453Y-93629000D01*
X107830547Y-93629000D01*
X107861824Y-93632080D01*
G37*
G36*
X110601824Y-93172080D02*
G01*
X110629545Y-93180490D01*
X110655089Y-93194144D01*
X110677480Y-93212520D01*
X110695856Y-93234911D01*
X110709510Y-93260455D01*
X110717920Y-93288176D01*
X110721000Y-93319453D01*
X110721000Y-93710547D01*
X110717920Y-93741824D01*
X110709510Y-93769545D01*
X110695856Y-93795089D01*
X110677480Y-93817480D01*
X110655089Y-93835856D01*
X110629545Y-93849510D01*
X110601824Y-93857920D01*
X110570547Y-93861000D01*
X110129453Y-93861000D01*
X110098176Y-93857920D01*
X110070455Y-93849510D01*
X110044911Y-93835856D01*
X110022520Y-93817480D01*
X110004144Y-93795089D01*
X109990490Y-93769545D01*
X109982080Y-93741824D01*
X109979000Y-93710547D01*
X109979000Y-93319453D01*
X109982080Y-93288176D01*
X109990490Y-93260455D01*
X110004144Y-93234911D01*
X110022520Y-93212520D01*
X110044911Y-93194144D01*
X110070455Y-93180490D01*
X110098176Y-93172080D01*
X110129453Y-93169000D01*
X110570547Y-93169000D01*
X110601824Y-93172080D01*
G37*
G36*
X90991824Y-92932080D02*
G01*
X91019545Y-92940490D01*
X91045089Y-92954144D01*
X91067480Y-92972520D01*
X91085856Y-92994911D01*
X91099510Y-93020455D01*
X91107920Y-93048176D01*
X91111000Y-93079453D01*
X91111000Y-93520547D01*
X91107920Y-93551824D01*
X91099510Y-93579545D01*
X91085856Y-93605089D01*
X91067480Y-93627480D01*
X91045089Y-93645856D01*
X91019545Y-93659510D01*
X90991824Y-93667920D01*
X90960547Y-93671000D01*
X90569453Y-93671000D01*
X90538176Y-93667920D01*
X90510455Y-93659510D01*
X90484911Y-93645856D01*
X90462520Y-93627480D01*
X90444144Y-93605089D01*
X90430490Y-93579545D01*
X90422080Y-93551824D01*
X90419000Y-93520547D01*
X90419000Y-93079453D01*
X90422080Y-93048176D01*
X90430490Y-93020455D01*
X90444144Y-92994911D01*
X90462520Y-92972520D01*
X90484911Y-92954144D01*
X90510455Y-92940490D01*
X90538176Y-92932080D01*
X90569453Y-92929000D01*
X90960547Y-92929000D01*
X90991824Y-92932080D01*
G37*
G36*
X91961824Y-92932080D02*
G01*
X91989545Y-92940490D01*
X92015089Y-92954144D01*
X92037480Y-92972520D01*
X92055856Y-92994911D01*
X92069510Y-93020455D01*
X92077920Y-93048176D01*
X92081000Y-93079453D01*
X92081000Y-93520547D01*
X92077920Y-93551824D01*
X92069510Y-93579545D01*
X92055856Y-93605089D01*
X92037480Y-93627480D01*
X92015089Y-93645856D01*
X91989545Y-93659510D01*
X91961824Y-93667920D01*
X91930547Y-93671000D01*
X91539453Y-93671000D01*
X91508176Y-93667920D01*
X91480455Y-93659510D01*
X91454911Y-93645856D01*
X91432520Y-93627480D01*
X91414144Y-93605089D01*
X91400490Y-93579545D01*
X91392080Y-93551824D01*
X91389000Y-93520547D01*
X91389000Y-93079453D01*
X91392080Y-93048176D01*
X91400490Y-93020455D01*
X91414144Y-92994911D01*
X91432520Y-92972520D01*
X91454911Y-92954144D01*
X91480455Y-92940490D01*
X91508176Y-92932080D01*
X91539453Y-92929000D01*
X91930547Y-92929000D01*
X91961824Y-92932080D01*
G37*
G36*
X109301824Y-92942080D02*
G01*
X109329545Y-92950490D01*
X109355089Y-92964144D01*
X109377480Y-92982520D01*
X109395856Y-93004911D01*
X109409510Y-93030455D01*
X109417920Y-93058176D01*
X109421000Y-93089453D01*
X109421000Y-93480547D01*
X109417920Y-93511824D01*
X109409510Y-93539545D01*
X109395856Y-93565089D01*
X109377480Y-93587480D01*
X109355089Y-93605856D01*
X109329545Y-93619510D01*
X109301824Y-93627920D01*
X109270547Y-93631000D01*
X108829453Y-93631000D01*
X108798176Y-93627920D01*
X108770455Y-93619510D01*
X108744911Y-93605856D01*
X108722520Y-93587480D01*
X108704144Y-93565089D01*
X108690490Y-93539545D01*
X108682080Y-93511824D01*
X108679000Y-93480547D01*
X108679000Y-93089453D01*
X108682080Y-93058176D01*
X108690490Y-93030455D01*
X108704144Y-93004911D01*
X108722520Y-92982520D01*
X108744911Y-92964144D01*
X108770455Y-92950490D01*
X108798176Y-92942080D01*
X108829453Y-92939000D01*
X109270547Y-92939000D01*
X109301824Y-92942080D01*
G37*
G36*
X96020180Y-91760687D02*
G01*
X96034301Y-91764971D01*
X96047312Y-91771925D01*
X96058715Y-91781285D01*
X96068075Y-91792688D01*
X96075029Y-91805699D01*
X96079313Y-91819820D01*
X96080242Y-91829255D01*
X96082154Y-91838868D01*
X96085904Y-91847924D01*
X96091350Y-91856073D01*
X96098280Y-91863004D01*
X96106430Y-91868450D01*
X96115485Y-91872201D01*
X96125098Y-91874113D01*
X96134900Y-91874113D01*
X96144513Y-91872201D01*
X96153569Y-91868451D01*
X96161718Y-91863005D01*
X96168649Y-91856075D01*
X96174095Y-91847925D01*
X96177846Y-91838870D01*
X96179758Y-91829255D01*
X96180687Y-91819820D01*
X96184971Y-91805699D01*
X96191925Y-91792688D01*
X96201285Y-91781285D01*
X96212688Y-91771925D01*
X96225699Y-91764971D01*
X96239820Y-91760687D01*
X96256953Y-91759000D01*
X96503047Y-91759000D01*
X96520180Y-91760687D01*
X96534301Y-91764971D01*
X96547312Y-91771925D01*
X96558715Y-91781285D01*
X96568075Y-91792688D01*
X96575029Y-91805699D01*
X96579313Y-91819820D01*
X96580242Y-91829255D01*
X96582154Y-91838868D01*
X96585904Y-91847924D01*
X96591350Y-91856073D01*
X96598280Y-91863004D01*
X96606430Y-91868450D01*
X96615485Y-91872201D01*
X96625098Y-91874113D01*
X96634900Y-91874113D01*
X96644513Y-91872201D01*
X96653569Y-91868451D01*
X96661718Y-91863005D01*
X96668649Y-91856075D01*
X96674095Y-91847925D01*
X96677846Y-91838870D01*
X96679758Y-91829255D01*
X96680687Y-91819820D01*
X96684971Y-91805699D01*
X96691925Y-91792688D01*
X96701285Y-91781285D01*
X96712688Y-91771925D01*
X96725699Y-91764971D01*
X96739820Y-91760687D01*
X96756953Y-91759000D01*
X97003047Y-91759000D01*
X97020180Y-91760687D01*
X97034301Y-91764971D01*
X97047312Y-91771925D01*
X97058715Y-91781285D01*
X97068075Y-91792688D01*
X97075029Y-91805699D01*
X97079313Y-91819820D01*
X97080242Y-91829255D01*
X97082154Y-91838868D01*
X97085904Y-91847924D01*
X97091350Y-91856073D01*
X97098280Y-91863004D01*
X97106430Y-91868450D01*
X97115485Y-91872201D01*
X97125098Y-91874113D01*
X97134900Y-91874113D01*
X97144513Y-91872201D01*
X97153569Y-91868451D01*
X97161718Y-91863005D01*
X97168649Y-91856075D01*
X97174095Y-91847925D01*
X97177846Y-91838870D01*
X97179758Y-91829255D01*
X97180687Y-91819820D01*
X97184971Y-91805699D01*
X97191925Y-91792688D01*
X97201285Y-91781285D01*
X97212688Y-91771925D01*
X97225699Y-91764971D01*
X97239820Y-91760687D01*
X97256953Y-91759000D01*
X97503047Y-91759000D01*
X97520180Y-91760687D01*
X97534301Y-91764971D01*
X97547312Y-91771925D01*
X97558715Y-91781285D01*
X97568075Y-91792688D01*
X97575029Y-91805699D01*
X97579313Y-91819820D01*
X97580242Y-91829255D01*
X97582154Y-91838868D01*
X97585904Y-91847924D01*
X97591350Y-91856073D01*
X97598280Y-91863004D01*
X97606430Y-91868450D01*
X97615485Y-91872201D01*
X97625098Y-91874113D01*
X97634900Y-91874113D01*
X97644513Y-91872201D01*
X97653569Y-91868451D01*
X97661718Y-91863005D01*
X97668649Y-91856075D01*
X97674095Y-91847925D01*
X97677846Y-91838870D01*
X97679758Y-91829255D01*
X97680687Y-91819820D01*
X97684971Y-91805699D01*
X97691925Y-91792688D01*
X97701285Y-91781285D01*
X97712688Y-91771925D01*
X97725699Y-91764971D01*
X97739820Y-91760687D01*
X97756953Y-91759000D01*
X98003047Y-91759000D01*
X98020180Y-91760687D01*
X98034301Y-91764971D01*
X98047312Y-91771925D01*
X98058715Y-91781285D01*
X98068075Y-91792688D01*
X98075029Y-91805699D01*
X98079313Y-91819820D01*
X98080242Y-91829255D01*
X98082154Y-91838868D01*
X98085904Y-91847924D01*
X98091350Y-91856073D01*
X98098280Y-91863004D01*
X98106430Y-91868450D01*
X98115485Y-91872201D01*
X98125098Y-91874113D01*
X98134900Y-91874113D01*
X98144513Y-91872201D01*
X98153569Y-91868451D01*
X98161718Y-91863005D01*
X98168649Y-91856075D01*
X98174095Y-91847925D01*
X98177846Y-91838870D01*
X98179758Y-91829255D01*
X98180687Y-91819820D01*
X98184971Y-91805699D01*
X98191925Y-91792688D01*
X98201285Y-91781285D01*
X98212688Y-91771925D01*
X98225699Y-91764971D01*
X98239820Y-91760687D01*
X98256953Y-91759000D01*
X98503047Y-91759000D01*
X98520180Y-91760687D01*
X98534301Y-91764971D01*
X98547312Y-91771925D01*
X98558715Y-91781285D01*
X98568075Y-91792688D01*
X98575029Y-91805699D01*
X98579313Y-91819820D01*
X98580242Y-91829255D01*
X98582154Y-91838868D01*
X98585904Y-91847924D01*
X98591350Y-91856073D01*
X98598280Y-91863004D01*
X98606430Y-91868450D01*
X98615485Y-91872201D01*
X98625098Y-91874113D01*
X98634900Y-91874113D01*
X98644513Y-91872201D01*
X98653569Y-91868451D01*
X98661718Y-91863005D01*
X98668649Y-91856075D01*
X98674095Y-91847925D01*
X98677846Y-91838870D01*
X98679758Y-91829255D01*
X98680687Y-91819820D01*
X98684971Y-91805699D01*
X98691925Y-91792688D01*
X98701285Y-91781285D01*
X98712688Y-91771925D01*
X98725699Y-91764971D01*
X98739820Y-91760687D01*
X98756953Y-91759000D01*
X99003047Y-91759000D01*
X99020180Y-91760687D01*
X99034301Y-91764971D01*
X99047312Y-91771925D01*
X99058715Y-91781285D01*
X99068075Y-91792688D01*
X99075029Y-91805699D01*
X99079313Y-91819820D01*
X99080242Y-91829255D01*
X99082154Y-91838868D01*
X99085904Y-91847924D01*
X99091350Y-91856073D01*
X99098280Y-91863004D01*
X99106430Y-91868450D01*
X99115485Y-91872201D01*
X99125098Y-91874113D01*
X99134900Y-91874113D01*
X99144513Y-91872201D01*
X99153569Y-91868451D01*
X99161718Y-91863005D01*
X99168649Y-91856075D01*
X99174095Y-91847925D01*
X99177846Y-91838870D01*
X99179758Y-91829255D01*
X99180687Y-91819820D01*
X99184971Y-91805699D01*
X99191925Y-91792688D01*
X99201285Y-91781285D01*
X99212688Y-91771925D01*
X99225699Y-91764971D01*
X99239820Y-91760687D01*
X99256953Y-91759000D01*
X99503047Y-91759000D01*
X99520180Y-91760687D01*
X99534301Y-91764971D01*
X99547312Y-91771925D01*
X99558715Y-91781285D01*
X99568075Y-91792688D01*
X99575029Y-91805699D01*
X99579313Y-91819820D01*
X99580242Y-91829255D01*
X99582154Y-91838868D01*
X99585904Y-91847924D01*
X99591350Y-91856073D01*
X99598280Y-91863004D01*
X99606430Y-91868450D01*
X99615485Y-91872201D01*
X99625098Y-91874113D01*
X99634900Y-91874113D01*
X99644513Y-91872201D01*
X99653569Y-91868451D01*
X99661718Y-91863005D01*
X99668649Y-91856075D01*
X99674095Y-91847925D01*
X99677846Y-91838870D01*
X99679758Y-91829255D01*
X99680687Y-91819820D01*
X99684971Y-91805699D01*
X99691925Y-91792688D01*
X99701285Y-91781285D01*
X99712688Y-91771925D01*
X99725699Y-91764971D01*
X99739820Y-91760687D01*
X99756953Y-91759000D01*
X100003047Y-91759000D01*
X100020180Y-91760687D01*
X100034301Y-91764971D01*
X100047312Y-91771925D01*
X100058715Y-91781285D01*
X100068075Y-91792688D01*
X100075029Y-91805699D01*
X100079313Y-91819820D01*
X100080242Y-91829255D01*
X100082154Y-91838868D01*
X100085904Y-91847924D01*
X100091350Y-91856073D01*
X100098280Y-91863004D01*
X100106430Y-91868450D01*
X100115485Y-91872201D01*
X100125098Y-91874113D01*
X100134900Y-91874113D01*
X100144513Y-91872201D01*
X100153569Y-91868451D01*
X100161718Y-91863005D01*
X100168649Y-91856075D01*
X100174095Y-91847925D01*
X100177846Y-91838870D01*
X100179758Y-91829255D01*
X100180687Y-91819820D01*
X100184971Y-91805699D01*
X100191925Y-91792688D01*
X100201285Y-91781285D01*
X100212688Y-91771925D01*
X100225699Y-91764971D01*
X100239820Y-91760687D01*
X100256953Y-91759000D01*
X100503047Y-91759000D01*
X100520180Y-91760687D01*
X100534301Y-91764971D01*
X100547312Y-91771925D01*
X100558715Y-91781285D01*
X100568075Y-91792688D01*
X100575029Y-91805699D01*
X100579313Y-91819820D01*
X100580242Y-91829255D01*
X100582154Y-91838868D01*
X100585904Y-91847924D01*
X100591350Y-91856073D01*
X100598280Y-91863004D01*
X100606430Y-91868450D01*
X100615485Y-91872201D01*
X100625098Y-91874113D01*
X100634900Y-91874113D01*
X100644513Y-91872201D01*
X100653569Y-91868451D01*
X100661718Y-91863005D01*
X100668649Y-91856075D01*
X100674095Y-91847925D01*
X100677846Y-91838870D01*
X100679758Y-91829255D01*
X100680687Y-91819820D01*
X100684971Y-91805699D01*
X100691925Y-91792688D01*
X100701285Y-91781285D01*
X100712688Y-91771925D01*
X100725699Y-91764971D01*
X100739820Y-91760687D01*
X100756953Y-91759000D01*
X101003047Y-91759000D01*
X101020180Y-91760687D01*
X101034301Y-91764971D01*
X101047312Y-91771925D01*
X101058715Y-91781285D01*
X101068075Y-91792688D01*
X101075029Y-91805699D01*
X101079313Y-91819820D01*
X101080242Y-91829255D01*
X101082154Y-91838868D01*
X101085904Y-91847924D01*
X101091350Y-91856073D01*
X101098280Y-91863004D01*
X101106430Y-91868450D01*
X101115485Y-91872201D01*
X101125098Y-91874113D01*
X101134900Y-91874113D01*
X101144513Y-91872201D01*
X101153569Y-91868451D01*
X101161718Y-91863005D01*
X101168649Y-91856075D01*
X101174095Y-91847925D01*
X101177846Y-91838870D01*
X101179758Y-91829255D01*
X101180687Y-91819820D01*
X101184971Y-91805699D01*
X101191925Y-91792688D01*
X101201285Y-91781285D01*
X101212688Y-91771925D01*
X101225699Y-91764971D01*
X101239820Y-91760687D01*
X101256953Y-91759000D01*
X101503047Y-91759000D01*
X101520180Y-91760687D01*
X101534301Y-91764971D01*
X101547312Y-91771925D01*
X101558715Y-91781285D01*
X101568075Y-91792688D01*
X101575029Y-91805699D01*
X101579313Y-91819820D01*
X101581000Y-91836953D01*
X101581000Y-93258047D01*
X101579313Y-93275180D01*
X101575029Y-93289301D01*
X101568075Y-93302312D01*
X101558715Y-93313715D01*
X101547312Y-93323075D01*
X101534301Y-93330029D01*
X101520180Y-93334313D01*
X101503047Y-93336000D01*
X101256953Y-93336000D01*
X101239820Y-93334313D01*
X101225699Y-93330029D01*
X101212688Y-93323075D01*
X101201285Y-93313715D01*
X101191925Y-93302312D01*
X101184971Y-93289301D01*
X101180687Y-93275180D01*
X101179758Y-93265745D01*
X101177846Y-93256132D01*
X101174096Y-93247076D01*
X101168650Y-93238927D01*
X101161720Y-93231996D01*
X101153570Y-93226550D01*
X101144515Y-93222799D01*
X101134902Y-93220887D01*
X101125100Y-93220887D01*
X101115487Y-93222799D01*
X101106431Y-93226549D01*
X101098282Y-93231995D01*
X101091351Y-93238925D01*
X101085905Y-93247075D01*
X101082154Y-93256130D01*
X101080242Y-93265745D01*
X101079313Y-93275180D01*
X101075029Y-93289301D01*
X101068075Y-93302312D01*
X101058715Y-93313715D01*
X101047312Y-93323075D01*
X101034301Y-93330029D01*
X101020180Y-93334313D01*
X101003047Y-93336000D01*
X100756953Y-93336000D01*
X100739820Y-93334313D01*
X100725699Y-93330029D01*
X100712688Y-93323075D01*
X100701285Y-93313715D01*
X100691925Y-93302312D01*
X100684971Y-93289301D01*
X100680687Y-93275180D01*
X100679758Y-93265745D01*
X100677846Y-93256132D01*
X100674096Y-93247076D01*
X100668650Y-93238927D01*
X100661720Y-93231996D01*
X100653570Y-93226550D01*
X100644515Y-93222799D01*
X100634902Y-93220887D01*
X100625100Y-93220887D01*
X100615487Y-93222799D01*
X100606431Y-93226549D01*
X100598282Y-93231995D01*
X100591351Y-93238925D01*
X100585905Y-93247075D01*
X100582154Y-93256130D01*
X100580242Y-93265745D01*
X100579313Y-93275180D01*
X100575029Y-93289301D01*
X100568075Y-93302312D01*
X100558715Y-93313715D01*
X100547312Y-93323075D01*
X100534301Y-93330029D01*
X100520180Y-93334313D01*
X100503047Y-93336000D01*
X100256953Y-93336000D01*
X100239820Y-93334313D01*
X100225699Y-93330029D01*
X100212688Y-93323075D01*
X100201285Y-93313715D01*
X100191925Y-93302312D01*
X100184971Y-93289301D01*
X100180687Y-93275180D01*
X100179758Y-93265745D01*
X100177846Y-93256132D01*
X100174096Y-93247076D01*
X100168650Y-93238927D01*
X100161720Y-93231996D01*
X100153570Y-93226550D01*
X100144515Y-93222799D01*
X100134902Y-93220887D01*
X100125100Y-93220887D01*
X100115487Y-93222799D01*
X100106431Y-93226549D01*
X100098282Y-93231995D01*
X100091351Y-93238925D01*
X100085905Y-93247075D01*
X100082154Y-93256130D01*
X100080242Y-93265745D01*
X100079313Y-93275180D01*
X100075029Y-93289301D01*
X100068075Y-93302312D01*
X100058715Y-93313715D01*
X100047312Y-93323075D01*
X100034301Y-93330029D01*
X100020180Y-93334313D01*
X100003047Y-93336000D01*
X99756953Y-93336000D01*
X99739820Y-93334313D01*
X99725699Y-93330029D01*
X99712688Y-93323075D01*
X99701285Y-93313715D01*
X99691925Y-93302312D01*
X99684971Y-93289301D01*
X99680687Y-93275180D01*
X99679758Y-93265745D01*
X99677846Y-93256132D01*
X99674096Y-93247076D01*
X99668650Y-93238927D01*
X99661720Y-93231996D01*
X99653570Y-93226550D01*
X99644515Y-93222799D01*
X99634902Y-93220887D01*
X99625100Y-93220887D01*
X99615487Y-93222799D01*
X99606431Y-93226549D01*
X99598282Y-93231995D01*
X99591351Y-93238925D01*
X99585905Y-93247075D01*
X99582154Y-93256130D01*
X99580242Y-93265745D01*
X99579313Y-93275180D01*
X99575029Y-93289301D01*
X99568075Y-93302312D01*
X99558715Y-93313715D01*
X99547312Y-93323075D01*
X99534301Y-93330029D01*
X99520180Y-93334313D01*
X99503047Y-93336000D01*
X99256953Y-93336000D01*
X99239820Y-93334313D01*
X99225699Y-93330029D01*
X99212688Y-93323075D01*
X99201285Y-93313715D01*
X99191925Y-93302312D01*
X99184971Y-93289301D01*
X99180687Y-93275180D01*
X99179758Y-93265745D01*
X99177846Y-93256132D01*
X99174096Y-93247076D01*
X99168650Y-93238927D01*
X99161720Y-93231996D01*
X99153570Y-93226550D01*
X99144515Y-93222799D01*
X99134902Y-93220887D01*
X99125100Y-93220887D01*
X99115487Y-93222799D01*
X99106431Y-93226549D01*
X99098282Y-93231995D01*
X99091351Y-93238925D01*
X99085905Y-93247075D01*
X99082154Y-93256130D01*
X99080242Y-93265745D01*
X99079313Y-93275180D01*
X99075029Y-93289301D01*
X99068075Y-93302312D01*
X99058715Y-93313715D01*
X99047312Y-93323075D01*
X99034301Y-93330029D01*
X99020180Y-93334313D01*
X99003047Y-93336000D01*
X98756953Y-93336000D01*
X98739820Y-93334313D01*
X98725699Y-93330029D01*
X98712688Y-93323075D01*
X98701285Y-93313715D01*
X98691925Y-93302312D01*
X98684971Y-93289301D01*
X98680687Y-93275180D01*
X98679758Y-93265745D01*
X98677846Y-93256132D01*
X98674096Y-93247076D01*
X98668650Y-93238927D01*
X98661720Y-93231996D01*
X98653570Y-93226550D01*
X98644515Y-93222799D01*
X98634902Y-93220887D01*
X98625100Y-93220887D01*
X98615487Y-93222799D01*
X98606431Y-93226549D01*
X98598282Y-93231995D01*
X98591351Y-93238925D01*
X98585905Y-93247075D01*
X98582154Y-93256130D01*
X98580242Y-93265745D01*
X98579313Y-93275180D01*
X98575029Y-93289301D01*
X98568075Y-93302312D01*
X98558715Y-93313715D01*
X98547312Y-93323075D01*
X98534301Y-93330029D01*
X98520180Y-93334313D01*
X98503047Y-93336000D01*
X98256953Y-93336000D01*
X98239820Y-93334313D01*
X98225699Y-93330029D01*
X98212688Y-93323075D01*
X98201285Y-93313715D01*
X98191925Y-93302312D01*
X98184971Y-93289301D01*
X98180687Y-93275180D01*
X98179758Y-93265745D01*
X98177846Y-93256132D01*
X98174096Y-93247076D01*
X98168650Y-93238927D01*
X98161720Y-93231996D01*
X98153570Y-93226550D01*
X98144515Y-93222799D01*
X98134902Y-93220887D01*
X98125100Y-93220887D01*
X98115487Y-93222799D01*
X98106431Y-93226549D01*
X98098282Y-93231995D01*
X98091351Y-93238925D01*
X98085905Y-93247075D01*
X98082154Y-93256130D01*
X98080242Y-93265745D01*
X98079313Y-93275180D01*
X98075029Y-93289301D01*
X98068075Y-93302312D01*
X98058715Y-93313715D01*
X98047312Y-93323075D01*
X98034301Y-93330029D01*
X98020180Y-93334313D01*
X98003047Y-93336000D01*
X97756953Y-93336000D01*
X97739820Y-93334313D01*
X97725699Y-93330029D01*
X97712688Y-93323075D01*
X97701285Y-93313715D01*
X97691925Y-93302312D01*
X97684971Y-93289301D01*
X97680687Y-93275180D01*
X97679758Y-93265745D01*
X97677846Y-93256132D01*
X97674096Y-93247076D01*
X97668650Y-93238927D01*
X97661720Y-93231996D01*
X97653570Y-93226550D01*
X97644515Y-93222799D01*
X97634902Y-93220887D01*
X97625100Y-93220887D01*
X97615487Y-93222799D01*
X97606431Y-93226549D01*
X97598282Y-93231995D01*
X97591351Y-93238925D01*
X97585905Y-93247075D01*
X97582154Y-93256130D01*
X97580242Y-93265745D01*
X97579313Y-93275180D01*
X97575029Y-93289301D01*
X97568075Y-93302312D01*
X97558715Y-93313715D01*
X97547312Y-93323075D01*
X97534301Y-93330029D01*
X97520180Y-93334313D01*
X97503047Y-93336000D01*
X97256953Y-93336000D01*
X97239820Y-93334313D01*
X97225699Y-93330029D01*
X97212688Y-93323075D01*
X97201285Y-93313715D01*
X97191925Y-93302312D01*
X97184971Y-93289301D01*
X97180687Y-93275180D01*
X97179758Y-93265745D01*
X97177846Y-93256132D01*
X97174096Y-93247076D01*
X97168650Y-93238927D01*
X97161720Y-93231996D01*
X97153570Y-93226550D01*
X97144515Y-93222799D01*
X97134902Y-93220887D01*
X97125100Y-93220887D01*
X97115487Y-93222799D01*
X97106431Y-93226549D01*
X97098282Y-93231995D01*
X97091351Y-93238925D01*
X97085905Y-93247075D01*
X97082154Y-93256130D01*
X97080242Y-93265745D01*
X97079313Y-93275180D01*
X97075029Y-93289301D01*
X97068075Y-93302312D01*
X97058715Y-93313715D01*
X97047312Y-93323075D01*
X97034301Y-93330029D01*
X97020180Y-93334313D01*
X97003047Y-93336000D01*
X96756953Y-93336000D01*
X96739820Y-93334313D01*
X96725699Y-93330029D01*
X96712688Y-93323075D01*
X96701285Y-93313715D01*
X96691925Y-93302312D01*
X96684971Y-93289301D01*
X96680687Y-93275180D01*
X96679758Y-93265745D01*
X96677846Y-93256132D01*
X96674096Y-93247076D01*
X96668650Y-93238927D01*
X96661720Y-93231996D01*
X96653570Y-93226550D01*
X96644515Y-93222799D01*
X96634902Y-93220887D01*
X96625100Y-93220887D01*
X96615487Y-93222799D01*
X96606431Y-93226549D01*
X96598282Y-93231995D01*
X96591351Y-93238925D01*
X96585905Y-93247075D01*
X96582154Y-93256130D01*
X96580242Y-93265745D01*
X96579313Y-93275180D01*
X96575029Y-93289301D01*
X96568075Y-93302312D01*
X96558715Y-93313715D01*
X96547312Y-93323075D01*
X96534301Y-93330029D01*
X96520180Y-93334313D01*
X96503047Y-93336000D01*
X96256953Y-93336000D01*
X96239820Y-93334313D01*
X96225699Y-93330029D01*
X96212688Y-93323075D01*
X96201285Y-93313715D01*
X96191925Y-93302312D01*
X96184971Y-93289301D01*
X96180687Y-93275180D01*
X96179758Y-93265745D01*
X96177846Y-93256132D01*
X96174096Y-93247076D01*
X96168650Y-93238927D01*
X96161720Y-93231996D01*
X96153570Y-93226550D01*
X96144515Y-93222799D01*
X96134902Y-93220887D01*
X96125100Y-93220887D01*
X96115487Y-93222799D01*
X96106431Y-93226549D01*
X96098282Y-93231995D01*
X96091351Y-93238925D01*
X96085905Y-93247075D01*
X96082154Y-93256130D01*
X96080242Y-93265745D01*
X96079313Y-93275180D01*
X96075029Y-93289301D01*
X96068075Y-93302312D01*
X96058715Y-93313715D01*
X96047312Y-93323075D01*
X96034301Y-93330029D01*
X96020180Y-93334313D01*
X96003047Y-93336000D01*
X95756953Y-93336000D01*
X95739820Y-93334313D01*
X95725699Y-93330029D01*
X95712688Y-93323075D01*
X95701285Y-93313715D01*
X95691925Y-93302312D01*
X95684971Y-93289301D01*
X95680687Y-93275180D01*
X95679000Y-93258047D01*
X95679000Y-91836953D01*
X95680687Y-91819820D01*
X95684971Y-91805699D01*
X95691925Y-91792688D01*
X95701285Y-91781285D01*
X95712688Y-91771925D01*
X95725699Y-91764971D01*
X95739820Y-91760687D01*
X95756953Y-91759000D01*
X96003047Y-91759000D01*
X96020180Y-91760687D01*
G37*
G36*
X94251824Y-92492080D02*
G01*
X94279545Y-92500490D01*
X94305089Y-92514144D01*
X94327480Y-92532520D01*
X94345856Y-92554911D01*
X94359510Y-92580455D01*
X94367920Y-92608176D01*
X94371000Y-92639453D01*
X94371000Y-93030547D01*
X94367920Y-93061824D01*
X94359510Y-93089545D01*
X94345856Y-93115089D01*
X94327480Y-93137480D01*
X94305089Y-93155856D01*
X94279545Y-93169510D01*
X94251824Y-93177920D01*
X94220547Y-93181000D01*
X93779453Y-93181000D01*
X93748176Y-93177920D01*
X93720455Y-93169510D01*
X93694911Y-93155856D01*
X93672520Y-93137480D01*
X93654144Y-93115089D01*
X93640490Y-93089545D01*
X93632080Y-93061824D01*
X93629000Y-93030547D01*
X93629000Y-92639453D01*
X93632080Y-92608176D01*
X93640490Y-92580455D01*
X93654144Y-92554911D01*
X93672520Y-92532520D01*
X93694911Y-92514144D01*
X93720455Y-92500490D01*
X93748176Y-92492080D01*
X93779453Y-92489000D01*
X94220547Y-92489000D01*
X94251824Y-92492080D01*
G37*
G36*
X103749477Y-92103450D02*
G01*
X103790559Y-92115912D01*
X103828424Y-92136152D01*
X103861612Y-92163388D01*
X103888848Y-92196576D01*
X103909088Y-92234441D01*
X103921550Y-92275523D01*
X103926000Y-92320704D01*
X103926000Y-92854296D01*
X103921550Y-92899477D01*
X103909088Y-92940559D01*
X103888848Y-92978424D01*
X103861612Y-93011612D01*
X103828424Y-93038848D01*
X103790559Y-93059088D01*
X103749477Y-93071550D01*
X103704296Y-93076000D01*
X103095704Y-93076000D01*
X103050523Y-93071550D01*
X103009441Y-93059088D01*
X102971576Y-93038848D01*
X102938388Y-93011612D01*
X102911152Y-92978424D01*
X102890912Y-92940559D01*
X102878450Y-92899477D01*
X102874000Y-92854296D01*
X102874000Y-92320704D01*
X102878450Y-92275523D01*
X102890912Y-92234441D01*
X102911152Y-92196576D01*
X102938388Y-92163388D01*
X102971576Y-92136152D01*
X103009441Y-92115912D01*
X103050523Y-92103450D01*
X103095704Y-92099000D01*
X103704296Y-92099000D01*
X103749477Y-92103450D01*
G37*
G36*
X107931000Y-92976000D02*
G01*
X106769000Y-92976000D01*
X106769000Y-92224000D01*
X107931000Y-92224000D01*
X107931000Y-92976000D01*
G37*
G36*
X105731000Y-92976000D02*
G01*
X104569000Y-92976000D01*
X104569000Y-92224000D01*
X105731000Y-92224000D01*
X105731000Y-92976000D01*
G37*
G36*
X109301824Y-91972080D02*
G01*
X109329545Y-91980490D01*
X109355089Y-91994144D01*
X109377480Y-92012520D01*
X109395856Y-92034911D01*
X109409510Y-92060455D01*
X109417920Y-92088176D01*
X109421000Y-92119453D01*
X109421000Y-92510547D01*
X109417920Y-92541824D01*
X109409510Y-92569545D01*
X109395856Y-92595089D01*
X109377480Y-92617480D01*
X109355089Y-92635856D01*
X109329545Y-92649510D01*
X109301824Y-92657920D01*
X109270547Y-92661000D01*
X108829453Y-92661000D01*
X108798176Y-92657920D01*
X108770455Y-92649510D01*
X108744911Y-92635856D01*
X108722520Y-92617480D01*
X108704144Y-92595089D01*
X108690490Y-92569545D01*
X108682080Y-92541824D01*
X108679000Y-92510547D01*
X108679000Y-92119453D01*
X108682080Y-92088176D01*
X108690490Y-92060455D01*
X108704144Y-92034911D01*
X108722520Y-92012520D01*
X108744911Y-91994144D01*
X108770455Y-91980490D01*
X108798176Y-91972080D01*
X108829453Y-91969000D01*
X109270547Y-91969000D01*
X109301824Y-91972080D01*
G37*
G36*
X94251824Y-91522080D02*
G01*
X94279545Y-91530490D01*
X94305089Y-91544144D01*
X94327480Y-91562520D01*
X94345856Y-91584911D01*
X94359510Y-91610455D01*
X94367920Y-91638176D01*
X94371000Y-91669453D01*
X94371000Y-92060547D01*
X94367920Y-92091824D01*
X94359510Y-92119545D01*
X94345856Y-92145089D01*
X94327480Y-92167480D01*
X94305089Y-92185856D01*
X94279545Y-92199510D01*
X94251824Y-92207920D01*
X94220547Y-92211000D01*
X93779453Y-92211000D01*
X93748176Y-92207920D01*
X93720455Y-92199510D01*
X93694911Y-92185856D01*
X93672520Y-92167480D01*
X93654144Y-92145089D01*
X93640490Y-92119545D01*
X93632080Y-92091824D01*
X93629000Y-92060547D01*
X93629000Y-91669453D01*
X93632080Y-91638176D01*
X93640490Y-91610455D01*
X93654144Y-91584911D01*
X93672520Y-91562520D01*
X93694911Y-91544144D01*
X93720455Y-91530490D01*
X93748176Y-91522080D01*
X93779453Y-91519000D01*
X94220547Y-91519000D01*
X94251824Y-91522080D01*
G37*
G36*
X91768199Y-91300335D02*
G01*
X91795920Y-91308745D01*
X91821464Y-91322399D01*
X91845760Y-91342338D01*
X91861698Y-91358276D01*
X91861704Y-91358281D01*
X92141719Y-91638296D01*
X92141724Y-91638302D01*
X92157662Y-91654240D01*
X92177601Y-91678536D01*
X92191255Y-91704080D01*
X92199665Y-91731801D01*
X92202503Y-91760625D01*
X92199665Y-91789449D01*
X92191255Y-91817170D01*
X92177601Y-91842714D01*
X92157662Y-91867010D01*
X92141724Y-91882948D01*
X92141719Y-91882954D01*
X91897060Y-92127613D01*
X91897054Y-92127618D01*
X91881116Y-92143556D01*
X91856820Y-92163495D01*
X91831276Y-92177149D01*
X91803555Y-92185559D01*
X91774731Y-92188397D01*
X91745907Y-92185559D01*
X91718186Y-92177149D01*
X91692642Y-92163495D01*
X91668346Y-92143556D01*
X91652408Y-92127618D01*
X91652402Y-92127613D01*
X91372387Y-91847598D01*
X91372382Y-91847592D01*
X91356444Y-91831654D01*
X91336505Y-91807358D01*
X91322851Y-91781814D01*
X91314441Y-91754093D01*
X91311603Y-91725269D01*
X91314441Y-91696445D01*
X91322851Y-91668724D01*
X91336505Y-91643180D01*
X91356444Y-91618884D01*
X91372382Y-91602946D01*
X91372387Y-91602940D01*
X91617046Y-91358281D01*
X91617052Y-91358276D01*
X91632990Y-91342338D01*
X91657286Y-91322399D01*
X91682830Y-91308745D01*
X91710551Y-91300335D01*
X91739375Y-91297497D01*
X91768199Y-91300335D01*
G37*
G36*
X107931000Y-92026000D02*
G01*
X106769000Y-92026000D01*
X106769000Y-91274000D01*
X107931000Y-91274000D01*
X107931000Y-92026000D01*
G37*
G36*
X105731000Y-92026000D02*
G01*
X104569000Y-92026000D01*
X104569000Y-91274000D01*
X105731000Y-91274000D01*
X105731000Y-92026000D01*
G37*
G36*
X92454093Y-90614441D02*
G01*
X92481814Y-90622851D01*
X92507358Y-90636505D01*
X92531654Y-90656444D01*
X92547592Y-90672382D01*
X92547598Y-90672387D01*
X92827613Y-90952402D01*
X92827618Y-90952408D01*
X92843556Y-90968346D01*
X92863495Y-90992642D01*
X92877149Y-91018186D01*
X92885559Y-91045907D01*
X92888397Y-91074731D01*
X92885559Y-91103555D01*
X92877149Y-91131276D01*
X92863495Y-91156820D01*
X92843556Y-91181116D01*
X92827618Y-91197054D01*
X92827613Y-91197060D01*
X92582954Y-91441719D01*
X92582948Y-91441724D01*
X92567010Y-91457662D01*
X92542714Y-91477601D01*
X92517170Y-91491255D01*
X92489449Y-91499665D01*
X92460625Y-91502503D01*
X92431801Y-91499665D01*
X92404080Y-91491255D01*
X92378536Y-91477601D01*
X92354240Y-91457662D01*
X92338302Y-91441724D01*
X92338296Y-91441719D01*
X92058281Y-91161704D01*
X92058276Y-91161698D01*
X92042338Y-91145760D01*
X92022399Y-91121464D01*
X92008745Y-91095920D01*
X92000335Y-91068199D01*
X91997497Y-91039375D01*
X92000335Y-91010551D01*
X92008745Y-90982830D01*
X92022399Y-90957286D01*
X92042338Y-90932990D01*
X92058276Y-90917052D01*
X92058281Y-90917046D01*
X92302940Y-90672387D01*
X92302946Y-90672382D01*
X92318884Y-90656444D01*
X92343180Y-90636505D01*
X92368724Y-90622851D01*
X92396445Y-90614441D01*
X92425269Y-90611603D01*
X92454093Y-90614441D01*
G37*
G36*
X103749477Y-90528450D02*
G01*
X103790559Y-90540912D01*
X103828424Y-90561152D01*
X103861612Y-90588388D01*
X103888848Y-90621576D01*
X103909088Y-90659441D01*
X103921550Y-90700523D01*
X103926000Y-90745704D01*
X103926000Y-91279296D01*
X103921550Y-91324477D01*
X103909088Y-91365559D01*
X103888848Y-91403424D01*
X103861612Y-91436612D01*
X103828424Y-91463848D01*
X103790559Y-91484088D01*
X103749477Y-91496550D01*
X103704296Y-91501000D01*
X103095704Y-91501000D01*
X103050523Y-91496550D01*
X103009441Y-91484088D01*
X102971576Y-91463848D01*
X102938388Y-91436612D01*
X102911152Y-91403424D01*
X102890912Y-91365559D01*
X102878450Y-91324477D01*
X102874000Y-91279296D01*
X102874000Y-90745704D01*
X102878450Y-90700523D01*
X102890912Y-90659441D01*
X102911152Y-90621576D01*
X102938388Y-90588388D01*
X102971576Y-90561152D01*
X103009441Y-90540912D01*
X103050523Y-90528450D01*
X103095704Y-90524000D01*
X103704296Y-90524000D01*
X103749477Y-90528450D01*
G37*
G36*
X96141824Y-90482080D02*
G01*
X96169545Y-90490490D01*
X96195089Y-90504144D01*
X96217480Y-90522520D01*
X96235856Y-90544911D01*
X96249510Y-90570455D01*
X96257920Y-90598176D01*
X96261000Y-90629453D01*
X96261000Y-91070547D01*
X96257920Y-91101824D01*
X96249510Y-91129545D01*
X96235856Y-91155089D01*
X96217480Y-91177480D01*
X96195089Y-91195856D01*
X96169545Y-91209510D01*
X96141824Y-91217920D01*
X96110547Y-91221000D01*
X95719453Y-91221000D01*
X95688176Y-91217920D01*
X95660455Y-91209510D01*
X95634911Y-91195856D01*
X95612520Y-91177480D01*
X95594144Y-91155089D01*
X95580490Y-91129545D01*
X95572080Y-91101824D01*
X95569000Y-91070547D01*
X95569000Y-90629453D01*
X95572080Y-90598176D01*
X95580490Y-90570455D01*
X95594144Y-90544911D01*
X95612520Y-90522520D01*
X95634911Y-90504144D01*
X95660455Y-90490490D01*
X95688176Y-90482080D01*
X95719453Y-90479000D01*
X96110547Y-90479000D01*
X96141824Y-90482080D01*
G37*
G36*
X97111824Y-90482080D02*
G01*
X97139545Y-90490490D01*
X97165089Y-90504144D01*
X97187480Y-90522520D01*
X97205856Y-90544911D01*
X97219510Y-90570455D01*
X97227920Y-90598176D01*
X97231000Y-90629453D01*
X97231000Y-91070547D01*
X97227920Y-91101824D01*
X97219510Y-91129545D01*
X97205856Y-91155089D01*
X97187480Y-91177480D01*
X97165089Y-91195856D01*
X97139545Y-91209510D01*
X97111824Y-91217920D01*
X97080547Y-91221000D01*
X96689453Y-91221000D01*
X96658176Y-91217920D01*
X96630455Y-91209510D01*
X96604911Y-91195856D01*
X96582520Y-91177480D01*
X96564144Y-91155089D01*
X96550490Y-91129545D01*
X96542080Y-91101824D01*
X96539000Y-91070547D01*
X96539000Y-90629453D01*
X96542080Y-90598176D01*
X96550490Y-90570455D01*
X96564144Y-90544911D01*
X96582520Y-90522520D01*
X96604911Y-90504144D01*
X96630455Y-90490490D01*
X96658176Y-90482080D01*
X96689453Y-90479000D01*
X97080547Y-90479000D01*
X97111824Y-90482080D01*
G37*
G36*
X105731000Y-91076000D02*
G01*
X104569000Y-91076000D01*
X104569000Y-90324000D01*
X105731000Y-90324000D01*
X105731000Y-91076000D01*
G37*
G36*
X107931000Y-91076000D02*
G01*
X106769000Y-91076000D01*
X106769000Y-90324000D01*
X107931000Y-90324000D01*
X107931000Y-91076000D01*
G37*
G36*
X93673191Y-89727652D02*
G01*
X93700306Y-89737858D01*
X93724901Y-89753152D01*
X93746042Y-89772952D01*
X93764352Y-89798505D01*
X93984893Y-90180494D01*
X93997867Y-90209126D01*
X94004445Y-90237340D01*
X94005393Y-90266287D01*
X94000675Y-90294864D01*
X93990469Y-90321979D01*
X93975175Y-90346574D01*
X93955376Y-90367713D01*
X93929822Y-90386025D01*
X93591132Y-90581568D01*
X93562503Y-90594540D01*
X93534289Y-90601118D01*
X93505342Y-90602066D01*
X93476765Y-90597348D01*
X93449650Y-90587142D01*
X93425055Y-90571848D01*
X93403914Y-90552048D01*
X93385604Y-90526495D01*
X93165063Y-90144506D01*
X93152089Y-90115874D01*
X93145511Y-90087660D01*
X93144563Y-90058713D01*
X93149281Y-90030136D01*
X93159487Y-90003021D01*
X93174781Y-89978426D01*
X93194580Y-89957287D01*
X93220134Y-89938975D01*
X93558824Y-89743432D01*
X93587453Y-89730460D01*
X93615667Y-89723882D01*
X93644614Y-89722934D01*
X93673191Y-89727652D01*
G37*
G36*
X96141824Y-89382080D02*
G01*
X96169545Y-89390490D01*
X96195089Y-89404144D01*
X96217480Y-89422520D01*
X96235856Y-89444911D01*
X96249510Y-89470455D01*
X96257920Y-89498176D01*
X96261000Y-89529453D01*
X96261000Y-89970547D01*
X96257920Y-90001824D01*
X96249510Y-90029545D01*
X96235856Y-90055089D01*
X96217480Y-90077480D01*
X96195089Y-90095856D01*
X96169545Y-90109510D01*
X96141824Y-90117920D01*
X96110547Y-90121000D01*
X95719453Y-90121000D01*
X95688176Y-90117920D01*
X95660455Y-90109510D01*
X95634911Y-90095856D01*
X95612520Y-90077480D01*
X95594144Y-90055089D01*
X95580490Y-90029545D01*
X95572080Y-90001824D01*
X95569000Y-89970547D01*
X95569000Y-89529453D01*
X95572080Y-89498176D01*
X95580490Y-89470455D01*
X95594144Y-89444911D01*
X95612520Y-89422520D01*
X95634911Y-89404144D01*
X95660455Y-89390490D01*
X95688176Y-89382080D01*
X95719453Y-89379000D01*
X96110547Y-89379000D01*
X96141824Y-89382080D01*
G37*
G36*
X97111824Y-89382080D02*
G01*
X97139545Y-89390490D01*
X97165089Y-89404144D01*
X97187480Y-89422520D01*
X97205856Y-89444911D01*
X97219510Y-89470455D01*
X97227920Y-89498176D01*
X97231000Y-89529453D01*
X97231000Y-89970547D01*
X97227920Y-90001824D01*
X97219510Y-90029545D01*
X97205856Y-90055089D01*
X97187480Y-90077480D01*
X97165089Y-90095856D01*
X97139545Y-90109510D01*
X97111824Y-90117920D01*
X97080547Y-90121000D01*
X96689453Y-90121000D01*
X96658176Y-90117920D01*
X96630455Y-90109510D01*
X96604911Y-90095856D01*
X96582520Y-90077480D01*
X96564144Y-90055089D01*
X96550490Y-90029545D01*
X96542080Y-90001824D01*
X96539000Y-89970547D01*
X96539000Y-89529453D01*
X96542080Y-89498176D01*
X96550490Y-89470455D01*
X96564144Y-89444911D01*
X96582520Y-89422520D01*
X96604911Y-89404144D01*
X96630455Y-89390490D01*
X96658176Y-89382080D01*
X96689453Y-89379000D01*
X97080547Y-89379000D01*
X97111824Y-89382080D01*
G37*
G36*
X94513235Y-89242652D02*
G01*
X94540350Y-89252858D01*
X94564945Y-89268152D01*
X94586086Y-89287952D01*
X94604396Y-89313505D01*
X94824937Y-89695494D01*
X94837911Y-89724126D01*
X94844489Y-89752340D01*
X94845437Y-89781287D01*
X94840719Y-89809864D01*
X94830513Y-89836979D01*
X94815219Y-89861574D01*
X94795420Y-89882713D01*
X94769866Y-89901025D01*
X94431176Y-90096568D01*
X94402547Y-90109540D01*
X94374333Y-90116118D01*
X94345386Y-90117066D01*
X94316809Y-90112348D01*
X94289694Y-90102142D01*
X94265099Y-90086848D01*
X94243958Y-90067048D01*
X94225648Y-90041495D01*
X94005107Y-89659506D01*
X93992133Y-89630874D01*
X93985555Y-89602660D01*
X93984607Y-89573713D01*
X93989325Y-89545136D01*
X93999531Y-89518021D01*
X94014825Y-89493426D01*
X94034624Y-89472287D01*
X94060178Y-89453975D01*
X94398868Y-89258432D01*
X94427497Y-89245460D01*
X94455711Y-89238882D01*
X94484658Y-89237934D01*
X94513235Y-89242652D01*
G37*
G36*
X103551824Y-89342080D02*
G01*
X103579545Y-89350490D01*
X103605089Y-89364144D01*
X103627480Y-89382520D01*
X103645856Y-89404911D01*
X103659510Y-89430455D01*
X103667920Y-89458176D01*
X103671000Y-89489453D01*
X103671000Y-89880547D01*
X103667920Y-89911824D01*
X103659510Y-89939545D01*
X103645856Y-89965089D01*
X103627480Y-89987480D01*
X103605089Y-90005856D01*
X103579545Y-90019510D01*
X103551824Y-90027920D01*
X103520547Y-90031000D01*
X103079453Y-90031000D01*
X103048176Y-90027920D01*
X103020455Y-90019510D01*
X102994911Y-90005856D01*
X102972520Y-89987480D01*
X102954144Y-89965089D01*
X102940490Y-89939545D01*
X102932080Y-89911824D01*
X102929000Y-89880547D01*
X102929000Y-89489453D01*
X102932080Y-89458176D01*
X102940490Y-89430455D01*
X102954144Y-89404911D01*
X102972520Y-89382520D01*
X102994911Y-89364144D01*
X103020455Y-89350490D01*
X103048176Y-89342080D01*
X103079453Y-89339000D01*
X103520547Y-89339000D01*
X103551824Y-89342080D01*
G37*
G36*
X104541824Y-88882080D02*
G01*
X104569545Y-88890490D01*
X104595089Y-88904144D01*
X104617480Y-88922520D01*
X104635856Y-88944911D01*
X104649510Y-88970455D01*
X104657920Y-88998176D01*
X104661000Y-89029453D01*
X104661000Y-89470547D01*
X104657920Y-89501824D01*
X104649510Y-89529545D01*
X104635856Y-89555089D01*
X104617480Y-89577480D01*
X104595089Y-89595856D01*
X104569545Y-89609510D01*
X104541824Y-89617920D01*
X104510547Y-89621000D01*
X104119453Y-89621000D01*
X104088176Y-89617920D01*
X104060455Y-89609510D01*
X104034911Y-89595856D01*
X104012520Y-89577480D01*
X103994144Y-89555089D01*
X103980490Y-89529545D01*
X103972080Y-89501824D01*
X103969000Y-89470547D01*
X103969000Y-89029453D01*
X103972080Y-88998176D01*
X103980490Y-88970455D01*
X103994144Y-88944911D01*
X104012520Y-88922520D01*
X104034911Y-88904144D01*
X104060455Y-88890490D01*
X104088176Y-88882080D01*
X104119453Y-88879000D01*
X104510547Y-88879000D01*
X104541824Y-88882080D01*
G37*
G36*
X105511824Y-88882080D02*
G01*
X105539545Y-88890490D01*
X105565089Y-88904144D01*
X105587480Y-88922520D01*
X105605856Y-88944911D01*
X105619510Y-88970455D01*
X105627920Y-88998176D01*
X105631000Y-89029453D01*
X105631000Y-89470547D01*
X105627920Y-89501824D01*
X105619510Y-89529545D01*
X105605856Y-89555089D01*
X105587480Y-89577480D01*
X105565089Y-89595856D01*
X105539545Y-89609510D01*
X105511824Y-89617920D01*
X105480547Y-89621000D01*
X105089453Y-89621000D01*
X105058176Y-89617920D01*
X105030455Y-89609510D01*
X105004911Y-89595856D01*
X104982520Y-89577480D01*
X104964144Y-89555089D01*
X104950490Y-89529545D01*
X104942080Y-89501824D01*
X104939000Y-89470547D01*
X104939000Y-89029453D01*
X104942080Y-88998176D01*
X104950490Y-88970455D01*
X104964144Y-88944911D01*
X104982520Y-88922520D01*
X105004911Y-88904144D01*
X105030455Y-88890490D01*
X105058176Y-88882080D01*
X105089453Y-88879000D01*
X105480547Y-88879000D01*
X105511824Y-88882080D01*
G37*
G36*
X103551824Y-88372080D02*
G01*
X103579545Y-88380490D01*
X103605089Y-88394144D01*
X103627480Y-88412520D01*
X103645856Y-88434911D01*
X103659510Y-88460455D01*
X103667920Y-88488176D01*
X103671000Y-88519453D01*
X103671000Y-88910547D01*
X103667920Y-88941824D01*
X103659510Y-88969545D01*
X103645856Y-88995089D01*
X103627480Y-89017480D01*
X103605089Y-89035856D01*
X103579545Y-89049510D01*
X103551824Y-89057920D01*
X103520547Y-89061000D01*
X103079453Y-89061000D01*
X103048176Y-89057920D01*
X103020455Y-89049510D01*
X102994911Y-89035856D01*
X102972520Y-89017480D01*
X102954144Y-88995089D01*
X102940490Y-88969545D01*
X102932080Y-88941824D01*
X102929000Y-88910547D01*
X102929000Y-88519453D01*
X102932080Y-88488176D01*
X102940490Y-88460455D01*
X102954144Y-88434911D01*
X102972520Y-88412520D01*
X102994911Y-88394144D01*
X103020455Y-88380490D01*
X103048176Y-88372080D01*
X103079453Y-88369000D01*
X103520547Y-88369000D01*
X103551824Y-88372080D01*
G37*
M02*
