%TF.GenerationSoftware,KiCad,Pcbnew,(5.1.5)-3*%
%TF.CreationDate,2021-01-24T02:28:12+08:00*%
%TF.ProjectId,STM32_FOC,53544d33-325f-4464-9f43-2e6b69636164,rev?*%
%TF.SameCoordinates,Original*%
%TF.FileFunction,Legend,Bot*%
%TF.FilePolarity,Positive*%
%FSLAX46Y46*%
G04 Gerber Fmt 4.6, Leading zero omitted, Abs format (unit mm)*
G04 Created by KiCad (PCBNEW (5.1.5)-3) date 2021-01-24 02:28:12*
%MOMM*%
%LPD*%
G04 APERTURE LIST*
%ADD10C,0.120000*%
%ADD11C,0.127000*%
%ADD12C,0.100000*%
%ADD13C,0.150000*%
%ADD14C,1.102000*%
%ADD15R,0.702000X1.502000*%
%ADD16C,1.802000*%
G04 APERTURE END LIST*
D10*
%TO.C,C9*%
X108093062Y-92004029D02*
X107930283Y-92285971D01*
X107209717Y-91494029D02*
X107046938Y-91775971D01*
%TO.C,L1*%
X107545519Y-89659936D02*
X103553142Y-87354936D01*
X105231858Y-93647314D02*
X101248142Y-91347314D01*
%TO.C,J1*%
X102695805Y-110454656D02*
X103129926Y-107992636D01*
X103129926Y-107992636D02*
X102095878Y-107810306D01*
X102095878Y-107810306D02*
X102267789Y-106835346D01*
X93615878Y-108853619D02*
X94049998Y-106391600D01*
X94049998Y-106391600D02*
X95084046Y-106573931D01*
X101201493Y-112191559D02*
X94426016Y-110996859D01*
%TO.C,GND*%
X92500000Y-92380000D02*
G75*
G03X92500000Y-92380000I-700000J0D01*
G01*
%TO.C,3.3V*%
X93710000Y-91320000D02*
G75*
G03X93710000Y-91320000I-700000J0D01*
G01*
%TO.C,CLK*%
X96250000Y-89630000D02*
G75*
G03X96250000Y-89630000I-700000J0D01*
G01*
%TO.C,DIO*%
X94970000Y-90430000D02*
G75*
G03X94970000Y-90430000I-700000J0D01*
G01*
%TO.C,J2*%
X108333518Y-107045447D02*
X106899577Y-104997567D01*
X106899577Y-104997567D02*
X106039467Y-105599823D01*
X106039467Y-105599823D02*
X105471627Y-104788862D01*
X104876696Y-109465940D02*
X103442755Y-107418060D01*
X103442755Y-107418060D02*
X104302865Y-106815805D01*
X108505056Y-109330261D02*
X106965050Y-110408585D01*
D11*
%TO.C,U3*%
X97500000Y-98000000D02*
X97500000Y-102000000D01*
X102500000Y-102000000D02*
X102500000Y-98000000D01*
D10*
%TO.C,R9*%
X96432779Y-104780000D02*
X96107221Y-104780000D01*
X96432779Y-103760000D02*
X96107221Y-103760000D01*
%TO.C,R8*%
X103350000Y-99942779D02*
X103350000Y-99617221D01*
X104370000Y-99942779D02*
X104370000Y-99617221D01*
%TO.C,R7*%
X100082779Y-105110000D02*
X99757221Y-105110000D01*
X100082779Y-104090000D02*
X99757221Y-104090000D01*
%TO.C,JP1*%
X98360000Y-90730000D02*
X98360000Y-89330000D01*
X97660000Y-88630000D02*
X97060000Y-88630000D01*
X96360000Y-89330000D02*
X96360000Y-90730000D01*
X97060000Y-91430000D02*
X97660000Y-91430000D01*
X97660000Y-91430000D02*
G75*
G03X98360000Y-90730000I0J700000D01*
G01*
X96360000Y-90730000D02*
G75*
G03X97060000Y-91430000I700000J0D01*
G01*
X97060000Y-88630000D02*
G75*
G03X96360000Y-89330000I0J-700000D01*
G01*
X98360000Y-89330000D02*
G75*
G03X97660000Y-88630000I-700000J0D01*
G01*
%TO.C,J3*%
X107794904Y-93125322D02*
X106545113Y-93580209D01*
X108249791Y-94375113D02*
X107794904Y-93125322D01*
X108684157Y-95568523D02*
X106184574Y-96478296D01*
X106184574Y-96478296D02*
X107942558Y-101308316D01*
X108684157Y-95568523D02*
X110442140Y-100398543D01*
X110442140Y-100398543D02*
X107942558Y-101308316D01*
%TO.C,D3*%
X105536388Y-94975228D02*
X102548814Y-92468356D01*
X104250812Y-96507317D02*
X101263239Y-94000445D01*
X105536388Y-94975228D02*
X104250812Y-96507317D01*
%TO.C,C18*%
X92150000Y-107952779D02*
X92150000Y-107627221D01*
X91130000Y-107952779D02*
X91130000Y-107627221D01*
%TO.C,C15*%
X97432221Y-93610000D02*
X97757779Y-93610000D01*
X97432221Y-94630000D02*
X97757779Y-94630000D01*
%TO.C,C14*%
X97432221Y-95090000D02*
X97757779Y-95090000D01*
X97432221Y-96110000D02*
X97757779Y-96110000D01*
%TO.C,C12*%
X104104183Y-104781134D02*
X104370865Y-104594401D01*
X103519135Y-103945599D02*
X103785817Y-103758866D01*
%TO.C,C11*%
X93820000Y-93707221D02*
X93820000Y-94032779D01*
X92800000Y-93707221D02*
X92800000Y-94032779D01*
%TO.C,C10*%
X95290000Y-93717221D02*
X95290000Y-94042779D01*
X94270000Y-93717221D02*
X94270000Y-94042779D01*
%TO.C,C7*%
X99310000Y-94617221D02*
X99310000Y-94942779D01*
X100330000Y-94617221D02*
X100330000Y-94942779D01*
%TO.C,C9*%
D12*
X109177883Y-92116314D02*
X109186597Y-92148838D01*
X109236552Y-92205172D01*
X109277791Y-92228981D01*
X109351555Y-92244076D01*
X109416604Y-92226646D01*
X109461033Y-92197312D01*
X109529271Y-92126738D01*
X109564986Y-92064879D01*
X109591985Y-91970496D01*
X109595175Y-91917352D01*
X109577745Y-91852303D01*
X109527791Y-91795969D01*
X109486552Y-91772159D01*
X109412788Y-91757065D01*
X109380264Y-91765779D01*
X108947877Y-92038505D02*
X108865398Y-91990886D01*
X108836063Y-91946457D01*
X108827348Y-91913933D01*
X108821823Y-91828264D01*
X108848823Y-91733881D01*
X108944061Y-91568924D01*
X108988490Y-91539589D01*
X109021015Y-91530874D01*
X109074159Y-91534064D01*
X109156637Y-91581683D01*
X109185972Y-91626112D01*
X109194687Y-91658637D01*
X109191497Y-91711781D01*
X109131973Y-91814879D01*
X109087544Y-91844213D01*
X109055019Y-91852928D01*
X109001875Y-91849739D01*
X108919397Y-91802119D01*
X108890062Y-91757690D01*
X108881347Y-91725166D01*
X108884537Y-91672022D01*
%TO.C,L1*%
D13*
X104232843Y-91141633D02*
X104645236Y-91379728D01*
X105145236Y-90513703D01*
X103490535Y-90713062D02*
X103985407Y-90998776D01*
X103737971Y-90855919D02*
X104237971Y-89989894D01*
X104249021Y-90161231D01*
X104283881Y-90291328D01*
X104342550Y-90380187D01*
%TO.C,J1*%
X98698487Y-108508285D02*
X98574452Y-109211719D01*
X98596541Y-109360675D01*
X98673794Y-109471004D01*
X98806212Y-109542706D01*
X98900003Y-109559244D01*
X97540031Y-109319444D02*
X98102778Y-109418672D01*
X97821405Y-109369058D02*
X97995053Y-108384250D01*
X98064037Y-108541475D01*
X98141290Y-108651804D01*
X98226813Y-108715238D01*
%TO.C,GND*%
D12*
X91475952Y-91045000D02*
X91523571Y-91021190D01*
X91595000Y-91021190D01*
X91666428Y-91045000D01*
X91714047Y-91092619D01*
X91737857Y-91140238D01*
X91761666Y-91235476D01*
X91761666Y-91306904D01*
X91737857Y-91402142D01*
X91714047Y-91449761D01*
X91666428Y-91497380D01*
X91595000Y-91521190D01*
X91547380Y-91521190D01*
X91475952Y-91497380D01*
X91452142Y-91473571D01*
X91452142Y-91306904D01*
X91547380Y-91306904D01*
X91237857Y-91521190D02*
X91237857Y-91021190D01*
X90952142Y-91521190D01*
X90952142Y-91021190D01*
X90714047Y-91521190D02*
X90714047Y-91021190D01*
X90595000Y-91021190D01*
X90523571Y-91045000D01*
X90475952Y-91092619D01*
X90452142Y-91140238D01*
X90428333Y-91235476D01*
X90428333Y-91306904D01*
X90452142Y-91402142D01*
X90475952Y-91449761D01*
X90523571Y-91497380D01*
X90595000Y-91521190D01*
X90714047Y-91521190D01*
%TO.C,3.3V*%
X93283095Y-89971190D02*
X92973571Y-89971190D01*
X93140238Y-90161666D01*
X93068809Y-90161666D01*
X93021190Y-90185476D01*
X92997380Y-90209285D01*
X92973571Y-90256904D01*
X92973571Y-90375952D01*
X92997380Y-90423571D01*
X93021190Y-90447380D01*
X93068809Y-90471190D01*
X93211666Y-90471190D01*
X93259285Y-90447380D01*
X93283095Y-90423571D01*
X92759285Y-90423571D02*
X92735476Y-90447380D01*
X92759285Y-90471190D01*
X92783095Y-90447380D01*
X92759285Y-90423571D01*
X92759285Y-90471190D01*
X92568809Y-89971190D02*
X92259285Y-89971190D01*
X92425952Y-90161666D01*
X92354523Y-90161666D01*
X92306904Y-90185476D01*
X92283095Y-90209285D01*
X92259285Y-90256904D01*
X92259285Y-90375952D01*
X92283095Y-90423571D01*
X92306904Y-90447380D01*
X92354523Y-90471190D01*
X92497380Y-90471190D01*
X92545000Y-90447380D01*
X92568809Y-90423571D01*
X92116428Y-89971190D02*
X91949761Y-90471190D01*
X91783095Y-89971190D01*
%TO.C,CLK*%
X95767619Y-88623571D02*
X95791428Y-88647380D01*
X95862857Y-88671190D01*
X95910476Y-88671190D01*
X95981904Y-88647380D01*
X96029523Y-88599761D01*
X96053333Y-88552142D01*
X96077142Y-88456904D01*
X96077142Y-88385476D01*
X96053333Y-88290238D01*
X96029523Y-88242619D01*
X95981904Y-88195000D01*
X95910476Y-88171190D01*
X95862857Y-88171190D01*
X95791428Y-88195000D01*
X95767619Y-88218809D01*
X95315238Y-88671190D02*
X95553333Y-88671190D01*
X95553333Y-88171190D01*
X95148571Y-88671190D02*
X95148571Y-88171190D01*
X94862857Y-88671190D02*
X95077142Y-88385476D01*
X94862857Y-88171190D02*
X95148571Y-88456904D01*
%TO.C,DIO*%
X94281904Y-89471190D02*
X94281904Y-88971190D01*
X94162857Y-88971190D01*
X94091428Y-88995000D01*
X94043809Y-89042619D01*
X94020000Y-89090238D01*
X93996190Y-89185476D01*
X93996190Y-89256904D01*
X94020000Y-89352142D01*
X94043809Y-89399761D01*
X94091428Y-89447380D01*
X94162857Y-89471190D01*
X94281904Y-89471190D01*
X93781904Y-89471190D02*
X93781904Y-88971190D01*
X93448571Y-88971190D02*
X93353333Y-88971190D01*
X93305714Y-88995000D01*
X93258095Y-89042619D01*
X93234285Y-89137857D01*
X93234285Y-89304523D01*
X93258095Y-89399761D01*
X93305714Y-89447380D01*
X93353333Y-89471190D01*
X93448571Y-89471190D01*
X93496190Y-89447380D01*
X93543809Y-89399761D01*
X93567619Y-89304523D01*
X93567619Y-89137857D01*
X93543809Y-89042619D01*
X93496190Y-88995000D01*
X93448571Y-88971190D01*
%TO.C,J2*%
X106189226Y-107388614D02*
X106394075Y-107681168D01*
X106454548Y-107726022D01*
X106520869Y-107737716D01*
X106593036Y-107716250D01*
X106632043Y-107688937D01*
X106041007Y-107550530D02*
X106007847Y-107544683D01*
X105955183Y-107552493D01*
X105857665Y-107620776D01*
X105832314Y-107667592D01*
X105826467Y-107700753D01*
X105834276Y-107753416D01*
X105861590Y-107792424D01*
X105922063Y-107837278D01*
X106319985Y-107907442D01*
X106066438Y-108084978D01*
%TO.C,U3*%
D13*
X100513333Y-99606666D02*
X100513333Y-100173333D01*
X100480000Y-100240000D01*
X100446666Y-100273333D01*
X100380000Y-100306666D01*
X100246666Y-100306666D01*
X100180000Y-100273333D01*
X100146666Y-100240000D01*
X100113333Y-100173333D01*
X100113333Y-99606666D01*
X99846666Y-99606666D02*
X99413333Y-99606666D01*
X99646666Y-99873333D01*
X99546666Y-99873333D01*
X99480000Y-99906666D01*
X99446666Y-99940000D01*
X99413333Y-100006666D01*
X99413333Y-100173333D01*
X99446666Y-100240000D01*
X99480000Y-100273333D01*
X99546666Y-100306666D01*
X99746666Y-100306666D01*
X99813333Y-100273333D01*
X99846666Y-100240000D01*
%TO.C,R9*%
D12*
X98228333Y-104696190D02*
X98395000Y-104458095D01*
X98514047Y-104696190D02*
X98514047Y-104196190D01*
X98323571Y-104196190D01*
X98275952Y-104220000D01*
X98252142Y-104243809D01*
X98228333Y-104291428D01*
X98228333Y-104362857D01*
X98252142Y-104410476D01*
X98275952Y-104434285D01*
X98323571Y-104458095D01*
X98514047Y-104458095D01*
X97990238Y-104696190D02*
X97895000Y-104696190D01*
X97847380Y-104672380D01*
X97823571Y-104648571D01*
X97775952Y-104577142D01*
X97752142Y-104481904D01*
X97752142Y-104291428D01*
X97775952Y-104243809D01*
X97799761Y-104220000D01*
X97847380Y-104196190D01*
X97942619Y-104196190D01*
X97990238Y-104220000D01*
X98014047Y-104243809D01*
X98037857Y-104291428D01*
X98037857Y-104410476D01*
X98014047Y-104458095D01*
X97990238Y-104481904D01*
X97942619Y-104505714D01*
X97847380Y-104505714D01*
X97799761Y-104481904D01*
X97775952Y-104458095D01*
X97752142Y-104410476D01*
%TO.C,R8*%
X104156190Y-99736666D02*
X103918095Y-99570000D01*
X104156190Y-99450952D02*
X103656190Y-99450952D01*
X103656190Y-99641428D01*
X103680000Y-99689047D01*
X103703809Y-99712857D01*
X103751428Y-99736666D01*
X103822857Y-99736666D01*
X103870476Y-99712857D01*
X103894285Y-99689047D01*
X103918095Y-99641428D01*
X103918095Y-99450952D01*
X103870476Y-100022380D02*
X103846666Y-99974761D01*
X103822857Y-99950952D01*
X103775238Y-99927142D01*
X103751428Y-99927142D01*
X103703809Y-99950952D01*
X103680000Y-99974761D01*
X103656190Y-100022380D01*
X103656190Y-100117619D01*
X103680000Y-100165238D01*
X103703809Y-100189047D01*
X103751428Y-100212857D01*
X103775238Y-100212857D01*
X103822857Y-100189047D01*
X103846666Y-100165238D01*
X103870476Y-100117619D01*
X103870476Y-100022380D01*
X103894285Y-99974761D01*
X103918095Y-99950952D01*
X103965714Y-99927142D01*
X104060952Y-99927142D01*
X104108571Y-99950952D01*
X104132380Y-99974761D01*
X104156190Y-100022380D01*
X104156190Y-100117619D01*
X104132380Y-100165238D01*
X104108571Y-100189047D01*
X104060952Y-100212857D01*
X103965714Y-100212857D01*
X103918095Y-100189047D01*
X103894285Y-100165238D01*
X103870476Y-100117619D01*
%TO.C,R7*%
X102053333Y-104846190D02*
X102220000Y-104608095D01*
X102339047Y-104846190D02*
X102339047Y-104346190D01*
X102148571Y-104346190D01*
X102100952Y-104370000D01*
X102077142Y-104393809D01*
X102053333Y-104441428D01*
X102053333Y-104512857D01*
X102077142Y-104560476D01*
X102100952Y-104584285D01*
X102148571Y-104608095D01*
X102339047Y-104608095D01*
X101886666Y-104346190D02*
X101553333Y-104346190D01*
X101767619Y-104846190D01*
%TO.C,D3*%
X103307314Y-94705491D02*
X103628708Y-94322468D01*
X103537512Y-94245946D01*
X103467490Y-94218272D01*
X103400403Y-94224141D01*
X103351555Y-94245315D01*
X103272098Y-94302967D01*
X103226184Y-94357685D01*
X103183206Y-94445946D01*
X103170836Y-94497729D01*
X103176705Y-94564816D01*
X103216118Y-94628968D01*
X103307314Y-94705491D01*
X103282164Y-94031684D02*
X103045055Y-93832726D01*
X103050293Y-94085770D01*
X102995576Y-94039857D01*
X102943793Y-94027487D01*
X102910249Y-94030422D01*
X102861401Y-94051595D01*
X102784879Y-94142791D01*
X102772509Y-94194574D01*
X102775444Y-94228118D01*
X102796618Y-94276966D01*
X102906053Y-94368792D01*
X102957835Y-94381162D01*
X102991379Y-94378228D01*
%TO.C,C18*%
X90541428Y-107548571D02*
X90565238Y-107572380D01*
X90636666Y-107596190D01*
X90684285Y-107596190D01*
X90755714Y-107572380D01*
X90803333Y-107524761D01*
X90827142Y-107477142D01*
X90850952Y-107381904D01*
X90850952Y-107310476D01*
X90827142Y-107215238D01*
X90803333Y-107167619D01*
X90755714Y-107120000D01*
X90684285Y-107096190D01*
X90636666Y-107096190D01*
X90565238Y-107120000D01*
X90541428Y-107143809D01*
X90065238Y-107596190D02*
X90350952Y-107596190D01*
X90208095Y-107596190D02*
X90208095Y-107096190D01*
X90255714Y-107167619D01*
X90303333Y-107215238D01*
X90350952Y-107239047D01*
X89779523Y-107310476D02*
X89827142Y-107286666D01*
X89850952Y-107262857D01*
X89874761Y-107215238D01*
X89874761Y-107191428D01*
X89850952Y-107143809D01*
X89827142Y-107120000D01*
X89779523Y-107096190D01*
X89684285Y-107096190D01*
X89636666Y-107120000D01*
X89612857Y-107143809D01*
X89589047Y-107191428D01*
X89589047Y-107215238D01*
X89612857Y-107262857D01*
X89636666Y-107286666D01*
X89684285Y-107310476D01*
X89779523Y-107310476D01*
X89827142Y-107334285D01*
X89850952Y-107358095D01*
X89874761Y-107405714D01*
X89874761Y-107500952D01*
X89850952Y-107548571D01*
X89827142Y-107572380D01*
X89779523Y-107596190D01*
X89684285Y-107596190D01*
X89636666Y-107572380D01*
X89612857Y-107548571D01*
X89589047Y-107500952D01*
X89589047Y-107405714D01*
X89612857Y-107358095D01*
X89636666Y-107334285D01*
X89684285Y-107310476D01*
%TO.C,C15*%
X98161428Y-93173571D02*
X98185238Y-93197380D01*
X98256666Y-93221190D01*
X98304285Y-93221190D01*
X98375714Y-93197380D01*
X98423333Y-93149761D01*
X98447142Y-93102142D01*
X98470952Y-93006904D01*
X98470952Y-92935476D01*
X98447142Y-92840238D01*
X98423333Y-92792619D01*
X98375714Y-92745000D01*
X98304285Y-92721190D01*
X98256666Y-92721190D01*
X98185238Y-92745000D01*
X98161428Y-92768809D01*
X97685238Y-93221190D02*
X97970952Y-93221190D01*
X97828095Y-93221190D02*
X97828095Y-92721190D01*
X97875714Y-92792619D01*
X97923333Y-92840238D01*
X97970952Y-92864047D01*
X97232857Y-92721190D02*
X97470952Y-92721190D01*
X97494761Y-92959285D01*
X97470952Y-92935476D01*
X97423333Y-92911666D01*
X97304285Y-92911666D01*
X97256666Y-92935476D01*
X97232857Y-92959285D01*
X97209047Y-93006904D01*
X97209047Y-93125952D01*
X97232857Y-93173571D01*
X97256666Y-93197380D01*
X97304285Y-93221190D01*
X97423333Y-93221190D01*
X97470952Y-93197380D01*
X97494761Y-93173571D01*
%TO.C,C14*%
X96746428Y-96973571D02*
X96770238Y-96997380D01*
X96841666Y-97021190D01*
X96889285Y-97021190D01*
X96960714Y-96997380D01*
X97008333Y-96949761D01*
X97032142Y-96902142D01*
X97055952Y-96806904D01*
X97055952Y-96735476D01*
X97032142Y-96640238D01*
X97008333Y-96592619D01*
X96960714Y-96545000D01*
X96889285Y-96521190D01*
X96841666Y-96521190D01*
X96770238Y-96545000D01*
X96746428Y-96568809D01*
X96270238Y-97021190D02*
X96555952Y-97021190D01*
X96413095Y-97021190D02*
X96413095Y-96521190D01*
X96460714Y-96592619D01*
X96508333Y-96640238D01*
X96555952Y-96664047D01*
X95841666Y-96687857D02*
X95841666Y-97021190D01*
X95960714Y-96497380D02*
X96079761Y-96854523D01*
X95770238Y-96854523D01*
%TO.C,C12*%
X103764332Y-103328305D02*
X103797492Y-103334152D01*
X103869659Y-103312686D01*
X103908667Y-103285373D01*
X103953521Y-103224899D01*
X103965215Y-103158579D01*
X103957405Y-103105915D01*
X103922283Y-103014244D01*
X103881313Y-102955733D01*
X103807183Y-102891375D01*
X103760366Y-102866024D01*
X103694046Y-102854330D01*
X103621878Y-102875797D01*
X103582871Y-102903110D01*
X103538017Y-102963583D01*
X103532170Y-102996743D01*
X103401572Y-103640444D02*
X103635616Y-103476565D01*
X103518594Y-103558504D02*
X103231806Y-103148928D01*
X103311783Y-103180126D01*
X103378103Y-103191820D01*
X103430767Y-103184010D01*
X102986068Y-103379128D02*
X102952908Y-103373281D01*
X102900244Y-103381090D01*
X102802726Y-103449373D01*
X102777376Y-103496190D01*
X102771529Y-103529350D01*
X102779338Y-103582014D01*
X102806651Y-103621021D01*
X102867125Y-103665875D01*
X103265047Y-103736040D01*
X103011500Y-103913575D01*
%TO.C,C11*%
X92216428Y-94598571D02*
X92240238Y-94622380D01*
X92311666Y-94646190D01*
X92359285Y-94646190D01*
X92430714Y-94622380D01*
X92478333Y-94574761D01*
X92502142Y-94527142D01*
X92525952Y-94431904D01*
X92525952Y-94360476D01*
X92502142Y-94265238D01*
X92478333Y-94217619D01*
X92430714Y-94170000D01*
X92359285Y-94146190D01*
X92311666Y-94146190D01*
X92240238Y-94170000D01*
X92216428Y-94193809D01*
X91740238Y-94646190D02*
X92025952Y-94646190D01*
X91883095Y-94646190D02*
X91883095Y-94146190D01*
X91930714Y-94217619D01*
X91978333Y-94265238D01*
X92025952Y-94289047D01*
X91264047Y-94646190D02*
X91549761Y-94646190D01*
X91406904Y-94646190D02*
X91406904Y-94146190D01*
X91454523Y-94217619D01*
X91502142Y-94265238D01*
X91549761Y-94289047D01*
%TO.C,C10*%
X95216428Y-92298571D02*
X95240238Y-92322380D01*
X95311666Y-92346190D01*
X95359285Y-92346190D01*
X95430714Y-92322380D01*
X95478333Y-92274761D01*
X95502142Y-92227142D01*
X95525952Y-92131904D01*
X95525952Y-92060476D01*
X95502142Y-91965238D01*
X95478333Y-91917619D01*
X95430714Y-91870000D01*
X95359285Y-91846190D01*
X95311666Y-91846190D01*
X95240238Y-91870000D01*
X95216428Y-91893809D01*
X94740238Y-92346190D02*
X95025952Y-92346190D01*
X94883095Y-92346190D02*
X94883095Y-91846190D01*
X94930714Y-91917619D01*
X94978333Y-91965238D01*
X95025952Y-91989047D01*
X94430714Y-91846190D02*
X94383095Y-91846190D01*
X94335476Y-91870000D01*
X94311666Y-91893809D01*
X94287857Y-91941428D01*
X94264047Y-92036666D01*
X94264047Y-92155714D01*
X94287857Y-92250952D01*
X94311666Y-92298571D01*
X94335476Y-92322380D01*
X94383095Y-92346190D01*
X94430714Y-92346190D01*
X94478333Y-92322380D01*
X94502142Y-92298571D01*
X94525952Y-92250952D01*
X94549761Y-92155714D01*
X94549761Y-92036666D01*
X94525952Y-91941428D01*
X94502142Y-91893809D01*
X94478333Y-91870000D01*
X94430714Y-91846190D01*
%TO.C,C7*%
X101213333Y-95648571D02*
X101237142Y-95672380D01*
X101308571Y-95696190D01*
X101356190Y-95696190D01*
X101427619Y-95672380D01*
X101475238Y-95624761D01*
X101499047Y-95577142D01*
X101522857Y-95481904D01*
X101522857Y-95410476D01*
X101499047Y-95315238D01*
X101475238Y-95267619D01*
X101427619Y-95220000D01*
X101356190Y-95196190D01*
X101308571Y-95196190D01*
X101237142Y-95220000D01*
X101213333Y-95243809D01*
X101046666Y-95196190D02*
X100713333Y-95196190D01*
X100927619Y-95696190D01*
%TD*%
%LPC*%
%TO.C,C9*%
G36*
X107086253Y-91977433D02*
G01*
X107109835Y-91981724D01*
X107132883Y-91988305D01*
X107155176Y-91997114D01*
X107176497Y-92008066D01*
X107664503Y-92289816D01*
X107684648Y-92302805D01*
X107703423Y-92317706D01*
X107720647Y-92334375D01*
X107736154Y-92352653D01*
X107749796Y-92372362D01*
X107761439Y-92393314D01*
X107770973Y-92415306D01*
X107778305Y-92438126D01*
X107783366Y-92461556D01*
X107786105Y-92485368D01*
X107786497Y-92509334D01*
X107784538Y-92533224D01*
X107780247Y-92556806D01*
X107773666Y-92579854D01*
X107764857Y-92602147D01*
X107753905Y-92623468D01*
X107509655Y-93046522D01*
X107496666Y-93066667D01*
X107481765Y-93085442D01*
X107465096Y-93102666D01*
X107446818Y-93118173D01*
X107427109Y-93131815D01*
X107406157Y-93143458D01*
X107384165Y-93152992D01*
X107361345Y-93160324D01*
X107337915Y-93165385D01*
X107314103Y-93168124D01*
X107290137Y-93168516D01*
X107266247Y-93166557D01*
X107242665Y-93162266D01*
X107219617Y-93155685D01*
X107197324Y-93146876D01*
X107176003Y-93135924D01*
X106687997Y-92854174D01*
X106667852Y-92841185D01*
X106649077Y-92826284D01*
X106631853Y-92809615D01*
X106616346Y-92791337D01*
X106602704Y-92771628D01*
X106591061Y-92750676D01*
X106581527Y-92728684D01*
X106574195Y-92705864D01*
X106569134Y-92682434D01*
X106566395Y-92658622D01*
X106566003Y-92634656D01*
X106567962Y-92610766D01*
X106572253Y-92587184D01*
X106578834Y-92564136D01*
X106587643Y-92541843D01*
X106598595Y-92520522D01*
X106842845Y-92097468D01*
X106855834Y-92077323D01*
X106870735Y-92058548D01*
X106887404Y-92041324D01*
X106905682Y-92025817D01*
X106925391Y-92012175D01*
X106946343Y-92000532D01*
X106968335Y-91990998D01*
X106991155Y-91983666D01*
X107014585Y-91978605D01*
X107038397Y-91975866D01*
X107062363Y-91975474D01*
X107086253Y-91977433D01*
G37*
G36*
X107873753Y-90613443D02*
G01*
X107897335Y-90617734D01*
X107920383Y-90624315D01*
X107942676Y-90633124D01*
X107963997Y-90644076D01*
X108452003Y-90925826D01*
X108472148Y-90938815D01*
X108490923Y-90953716D01*
X108508147Y-90970385D01*
X108523654Y-90988663D01*
X108537296Y-91008372D01*
X108548939Y-91029324D01*
X108558473Y-91051316D01*
X108565805Y-91074136D01*
X108570866Y-91097566D01*
X108573605Y-91121378D01*
X108573997Y-91145344D01*
X108572038Y-91169234D01*
X108567747Y-91192816D01*
X108561166Y-91215864D01*
X108552357Y-91238157D01*
X108541405Y-91259478D01*
X108297155Y-91682532D01*
X108284166Y-91702677D01*
X108269265Y-91721452D01*
X108252596Y-91738676D01*
X108234318Y-91754183D01*
X108214609Y-91767825D01*
X108193657Y-91779468D01*
X108171665Y-91789002D01*
X108148845Y-91796334D01*
X108125415Y-91801395D01*
X108101603Y-91804134D01*
X108077637Y-91804526D01*
X108053747Y-91802567D01*
X108030165Y-91798276D01*
X108007117Y-91791695D01*
X107984824Y-91782886D01*
X107963503Y-91771934D01*
X107475497Y-91490184D01*
X107455352Y-91477195D01*
X107436577Y-91462294D01*
X107419353Y-91445625D01*
X107403846Y-91427347D01*
X107390204Y-91407638D01*
X107378561Y-91386686D01*
X107369027Y-91364694D01*
X107361695Y-91341874D01*
X107356634Y-91318444D01*
X107353895Y-91294632D01*
X107353503Y-91270666D01*
X107355462Y-91246776D01*
X107359753Y-91223194D01*
X107366334Y-91200146D01*
X107375143Y-91177853D01*
X107386095Y-91156532D01*
X107630345Y-90733478D01*
X107643334Y-90713333D01*
X107658235Y-90694558D01*
X107674904Y-90677334D01*
X107693182Y-90661827D01*
X107712891Y-90648185D01*
X107733843Y-90636542D01*
X107755835Y-90627008D01*
X107778655Y-90619676D01*
X107802085Y-90614615D01*
X107825897Y-90611876D01*
X107849863Y-90611484D01*
X107873753Y-90613443D01*
G37*
%TD*%
%TO.C,L1*%
G36*
X101384707Y-90490875D02*
G01*
X101377873Y-90483579D01*
X101372593Y-90475089D01*
X101369072Y-90465731D01*
X101367443Y-90455867D01*
X101367770Y-90445875D01*
X101370040Y-90436139D01*
X101374167Y-90427032D01*
X102624167Y-88261968D01*
X102629990Y-88253841D01*
X102637287Y-88247007D01*
X102645777Y-88241728D01*
X102655134Y-88238207D01*
X102664998Y-88236577D01*
X102674991Y-88236904D01*
X102684727Y-88239175D01*
X102693834Y-88243301D01*
X103992872Y-88993301D01*
X104000999Y-88999125D01*
X104007833Y-89006421D01*
X104013113Y-89014911D01*
X104016634Y-89024269D01*
X104018263Y-89034133D01*
X104017936Y-89044125D01*
X104015666Y-89053861D01*
X104011539Y-89062968D01*
X102761539Y-91228032D01*
X102755716Y-91236159D01*
X102748419Y-91242993D01*
X102739929Y-91248272D01*
X102730572Y-91251793D01*
X102720708Y-91253423D01*
X102710715Y-91253096D01*
X102700979Y-91250825D01*
X102691872Y-91246699D01*
X101392834Y-90496699D01*
X101384707Y-90490875D01*
G37*
G36*
X104589001Y-92340875D02*
G01*
X104582167Y-92333579D01*
X104576887Y-92325089D01*
X104573366Y-92315731D01*
X104571737Y-92305867D01*
X104572064Y-92295875D01*
X104574334Y-92286139D01*
X104578461Y-92277032D01*
X105828461Y-90111968D01*
X105834284Y-90103841D01*
X105841581Y-90097007D01*
X105850071Y-90091728D01*
X105859428Y-90088207D01*
X105869292Y-90086577D01*
X105879285Y-90086904D01*
X105889021Y-90089175D01*
X105898128Y-90093301D01*
X107197166Y-90843301D01*
X107205293Y-90849125D01*
X107212127Y-90856421D01*
X107217407Y-90864911D01*
X107220928Y-90874269D01*
X107222557Y-90884133D01*
X107222230Y-90894125D01*
X107219960Y-90903861D01*
X107215833Y-90912968D01*
X105965833Y-93078032D01*
X105960010Y-93086159D01*
X105952713Y-93092993D01*
X105944223Y-93098272D01*
X105934866Y-93101793D01*
X105925002Y-93103423D01*
X105915009Y-93103096D01*
X105905273Y-93100825D01*
X105896166Y-93096699D01*
X104597128Y-92346699D01*
X104589001Y-92340875D01*
G37*
%TD*%
%TO.C,J1*%
G36*
X101535232Y-106655247D02*
G01*
X101552319Y-106657402D01*
X101897987Y-106718353D01*
X101914781Y-106722173D01*
X101931120Y-106727620D01*
X101946846Y-106734642D01*
X101961808Y-106743172D01*
X101975862Y-106753127D01*
X101988873Y-106764412D01*
X102000714Y-106776918D01*
X102011273Y-106790524D01*
X102020448Y-106805100D01*
X102028149Y-106820505D01*
X102034304Y-106836591D01*
X102038852Y-106853202D01*
X102041750Y-106870179D01*
X102042970Y-106887359D01*
X102042501Y-106904575D01*
X102040346Y-106921662D01*
X101814430Y-108202897D01*
X101810610Y-108219691D01*
X101805163Y-108236030D01*
X101798141Y-108251756D01*
X101789611Y-108266718D01*
X101779656Y-108280772D01*
X101768371Y-108293783D01*
X101755865Y-108305624D01*
X101742259Y-108316183D01*
X101727683Y-108325358D01*
X101712278Y-108333059D01*
X101696193Y-108339214D01*
X101679581Y-108343762D01*
X101662604Y-108346660D01*
X101645425Y-108347880D01*
X101628208Y-108347411D01*
X101611121Y-108345256D01*
X101265453Y-108284305D01*
X101248659Y-108280485D01*
X101232320Y-108275038D01*
X101216594Y-108268016D01*
X101201632Y-108259486D01*
X101187578Y-108249531D01*
X101174567Y-108238246D01*
X101162726Y-108225740D01*
X101152167Y-108212134D01*
X101142992Y-108197558D01*
X101135291Y-108182153D01*
X101129136Y-108166067D01*
X101124588Y-108149456D01*
X101121690Y-108132479D01*
X101120470Y-108115299D01*
X101120939Y-108098083D01*
X101123094Y-108080996D01*
X101349010Y-106799761D01*
X101352830Y-106782967D01*
X101358277Y-106766628D01*
X101365299Y-106750902D01*
X101373829Y-106735940D01*
X101383784Y-106721886D01*
X101395069Y-106708875D01*
X101407575Y-106697034D01*
X101421181Y-106686475D01*
X101435757Y-106677300D01*
X101451162Y-106669599D01*
X101467247Y-106663444D01*
X101483859Y-106658896D01*
X101500836Y-106655998D01*
X101518015Y-106654778D01*
X101535232Y-106655247D01*
G37*
G36*
X100550424Y-106481599D02*
G01*
X100567511Y-106483754D01*
X100913179Y-106544705D01*
X100929973Y-106548525D01*
X100946312Y-106553972D01*
X100962038Y-106560994D01*
X100977000Y-106569524D01*
X100991054Y-106579479D01*
X101004065Y-106590764D01*
X101015906Y-106603270D01*
X101026465Y-106616876D01*
X101035640Y-106631452D01*
X101043341Y-106646857D01*
X101049496Y-106662943D01*
X101054044Y-106679554D01*
X101056942Y-106696531D01*
X101058162Y-106713711D01*
X101057693Y-106730927D01*
X101055538Y-106748014D01*
X100829622Y-108029249D01*
X100825802Y-108046043D01*
X100820355Y-108062382D01*
X100813333Y-108078108D01*
X100804803Y-108093070D01*
X100794848Y-108107124D01*
X100783563Y-108120135D01*
X100771057Y-108131976D01*
X100757451Y-108142535D01*
X100742875Y-108151710D01*
X100727470Y-108159411D01*
X100711385Y-108165566D01*
X100694773Y-108170114D01*
X100677796Y-108173012D01*
X100660617Y-108174232D01*
X100643400Y-108173763D01*
X100626313Y-108171608D01*
X100280645Y-108110657D01*
X100263851Y-108106837D01*
X100247512Y-108101390D01*
X100231786Y-108094368D01*
X100216824Y-108085838D01*
X100202770Y-108075883D01*
X100189759Y-108064598D01*
X100177918Y-108052092D01*
X100167359Y-108038486D01*
X100158184Y-108023910D01*
X100150483Y-108008505D01*
X100144328Y-107992419D01*
X100139780Y-107975808D01*
X100136882Y-107958831D01*
X100135662Y-107941651D01*
X100136131Y-107924435D01*
X100138286Y-107907348D01*
X100364202Y-106626113D01*
X100368022Y-106609319D01*
X100373469Y-106592980D01*
X100380491Y-106577254D01*
X100389021Y-106562292D01*
X100398976Y-106548238D01*
X100410261Y-106535227D01*
X100422767Y-106523386D01*
X100436373Y-106512827D01*
X100450949Y-106503652D01*
X100466354Y-106495951D01*
X100482439Y-106489796D01*
X100499051Y-106485248D01*
X100516028Y-106482350D01*
X100533207Y-106481130D01*
X100550424Y-106481599D01*
G37*
G36*
X99565616Y-106307951D02*
G01*
X99582703Y-106310106D01*
X99928371Y-106371057D01*
X99945165Y-106374877D01*
X99961504Y-106380324D01*
X99977230Y-106387346D01*
X99992192Y-106395876D01*
X100006246Y-106405831D01*
X100019257Y-106417116D01*
X100031098Y-106429622D01*
X100041657Y-106443228D01*
X100050832Y-106457804D01*
X100058533Y-106473209D01*
X100064688Y-106489295D01*
X100069236Y-106505906D01*
X100072134Y-106522883D01*
X100073354Y-106540063D01*
X100072885Y-106557279D01*
X100070730Y-106574366D01*
X99844814Y-107855601D01*
X99840994Y-107872395D01*
X99835547Y-107888734D01*
X99828525Y-107904460D01*
X99819995Y-107919422D01*
X99810040Y-107933476D01*
X99798755Y-107946487D01*
X99786249Y-107958328D01*
X99772643Y-107968887D01*
X99758067Y-107978062D01*
X99742662Y-107985763D01*
X99726577Y-107991918D01*
X99709965Y-107996466D01*
X99692988Y-107999364D01*
X99675809Y-108000584D01*
X99658592Y-108000115D01*
X99641505Y-107997960D01*
X99295837Y-107937009D01*
X99279043Y-107933189D01*
X99262704Y-107927742D01*
X99246978Y-107920720D01*
X99232016Y-107912190D01*
X99217962Y-107902235D01*
X99204951Y-107890950D01*
X99193110Y-107878444D01*
X99182551Y-107864838D01*
X99173376Y-107850262D01*
X99165675Y-107834857D01*
X99159520Y-107818771D01*
X99154972Y-107802160D01*
X99152074Y-107785183D01*
X99150854Y-107768003D01*
X99151323Y-107750787D01*
X99153478Y-107733700D01*
X99379394Y-106452465D01*
X99383214Y-106435671D01*
X99388661Y-106419332D01*
X99395683Y-106403606D01*
X99404213Y-106388644D01*
X99414168Y-106374590D01*
X99425453Y-106361579D01*
X99437959Y-106349738D01*
X99451565Y-106339179D01*
X99466141Y-106330004D01*
X99481546Y-106322303D01*
X99497631Y-106316148D01*
X99514243Y-106311600D01*
X99531220Y-106308702D01*
X99548399Y-106307482D01*
X99565616Y-106307951D01*
G37*
G36*
X98580808Y-106134302D02*
G01*
X98597895Y-106136457D01*
X98943563Y-106197408D01*
X98960357Y-106201228D01*
X98976696Y-106206675D01*
X98992422Y-106213697D01*
X99007384Y-106222227D01*
X99021438Y-106232182D01*
X99034449Y-106243467D01*
X99046290Y-106255973D01*
X99056849Y-106269579D01*
X99066024Y-106284155D01*
X99073725Y-106299560D01*
X99079880Y-106315646D01*
X99084428Y-106332257D01*
X99087326Y-106349234D01*
X99088546Y-106366414D01*
X99088077Y-106383630D01*
X99085922Y-106400717D01*
X98860006Y-107681952D01*
X98856186Y-107698746D01*
X98850739Y-107715085D01*
X98843717Y-107730811D01*
X98835187Y-107745773D01*
X98825232Y-107759827D01*
X98813947Y-107772838D01*
X98801441Y-107784679D01*
X98787835Y-107795238D01*
X98773259Y-107804413D01*
X98757854Y-107812114D01*
X98741769Y-107818269D01*
X98725157Y-107822817D01*
X98708180Y-107825715D01*
X98691001Y-107826935D01*
X98673784Y-107826466D01*
X98656697Y-107824311D01*
X98311029Y-107763360D01*
X98294235Y-107759540D01*
X98277896Y-107754093D01*
X98262170Y-107747071D01*
X98247208Y-107738541D01*
X98233154Y-107728586D01*
X98220143Y-107717301D01*
X98208302Y-107704795D01*
X98197743Y-107691189D01*
X98188568Y-107676613D01*
X98180867Y-107661208D01*
X98174712Y-107645122D01*
X98170164Y-107628511D01*
X98167266Y-107611534D01*
X98166046Y-107594354D01*
X98166515Y-107577138D01*
X98168670Y-107560051D01*
X98394586Y-106278816D01*
X98398406Y-106262022D01*
X98403853Y-106245683D01*
X98410875Y-106229957D01*
X98419405Y-106214995D01*
X98429360Y-106200941D01*
X98440645Y-106187930D01*
X98453151Y-106176089D01*
X98466757Y-106165530D01*
X98481333Y-106156355D01*
X98496738Y-106148654D01*
X98512823Y-106142499D01*
X98529435Y-106137951D01*
X98546412Y-106135053D01*
X98563591Y-106133833D01*
X98580808Y-106134302D01*
G37*
G36*
X97596001Y-105960654D02*
G01*
X97613088Y-105962809D01*
X97958756Y-106023760D01*
X97975550Y-106027580D01*
X97991889Y-106033027D01*
X98007615Y-106040049D01*
X98022577Y-106048579D01*
X98036631Y-106058534D01*
X98049642Y-106069819D01*
X98061483Y-106082325D01*
X98072042Y-106095931D01*
X98081217Y-106110507D01*
X98088918Y-106125912D01*
X98095073Y-106141998D01*
X98099621Y-106158609D01*
X98102519Y-106175586D01*
X98103739Y-106192766D01*
X98103270Y-106209982D01*
X98101115Y-106227069D01*
X97875199Y-107508304D01*
X97871379Y-107525098D01*
X97865932Y-107541437D01*
X97858910Y-107557163D01*
X97850380Y-107572125D01*
X97840425Y-107586179D01*
X97829140Y-107599190D01*
X97816634Y-107611031D01*
X97803028Y-107621590D01*
X97788452Y-107630765D01*
X97773047Y-107638466D01*
X97756962Y-107644621D01*
X97740350Y-107649169D01*
X97723373Y-107652067D01*
X97706194Y-107653287D01*
X97688977Y-107652818D01*
X97671890Y-107650663D01*
X97326222Y-107589712D01*
X97309428Y-107585892D01*
X97293089Y-107580445D01*
X97277363Y-107573423D01*
X97262401Y-107564893D01*
X97248347Y-107554938D01*
X97235336Y-107543653D01*
X97223495Y-107531147D01*
X97212936Y-107517541D01*
X97203761Y-107502965D01*
X97196060Y-107487560D01*
X97189905Y-107471474D01*
X97185357Y-107454863D01*
X97182459Y-107437886D01*
X97181239Y-107420706D01*
X97181708Y-107403490D01*
X97183863Y-107386403D01*
X97409779Y-106105168D01*
X97413599Y-106088374D01*
X97419046Y-106072035D01*
X97426068Y-106056309D01*
X97434598Y-106041347D01*
X97444553Y-106027293D01*
X97455838Y-106014282D01*
X97468344Y-106002441D01*
X97481950Y-105991882D01*
X97496526Y-105982707D01*
X97511931Y-105975006D01*
X97528016Y-105968851D01*
X97544628Y-105964303D01*
X97561605Y-105961405D01*
X97578784Y-105960185D01*
X97596001Y-105960654D01*
G37*
G36*
X96611193Y-105787006D02*
G01*
X96628280Y-105789161D01*
X96973948Y-105850112D01*
X96990742Y-105853932D01*
X97007081Y-105859379D01*
X97022807Y-105866401D01*
X97037769Y-105874931D01*
X97051823Y-105884886D01*
X97064834Y-105896171D01*
X97076675Y-105908677D01*
X97087234Y-105922283D01*
X97096409Y-105936859D01*
X97104110Y-105952264D01*
X97110265Y-105968350D01*
X97114813Y-105984961D01*
X97117711Y-106001938D01*
X97118931Y-106019118D01*
X97118462Y-106036334D01*
X97116307Y-106053421D01*
X96890391Y-107334656D01*
X96886571Y-107351450D01*
X96881124Y-107367789D01*
X96874102Y-107383515D01*
X96865572Y-107398477D01*
X96855617Y-107412531D01*
X96844332Y-107425542D01*
X96831826Y-107437383D01*
X96818220Y-107447942D01*
X96803644Y-107457117D01*
X96788239Y-107464818D01*
X96772154Y-107470973D01*
X96755542Y-107475521D01*
X96738565Y-107478419D01*
X96721386Y-107479639D01*
X96704169Y-107479170D01*
X96687082Y-107477015D01*
X96341414Y-107416064D01*
X96324620Y-107412244D01*
X96308281Y-107406797D01*
X96292555Y-107399775D01*
X96277593Y-107391245D01*
X96263539Y-107381290D01*
X96250528Y-107370005D01*
X96238687Y-107357499D01*
X96228128Y-107343893D01*
X96218953Y-107329317D01*
X96211252Y-107313912D01*
X96205097Y-107297826D01*
X96200549Y-107281215D01*
X96197651Y-107264238D01*
X96196431Y-107247058D01*
X96196900Y-107229842D01*
X96199055Y-107212755D01*
X96424971Y-105931520D01*
X96428791Y-105914726D01*
X96434238Y-105898387D01*
X96441260Y-105882661D01*
X96449790Y-105867699D01*
X96459745Y-105853645D01*
X96471030Y-105840634D01*
X96483536Y-105828793D01*
X96497142Y-105818234D01*
X96511718Y-105809059D01*
X96527123Y-105801358D01*
X96543208Y-105795203D01*
X96559820Y-105790655D01*
X96576797Y-105787757D01*
X96593976Y-105786537D01*
X96611193Y-105787006D01*
G37*
G36*
X95626385Y-105613358D02*
G01*
X95643472Y-105615513D01*
X95989140Y-105676464D01*
X96005934Y-105680284D01*
X96022273Y-105685731D01*
X96037999Y-105692753D01*
X96052961Y-105701283D01*
X96067015Y-105711238D01*
X96080026Y-105722523D01*
X96091867Y-105735029D01*
X96102426Y-105748635D01*
X96111601Y-105763211D01*
X96119302Y-105778616D01*
X96125457Y-105794702D01*
X96130005Y-105811313D01*
X96132903Y-105828290D01*
X96134123Y-105845470D01*
X96133654Y-105862686D01*
X96131499Y-105879773D01*
X95905583Y-107161008D01*
X95901763Y-107177802D01*
X95896316Y-107194141D01*
X95889294Y-107209867D01*
X95880764Y-107224829D01*
X95870809Y-107238883D01*
X95859524Y-107251894D01*
X95847018Y-107263735D01*
X95833412Y-107274294D01*
X95818836Y-107283469D01*
X95803431Y-107291170D01*
X95787346Y-107297325D01*
X95770734Y-107301873D01*
X95753757Y-107304771D01*
X95736578Y-107305991D01*
X95719361Y-107305522D01*
X95702274Y-107303367D01*
X95356606Y-107242416D01*
X95339812Y-107238596D01*
X95323473Y-107233149D01*
X95307747Y-107226127D01*
X95292785Y-107217597D01*
X95278731Y-107207642D01*
X95265720Y-107196357D01*
X95253879Y-107183851D01*
X95243320Y-107170245D01*
X95234145Y-107155669D01*
X95226444Y-107140264D01*
X95220289Y-107124178D01*
X95215741Y-107107567D01*
X95212843Y-107090590D01*
X95211623Y-107073410D01*
X95212092Y-107056194D01*
X95214247Y-107039107D01*
X95440163Y-105757872D01*
X95443983Y-105741078D01*
X95449430Y-105724739D01*
X95456452Y-105709013D01*
X95464982Y-105694051D01*
X95474937Y-105679997D01*
X95486222Y-105666986D01*
X95498728Y-105655145D01*
X95512334Y-105644586D01*
X95526910Y-105635411D01*
X95542315Y-105627710D01*
X95558400Y-105621555D01*
X95575012Y-105617007D01*
X95591989Y-105614109D01*
X95609168Y-105612889D01*
X95626385Y-105613358D01*
G37*
G36*
X101953831Y-110537376D02*
G01*
X101980241Y-110540707D01*
X102728204Y-110672593D01*
X102754160Y-110678496D01*
X102779413Y-110686915D01*
X102803719Y-110697768D01*
X102826844Y-110710952D01*
X102848565Y-110726339D01*
X102868674Y-110743780D01*
X102886977Y-110763109D01*
X102903296Y-110784139D01*
X102917476Y-110806667D01*
X102929379Y-110830476D01*
X102938892Y-110855338D01*
X102945921Y-110881012D01*
X102950401Y-110907251D01*
X102952286Y-110933804D01*
X102951561Y-110960413D01*
X102948230Y-110986823D01*
X102712155Y-112325671D01*
X102706252Y-112351627D01*
X102697833Y-112376880D01*
X102686980Y-112401186D01*
X102673796Y-112424311D01*
X102658409Y-112446032D01*
X102640968Y-112466141D01*
X102621639Y-112484444D01*
X102600609Y-112500763D01*
X102578081Y-112514943D01*
X102554272Y-112526846D01*
X102529410Y-112536359D01*
X102503736Y-112543388D01*
X102477497Y-112547868D01*
X102450944Y-112549753D01*
X102424335Y-112549028D01*
X102397925Y-112545697D01*
X101649962Y-112413811D01*
X101624006Y-112407908D01*
X101598753Y-112399489D01*
X101574447Y-112388636D01*
X101551322Y-112375452D01*
X101529601Y-112360065D01*
X101509492Y-112342624D01*
X101491189Y-112323295D01*
X101474870Y-112302265D01*
X101460690Y-112279737D01*
X101448787Y-112255928D01*
X101439274Y-112231066D01*
X101432245Y-112205392D01*
X101427765Y-112179153D01*
X101425880Y-112152600D01*
X101426605Y-112125991D01*
X101429936Y-112099581D01*
X101666011Y-110760733D01*
X101671914Y-110734777D01*
X101680333Y-110709524D01*
X101691186Y-110685218D01*
X101704370Y-110662093D01*
X101719757Y-110640372D01*
X101737198Y-110620263D01*
X101756527Y-110601960D01*
X101777557Y-110585641D01*
X101800085Y-110571461D01*
X101823894Y-110559558D01*
X101848756Y-110550045D01*
X101874430Y-110543016D01*
X101900669Y-110538536D01*
X101927222Y-110536651D01*
X101953831Y-110537376D01*
G37*
G36*
X93484484Y-109044001D02*
G01*
X93510894Y-109047332D01*
X94258857Y-109179218D01*
X94284813Y-109185121D01*
X94310066Y-109193540D01*
X94334372Y-109204393D01*
X94357497Y-109217577D01*
X94379218Y-109232964D01*
X94399327Y-109250405D01*
X94417630Y-109269734D01*
X94433949Y-109290764D01*
X94448129Y-109313292D01*
X94460032Y-109337101D01*
X94469545Y-109361963D01*
X94476574Y-109387637D01*
X94481054Y-109413876D01*
X94482939Y-109440429D01*
X94482214Y-109467038D01*
X94478883Y-109493448D01*
X94242808Y-110832296D01*
X94236905Y-110858252D01*
X94228486Y-110883505D01*
X94217633Y-110907811D01*
X94204449Y-110930936D01*
X94189062Y-110952657D01*
X94171621Y-110972766D01*
X94152292Y-110991069D01*
X94131262Y-111007388D01*
X94108734Y-111021568D01*
X94084925Y-111033471D01*
X94060063Y-111042984D01*
X94034389Y-111050013D01*
X94008150Y-111054493D01*
X93981597Y-111056378D01*
X93954988Y-111055653D01*
X93928578Y-111052322D01*
X93180615Y-110920436D01*
X93154659Y-110914533D01*
X93129406Y-110906114D01*
X93105100Y-110895261D01*
X93081975Y-110882077D01*
X93060254Y-110866690D01*
X93040145Y-110849249D01*
X93021842Y-110829920D01*
X93005523Y-110808890D01*
X92991343Y-110786362D01*
X92979440Y-110762553D01*
X92969927Y-110737691D01*
X92962898Y-110712017D01*
X92958418Y-110685778D01*
X92956533Y-110659225D01*
X92957258Y-110632616D01*
X92960589Y-110606206D01*
X93196664Y-109267358D01*
X93202567Y-109241402D01*
X93210986Y-109216149D01*
X93221839Y-109191843D01*
X93235023Y-109168718D01*
X93250410Y-109146997D01*
X93267851Y-109126888D01*
X93287180Y-109108585D01*
X93308210Y-109092266D01*
X93330738Y-109078086D01*
X93354547Y-109066183D01*
X93379409Y-109056670D01*
X93405083Y-109049641D01*
X93431322Y-109045161D01*
X93457875Y-109043276D01*
X93484484Y-109044001D01*
G37*
%TD*%
D14*
%TO.C,GND*%
X91800000Y-92380000D03*
%TD*%
%TO.C,3.3V*%
X93010000Y-91320000D03*
%TD*%
%TO.C,CLK*%
X95550000Y-89630000D03*
%TD*%
%TO.C,DIO*%
X94270000Y-90430000D03*
%TD*%
D12*
%TO.C,J2*%
G36*
X105241461Y-104936398D02*
G01*
X105258549Y-104938553D01*
X105275342Y-104942373D01*
X105291681Y-104947820D01*
X105307407Y-104954842D01*
X105322369Y-104963372D01*
X105336423Y-104973327D01*
X105349434Y-104984612D01*
X105361275Y-104997118D01*
X105371834Y-105010724D01*
X106118057Y-106076441D01*
X106127232Y-106091017D01*
X106134933Y-106106422D01*
X106141088Y-106122508D01*
X106145636Y-106139119D01*
X106148534Y-106156096D01*
X106149754Y-106173275D01*
X106149285Y-106190492D01*
X106147130Y-106207579D01*
X106143310Y-106224373D01*
X106137863Y-106240712D01*
X106130841Y-106256438D01*
X106122311Y-106271400D01*
X106112356Y-106285454D01*
X106101071Y-106298465D01*
X106088565Y-106310306D01*
X106074958Y-106320865D01*
X105787435Y-106522190D01*
X105772860Y-106531365D01*
X105757455Y-106539066D01*
X105741369Y-106545221D01*
X105724758Y-106549769D01*
X105707781Y-106552667D01*
X105690601Y-106553887D01*
X105673385Y-106553418D01*
X105656297Y-106551263D01*
X105639504Y-106547443D01*
X105623165Y-106541996D01*
X105607439Y-106534974D01*
X105592477Y-106526444D01*
X105578423Y-106516489D01*
X105565412Y-106505204D01*
X105553571Y-106492698D01*
X105543012Y-106479092D01*
X104796789Y-105413375D01*
X104787614Y-105398799D01*
X104779913Y-105383394D01*
X104773758Y-105367308D01*
X104769210Y-105350697D01*
X104766312Y-105333720D01*
X104765092Y-105316541D01*
X104765561Y-105299324D01*
X104767716Y-105282237D01*
X104771536Y-105265443D01*
X104776983Y-105249104D01*
X104784005Y-105233378D01*
X104792535Y-105218416D01*
X104802490Y-105204362D01*
X104813775Y-105191351D01*
X104826281Y-105179510D01*
X104839888Y-105168951D01*
X105127411Y-104967626D01*
X105141986Y-104958451D01*
X105157391Y-104950750D01*
X105173477Y-104944595D01*
X105190088Y-104940047D01*
X105207065Y-104937149D01*
X105224245Y-104935929D01*
X105241461Y-104936398D01*
G37*
G36*
X104422309Y-105509974D02*
G01*
X104439397Y-105512129D01*
X104456190Y-105515949D01*
X104472529Y-105521396D01*
X104488255Y-105528418D01*
X104503217Y-105536948D01*
X104517271Y-105546903D01*
X104530282Y-105558188D01*
X104542123Y-105570694D01*
X104552682Y-105584300D01*
X105298905Y-106650017D01*
X105308080Y-106664593D01*
X105315781Y-106679998D01*
X105321936Y-106696084D01*
X105326484Y-106712695D01*
X105329382Y-106729672D01*
X105330602Y-106746851D01*
X105330133Y-106764068D01*
X105327978Y-106781155D01*
X105324158Y-106797949D01*
X105318711Y-106814288D01*
X105311689Y-106830014D01*
X105303159Y-106844976D01*
X105293204Y-106859030D01*
X105281919Y-106872041D01*
X105269413Y-106883882D01*
X105255806Y-106894441D01*
X104968283Y-107095766D01*
X104953708Y-107104941D01*
X104938303Y-107112642D01*
X104922217Y-107118797D01*
X104905606Y-107123345D01*
X104888629Y-107126243D01*
X104871449Y-107127463D01*
X104854233Y-107126994D01*
X104837145Y-107124839D01*
X104820352Y-107121019D01*
X104804013Y-107115572D01*
X104788287Y-107108550D01*
X104773325Y-107100020D01*
X104759271Y-107090065D01*
X104746260Y-107078780D01*
X104734419Y-107066274D01*
X104723860Y-107052668D01*
X103977637Y-105986951D01*
X103968462Y-105972375D01*
X103960761Y-105956970D01*
X103954606Y-105940884D01*
X103950058Y-105924273D01*
X103947160Y-105907296D01*
X103945940Y-105890117D01*
X103946409Y-105872900D01*
X103948564Y-105855813D01*
X103952384Y-105839019D01*
X103957831Y-105822680D01*
X103964853Y-105806954D01*
X103973383Y-105791992D01*
X103983338Y-105777938D01*
X103994623Y-105764927D01*
X104007129Y-105753086D01*
X104020736Y-105742527D01*
X104308259Y-105541202D01*
X104322834Y-105532027D01*
X104338239Y-105524326D01*
X104354325Y-105518171D01*
X104370936Y-105513623D01*
X104387913Y-105510725D01*
X104405093Y-105509505D01*
X104422309Y-105509974D01*
G37*
G36*
X108686806Y-107128377D02*
G01*
X108713216Y-107131708D01*
X108739172Y-107137611D01*
X108764425Y-107146030D01*
X108788731Y-107156883D01*
X108811856Y-107170067D01*
X108833577Y-107185454D01*
X108853686Y-107202895D01*
X108871988Y-107222224D01*
X108888308Y-107243254D01*
X109668086Y-108356893D01*
X109682266Y-108379421D01*
X109694169Y-108403230D01*
X109703682Y-108428092D01*
X109710711Y-108453766D01*
X109715191Y-108480006D01*
X109717076Y-108506558D01*
X109716351Y-108533167D01*
X109713020Y-108559577D01*
X109707117Y-108585533D01*
X109698698Y-108610786D01*
X109687845Y-108635092D01*
X109674661Y-108658217D01*
X109659274Y-108679939D01*
X109641832Y-108700047D01*
X109622504Y-108718350D01*
X109601474Y-108734669D01*
X108979326Y-109170302D01*
X108956798Y-109184482D01*
X108932989Y-109196385D01*
X108908127Y-109205898D01*
X108882453Y-109212927D01*
X108856214Y-109217407D01*
X108829661Y-109219292D01*
X108803052Y-109218567D01*
X108776642Y-109215236D01*
X108750686Y-109209333D01*
X108725433Y-109200914D01*
X108701127Y-109190061D01*
X108678002Y-109176877D01*
X108656281Y-109161490D01*
X108636172Y-109144049D01*
X108617870Y-109124720D01*
X108601550Y-109103690D01*
X107821772Y-107990051D01*
X107807592Y-107967523D01*
X107795689Y-107943714D01*
X107786176Y-107918852D01*
X107779147Y-107893178D01*
X107774667Y-107866938D01*
X107772782Y-107840386D01*
X107773507Y-107813777D01*
X107776838Y-107787367D01*
X107782741Y-107761411D01*
X107791160Y-107736158D01*
X107802013Y-107711852D01*
X107815197Y-107688727D01*
X107830584Y-107667005D01*
X107848026Y-107646897D01*
X107867354Y-107628594D01*
X107888384Y-107612275D01*
X108510532Y-107176642D01*
X108533060Y-107162462D01*
X108556869Y-107150559D01*
X108581731Y-107141046D01*
X108607405Y-107134017D01*
X108633644Y-107129537D01*
X108660197Y-107127652D01*
X108686806Y-107128377D01*
G37*
G36*
X105737859Y-109193253D02*
G01*
X105764269Y-109196584D01*
X105790225Y-109202487D01*
X105815478Y-109210906D01*
X105839784Y-109221759D01*
X105862909Y-109234943D01*
X105884630Y-109250330D01*
X105904739Y-109267771D01*
X105923041Y-109287100D01*
X105939361Y-109308130D01*
X106719139Y-110421769D01*
X106733319Y-110444297D01*
X106745222Y-110468106D01*
X106754735Y-110492968D01*
X106761764Y-110518642D01*
X106766244Y-110544882D01*
X106768129Y-110571434D01*
X106767404Y-110598043D01*
X106764073Y-110624453D01*
X106758170Y-110650409D01*
X106749751Y-110675662D01*
X106738898Y-110699968D01*
X106725714Y-110723093D01*
X106710327Y-110744815D01*
X106692885Y-110764923D01*
X106673557Y-110783226D01*
X106652527Y-110799545D01*
X106030379Y-111235178D01*
X106007851Y-111249358D01*
X105984042Y-111261261D01*
X105959180Y-111270774D01*
X105933506Y-111277803D01*
X105907267Y-111282283D01*
X105880714Y-111284168D01*
X105854105Y-111283443D01*
X105827695Y-111280112D01*
X105801739Y-111274209D01*
X105776486Y-111265790D01*
X105752180Y-111254937D01*
X105729055Y-111241753D01*
X105707334Y-111226366D01*
X105687225Y-111208925D01*
X105668923Y-111189596D01*
X105652603Y-111168566D01*
X104872825Y-110054927D01*
X104858645Y-110032399D01*
X104846742Y-110008590D01*
X104837229Y-109983728D01*
X104830200Y-109958054D01*
X104825720Y-109931814D01*
X104823835Y-109905262D01*
X104824560Y-109878653D01*
X104827891Y-109852243D01*
X104833794Y-109826287D01*
X104842213Y-109801034D01*
X104853066Y-109776728D01*
X104866250Y-109753603D01*
X104881637Y-109731881D01*
X104899079Y-109711773D01*
X104918407Y-109693470D01*
X104939437Y-109677151D01*
X105561585Y-109241518D01*
X105584113Y-109227338D01*
X105607922Y-109215435D01*
X105632784Y-109205922D01*
X105658458Y-109198893D01*
X105684697Y-109194413D01*
X105711250Y-109192528D01*
X105737859Y-109193253D01*
G37*
%TD*%
D15*
%TO.C,U3*%
X98095000Y-102700000D03*
X99365000Y-102700000D03*
X100635000Y-102700000D03*
X101905000Y-102700000D03*
X101905000Y-97300000D03*
X100635000Y-97300000D03*
X99365000Y-97300000D03*
X98095000Y-97300000D03*
%TD*%
D12*
%TO.C,R9*%
G36*
X95750691Y-103745176D02*
G01*
X95774401Y-103748693D01*
X95797652Y-103754517D01*
X95820220Y-103762592D01*
X95841889Y-103772841D01*
X95862448Y-103785164D01*
X95881701Y-103799442D01*
X95899461Y-103815539D01*
X95915558Y-103833299D01*
X95929836Y-103852552D01*
X95942159Y-103873111D01*
X95952408Y-103894780D01*
X95960483Y-103917348D01*
X95966307Y-103940599D01*
X95969824Y-103964309D01*
X95971000Y-103988250D01*
X95971000Y-104551750D01*
X95969824Y-104575691D01*
X95966307Y-104599401D01*
X95960483Y-104622652D01*
X95952408Y-104645220D01*
X95942159Y-104666889D01*
X95929836Y-104687448D01*
X95915558Y-104706701D01*
X95899461Y-104724461D01*
X95881701Y-104740558D01*
X95862448Y-104754836D01*
X95841889Y-104767159D01*
X95820220Y-104777408D01*
X95797652Y-104785483D01*
X95774401Y-104791307D01*
X95750691Y-104794824D01*
X95726750Y-104796000D01*
X95238250Y-104796000D01*
X95214309Y-104794824D01*
X95190599Y-104791307D01*
X95167348Y-104785483D01*
X95144780Y-104777408D01*
X95123111Y-104767159D01*
X95102552Y-104754836D01*
X95083299Y-104740558D01*
X95065539Y-104724461D01*
X95049442Y-104706701D01*
X95035164Y-104687448D01*
X95022841Y-104666889D01*
X95012592Y-104645220D01*
X95004517Y-104622652D01*
X94998693Y-104599401D01*
X94995176Y-104575691D01*
X94994000Y-104551750D01*
X94994000Y-103988250D01*
X94995176Y-103964309D01*
X94998693Y-103940599D01*
X95004517Y-103917348D01*
X95012592Y-103894780D01*
X95022841Y-103873111D01*
X95035164Y-103852552D01*
X95049442Y-103833299D01*
X95065539Y-103815539D01*
X95083299Y-103799442D01*
X95102552Y-103785164D01*
X95123111Y-103772841D01*
X95144780Y-103762592D01*
X95167348Y-103754517D01*
X95190599Y-103748693D01*
X95214309Y-103745176D01*
X95238250Y-103744000D01*
X95726750Y-103744000D01*
X95750691Y-103745176D01*
G37*
G36*
X97325691Y-103745176D02*
G01*
X97349401Y-103748693D01*
X97372652Y-103754517D01*
X97395220Y-103762592D01*
X97416889Y-103772841D01*
X97437448Y-103785164D01*
X97456701Y-103799442D01*
X97474461Y-103815539D01*
X97490558Y-103833299D01*
X97504836Y-103852552D01*
X97517159Y-103873111D01*
X97527408Y-103894780D01*
X97535483Y-103917348D01*
X97541307Y-103940599D01*
X97544824Y-103964309D01*
X97546000Y-103988250D01*
X97546000Y-104551750D01*
X97544824Y-104575691D01*
X97541307Y-104599401D01*
X97535483Y-104622652D01*
X97527408Y-104645220D01*
X97517159Y-104666889D01*
X97504836Y-104687448D01*
X97490558Y-104706701D01*
X97474461Y-104724461D01*
X97456701Y-104740558D01*
X97437448Y-104754836D01*
X97416889Y-104767159D01*
X97395220Y-104777408D01*
X97372652Y-104785483D01*
X97349401Y-104791307D01*
X97325691Y-104794824D01*
X97301750Y-104796000D01*
X96813250Y-104796000D01*
X96789309Y-104794824D01*
X96765599Y-104791307D01*
X96742348Y-104785483D01*
X96719780Y-104777408D01*
X96698111Y-104767159D01*
X96677552Y-104754836D01*
X96658299Y-104740558D01*
X96640539Y-104724461D01*
X96624442Y-104706701D01*
X96610164Y-104687448D01*
X96597841Y-104666889D01*
X96587592Y-104645220D01*
X96579517Y-104622652D01*
X96573693Y-104599401D01*
X96570176Y-104575691D01*
X96569000Y-104551750D01*
X96569000Y-103988250D01*
X96570176Y-103964309D01*
X96573693Y-103940599D01*
X96579517Y-103917348D01*
X96587592Y-103894780D01*
X96597841Y-103873111D01*
X96610164Y-103852552D01*
X96624442Y-103833299D01*
X96640539Y-103815539D01*
X96658299Y-103799442D01*
X96677552Y-103785164D01*
X96698111Y-103772841D01*
X96719780Y-103762592D01*
X96742348Y-103754517D01*
X96765599Y-103748693D01*
X96789309Y-103745176D01*
X96813250Y-103744000D01*
X97301750Y-103744000D01*
X97325691Y-103745176D01*
G37*
%TD*%
%TO.C,R8*%
G36*
X104165691Y-98505176D02*
G01*
X104189401Y-98508693D01*
X104212652Y-98514517D01*
X104235220Y-98522592D01*
X104256889Y-98532841D01*
X104277448Y-98545164D01*
X104296701Y-98559442D01*
X104314461Y-98575539D01*
X104330558Y-98593299D01*
X104344836Y-98612552D01*
X104357159Y-98633111D01*
X104367408Y-98654780D01*
X104375483Y-98677348D01*
X104381307Y-98700599D01*
X104384824Y-98724309D01*
X104386000Y-98748250D01*
X104386000Y-99236750D01*
X104384824Y-99260691D01*
X104381307Y-99284401D01*
X104375483Y-99307652D01*
X104367408Y-99330220D01*
X104357159Y-99351889D01*
X104344836Y-99372448D01*
X104330558Y-99391701D01*
X104314461Y-99409461D01*
X104296701Y-99425558D01*
X104277448Y-99439836D01*
X104256889Y-99452159D01*
X104235220Y-99462408D01*
X104212652Y-99470483D01*
X104189401Y-99476307D01*
X104165691Y-99479824D01*
X104141750Y-99481000D01*
X103578250Y-99481000D01*
X103554309Y-99479824D01*
X103530599Y-99476307D01*
X103507348Y-99470483D01*
X103484780Y-99462408D01*
X103463111Y-99452159D01*
X103442552Y-99439836D01*
X103423299Y-99425558D01*
X103405539Y-99409461D01*
X103389442Y-99391701D01*
X103375164Y-99372448D01*
X103362841Y-99351889D01*
X103352592Y-99330220D01*
X103344517Y-99307652D01*
X103338693Y-99284401D01*
X103335176Y-99260691D01*
X103334000Y-99236750D01*
X103334000Y-98748250D01*
X103335176Y-98724309D01*
X103338693Y-98700599D01*
X103344517Y-98677348D01*
X103352592Y-98654780D01*
X103362841Y-98633111D01*
X103375164Y-98612552D01*
X103389442Y-98593299D01*
X103405539Y-98575539D01*
X103423299Y-98559442D01*
X103442552Y-98545164D01*
X103463111Y-98532841D01*
X103484780Y-98522592D01*
X103507348Y-98514517D01*
X103530599Y-98508693D01*
X103554309Y-98505176D01*
X103578250Y-98504000D01*
X104141750Y-98504000D01*
X104165691Y-98505176D01*
G37*
G36*
X104165691Y-100080176D02*
G01*
X104189401Y-100083693D01*
X104212652Y-100089517D01*
X104235220Y-100097592D01*
X104256889Y-100107841D01*
X104277448Y-100120164D01*
X104296701Y-100134442D01*
X104314461Y-100150539D01*
X104330558Y-100168299D01*
X104344836Y-100187552D01*
X104357159Y-100208111D01*
X104367408Y-100229780D01*
X104375483Y-100252348D01*
X104381307Y-100275599D01*
X104384824Y-100299309D01*
X104386000Y-100323250D01*
X104386000Y-100811750D01*
X104384824Y-100835691D01*
X104381307Y-100859401D01*
X104375483Y-100882652D01*
X104367408Y-100905220D01*
X104357159Y-100926889D01*
X104344836Y-100947448D01*
X104330558Y-100966701D01*
X104314461Y-100984461D01*
X104296701Y-101000558D01*
X104277448Y-101014836D01*
X104256889Y-101027159D01*
X104235220Y-101037408D01*
X104212652Y-101045483D01*
X104189401Y-101051307D01*
X104165691Y-101054824D01*
X104141750Y-101056000D01*
X103578250Y-101056000D01*
X103554309Y-101054824D01*
X103530599Y-101051307D01*
X103507348Y-101045483D01*
X103484780Y-101037408D01*
X103463111Y-101027159D01*
X103442552Y-101014836D01*
X103423299Y-101000558D01*
X103405539Y-100984461D01*
X103389442Y-100966701D01*
X103375164Y-100947448D01*
X103362841Y-100926889D01*
X103352592Y-100905220D01*
X103344517Y-100882652D01*
X103338693Y-100859401D01*
X103335176Y-100835691D01*
X103334000Y-100811750D01*
X103334000Y-100323250D01*
X103335176Y-100299309D01*
X103338693Y-100275599D01*
X103344517Y-100252348D01*
X103352592Y-100229780D01*
X103362841Y-100208111D01*
X103375164Y-100187552D01*
X103389442Y-100168299D01*
X103405539Y-100150539D01*
X103423299Y-100134442D01*
X103442552Y-100120164D01*
X103463111Y-100107841D01*
X103484780Y-100097592D01*
X103507348Y-100089517D01*
X103530599Y-100083693D01*
X103554309Y-100080176D01*
X103578250Y-100079000D01*
X104141750Y-100079000D01*
X104165691Y-100080176D01*
G37*
%TD*%
%TO.C,R7*%
G36*
X99400691Y-104075176D02*
G01*
X99424401Y-104078693D01*
X99447652Y-104084517D01*
X99470220Y-104092592D01*
X99491889Y-104102841D01*
X99512448Y-104115164D01*
X99531701Y-104129442D01*
X99549461Y-104145539D01*
X99565558Y-104163299D01*
X99579836Y-104182552D01*
X99592159Y-104203111D01*
X99602408Y-104224780D01*
X99610483Y-104247348D01*
X99616307Y-104270599D01*
X99619824Y-104294309D01*
X99621000Y-104318250D01*
X99621000Y-104881750D01*
X99619824Y-104905691D01*
X99616307Y-104929401D01*
X99610483Y-104952652D01*
X99602408Y-104975220D01*
X99592159Y-104996889D01*
X99579836Y-105017448D01*
X99565558Y-105036701D01*
X99549461Y-105054461D01*
X99531701Y-105070558D01*
X99512448Y-105084836D01*
X99491889Y-105097159D01*
X99470220Y-105107408D01*
X99447652Y-105115483D01*
X99424401Y-105121307D01*
X99400691Y-105124824D01*
X99376750Y-105126000D01*
X98888250Y-105126000D01*
X98864309Y-105124824D01*
X98840599Y-105121307D01*
X98817348Y-105115483D01*
X98794780Y-105107408D01*
X98773111Y-105097159D01*
X98752552Y-105084836D01*
X98733299Y-105070558D01*
X98715539Y-105054461D01*
X98699442Y-105036701D01*
X98685164Y-105017448D01*
X98672841Y-104996889D01*
X98662592Y-104975220D01*
X98654517Y-104952652D01*
X98648693Y-104929401D01*
X98645176Y-104905691D01*
X98644000Y-104881750D01*
X98644000Y-104318250D01*
X98645176Y-104294309D01*
X98648693Y-104270599D01*
X98654517Y-104247348D01*
X98662592Y-104224780D01*
X98672841Y-104203111D01*
X98685164Y-104182552D01*
X98699442Y-104163299D01*
X98715539Y-104145539D01*
X98733299Y-104129442D01*
X98752552Y-104115164D01*
X98773111Y-104102841D01*
X98794780Y-104092592D01*
X98817348Y-104084517D01*
X98840599Y-104078693D01*
X98864309Y-104075176D01*
X98888250Y-104074000D01*
X99376750Y-104074000D01*
X99400691Y-104075176D01*
G37*
G36*
X100975691Y-104075176D02*
G01*
X100999401Y-104078693D01*
X101022652Y-104084517D01*
X101045220Y-104092592D01*
X101066889Y-104102841D01*
X101087448Y-104115164D01*
X101106701Y-104129442D01*
X101124461Y-104145539D01*
X101140558Y-104163299D01*
X101154836Y-104182552D01*
X101167159Y-104203111D01*
X101177408Y-104224780D01*
X101185483Y-104247348D01*
X101191307Y-104270599D01*
X101194824Y-104294309D01*
X101196000Y-104318250D01*
X101196000Y-104881750D01*
X101194824Y-104905691D01*
X101191307Y-104929401D01*
X101185483Y-104952652D01*
X101177408Y-104975220D01*
X101167159Y-104996889D01*
X101154836Y-105017448D01*
X101140558Y-105036701D01*
X101124461Y-105054461D01*
X101106701Y-105070558D01*
X101087448Y-105084836D01*
X101066889Y-105097159D01*
X101045220Y-105107408D01*
X101022652Y-105115483D01*
X100999401Y-105121307D01*
X100975691Y-105124824D01*
X100951750Y-105126000D01*
X100463250Y-105126000D01*
X100439309Y-105124824D01*
X100415599Y-105121307D01*
X100392348Y-105115483D01*
X100369780Y-105107408D01*
X100348111Y-105097159D01*
X100327552Y-105084836D01*
X100308299Y-105070558D01*
X100290539Y-105054461D01*
X100274442Y-105036701D01*
X100260164Y-105017448D01*
X100247841Y-104996889D01*
X100237592Y-104975220D01*
X100229517Y-104952652D01*
X100223693Y-104929401D01*
X100220176Y-104905691D01*
X100219000Y-104881750D01*
X100219000Y-104318250D01*
X100220176Y-104294309D01*
X100223693Y-104270599D01*
X100229517Y-104247348D01*
X100237592Y-104224780D01*
X100247841Y-104203111D01*
X100260164Y-104182552D01*
X100274442Y-104163299D01*
X100290539Y-104145539D01*
X100308299Y-104129442D01*
X100327552Y-104115164D01*
X100348111Y-104102841D01*
X100369780Y-104092592D01*
X100392348Y-104084517D01*
X100415599Y-104078693D01*
X100439309Y-104075176D01*
X100463250Y-104074000D01*
X100951750Y-104074000D01*
X100975691Y-104075176D01*
G37*
%TD*%
%TO.C,JP1*%
G36*
X96559602Y-89373888D02*
G01*
X96559602Y-89355466D01*
X96559848Y-89350467D01*
X96564658Y-89301636D01*
X96565392Y-89296686D01*
X96574964Y-89248561D01*
X96576180Y-89243705D01*
X96590424Y-89196750D01*
X96592110Y-89192039D01*
X96610887Y-89146706D01*
X96613027Y-89142180D01*
X96636158Y-89098907D01*
X96638731Y-89094616D01*
X96665991Y-89053817D01*
X96668973Y-89049796D01*
X96700101Y-89011867D01*
X96703462Y-89008159D01*
X96738159Y-88973462D01*
X96741867Y-88970101D01*
X96779796Y-88938973D01*
X96783817Y-88935991D01*
X96824616Y-88908731D01*
X96828907Y-88906158D01*
X96872180Y-88883027D01*
X96876706Y-88880887D01*
X96922039Y-88862110D01*
X96926750Y-88860424D01*
X96973705Y-88846180D01*
X96978561Y-88844964D01*
X97026686Y-88835392D01*
X97031636Y-88834658D01*
X97080467Y-88829848D01*
X97085466Y-88829602D01*
X97103888Y-88829602D01*
X97110000Y-88829000D01*
X97610000Y-88829000D01*
X97616112Y-88829602D01*
X97634534Y-88829602D01*
X97639533Y-88829848D01*
X97688364Y-88834658D01*
X97693314Y-88835392D01*
X97741439Y-88844964D01*
X97746295Y-88846180D01*
X97793250Y-88860424D01*
X97797961Y-88862110D01*
X97843294Y-88880887D01*
X97847820Y-88883027D01*
X97891093Y-88906158D01*
X97895384Y-88908731D01*
X97936183Y-88935991D01*
X97940204Y-88938973D01*
X97978133Y-88970101D01*
X97981841Y-88973462D01*
X98016538Y-89008159D01*
X98019899Y-89011867D01*
X98051027Y-89049796D01*
X98054009Y-89053817D01*
X98081269Y-89094616D01*
X98083842Y-89098907D01*
X98106973Y-89142180D01*
X98109113Y-89146706D01*
X98127890Y-89192039D01*
X98129576Y-89196750D01*
X98143820Y-89243705D01*
X98145036Y-89248561D01*
X98154608Y-89296686D01*
X98155342Y-89301636D01*
X98160152Y-89350467D01*
X98160398Y-89355466D01*
X98160398Y-89373888D01*
X98161000Y-89380000D01*
X98161000Y-89880000D01*
X98160020Y-89889950D01*
X98157118Y-89899517D01*
X98152405Y-89908334D01*
X98146062Y-89916062D01*
X98138334Y-89922405D01*
X98129517Y-89927118D01*
X98119950Y-89930020D01*
X98110000Y-89931000D01*
X96610000Y-89931000D01*
X96600050Y-89930020D01*
X96590483Y-89927118D01*
X96581666Y-89922405D01*
X96573938Y-89916062D01*
X96567595Y-89908334D01*
X96562882Y-89899517D01*
X96559980Y-89889950D01*
X96559000Y-89880000D01*
X96559000Y-89380000D01*
X96559602Y-89373888D01*
G37*
G36*
X96559980Y-90170050D02*
G01*
X96562882Y-90160483D01*
X96567595Y-90151666D01*
X96573938Y-90143938D01*
X96581666Y-90137595D01*
X96590483Y-90132882D01*
X96600050Y-90129980D01*
X96610000Y-90129000D01*
X98110000Y-90129000D01*
X98119950Y-90129980D01*
X98129517Y-90132882D01*
X98138334Y-90137595D01*
X98146062Y-90143938D01*
X98152405Y-90151666D01*
X98157118Y-90160483D01*
X98160020Y-90170050D01*
X98161000Y-90180000D01*
X98161000Y-90680000D01*
X98160398Y-90686112D01*
X98160398Y-90704534D01*
X98160152Y-90709533D01*
X98155342Y-90758364D01*
X98154608Y-90763314D01*
X98145036Y-90811439D01*
X98143820Y-90816295D01*
X98129576Y-90863250D01*
X98127890Y-90867961D01*
X98109113Y-90913294D01*
X98106973Y-90917820D01*
X98083842Y-90961093D01*
X98081269Y-90965384D01*
X98054009Y-91006183D01*
X98051027Y-91010204D01*
X98019899Y-91048133D01*
X98016538Y-91051841D01*
X97981841Y-91086538D01*
X97978133Y-91089899D01*
X97940204Y-91121027D01*
X97936183Y-91124009D01*
X97895384Y-91151269D01*
X97891093Y-91153842D01*
X97847820Y-91176973D01*
X97843294Y-91179113D01*
X97797961Y-91197890D01*
X97793250Y-91199576D01*
X97746295Y-91213820D01*
X97741439Y-91215036D01*
X97693314Y-91224608D01*
X97688364Y-91225342D01*
X97639533Y-91230152D01*
X97634534Y-91230398D01*
X97616112Y-91230398D01*
X97610000Y-91231000D01*
X97110000Y-91231000D01*
X97103888Y-91230398D01*
X97085466Y-91230398D01*
X97080467Y-91230152D01*
X97031636Y-91225342D01*
X97026686Y-91224608D01*
X96978561Y-91215036D01*
X96973705Y-91213820D01*
X96926750Y-91199576D01*
X96922039Y-91197890D01*
X96876706Y-91179113D01*
X96872180Y-91176973D01*
X96828907Y-91153842D01*
X96824616Y-91151269D01*
X96783817Y-91124009D01*
X96779796Y-91121027D01*
X96741867Y-91089899D01*
X96738159Y-91086538D01*
X96703462Y-91051841D01*
X96700101Y-91048133D01*
X96668973Y-91010204D01*
X96665991Y-91006183D01*
X96638731Y-90965384D01*
X96636158Y-90961093D01*
X96613027Y-90917820D01*
X96610887Y-90913294D01*
X96592110Y-90867961D01*
X96590424Y-90863250D01*
X96576180Y-90816295D01*
X96574964Y-90811439D01*
X96565392Y-90763314D01*
X96564658Y-90758364D01*
X96559848Y-90709533D01*
X96559602Y-90704534D01*
X96559602Y-90686112D01*
X96559000Y-90680000D01*
X96559000Y-90180000D01*
X96559980Y-90170050D01*
G37*
%TD*%
D16*
%TO.C,J3*%
X108737462Y-99603639D02*
X108737462Y-99603639D01*
X107868731Y-97216819D02*
X107868731Y-97216819D01*
D12*
G36*
X107538503Y-93675177D02*
G01*
X108154823Y-95368503D01*
X106461497Y-95984823D01*
X105845177Y-94291497D01*
X107538503Y-93675177D01*
G37*
%TD*%
%TO.C,D3*%
G36*
X102708270Y-93057742D02*
G01*
X101871361Y-94055132D01*
X101103784Y-93411058D01*
X101940693Y-92413668D01*
X102708270Y-93057742D01*
G37*
G36*
X105236216Y-95178942D02*
G01*
X104399307Y-96176332D01*
X103631730Y-95532258D01*
X104468639Y-94534868D01*
X105236216Y-95178942D01*
G37*
%TD*%
%TO.C,C18*%
G36*
X91945691Y-108090176D02*
G01*
X91969401Y-108093693D01*
X91992652Y-108099517D01*
X92015220Y-108107592D01*
X92036889Y-108117841D01*
X92057448Y-108130164D01*
X92076701Y-108144442D01*
X92094461Y-108160539D01*
X92110558Y-108178299D01*
X92124836Y-108197552D01*
X92137159Y-108218111D01*
X92147408Y-108239780D01*
X92155483Y-108262348D01*
X92161307Y-108285599D01*
X92164824Y-108309309D01*
X92166000Y-108333250D01*
X92166000Y-108821750D01*
X92164824Y-108845691D01*
X92161307Y-108869401D01*
X92155483Y-108892652D01*
X92147408Y-108915220D01*
X92137159Y-108936889D01*
X92124836Y-108957448D01*
X92110558Y-108976701D01*
X92094461Y-108994461D01*
X92076701Y-109010558D01*
X92057448Y-109024836D01*
X92036889Y-109037159D01*
X92015220Y-109047408D01*
X91992652Y-109055483D01*
X91969401Y-109061307D01*
X91945691Y-109064824D01*
X91921750Y-109066000D01*
X91358250Y-109066000D01*
X91334309Y-109064824D01*
X91310599Y-109061307D01*
X91287348Y-109055483D01*
X91264780Y-109047408D01*
X91243111Y-109037159D01*
X91222552Y-109024836D01*
X91203299Y-109010558D01*
X91185539Y-108994461D01*
X91169442Y-108976701D01*
X91155164Y-108957448D01*
X91142841Y-108936889D01*
X91132592Y-108915220D01*
X91124517Y-108892652D01*
X91118693Y-108869401D01*
X91115176Y-108845691D01*
X91114000Y-108821750D01*
X91114000Y-108333250D01*
X91115176Y-108309309D01*
X91118693Y-108285599D01*
X91124517Y-108262348D01*
X91132592Y-108239780D01*
X91142841Y-108218111D01*
X91155164Y-108197552D01*
X91169442Y-108178299D01*
X91185539Y-108160539D01*
X91203299Y-108144442D01*
X91222552Y-108130164D01*
X91243111Y-108117841D01*
X91264780Y-108107592D01*
X91287348Y-108099517D01*
X91310599Y-108093693D01*
X91334309Y-108090176D01*
X91358250Y-108089000D01*
X91921750Y-108089000D01*
X91945691Y-108090176D01*
G37*
G36*
X91945691Y-106515176D02*
G01*
X91969401Y-106518693D01*
X91992652Y-106524517D01*
X92015220Y-106532592D01*
X92036889Y-106542841D01*
X92057448Y-106555164D01*
X92076701Y-106569442D01*
X92094461Y-106585539D01*
X92110558Y-106603299D01*
X92124836Y-106622552D01*
X92137159Y-106643111D01*
X92147408Y-106664780D01*
X92155483Y-106687348D01*
X92161307Y-106710599D01*
X92164824Y-106734309D01*
X92166000Y-106758250D01*
X92166000Y-107246750D01*
X92164824Y-107270691D01*
X92161307Y-107294401D01*
X92155483Y-107317652D01*
X92147408Y-107340220D01*
X92137159Y-107361889D01*
X92124836Y-107382448D01*
X92110558Y-107401701D01*
X92094461Y-107419461D01*
X92076701Y-107435558D01*
X92057448Y-107449836D01*
X92036889Y-107462159D01*
X92015220Y-107472408D01*
X91992652Y-107480483D01*
X91969401Y-107486307D01*
X91945691Y-107489824D01*
X91921750Y-107491000D01*
X91358250Y-107491000D01*
X91334309Y-107489824D01*
X91310599Y-107486307D01*
X91287348Y-107480483D01*
X91264780Y-107472408D01*
X91243111Y-107462159D01*
X91222552Y-107449836D01*
X91203299Y-107435558D01*
X91185539Y-107419461D01*
X91169442Y-107401701D01*
X91155164Y-107382448D01*
X91142841Y-107361889D01*
X91132592Y-107340220D01*
X91124517Y-107317652D01*
X91118693Y-107294401D01*
X91115176Y-107270691D01*
X91114000Y-107246750D01*
X91114000Y-106758250D01*
X91115176Y-106734309D01*
X91118693Y-106710599D01*
X91124517Y-106687348D01*
X91132592Y-106664780D01*
X91142841Y-106643111D01*
X91155164Y-106622552D01*
X91169442Y-106603299D01*
X91185539Y-106585539D01*
X91203299Y-106569442D01*
X91222552Y-106555164D01*
X91243111Y-106542841D01*
X91264780Y-106532592D01*
X91287348Y-106524517D01*
X91310599Y-106518693D01*
X91334309Y-106515176D01*
X91358250Y-106514000D01*
X91921750Y-106514000D01*
X91945691Y-106515176D01*
G37*
%TD*%
%TO.C,C15*%
G36*
X98650691Y-93595176D02*
G01*
X98674401Y-93598693D01*
X98697652Y-93604517D01*
X98720220Y-93612592D01*
X98741889Y-93622841D01*
X98762448Y-93635164D01*
X98781701Y-93649442D01*
X98799461Y-93665539D01*
X98815558Y-93683299D01*
X98829836Y-93702552D01*
X98842159Y-93723111D01*
X98852408Y-93744780D01*
X98860483Y-93767348D01*
X98866307Y-93790599D01*
X98869824Y-93814309D01*
X98871000Y-93838250D01*
X98871000Y-94401750D01*
X98869824Y-94425691D01*
X98866307Y-94449401D01*
X98860483Y-94472652D01*
X98852408Y-94495220D01*
X98842159Y-94516889D01*
X98829836Y-94537448D01*
X98815558Y-94556701D01*
X98799461Y-94574461D01*
X98781701Y-94590558D01*
X98762448Y-94604836D01*
X98741889Y-94617159D01*
X98720220Y-94627408D01*
X98697652Y-94635483D01*
X98674401Y-94641307D01*
X98650691Y-94644824D01*
X98626750Y-94646000D01*
X98138250Y-94646000D01*
X98114309Y-94644824D01*
X98090599Y-94641307D01*
X98067348Y-94635483D01*
X98044780Y-94627408D01*
X98023111Y-94617159D01*
X98002552Y-94604836D01*
X97983299Y-94590558D01*
X97965539Y-94574461D01*
X97949442Y-94556701D01*
X97935164Y-94537448D01*
X97922841Y-94516889D01*
X97912592Y-94495220D01*
X97904517Y-94472652D01*
X97898693Y-94449401D01*
X97895176Y-94425691D01*
X97894000Y-94401750D01*
X97894000Y-93838250D01*
X97895176Y-93814309D01*
X97898693Y-93790599D01*
X97904517Y-93767348D01*
X97912592Y-93744780D01*
X97922841Y-93723111D01*
X97935164Y-93702552D01*
X97949442Y-93683299D01*
X97965539Y-93665539D01*
X97983299Y-93649442D01*
X98002552Y-93635164D01*
X98023111Y-93622841D01*
X98044780Y-93612592D01*
X98067348Y-93604517D01*
X98090599Y-93598693D01*
X98114309Y-93595176D01*
X98138250Y-93594000D01*
X98626750Y-93594000D01*
X98650691Y-93595176D01*
G37*
G36*
X97075691Y-93595176D02*
G01*
X97099401Y-93598693D01*
X97122652Y-93604517D01*
X97145220Y-93612592D01*
X97166889Y-93622841D01*
X97187448Y-93635164D01*
X97206701Y-93649442D01*
X97224461Y-93665539D01*
X97240558Y-93683299D01*
X97254836Y-93702552D01*
X97267159Y-93723111D01*
X97277408Y-93744780D01*
X97285483Y-93767348D01*
X97291307Y-93790599D01*
X97294824Y-93814309D01*
X97296000Y-93838250D01*
X97296000Y-94401750D01*
X97294824Y-94425691D01*
X97291307Y-94449401D01*
X97285483Y-94472652D01*
X97277408Y-94495220D01*
X97267159Y-94516889D01*
X97254836Y-94537448D01*
X97240558Y-94556701D01*
X97224461Y-94574461D01*
X97206701Y-94590558D01*
X97187448Y-94604836D01*
X97166889Y-94617159D01*
X97145220Y-94627408D01*
X97122652Y-94635483D01*
X97099401Y-94641307D01*
X97075691Y-94644824D01*
X97051750Y-94646000D01*
X96563250Y-94646000D01*
X96539309Y-94644824D01*
X96515599Y-94641307D01*
X96492348Y-94635483D01*
X96469780Y-94627408D01*
X96448111Y-94617159D01*
X96427552Y-94604836D01*
X96408299Y-94590558D01*
X96390539Y-94574461D01*
X96374442Y-94556701D01*
X96360164Y-94537448D01*
X96347841Y-94516889D01*
X96337592Y-94495220D01*
X96329517Y-94472652D01*
X96323693Y-94449401D01*
X96320176Y-94425691D01*
X96319000Y-94401750D01*
X96319000Y-93838250D01*
X96320176Y-93814309D01*
X96323693Y-93790599D01*
X96329517Y-93767348D01*
X96337592Y-93744780D01*
X96347841Y-93723111D01*
X96360164Y-93702552D01*
X96374442Y-93683299D01*
X96390539Y-93665539D01*
X96408299Y-93649442D01*
X96427552Y-93635164D01*
X96448111Y-93622841D01*
X96469780Y-93612592D01*
X96492348Y-93604517D01*
X96515599Y-93598693D01*
X96539309Y-93595176D01*
X96563250Y-93594000D01*
X97051750Y-93594000D01*
X97075691Y-93595176D01*
G37*
%TD*%
%TO.C,C14*%
G36*
X98650691Y-95075176D02*
G01*
X98674401Y-95078693D01*
X98697652Y-95084517D01*
X98720220Y-95092592D01*
X98741889Y-95102841D01*
X98762448Y-95115164D01*
X98781701Y-95129442D01*
X98799461Y-95145539D01*
X98815558Y-95163299D01*
X98829836Y-95182552D01*
X98842159Y-95203111D01*
X98852408Y-95224780D01*
X98860483Y-95247348D01*
X98866307Y-95270599D01*
X98869824Y-95294309D01*
X98871000Y-95318250D01*
X98871000Y-95881750D01*
X98869824Y-95905691D01*
X98866307Y-95929401D01*
X98860483Y-95952652D01*
X98852408Y-95975220D01*
X98842159Y-95996889D01*
X98829836Y-96017448D01*
X98815558Y-96036701D01*
X98799461Y-96054461D01*
X98781701Y-96070558D01*
X98762448Y-96084836D01*
X98741889Y-96097159D01*
X98720220Y-96107408D01*
X98697652Y-96115483D01*
X98674401Y-96121307D01*
X98650691Y-96124824D01*
X98626750Y-96126000D01*
X98138250Y-96126000D01*
X98114309Y-96124824D01*
X98090599Y-96121307D01*
X98067348Y-96115483D01*
X98044780Y-96107408D01*
X98023111Y-96097159D01*
X98002552Y-96084836D01*
X97983299Y-96070558D01*
X97965539Y-96054461D01*
X97949442Y-96036701D01*
X97935164Y-96017448D01*
X97922841Y-95996889D01*
X97912592Y-95975220D01*
X97904517Y-95952652D01*
X97898693Y-95929401D01*
X97895176Y-95905691D01*
X97894000Y-95881750D01*
X97894000Y-95318250D01*
X97895176Y-95294309D01*
X97898693Y-95270599D01*
X97904517Y-95247348D01*
X97912592Y-95224780D01*
X97922841Y-95203111D01*
X97935164Y-95182552D01*
X97949442Y-95163299D01*
X97965539Y-95145539D01*
X97983299Y-95129442D01*
X98002552Y-95115164D01*
X98023111Y-95102841D01*
X98044780Y-95092592D01*
X98067348Y-95084517D01*
X98090599Y-95078693D01*
X98114309Y-95075176D01*
X98138250Y-95074000D01*
X98626750Y-95074000D01*
X98650691Y-95075176D01*
G37*
G36*
X97075691Y-95075176D02*
G01*
X97099401Y-95078693D01*
X97122652Y-95084517D01*
X97145220Y-95092592D01*
X97166889Y-95102841D01*
X97187448Y-95115164D01*
X97206701Y-95129442D01*
X97224461Y-95145539D01*
X97240558Y-95163299D01*
X97254836Y-95182552D01*
X97267159Y-95203111D01*
X97277408Y-95224780D01*
X97285483Y-95247348D01*
X97291307Y-95270599D01*
X97294824Y-95294309D01*
X97296000Y-95318250D01*
X97296000Y-95881750D01*
X97294824Y-95905691D01*
X97291307Y-95929401D01*
X97285483Y-95952652D01*
X97277408Y-95975220D01*
X97267159Y-95996889D01*
X97254836Y-96017448D01*
X97240558Y-96036701D01*
X97224461Y-96054461D01*
X97206701Y-96070558D01*
X97187448Y-96084836D01*
X97166889Y-96097159D01*
X97145220Y-96107408D01*
X97122652Y-96115483D01*
X97099401Y-96121307D01*
X97075691Y-96124824D01*
X97051750Y-96126000D01*
X96563250Y-96126000D01*
X96539309Y-96124824D01*
X96515599Y-96121307D01*
X96492348Y-96115483D01*
X96469780Y-96107408D01*
X96448111Y-96097159D01*
X96427552Y-96084836D01*
X96408299Y-96070558D01*
X96390539Y-96054461D01*
X96374442Y-96036701D01*
X96360164Y-96017448D01*
X96347841Y-95996889D01*
X96337592Y-95975220D01*
X96329517Y-95952652D01*
X96323693Y-95929401D01*
X96320176Y-95905691D01*
X96319000Y-95881750D01*
X96319000Y-95318250D01*
X96320176Y-95294309D01*
X96323693Y-95270599D01*
X96329517Y-95247348D01*
X96337592Y-95224780D01*
X96347841Y-95203111D01*
X96360164Y-95182552D01*
X96374442Y-95163299D01*
X96390539Y-95145539D01*
X96408299Y-95129442D01*
X96427552Y-95115164D01*
X96448111Y-95102841D01*
X96469780Y-95092592D01*
X96492348Y-95084517D01*
X96515599Y-95078693D01*
X96539309Y-95075176D01*
X96563250Y-95074000D01*
X97051750Y-95074000D01*
X97075691Y-95075176D01*
G37*
%TD*%
%TO.C,C12*%
G36*
X103357023Y-104107261D02*
G01*
X103380805Y-104110260D01*
X103404177Y-104115575D01*
X103426917Y-104123156D01*
X103448803Y-104132929D01*
X103469627Y-104144801D01*
X103489186Y-104158656D01*
X103507293Y-104174362D01*
X103523774Y-104191767D01*
X103538469Y-104210703D01*
X103861679Y-104672295D01*
X103874447Y-104692581D01*
X103885166Y-104714020D01*
X103893731Y-104736407D01*
X103900061Y-104759526D01*
X103904095Y-104783153D01*
X103905793Y-104807063D01*
X103905139Y-104831023D01*
X103902140Y-104854805D01*
X103896825Y-104878177D01*
X103889244Y-104900917D01*
X103879471Y-104922803D01*
X103867599Y-104943626D01*
X103853744Y-104963186D01*
X103838038Y-104981293D01*
X103820633Y-104997774D01*
X103801697Y-105012469D01*
X103401541Y-105292661D01*
X103381255Y-105305429D01*
X103359816Y-105316148D01*
X103337429Y-105324713D01*
X103314310Y-105331043D01*
X103290683Y-105335077D01*
X103266773Y-105336775D01*
X103242813Y-105336121D01*
X103219031Y-105333122D01*
X103195659Y-105327807D01*
X103172919Y-105320226D01*
X103151033Y-105310453D01*
X103130209Y-105298581D01*
X103110650Y-105284726D01*
X103092543Y-105269020D01*
X103076062Y-105251615D01*
X103061367Y-105232679D01*
X102738157Y-104771087D01*
X102725389Y-104750801D01*
X102714670Y-104729362D01*
X102706105Y-104706975D01*
X102699775Y-104683856D01*
X102695741Y-104660229D01*
X102694043Y-104636319D01*
X102694697Y-104612359D01*
X102697696Y-104588577D01*
X102703011Y-104565205D01*
X102710592Y-104542465D01*
X102720365Y-104520579D01*
X102732237Y-104499756D01*
X102746092Y-104480196D01*
X102761798Y-104462089D01*
X102779203Y-104445608D01*
X102798139Y-104430913D01*
X103198295Y-104150721D01*
X103218581Y-104137953D01*
X103240020Y-104127234D01*
X103262407Y-104118669D01*
X103285526Y-104112339D01*
X103309153Y-104108305D01*
X103333063Y-104106607D01*
X103357023Y-104107261D01*
G37*
G36*
X104647187Y-103203879D02*
G01*
X104670969Y-103206878D01*
X104694341Y-103212193D01*
X104717081Y-103219774D01*
X104738967Y-103229547D01*
X104759791Y-103241419D01*
X104779350Y-103255274D01*
X104797457Y-103270980D01*
X104813938Y-103288385D01*
X104828633Y-103307321D01*
X105151843Y-103768913D01*
X105164611Y-103789199D01*
X105175330Y-103810638D01*
X105183895Y-103833025D01*
X105190225Y-103856144D01*
X105194259Y-103879771D01*
X105195957Y-103903681D01*
X105195303Y-103927641D01*
X105192304Y-103951423D01*
X105186989Y-103974795D01*
X105179408Y-103997535D01*
X105169635Y-104019421D01*
X105157763Y-104040244D01*
X105143908Y-104059804D01*
X105128202Y-104077911D01*
X105110797Y-104094392D01*
X105091861Y-104109087D01*
X104691705Y-104389279D01*
X104671419Y-104402047D01*
X104649980Y-104412766D01*
X104627593Y-104421331D01*
X104604474Y-104427661D01*
X104580847Y-104431695D01*
X104556937Y-104433393D01*
X104532977Y-104432739D01*
X104509195Y-104429740D01*
X104485823Y-104424425D01*
X104463083Y-104416844D01*
X104441197Y-104407071D01*
X104420373Y-104395199D01*
X104400814Y-104381344D01*
X104382707Y-104365638D01*
X104366226Y-104348233D01*
X104351531Y-104329297D01*
X104028321Y-103867705D01*
X104015553Y-103847419D01*
X104004834Y-103825980D01*
X103996269Y-103803593D01*
X103989939Y-103780474D01*
X103985905Y-103756847D01*
X103984207Y-103732937D01*
X103984861Y-103708977D01*
X103987860Y-103685195D01*
X103993175Y-103661823D01*
X104000756Y-103639083D01*
X104010529Y-103617197D01*
X104022401Y-103596374D01*
X104036256Y-103576814D01*
X104051962Y-103558707D01*
X104069367Y-103542226D01*
X104088303Y-103527531D01*
X104488459Y-103247339D01*
X104508745Y-103234571D01*
X104530184Y-103223852D01*
X104552571Y-103215287D01*
X104575690Y-103208957D01*
X104599317Y-103204923D01*
X104623227Y-103203225D01*
X104647187Y-103203879D01*
G37*
%TD*%
%TO.C,C11*%
G36*
X93615691Y-94170176D02*
G01*
X93639401Y-94173693D01*
X93662652Y-94179517D01*
X93685220Y-94187592D01*
X93706889Y-94197841D01*
X93727448Y-94210164D01*
X93746701Y-94224442D01*
X93764461Y-94240539D01*
X93780558Y-94258299D01*
X93794836Y-94277552D01*
X93807159Y-94298111D01*
X93817408Y-94319780D01*
X93825483Y-94342348D01*
X93831307Y-94365599D01*
X93834824Y-94389309D01*
X93836000Y-94413250D01*
X93836000Y-94901750D01*
X93834824Y-94925691D01*
X93831307Y-94949401D01*
X93825483Y-94972652D01*
X93817408Y-94995220D01*
X93807159Y-95016889D01*
X93794836Y-95037448D01*
X93780558Y-95056701D01*
X93764461Y-95074461D01*
X93746701Y-95090558D01*
X93727448Y-95104836D01*
X93706889Y-95117159D01*
X93685220Y-95127408D01*
X93662652Y-95135483D01*
X93639401Y-95141307D01*
X93615691Y-95144824D01*
X93591750Y-95146000D01*
X93028250Y-95146000D01*
X93004309Y-95144824D01*
X92980599Y-95141307D01*
X92957348Y-95135483D01*
X92934780Y-95127408D01*
X92913111Y-95117159D01*
X92892552Y-95104836D01*
X92873299Y-95090558D01*
X92855539Y-95074461D01*
X92839442Y-95056701D01*
X92825164Y-95037448D01*
X92812841Y-95016889D01*
X92802592Y-94995220D01*
X92794517Y-94972652D01*
X92788693Y-94949401D01*
X92785176Y-94925691D01*
X92784000Y-94901750D01*
X92784000Y-94413250D01*
X92785176Y-94389309D01*
X92788693Y-94365599D01*
X92794517Y-94342348D01*
X92802592Y-94319780D01*
X92812841Y-94298111D01*
X92825164Y-94277552D01*
X92839442Y-94258299D01*
X92855539Y-94240539D01*
X92873299Y-94224442D01*
X92892552Y-94210164D01*
X92913111Y-94197841D01*
X92934780Y-94187592D01*
X92957348Y-94179517D01*
X92980599Y-94173693D01*
X93004309Y-94170176D01*
X93028250Y-94169000D01*
X93591750Y-94169000D01*
X93615691Y-94170176D01*
G37*
G36*
X93615691Y-92595176D02*
G01*
X93639401Y-92598693D01*
X93662652Y-92604517D01*
X93685220Y-92612592D01*
X93706889Y-92622841D01*
X93727448Y-92635164D01*
X93746701Y-92649442D01*
X93764461Y-92665539D01*
X93780558Y-92683299D01*
X93794836Y-92702552D01*
X93807159Y-92723111D01*
X93817408Y-92744780D01*
X93825483Y-92767348D01*
X93831307Y-92790599D01*
X93834824Y-92814309D01*
X93836000Y-92838250D01*
X93836000Y-93326750D01*
X93834824Y-93350691D01*
X93831307Y-93374401D01*
X93825483Y-93397652D01*
X93817408Y-93420220D01*
X93807159Y-93441889D01*
X93794836Y-93462448D01*
X93780558Y-93481701D01*
X93764461Y-93499461D01*
X93746701Y-93515558D01*
X93727448Y-93529836D01*
X93706889Y-93542159D01*
X93685220Y-93552408D01*
X93662652Y-93560483D01*
X93639401Y-93566307D01*
X93615691Y-93569824D01*
X93591750Y-93571000D01*
X93028250Y-93571000D01*
X93004309Y-93569824D01*
X92980599Y-93566307D01*
X92957348Y-93560483D01*
X92934780Y-93552408D01*
X92913111Y-93542159D01*
X92892552Y-93529836D01*
X92873299Y-93515558D01*
X92855539Y-93499461D01*
X92839442Y-93481701D01*
X92825164Y-93462448D01*
X92812841Y-93441889D01*
X92802592Y-93420220D01*
X92794517Y-93397652D01*
X92788693Y-93374401D01*
X92785176Y-93350691D01*
X92784000Y-93326750D01*
X92784000Y-92838250D01*
X92785176Y-92814309D01*
X92788693Y-92790599D01*
X92794517Y-92767348D01*
X92802592Y-92744780D01*
X92812841Y-92723111D01*
X92825164Y-92702552D01*
X92839442Y-92683299D01*
X92855539Y-92665539D01*
X92873299Y-92649442D01*
X92892552Y-92635164D01*
X92913111Y-92622841D01*
X92934780Y-92612592D01*
X92957348Y-92604517D01*
X92980599Y-92598693D01*
X93004309Y-92595176D01*
X93028250Y-92594000D01*
X93591750Y-92594000D01*
X93615691Y-92595176D01*
G37*
%TD*%
%TO.C,C10*%
G36*
X95085691Y-94180176D02*
G01*
X95109401Y-94183693D01*
X95132652Y-94189517D01*
X95155220Y-94197592D01*
X95176889Y-94207841D01*
X95197448Y-94220164D01*
X95216701Y-94234442D01*
X95234461Y-94250539D01*
X95250558Y-94268299D01*
X95264836Y-94287552D01*
X95277159Y-94308111D01*
X95287408Y-94329780D01*
X95295483Y-94352348D01*
X95301307Y-94375599D01*
X95304824Y-94399309D01*
X95306000Y-94423250D01*
X95306000Y-94911750D01*
X95304824Y-94935691D01*
X95301307Y-94959401D01*
X95295483Y-94982652D01*
X95287408Y-95005220D01*
X95277159Y-95026889D01*
X95264836Y-95047448D01*
X95250558Y-95066701D01*
X95234461Y-95084461D01*
X95216701Y-95100558D01*
X95197448Y-95114836D01*
X95176889Y-95127159D01*
X95155220Y-95137408D01*
X95132652Y-95145483D01*
X95109401Y-95151307D01*
X95085691Y-95154824D01*
X95061750Y-95156000D01*
X94498250Y-95156000D01*
X94474309Y-95154824D01*
X94450599Y-95151307D01*
X94427348Y-95145483D01*
X94404780Y-95137408D01*
X94383111Y-95127159D01*
X94362552Y-95114836D01*
X94343299Y-95100558D01*
X94325539Y-95084461D01*
X94309442Y-95066701D01*
X94295164Y-95047448D01*
X94282841Y-95026889D01*
X94272592Y-95005220D01*
X94264517Y-94982652D01*
X94258693Y-94959401D01*
X94255176Y-94935691D01*
X94254000Y-94911750D01*
X94254000Y-94423250D01*
X94255176Y-94399309D01*
X94258693Y-94375599D01*
X94264517Y-94352348D01*
X94272592Y-94329780D01*
X94282841Y-94308111D01*
X94295164Y-94287552D01*
X94309442Y-94268299D01*
X94325539Y-94250539D01*
X94343299Y-94234442D01*
X94362552Y-94220164D01*
X94383111Y-94207841D01*
X94404780Y-94197592D01*
X94427348Y-94189517D01*
X94450599Y-94183693D01*
X94474309Y-94180176D01*
X94498250Y-94179000D01*
X95061750Y-94179000D01*
X95085691Y-94180176D01*
G37*
G36*
X95085691Y-92605176D02*
G01*
X95109401Y-92608693D01*
X95132652Y-92614517D01*
X95155220Y-92622592D01*
X95176889Y-92632841D01*
X95197448Y-92645164D01*
X95216701Y-92659442D01*
X95234461Y-92675539D01*
X95250558Y-92693299D01*
X95264836Y-92712552D01*
X95277159Y-92733111D01*
X95287408Y-92754780D01*
X95295483Y-92777348D01*
X95301307Y-92800599D01*
X95304824Y-92824309D01*
X95306000Y-92848250D01*
X95306000Y-93336750D01*
X95304824Y-93360691D01*
X95301307Y-93384401D01*
X95295483Y-93407652D01*
X95287408Y-93430220D01*
X95277159Y-93451889D01*
X95264836Y-93472448D01*
X95250558Y-93491701D01*
X95234461Y-93509461D01*
X95216701Y-93525558D01*
X95197448Y-93539836D01*
X95176889Y-93552159D01*
X95155220Y-93562408D01*
X95132652Y-93570483D01*
X95109401Y-93576307D01*
X95085691Y-93579824D01*
X95061750Y-93581000D01*
X94498250Y-93581000D01*
X94474309Y-93579824D01*
X94450599Y-93576307D01*
X94427348Y-93570483D01*
X94404780Y-93562408D01*
X94383111Y-93552159D01*
X94362552Y-93539836D01*
X94343299Y-93525558D01*
X94325539Y-93509461D01*
X94309442Y-93491701D01*
X94295164Y-93472448D01*
X94282841Y-93451889D01*
X94272592Y-93430220D01*
X94264517Y-93407652D01*
X94258693Y-93384401D01*
X94255176Y-93360691D01*
X94254000Y-93336750D01*
X94254000Y-92848250D01*
X94255176Y-92824309D01*
X94258693Y-92800599D01*
X94264517Y-92777348D01*
X94272592Y-92754780D01*
X94282841Y-92733111D01*
X94295164Y-92712552D01*
X94309442Y-92693299D01*
X94325539Y-92675539D01*
X94343299Y-92659442D01*
X94362552Y-92645164D01*
X94383111Y-92632841D01*
X94404780Y-92622592D01*
X94427348Y-92614517D01*
X94450599Y-92608693D01*
X94474309Y-92605176D01*
X94498250Y-92604000D01*
X95061750Y-92604000D01*
X95085691Y-92605176D01*
G37*
%TD*%
%TO.C,C7*%
G36*
X100125691Y-93505176D02*
G01*
X100149401Y-93508693D01*
X100172652Y-93514517D01*
X100195220Y-93522592D01*
X100216889Y-93532841D01*
X100237448Y-93545164D01*
X100256701Y-93559442D01*
X100274461Y-93575539D01*
X100290558Y-93593299D01*
X100304836Y-93612552D01*
X100317159Y-93633111D01*
X100327408Y-93654780D01*
X100335483Y-93677348D01*
X100341307Y-93700599D01*
X100344824Y-93724309D01*
X100346000Y-93748250D01*
X100346000Y-94236750D01*
X100344824Y-94260691D01*
X100341307Y-94284401D01*
X100335483Y-94307652D01*
X100327408Y-94330220D01*
X100317159Y-94351889D01*
X100304836Y-94372448D01*
X100290558Y-94391701D01*
X100274461Y-94409461D01*
X100256701Y-94425558D01*
X100237448Y-94439836D01*
X100216889Y-94452159D01*
X100195220Y-94462408D01*
X100172652Y-94470483D01*
X100149401Y-94476307D01*
X100125691Y-94479824D01*
X100101750Y-94481000D01*
X99538250Y-94481000D01*
X99514309Y-94479824D01*
X99490599Y-94476307D01*
X99467348Y-94470483D01*
X99444780Y-94462408D01*
X99423111Y-94452159D01*
X99402552Y-94439836D01*
X99383299Y-94425558D01*
X99365539Y-94409461D01*
X99349442Y-94391701D01*
X99335164Y-94372448D01*
X99322841Y-94351889D01*
X99312592Y-94330220D01*
X99304517Y-94307652D01*
X99298693Y-94284401D01*
X99295176Y-94260691D01*
X99294000Y-94236750D01*
X99294000Y-93748250D01*
X99295176Y-93724309D01*
X99298693Y-93700599D01*
X99304517Y-93677348D01*
X99312592Y-93654780D01*
X99322841Y-93633111D01*
X99335164Y-93612552D01*
X99349442Y-93593299D01*
X99365539Y-93575539D01*
X99383299Y-93559442D01*
X99402552Y-93545164D01*
X99423111Y-93532841D01*
X99444780Y-93522592D01*
X99467348Y-93514517D01*
X99490599Y-93508693D01*
X99514309Y-93505176D01*
X99538250Y-93504000D01*
X100101750Y-93504000D01*
X100125691Y-93505176D01*
G37*
G36*
X100125691Y-95080176D02*
G01*
X100149401Y-95083693D01*
X100172652Y-95089517D01*
X100195220Y-95097592D01*
X100216889Y-95107841D01*
X100237448Y-95120164D01*
X100256701Y-95134442D01*
X100274461Y-95150539D01*
X100290558Y-95168299D01*
X100304836Y-95187552D01*
X100317159Y-95208111D01*
X100327408Y-95229780D01*
X100335483Y-95252348D01*
X100341307Y-95275599D01*
X100344824Y-95299309D01*
X100346000Y-95323250D01*
X100346000Y-95811750D01*
X100344824Y-95835691D01*
X100341307Y-95859401D01*
X100335483Y-95882652D01*
X100327408Y-95905220D01*
X100317159Y-95926889D01*
X100304836Y-95947448D01*
X100290558Y-95966701D01*
X100274461Y-95984461D01*
X100256701Y-96000558D01*
X100237448Y-96014836D01*
X100216889Y-96027159D01*
X100195220Y-96037408D01*
X100172652Y-96045483D01*
X100149401Y-96051307D01*
X100125691Y-96054824D01*
X100101750Y-96056000D01*
X99538250Y-96056000D01*
X99514309Y-96054824D01*
X99490599Y-96051307D01*
X99467348Y-96045483D01*
X99444780Y-96037408D01*
X99423111Y-96027159D01*
X99402552Y-96014836D01*
X99383299Y-96000558D01*
X99365539Y-95984461D01*
X99349442Y-95966701D01*
X99335164Y-95947448D01*
X99322841Y-95926889D01*
X99312592Y-95905220D01*
X99304517Y-95882652D01*
X99298693Y-95859401D01*
X99295176Y-95835691D01*
X99294000Y-95811750D01*
X99294000Y-95323250D01*
X99295176Y-95299309D01*
X99298693Y-95275599D01*
X99304517Y-95252348D01*
X99312592Y-95229780D01*
X99322841Y-95208111D01*
X99335164Y-95187552D01*
X99349442Y-95168299D01*
X99365539Y-95150539D01*
X99383299Y-95134442D01*
X99402552Y-95120164D01*
X99423111Y-95107841D01*
X99444780Y-95097592D01*
X99467348Y-95089517D01*
X99490599Y-95083693D01*
X99514309Y-95080176D01*
X99538250Y-95079000D01*
X100101750Y-95079000D01*
X100125691Y-95080176D01*
G37*
%TD*%
M02*
