%TF.GenerationSoftware,KiCad,Pcbnew,(5.1.5)-3*%
%TF.CreationDate,2021-10-31T01:47:11+08:00*%
%TF.ProjectId,STM32_FOC,53544d33-325f-4464-9f43-2e6b69636164,rev?*%
%TF.SameCoordinates,Original*%
%TF.FileFunction,Paste,Top*%
%TF.FilePolarity,Positive*%
%FSLAX46Y46*%
G04 Gerber Fmt 4.6, Leading zero omitted, Abs format (unit mm)*
G04 Created by KiCad (PCBNEW (5.1.5)-3) date 2021-10-31 01:47:11*
%MOMM*%
%LPD*%
G04 APERTURE LIST*
%ADD10C,0.100000*%
%ADD11R,0.304800X1.239520*%
%ADD12R,5.199380X3.098800*%
%ADD13R,1.800000X0.400000*%
%ADD14R,1.600000X0.400000*%
%ADD15R,1.060000X0.650000*%
%ADD16R,1.200000X0.900000*%
G04 APERTURE END LIST*
D10*
%TO.C,C16*%
G36*
X106149504Y-105876204D02*
G01*
X106173773Y-105879804D01*
X106197571Y-105885765D01*
X106220671Y-105894030D01*
X106242849Y-105904520D01*
X106263893Y-105917133D01*
X106283598Y-105931747D01*
X106301777Y-105948223D01*
X106318253Y-105966402D01*
X106332867Y-105986107D01*
X106345480Y-106007151D01*
X106355970Y-106029329D01*
X106364235Y-106052429D01*
X106370196Y-106076227D01*
X106373796Y-106100496D01*
X106375000Y-106125000D01*
X106375000Y-106875000D01*
X106373796Y-106899504D01*
X106370196Y-106923773D01*
X106364235Y-106947571D01*
X106355970Y-106970671D01*
X106345480Y-106992849D01*
X106332867Y-107013893D01*
X106318253Y-107033598D01*
X106301777Y-107051777D01*
X106283598Y-107068253D01*
X106263893Y-107082867D01*
X106242849Y-107095480D01*
X106220671Y-107105970D01*
X106197571Y-107114235D01*
X106173773Y-107120196D01*
X106149504Y-107123796D01*
X106125000Y-107125000D01*
X104875000Y-107125000D01*
X104850496Y-107123796D01*
X104826227Y-107120196D01*
X104802429Y-107114235D01*
X104779329Y-107105970D01*
X104757151Y-107095480D01*
X104736107Y-107082867D01*
X104716402Y-107068253D01*
X104698223Y-107051777D01*
X104681747Y-107033598D01*
X104667133Y-107013893D01*
X104654520Y-106992849D01*
X104644030Y-106970671D01*
X104635765Y-106947571D01*
X104629804Y-106923773D01*
X104626204Y-106899504D01*
X104625000Y-106875000D01*
X104625000Y-106125000D01*
X104626204Y-106100496D01*
X104629804Y-106076227D01*
X104635765Y-106052429D01*
X104644030Y-106029329D01*
X104654520Y-106007151D01*
X104667133Y-105986107D01*
X104681747Y-105966402D01*
X104698223Y-105948223D01*
X104716402Y-105931747D01*
X104736107Y-105917133D01*
X104757151Y-105904520D01*
X104779329Y-105894030D01*
X104802429Y-105885765D01*
X104826227Y-105879804D01*
X104850496Y-105876204D01*
X104875000Y-105875000D01*
X106125000Y-105875000D01*
X106149504Y-105876204D01*
G37*
G36*
X106149504Y-108676204D02*
G01*
X106173773Y-108679804D01*
X106197571Y-108685765D01*
X106220671Y-108694030D01*
X106242849Y-108704520D01*
X106263893Y-108717133D01*
X106283598Y-108731747D01*
X106301777Y-108748223D01*
X106318253Y-108766402D01*
X106332867Y-108786107D01*
X106345480Y-108807151D01*
X106355970Y-108829329D01*
X106364235Y-108852429D01*
X106370196Y-108876227D01*
X106373796Y-108900496D01*
X106375000Y-108925000D01*
X106375000Y-109675000D01*
X106373796Y-109699504D01*
X106370196Y-109723773D01*
X106364235Y-109747571D01*
X106355970Y-109770671D01*
X106345480Y-109792849D01*
X106332867Y-109813893D01*
X106318253Y-109833598D01*
X106301777Y-109851777D01*
X106283598Y-109868253D01*
X106263893Y-109882867D01*
X106242849Y-109895480D01*
X106220671Y-109905970D01*
X106197571Y-109914235D01*
X106173773Y-109920196D01*
X106149504Y-109923796D01*
X106125000Y-109925000D01*
X104875000Y-109925000D01*
X104850496Y-109923796D01*
X104826227Y-109920196D01*
X104802429Y-109914235D01*
X104779329Y-109905970D01*
X104757151Y-109895480D01*
X104736107Y-109882867D01*
X104716402Y-109868253D01*
X104698223Y-109851777D01*
X104681747Y-109833598D01*
X104667133Y-109813893D01*
X104654520Y-109792849D01*
X104644030Y-109770671D01*
X104635765Y-109747571D01*
X104629804Y-109723773D01*
X104626204Y-109699504D01*
X104625000Y-109675000D01*
X104625000Y-108925000D01*
X104626204Y-108900496D01*
X104629804Y-108876227D01*
X104635765Y-108852429D01*
X104644030Y-108829329D01*
X104654520Y-108807151D01*
X104667133Y-108786107D01*
X104681747Y-108766402D01*
X104698223Y-108748223D01*
X104716402Y-108731747D01*
X104736107Y-108717133D01*
X104757151Y-108704520D01*
X104779329Y-108694030D01*
X104802429Y-108685765D01*
X104826227Y-108679804D01*
X104850496Y-108676204D01*
X104875000Y-108675000D01*
X106125000Y-108675000D01*
X106149504Y-108676204D01*
G37*
%TD*%
%TO.C,C12*%
G36*
X107377691Y-106476053D02*
G01*
X107398926Y-106479203D01*
X107419750Y-106484419D01*
X107439962Y-106491651D01*
X107459368Y-106500830D01*
X107477781Y-106511866D01*
X107495024Y-106524654D01*
X107510930Y-106539070D01*
X107525346Y-106554976D01*
X107538134Y-106572219D01*
X107549170Y-106590632D01*
X107558349Y-106610038D01*
X107565581Y-106630250D01*
X107570797Y-106651074D01*
X107573947Y-106672309D01*
X107575000Y-106693750D01*
X107575000Y-107131250D01*
X107573947Y-107152691D01*
X107570797Y-107173926D01*
X107565581Y-107194750D01*
X107558349Y-107214962D01*
X107549170Y-107234368D01*
X107538134Y-107252781D01*
X107525346Y-107270024D01*
X107510930Y-107285930D01*
X107495024Y-107300346D01*
X107477781Y-107313134D01*
X107459368Y-107324170D01*
X107439962Y-107333349D01*
X107419750Y-107340581D01*
X107398926Y-107345797D01*
X107377691Y-107348947D01*
X107356250Y-107350000D01*
X106843750Y-107350000D01*
X106822309Y-107348947D01*
X106801074Y-107345797D01*
X106780250Y-107340581D01*
X106760038Y-107333349D01*
X106740632Y-107324170D01*
X106722219Y-107313134D01*
X106704976Y-107300346D01*
X106689070Y-107285930D01*
X106674654Y-107270024D01*
X106661866Y-107252781D01*
X106650830Y-107234368D01*
X106641651Y-107214962D01*
X106634419Y-107194750D01*
X106629203Y-107173926D01*
X106626053Y-107152691D01*
X106625000Y-107131250D01*
X106625000Y-106693750D01*
X106626053Y-106672309D01*
X106629203Y-106651074D01*
X106634419Y-106630250D01*
X106641651Y-106610038D01*
X106650830Y-106590632D01*
X106661866Y-106572219D01*
X106674654Y-106554976D01*
X106689070Y-106539070D01*
X106704976Y-106524654D01*
X106722219Y-106511866D01*
X106740632Y-106500830D01*
X106760038Y-106491651D01*
X106780250Y-106484419D01*
X106801074Y-106479203D01*
X106822309Y-106476053D01*
X106843750Y-106475000D01*
X107356250Y-106475000D01*
X107377691Y-106476053D01*
G37*
G36*
X107377691Y-108051053D02*
G01*
X107398926Y-108054203D01*
X107419750Y-108059419D01*
X107439962Y-108066651D01*
X107459368Y-108075830D01*
X107477781Y-108086866D01*
X107495024Y-108099654D01*
X107510930Y-108114070D01*
X107525346Y-108129976D01*
X107538134Y-108147219D01*
X107549170Y-108165632D01*
X107558349Y-108185038D01*
X107565581Y-108205250D01*
X107570797Y-108226074D01*
X107573947Y-108247309D01*
X107575000Y-108268750D01*
X107575000Y-108706250D01*
X107573947Y-108727691D01*
X107570797Y-108748926D01*
X107565581Y-108769750D01*
X107558349Y-108789962D01*
X107549170Y-108809368D01*
X107538134Y-108827781D01*
X107525346Y-108845024D01*
X107510930Y-108860930D01*
X107495024Y-108875346D01*
X107477781Y-108888134D01*
X107459368Y-108899170D01*
X107439962Y-108908349D01*
X107419750Y-108915581D01*
X107398926Y-108920797D01*
X107377691Y-108923947D01*
X107356250Y-108925000D01*
X106843750Y-108925000D01*
X106822309Y-108923947D01*
X106801074Y-108920797D01*
X106780250Y-108915581D01*
X106760038Y-108908349D01*
X106740632Y-108899170D01*
X106722219Y-108888134D01*
X106704976Y-108875346D01*
X106689070Y-108860930D01*
X106674654Y-108845024D01*
X106661866Y-108827781D01*
X106650830Y-108809368D01*
X106641651Y-108789962D01*
X106634419Y-108769750D01*
X106629203Y-108748926D01*
X106626053Y-108727691D01*
X106625000Y-108706250D01*
X106625000Y-108268750D01*
X106626053Y-108247309D01*
X106629203Y-108226074D01*
X106634419Y-108205250D01*
X106641651Y-108185038D01*
X106650830Y-108165632D01*
X106661866Y-108147219D01*
X106674654Y-108129976D01*
X106689070Y-108114070D01*
X106704976Y-108099654D01*
X106722219Y-108086866D01*
X106740632Y-108075830D01*
X106760038Y-108066651D01*
X106780250Y-108059419D01*
X106801074Y-108054203D01*
X106822309Y-108051053D01*
X106843750Y-108050000D01*
X107356250Y-108050000D01*
X107377691Y-108051053D01*
G37*
%TD*%
%TO.C,D2*%
G36*
X94466158Y-89307177D02*
G01*
X94480538Y-89308831D01*
X94494687Y-89311887D01*
X94508468Y-89316315D01*
X94521749Y-89322072D01*
X94534401Y-89329104D01*
X94546303Y-89337341D01*
X94557341Y-89346706D01*
X94567407Y-89357108D01*
X94576406Y-89368446D01*
X94584250Y-89380611D01*
X94756750Y-89679389D01*
X94763363Y-89692265D01*
X94768683Y-89705727D01*
X94772658Y-89719645D01*
X94775249Y-89733886D01*
X94776432Y-89748313D01*
X94776195Y-89762786D01*
X94774541Y-89777166D01*
X94771485Y-89791315D01*
X94767057Y-89805096D01*
X94761300Y-89818376D01*
X94754268Y-89831029D01*
X94746031Y-89842931D01*
X94736666Y-89853969D01*
X94726265Y-89864035D01*
X94714927Y-89873034D01*
X94702761Y-89880878D01*
X94447283Y-90028378D01*
X94434407Y-90034991D01*
X94420945Y-90040311D01*
X94407027Y-90044286D01*
X94392785Y-90046877D01*
X94378359Y-90048060D01*
X94363886Y-90047823D01*
X94349506Y-90046169D01*
X94335357Y-90043113D01*
X94321576Y-90038685D01*
X94308295Y-90032928D01*
X94295643Y-90025896D01*
X94283741Y-90017659D01*
X94272703Y-90008294D01*
X94262637Y-89997892D01*
X94253638Y-89986554D01*
X94245794Y-89974389D01*
X94073294Y-89675611D01*
X94066681Y-89662735D01*
X94061361Y-89649273D01*
X94057386Y-89635355D01*
X94054795Y-89621114D01*
X94053612Y-89606687D01*
X94053849Y-89592214D01*
X94055503Y-89577834D01*
X94058559Y-89563685D01*
X94062987Y-89549904D01*
X94068744Y-89536624D01*
X94075776Y-89523971D01*
X94084013Y-89512069D01*
X94093378Y-89501031D01*
X94103779Y-89490965D01*
X94115117Y-89481966D01*
X94127283Y-89474122D01*
X94382761Y-89326622D01*
X94395637Y-89320009D01*
X94409099Y-89314689D01*
X94423017Y-89310714D01*
X94437259Y-89308123D01*
X94451685Y-89306940D01*
X94466158Y-89307177D01*
G37*
G36*
X93626114Y-89792177D02*
G01*
X93640494Y-89793831D01*
X93654643Y-89796887D01*
X93668424Y-89801315D01*
X93681705Y-89807072D01*
X93694357Y-89814104D01*
X93706259Y-89822341D01*
X93717297Y-89831706D01*
X93727363Y-89842108D01*
X93736362Y-89853446D01*
X93744206Y-89865611D01*
X93916706Y-90164389D01*
X93923319Y-90177265D01*
X93928639Y-90190727D01*
X93932614Y-90204645D01*
X93935205Y-90218886D01*
X93936388Y-90233313D01*
X93936151Y-90247786D01*
X93934497Y-90262166D01*
X93931441Y-90276315D01*
X93927013Y-90290096D01*
X93921256Y-90303376D01*
X93914224Y-90316029D01*
X93905987Y-90327931D01*
X93896622Y-90338969D01*
X93886221Y-90349035D01*
X93874883Y-90358034D01*
X93862717Y-90365878D01*
X93607239Y-90513378D01*
X93594363Y-90519991D01*
X93580901Y-90525311D01*
X93566983Y-90529286D01*
X93552741Y-90531877D01*
X93538315Y-90533060D01*
X93523842Y-90532823D01*
X93509462Y-90531169D01*
X93495313Y-90528113D01*
X93481532Y-90523685D01*
X93468251Y-90517928D01*
X93455599Y-90510896D01*
X93443697Y-90502659D01*
X93432659Y-90493294D01*
X93422593Y-90482892D01*
X93413594Y-90471554D01*
X93405750Y-90459389D01*
X93233250Y-90160611D01*
X93226637Y-90147735D01*
X93221317Y-90134273D01*
X93217342Y-90120355D01*
X93214751Y-90106114D01*
X93213568Y-90091687D01*
X93213805Y-90077214D01*
X93215459Y-90062834D01*
X93218515Y-90048685D01*
X93222943Y-90034904D01*
X93228700Y-90021624D01*
X93235732Y-90008971D01*
X93243969Y-89997069D01*
X93253334Y-89986031D01*
X93263735Y-89975965D01*
X93275073Y-89966966D01*
X93287239Y-89959122D01*
X93542717Y-89811622D01*
X93555593Y-89805009D01*
X93569055Y-89799689D01*
X93582973Y-89795714D01*
X93597215Y-89793123D01*
X93611641Y-89791940D01*
X93626114Y-89792177D01*
G37*
%TD*%
%TO.C,R11*%
G36*
X90926958Y-100180710D02*
G01*
X90941276Y-100182834D01*
X90955317Y-100186351D01*
X90968946Y-100191228D01*
X90982031Y-100197417D01*
X90994447Y-100204858D01*
X91006073Y-100213481D01*
X91016798Y-100223202D01*
X91026519Y-100233927D01*
X91035142Y-100245553D01*
X91042583Y-100257969D01*
X91048772Y-100271054D01*
X91053649Y-100284683D01*
X91057166Y-100298724D01*
X91059290Y-100313042D01*
X91060000Y-100327500D01*
X91060000Y-100672500D01*
X91059290Y-100686958D01*
X91057166Y-100701276D01*
X91053649Y-100715317D01*
X91048772Y-100728946D01*
X91042583Y-100742031D01*
X91035142Y-100754447D01*
X91026519Y-100766073D01*
X91016798Y-100776798D01*
X91006073Y-100786519D01*
X90994447Y-100795142D01*
X90982031Y-100802583D01*
X90968946Y-100808772D01*
X90955317Y-100813649D01*
X90941276Y-100817166D01*
X90926958Y-100819290D01*
X90912500Y-100820000D01*
X90617500Y-100820000D01*
X90603042Y-100819290D01*
X90588724Y-100817166D01*
X90574683Y-100813649D01*
X90561054Y-100808772D01*
X90547969Y-100802583D01*
X90535553Y-100795142D01*
X90523927Y-100786519D01*
X90513202Y-100776798D01*
X90503481Y-100766073D01*
X90494858Y-100754447D01*
X90487417Y-100742031D01*
X90481228Y-100728946D01*
X90476351Y-100715317D01*
X90472834Y-100701276D01*
X90470710Y-100686958D01*
X90470000Y-100672500D01*
X90470000Y-100327500D01*
X90470710Y-100313042D01*
X90472834Y-100298724D01*
X90476351Y-100284683D01*
X90481228Y-100271054D01*
X90487417Y-100257969D01*
X90494858Y-100245553D01*
X90503481Y-100233927D01*
X90513202Y-100223202D01*
X90523927Y-100213481D01*
X90535553Y-100204858D01*
X90547969Y-100197417D01*
X90561054Y-100191228D01*
X90574683Y-100186351D01*
X90588724Y-100182834D01*
X90603042Y-100180710D01*
X90617500Y-100180000D01*
X90912500Y-100180000D01*
X90926958Y-100180710D01*
G37*
G36*
X91896958Y-100180710D02*
G01*
X91911276Y-100182834D01*
X91925317Y-100186351D01*
X91938946Y-100191228D01*
X91952031Y-100197417D01*
X91964447Y-100204858D01*
X91976073Y-100213481D01*
X91986798Y-100223202D01*
X91996519Y-100233927D01*
X92005142Y-100245553D01*
X92012583Y-100257969D01*
X92018772Y-100271054D01*
X92023649Y-100284683D01*
X92027166Y-100298724D01*
X92029290Y-100313042D01*
X92030000Y-100327500D01*
X92030000Y-100672500D01*
X92029290Y-100686958D01*
X92027166Y-100701276D01*
X92023649Y-100715317D01*
X92018772Y-100728946D01*
X92012583Y-100742031D01*
X92005142Y-100754447D01*
X91996519Y-100766073D01*
X91986798Y-100776798D01*
X91976073Y-100786519D01*
X91964447Y-100795142D01*
X91952031Y-100802583D01*
X91938946Y-100808772D01*
X91925317Y-100813649D01*
X91911276Y-100817166D01*
X91896958Y-100819290D01*
X91882500Y-100820000D01*
X91587500Y-100820000D01*
X91573042Y-100819290D01*
X91558724Y-100817166D01*
X91544683Y-100813649D01*
X91531054Y-100808772D01*
X91517969Y-100802583D01*
X91505553Y-100795142D01*
X91493927Y-100786519D01*
X91483202Y-100776798D01*
X91473481Y-100766073D01*
X91464858Y-100754447D01*
X91457417Y-100742031D01*
X91451228Y-100728946D01*
X91446351Y-100715317D01*
X91442834Y-100701276D01*
X91440710Y-100686958D01*
X91440000Y-100672500D01*
X91440000Y-100327500D01*
X91440710Y-100313042D01*
X91442834Y-100298724D01*
X91446351Y-100284683D01*
X91451228Y-100271054D01*
X91457417Y-100257969D01*
X91464858Y-100245553D01*
X91473481Y-100233927D01*
X91483202Y-100223202D01*
X91493927Y-100213481D01*
X91505553Y-100204858D01*
X91517969Y-100197417D01*
X91531054Y-100191228D01*
X91544683Y-100186351D01*
X91558724Y-100182834D01*
X91573042Y-100180710D01*
X91587500Y-100180000D01*
X91882500Y-100180000D01*
X91896958Y-100180710D01*
G37*
%TD*%
%TO.C,R10*%
G36*
X105731958Y-102270710D02*
G01*
X105746276Y-102272834D01*
X105760317Y-102276351D01*
X105773946Y-102281228D01*
X105787031Y-102287417D01*
X105799447Y-102294858D01*
X105811073Y-102303481D01*
X105821798Y-102313202D01*
X105831519Y-102323927D01*
X105840142Y-102335553D01*
X105847583Y-102347969D01*
X105853772Y-102361054D01*
X105858649Y-102374683D01*
X105862166Y-102388724D01*
X105864290Y-102403042D01*
X105865000Y-102417500D01*
X105865000Y-102712500D01*
X105864290Y-102726958D01*
X105862166Y-102741276D01*
X105858649Y-102755317D01*
X105853772Y-102768946D01*
X105847583Y-102782031D01*
X105840142Y-102794447D01*
X105831519Y-102806073D01*
X105821798Y-102816798D01*
X105811073Y-102826519D01*
X105799447Y-102835142D01*
X105787031Y-102842583D01*
X105773946Y-102848772D01*
X105760317Y-102853649D01*
X105746276Y-102857166D01*
X105731958Y-102859290D01*
X105717500Y-102860000D01*
X105372500Y-102860000D01*
X105358042Y-102859290D01*
X105343724Y-102857166D01*
X105329683Y-102853649D01*
X105316054Y-102848772D01*
X105302969Y-102842583D01*
X105290553Y-102835142D01*
X105278927Y-102826519D01*
X105268202Y-102816798D01*
X105258481Y-102806073D01*
X105249858Y-102794447D01*
X105242417Y-102782031D01*
X105236228Y-102768946D01*
X105231351Y-102755317D01*
X105227834Y-102741276D01*
X105225710Y-102726958D01*
X105225000Y-102712500D01*
X105225000Y-102417500D01*
X105225710Y-102403042D01*
X105227834Y-102388724D01*
X105231351Y-102374683D01*
X105236228Y-102361054D01*
X105242417Y-102347969D01*
X105249858Y-102335553D01*
X105258481Y-102323927D01*
X105268202Y-102313202D01*
X105278927Y-102303481D01*
X105290553Y-102294858D01*
X105302969Y-102287417D01*
X105316054Y-102281228D01*
X105329683Y-102276351D01*
X105343724Y-102272834D01*
X105358042Y-102270710D01*
X105372500Y-102270000D01*
X105717500Y-102270000D01*
X105731958Y-102270710D01*
G37*
G36*
X105731958Y-103240710D02*
G01*
X105746276Y-103242834D01*
X105760317Y-103246351D01*
X105773946Y-103251228D01*
X105787031Y-103257417D01*
X105799447Y-103264858D01*
X105811073Y-103273481D01*
X105821798Y-103283202D01*
X105831519Y-103293927D01*
X105840142Y-103305553D01*
X105847583Y-103317969D01*
X105853772Y-103331054D01*
X105858649Y-103344683D01*
X105862166Y-103358724D01*
X105864290Y-103373042D01*
X105865000Y-103387500D01*
X105865000Y-103682500D01*
X105864290Y-103696958D01*
X105862166Y-103711276D01*
X105858649Y-103725317D01*
X105853772Y-103738946D01*
X105847583Y-103752031D01*
X105840142Y-103764447D01*
X105831519Y-103776073D01*
X105821798Y-103786798D01*
X105811073Y-103796519D01*
X105799447Y-103805142D01*
X105787031Y-103812583D01*
X105773946Y-103818772D01*
X105760317Y-103823649D01*
X105746276Y-103827166D01*
X105731958Y-103829290D01*
X105717500Y-103830000D01*
X105372500Y-103830000D01*
X105358042Y-103829290D01*
X105343724Y-103827166D01*
X105329683Y-103823649D01*
X105316054Y-103818772D01*
X105302969Y-103812583D01*
X105290553Y-103805142D01*
X105278927Y-103796519D01*
X105268202Y-103786798D01*
X105258481Y-103776073D01*
X105249858Y-103764447D01*
X105242417Y-103752031D01*
X105236228Y-103738946D01*
X105231351Y-103725317D01*
X105227834Y-103711276D01*
X105225710Y-103696958D01*
X105225000Y-103682500D01*
X105225000Y-103387500D01*
X105225710Y-103373042D01*
X105227834Y-103358724D01*
X105231351Y-103344683D01*
X105236228Y-103331054D01*
X105242417Y-103317969D01*
X105249858Y-103305553D01*
X105258481Y-103293927D01*
X105268202Y-103283202D01*
X105278927Y-103273481D01*
X105290553Y-103264858D01*
X105302969Y-103257417D01*
X105316054Y-103251228D01*
X105329683Y-103246351D01*
X105343724Y-103242834D01*
X105358042Y-103240710D01*
X105372500Y-103240000D01*
X105717500Y-103240000D01*
X105731958Y-103240710D01*
G37*
%TD*%
%TO.C,R6*%
G36*
X109236958Y-92990710D02*
G01*
X109251276Y-92992834D01*
X109265317Y-92996351D01*
X109278946Y-93001228D01*
X109292031Y-93007417D01*
X109304447Y-93014858D01*
X109316073Y-93023481D01*
X109326798Y-93033202D01*
X109336519Y-93043927D01*
X109345142Y-93055553D01*
X109352583Y-93067969D01*
X109358772Y-93081054D01*
X109363649Y-93094683D01*
X109367166Y-93108724D01*
X109369290Y-93123042D01*
X109370000Y-93137500D01*
X109370000Y-93432500D01*
X109369290Y-93446958D01*
X109367166Y-93461276D01*
X109363649Y-93475317D01*
X109358772Y-93488946D01*
X109352583Y-93502031D01*
X109345142Y-93514447D01*
X109336519Y-93526073D01*
X109326798Y-93536798D01*
X109316073Y-93546519D01*
X109304447Y-93555142D01*
X109292031Y-93562583D01*
X109278946Y-93568772D01*
X109265317Y-93573649D01*
X109251276Y-93577166D01*
X109236958Y-93579290D01*
X109222500Y-93580000D01*
X108877500Y-93580000D01*
X108863042Y-93579290D01*
X108848724Y-93577166D01*
X108834683Y-93573649D01*
X108821054Y-93568772D01*
X108807969Y-93562583D01*
X108795553Y-93555142D01*
X108783927Y-93546519D01*
X108773202Y-93536798D01*
X108763481Y-93526073D01*
X108754858Y-93514447D01*
X108747417Y-93502031D01*
X108741228Y-93488946D01*
X108736351Y-93475317D01*
X108732834Y-93461276D01*
X108730710Y-93446958D01*
X108730000Y-93432500D01*
X108730000Y-93137500D01*
X108730710Y-93123042D01*
X108732834Y-93108724D01*
X108736351Y-93094683D01*
X108741228Y-93081054D01*
X108747417Y-93067969D01*
X108754858Y-93055553D01*
X108763481Y-93043927D01*
X108773202Y-93033202D01*
X108783927Y-93023481D01*
X108795553Y-93014858D01*
X108807969Y-93007417D01*
X108821054Y-93001228D01*
X108834683Y-92996351D01*
X108848724Y-92992834D01*
X108863042Y-92990710D01*
X108877500Y-92990000D01*
X109222500Y-92990000D01*
X109236958Y-92990710D01*
G37*
G36*
X109236958Y-92020710D02*
G01*
X109251276Y-92022834D01*
X109265317Y-92026351D01*
X109278946Y-92031228D01*
X109292031Y-92037417D01*
X109304447Y-92044858D01*
X109316073Y-92053481D01*
X109326798Y-92063202D01*
X109336519Y-92073927D01*
X109345142Y-92085553D01*
X109352583Y-92097969D01*
X109358772Y-92111054D01*
X109363649Y-92124683D01*
X109367166Y-92138724D01*
X109369290Y-92153042D01*
X109370000Y-92167500D01*
X109370000Y-92462500D01*
X109369290Y-92476958D01*
X109367166Y-92491276D01*
X109363649Y-92505317D01*
X109358772Y-92518946D01*
X109352583Y-92532031D01*
X109345142Y-92544447D01*
X109336519Y-92556073D01*
X109326798Y-92566798D01*
X109316073Y-92576519D01*
X109304447Y-92585142D01*
X109292031Y-92592583D01*
X109278946Y-92598772D01*
X109265317Y-92603649D01*
X109251276Y-92607166D01*
X109236958Y-92609290D01*
X109222500Y-92610000D01*
X108877500Y-92610000D01*
X108863042Y-92609290D01*
X108848724Y-92607166D01*
X108834683Y-92603649D01*
X108821054Y-92598772D01*
X108807969Y-92592583D01*
X108795553Y-92585142D01*
X108783927Y-92576519D01*
X108773202Y-92566798D01*
X108763481Y-92556073D01*
X108754858Y-92544447D01*
X108747417Y-92532031D01*
X108741228Y-92518946D01*
X108736351Y-92505317D01*
X108732834Y-92491276D01*
X108730710Y-92476958D01*
X108730000Y-92462500D01*
X108730000Y-92167500D01*
X108730710Y-92153042D01*
X108732834Y-92138724D01*
X108736351Y-92124683D01*
X108741228Y-92111054D01*
X108747417Y-92097969D01*
X108754858Y-92085553D01*
X108763481Y-92073927D01*
X108773202Y-92063202D01*
X108783927Y-92053481D01*
X108795553Y-92044858D01*
X108807969Y-92037417D01*
X108821054Y-92031228D01*
X108834683Y-92026351D01*
X108848724Y-92022834D01*
X108863042Y-92020710D01*
X108877500Y-92020000D01*
X109222500Y-92020000D01*
X109236958Y-92020710D01*
G37*
%TD*%
%TO.C,R5*%
G36*
X110536958Y-93220710D02*
G01*
X110551276Y-93222834D01*
X110565317Y-93226351D01*
X110578946Y-93231228D01*
X110592031Y-93237417D01*
X110604447Y-93244858D01*
X110616073Y-93253481D01*
X110626798Y-93263202D01*
X110636519Y-93273927D01*
X110645142Y-93285553D01*
X110652583Y-93297969D01*
X110658772Y-93311054D01*
X110663649Y-93324683D01*
X110667166Y-93338724D01*
X110669290Y-93353042D01*
X110670000Y-93367500D01*
X110670000Y-93662500D01*
X110669290Y-93676958D01*
X110667166Y-93691276D01*
X110663649Y-93705317D01*
X110658772Y-93718946D01*
X110652583Y-93732031D01*
X110645142Y-93744447D01*
X110636519Y-93756073D01*
X110626798Y-93766798D01*
X110616073Y-93776519D01*
X110604447Y-93785142D01*
X110592031Y-93792583D01*
X110578946Y-93798772D01*
X110565317Y-93803649D01*
X110551276Y-93807166D01*
X110536958Y-93809290D01*
X110522500Y-93810000D01*
X110177500Y-93810000D01*
X110163042Y-93809290D01*
X110148724Y-93807166D01*
X110134683Y-93803649D01*
X110121054Y-93798772D01*
X110107969Y-93792583D01*
X110095553Y-93785142D01*
X110083927Y-93776519D01*
X110073202Y-93766798D01*
X110063481Y-93756073D01*
X110054858Y-93744447D01*
X110047417Y-93732031D01*
X110041228Y-93718946D01*
X110036351Y-93705317D01*
X110032834Y-93691276D01*
X110030710Y-93676958D01*
X110030000Y-93662500D01*
X110030000Y-93367500D01*
X110030710Y-93353042D01*
X110032834Y-93338724D01*
X110036351Y-93324683D01*
X110041228Y-93311054D01*
X110047417Y-93297969D01*
X110054858Y-93285553D01*
X110063481Y-93273927D01*
X110073202Y-93263202D01*
X110083927Y-93253481D01*
X110095553Y-93244858D01*
X110107969Y-93237417D01*
X110121054Y-93231228D01*
X110134683Y-93226351D01*
X110148724Y-93222834D01*
X110163042Y-93220710D01*
X110177500Y-93220000D01*
X110522500Y-93220000D01*
X110536958Y-93220710D01*
G37*
G36*
X110536958Y-94190710D02*
G01*
X110551276Y-94192834D01*
X110565317Y-94196351D01*
X110578946Y-94201228D01*
X110592031Y-94207417D01*
X110604447Y-94214858D01*
X110616073Y-94223481D01*
X110626798Y-94233202D01*
X110636519Y-94243927D01*
X110645142Y-94255553D01*
X110652583Y-94267969D01*
X110658772Y-94281054D01*
X110663649Y-94294683D01*
X110667166Y-94308724D01*
X110669290Y-94323042D01*
X110670000Y-94337500D01*
X110670000Y-94632500D01*
X110669290Y-94646958D01*
X110667166Y-94661276D01*
X110663649Y-94675317D01*
X110658772Y-94688946D01*
X110652583Y-94702031D01*
X110645142Y-94714447D01*
X110636519Y-94726073D01*
X110626798Y-94736798D01*
X110616073Y-94746519D01*
X110604447Y-94755142D01*
X110592031Y-94762583D01*
X110578946Y-94768772D01*
X110565317Y-94773649D01*
X110551276Y-94777166D01*
X110536958Y-94779290D01*
X110522500Y-94780000D01*
X110177500Y-94780000D01*
X110163042Y-94779290D01*
X110148724Y-94777166D01*
X110134683Y-94773649D01*
X110121054Y-94768772D01*
X110107969Y-94762583D01*
X110095553Y-94755142D01*
X110083927Y-94746519D01*
X110073202Y-94736798D01*
X110063481Y-94726073D01*
X110054858Y-94714447D01*
X110047417Y-94702031D01*
X110041228Y-94688946D01*
X110036351Y-94675317D01*
X110032834Y-94661276D01*
X110030710Y-94646958D01*
X110030000Y-94632500D01*
X110030000Y-94337500D01*
X110030710Y-94323042D01*
X110032834Y-94308724D01*
X110036351Y-94294683D01*
X110041228Y-94281054D01*
X110047417Y-94267969D01*
X110054858Y-94255553D01*
X110063481Y-94243927D01*
X110073202Y-94233202D01*
X110083927Y-94223481D01*
X110095553Y-94214858D01*
X110107969Y-94207417D01*
X110121054Y-94201228D01*
X110134683Y-94196351D01*
X110148724Y-94192834D01*
X110163042Y-94190710D01*
X110177500Y-94190000D01*
X110522500Y-94190000D01*
X110536958Y-94190710D01*
G37*
%TD*%
%TO.C,R4*%
G36*
X104476958Y-88930710D02*
G01*
X104491276Y-88932834D01*
X104505317Y-88936351D01*
X104518946Y-88941228D01*
X104532031Y-88947417D01*
X104544447Y-88954858D01*
X104556073Y-88963481D01*
X104566798Y-88973202D01*
X104576519Y-88983927D01*
X104585142Y-88995553D01*
X104592583Y-89007969D01*
X104598772Y-89021054D01*
X104603649Y-89034683D01*
X104607166Y-89048724D01*
X104609290Y-89063042D01*
X104610000Y-89077500D01*
X104610000Y-89422500D01*
X104609290Y-89436958D01*
X104607166Y-89451276D01*
X104603649Y-89465317D01*
X104598772Y-89478946D01*
X104592583Y-89492031D01*
X104585142Y-89504447D01*
X104576519Y-89516073D01*
X104566798Y-89526798D01*
X104556073Y-89536519D01*
X104544447Y-89545142D01*
X104532031Y-89552583D01*
X104518946Y-89558772D01*
X104505317Y-89563649D01*
X104491276Y-89567166D01*
X104476958Y-89569290D01*
X104462500Y-89570000D01*
X104167500Y-89570000D01*
X104153042Y-89569290D01*
X104138724Y-89567166D01*
X104124683Y-89563649D01*
X104111054Y-89558772D01*
X104097969Y-89552583D01*
X104085553Y-89545142D01*
X104073927Y-89536519D01*
X104063202Y-89526798D01*
X104053481Y-89516073D01*
X104044858Y-89504447D01*
X104037417Y-89492031D01*
X104031228Y-89478946D01*
X104026351Y-89465317D01*
X104022834Y-89451276D01*
X104020710Y-89436958D01*
X104020000Y-89422500D01*
X104020000Y-89077500D01*
X104020710Y-89063042D01*
X104022834Y-89048724D01*
X104026351Y-89034683D01*
X104031228Y-89021054D01*
X104037417Y-89007969D01*
X104044858Y-88995553D01*
X104053481Y-88983927D01*
X104063202Y-88973202D01*
X104073927Y-88963481D01*
X104085553Y-88954858D01*
X104097969Y-88947417D01*
X104111054Y-88941228D01*
X104124683Y-88936351D01*
X104138724Y-88932834D01*
X104153042Y-88930710D01*
X104167500Y-88930000D01*
X104462500Y-88930000D01*
X104476958Y-88930710D01*
G37*
G36*
X105446958Y-88930710D02*
G01*
X105461276Y-88932834D01*
X105475317Y-88936351D01*
X105488946Y-88941228D01*
X105502031Y-88947417D01*
X105514447Y-88954858D01*
X105526073Y-88963481D01*
X105536798Y-88973202D01*
X105546519Y-88983927D01*
X105555142Y-88995553D01*
X105562583Y-89007969D01*
X105568772Y-89021054D01*
X105573649Y-89034683D01*
X105577166Y-89048724D01*
X105579290Y-89063042D01*
X105580000Y-89077500D01*
X105580000Y-89422500D01*
X105579290Y-89436958D01*
X105577166Y-89451276D01*
X105573649Y-89465317D01*
X105568772Y-89478946D01*
X105562583Y-89492031D01*
X105555142Y-89504447D01*
X105546519Y-89516073D01*
X105536798Y-89526798D01*
X105526073Y-89536519D01*
X105514447Y-89545142D01*
X105502031Y-89552583D01*
X105488946Y-89558772D01*
X105475317Y-89563649D01*
X105461276Y-89567166D01*
X105446958Y-89569290D01*
X105432500Y-89570000D01*
X105137500Y-89570000D01*
X105123042Y-89569290D01*
X105108724Y-89567166D01*
X105094683Y-89563649D01*
X105081054Y-89558772D01*
X105067969Y-89552583D01*
X105055553Y-89545142D01*
X105043927Y-89536519D01*
X105033202Y-89526798D01*
X105023481Y-89516073D01*
X105014858Y-89504447D01*
X105007417Y-89492031D01*
X105001228Y-89478946D01*
X104996351Y-89465317D01*
X104992834Y-89451276D01*
X104990710Y-89436958D01*
X104990000Y-89422500D01*
X104990000Y-89077500D01*
X104990710Y-89063042D01*
X104992834Y-89048724D01*
X104996351Y-89034683D01*
X105001228Y-89021054D01*
X105007417Y-89007969D01*
X105014858Y-88995553D01*
X105023481Y-88983927D01*
X105033202Y-88973202D01*
X105043927Y-88963481D01*
X105055553Y-88954858D01*
X105067969Y-88947417D01*
X105081054Y-88941228D01*
X105094683Y-88936351D01*
X105108724Y-88932834D01*
X105123042Y-88930710D01*
X105137500Y-88930000D01*
X105432500Y-88930000D01*
X105446958Y-88930710D01*
G37*
%TD*%
%TO.C,R3*%
G36*
X103486958Y-89390710D02*
G01*
X103501276Y-89392834D01*
X103515317Y-89396351D01*
X103528946Y-89401228D01*
X103542031Y-89407417D01*
X103554447Y-89414858D01*
X103566073Y-89423481D01*
X103576798Y-89433202D01*
X103586519Y-89443927D01*
X103595142Y-89455553D01*
X103602583Y-89467969D01*
X103608772Y-89481054D01*
X103613649Y-89494683D01*
X103617166Y-89508724D01*
X103619290Y-89523042D01*
X103620000Y-89537500D01*
X103620000Y-89832500D01*
X103619290Y-89846958D01*
X103617166Y-89861276D01*
X103613649Y-89875317D01*
X103608772Y-89888946D01*
X103602583Y-89902031D01*
X103595142Y-89914447D01*
X103586519Y-89926073D01*
X103576798Y-89936798D01*
X103566073Y-89946519D01*
X103554447Y-89955142D01*
X103542031Y-89962583D01*
X103528946Y-89968772D01*
X103515317Y-89973649D01*
X103501276Y-89977166D01*
X103486958Y-89979290D01*
X103472500Y-89980000D01*
X103127500Y-89980000D01*
X103113042Y-89979290D01*
X103098724Y-89977166D01*
X103084683Y-89973649D01*
X103071054Y-89968772D01*
X103057969Y-89962583D01*
X103045553Y-89955142D01*
X103033927Y-89946519D01*
X103023202Y-89936798D01*
X103013481Y-89926073D01*
X103004858Y-89914447D01*
X102997417Y-89902031D01*
X102991228Y-89888946D01*
X102986351Y-89875317D01*
X102982834Y-89861276D01*
X102980710Y-89846958D01*
X102980000Y-89832500D01*
X102980000Y-89537500D01*
X102980710Y-89523042D01*
X102982834Y-89508724D01*
X102986351Y-89494683D01*
X102991228Y-89481054D01*
X102997417Y-89467969D01*
X103004858Y-89455553D01*
X103013481Y-89443927D01*
X103023202Y-89433202D01*
X103033927Y-89423481D01*
X103045553Y-89414858D01*
X103057969Y-89407417D01*
X103071054Y-89401228D01*
X103084683Y-89396351D01*
X103098724Y-89392834D01*
X103113042Y-89390710D01*
X103127500Y-89390000D01*
X103472500Y-89390000D01*
X103486958Y-89390710D01*
G37*
G36*
X103486958Y-88420710D02*
G01*
X103501276Y-88422834D01*
X103515317Y-88426351D01*
X103528946Y-88431228D01*
X103542031Y-88437417D01*
X103554447Y-88444858D01*
X103566073Y-88453481D01*
X103576798Y-88463202D01*
X103586519Y-88473927D01*
X103595142Y-88485553D01*
X103602583Y-88497969D01*
X103608772Y-88511054D01*
X103613649Y-88524683D01*
X103617166Y-88538724D01*
X103619290Y-88553042D01*
X103620000Y-88567500D01*
X103620000Y-88862500D01*
X103619290Y-88876958D01*
X103617166Y-88891276D01*
X103613649Y-88905317D01*
X103608772Y-88918946D01*
X103602583Y-88932031D01*
X103595142Y-88944447D01*
X103586519Y-88956073D01*
X103576798Y-88966798D01*
X103566073Y-88976519D01*
X103554447Y-88985142D01*
X103542031Y-88992583D01*
X103528946Y-88998772D01*
X103515317Y-89003649D01*
X103501276Y-89007166D01*
X103486958Y-89009290D01*
X103472500Y-89010000D01*
X103127500Y-89010000D01*
X103113042Y-89009290D01*
X103098724Y-89007166D01*
X103084683Y-89003649D01*
X103071054Y-88998772D01*
X103057969Y-88992583D01*
X103045553Y-88985142D01*
X103033927Y-88976519D01*
X103023202Y-88966798D01*
X103013481Y-88956073D01*
X103004858Y-88944447D01*
X102997417Y-88932031D01*
X102991228Y-88918946D01*
X102986351Y-88905317D01*
X102982834Y-88891276D01*
X102980710Y-88876958D01*
X102980000Y-88862500D01*
X102980000Y-88567500D01*
X102980710Y-88553042D01*
X102982834Y-88538724D01*
X102986351Y-88524683D01*
X102991228Y-88511054D01*
X102997417Y-88497969D01*
X103004858Y-88485553D01*
X103013481Y-88473927D01*
X103023202Y-88463202D01*
X103033927Y-88453481D01*
X103045553Y-88444858D01*
X103057969Y-88437417D01*
X103071054Y-88431228D01*
X103084683Y-88426351D01*
X103098724Y-88422834D01*
X103113042Y-88420710D01*
X103127500Y-88420000D01*
X103472500Y-88420000D01*
X103486958Y-88420710D01*
G37*
%TD*%
%TO.C,R2*%
G36*
X92439727Y-90683989D02*
G01*
X92454045Y-90686113D01*
X92468086Y-90689630D01*
X92481715Y-90694507D01*
X92494800Y-90700696D01*
X92507216Y-90708137D01*
X92518842Y-90716760D01*
X92529567Y-90726481D01*
X92773519Y-90970433D01*
X92783240Y-90981158D01*
X92791863Y-90992784D01*
X92799304Y-91005200D01*
X92805493Y-91018285D01*
X92810370Y-91031914D01*
X92813887Y-91045955D01*
X92816011Y-91060273D01*
X92816721Y-91074731D01*
X92816011Y-91089189D01*
X92813887Y-91103507D01*
X92810370Y-91117548D01*
X92805493Y-91131177D01*
X92799304Y-91144262D01*
X92791863Y-91156678D01*
X92783240Y-91168304D01*
X92773519Y-91179029D01*
X92564923Y-91387625D01*
X92554198Y-91397346D01*
X92542572Y-91405969D01*
X92530156Y-91413410D01*
X92517071Y-91419599D01*
X92503442Y-91424476D01*
X92489401Y-91427993D01*
X92475083Y-91430117D01*
X92460625Y-91430827D01*
X92446167Y-91430117D01*
X92431849Y-91427993D01*
X92417808Y-91424476D01*
X92404179Y-91419599D01*
X92391094Y-91413410D01*
X92378678Y-91405969D01*
X92367052Y-91397346D01*
X92356327Y-91387625D01*
X92112375Y-91143673D01*
X92102654Y-91132948D01*
X92094031Y-91121322D01*
X92086590Y-91108906D01*
X92080401Y-91095821D01*
X92075524Y-91082192D01*
X92072007Y-91068151D01*
X92069883Y-91053833D01*
X92069173Y-91039375D01*
X92069883Y-91024917D01*
X92072007Y-91010599D01*
X92075524Y-90996558D01*
X92080401Y-90982929D01*
X92086590Y-90969844D01*
X92094031Y-90957428D01*
X92102654Y-90945802D01*
X92112375Y-90935077D01*
X92320971Y-90726481D01*
X92331696Y-90716760D01*
X92343322Y-90708137D01*
X92355738Y-90700696D01*
X92368823Y-90694507D01*
X92382452Y-90689630D01*
X92396493Y-90686113D01*
X92410811Y-90683989D01*
X92425269Y-90683279D01*
X92439727Y-90683989D01*
G37*
G36*
X91753833Y-91369883D02*
G01*
X91768151Y-91372007D01*
X91782192Y-91375524D01*
X91795821Y-91380401D01*
X91808906Y-91386590D01*
X91821322Y-91394031D01*
X91832948Y-91402654D01*
X91843673Y-91412375D01*
X92087625Y-91656327D01*
X92097346Y-91667052D01*
X92105969Y-91678678D01*
X92113410Y-91691094D01*
X92119599Y-91704179D01*
X92124476Y-91717808D01*
X92127993Y-91731849D01*
X92130117Y-91746167D01*
X92130827Y-91760625D01*
X92130117Y-91775083D01*
X92127993Y-91789401D01*
X92124476Y-91803442D01*
X92119599Y-91817071D01*
X92113410Y-91830156D01*
X92105969Y-91842572D01*
X92097346Y-91854198D01*
X92087625Y-91864923D01*
X91879029Y-92073519D01*
X91868304Y-92083240D01*
X91856678Y-92091863D01*
X91844262Y-92099304D01*
X91831177Y-92105493D01*
X91817548Y-92110370D01*
X91803507Y-92113887D01*
X91789189Y-92116011D01*
X91774731Y-92116721D01*
X91760273Y-92116011D01*
X91745955Y-92113887D01*
X91731914Y-92110370D01*
X91718285Y-92105493D01*
X91705200Y-92099304D01*
X91692784Y-92091863D01*
X91681158Y-92083240D01*
X91670433Y-92073519D01*
X91426481Y-91829567D01*
X91416760Y-91818842D01*
X91408137Y-91807216D01*
X91400696Y-91794800D01*
X91394507Y-91781715D01*
X91389630Y-91768086D01*
X91386113Y-91754045D01*
X91383989Y-91739727D01*
X91383279Y-91725269D01*
X91383989Y-91710811D01*
X91386113Y-91696493D01*
X91389630Y-91682452D01*
X91394507Y-91668823D01*
X91400696Y-91655738D01*
X91408137Y-91643322D01*
X91416760Y-91631696D01*
X91426481Y-91620971D01*
X91635077Y-91412375D01*
X91645802Y-91402654D01*
X91657428Y-91394031D01*
X91669844Y-91386590D01*
X91682929Y-91380401D01*
X91696558Y-91375524D01*
X91710599Y-91372007D01*
X91724917Y-91369883D01*
X91739375Y-91369173D01*
X91753833Y-91369883D01*
G37*
%TD*%
%TO.C,R1*%
G36*
X97046958Y-89430710D02*
G01*
X97061276Y-89432834D01*
X97075317Y-89436351D01*
X97088946Y-89441228D01*
X97102031Y-89447417D01*
X97114447Y-89454858D01*
X97126073Y-89463481D01*
X97136798Y-89473202D01*
X97146519Y-89483927D01*
X97155142Y-89495553D01*
X97162583Y-89507969D01*
X97168772Y-89521054D01*
X97173649Y-89534683D01*
X97177166Y-89548724D01*
X97179290Y-89563042D01*
X97180000Y-89577500D01*
X97180000Y-89922500D01*
X97179290Y-89936958D01*
X97177166Y-89951276D01*
X97173649Y-89965317D01*
X97168772Y-89978946D01*
X97162583Y-89992031D01*
X97155142Y-90004447D01*
X97146519Y-90016073D01*
X97136798Y-90026798D01*
X97126073Y-90036519D01*
X97114447Y-90045142D01*
X97102031Y-90052583D01*
X97088946Y-90058772D01*
X97075317Y-90063649D01*
X97061276Y-90067166D01*
X97046958Y-90069290D01*
X97032500Y-90070000D01*
X96737500Y-90070000D01*
X96723042Y-90069290D01*
X96708724Y-90067166D01*
X96694683Y-90063649D01*
X96681054Y-90058772D01*
X96667969Y-90052583D01*
X96655553Y-90045142D01*
X96643927Y-90036519D01*
X96633202Y-90026798D01*
X96623481Y-90016073D01*
X96614858Y-90004447D01*
X96607417Y-89992031D01*
X96601228Y-89978946D01*
X96596351Y-89965317D01*
X96592834Y-89951276D01*
X96590710Y-89936958D01*
X96590000Y-89922500D01*
X96590000Y-89577500D01*
X96590710Y-89563042D01*
X96592834Y-89548724D01*
X96596351Y-89534683D01*
X96601228Y-89521054D01*
X96607417Y-89507969D01*
X96614858Y-89495553D01*
X96623481Y-89483927D01*
X96633202Y-89473202D01*
X96643927Y-89463481D01*
X96655553Y-89454858D01*
X96667969Y-89447417D01*
X96681054Y-89441228D01*
X96694683Y-89436351D01*
X96708724Y-89432834D01*
X96723042Y-89430710D01*
X96737500Y-89430000D01*
X97032500Y-89430000D01*
X97046958Y-89430710D01*
G37*
G36*
X96076958Y-89430710D02*
G01*
X96091276Y-89432834D01*
X96105317Y-89436351D01*
X96118946Y-89441228D01*
X96132031Y-89447417D01*
X96144447Y-89454858D01*
X96156073Y-89463481D01*
X96166798Y-89473202D01*
X96176519Y-89483927D01*
X96185142Y-89495553D01*
X96192583Y-89507969D01*
X96198772Y-89521054D01*
X96203649Y-89534683D01*
X96207166Y-89548724D01*
X96209290Y-89563042D01*
X96210000Y-89577500D01*
X96210000Y-89922500D01*
X96209290Y-89936958D01*
X96207166Y-89951276D01*
X96203649Y-89965317D01*
X96198772Y-89978946D01*
X96192583Y-89992031D01*
X96185142Y-90004447D01*
X96176519Y-90016073D01*
X96166798Y-90026798D01*
X96156073Y-90036519D01*
X96144447Y-90045142D01*
X96132031Y-90052583D01*
X96118946Y-90058772D01*
X96105317Y-90063649D01*
X96091276Y-90067166D01*
X96076958Y-90069290D01*
X96062500Y-90070000D01*
X95767500Y-90070000D01*
X95753042Y-90069290D01*
X95738724Y-90067166D01*
X95724683Y-90063649D01*
X95711054Y-90058772D01*
X95697969Y-90052583D01*
X95685553Y-90045142D01*
X95673927Y-90036519D01*
X95663202Y-90026798D01*
X95653481Y-90016073D01*
X95644858Y-90004447D01*
X95637417Y-89992031D01*
X95631228Y-89978946D01*
X95626351Y-89965317D01*
X95622834Y-89951276D01*
X95620710Y-89936958D01*
X95620000Y-89922500D01*
X95620000Y-89577500D01*
X95620710Y-89563042D01*
X95622834Y-89548724D01*
X95626351Y-89534683D01*
X95631228Y-89521054D01*
X95637417Y-89507969D01*
X95644858Y-89495553D01*
X95653481Y-89483927D01*
X95663202Y-89473202D01*
X95673927Y-89463481D01*
X95685553Y-89454858D01*
X95697969Y-89447417D01*
X95711054Y-89441228D01*
X95724683Y-89436351D01*
X95738724Y-89432834D01*
X95753042Y-89430710D01*
X95767500Y-89430000D01*
X96062500Y-89430000D01*
X96076958Y-89430710D01*
G37*
%TD*%
%TO.C,C20*%
G36*
X91896958Y-101280710D02*
G01*
X91911276Y-101282834D01*
X91925317Y-101286351D01*
X91938946Y-101291228D01*
X91952031Y-101297417D01*
X91964447Y-101304858D01*
X91976073Y-101313481D01*
X91986798Y-101323202D01*
X91996519Y-101333927D01*
X92005142Y-101345553D01*
X92012583Y-101357969D01*
X92018772Y-101371054D01*
X92023649Y-101384683D01*
X92027166Y-101398724D01*
X92029290Y-101413042D01*
X92030000Y-101427500D01*
X92030000Y-101772500D01*
X92029290Y-101786958D01*
X92027166Y-101801276D01*
X92023649Y-101815317D01*
X92018772Y-101828946D01*
X92012583Y-101842031D01*
X92005142Y-101854447D01*
X91996519Y-101866073D01*
X91986798Y-101876798D01*
X91976073Y-101886519D01*
X91964447Y-101895142D01*
X91952031Y-101902583D01*
X91938946Y-101908772D01*
X91925317Y-101913649D01*
X91911276Y-101917166D01*
X91896958Y-101919290D01*
X91882500Y-101920000D01*
X91587500Y-101920000D01*
X91573042Y-101919290D01*
X91558724Y-101917166D01*
X91544683Y-101913649D01*
X91531054Y-101908772D01*
X91517969Y-101902583D01*
X91505553Y-101895142D01*
X91493927Y-101886519D01*
X91483202Y-101876798D01*
X91473481Y-101866073D01*
X91464858Y-101854447D01*
X91457417Y-101842031D01*
X91451228Y-101828946D01*
X91446351Y-101815317D01*
X91442834Y-101801276D01*
X91440710Y-101786958D01*
X91440000Y-101772500D01*
X91440000Y-101427500D01*
X91440710Y-101413042D01*
X91442834Y-101398724D01*
X91446351Y-101384683D01*
X91451228Y-101371054D01*
X91457417Y-101357969D01*
X91464858Y-101345553D01*
X91473481Y-101333927D01*
X91483202Y-101323202D01*
X91493927Y-101313481D01*
X91505553Y-101304858D01*
X91517969Y-101297417D01*
X91531054Y-101291228D01*
X91544683Y-101286351D01*
X91558724Y-101282834D01*
X91573042Y-101280710D01*
X91587500Y-101280000D01*
X91882500Y-101280000D01*
X91896958Y-101280710D01*
G37*
G36*
X90926958Y-101280710D02*
G01*
X90941276Y-101282834D01*
X90955317Y-101286351D01*
X90968946Y-101291228D01*
X90982031Y-101297417D01*
X90994447Y-101304858D01*
X91006073Y-101313481D01*
X91016798Y-101323202D01*
X91026519Y-101333927D01*
X91035142Y-101345553D01*
X91042583Y-101357969D01*
X91048772Y-101371054D01*
X91053649Y-101384683D01*
X91057166Y-101398724D01*
X91059290Y-101413042D01*
X91060000Y-101427500D01*
X91060000Y-101772500D01*
X91059290Y-101786958D01*
X91057166Y-101801276D01*
X91053649Y-101815317D01*
X91048772Y-101828946D01*
X91042583Y-101842031D01*
X91035142Y-101854447D01*
X91026519Y-101866073D01*
X91016798Y-101876798D01*
X91006073Y-101886519D01*
X90994447Y-101895142D01*
X90982031Y-101902583D01*
X90968946Y-101908772D01*
X90955317Y-101913649D01*
X90941276Y-101917166D01*
X90926958Y-101919290D01*
X90912500Y-101920000D01*
X90617500Y-101920000D01*
X90603042Y-101919290D01*
X90588724Y-101917166D01*
X90574683Y-101913649D01*
X90561054Y-101908772D01*
X90547969Y-101902583D01*
X90535553Y-101895142D01*
X90523927Y-101886519D01*
X90513202Y-101876798D01*
X90503481Y-101866073D01*
X90494858Y-101854447D01*
X90487417Y-101842031D01*
X90481228Y-101828946D01*
X90476351Y-101815317D01*
X90472834Y-101801276D01*
X90470710Y-101786958D01*
X90470000Y-101772500D01*
X90470000Y-101427500D01*
X90470710Y-101413042D01*
X90472834Y-101398724D01*
X90476351Y-101384683D01*
X90481228Y-101371054D01*
X90487417Y-101357969D01*
X90494858Y-101345553D01*
X90503481Y-101333927D01*
X90513202Y-101323202D01*
X90523927Y-101313481D01*
X90535553Y-101304858D01*
X90547969Y-101297417D01*
X90561054Y-101291228D01*
X90574683Y-101286351D01*
X90588724Y-101282834D01*
X90603042Y-101280710D01*
X90617500Y-101280000D01*
X90912500Y-101280000D01*
X90926958Y-101280710D01*
G37*
%TD*%
%TO.C,C19*%
G36*
X106736958Y-103240710D02*
G01*
X106751276Y-103242834D01*
X106765317Y-103246351D01*
X106778946Y-103251228D01*
X106792031Y-103257417D01*
X106804447Y-103264858D01*
X106816073Y-103273481D01*
X106826798Y-103283202D01*
X106836519Y-103293927D01*
X106845142Y-103305553D01*
X106852583Y-103317969D01*
X106858772Y-103331054D01*
X106863649Y-103344683D01*
X106867166Y-103358724D01*
X106869290Y-103373042D01*
X106870000Y-103387500D01*
X106870000Y-103682500D01*
X106869290Y-103696958D01*
X106867166Y-103711276D01*
X106863649Y-103725317D01*
X106858772Y-103738946D01*
X106852583Y-103752031D01*
X106845142Y-103764447D01*
X106836519Y-103776073D01*
X106826798Y-103786798D01*
X106816073Y-103796519D01*
X106804447Y-103805142D01*
X106792031Y-103812583D01*
X106778946Y-103818772D01*
X106765317Y-103823649D01*
X106751276Y-103827166D01*
X106736958Y-103829290D01*
X106722500Y-103830000D01*
X106377500Y-103830000D01*
X106363042Y-103829290D01*
X106348724Y-103827166D01*
X106334683Y-103823649D01*
X106321054Y-103818772D01*
X106307969Y-103812583D01*
X106295553Y-103805142D01*
X106283927Y-103796519D01*
X106273202Y-103786798D01*
X106263481Y-103776073D01*
X106254858Y-103764447D01*
X106247417Y-103752031D01*
X106241228Y-103738946D01*
X106236351Y-103725317D01*
X106232834Y-103711276D01*
X106230710Y-103696958D01*
X106230000Y-103682500D01*
X106230000Y-103387500D01*
X106230710Y-103373042D01*
X106232834Y-103358724D01*
X106236351Y-103344683D01*
X106241228Y-103331054D01*
X106247417Y-103317969D01*
X106254858Y-103305553D01*
X106263481Y-103293927D01*
X106273202Y-103283202D01*
X106283927Y-103273481D01*
X106295553Y-103264858D01*
X106307969Y-103257417D01*
X106321054Y-103251228D01*
X106334683Y-103246351D01*
X106348724Y-103242834D01*
X106363042Y-103240710D01*
X106377500Y-103240000D01*
X106722500Y-103240000D01*
X106736958Y-103240710D01*
G37*
G36*
X106736958Y-102270710D02*
G01*
X106751276Y-102272834D01*
X106765317Y-102276351D01*
X106778946Y-102281228D01*
X106792031Y-102287417D01*
X106804447Y-102294858D01*
X106816073Y-102303481D01*
X106826798Y-102313202D01*
X106836519Y-102323927D01*
X106845142Y-102335553D01*
X106852583Y-102347969D01*
X106858772Y-102361054D01*
X106863649Y-102374683D01*
X106867166Y-102388724D01*
X106869290Y-102403042D01*
X106870000Y-102417500D01*
X106870000Y-102712500D01*
X106869290Y-102726958D01*
X106867166Y-102741276D01*
X106863649Y-102755317D01*
X106858772Y-102768946D01*
X106852583Y-102782031D01*
X106845142Y-102794447D01*
X106836519Y-102806073D01*
X106826798Y-102816798D01*
X106816073Y-102826519D01*
X106804447Y-102835142D01*
X106792031Y-102842583D01*
X106778946Y-102848772D01*
X106765317Y-102853649D01*
X106751276Y-102857166D01*
X106736958Y-102859290D01*
X106722500Y-102860000D01*
X106377500Y-102860000D01*
X106363042Y-102859290D01*
X106348724Y-102857166D01*
X106334683Y-102853649D01*
X106321054Y-102848772D01*
X106307969Y-102842583D01*
X106295553Y-102835142D01*
X106283927Y-102826519D01*
X106273202Y-102816798D01*
X106263481Y-102806073D01*
X106254858Y-102794447D01*
X106247417Y-102782031D01*
X106241228Y-102768946D01*
X106236351Y-102755317D01*
X106232834Y-102741276D01*
X106230710Y-102726958D01*
X106230000Y-102712500D01*
X106230000Y-102417500D01*
X106230710Y-102403042D01*
X106232834Y-102388724D01*
X106236351Y-102374683D01*
X106241228Y-102361054D01*
X106247417Y-102347969D01*
X106254858Y-102335553D01*
X106263481Y-102323927D01*
X106273202Y-102313202D01*
X106283927Y-102303481D01*
X106295553Y-102294858D01*
X106307969Y-102287417D01*
X106321054Y-102281228D01*
X106334683Y-102276351D01*
X106348724Y-102272834D01*
X106363042Y-102270710D01*
X106377500Y-102270000D01*
X106722500Y-102270000D01*
X106736958Y-102270710D01*
G37*
%TD*%
%TO.C,C18*%
G36*
X94036958Y-108490710D02*
G01*
X94051276Y-108492834D01*
X94065317Y-108496351D01*
X94078946Y-108501228D01*
X94092031Y-108507417D01*
X94104447Y-108514858D01*
X94116073Y-108523481D01*
X94126798Y-108533202D01*
X94136519Y-108543927D01*
X94145142Y-108555553D01*
X94152583Y-108567969D01*
X94158772Y-108581054D01*
X94163649Y-108594683D01*
X94167166Y-108608724D01*
X94169290Y-108623042D01*
X94170000Y-108637500D01*
X94170000Y-108932500D01*
X94169290Y-108946958D01*
X94167166Y-108961276D01*
X94163649Y-108975317D01*
X94158772Y-108988946D01*
X94152583Y-109002031D01*
X94145142Y-109014447D01*
X94136519Y-109026073D01*
X94126798Y-109036798D01*
X94116073Y-109046519D01*
X94104447Y-109055142D01*
X94092031Y-109062583D01*
X94078946Y-109068772D01*
X94065317Y-109073649D01*
X94051276Y-109077166D01*
X94036958Y-109079290D01*
X94022500Y-109080000D01*
X93677500Y-109080000D01*
X93663042Y-109079290D01*
X93648724Y-109077166D01*
X93634683Y-109073649D01*
X93621054Y-109068772D01*
X93607969Y-109062583D01*
X93595553Y-109055142D01*
X93583927Y-109046519D01*
X93573202Y-109036798D01*
X93563481Y-109026073D01*
X93554858Y-109014447D01*
X93547417Y-109002031D01*
X93541228Y-108988946D01*
X93536351Y-108975317D01*
X93532834Y-108961276D01*
X93530710Y-108946958D01*
X93530000Y-108932500D01*
X93530000Y-108637500D01*
X93530710Y-108623042D01*
X93532834Y-108608724D01*
X93536351Y-108594683D01*
X93541228Y-108581054D01*
X93547417Y-108567969D01*
X93554858Y-108555553D01*
X93563481Y-108543927D01*
X93573202Y-108533202D01*
X93583927Y-108523481D01*
X93595553Y-108514858D01*
X93607969Y-108507417D01*
X93621054Y-108501228D01*
X93634683Y-108496351D01*
X93648724Y-108492834D01*
X93663042Y-108490710D01*
X93677500Y-108490000D01*
X94022500Y-108490000D01*
X94036958Y-108490710D01*
G37*
G36*
X94036958Y-107520710D02*
G01*
X94051276Y-107522834D01*
X94065317Y-107526351D01*
X94078946Y-107531228D01*
X94092031Y-107537417D01*
X94104447Y-107544858D01*
X94116073Y-107553481D01*
X94126798Y-107563202D01*
X94136519Y-107573927D01*
X94145142Y-107585553D01*
X94152583Y-107597969D01*
X94158772Y-107611054D01*
X94163649Y-107624683D01*
X94167166Y-107638724D01*
X94169290Y-107653042D01*
X94170000Y-107667500D01*
X94170000Y-107962500D01*
X94169290Y-107976958D01*
X94167166Y-107991276D01*
X94163649Y-108005317D01*
X94158772Y-108018946D01*
X94152583Y-108032031D01*
X94145142Y-108044447D01*
X94136519Y-108056073D01*
X94126798Y-108066798D01*
X94116073Y-108076519D01*
X94104447Y-108085142D01*
X94092031Y-108092583D01*
X94078946Y-108098772D01*
X94065317Y-108103649D01*
X94051276Y-108107166D01*
X94036958Y-108109290D01*
X94022500Y-108110000D01*
X93677500Y-108110000D01*
X93663042Y-108109290D01*
X93648724Y-108107166D01*
X93634683Y-108103649D01*
X93621054Y-108098772D01*
X93607969Y-108092583D01*
X93595553Y-108085142D01*
X93583927Y-108076519D01*
X93573202Y-108066798D01*
X93563481Y-108056073D01*
X93554858Y-108044447D01*
X93547417Y-108032031D01*
X93541228Y-108018946D01*
X93536351Y-108005317D01*
X93532834Y-107991276D01*
X93530710Y-107976958D01*
X93530000Y-107962500D01*
X93530000Y-107667500D01*
X93530710Y-107653042D01*
X93532834Y-107638724D01*
X93536351Y-107624683D01*
X93541228Y-107611054D01*
X93547417Y-107597969D01*
X93554858Y-107585553D01*
X93563481Y-107573927D01*
X93573202Y-107563202D01*
X93583927Y-107553481D01*
X93595553Y-107544858D01*
X93607969Y-107537417D01*
X93621054Y-107531228D01*
X93634683Y-107526351D01*
X93648724Y-107522834D01*
X93663042Y-107520710D01*
X93677500Y-107520000D01*
X94022500Y-107520000D01*
X94036958Y-107520710D01*
G37*
%TD*%
%TO.C,C17*%
G36*
X96546958Y-110930710D02*
G01*
X96561276Y-110932834D01*
X96575317Y-110936351D01*
X96588946Y-110941228D01*
X96602031Y-110947417D01*
X96614447Y-110954858D01*
X96626073Y-110963481D01*
X96636798Y-110973202D01*
X96646519Y-110983927D01*
X96655142Y-110995553D01*
X96662583Y-111007969D01*
X96668772Y-111021054D01*
X96673649Y-111034683D01*
X96677166Y-111048724D01*
X96679290Y-111063042D01*
X96680000Y-111077500D01*
X96680000Y-111422500D01*
X96679290Y-111436958D01*
X96677166Y-111451276D01*
X96673649Y-111465317D01*
X96668772Y-111478946D01*
X96662583Y-111492031D01*
X96655142Y-111504447D01*
X96646519Y-111516073D01*
X96636798Y-111526798D01*
X96626073Y-111536519D01*
X96614447Y-111545142D01*
X96602031Y-111552583D01*
X96588946Y-111558772D01*
X96575317Y-111563649D01*
X96561276Y-111567166D01*
X96546958Y-111569290D01*
X96532500Y-111570000D01*
X96237500Y-111570000D01*
X96223042Y-111569290D01*
X96208724Y-111567166D01*
X96194683Y-111563649D01*
X96181054Y-111558772D01*
X96167969Y-111552583D01*
X96155553Y-111545142D01*
X96143927Y-111536519D01*
X96133202Y-111526798D01*
X96123481Y-111516073D01*
X96114858Y-111504447D01*
X96107417Y-111492031D01*
X96101228Y-111478946D01*
X96096351Y-111465317D01*
X96092834Y-111451276D01*
X96090710Y-111436958D01*
X96090000Y-111422500D01*
X96090000Y-111077500D01*
X96090710Y-111063042D01*
X96092834Y-111048724D01*
X96096351Y-111034683D01*
X96101228Y-111021054D01*
X96107417Y-111007969D01*
X96114858Y-110995553D01*
X96123481Y-110983927D01*
X96133202Y-110973202D01*
X96143927Y-110963481D01*
X96155553Y-110954858D01*
X96167969Y-110947417D01*
X96181054Y-110941228D01*
X96194683Y-110936351D01*
X96208724Y-110932834D01*
X96223042Y-110930710D01*
X96237500Y-110930000D01*
X96532500Y-110930000D01*
X96546958Y-110930710D01*
G37*
G36*
X95576958Y-110930710D02*
G01*
X95591276Y-110932834D01*
X95605317Y-110936351D01*
X95618946Y-110941228D01*
X95632031Y-110947417D01*
X95644447Y-110954858D01*
X95656073Y-110963481D01*
X95666798Y-110973202D01*
X95676519Y-110983927D01*
X95685142Y-110995553D01*
X95692583Y-111007969D01*
X95698772Y-111021054D01*
X95703649Y-111034683D01*
X95707166Y-111048724D01*
X95709290Y-111063042D01*
X95710000Y-111077500D01*
X95710000Y-111422500D01*
X95709290Y-111436958D01*
X95707166Y-111451276D01*
X95703649Y-111465317D01*
X95698772Y-111478946D01*
X95692583Y-111492031D01*
X95685142Y-111504447D01*
X95676519Y-111516073D01*
X95666798Y-111526798D01*
X95656073Y-111536519D01*
X95644447Y-111545142D01*
X95632031Y-111552583D01*
X95618946Y-111558772D01*
X95605317Y-111563649D01*
X95591276Y-111567166D01*
X95576958Y-111569290D01*
X95562500Y-111570000D01*
X95267500Y-111570000D01*
X95253042Y-111569290D01*
X95238724Y-111567166D01*
X95224683Y-111563649D01*
X95211054Y-111558772D01*
X95197969Y-111552583D01*
X95185553Y-111545142D01*
X95173927Y-111536519D01*
X95163202Y-111526798D01*
X95153481Y-111516073D01*
X95144858Y-111504447D01*
X95137417Y-111492031D01*
X95131228Y-111478946D01*
X95126351Y-111465317D01*
X95122834Y-111451276D01*
X95120710Y-111436958D01*
X95120000Y-111422500D01*
X95120000Y-111077500D01*
X95120710Y-111063042D01*
X95122834Y-111048724D01*
X95126351Y-111034683D01*
X95131228Y-111021054D01*
X95137417Y-111007969D01*
X95144858Y-110995553D01*
X95153481Y-110983927D01*
X95163202Y-110973202D01*
X95173927Y-110963481D01*
X95185553Y-110954858D01*
X95197969Y-110947417D01*
X95211054Y-110941228D01*
X95224683Y-110936351D01*
X95238724Y-110932834D01*
X95253042Y-110930710D01*
X95267500Y-110930000D01*
X95562500Y-110930000D01*
X95576958Y-110930710D01*
G37*
%TD*%
%TO.C,C13*%
G36*
X97686958Y-111890710D02*
G01*
X97701276Y-111892834D01*
X97715317Y-111896351D01*
X97728946Y-111901228D01*
X97742031Y-111907417D01*
X97754447Y-111914858D01*
X97766073Y-111923481D01*
X97776798Y-111933202D01*
X97786519Y-111943927D01*
X97795142Y-111955553D01*
X97802583Y-111967969D01*
X97808772Y-111981054D01*
X97813649Y-111994683D01*
X97817166Y-112008724D01*
X97819290Y-112023042D01*
X97820000Y-112037500D01*
X97820000Y-112332500D01*
X97819290Y-112346958D01*
X97817166Y-112361276D01*
X97813649Y-112375317D01*
X97808772Y-112388946D01*
X97802583Y-112402031D01*
X97795142Y-112414447D01*
X97786519Y-112426073D01*
X97776798Y-112436798D01*
X97766073Y-112446519D01*
X97754447Y-112455142D01*
X97742031Y-112462583D01*
X97728946Y-112468772D01*
X97715317Y-112473649D01*
X97701276Y-112477166D01*
X97686958Y-112479290D01*
X97672500Y-112480000D01*
X97327500Y-112480000D01*
X97313042Y-112479290D01*
X97298724Y-112477166D01*
X97284683Y-112473649D01*
X97271054Y-112468772D01*
X97257969Y-112462583D01*
X97245553Y-112455142D01*
X97233927Y-112446519D01*
X97223202Y-112436798D01*
X97213481Y-112426073D01*
X97204858Y-112414447D01*
X97197417Y-112402031D01*
X97191228Y-112388946D01*
X97186351Y-112375317D01*
X97182834Y-112361276D01*
X97180710Y-112346958D01*
X97180000Y-112332500D01*
X97180000Y-112037500D01*
X97180710Y-112023042D01*
X97182834Y-112008724D01*
X97186351Y-111994683D01*
X97191228Y-111981054D01*
X97197417Y-111967969D01*
X97204858Y-111955553D01*
X97213481Y-111943927D01*
X97223202Y-111933202D01*
X97233927Y-111923481D01*
X97245553Y-111914858D01*
X97257969Y-111907417D01*
X97271054Y-111901228D01*
X97284683Y-111896351D01*
X97298724Y-111892834D01*
X97313042Y-111890710D01*
X97327500Y-111890000D01*
X97672500Y-111890000D01*
X97686958Y-111890710D01*
G37*
G36*
X97686958Y-110920710D02*
G01*
X97701276Y-110922834D01*
X97715317Y-110926351D01*
X97728946Y-110931228D01*
X97742031Y-110937417D01*
X97754447Y-110944858D01*
X97766073Y-110953481D01*
X97776798Y-110963202D01*
X97786519Y-110973927D01*
X97795142Y-110985553D01*
X97802583Y-110997969D01*
X97808772Y-111011054D01*
X97813649Y-111024683D01*
X97817166Y-111038724D01*
X97819290Y-111053042D01*
X97820000Y-111067500D01*
X97820000Y-111362500D01*
X97819290Y-111376958D01*
X97817166Y-111391276D01*
X97813649Y-111405317D01*
X97808772Y-111418946D01*
X97802583Y-111432031D01*
X97795142Y-111444447D01*
X97786519Y-111456073D01*
X97776798Y-111466798D01*
X97766073Y-111476519D01*
X97754447Y-111485142D01*
X97742031Y-111492583D01*
X97728946Y-111498772D01*
X97715317Y-111503649D01*
X97701276Y-111507166D01*
X97686958Y-111509290D01*
X97672500Y-111510000D01*
X97327500Y-111510000D01*
X97313042Y-111509290D01*
X97298724Y-111507166D01*
X97284683Y-111503649D01*
X97271054Y-111498772D01*
X97257969Y-111492583D01*
X97245553Y-111485142D01*
X97233927Y-111476519D01*
X97223202Y-111466798D01*
X97213481Y-111456073D01*
X97204858Y-111444447D01*
X97197417Y-111432031D01*
X97191228Y-111418946D01*
X97186351Y-111405317D01*
X97182834Y-111391276D01*
X97180710Y-111376958D01*
X97180000Y-111362500D01*
X97180000Y-111067500D01*
X97180710Y-111053042D01*
X97182834Y-111038724D01*
X97186351Y-111024683D01*
X97191228Y-111011054D01*
X97197417Y-110997969D01*
X97204858Y-110985553D01*
X97213481Y-110973927D01*
X97223202Y-110963202D01*
X97233927Y-110953481D01*
X97245553Y-110944858D01*
X97257969Y-110937417D01*
X97271054Y-110931228D01*
X97284683Y-110926351D01*
X97298724Y-110922834D01*
X97313042Y-110920710D01*
X97327500Y-110920000D01*
X97672500Y-110920000D01*
X97686958Y-110920710D01*
G37*
%TD*%
%TO.C,C9*%
G36*
X107796958Y-93680710D02*
G01*
X107811276Y-93682834D01*
X107825317Y-93686351D01*
X107838946Y-93691228D01*
X107852031Y-93697417D01*
X107864447Y-93704858D01*
X107876073Y-93713481D01*
X107886798Y-93723202D01*
X107896519Y-93733927D01*
X107905142Y-93745553D01*
X107912583Y-93757969D01*
X107918772Y-93771054D01*
X107923649Y-93784683D01*
X107927166Y-93798724D01*
X107929290Y-93813042D01*
X107930000Y-93827500D01*
X107930000Y-94172500D01*
X107929290Y-94186958D01*
X107927166Y-94201276D01*
X107923649Y-94215317D01*
X107918772Y-94228946D01*
X107912583Y-94242031D01*
X107905142Y-94254447D01*
X107896519Y-94266073D01*
X107886798Y-94276798D01*
X107876073Y-94286519D01*
X107864447Y-94295142D01*
X107852031Y-94302583D01*
X107838946Y-94308772D01*
X107825317Y-94313649D01*
X107811276Y-94317166D01*
X107796958Y-94319290D01*
X107782500Y-94320000D01*
X107487500Y-94320000D01*
X107473042Y-94319290D01*
X107458724Y-94317166D01*
X107444683Y-94313649D01*
X107431054Y-94308772D01*
X107417969Y-94302583D01*
X107405553Y-94295142D01*
X107393927Y-94286519D01*
X107383202Y-94276798D01*
X107373481Y-94266073D01*
X107364858Y-94254447D01*
X107357417Y-94242031D01*
X107351228Y-94228946D01*
X107346351Y-94215317D01*
X107342834Y-94201276D01*
X107340710Y-94186958D01*
X107340000Y-94172500D01*
X107340000Y-93827500D01*
X107340710Y-93813042D01*
X107342834Y-93798724D01*
X107346351Y-93784683D01*
X107351228Y-93771054D01*
X107357417Y-93757969D01*
X107364858Y-93745553D01*
X107373481Y-93733927D01*
X107383202Y-93723202D01*
X107393927Y-93713481D01*
X107405553Y-93704858D01*
X107417969Y-93697417D01*
X107431054Y-93691228D01*
X107444683Y-93686351D01*
X107458724Y-93682834D01*
X107473042Y-93680710D01*
X107487500Y-93680000D01*
X107782500Y-93680000D01*
X107796958Y-93680710D01*
G37*
G36*
X106826958Y-93680710D02*
G01*
X106841276Y-93682834D01*
X106855317Y-93686351D01*
X106868946Y-93691228D01*
X106882031Y-93697417D01*
X106894447Y-93704858D01*
X106906073Y-93713481D01*
X106916798Y-93723202D01*
X106926519Y-93733927D01*
X106935142Y-93745553D01*
X106942583Y-93757969D01*
X106948772Y-93771054D01*
X106953649Y-93784683D01*
X106957166Y-93798724D01*
X106959290Y-93813042D01*
X106960000Y-93827500D01*
X106960000Y-94172500D01*
X106959290Y-94186958D01*
X106957166Y-94201276D01*
X106953649Y-94215317D01*
X106948772Y-94228946D01*
X106942583Y-94242031D01*
X106935142Y-94254447D01*
X106926519Y-94266073D01*
X106916798Y-94276798D01*
X106906073Y-94286519D01*
X106894447Y-94295142D01*
X106882031Y-94302583D01*
X106868946Y-94308772D01*
X106855317Y-94313649D01*
X106841276Y-94317166D01*
X106826958Y-94319290D01*
X106812500Y-94320000D01*
X106517500Y-94320000D01*
X106503042Y-94319290D01*
X106488724Y-94317166D01*
X106474683Y-94313649D01*
X106461054Y-94308772D01*
X106447969Y-94302583D01*
X106435553Y-94295142D01*
X106423927Y-94286519D01*
X106413202Y-94276798D01*
X106403481Y-94266073D01*
X106394858Y-94254447D01*
X106387417Y-94242031D01*
X106381228Y-94228946D01*
X106376351Y-94215317D01*
X106372834Y-94201276D01*
X106370710Y-94186958D01*
X106370000Y-94172500D01*
X106370000Y-93827500D01*
X106370710Y-93813042D01*
X106372834Y-93798724D01*
X106376351Y-93784683D01*
X106381228Y-93771054D01*
X106387417Y-93757969D01*
X106394858Y-93745553D01*
X106403481Y-93733927D01*
X106413202Y-93723202D01*
X106423927Y-93713481D01*
X106435553Y-93704858D01*
X106447969Y-93697417D01*
X106461054Y-93691228D01*
X106474683Y-93686351D01*
X106488724Y-93682834D01*
X106503042Y-93680710D01*
X106517500Y-93680000D01*
X106812500Y-93680000D01*
X106826958Y-93680710D01*
G37*
%TD*%
%TO.C,C8*%
G36*
X96076958Y-90530710D02*
G01*
X96091276Y-90532834D01*
X96105317Y-90536351D01*
X96118946Y-90541228D01*
X96132031Y-90547417D01*
X96144447Y-90554858D01*
X96156073Y-90563481D01*
X96166798Y-90573202D01*
X96176519Y-90583927D01*
X96185142Y-90595553D01*
X96192583Y-90607969D01*
X96198772Y-90621054D01*
X96203649Y-90634683D01*
X96207166Y-90648724D01*
X96209290Y-90663042D01*
X96210000Y-90677500D01*
X96210000Y-91022500D01*
X96209290Y-91036958D01*
X96207166Y-91051276D01*
X96203649Y-91065317D01*
X96198772Y-91078946D01*
X96192583Y-91092031D01*
X96185142Y-91104447D01*
X96176519Y-91116073D01*
X96166798Y-91126798D01*
X96156073Y-91136519D01*
X96144447Y-91145142D01*
X96132031Y-91152583D01*
X96118946Y-91158772D01*
X96105317Y-91163649D01*
X96091276Y-91167166D01*
X96076958Y-91169290D01*
X96062500Y-91170000D01*
X95767500Y-91170000D01*
X95753042Y-91169290D01*
X95738724Y-91167166D01*
X95724683Y-91163649D01*
X95711054Y-91158772D01*
X95697969Y-91152583D01*
X95685553Y-91145142D01*
X95673927Y-91136519D01*
X95663202Y-91126798D01*
X95653481Y-91116073D01*
X95644858Y-91104447D01*
X95637417Y-91092031D01*
X95631228Y-91078946D01*
X95626351Y-91065317D01*
X95622834Y-91051276D01*
X95620710Y-91036958D01*
X95620000Y-91022500D01*
X95620000Y-90677500D01*
X95620710Y-90663042D01*
X95622834Y-90648724D01*
X95626351Y-90634683D01*
X95631228Y-90621054D01*
X95637417Y-90607969D01*
X95644858Y-90595553D01*
X95653481Y-90583927D01*
X95663202Y-90573202D01*
X95673927Y-90563481D01*
X95685553Y-90554858D01*
X95697969Y-90547417D01*
X95711054Y-90541228D01*
X95724683Y-90536351D01*
X95738724Y-90532834D01*
X95753042Y-90530710D01*
X95767500Y-90530000D01*
X96062500Y-90530000D01*
X96076958Y-90530710D01*
G37*
G36*
X97046958Y-90530710D02*
G01*
X97061276Y-90532834D01*
X97075317Y-90536351D01*
X97088946Y-90541228D01*
X97102031Y-90547417D01*
X97114447Y-90554858D01*
X97126073Y-90563481D01*
X97136798Y-90573202D01*
X97146519Y-90583927D01*
X97155142Y-90595553D01*
X97162583Y-90607969D01*
X97168772Y-90621054D01*
X97173649Y-90634683D01*
X97177166Y-90648724D01*
X97179290Y-90663042D01*
X97180000Y-90677500D01*
X97180000Y-91022500D01*
X97179290Y-91036958D01*
X97177166Y-91051276D01*
X97173649Y-91065317D01*
X97168772Y-91078946D01*
X97162583Y-91092031D01*
X97155142Y-91104447D01*
X97146519Y-91116073D01*
X97136798Y-91126798D01*
X97126073Y-91136519D01*
X97114447Y-91145142D01*
X97102031Y-91152583D01*
X97088946Y-91158772D01*
X97075317Y-91163649D01*
X97061276Y-91167166D01*
X97046958Y-91169290D01*
X97032500Y-91170000D01*
X96737500Y-91170000D01*
X96723042Y-91169290D01*
X96708724Y-91167166D01*
X96694683Y-91163649D01*
X96681054Y-91158772D01*
X96667969Y-91152583D01*
X96655553Y-91145142D01*
X96643927Y-91136519D01*
X96633202Y-91126798D01*
X96623481Y-91116073D01*
X96614858Y-91104447D01*
X96607417Y-91092031D01*
X96601228Y-91078946D01*
X96596351Y-91065317D01*
X96592834Y-91051276D01*
X96590710Y-91036958D01*
X96590000Y-91022500D01*
X96590000Y-90677500D01*
X96590710Y-90663042D01*
X96592834Y-90648724D01*
X96596351Y-90634683D01*
X96601228Y-90621054D01*
X96607417Y-90607969D01*
X96614858Y-90595553D01*
X96623481Y-90583927D01*
X96633202Y-90573202D01*
X96643927Y-90563481D01*
X96655553Y-90554858D01*
X96667969Y-90547417D01*
X96681054Y-90541228D01*
X96694683Y-90536351D01*
X96708724Y-90532834D01*
X96723042Y-90530710D01*
X96737500Y-90530000D01*
X97032500Y-90530000D01*
X97046958Y-90530710D01*
G37*
%TD*%
%TO.C,C5*%
G36*
X103646958Y-100880710D02*
G01*
X103661276Y-100882834D01*
X103675317Y-100886351D01*
X103688946Y-100891228D01*
X103702031Y-100897417D01*
X103714447Y-100904858D01*
X103726073Y-100913481D01*
X103736798Y-100923202D01*
X103746519Y-100933927D01*
X103755142Y-100945553D01*
X103762583Y-100957969D01*
X103768772Y-100971054D01*
X103773649Y-100984683D01*
X103777166Y-100998724D01*
X103779290Y-101013042D01*
X103780000Y-101027500D01*
X103780000Y-101372500D01*
X103779290Y-101386958D01*
X103777166Y-101401276D01*
X103773649Y-101415317D01*
X103768772Y-101428946D01*
X103762583Y-101442031D01*
X103755142Y-101454447D01*
X103746519Y-101466073D01*
X103736798Y-101476798D01*
X103726073Y-101486519D01*
X103714447Y-101495142D01*
X103702031Y-101502583D01*
X103688946Y-101508772D01*
X103675317Y-101513649D01*
X103661276Y-101517166D01*
X103646958Y-101519290D01*
X103632500Y-101520000D01*
X103337500Y-101520000D01*
X103323042Y-101519290D01*
X103308724Y-101517166D01*
X103294683Y-101513649D01*
X103281054Y-101508772D01*
X103267969Y-101502583D01*
X103255553Y-101495142D01*
X103243927Y-101486519D01*
X103233202Y-101476798D01*
X103223481Y-101466073D01*
X103214858Y-101454447D01*
X103207417Y-101442031D01*
X103201228Y-101428946D01*
X103196351Y-101415317D01*
X103192834Y-101401276D01*
X103190710Y-101386958D01*
X103190000Y-101372500D01*
X103190000Y-101027500D01*
X103190710Y-101013042D01*
X103192834Y-100998724D01*
X103196351Y-100984683D01*
X103201228Y-100971054D01*
X103207417Y-100957969D01*
X103214858Y-100945553D01*
X103223481Y-100933927D01*
X103233202Y-100923202D01*
X103243927Y-100913481D01*
X103255553Y-100904858D01*
X103267969Y-100897417D01*
X103281054Y-100891228D01*
X103294683Y-100886351D01*
X103308724Y-100882834D01*
X103323042Y-100880710D01*
X103337500Y-100880000D01*
X103632500Y-100880000D01*
X103646958Y-100880710D01*
G37*
G36*
X102676958Y-100880710D02*
G01*
X102691276Y-100882834D01*
X102705317Y-100886351D01*
X102718946Y-100891228D01*
X102732031Y-100897417D01*
X102744447Y-100904858D01*
X102756073Y-100913481D01*
X102766798Y-100923202D01*
X102776519Y-100933927D01*
X102785142Y-100945553D01*
X102792583Y-100957969D01*
X102798772Y-100971054D01*
X102803649Y-100984683D01*
X102807166Y-100998724D01*
X102809290Y-101013042D01*
X102810000Y-101027500D01*
X102810000Y-101372500D01*
X102809290Y-101386958D01*
X102807166Y-101401276D01*
X102803649Y-101415317D01*
X102798772Y-101428946D01*
X102792583Y-101442031D01*
X102785142Y-101454447D01*
X102776519Y-101466073D01*
X102766798Y-101476798D01*
X102756073Y-101486519D01*
X102744447Y-101495142D01*
X102732031Y-101502583D01*
X102718946Y-101508772D01*
X102705317Y-101513649D01*
X102691276Y-101517166D01*
X102676958Y-101519290D01*
X102662500Y-101520000D01*
X102367500Y-101520000D01*
X102353042Y-101519290D01*
X102338724Y-101517166D01*
X102324683Y-101513649D01*
X102311054Y-101508772D01*
X102297969Y-101502583D01*
X102285553Y-101495142D01*
X102273927Y-101486519D01*
X102263202Y-101476798D01*
X102253481Y-101466073D01*
X102244858Y-101454447D01*
X102237417Y-101442031D01*
X102231228Y-101428946D01*
X102226351Y-101415317D01*
X102222834Y-101401276D01*
X102220710Y-101386958D01*
X102220000Y-101372500D01*
X102220000Y-101027500D01*
X102220710Y-101013042D01*
X102222834Y-100998724D01*
X102226351Y-100984683D01*
X102231228Y-100971054D01*
X102237417Y-100957969D01*
X102244858Y-100945553D01*
X102253481Y-100933927D01*
X102263202Y-100923202D01*
X102273927Y-100913481D01*
X102285553Y-100904858D01*
X102297969Y-100897417D01*
X102311054Y-100891228D01*
X102324683Y-100886351D01*
X102338724Y-100882834D01*
X102353042Y-100880710D01*
X102367500Y-100880000D01*
X102662500Y-100880000D01*
X102676958Y-100880710D01*
G37*
%TD*%
%TO.C,C4*%
G36*
X91896958Y-92980710D02*
G01*
X91911276Y-92982834D01*
X91925317Y-92986351D01*
X91938946Y-92991228D01*
X91952031Y-92997417D01*
X91964447Y-93004858D01*
X91976073Y-93013481D01*
X91986798Y-93023202D01*
X91996519Y-93033927D01*
X92005142Y-93045553D01*
X92012583Y-93057969D01*
X92018772Y-93071054D01*
X92023649Y-93084683D01*
X92027166Y-93098724D01*
X92029290Y-93113042D01*
X92030000Y-93127500D01*
X92030000Y-93472500D01*
X92029290Y-93486958D01*
X92027166Y-93501276D01*
X92023649Y-93515317D01*
X92018772Y-93528946D01*
X92012583Y-93542031D01*
X92005142Y-93554447D01*
X91996519Y-93566073D01*
X91986798Y-93576798D01*
X91976073Y-93586519D01*
X91964447Y-93595142D01*
X91952031Y-93602583D01*
X91938946Y-93608772D01*
X91925317Y-93613649D01*
X91911276Y-93617166D01*
X91896958Y-93619290D01*
X91882500Y-93620000D01*
X91587500Y-93620000D01*
X91573042Y-93619290D01*
X91558724Y-93617166D01*
X91544683Y-93613649D01*
X91531054Y-93608772D01*
X91517969Y-93602583D01*
X91505553Y-93595142D01*
X91493927Y-93586519D01*
X91483202Y-93576798D01*
X91473481Y-93566073D01*
X91464858Y-93554447D01*
X91457417Y-93542031D01*
X91451228Y-93528946D01*
X91446351Y-93515317D01*
X91442834Y-93501276D01*
X91440710Y-93486958D01*
X91440000Y-93472500D01*
X91440000Y-93127500D01*
X91440710Y-93113042D01*
X91442834Y-93098724D01*
X91446351Y-93084683D01*
X91451228Y-93071054D01*
X91457417Y-93057969D01*
X91464858Y-93045553D01*
X91473481Y-93033927D01*
X91483202Y-93023202D01*
X91493927Y-93013481D01*
X91505553Y-93004858D01*
X91517969Y-92997417D01*
X91531054Y-92991228D01*
X91544683Y-92986351D01*
X91558724Y-92982834D01*
X91573042Y-92980710D01*
X91587500Y-92980000D01*
X91882500Y-92980000D01*
X91896958Y-92980710D01*
G37*
G36*
X90926958Y-92980710D02*
G01*
X90941276Y-92982834D01*
X90955317Y-92986351D01*
X90968946Y-92991228D01*
X90982031Y-92997417D01*
X90994447Y-93004858D01*
X91006073Y-93013481D01*
X91016798Y-93023202D01*
X91026519Y-93033927D01*
X91035142Y-93045553D01*
X91042583Y-93057969D01*
X91048772Y-93071054D01*
X91053649Y-93084683D01*
X91057166Y-93098724D01*
X91059290Y-93113042D01*
X91060000Y-93127500D01*
X91060000Y-93472500D01*
X91059290Y-93486958D01*
X91057166Y-93501276D01*
X91053649Y-93515317D01*
X91048772Y-93528946D01*
X91042583Y-93542031D01*
X91035142Y-93554447D01*
X91026519Y-93566073D01*
X91016798Y-93576798D01*
X91006073Y-93586519D01*
X90994447Y-93595142D01*
X90982031Y-93602583D01*
X90968946Y-93608772D01*
X90955317Y-93613649D01*
X90941276Y-93617166D01*
X90926958Y-93619290D01*
X90912500Y-93620000D01*
X90617500Y-93620000D01*
X90603042Y-93619290D01*
X90588724Y-93617166D01*
X90574683Y-93613649D01*
X90561054Y-93608772D01*
X90547969Y-93602583D01*
X90535553Y-93595142D01*
X90523927Y-93586519D01*
X90513202Y-93576798D01*
X90503481Y-93566073D01*
X90494858Y-93554447D01*
X90487417Y-93542031D01*
X90481228Y-93528946D01*
X90476351Y-93515317D01*
X90472834Y-93501276D01*
X90470710Y-93486958D01*
X90470000Y-93472500D01*
X90470000Y-93127500D01*
X90470710Y-93113042D01*
X90472834Y-93098724D01*
X90476351Y-93084683D01*
X90481228Y-93071054D01*
X90487417Y-93057969D01*
X90494858Y-93045553D01*
X90503481Y-93033927D01*
X90513202Y-93023202D01*
X90523927Y-93013481D01*
X90535553Y-93004858D01*
X90547969Y-92997417D01*
X90561054Y-92991228D01*
X90574683Y-92986351D01*
X90588724Y-92982834D01*
X90603042Y-92980710D01*
X90617500Y-92980000D01*
X90912500Y-92980000D01*
X90926958Y-92980710D01*
G37*
%TD*%
%TO.C,C3*%
G36*
X91896958Y-99080710D02*
G01*
X91911276Y-99082834D01*
X91925317Y-99086351D01*
X91938946Y-99091228D01*
X91952031Y-99097417D01*
X91964447Y-99104858D01*
X91976073Y-99113481D01*
X91986798Y-99123202D01*
X91996519Y-99133927D01*
X92005142Y-99145553D01*
X92012583Y-99157969D01*
X92018772Y-99171054D01*
X92023649Y-99184683D01*
X92027166Y-99198724D01*
X92029290Y-99213042D01*
X92030000Y-99227500D01*
X92030000Y-99572500D01*
X92029290Y-99586958D01*
X92027166Y-99601276D01*
X92023649Y-99615317D01*
X92018772Y-99628946D01*
X92012583Y-99642031D01*
X92005142Y-99654447D01*
X91996519Y-99666073D01*
X91986798Y-99676798D01*
X91976073Y-99686519D01*
X91964447Y-99695142D01*
X91952031Y-99702583D01*
X91938946Y-99708772D01*
X91925317Y-99713649D01*
X91911276Y-99717166D01*
X91896958Y-99719290D01*
X91882500Y-99720000D01*
X91587500Y-99720000D01*
X91573042Y-99719290D01*
X91558724Y-99717166D01*
X91544683Y-99713649D01*
X91531054Y-99708772D01*
X91517969Y-99702583D01*
X91505553Y-99695142D01*
X91493927Y-99686519D01*
X91483202Y-99676798D01*
X91473481Y-99666073D01*
X91464858Y-99654447D01*
X91457417Y-99642031D01*
X91451228Y-99628946D01*
X91446351Y-99615317D01*
X91442834Y-99601276D01*
X91440710Y-99586958D01*
X91440000Y-99572500D01*
X91440000Y-99227500D01*
X91440710Y-99213042D01*
X91442834Y-99198724D01*
X91446351Y-99184683D01*
X91451228Y-99171054D01*
X91457417Y-99157969D01*
X91464858Y-99145553D01*
X91473481Y-99133927D01*
X91483202Y-99123202D01*
X91493927Y-99113481D01*
X91505553Y-99104858D01*
X91517969Y-99097417D01*
X91531054Y-99091228D01*
X91544683Y-99086351D01*
X91558724Y-99082834D01*
X91573042Y-99080710D01*
X91587500Y-99080000D01*
X91882500Y-99080000D01*
X91896958Y-99080710D01*
G37*
G36*
X90926958Y-99080710D02*
G01*
X90941276Y-99082834D01*
X90955317Y-99086351D01*
X90968946Y-99091228D01*
X90982031Y-99097417D01*
X90994447Y-99104858D01*
X91006073Y-99113481D01*
X91016798Y-99123202D01*
X91026519Y-99133927D01*
X91035142Y-99145553D01*
X91042583Y-99157969D01*
X91048772Y-99171054D01*
X91053649Y-99184683D01*
X91057166Y-99198724D01*
X91059290Y-99213042D01*
X91060000Y-99227500D01*
X91060000Y-99572500D01*
X91059290Y-99586958D01*
X91057166Y-99601276D01*
X91053649Y-99615317D01*
X91048772Y-99628946D01*
X91042583Y-99642031D01*
X91035142Y-99654447D01*
X91026519Y-99666073D01*
X91016798Y-99676798D01*
X91006073Y-99686519D01*
X90994447Y-99695142D01*
X90982031Y-99702583D01*
X90968946Y-99708772D01*
X90955317Y-99713649D01*
X90941276Y-99717166D01*
X90926958Y-99719290D01*
X90912500Y-99720000D01*
X90617500Y-99720000D01*
X90603042Y-99719290D01*
X90588724Y-99717166D01*
X90574683Y-99713649D01*
X90561054Y-99708772D01*
X90547969Y-99702583D01*
X90535553Y-99695142D01*
X90523927Y-99686519D01*
X90513202Y-99676798D01*
X90503481Y-99666073D01*
X90494858Y-99654447D01*
X90487417Y-99642031D01*
X90481228Y-99628946D01*
X90476351Y-99615317D01*
X90472834Y-99601276D01*
X90470710Y-99586958D01*
X90470000Y-99572500D01*
X90470000Y-99227500D01*
X90470710Y-99213042D01*
X90472834Y-99198724D01*
X90476351Y-99184683D01*
X90481228Y-99171054D01*
X90487417Y-99157969D01*
X90494858Y-99145553D01*
X90503481Y-99133927D01*
X90513202Y-99123202D01*
X90523927Y-99113481D01*
X90535553Y-99104858D01*
X90547969Y-99097417D01*
X90561054Y-99091228D01*
X90574683Y-99086351D01*
X90588724Y-99082834D01*
X90603042Y-99080710D01*
X90617500Y-99080000D01*
X90912500Y-99080000D01*
X90926958Y-99080710D01*
G37*
%TD*%
%TO.C,C2*%
G36*
X94186958Y-92540710D02*
G01*
X94201276Y-92542834D01*
X94215317Y-92546351D01*
X94228946Y-92551228D01*
X94242031Y-92557417D01*
X94254447Y-92564858D01*
X94266073Y-92573481D01*
X94276798Y-92583202D01*
X94286519Y-92593927D01*
X94295142Y-92605553D01*
X94302583Y-92617969D01*
X94308772Y-92631054D01*
X94313649Y-92644683D01*
X94317166Y-92658724D01*
X94319290Y-92673042D01*
X94320000Y-92687500D01*
X94320000Y-92982500D01*
X94319290Y-92996958D01*
X94317166Y-93011276D01*
X94313649Y-93025317D01*
X94308772Y-93038946D01*
X94302583Y-93052031D01*
X94295142Y-93064447D01*
X94286519Y-93076073D01*
X94276798Y-93086798D01*
X94266073Y-93096519D01*
X94254447Y-93105142D01*
X94242031Y-93112583D01*
X94228946Y-93118772D01*
X94215317Y-93123649D01*
X94201276Y-93127166D01*
X94186958Y-93129290D01*
X94172500Y-93130000D01*
X93827500Y-93130000D01*
X93813042Y-93129290D01*
X93798724Y-93127166D01*
X93784683Y-93123649D01*
X93771054Y-93118772D01*
X93757969Y-93112583D01*
X93745553Y-93105142D01*
X93733927Y-93096519D01*
X93723202Y-93086798D01*
X93713481Y-93076073D01*
X93704858Y-93064447D01*
X93697417Y-93052031D01*
X93691228Y-93038946D01*
X93686351Y-93025317D01*
X93682834Y-93011276D01*
X93680710Y-92996958D01*
X93680000Y-92982500D01*
X93680000Y-92687500D01*
X93680710Y-92673042D01*
X93682834Y-92658724D01*
X93686351Y-92644683D01*
X93691228Y-92631054D01*
X93697417Y-92617969D01*
X93704858Y-92605553D01*
X93713481Y-92593927D01*
X93723202Y-92583202D01*
X93733927Y-92573481D01*
X93745553Y-92564858D01*
X93757969Y-92557417D01*
X93771054Y-92551228D01*
X93784683Y-92546351D01*
X93798724Y-92542834D01*
X93813042Y-92540710D01*
X93827500Y-92540000D01*
X94172500Y-92540000D01*
X94186958Y-92540710D01*
G37*
G36*
X94186958Y-91570710D02*
G01*
X94201276Y-91572834D01*
X94215317Y-91576351D01*
X94228946Y-91581228D01*
X94242031Y-91587417D01*
X94254447Y-91594858D01*
X94266073Y-91603481D01*
X94276798Y-91613202D01*
X94286519Y-91623927D01*
X94295142Y-91635553D01*
X94302583Y-91647969D01*
X94308772Y-91661054D01*
X94313649Y-91674683D01*
X94317166Y-91688724D01*
X94319290Y-91703042D01*
X94320000Y-91717500D01*
X94320000Y-92012500D01*
X94319290Y-92026958D01*
X94317166Y-92041276D01*
X94313649Y-92055317D01*
X94308772Y-92068946D01*
X94302583Y-92082031D01*
X94295142Y-92094447D01*
X94286519Y-92106073D01*
X94276798Y-92116798D01*
X94266073Y-92126519D01*
X94254447Y-92135142D01*
X94242031Y-92142583D01*
X94228946Y-92148772D01*
X94215317Y-92153649D01*
X94201276Y-92157166D01*
X94186958Y-92159290D01*
X94172500Y-92160000D01*
X93827500Y-92160000D01*
X93813042Y-92159290D01*
X93798724Y-92157166D01*
X93784683Y-92153649D01*
X93771054Y-92148772D01*
X93757969Y-92142583D01*
X93745553Y-92135142D01*
X93733927Y-92126519D01*
X93723202Y-92116798D01*
X93713481Y-92106073D01*
X93704858Y-92094447D01*
X93697417Y-92082031D01*
X93691228Y-92068946D01*
X93686351Y-92055317D01*
X93682834Y-92041276D01*
X93680710Y-92026958D01*
X93680000Y-92012500D01*
X93680000Y-91717500D01*
X93680710Y-91703042D01*
X93682834Y-91688724D01*
X93686351Y-91674683D01*
X93691228Y-91661054D01*
X93697417Y-91647969D01*
X93704858Y-91635553D01*
X93713481Y-91623927D01*
X93723202Y-91613202D01*
X93733927Y-91603481D01*
X93745553Y-91594858D01*
X93757969Y-91587417D01*
X93771054Y-91581228D01*
X93784683Y-91576351D01*
X93798724Y-91572834D01*
X93813042Y-91570710D01*
X93827500Y-91570000D01*
X94172500Y-91570000D01*
X94186958Y-91570710D01*
G37*
%TD*%
%TO.C,C1*%
G36*
X91896958Y-97980710D02*
G01*
X91911276Y-97982834D01*
X91925317Y-97986351D01*
X91938946Y-97991228D01*
X91952031Y-97997417D01*
X91964447Y-98004858D01*
X91976073Y-98013481D01*
X91986798Y-98023202D01*
X91996519Y-98033927D01*
X92005142Y-98045553D01*
X92012583Y-98057969D01*
X92018772Y-98071054D01*
X92023649Y-98084683D01*
X92027166Y-98098724D01*
X92029290Y-98113042D01*
X92030000Y-98127500D01*
X92030000Y-98472500D01*
X92029290Y-98486958D01*
X92027166Y-98501276D01*
X92023649Y-98515317D01*
X92018772Y-98528946D01*
X92012583Y-98542031D01*
X92005142Y-98554447D01*
X91996519Y-98566073D01*
X91986798Y-98576798D01*
X91976073Y-98586519D01*
X91964447Y-98595142D01*
X91952031Y-98602583D01*
X91938946Y-98608772D01*
X91925317Y-98613649D01*
X91911276Y-98617166D01*
X91896958Y-98619290D01*
X91882500Y-98620000D01*
X91587500Y-98620000D01*
X91573042Y-98619290D01*
X91558724Y-98617166D01*
X91544683Y-98613649D01*
X91531054Y-98608772D01*
X91517969Y-98602583D01*
X91505553Y-98595142D01*
X91493927Y-98586519D01*
X91483202Y-98576798D01*
X91473481Y-98566073D01*
X91464858Y-98554447D01*
X91457417Y-98542031D01*
X91451228Y-98528946D01*
X91446351Y-98515317D01*
X91442834Y-98501276D01*
X91440710Y-98486958D01*
X91440000Y-98472500D01*
X91440000Y-98127500D01*
X91440710Y-98113042D01*
X91442834Y-98098724D01*
X91446351Y-98084683D01*
X91451228Y-98071054D01*
X91457417Y-98057969D01*
X91464858Y-98045553D01*
X91473481Y-98033927D01*
X91483202Y-98023202D01*
X91493927Y-98013481D01*
X91505553Y-98004858D01*
X91517969Y-97997417D01*
X91531054Y-97991228D01*
X91544683Y-97986351D01*
X91558724Y-97982834D01*
X91573042Y-97980710D01*
X91587500Y-97980000D01*
X91882500Y-97980000D01*
X91896958Y-97980710D01*
G37*
G36*
X90926958Y-97980710D02*
G01*
X90941276Y-97982834D01*
X90955317Y-97986351D01*
X90968946Y-97991228D01*
X90982031Y-97997417D01*
X90994447Y-98004858D01*
X91006073Y-98013481D01*
X91016798Y-98023202D01*
X91026519Y-98033927D01*
X91035142Y-98045553D01*
X91042583Y-98057969D01*
X91048772Y-98071054D01*
X91053649Y-98084683D01*
X91057166Y-98098724D01*
X91059290Y-98113042D01*
X91060000Y-98127500D01*
X91060000Y-98472500D01*
X91059290Y-98486958D01*
X91057166Y-98501276D01*
X91053649Y-98515317D01*
X91048772Y-98528946D01*
X91042583Y-98542031D01*
X91035142Y-98554447D01*
X91026519Y-98566073D01*
X91016798Y-98576798D01*
X91006073Y-98586519D01*
X90994447Y-98595142D01*
X90982031Y-98602583D01*
X90968946Y-98608772D01*
X90955317Y-98613649D01*
X90941276Y-98617166D01*
X90926958Y-98619290D01*
X90912500Y-98620000D01*
X90617500Y-98620000D01*
X90603042Y-98619290D01*
X90588724Y-98617166D01*
X90574683Y-98613649D01*
X90561054Y-98608772D01*
X90547969Y-98602583D01*
X90535553Y-98595142D01*
X90523927Y-98586519D01*
X90513202Y-98576798D01*
X90503481Y-98566073D01*
X90494858Y-98554447D01*
X90487417Y-98542031D01*
X90481228Y-98528946D01*
X90476351Y-98515317D01*
X90472834Y-98501276D01*
X90470710Y-98486958D01*
X90470000Y-98472500D01*
X90470000Y-98127500D01*
X90470710Y-98113042D01*
X90472834Y-98098724D01*
X90476351Y-98084683D01*
X90481228Y-98071054D01*
X90487417Y-98057969D01*
X90494858Y-98045553D01*
X90503481Y-98033927D01*
X90513202Y-98023202D01*
X90523927Y-98013481D01*
X90535553Y-98004858D01*
X90547969Y-97997417D01*
X90561054Y-97991228D01*
X90574683Y-97986351D01*
X90588724Y-97982834D01*
X90603042Y-97980710D01*
X90617500Y-97980000D01*
X90912500Y-97980000D01*
X90926958Y-97980710D01*
G37*
%TD*%
D11*
%TO.C,U4*%
X95275980Y-103609620D03*
X95926220Y-103609620D03*
X96576460Y-103609620D03*
X97226700Y-103609620D03*
X97876940Y-103609620D03*
X98527180Y-103609620D03*
X99177420Y-103609620D03*
X99822580Y-103609620D03*
X100472820Y-103609620D03*
X101123060Y-103609620D03*
X101773300Y-103609620D03*
X102423540Y-103609620D03*
X103073780Y-103609620D03*
X103724020Y-103609620D03*
X103724020Y-109690380D03*
X103073780Y-109690380D03*
X102423540Y-109690380D03*
X101773300Y-109690380D03*
X101123060Y-109690380D03*
X100472820Y-109690380D03*
X99822580Y-109690380D03*
X99177420Y-109690380D03*
X98527180Y-109690380D03*
X97876940Y-109690380D03*
X97226700Y-109690380D03*
X96576460Y-109690380D03*
X95926220Y-109690380D03*
X95275980Y-109690380D03*
D12*
X99500000Y-106650000D03*
%TD*%
D10*
%TO.C,U1*%
G36*
X95962351Y-91810361D02*
G01*
X95969632Y-91811441D01*
X95976771Y-91813229D01*
X95983701Y-91815709D01*
X95990355Y-91818856D01*
X95996668Y-91822640D01*
X96002579Y-91827024D01*
X96008033Y-91831967D01*
X96012976Y-91837421D01*
X96017360Y-91843332D01*
X96021144Y-91849645D01*
X96024291Y-91856299D01*
X96026771Y-91863229D01*
X96028559Y-91870368D01*
X96029639Y-91877649D01*
X96030000Y-91885000D01*
X96030000Y-93210000D01*
X96029639Y-93217351D01*
X96028559Y-93224632D01*
X96026771Y-93231771D01*
X96024291Y-93238701D01*
X96021144Y-93245355D01*
X96017360Y-93251668D01*
X96012976Y-93257579D01*
X96008033Y-93263033D01*
X96002579Y-93267976D01*
X95996668Y-93272360D01*
X95990355Y-93276144D01*
X95983701Y-93279291D01*
X95976771Y-93281771D01*
X95969632Y-93283559D01*
X95962351Y-93284639D01*
X95955000Y-93285000D01*
X95805000Y-93285000D01*
X95797649Y-93284639D01*
X95790368Y-93283559D01*
X95783229Y-93281771D01*
X95776299Y-93279291D01*
X95769645Y-93276144D01*
X95763332Y-93272360D01*
X95757421Y-93267976D01*
X95751967Y-93263033D01*
X95747024Y-93257579D01*
X95742640Y-93251668D01*
X95738856Y-93245355D01*
X95735709Y-93238701D01*
X95733229Y-93231771D01*
X95731441Y-93224632D01*
X95730361Y-93217351D01*
X95730000Y-93210000D01*
X95730000Y-91885000D01*
X95730361Y-91877649D01*
X95731441Y-91870368D01*
X95733229Y-91863229D01*
X95735709Y-91856299D01*
X95738856Y-91849645D01*
X95742640Y-91843332D01*
X95747024Y-91837421D01*
X95751967Y-91831967D01*
X95757421Y-91827024D01*
X95763332Y-91822640D01*
X95769645Y-91818856D01*
X95776299Y-91815709D01*
X95783229Y-91813229D01*
X95790368Y-91811441D01*
X95797649Y-91810361D01*
X95805000Y-91810000D01*
X95955000Y-91810000D01*
X95962351Y-91810361D01*
G37*
G36*
X96462351Y-91810361D02*
G01*
X96469632Y-91811441D01*
X96476771Y-91813229D01*
X96483701Y-91815709D01*
X96490355Y-91818856D01*
X96496668Y-91822640D01*
X96502579Y-91827024D01*
X96508033Y-91831967D01*
X96512976Y-91837421D01*
X96517360Y-91843332D01*
X96521144Y-91849645D01*
X96524291Y-91856299D01*
X96526771Y-91863229D01*
X96528559Y-91870368D01*
X96529639Y-91877649D01*
X96530000Y-91885000D01*
X96530000Y-93210000D01*
X96529639Y-93217351D01*
X96528559Y-93224632D01*
X96526771Y-93231771D01*
X96524291Y-93238701D01*
X96521144Y-93245355D01*
X96517360Y-93251668D01*
X96512976Y-93257579D01*
X96508033Y-93263033D01*
X96502579Y-93267976D01*
X96496668Y-93272360D01*
X96490355Y-93276144D01*
X96483701Y-93279291D01*
X96476771Y-93281771D01*
X96469632Y-93283559D01*
X96462351Y-93284639D01*
X96455000Y-93285000D01*
X96305000Y-93285000D01*
X96297649Y-93284639D01*
X96290368Y-93283559D01*
X96283229Y-93281771D01*
X96276299Y-93279291D01*
X96269645Y-93276144D01*
X96263332Y-93272360D01*
X96257421Y-93267976D01*
X96251967Y-93263033D01*
X96247024Y-93257579D01*
X96242640Y-93251668D01*
X96238856Y-93245355D01*
X96235709Y-93238701D01*
X96233229Y-93231771D01*
X96231441Y-93224632D01*
X96230361Y-93217351D01*
X96230000Y-93210000D01*
X96230000Y-91885000D01*
X96230361Y-91877649D01*
X96231441Y-91870368D01*
X96233229Y-91863229D01*
X96235709Y-91856299D01*
X96238856Y-91849645D01*
X96242640Y-91843332D01*
X96247024Y-91837421D01*
X96251967Y-91831967D01*
X96257421Y-91827024D01*
X96263332Y-91822640D01*
X96269645Y-91818856D01*
X96276299Y-91815709D01*
X96283229Y-91813229D01*
X96290368Y-91811441D01*
X96297649Y-91810361D01*
X96305000Y-91810000D01*
X96455000Y-91810000D01*
X96462351Y-91810361D01*
G37*
G36*
X96962351Y-91810361D02*
G01*
X96969632Y-91811441D01*
X96976771Y-91813229D01*
X96983701Y-91815709D01*
X96990355Y-91818856D01*
X96996668Y-91822640D01*
X97002579Y-91827024D01*
X97008033Y-91831967D01*
X97012976Y-91837421D01*
X97017360Y-91843332D01*
X97021144Y-91849645D01*
X97024291Y-91856299D01*
X97026771Y-91863229D01*
X97028559Y-91870368D01*
X97029639Y-91877649D01*
X97030000Y-91885000D01*
X97030000Y-93210000D01*
X97029639Y-93217351D01*
X97028559Y-93224632D01*
X97026771Y-93231771D01*
X97024291Y-93238701D01*
X97021144Y-93245355D01*
X97017360Y-93251668D01*
X97012976Y-93257579D01*
X97008033Y-93263033D01*
X97002579Y-93267976D01*
X96996668Y-93272360D01*
X96990355Y-93276144D01*
X96983701Y-93279291D01*
X96976771Y-93281771D01*
X96969632Y-93283559D01*
X96962351Y-93284639D01*
X96955000Y-93285000D01*
X96805000Y-93285000D01*
X96797649Y-93284639D01*
X96790368Y-93283559D01*
X96783229Y-93281771D01*
X96776299Y-93279291D01*
X96769645Y-93276144D01*
X96763332Y-93272360D01*
X96757421Y-93267976D01*
X96751967Y-93263033D01*
X96747024Y-93257579D01*
X96742640Y-93251668D01*
X96738856Y-93245355D01*
X96735709Y-93238701D01*
X96733229Y-93231771D01*
X96731441Y-93224632D01*
X96730361Y-93217351D01*
X96730000Y-93210000D01*
X96730000Y-91885000D01*
X96730361Y-91877649D01*
X96731441Y-91870368D01*
X96733229Y-91863229D01*
X96735709Y-91856299D01*
X96738856Y-91849645D01*
X96742640Y-91843332D01*
X96747024Y-91837421D01*
X96751967Y-91831967D01*
X96757421Y-91827024D01*
X96763332Y-91822640D01*
X96769645Y-91818856D01*
X96776299Y-91815709D01*
X96783229Y-91813229D01*
X96790368Y-91811441D01*
X96797649Y-91810361D01*
X96805000Y-91810000D01*
X96955000Y-91810000D01*
X96962351Y-91810361D01*
G37*
G36*
X97462351Y-91810361D02*
G01*
X97469632Y-91811441D01*
X97476771Y-91813229D01*
X97483701Y-91815709D01*
X97490355Y-91818856D01*
X97496668Y-91822640D01*
X97502579Y-91827024D01*
X97508033Y-91831967D01*
X97512976Y-91837421D01*
X97517360Y-91843332D01*
X97521144Y-91849645D01*
X97524291Y-91856299D01*
X97526771Y-91863229D01*
X97528559Y-91870368D01*
X97529639Y-91877649D01*
X97530000Y-91885000D01*
X97530000Y-93210000D01*
X97529639Y-93217351D01*
X97528559Y-93224632D01*
X97526771Y-93231771D01*
X97524291Y-93238701D01*
X97521144Y-93245355D01*
X97517360Y-93251668D01*
X97512976Y-93257579D01*
X97508033Y-93263033D01*
X97502579Y-93267976D01*
X97496668Y-93272360D01*
X97490355Y-93276144D01*
X97483701Y-93279291D01*
X97476771Y-93281771D01*
X97469632Y-93283559D01*
X97462351Y-93284639D01*
X97455000Y-93285000D01*
X97305000Y-93285000D01*
X97297649Y-93284639D01*
X97290368Y-93283559D01*
X97283229Y-93281771D01*
X97276299Y-93279291D01*
X97269645Y-93276144D01*
X97263332Y-93272360D01*
X97257421Y-93267976D01*
X97251967Y-93263033D01*
X97247024Y-93257579D01*
X97242640Y-93251668D01*
X97238856Y-93245355D01*
X97235709Y-93238701D01*
X97233229Y-93231771D01*
X97231441Y-93224632D01*
X97230361Y-93217351D01*
X97230000Y-93210000D01*
X97230000Y-91885000D01*
X97230361Y-91877649D01*
X97231441Y-91870368D01*
X97233229Y-91863229D01*
X97235709Y-91856299D01*
X97238856Y-91849645D01*
X97242640Y-91843332D01*
X97247024Y-91837421D01*
X97251967Y-91831967D01*
X97257421Y-91827024D01*
X97263332Y-91822640D01*
X97269645Y-91818856D01*
X97276299Y-91815709D01*
X97283229Y-91813229D01*
X97290368Y-91811441D01*
X97297649Y-91810361D01*
X97305000Y-91810000D01*
X97455000Y-91810000D01*
X97462351Y-91810361D01*
G37*
G36*
X97962351Y-91810361D02*
G01*
X97969632Y-91811441D01*
X97976771Y-91813229D01*
X97983701Y-91815709D01*
X97990355Y-91818856D01*
X97996668Y-91822640D01*
X98002579Y-91827024D01*
X98008033Y-91831967D01*
X98012976Y-91837421D01*
X98017360Y-91843332D01*
X98021144Y-91849645D01*
X98024291Y-91856299D01*
X98026771Y-91863229D01*
X98028559Y-91870368D01*
X98029639Y-91877649D01*
X98030000Y-91885000D01*
X98030000Y-93210000D01*
X98029639Y-93217351D01*
X98028559Y-93224632D01*
X98026771Y-93231771D01*
X98024291Y-93238701D01*
X98021144Y-93245355D01*
X98017360Y-93251668D01*
X98012976Y-93257579D01*
X98008033Y-93263033D01*
X98002579Y-93267976D01*
X97996668Y-93272360D01*
X97990355Y-93276144D01*
X97983701Y-93279291D01*
X97976771Y-93281771D01*
X97969632Y-93283559D01*
X97962351Y-93284639D01*
X97955000Y-93285000D01*
X97805000Y-93285000D01*
X97797649Y-93284639D01*
X97790368Y-93283559D01*
X97783229Y-93281771D01*
X97776299Y-93279291D01*
X97769645Y-93276144D01*
X97763332Y-93272360D01*
X97757421Y-93267976D01*
X97751967Y-93263033D01*
X97747024Y-93257579D01*
X97742640Y-93251668D01*
X97738856Y-93245355D01*
X97735709Y-93238701D01*
X97733229Y-93231771D01*
X97731441Y-93224632D01*
X97730361Y-93217351D01*
X97730000Y-93210000D01*
X97730000Y-91885000D01*
X97730361Y-91877649D01*
X97731441Y-91870368D01*
X97733229Y-91863229D01*
X97735709Y-91856299D01*
X97738856Y-91849645D01*
X97742640Y-91843332D01*
X97747024Y-91837421D01*
X97751967Y-91831967D01*
X97757421Y-91827024D01*
X97763332Y-91822640D01*
X97769645Y-91818856D01*
X97776299Y-91815709D01*
X97783229Y-91813229D01*
X97790368Y-91811441D01*
X97797649Y-91810361D01*
X97805000Y-91810000D01*
X97955000Y-91810000D01*
X97962351Y-91810361D01*
G37*
G36*
X98462351Y-91810361D02*
G01*
X98469632Y-91811441D01*
X98476771Y-91813229D01*
X98483701Y-91815709D01*
X98490355Y-91818856D01*
X98496668Y-91822640D01*
X98502579Y-91827024D01*
X98508033Y-91831967D01*
X98512976Y-91837421D01*
X98517360Y-91843332D01*
X98521144Y-91849645D01*
X98524291Y-91856299D01*
X98526771Y-91863229D01*
X98528559Y-91870368D01*
X98529639Y-91877649D01*
X98530000Y-91885000D01*
X98530000Y-93210000D01*
X98529639Y-93217351D01*
X98528559Y-93224632D01*
X98526771Y-93231771D01*
X98524291Y-93238701D01*
X98521144Y-93245355D01*
X98517360Y-93251668D01*
X98512976Y-93257579D01*
X98508033Y-93263033D01*
X98502579Y-93267976D01*
X98496668Y-93272360D01*
X98490355Y-93276144D01*
X98483701Y-93279291D01*
X98476771Y-93281771D01*
X98469632Y-93283559D01*
X98462351Y-93284639D01*
X98455000Y-93285000D01*
X98305000Y-93285000D01*
X98297649Y-93284639D01*
X98290368Y-93283559D01*
X98283229Y-93281771D01*
X98276299Y-93279291D01*
X98269645Y-93276144D01*
X98263332Y-93272360D01*
X98257421Y-93267976D01*
X98251967Y-93263033D01*
X98247024Y-93257579D01*
X98242640Y-93251668D01*
X98238856Y-93245355D01*
X98235709Y-93238701D01*
X98233229Y-93231771D01*
X98231441Y-93224632D01*
X98230361Y-93217351D01*
X98230000Y-93210000D01*
X98230000Y-91885000D01*
X98230361Y-91877649D01*
X98231441Y-91870368D01*
X98233229Y-91863229D01*
X98235709Y-91856299D01*
X98238856Y-91849645D01*
X98242640Y-91843332D01*
X98247024Y-91837421D01*
X98251967Y-91831967D01*
X98257421Y-91827024D01*
X98263332Y-91822640D01*
X98269645Y-91818856D01*
X98276299Y-91815709D01*
X98283229Y-91813229D01*
X98290368Y-91811441D01*
X98297649Y-91810361D01*
X98305000Y-91810000D01*
X98455000Y-91810000D01*
X98462351Y-91810361D01*
G37*
G36*
X98962351Y-91810361D02*
G01*
X98969632Y-91811441D01*
X98976771Y-91813229D01*
X98983701Y-91815709D01*
X98990355Y-91818856D01*
X98996668Y-91822640D01*
X99002579Y-91827024D01*
X99008033Y-91831967D01*
X99012976Y-91837421D01*
X99017360Y-91843332D01*
X99021144Y-91849645D01*
X99024291Y-91856299D01*
X99026771Y-91863229D01*
X99028559Y-91870368D01*
X99029639Y-91877649D01*
X99030000Y-91885000D01*
X99030000Y-93210000D01*
X99029639Y-93217351D01*
X99028559Y-93224632D01*
X99026771Y-93231771D01*
X99024291Y-93238701D01*
X99021144Y-93245355D01*
X99017360Y-93251668D01*
X99012976Y-93257579D01*
X99008033Y-93263033D01*
X99002579Y-93267976D01*
X98996668Y-93272360D01*
X98990355Y-93276144D01*
X98983701Y-93279291D01*
X98976771Y-93281771D01*
X98969632Y-93283559D01*
X98962351Y-93284639D01*
X98955000Y-93285000D01*
X98805000Y-93285000D01*
X98797649Y-93284639D01*
X98790368Y-93283559D01*
X98783229Y-93281771D01*
X98776299Y-93279291D01*
X98769645Y-93276144D01*
X98763332Y-93272360D01*
X98757421Y-93267976D01*
X98751967Y-93263033D01*
X98747024Y-93257579D01*
X98742640Y-93251668D01*
X98738856Y-93245355D01*
X98735709Y-93238701D01*
X98733229Y-93231771D01*
X98731441Y-93224632D01*
X98730361Y-93217351D01*
X98730000Y-93210000D01*
X98730000Y-91885000D01*
X98730361Y-91877649D01*
X98731441Y-91870368D01*
X98733229Y-91863229D01*
X98735709Y-91856299D01*
X98738856Y-91849645D01*
X98742640Y-91843332D01*
X98747024Y-91837421D01*
X98751967Y-91831967D01*
X98757421Y-91827024D01*
X98763332Y-91822640D01*
X98769645Y-91818856D01*
X98776299Y-91815709D01*
X98783229Y-91813229D01*
X98790368Y-91811441D01*
X98797649Y-91810361D01*
X98805000Y-91810000D01*
X98955000Y-91810000D01*
X98962351Y-91810361D01*
G37*
G36*
X99462351Y-91810361D02*
G01*
X99469632Y-91811441D01*
X99476771Y-91813229D01*
X99483701Y-91815709D01*
X99490355Y-91818856D01*
X99496668Y-91822640D01*
X99502579Y-91827024D01*
X99508033Y-91831967D01*
X99512976Y-91837421D01*
X99517360Y-91843332D01*
X99521144Y-91849645D01*
X99524291Y-91856299D01*
X99526771Y-91863229D01*
X99528559Y-91870368D01*
X99529639Y-91877649D01*
X99530000Y-91885000D01*
X99530000Y-93210000D01*
X99529639Y-93217351D01*
X99528559Y-93224632D01*
X99526771Y-93231771D01*
X99524291Y-93238701D01*
X99521144Y-93245355D01*
X99517360Y-93251668D01*
X99512976Y-93257579D01*
X99508033Y-93263033D01*
X99502579Y-93267976D01*
X99496668Y-93272360D01*
X99490355Y-93276144D01*
X99483701Y-93279291D01*
X99476771Y-93281771D01*
X99469632Y-93283559D01*
X99462351Y-93284639D01*
X99455000Y-93285000D01*
X99305000Y-93285000D01*
X99297649Y-93284639D01*
X99290368Y-93283559D01*
X99283229Y-93281771D01*
X99276299Y-93279291D01*
X99269645Y-93276144D01*
X99263332Y-93272360D01*
X99257421Y-93267976D01*
X99251967Y-93263033D01*
X99247024Y-93257579D01*
X99242640Y-93251668D01*
X99238856Y-93245355D01*
X99235709Y-93238701D01*
X99233229Y-93231771D01*
X99231441Y-93224632D01*
X99230361Y-93217351D01*
X99230000Y-93210000D01*
X99230000Y-91885000D01*
X99230361Y-91877649D01*
X99231441Y-91870368D01*
X99233229Y-91863229D01*
X99235709Y-91856299D01*
X99238856Y-91849645D01*
X99242640Y-91843332D01*
X99247024Y-91837421D01*
X99251967Y-91831967D01*
X99257421Y-91827024D01*
X99263332Y-91822640D01*
X99269645Y-91818856D01*
X99276299Y-91815709D01*
X99283229Y-91813229D01*
X99290368Y-91811441D01*
X99297649Y-91810361D01*
X99305000Y-91810000D01*
X99455000Y-91810000D01*
X99462351Y-91810361D01*
G37*
G36*
X99962351Y-91810361D02*
G01*
X99969632Y-91811441D01*
X99976771Y-91813229D01*
X99983701Y-91815709D01*
X99990355Y-91818856D01*
X99996668Y-91822640D01*
X100002579Y-91827024D01*
X100008033Y-91831967D01*
X100012976Y-91837421D01*
X100017360Y-91843332D01*
X100021144Y-91849645D01*
X100024291Y-91856299D01*
X100026771Y-91863229D01*
X100028559Y-91870368D01*
X100029639Y-91877649D01*
X100030000Y-91885000D01*
X100030000Y-93210000D01*
X100029639Y-93217351D01*
X100028559Y-93224632D01*
X100026771Y-93231771D01*
X100024291Y-93238701D01*
X100021144Y-93245355D01*
X100017360Y-93251668D01*
X100012976Y-93257579D01*
X100008033Y-93263033D01*
X100002579Y-93267976D01*
X99996668Y-93272360D01*
X99990355Y-93276144D01*
X99983701Y-93279291D01*
X99976771Y-93281771D01*
X99969632Y-93283559D01*
X99962351Y-93284639D01*
X99955000Y-93285000D01*
X99805000Y-93285000D01*
X99797649Y-93284639D01*
X99790368Y-93283559D01*
X99783229Y-93281771D01*
X99776299Y-93279291D01*
X99769645Y-93276144D01*
X99763332Y-93272360D01*
X99757421Y-93267976D01*
X99751967Y-93263033D01*
X99747024Y-93257579D01*
X99742640Y-93251668D01*
X99738856Y-93245355D01*
X99735709Y-93238701D01*
X99733229Y-93231771D01*
X99731441Y-93224632D01*
X99730361Y-93217351D01*
X99730000Y-93210000D01*
X99730000Y-91885000D01*
X99730361Y-91877649D01*
X99731441Y-91870368D01*
X99733229Y-91863229D01*
X99735709Y-91856299D01*
X99738856Y-91849645D01*
X99742640Y-91843332D01*
X99747024Y-91837421D01*
X99751967Y-91831967D01*
X99757421Y-91827024D01*
X99763332Y-91822640D01*
X99769645Y-91818856D01*
X99776299Y-91815709D01*
X99783229Y-91813229D01*
X99790368Y-91811441D01*
X99797649Y-91810361D01*
X99805000Y-91810000D01*
X99955000Y-91810000D01*
X99962351Y-91810361D01*
G37*
G36*
X100462351Y-91810361D02*
G01*
X100469632Y-91811441D01*
X100476771Y-91813229D01*
X100483701Y-91815709D01*
X100490355Y-91818856D01*
X100496668Y-91822640D01*
X100502579Y-91827024D01*
X100508033Y-91831967D01*
X100512976Y-91837421D01*
X100517360Y-91843332D01*
X100521144Y-91849645D01*
X100524291Y-91856299D01*
X100526771Y-91863229D01*
X100528559Y-91870368D01*
X100529639Y-91877649D01*
X100530000Y-91885000D01*
X100530000Y-93210000D01*
X100529639Y-93217351D01*
X100528559Y-93224632D01*
X100526771Y-93231771D01*
X100524291Y-93238701D01*
X100521144Y-93245355D01*
X100517360Y-93251668D01*
X100512976Y-93257579D01*
X100508033Y-93263033D01*
X100502579Y-93267976D01*
X100496668Y-93272360D01*
X100490355Y-93276144D01*
X100483701Y-93279291D01*
X100476771Y-93281771D01*
X100469632Y-93283559D01*
X100462351Y-93284639D01*
X100455000Y-93285000D01*
X100305000Y-93285000D01*
X100297649Y-93284639D01*
X100290368Y-93283559D01*
X100283229Y-93281771D01*
X100276299Y-93279291D01*
X100269645Y-93276144D01*
X100263332Y-93272360D01*
X100257421Y-93267976D01*
X100251967Y-93263033D01*
X100247024Y-93257579D01*
X100242640Y-93251668D01*
X100238856Y-93245355D01*
X100235709Y-93238701D01*
X100233229Y-93231771D01*
X100231441Y-93224632D01*
X100230361Y-93217351D01*
X100230000Y-93210000D01*
X100230000Y-91885000D01*
X100230361Y-91877649D01*
X100231441Y-91870368D01*
X100233229Y-91863229D01*
X100235709Y-91856299D01*
X100238856Y-91849645D01*
X100242640Y-91843332D01*
X100247024Y-91837421D01*
X100251967Y-91831967D01*
X100257421Y-91827024D01*
X100263332Y-91822640D01*
X100269645Y-91818856D01*
X100276299Y-91815709D01*
X100283229Y-91813229D01*
X100290368Y-91811441D01*
X100297649Y-91810361D01*
X100305000Y-91810000D01*
X100455000Y-91810000D01*
X100462351Y-91810361D01*
G37*
G36*
X100962351Y-91810361D02*
G01*
X100969632Y-91811441D01*
X100976771Y-91813229D01*
X100983701Y-91815709D01*
X100990355Y-91818856D01*
X100996668Y-91822640D01*
X101002579Y-91827024D01*
X101008033Y-91831967D01*
X101012976Y-91837421D01*
X101017360Y-91843332D01*
X101021144Y-91849645D01*
X101024291Y-91856299D01*
X101026771Y-91863229D01*
X101028559Y-91870368D01*
X101029639Y-91877649D01*
X101030000Y-91885000D01*
X101030000Y-93210000D01*
X101029639Y-93217351D01*
X101028559Y-93224632D01*
X101026771Y-93231771D01*
X101024291Y-93238701D01*
X101021144Y-93245355D01*
X101017360Y-93251668D01*
X101012976Y-93257579D01*
X101008033Y-93263033D01*
X101002579Y-93267976D01*
X100996668Y-93272360D01*
X100990355Y-93276144D01*
X100983701Y-93279291D01*
X100976771Y-93281771D01*
X100969632Y-93283559D01*
X100962351Y-93284639D01*
X100955000Y-93285000D01*
X100805000Y-93285000D01*
X100797649Y-93284639D01*
X100790368Y-93283559D01*
X100783229Y-93281771D01*
X100776299Y-93279291D01*
X100769645Y-93276144D01*
X100763332Y-93272360D01*
X100757421Y-93267976D01*
X100751967Y-93263033D01*
X100747024Y-93257579D01*
X100742640Y-93251668D01*
X100738856Y-93245355D01*
X100735709Y-93238701D01*
X100733229Y-93231771D01*
X100731441Y-93224632D01*
X100730361Y-93217351D01*
X100730000Y-93210000D01*
X100730000Y-91885000D01*
X100730361Y-91877649D01*
X100731441Y-91870368D01*
X100733229Y-91863229D01*
X100735709Y-91856299D01*
X100738856Y-91849645D01*
X100742640Y-91843332D01*
X100747024Y-91837421D01*
X100751967Y-91831967D01*
X100757421Y-91827024D01*
X100763332Y-91822640D01*
X100769645Y-91818856D01*
X100776299Y-91815709D01*
X100783229Y-91813229D01*
X100790368Y-91811441D01*
X100797649Y-91810361D01*
X100805000Y-91810000D01*
X100955000Y-91810000D01*
X100962351Y-91810361D01*
G37*
G36*
X101462351Y-91810361D02*
G01*
X101469632Y-91811441D01*
X101476771Y-91813229D01*
X101483701Y-91815709D01*
X101490355Y-91818856D01*
X101496668Y-91822640D01*
X101502579Y-91827024D01*
X101508033Y-91831967D01*
X101512976Y-91837421D01*
X101517360Y-91843332D01*
X101521144Y-91849645D01*
X101524291Y-91856299D01*
X101526771Y-91863229D01*
X101528559Y-91870368D01*
X101529639Y-91877649D01*
X101530000Y-91885000D01*
X101530000Y-93210000D01*
X101529639Y-93217351D01*
X101528559Y-93224632D01*
X101526771Y-93231771D01*
X101524291Y-93238701D01*
X101521144Y-93245355D01*
X101517360Y-93251668D01*
X101512976Y-93257579D01*
X101508033Y-93263033D01*
X101502579Y-93267976D01*
X101496668Y-93272360D01*
X101490355Y-93276144D01*
X101483701Y-93279291D01*
X101476771Y-93281771D01*
X101469632Y-93283559D01*
X101462351Y-93284639D01*
X101455000Y-93285000D01*
X101305000Y-93285000D01*
X101297649Y-93284639D01*
X101290368Y-93283559D01*
X101283229Y-93281771D01*
X101276299Y-93279291D01*
X101269645Y-93276144D01*
X101263332Y-93272360D01*
X101257421Y-93267976D01*
X101251967Y-93263033D01*
X101247024Y-93257579D01*
X101242640Y-93251668D01*
X101238856Y-93245355D01*
X101235709Y-93238701D01*
X101233229Y-93231771D01*
X101231441Y-93224632D01*
X101230361Y-93217351D01*
X101230000Y-93210000D01*
X101230000Y-91885000D01*
X101230361Y-91877649D01*
X101231441Y-91870368D01*
X101233229Y-91863229D01*
X101235709Y-91856299D01*
X101238856Y-91849645D01*
X101242640Y-91843332D01*
X101247024Y-91837421D01*
X101251967Y-91831967D01*
X101257421Y-91827024D01*
X101263332Y-91822640D01*
X101269645Y-91818856D01*
X101276299Y-91815709D01*
X101283229Y-91813229D01*
X101290368Y-91811441D01*
X101297649Y-91810361D01*
X101305000Y-91810000D01*
X101455000Y-91810000D01*
X101462351Y-91810361D01*
G37*
G36*
X103462351Y-93810361D02*
G01*
X103469632Y-93811441D01*
X103476771Y-93813229D01*
X103483701Y-93815709D01*
X103490355Y-93818856D01*
X103496668Y-93822640D01*
X103502579Y-93827024D01*
X103508033Y-93831967D01*
X103512976Y-93837421D01*
X103517360Y-93843332D01*
X103521144Y-93849645D01*
X103524291Y-93856299D01*
X103526771Y-93863229D01*
X103528559Y-93870368D01*
X103529639Y-93877649D01*
X103530000Y-93885000D01*
X103530000Y-94035000D01*
X103529639Y-94042351D01*
X103528559Y-94049632D01*
X103526771Y-94056771D01*
X103524291Y-94063701D01*
X103521144Y-94070355D01*
X103517360Y-94076668D01*
X103512976Y-94082579D01*
X103508033Y-94088033D01*
X103502579Y-94092976D01*
X103496668Y-94097360D01*
X103490355Y-94101144D01*
X103483701Y-94104291D01*
X103476771Y-94106771D01*
X103469632Y-94108559D01*
X103462351Y-94109639D01*
X103455000Y-94110000D01*
X102130000Y-94110000D01*
X102122649Y-94109639D01*
X102115368Y-94108559D01*
X102108229Y-94106771D01*
X102101299Y-94104291D01*
X102094645Y-94101144D01*
X102088332Y-94097360D01*
X102082421Y-94092976D01*
X102076967Y-94088033D01*
X102072024Y-94082579D01*
X102067640Y-94076668D01*
X102063856Y-94070355D01*
X102060709Y-94063701D01*
X102058229Y-94056771D01*
X102056441Y-94049632D01*
X102055361Y-94042351D01*
X102055000Y-94035000D01*
X102055000Y-93885000D01*
X102055361Y-93877649D01*
X102056441Y-93870368D01*
X102058229Y-93863229D01*
X102060709Y-93856299D01*
X102063856Y-93849645D01*
X102067640Y-93843332D01*
X102072024Y-93837421D01*
X102076967Y-93831967D01*
X102082421Y-93827024D01*
X102088332Y-93822640D01*
X102094645Y-93818856D01*
X102101299Y-93815709D01*
X102108229Y-93813229D01*
X102115368Y-93811441D01*
X102122649Y-93810361D01*
X102130000Y-93810000D01*
X103455000Y-93810000D01*
X103462351Y-93810361D01*
G37*
G36*
X103462351Y-94310361D02*
G01*
X103469632Y-94311441D01*
X103476771Y-94313229D01*
X103483701Y-94315709D01*
X103490355Y-94318856D01*
X103496668Y-94322640D01*
X103502579Y-94327024D01*
X103508033Y-94331967D01*
X103512976Y-94337421D01*
X103517360Y-94343332D01*
X103521144Y-94349645D01*
X103524291Y-94356299D01*
X103526771Y-94363229D01*
X103528559Y-94370368D01*
X103529639Y-94377649D01*
X103530000Y-94385000D01*
X103530000Y-94535000D01*
X103529639Y-94542351D01*
X103528559Y-94549632D01*
X103526771Y-94556771D01*
X103524291Y-94563701D01*
X103521144Y-94570355D01*
X103517360Y-94576668D01*
X103512976Y-94582579D01*
X103508033Y-94588033D01*
X103502579Y-94592976D01*
X103496668Y-94597360D01*
X103490355Y-94601144D01*
X103483701Y-94604291D01*
X103476771Y-94606771D01*
X103469632Y-94608559D01*
X103462351Y-94609639D01*
X103455000Y-94610000D01*
X102130000Y-94610000D01*
X102122649Y-94609639D01*
X102115368Y-94608559D01*
X102108229Y-94606771D01*
X102101299Y-94604291D01*
X102094645Y-94601144D01*
X102088332Y-94597360D01*
X102082421Y-94592976D01*
X102076967Y-94588033D01*
X102072024Y-94582579D01*
X102067640Y-94576668D01*
X102063856Y-94570355D01*
X102060709Y-94563701D01*
X102058229Y-94556771D01*
X102056441Y-94549632D01*
X102055361Y-94542351D01*
X102055000Y-94535000D01*
X102055000Y-94385000D01*
X102055361Y-94377649D01*
X102056441Y-94370368D01*
X102058229Y-94363229D01*
X102060709Y-94356299D01*
X102063856Y-94349645D01*
X102067640Y-94343332D01*
X102072024Y-94337421D01*
X102076967Y-94331967D01*
X102082421Y-94327024D01*
X102088332Y-94322640D01*
X102094645Y-94318856D01*
X102101299Y-94315709D01*
X102108229Y-94313229D01*
X102115368Y-94311441D01*
X102122649Y-94310361D01*
X102130000Y-94310000D01*
X103455000Y-94310000D01*
X103462351Y-94310361D01*
G37*
G36*
X103462351Y-94810361D02*
G01*
X103469632Y-94811441D01*
X103476771Y-94813229D01*
X103483701Y-94815709D01*
X103490355Y-94818856D01*
X103496668Y-94822640D01*
X103502579Y-94827024D01*
X103508033Y-94831967D01*
X103512976Y-94837421D01*
X103517360Y-94843332D01*
X103521144Y-94849645D01*
X103524291Y-94856299D01*
X103526771Y-94863229D01*
X103528559Y-94870368D01*
X103529639Y-94877649D01*
X103530000Y-94885000D01*
X103530000Y-95035000D01*
X103529639Y-95042351D01*
X103528559Y-95049632D01*
X103526771Y-95056771D01*
X103524291Y-95063701D01*
X103521144Y-95070355D01*
X103517360Y-95076668D01*
X103512976Y-95082579D01*
X103508033Y-95088033D01*
X103502579Y-95092976D01*
X103496668Y-95097360D01*
X103490355Y-95101144D01*
X103483701Y-95104291D01*
X103476771Y-95106771D01*
X103469632Y-95108559D01*
X103462351Y-95109639D01*
X103455000Y-95110000D01*
X102130000Y-95110000D01*
X102122649Y-95109639D01*
X102115368Y-95108559D01*
X102108229Y-95106771D01*
X102101299Y-95104291D01*
X102094645Y-95101144D01*
X102088332Y-95097360D01*
X102082421Y-95092976D01*
X102076967Y-95088033D01*
X102072024Y-95082579D01*
X102067640Y-95076668D01*
X102063856Y-95070355D01*
X102060709Y-95063701D01*
X102058229Y-95056771D01*
X102056441Y-95049632D01*
X102055361Y-95042351D01*
X102055000Y-95035000D01*
X102055000Y-94885000D01*
X102055361Y-94877649D01*
X102056441Y-94870368D01*
X102058229Y-94863229D01*
X102060709Y-94856299D01*
X102063856Y-94849645D01*
X102067640Y-94843332D01*
X102072024Y-94837421D01*
X102076967Y-94831967D01*
X102082421Y-94827024D01*
X102088332Y-94822640D01*
X102094645Y-94818856D01*
X102101299Y-94815709D01*
X102108229Y-94813229D01*
X102115368Y-94811441D01*
X102122649Y-94810361D01*
X102130000Y-94810000D01*
X103455000Y-94810000D01*
X103462351Y-94810361D01*
G37*
G36*
X103462351Y-95310361D02*
G01*
X103469632Y-95311441D01*
X103476771Y-95313229D01*
X103483701Y-95315709D01*
X103490355Y-95318856D01*
X103496668Y-95322640D01*
X103502579Y-95327024D01*
X103508033Y-95331967D01*
X103512976Y-95337421D01*
X103517360Y-95343332D01*
X103521144Y-95349645D01*
X103524291Y-95356299D01*
X103526771Y-95363229D01*
X103528559Y-95370368D01*
X103529639Y-95377649D01*
X103530000Y-95385000D01*
X103530000Y-95535000D01*
X103529639Y-95542351D01*
X103528559Y-95549632D01*
X103526771Y-95556771D01*
X103524291Y-95563701D01*
X103521144Y-95570355D01*
X103517360Y-95576668D01*
X103512976Y-95582579D01*
X103508033Y-95588033D01*
X103502579Y-95592976D01*
X103496668Y-95597360D01*
X103490355Y-95601144D01*
X103483701Y-95604291D01*
X103476771Y-95606771D01*
X103469632Y-95608559D01*
X103462351Y-95609639D01*
X103455000Y-95610000D01*
X102130000Y-95610000D01*
X102122649Y-95609639D01*
X102115368Y-95608559D01*
X102108229Y-95606771D01*
X102101299Y-95604291D01*
X102094645Y-95601144D01*
X102088332Y-95597360D01*
X102082421Y-95592976D01*
X102076967Y-95588033D01*
X102072024Y-95582579D01*
X102067640Y-95576668D01*
X102063856Y-95570355D01*
X102060709Y-95563701D01*
X102058229Y-95556771D01*
X102056441Y-95549632D01*
X102055361Y-95542351D01*
X102055000Y-95535000D01*
X102055000Y-95385000D01*
X102055361Y-95377649D01*
X102056441Y-95370368D01*
X102058229Y-95363229D01*
X102060709Y-95356299D01*
X102063856Y-95349645D01*
X102067640Y-95343332D01*
X102072024Y-95337421D01*
X102076967Y-95331967D01*
X102082421Y-95327024D01*
X102088332Y-95322640D01*
X102094645Y-95318856D01*
X102101299Y-95315709D01*
X102108229Y-95313229D01*
X102115368Y-95311441D01*
X102122649Y-95310361D01*
X102130000Y-95310000D01*
X103455000Y-95310000D01*
X103462351Y-95310361D01*
G37*
G36*
X103462351Y-95810361D02*
G01*
X103469632Y-95811441D01*
X103476771Y-95813229D01*
X103483701Y-95815709D01*
X103490355Y-95818856D01*
X103496668Y-95822640D01*
X103502579Y-95827024D01*
X103508033Y-95831967D01*
X103512976Y-95837421D01*
X103517360Y-95843332D01*
X103521144Y-95849645D01*
X103524291Y-95856299D01*
X103526771Y-95863229D01*
X103528559Y-95870368D01*
X103529639Y-95877649D01*
X103530000Y-95885000D01*
X103530000Y-96035000D01*
X103529639Y-96042351D01*
X103528559Y-96049632D01*
X103526771Y-96056771D01*
X103524291Y-96063701D01*
X103521144Y-96070355D01*
X103517360Y-96076668D01*
X103512976Y-96082579D01*
X103508033Y-96088033D01*
X103502579Y-96092976D01*
X103496668Y-96097360D01*
X103490355Y-96101144D01*
X103483701Y-96104291D01*
X103476771Y-96106771D01*
X103469632Y-96108559D01*
X103462351Y-96109639D01*
X103455000Y-96110000D01*
X102130000Y-96110000D01*
X102122649Y-96109639D01*
X102115368Y-96108559D01*
X102108229Y-96106771D01*
X102101299Y-96104291D01*
X102094645Y-96101144D01*
X102088332Y-96097360D01*
X102082421Y-96092976D01*
X102076967Y-96088033D01*
X102072024Y-96082579D01*
X102067640Y-96076668D01*
X102063856Y-96070355D01*
X102060709Y-96063701D01*
X102058229Y-96056771D01*
X102056441Y-96049632D01*
X102055361Y-96042351D01*
X102055000Y-96035000D01*
X102055000Y-95885000D01*
X102055361Y-95877649D01*
X102056441Y-95870368D01*
X102058229Y-95863229D01*
X102060709Y-95856299D01*
X102063856Y-95849645D01*
X102067640Y-95843332D01*
X102072024Y-95837421D01*
X102076967Y-95831967D01*
X102082421Y-95827024D01*
X102088332Y-95822640D01*
X102094645Y-95818856D01*
X102101299Y-95815709D01*
X102108229Y-95813229D01*
X102115368Y-95811441D01*
X102122649Y-95810361D01*
X102130000Y-95810000D01*
X103455000Y-95810000D01*
X103462351Y-95810361D01*
G37*
G36*
X103462351Y-96310361D02*
G01*
X103469632Y-96311441D01*
X103476771Y-96313229D01*
X103483701Y-96315709D01*
X103490355Y-96318856D01*
X103496668Y-96322640D01*
X103502579Y-96327024D01*
X103508033Y-96331967D01*
X103512976Y-96337421D01*
X103517360Y-96343332D01*
X103521144Y-96349645D01*
X103524291Y-96356299D01*
X103526771Y-96363229D01*
X103528559Y-96370368D01*
X103529639Y-96377649D01*
X103530000Y-96385000D01*
X103530000Y-96535000D01*
X103529639Y-96542351D01*
X103528559Y-96549632D01*
X103526771Y-96556771D01*
X103524291Y-96563701D01*
X103521144Y-96570355D01*
X103517360Y-96576668D01*
X103512976Y-96582579D01*
X103508033Y-96588033D01*
X103502579Y-96592976D01*
X103496668Y-96597360D01*
X103490355Y-96601144D01*
X103483701Y-96604291D01*
X103476771Y-96606771D01*
X103469632Y-96608559D01*
X103462351Y-96609639D01*
X103455000Y-96610000D01*
X102130000Y-96610000D01*
X102122649Y-96609639D01*
X102115368Y-96608559D01*
X102108229Y-96606771D01*
X102101299Y-96604291D01*
X102094645Y-96601144D01*
X102088332Y-96597360D01*
X102082421Y-96592976D01*
X102076967Y-96588033D01*
X102072024Y-96582579D01*
X102067640Y-96576668D01*
X102063856Y-96570355D01*
X102060709Y-96563701D01*
X102058229Y-96556771D01*
X102056441Y-96549632D01*
X102055361Y-96542351D01*
X102055000Y-96535000D01*
X102055000Y-96385000D01*
X102055361Y-96377649D01*
X102056441Y-96370368D01*
X102058229Y-96363229D01*
X102060709Y-96356299D01*
X102063856Y-96349645D01*
X102067640Y-96343332D01*
X102072024Y-96337421D01*
X102076967Y-96331967D01*
X102082421Y-96327024D01*
X102088332Y-96322640D01*
X102094645Y-96318856D01*
X102101299Y-96315709D01*
X102108229Y-96313229D01*
X102115368Y-96311441D01*
X102122649Y-96310361D01*
X102130000Y-96310000D01*
X103455000Y-96310000D01*
X103462351Y-96310361D01*
G37*
G36*
X103462351Y-96810361D02*
G01*
X103469632Y-96811441D01*
X103476771Y-96813229D01*
X103483701Y-96815709D01*
X103490355Y-96818856D01*
X103496668Y-96822640D01*
X103502579Y-96827024D01*
X103508033Y-96831967D01*
X103512976Y-96837421D01*
X103517360Y-96843332D01*
X103521144Y-96849645D01*
X103524291Y-96856299D01*
X103526771Y-96863229D01*
X103528559Y-96870368D01*
X103529639Y-96877649D01*
X103530000Y-96885000D01*
X103530000Y-97035000D01*
X103529639Y-97042351D01*
X103528559Y-97049632D01*
X103526771Y-97056771D01*
X103524291Y-97063701D01*
X103521144Y-97070355D01*
X103517360Y-97076668D01*
X103512976Y-97082579D01*
X103508033Y-97088033D01*
X103502579Y-97092976D01*
X103496668Y-97097360D01*
X103490355Y-97101144D01*
X103483701Y-97104291D01*
X103476771Y-97106771D01*
X103469632Y-97108559D01*
X103462351Y-97109639D01*
X103455000Y-97110000D01*
X102130000Y-97110000D01*
X102122649Y-97109639D01*
X102115368Y-97108559D01*
X102108229Y-97106771D01*
X102101299Y-97104291D01*
X102094645Y-97101144D01*
X102088332Y-97097360D01*
X102082421Y-97092976D01*
X102076967Y-97088033D01*
X102072024Y-97082579D01*
X102067640Y-97076668D01*
X102063856Y-97070355D01*
X102060709Y-97063701D01*
X102058229Y-97056771D01*
X102056441Y-97049632D01*
X102055361Y-97042351D01*
X102055000Y-97035000D01*
X102055000Y-96885000D01*
X102055361Y-96877649D01*
X102056441Y-96870368D01*
X102058229Y-96863229D01*
X102060709Y-96856299D01*
X102063856Y-96849645D01*
X102067640Y-96843332D01*
X102072024Y-96837421D01*
X102076967Y-96831967D01*
X102082421Y-96827024D01*
X102088332Y-96822640D01*
X102094645Y-96818856D01*
X102101299Y-96815709D01*
X102108229Y-96813229D01*
X102115368Y-96811441D01*
X102122649Y-96810361D01*
X102130000Y-96810000D01*
X103455000Y-96810000D01*
X103462351Y-96810361D01*
G37*
G36*
X103462351Y-97310361D02*
G01*
X103469632Y-97311441D01*
X103476771Y-97313229D01*
X103483701Y-97315709D01*
X103490355Y-97318856D01*
X103496668Y-97322640D01*
X103502579Y-97327024D01*
X103508033Y-97331967D01*
X103512976Y-97337421D01*
X103517360Y-97343332D01*
X103521144Y-97349645D01*
X103524291Y-97356299D01*
X103526771Y-97363229D01*
X103528559Y-97370368D01*
X103529639Y-97377649D01*
X103530000Y-97385000D01*
X103530000Y-97535000D01*
X103529639Y-97542351D01*
X103528559Y-97549632D01*
X103526771Y-97556771D01*
X103524291Y-97563701D01*
X103521144Y-97570355D01*
X103517360Y-97576668D01*
X103512976Y-97582579D01*
X103508033Y-97588033D01*
X103502579Y-97592976D01*
X103496668Y-97597360D01*
X103490355Y-97601144D01*
X103483701Y-97604291D01*
X103476771Y-97606771D01*
X103469632Y-97608559D01*
X103462351Y-97609639D01*
X103455000Y-97610000D01*
X102130000Y-97610000D01*
X102122649Y-97609639D01*
X102115368Y-97608559D01*
X102108229Y-97606771D01*
X102101299Y-97604291D01*
X102094645Y-97601144D01*
X102088332Y-97597360D01*
X102082421Y-97592976D01*
X102076967Y-97588033D01*
X102072024Y-97582579D01*
X102067640Y-97576668D01*
X102063856Y-97570355D01*
X102060709Y-97563701D01*
X102058229Y-97556771D01*
X102056441Y-97549632D01*
X102055361Y-97542351D01*
X102055000Y-97535000D01*
X102055000Y-97385000D01*
X102055361Y-97377649D01*
X102056441Y-97370368D01*
X102058229Y-97363229D01*
X102060709Y-97356299D01*
X102063856Y-97349645D01*
X102067640Y-97343332D01*
X102072024Y-97337421D01*
X102076967Y-97331967D01*
X102082421Y-97327024D01*
X102088332Y-97322640D01*
X102094645Y-97318856D01*
X102101299Y-97315709D01*
X102108229Y-97313229D01*
X102115368Y-97311441D01*
X102122649Y-97310361D01*
X102130000Y-97310000D01*
X103455000Y-97310000D01*
X103462351Y-97310361D01*
G37*
G36*
X103462351Y-97810361D02*
G01*
X103469632Y-97811441D01*
X103476771Y-97813229D01*
X103483701Y-97815709D01*
X103490355Y-97818856D01*
X103496668Y-97822640D01*
X103502579Y-97827024D01*
X103508033Y-97831967D01*
X103512976Y-97837421D01*
X103517360Y-97843332D01*
X103521144Y-97849645D01*
X103524291Y-97856299D01*
X103526771Y-97863229D01*
X103528559Y-97870368D01*
X103529639Y-97877649D01*
X103530000Y-97885000D01*
X103530000Y-98035000D01*
X103529639Y-98042351D01*
X103528559Y-98049632D01*
X103526771Y-98056771D01*
X103524291Y-98063701D01*
X103521144Y-98070355D01*
X103517360Y-98076668D01*
X103512976Y-98082579D01*
X103508033Y-98088033D01*
X103502579Y-98092976D01*
X103496668Y-98097360D01*
X103490355Y-98101144D01*
X103483701Y-98104291D01*
X103476771Y-98106771D01*
X103469632Y-98108559D01*
X103462351Y-98109639D01*
X103455000Y-98110000D01*
X102130000Y-98110000D01*
X102122649Y-98109639D01*
X102115368Y-98108559D01*
X102108229Y-98106771D01*
X102101299Y-98104291D01*
X102094645Y-98101144D01*
X102088332Y-98097360D01*
X102082421Y-98092976D01*
X102076967Y-98088033D01*
X102072024Y-98082579D01*
X102067640Y-98076668D01*
X102063856Y-98070355D01*
X102060709Y-98063701D01*
X102058229Y-98056771D01*
X102056441Y-98049632D01*
X102055361Y-98042351D01*
X102055000Y-98035000D01*
X102055000Y-97885000D01*
X102055361Y-97877649D01*
X102056441Y-97870368D01*
X102058229Y-97863229D01*
X102060709Y-97856299D01*
X102063856Y-97849645D01*
X102067640Y-97843332D01*
X102072024Y-97837421D01*
X102076967Y-97831967D01*
X102082421Y-97827024D01*
X102088332Y-97822640D01*
X102094645Y-97818856D01*
X102101299Y-97815709D01*
X102108229Y-97813229D01*
X102115368Y-97811441D01*
X102122649Y-97810361D01*
X102130000Y-97810000D01*
X103455000Y-97810000D01*
X103462351Y-97810361D01*
G37*
G36*
X103462351Y-98310361D02*
G01*
X103469632Y-98311441D01*
X103476771Y-98313229D01*
X103483701Y-98315709D01*
X103490355Y-98318856D01*
X103496668Y-98322640D01*
X103502579Y-98327024D01*
X103508033Y-98331967D01*
X103512976Y-98337421D01*
X103517360Y-98343332D01*
X103521144Y-98349645D01*
X103524291Y-98356299D01*
X103526771Y-98363229D01*
X103528559Y-98370368D01*
X103529639Y-98377649D01*
X103530000Y-98385000D01*
X103530000Y-98535000D01*
X103529639Y-98542351D01*
X103528559Y-98549632D01*
X103526771Y-98556771D01*
X103524291Y-98563701D01*
X103521144Y-98570355D01*
X103517360Y-98576668D01*
X103512976Y-98582579D01*
X103508033Y-98588033D01*
X103502579Y-98592976D01*
X103496668Y-98597360D01*
X103490355Y-98601144D01*
X103483701Y-98604291D01*
X103476771Y-98606771D01*
X103469632Y-98608559D01*
X103462351Y-98609639D01*
X103455000Y-98610000D01*
X102130000Y-98610000D01*
X102122649Y-98609639D01*
X102115368Y-98608559D01*
X102108229Y-98606771D01*
X102101299Y-98604291D01*
X102094645Y-98601144D01*
X102088332Y-98597360D01*
X102082421Y-98592976D01*
X102076967Y-98588033D01*
X102072024Y-98582579D01*
X102067640Y-98576668D01*
X102063856Y-98570355D01*
X102060709Y-98563701D01*
X102058229Y-98556771D01*
X102056441Y-98549632D01*
X102055361Y-98542351D01*
X102055000Y-98535000D01*
X102055000Y-98385000D01*
X102055361Y-98377649D01*
X102056441Y-98370368D01*
X102058229Y-98363229D01*
X102060709Y-98356299D01*
X102063856Y-98349645D01*
X102067640Y-98343332D01*
X102072024Y-98337421D01*
X102076967Y-98331967D01*
X102082421Y-98327024D01*
X102088332Y-98322640D01*
X102094645Y-98318856D01*
X102101299Y-98315709D01*
X102108229Y-98313229D01*
X102115368Y-98311441D01*
X102122649Y-98310361D01*
X102130000Y-98310000D01*
X103455000Y-98310000D01*
X103462351Y-98310361D01*
G37*
G36*
X103462351Y-98810361D02*
G01*
X103469632Y-98811441D01*
X103476771Y-98813229D01*
X103483701Y-98815709D01*
X103490355Y-98818856D01*
X103496668Y-98822640D01*
X103502579Y-98827024D01*
X103508033Y-98831967D01*
X103512976Y-98837421D01*
X103517360Y-98843332D01*
X103521144Y-98849645D01*
X103524291Y-98856299D01*
X103526771Y-98863229D01*
X103528559Y-98870368D01*
X103529639Y-98877649D01*
X103530000Y-98885000D01*
X103530000Y-99035000D01*
X103529639Y-99042351D01*
X103528559Y-99049632D01*
X103526771Y-99056771D01*
X103524291Y-99063701D01*
X103521144Y-99070355D01*
X103517360Y-99076668D01*
X103512976Y-99082579D01*
X103508033Y-99088033D01*
X103502579Y-99092976D01*
X103496668Y-99097360D01*
X103490355Y-99101144D01*
X103483701Y-99104291D01*
X103476771Y-99106771D01*
X103469632Y-99108559D01*
X103462351Y-99109639D01*
X103455000Y-99110000D01*
X102130000Y-99110000D01*
X102122649Y-99109639D01*
X102115368Y-99108559D01*
X102108229Y-99106771D01*
X102101299Y-99104291D01*
X102094645Y-99101144D01*
X102088332Y-99097360D01*
X102082421Y-99092976D01*
X102076967Y-99088033D01*
X102072024Y-99082579D01*
X102067640Y-99076668D01*
X102063856Y-99070355D01*
X102060709Y-99063701D01*
X102058229Y-99056771D01*
X102056441Y-99049632D01*
X102055361Y-99042351D01*
X102055000Y-99035000D01*
X102055000Y-98885000D01*
X102055361Y-98877649D01*
X102056441Y-98870368D01*
X102058229Y-98863229D01*
X102060709Y-98856299D01*
X102063856Y-98849645D01*
X102067640Y-98843332D01*
X102072024Y-98837421D01*
X102076967Y-98831967D01*
X102082421Y-98827024D01*
X102088332Y-98822640D01*
X102094645Y-98818856D01*
X102101299Y-98815709D01*
X102108229Y-98813229D01*
X102115368Y-98811441D01*
X102122649Y-98810361D01*
X102130000Y-98810000D01*
X103455000Y-98810000D01*
X103462351Y-98810361D01*
G37*
G36*
X103462351Y-99310361D02*
G01*
X103469632Y-99311441D01*
X103476771Y-99313229D01*
X103483701Y-99315709D01*
X103490355Y-99318856D01*
X103496668Y-99322640D01*
X103502579Y-99327024D01*
X103508033Y-99331967D01*
X103512976Y-99337421D01*
X103517360Y-99343332D01*
X103521144Y-99349645D01*
X103524291Y-99356299D01*
X103526771Y-99363229D01*
X103528559Y-99370368D01*
X103529639Y-99377649D01*
X103530000Y-99385000D01*
X103530000Y-99535000D01*
X103529639Y-99542351D01*
X103528559Y-99549632D01*
X103526771Y-99556771D01*
X103524291Y-99563701D01*
X103521144Y-99570355D01*
X103517360Y-99576668D01*
X103512976Y-99582579D01*
X103508033Y-99588033D01*
X103502579Y-99592976D01*
X103496668Y-99597360D01*
X103490355Y-99601144D01*
X103483701Y-99604291D01*
X103476771Y-99606771D01*
X103469632Y-99608559D01*
X103462351Y-99609639D01*
X103455000Y-99610000D01*
X102130000Y-99610000D01*
X102122649Y-99609639D01*
X102115368Y-99608559D01*
X102108229Y-99606771D01*
X102101299Y-99604291D01*
X102094645Y-99601144D01*
X102088332Y-99597360D01*
X102082421Y-99592976D01*
X102076967Y-99588033D01*
X102072024Y-99582579D01*
X102067640Y-99576668D01*
X102063856Y-99570355D01*
X102060709Y-99563701D01*
X102058229Y-99556771D01*
X102056441Y-99549632D01*
X102055361Y-99542351D01*
X102055000Y-99535000D01*
X102055000Y-99385000D01*
X102055361Y-99377649D01*
X102056441Y-99370368D01*
X102058229Y-99363229D01*
X102060709Y-99356299D01*
X102063856Y-99349645D01*
X102067640Y-99343332D01*
X102072024Y-99337421D01*
X102076967Y-99331967D01*
X102082421Y-99327024D01*
X102088332Y-99322640D01*
X102094645Y-99318856D01*
X102101299Y-99315709D01*
X102108229Y-99313229D01*
X102115368Y-99311441D01*
X102122649Y-99310361D01*
X102130000Y-99310000D01*
X103455000Y-99310000D01*
X103462351Y-99310361D01*
G37*
G36*
X101462351Y-100135361D02*
G01*
X101469632Y-100136441D01*
X101476771Y-100138229D01*
X101483701Y-100140709D01*
X101490355Y-100143856D01*
X101496668Y-100147640D01*
X101502579Y-100152024D01*
X101508033Y-100156967D01*
X101512976Y-100162421D01*
X101517360Y-100168332D01*
X101521144Y-100174645D01*
X101524291Y-100181299D01*
X101526771Y-100188229D01*
X101528559Y-100195368D01*
X101529639Y-100202649D01*
X101530000Y-100210000D01*
X101530000Y-101535000D01*
X101529639Y-101542351D01*
X101528559Y-101549632D01*
X101526771Y-101556771D01*
X101524291Y-101563701D01*
X101521144Y-101570355D01*
X101517360Y-101576668D01*
X101512976Y-101582579D01*
X101508033Y-101588033D01*
X101502579Y-101592976D01*
X101496668Y-101597360D01*
X101490355Y-101601144D01*
X101483701Y-101604291D01*
X101476771Y-101606771D01*
X101469632Y-101608559D01*
X101462351Y-101609639D01*
X101455000Y-101610000D01*
X101305000Y-101610000D01*
X101297649Y-101609639D01*
X101290368Y-101608559D01*
X101283229Y-101606771D01*
X101276299Y-101604291D01*
X101269645Y-101601144D01*
X101263332Y-101597360D01*
X101257421Y-101592976D01*
X101251967Y-101588033D01*
X101247024Y-101582579D01*
X101242640Y-101576668D01*
X101238856Y-101570355D01*
X101235709Y-101563701D01*
X101233229Y-101556771D01*
X101231441Y-101549632D01*
X101230361Y-101542351D01*
X101230000Y-101535000D01*
X101230000Y-100210000D01*
X101230361Y-100202649D01*
X101231441Y-100195368D01*
X101233229Y-100188229D01*
X101235709Y-100181299D01*
X101238856Y-100174645D01*
X101242640Y-100168332D01*
X101247024Y-100162421D01*
X101251967Y-100156967D01*
X101257421Y-100152024D01*
X101263332Y-100147640D01*
X101269645Y-100143856D01*
X101276299Y-100140709D01*
X101283229Y-100138229D01*
X101290368Y-100136441D01*
X101297649Y-100135361D01*
X101305000Y-100135000D01*
X101455000Y-100135000D01*
X101462351Y-100135361D01*
G37*
G36*
X100962351Y-100135361D02*
G01*
X100969632Y-100136441D01*
X100976771Y-100138229D01*
X100983701Y-100140709D01*
X100990355Y-100143856D01*
X100996668Y-100147640D01*
X101002579Y-100152024D01*
X101008033Y-100156967D01*
X101012976Y-100162421D01*
X101017360Y-100168332D01*
X101021144Y-100174645D01*
X101024291Y-100181299D01*
X101026771Y-100188229D01*
X101028559Y-100195368D01*
X101029639Y-100202649D01*
X101030000Y-100210000D01*
X101030000Y-101535000D01*
X101029639Y-101542351D01*
X101028559Y-101549632D01*
X101026771Y-101556771D01*
X101024291Y-101563701D01*
X101021144Y-101570355D01*
X101017360Y-101576668D01*
X101012976Y-101582579D01*
X101008033Y-101588033D01*
X101002579Y-101592976D01*
X100996668Y-101597360D01*
X100990355Y-101601144D01*
X100983701Y-101604291D01*
X100976771Y-101606771D01*
X100969632Y-101608559D01*
X100962351Y-101609639D01*
X100955000Y-101610000D01*
X100805000Y-101610000D01*
X100797649Y-101609639D01*
X100790368Y-101608559D01*
X100783229Y-101606771D01*
X100776299Y-101604291D01*
X100769645Y-101601144D01*
X100763332Y-101597360D01*
X100757421Y-101592976D01*
X100751967Y-101588033D01*
X100747024Y-101582579D01*
X100742640Y-101576668D01*
X100738856Y-101570355D01*
X100735709Y-101563701D01*
X100733229Y-101556771D01*
X100731441Y-101549632D01*
X100730361Y-101542351D01*
X100730000Y-101535000D01*
X100730000Y-100210000D01*
X100730361Y-100202649D01*
X100731441Y-100195368D01*
X100733229Y-100188229D01*
X100735709Y-100181299D01*
X100738856Y-100174645D01*
X100742640Y-100168332D01*
X100747024Y-100162421D01*
X100751967Y-100156967D01*
X100757421Y-100152024D01*
X100763332Y-100147640D01*
X100769645Y-100143856D01*
X100776299Y-100140709D01*
X100783229Y-100138229D01*
X100790368Y-100136441D01*
X100797649Y-100135361D01*
X100805000Y-100135000D01*
X100955000Y-100135000D01*
X100962351Y-100135361D01*
G37*
G36*
X100462351Y-100135361D02*
G01*
X100469632Y-100136441D01*
X100476771Y-100138229D01*
X100483701Y-100140709D01*
X100490355Y-100143856D01*
X100496668Y-100147640D01*
X100502579Y-100152024D01*
X100508033Y-100156967D01*
X100512976Y-100162421D01*
X100517360Y-100168332D01*
X100521144Y-100174645D01*
X100524291Y-100181299D01*
X100526771Y-100188229D01*
X100528559Y-100195368D01*
X100529639Y-100202649D01*
X100530000Y-100210000D01*
X100530000Y-101535000D01*
X100529639Y-101542351D01*
X100528559Y-101549632D01*
X100526771Y-101556771D01*
X100524291Y-101563701D01*
X100521144Y-101570355D01*
X100517360Y-101576668D01*
X100512976Y-101582579D01*
X100508033Y-101588033D01*
X100502579Y-101592976D01*
X100496668Y-101597360D01*
X100490355Y-101601144D01*
X100483701Y-101604291D01*
X100476771Y-101606771D01*
X100469632Y-101608559D01*
X100462351Y-101609639D01*
X100455000Y-101610000D01*
X100305000Y-101610000D01*
X100297649Y-101609639D01*
X100290368Y-101608559D01*
X100283229Y-101606771D01*
X100276299Y-101604291D01*
X100269645Y-101601144D01*
X100263332Y-101597360D01*
X100257421Y-101592976D01*
X100251967Y-101588033D01*
X100247024Y-101582579D01*
X100242640Y-101576668D01*
X100238856Y-101570355D01*
X100235709Y-101563701D01*
X100233229Y-101556771D01*
X100231441Y-101549632D01*
X100230361Y-101542351D01*
X100230000Y-101535000D01*
X100230000Y-100210000D01*
X100230361Y-100202649D01*
X100231441Y-100195368D01*
X100233229Y-100188229D01*
X100235709Y-100181299D01*
X100238856Y-100174645D01*
X100242640Y-100168332D01*
X100247024Y-100162421D01*
X100251967Y-100156967D01*
X100257421Y-100152024D01*
X100263332Y-100147640D01*
X100269645Y-100143856D01*
X100276299Y-100140709D01*
X100283229Y-100138229D01*
X100290368Y-100136441D01*
X100297649Y-100135361D01*
X100305000Y-100135000D01*
X100455000Y-100135000D01*
X100462351Y-100135361D01*
G37*
G36*
X99962351Y-100135361D02*
G01*
X99969632Y-100136441D01*
X99976771Y-100138229D01*
X99983701Y-100140709D01*
X99990355Y-100143856D01*
X99996668Y-100147640D01*
X100002579Y-100152024D01*
X100008033Y-100156967D01*
X100012976Y-100162421D01*
X100017360Y-100168332D01*
X100021144Y-100174645D01*
X100024291Y-100181299D01*
X100026771Y-100188229D01*
X100028559Y-100195368D01*
X100029639Y-100202649D01*
X100030000Y-100210000D01*
X100030000Y-101535000D01*
X100029639Y-101542351D01*
X100028559Y-101549632D01*
X100026771Y-101556771D01*
X100024291Y-101563701D01*
X100021144Y-101570355D01*
X100017360Y-101576668D01*
X100012976Y-101582579D01*
X100008033Y-101588033D01*
X100002579Y-101592976D01*
X99996668Y-101597360D01*
X99990355Y-101601144D01*
X99983701Y-101604291D01*
X99976771Y-101606771D01*
X99969632Y-101608559D01*
X99962351Y-101609639D01*
X99955000Y-101610000D01*
X99805000Y-101610000D01*
X99797649Y-101609639D01*
X99790368Y-101608559D01*
X99783229Y-101606771D01*
X99776299Y-101604291D01*
X99769645Y-101601144D01*
X99763332Y-101597360D01*
X99757421Y-101592976D01*
X99751967Y-101588033D01*
X99747024Y-101582579D01*
X99742640Y-101576668D01*
X99738856Y-101570355D01*
X99735709Y-101563701D01*
X99733229Y-101556771D01*
X99731441Y-101549632D01*
X99730361Y-101542351D01*
X99730000Y-101535000D01*
X99730000Y-100210000D01*
X99730361Y-100202649D01*
X99731441Y-100195368D01*
X99733229Y-100188229D01*
X99735709Y-100181299D01*
X99738856Y-100174645D01*
X99742640Y-100168332D01*
X99747024Y-100162421D01*
X99751967Y-100156967D01*
X99757421Y-100152024D01*
X99763332Y-100147640D01*
X99769645Y-100143856D01*
X99776299Y-100140709D01*
X99783229Y-100138229D01*
X99790368Y-100136441D01*
X99797649Y-100135361D01*
X99805000Y-100135000D01*
X99955000Y-100135000D01*
X99962351Y-100135361D01*
G37*
G36*
X99462351Y-100135361D02*
G01*
X99469632Y-100136441D01*
X99476771Y-100138229D01*
X99483701Y-100140709D01*
X99490355Y-100143856D01*
X99496668Y-100147640D01*
X99502579Y-100152024D01*
X99508033Y-100156967D01*
X99512976Y-100162421D01*
X99517360Y-100168332D01*
X99521144Y-100174645D01*
X99524291Y-100181299D01*
X99526771Y-100188229D01*
X99528559Y-100195368D01*
X99529639Y-100202649D01*
X99530000Y-100210000D01*
X99530000Y-101535000D01*
X99529639Y-101542351D01*
X99528559Y-101549632D01*
X99526771Y-101556771D01*
X99524291Y-101563701D01*
X99521144Y-101570355D01*
X99517360Y-101576668D01*
X99512976Y-101582579D01*
X99508033Y-101588033D01*
X99502579Y-101592976D01*
X99496668Y-101597360D01*
X99490355Y-101601144D01*
X99483701Y-101604291D01*
X99476771Y-101606771D01*
X99469632Y-101608559D01*
X99462351Y-101609639D01*
X99455000Y-101610000D01*
X99305000Y-101610000D01*
X99297649Y-101609639D01*
X99290368Y-101608559D01*
X99283229Y-101606771D01*
X99276299Y-101604291D01*
X99269645Y-101601144D01*
X99263332Y-101597360D01*
X99257421Y-101592976D01*
X99251967Y-101588033D01*
X99247024Y-101582579D01*
X99242640Y-101576668D01*
X99238856Y-101570355D01*
X99235709Y-101563701D01*
X99233229Y-101556771D01*
X99231441Y-101549632D01*
X99230361Y-101542351D01*
X99230000Y-101535000D01*
X99230000Y-100210000D01*
X99230361Y-100202649D01*
X99231441Y-100195368D01*
X99233229Y-100188229D01*
X99235709Y-100181299D01*
X99238856Y-100174645D01*
X99242640Y-100168332D01*
X99247024Y-100162421D01*
X99251967Y-100156967D01*
X99257421Y-100152024D01*
X99263332Y-100147640D01*
X99269645Y-100143856D01*
X99276299Y-100140709D01*
X99283229Y-100138229D01*
X99290368Y-100136441D01*
X99297649Y-100135361D01*
X99305000Y-100135000D01*
X99455000Y-100135000D01*
X99462351Y-100135361D01*
G37*
G36*
X98962351Y-100135361D02*
G01*
X98969632Y-100136441D01*
X98976771Y-100138229D01*
X98983701Y-100140709D01*
X98990355Y-100143856D01*
X98996668Y-100147640D01*
X99002579Y-100152024D01*
X99008033Y-100156967D01*
X99012976Y-100162421D01*
X99017360Y-100168332D01*
X99021144Y-100174645D01*
X99024291Y-100181299D01*
X99026771Y-100188229D01*
X99028559Y-100195368D01*
X99029639Y-100202649D01*
X99030000Y-100210000D01*
X99030000Y-101535000D01*
X99029639Y-101542351D01*
X99028559Y-101549632D01*
X99026771Y-101556771D01*
X99024291Y-101563701D01*
X99021144Y-101570355D01*
X99017360Y-101576668D01*
X99012976Y-101582579D01*
X99008033Y-101588033D01*
X99002579Y-101592976D01*
X98996668Y-101597360D01*
X98990355Y-101601144D01*
X98983701Y-101604291D01*
X98976771Y-101606771D01*
X98969632Y-101608559D01*
X98962351Y-101609639D01*
X98955000Y-101610000D01*
X98805000Y-101610000D01*
X98797649Y-101609639D01*
X98790368Y-101608559D01*
X98783229Y-101606771D01*
X98776299Y-101604291D01*
X98769645Y-101601144D01*
X98763332Y-101597360D01*
X98757421Y-101592976D01*
X98751967Y-101588033D01*
X98747024Y-101582579D01*
X98742640Y-101576668D01*
X98738856Y-101570355D01*
X98735709Y-101563701D01*
X98733229Y-101556771D01*
X98731441Y-101549632D01*
X98730361Y-101542351D01*
X98730000Y-101535000D01*
X98730000Y-100210000D01*
X98730361Y-100202649D01*
X98731441Y-100195368D01*
X98733229Y-100188229D01*
X98735709Y-100181299D01*
X98738856Y-100174645D01*
X98742640Y-100168332D01*
X98747024Y-100162421D01*
X98751967Y-100156967D01*
X98757421Y-100152024D01*
X98763332Y-100147640D01*
X98769645Y-100143856D01*
X98776299Y-100140709D01*
X98783229Y-100138229D01*
X98790368Y-100136441D01*
X98797649Y-100135361D01*
X98805000Y-100135000D01*
X98955000Y-100135000D01*
X98962351Y-100135361D01*
G37*
G36*
X98462351Y-100135361D02*
G01*
X98469632Y-100136441D01*
X98476771Y-100138229D01*
X98483701Y-100140709D01*
X98490355Y-100143856D01*
X98496668Y-100147640D01*
X98502579Y-100152024D01*
X98508033Y-100156967D01*
X98512976Y-100162421D01*
X98517360Y-100168332D01*
X98521144Y-100174645D01*
X98524291Y-100181299D01*
X98526771Y-100188229D01*
X98528559Y-100195368D01*
X98529639Y-100202649D01*
X98530000Y-100210000D01*
X98530000Y-101535000D01*
X98529639Y-101542351D01*
X98528559Y-101549632D01*
X98526771Y-101556771D01*
X98524291Y-101563701D01*
X98521144Y-101570355D01*
X98517360Y-101576668D01*
X98512976Y-101582579D01*
X98508033Y-101588033D01*
X98502579Y-101592976D01*
X98496668Y-101597360D01*
X98490355Y-101601144D01*
X98483701Y-101604291D01*
X98476771Y-101606771D01*
X98469632Y-101608559D01*
X98462351Y-101609639D01*
X98455000Y-101610000D01*
X98305000Y-101610000D01*
X98297649Y-101609639D01*
X98290368Y-101608559D01*
X98283229Y-101606771D01*
X98276299Y-101604291D01*
X98269645Y-101601144D01*
X98263332Y-101597360D01*
X98257421Y-101592976D01*
X98251967Y-101588033D01*
X98247024Y-101582579D01*
X98242640Y-101576668D01*
X98238856Y-101570355D01*
X98235709Y-101563701D01*
X98233229Y-101556771D01*
X98231441Y-101549632D01*
X98230361Y-101542351D01*
X98230000Y-101535000D01*
X98230000Y-100210000D01*
X98230361Y-100202649D01*
X98231441Y-100195368D01*
X98233229Y-100188229D01*
X98235709Y-100181299D01*
X98238856Y-100174645D01*
X98242640Y-100168332D01*
X98247024Y-100162421D01*
X98251967Y-100156967D01*
X98257421Y-100152024D01*
X98263332Y-100147640D01*
X98269645Y-100143856D01*
X98276299Y-100140709D01*
X98283229Y-100138229D01*
X98290368Y-100136441D01*
X98297649Y-100135361D01*
X98305000Y-100135000D01*
X98455000Y-100135000D01*
X98462351Y-100135361D01*
G37*
G36*
X97962351Y-100135361D02*
G01*
X97969632Y-100136441D01*
X97976771Y-100138229D01*
X97983701Y-100140709D01*
X97990355Y-100143856D01*
X97996668Y-100147640D01*
X98002579Y-100152024D01*
X98008033Y-100156967D01*
X98012976Y-100162421D01*
X98017360Y-100168332D01*
X98021144Y-100174645D01*
X98024291Y-100181299D01*
X98026771Y-100188229D01*
X98028559Y-100195368D01*
X98029639Y-100202649D01*
X98030000Y-100210000D01*
X98030000Y-101535000D01*
X98029639Y-101542351D01*
X98028559Y-101549632D01*
X98026771Y-101556771D01*
X98024291Y-101563701D01*
X98021144Y-101570355D01*
X98017360Y-101576668D01*
X98012976Y-101582579D01*
X98008033Y-101588033D01*
X98002579Y-101592976D01*
X97996668Y-101597360D01*
X97990355Y-101601144D01*
X97983701Y-101604291D01*
X97976771Y-101606771D01*
X97969632Y-101608559D01*
X97962351Y-101609639D01*
X97955000Y-101610000D01*
X97805000Y-101610000D01*
X97797649Y-101609639D01*
X97790368Y-101608559D01*
X97783229Y-101606771D01*
X97776299Y-101604291D01*
X97769645Y-101601144D01*
X97763332Y-101597360D01*
X97757421Y-101592976D01*
X97751967Y-101588033D01*
X97747024Y-101582579D01*
X97742640Y-101576668D01*
X97738856Y-101570355D01*
X97735709Y-101563701D01*
X97733229Y-101556771D01*
X97731441Y-101549632D01*
X97730361Y-101542351D01*
X97730000Y-101535000D01*
X97730000Y-100210000D01*
X97730361Y-100202649D01*
X97731441Y-100195368D01*
X97733229Y-100188229D01*
X97735709Y-100181299D01*
X97738856Y-100174645D01*
X97742640Y-100168332D01*
X97747024Y-100162421D01*
X97751967Y-100156967D01*
X97757421Y-100152024D01*
X97763332Y-100147640D01*
X97769645Y-100143856D01*
X97776299Y-100140709D01*
X97783229Y-100138229D01*
X97790368Y-100136441D01*
X97797649Y-100135361D01*
X97805000Y-100135000D01*
X97955000Y-100135000D01*
X97962351Y-100135361D01*
G37*
G36*
X97462351Y-100135361D02*
G01*
X97469632Y-100136441D01*
X97476771Y-100138229D01*
X97483701Y-100140709D01*
X97490355Y-100143856D01*
X97496668Y-100147640D01*
X97502579Y-100152024D01*
X97508033Y-100156967D01*
X97512976Y-100162421D01*
X97517360Y-100168332D01*
X97521144Y-100174645D01*
X97524291Y-100181299D01*
X97526771Y-100188229D01*
X97528559Y-100195368D01*
X97529639Y-100202649D01*
X97530000Y-100210000D01*
X97530000Y-101535000D01*
X97529639Y-101542351D01*
X97528559Y-101549632D01*
X97526771Y-101556771D01*
X97524291Y-101563701D01*
X97521144Y-101570355D01*
X97517360Y-101576668D01*
X97512976Y-101582579D01*
X97508033Y-101588033D01*
X97502579Y-101592976D01*
X97496668Y-101597360D01*
X97490355Y-101601144D01*
X97483701Y-101604291D01*
X97476771Y-101606771D01*
X97469632Y-101608559D01*
X97462351Y-101609639D01*
X97455000Y-101610000D01*
X97305000Y-101610000D01*
X97297649Y-101609639D01*
X97290368Y-101608559D01*
X97283229Y-101606771D01*
X97276299Y-101604291D01*
X97269645Y-101601144D01*
X97263332Y-101597360D01*
X97257421Y-101592976D01*
X97251967Y-101588033D01*
X97247024Y-101582579D01*
X97242640Y-101576668D01*
X97238856Y-101570355D01*
X97235709Y-101563701D01*
X97233229Y-101556771D01*
X97231441Y-101549632D01*
X97230361Y-101542351D01*
X97230000Y-101535000D01*
X97230000Y-100210000D01*
X97230361Y-100202649D01*
X97231441Y-100195368D01*
X97233229Y-100188229D01*
X97235709Y-100181299D01*
X97238856Y-100174645D01*
X97242640Y-100168332D01*
X97247024Y-100162421D01*
X97251967Y-100156967D01*
X97257421Y-100152024D01*
X97263332Y-100147640D01*
X97269645Y-100143856D01*
X97276299Y-100140709D01*
X97283229Y-100138229D01*
X97290368Y-100136441D01*
X97297649Y-100135361D01*
X97305000Y-100135000D01*
X97455000Y-100135000D01*
X97462351Y-100135361D01*
G37*
G36*
X96962351Y-100135361D02*
G01*
X96969632Y-100136441D01*
X96976771Y-100138229D01*
X96983701Y-100140709D01*
X96990355Y-100143856D01*
X96996668Y-100147640D01*
X97002579Y-100152024D01*
X97008033Y-100156967D01*
X97012976Y-100162421D01*
X97017360Y-100168332D01*
X97021144Y-100174645D01*
X97024291Y-100181299D01*
X97026771Y-100188229D01*
X97028559Y-100195368D01*
X97029639Y-100202649D01*
X97030000Y-100210000D01*
X97030000Y-101535000D01*
X97029639Y-101542351D01*
X97028559Y-101549632D01*
X97026771Y-101556771D01*
X97024291Y-101563701D01*
X97021144Y-101570355D01*
X97017360Y-101576668D01*
X97012976Y-101582579D01*
X97008033Y-101588033D01*
X97002579Y-101592976D01*
X96996668Y-101597360D01*
X96990355Y-101601144D01*
X96983701Y-101604291D01*
X96976771Y-101606771D01*
X96969632Y-101608559D01*
X96962351Y-101609639D01*
X96955000Y-101610000D01*
X96805000Y-101610000D01*
X96797649Y-101609639D01*
X96790368Y-101608559D01*
X96783229Y-101606771D01*
X96776299Y-101604291D01*
X96769645Y-101601144D01*
X96763332Y-101597360D01*
X96757421Y-101592976D01*
X96751967Y-101588033D01*
X96747024Y-101582579D01*
X96742640Y-101576668D01*
X96738856Y-101570355D01*
X96735709Y-101563701D01*
X96733229Y-101556771D01*
X96731441Y-101549632D01*
X96730361Y-101542351D01*
X96730000Y-101535000D01*
X96730000Y-100210000D01*
X96730361Y-100202649D01*
X96731441Y-100195368D01*
X96733229Y-100188229D01*
X96735709Y-100181299D01*
X96738856Y-100174645D01*
X96742640Y-100168332D01*
X96747024Y-100162421D01*
X96751967Y-100156967D01*
X96757421Y-100152024D01*
X96763332Y-100147640D01*
X96769645Y-100143856D01*
X96776299Y-100140709D01*
X96783229Y-100138229D01*
X96790368Y-100136441D01*
X96797649Y-100135361D01*
X96805000Y-100135000D01*
X96955000Y-100135000D01*
X96962351Y-100135361D01*
G37*
G36*
X96462351Y-100135361D02*
G01*
X96469632Y-100136441D01*
X96476771Y-100138229D01*
X96483701Y-100140709D01*
X96490355Y-100143856D01*
X96496668Y-100147640D01*
X96502579Y-100152024D01*
X96508033Y-100156967D01*
X96512976Y-100162421D01*
X96517360Y-100168332D01*
X96521144Y-100174645D01*
X96524291Y-100181299D01*
X96526771Y-100188229D01*
X96528559Y-100195368D01*
X96529639Y-100202649D01*
X96530000Y-100210000D01*
X96530000Y-101535000D01*
X96529639Y-101542351D01*
X96528559Y-101549632D01*
X96526771Y-101556771D01*
X96524291Y-101563701D01*
X96521144Y-101570355D01*
X96517360Y-101576668D01*
X96512976Y-101582579D01*
X96508033Y-101588033D01*
X96502579Y-101592976D01*
X96496668Y-101597360D01*
X96490355Y-101601144D01*
X96483701Y-101604291D01*
X96476771Y-101606771D01*
X96469632Y-101608559D01*
X96462351Y-101609639D01*
X96455000Y-101610000D01*
X96305000Y-101610000D01*
X96297649Y-101609639D01*
X96290368Y-101608559D01*
X96283229Y-101606771D01*
X96276299Y-101604291D01*
X96269645Y-101601144D01*
X96263332Y-101597360D01*
X96257421Y-101592976D01*
X96251967Y-101588033D01*
X96247024Y-101582579D01*
X96242640Y-101576668D01*
X96238856Y-101570355D01*
X96235709Y-101563701D01*
X96233229Y-101556771D01*
X96231441Y-101549632D01*
X96230361Y-101542351D01*
X96230000Y-101535000D01*
X96230000Y-100210000D01*
X96230361Y-100202649D01*
X96231441Y-100195368D01*
X96233229Y-100188229D01*
X96235709Y-100181299D01*
X96238856Y-100174645D01*
X96242640Y-100168332D01*
X96247024Y-100162421D01*
X96251967Y-100156967D01*
X96257421Y-100152024D01*
X96263332Y-100147640D01*
X96269645Y-100143856D01*
X96276299Y-100140709D01*
X96283229Y-100138229D01*
X96290368Y-100136441D01*
X96297649Y-100135361D01*
X96305000Y-100135000D01*
X96455000Y-100135000D01*
X96462351Y-100135361D01*
G37*
G36*
X95962351Y-100135361D02*
G01*
X95969632Y-100136441D01*
X95976771Y-100138229D01*
X95983701Y-100140709D01*
X95990355Y-100143856D01*
X95996668Y-100147640D01*
X96002579Y-100152024D01*
X96008033Y-100156967D01*
X96012976Y-100162421D01*
X96017360Y-100168332D01*
X96021144Y-100174645D01*
X96024291Y-100181299D01*
X96026771Y-100188229D01*
X96028559Y-100195368D01*
X96029639Y-100202649D01*
X96030000Y-100210000D01*
X96030000Y-101535000D01*
X96029639Y-101542351D01*
X96028559Y-101549632D01*
X96026771Y-101556771D01*
X96024291Y-101563701D01*
X96021144Y-101570355D01*
X96017360Y-101576668D01*
X96012976Y-101582579D01*
X96008033Y-101588033D01*
X96002579Y-101592976D01*
X95996668Y-101597360D01*
X95990355Y-101601144D01*
X95983701Y-101604291D01*
X95976771Y-101606771D01*
X95969632Y-101608559D01*
X95962351Y-101609639D01*
X95955000Y-101610000D01*
X95805000Y-101610000D01*
X95797649Y-101609639D01*
X95790368Y-101608559D01*
X95783229Y-101606771D01*
X95776299Y-101604291D01*
X95769645Y-101601144D01*
X95763332Y-101597360D01*
X95757421Y-101592976D01*
X95751967Y-101588033D01*
X95747024Y-101582579D01*
X95742640Y-101576668D01*
X95738856Y-101570355D01*
X95735709Y-101563701D01*
X95733229Y-101556771D01*
X95731441Y-101549632D01*
X95730361Y-101542351D01*
X95730000Y-101535000D01*
X95730000Y-100210000D01*
X95730361Y-100202649D01*
X95731441Y-100195368D01*
X95733229Y-100188229D01*
X95735709Y-100181299D01*
X95738856Y-100174645D01*
X95742640Y-100168332D01*
X95747024Y-100162421D01*
X95751967Y-100156967D01*
X95757421Y-100152024D01*
X95763332Y-100147640D01*
X95769645Y-100143856D01*
X95776299Y-100140709D01*
X95783229Y-100138229D01*
X95790368Y-100136441D01*
X95797649Y-100135361D01*
X95805000Y-100135000D01*
X95955000Y-100135000D01*
X95962351Y-100135361D01*
G37*
G36*
X95137351Y-99310361D02*
G01*
X95144632Y-99311441D01*
X95151771Y-99313229D01*
X95158701Y-99315709D01*
X95165355Y-99318856D01*
X95171668Y-99322640D01*
X95177579Y-99327024D01*
X95183033Y-99331967D01*
X95187976Y-99337421D01*
X95192360Y-99343332D01*
X95196144Y-99349645D01*
X95199291Y-99356299D01*
X95201771Y-99363229D01*
X95203559Y-99370368D01*
X95204639Y-99377649D01*
X95205000Y-99385000D01*
X95205000Y-99535000D01*
X95204639Y-99542351D01*
X95203559Y-99549632D01*
X95201771Y-99556771D01*
X95199291Y-99563701D01*
X95196144Y-99570355D01*
X95192360Y-99576668D01*
X95187976Y-99582579D01*
X95183033Y-99588033D01*
X95177579Y-99592976D01*
X95171668Y-99597360D01*
X95165355Y-99601144D01*
X95158701Y-99604291D01*
X95151771Y-99606771D01*
X95144632Y-99608559D01*
X95137351Y-99609639D01*
X95130000Y-99610000D01*
X93805000Y-99610000D01*
X93797649Y-99609639D01*
X93790368Y-99608559D01*
X93783229Y-99606771D01*
X93776299Y-99604291D01*
X93769645Y-99601144D01*
X93763332Y-99597360D01*
X93757421Y-99592976D01*
X93751967Y-99588033D01*
X93747024Y-99582579D01*
X93742640Y-99576668D01*
X93738856Y-99570355D01*
X93735709Y-99563701D01*
X93733229Y-99556771D01*
X93731441Y-99549632D01*
X93730361Y-99542351D01*
X93730000Y-99535000D01*
X93730000Y-99385000D01*
X93730361Y-99377649D01*
X93731441Y-99370368D01*
X93733229Y-99363229D01*
X93735709Y-99356299D01*
X93738856Y-99349645D01*
X93742640Y-99343332D01*
X93747024Y-99337421D01*
X93751967Y-99331967D01*
X93757421Y-99327024D01*
X93763332Y-99322640D01*
X93769645Y-99318856D01*
X93776299Y-99315709D01*
X93783229Y-99313229D01*
X93790368Y-99311441D01*
X93797649Y-99310361D01*
X93805000Y-99310000D01*
X95130000Y-99310000D01*
X95137351Y-99310361D01*
G37*
G36*
X95137351Y-98810361D02*
G01*
X95144632Y-98811441D01*
X95151771Y-98813229D01*
X95158701Y-98815709D01*
X95165355Y-98818856D01*
X95171668Y-98822640D01*
X95177579Y-98827024D01*
X95183033Y-98831967D01*
X95187976Y-98837421D01*
X95192360Y-98843332D01*
X95196144Y-98849645D01*
X95199291Y-98856299D01*
X95201771Y-98863229D01*
X95203559Y-98870368D01*
X95204639Y-98877649D01*
X95205000Y-98885000D01*
X95205000Y-99035000D01*
X95204639Y-99042351D01*
X95203559Y-99049632D01*
X95201771Y-99056771D01*
X95199291Y-99063701D01*
X95196144Y-99070355D01*
X95192360Y-99076668D01*
X95187976Y-99082579D01*
X95183033Y-99088033D01*
X95177579Y-99092976D01*
X95171668Y-99097360D01*
X95165355Y-99101144D01*
X95158701Y-99104291D01*
X95151771Y-99106771D01*
X95144632Y-99108559D01*
X95137351Y-99109639D01*
X95130000Y-99110000D01*
X93805000Y-99110000D01*
X93797649Y-99109639D01*
X93790368Y-99108559D01*
X93783229Y-99106771D01*
X93776299Y-99104291D01*
X93769645Y-99101144D01*
X93763332Y-99097360D01*
X93757421Y-99092976D01*
X93751967Y-99088033D01*
X93747024Y-99082579D01*
X93742640Y-99076668D01*
X93738856Y-99070355D01*
X93735709Y-99063701D01*
X93733229Y-99056771D01*
X93731441Y-99049632D01*
X93730361Y-99042351D01*
X93730000Y-99035000D01*
X93730000Y-98885000D01*
X93730361Y-98877649D01*
X93731441Y-98870368D01*
X93733229Y-98863229D01*
X93735709Y-98856299D01*
X93738856Y-98849645D01*
X93742640Y-98843332D01*
X93747024Y-98837421D01*
X93751967Y-98831967D01*
X93757421Y-98827024D01*
X93763332Y-98822640D01*
X93769645Y-98818856D01*
X93776299Y-98815709D01*
X93783229Y-98813229D01*
X93790368Y-98811441D01*
X93797649Y-98810361D01*
X93805000Y-98810000D01*
X95130000Y-98810000D01*
X95137351Y-98810361D01*
G37*
G36*
X95137351Y-98310361D02*
G01*
X95144632Y-98311441D01*
X95151771Y-98313229D01*
X95158701Y-98315709D01*
X95165355Y-98318856D01*
X95171668Y-98322640D01*
X95177579Y-98327024D01*
X95183033Y-98331967D01*
X95187976Y-98337421D01*
X95192360Y-98343332D01*
X95196144Y-98349645D01*
X95199291Y-98356299D01*
X95201771Y-98363229D01*
X95203559Y-98370368D01*
X95204639Y-98377649D01*
X95205000Y-98385000D01*
X95205000Y-98535000D01*
X95204639Y-98542351D01*
X95203559Y-98549632D01*
X95201771Y-98556771D01*
X95199291Y-98563701D01*
X95196144Y-98570355D01*
X95192360Y-98576668D01*
X95187976Y-98582579D01*
X95183033Y-98588033D01*
X95177579Y-98592976D01*
X95171668Y-98597360D01*
X95165355Y-98601144D01*
X95158701Y-98604291D01*
X95151771Y-98606771D01*
X95144632Y-98608559D01*
X95137351Y-98609639D01*
X95130000Y-98610000D01*
X93805000Y-98610000D01*
X93797649Y-98609639D01*
X93790368Y-98608559D01*
X93783229Y-98606771D01*
X93776299Y-98604291D01*
X93769645Y-98601144D01*
X93763332Y-98597360D01*
X93757421Y-98592976D01*
X93751967Y-98588033D01*
X93747024Y-98582579D01*
X93742640Y-98576668D01*
X93738856Y-98570355D01*
X93735709Y-98563701D01*
X93733229Y-98556771D01*
X93731441Y-98549632D01*
X93730361Y-98542351D01*
X93730000Y-98535000D01*
X93730000Y-98385000D01*
X93730361Y-98377649D01*
X93731441Y-98370368D01*
X93733229Y-98363229D01*
X93735709Y-98356299D01*
X93738856Y-98349645D01*
X93742640Y-98343332D01*
X93747024Y-98337421D01*
X93751967Y-98331967D01*
X93757421Y-98327024D01*
X93763332Y-98322640D01*
X93769645Y-98318856D01*
X93776299Y-98315709D01*
X93783229Y-98313229D01*
X93790368Y-98311441D01*
X93797649Y-98310361D01*
X93805000Y-98310000D01*
X95130000Y-98310000D01*
X95137351Y-98310361D01*
G37*
G36*
X95137351Y-97810361D02*
G01*
X95144632Y-97811441D01*
X95151771Y-97813229D01*
X95158701Y-97815709D01*
X95165355Y-97818856D01*
X95171668Y-97822640D01*
X95177579Y-97827024D01*
X95183033Y-97831967D01*
X95187976Y-97837421D01*
X95192360Y-97843332D01*
X95196144Y-97849645D01*
X95199291Y-97856299D01*
X95201771Y-97863229D01*
X95203559Y-97870368D01*
X95204639Y-97877649D01*
X95205000Y-97885000D01*
X95205000Y-98035000D01*
X95204639Y-98042351D01*
X95203559Y-98049632D01*
X95201771Y-98056771D01*
X95199291Y-98063701D01*
X95196144Y-98070355D01*
X95192360Y-98076668D01*
X95187976Y-98082579D01*
X95183033Y-98088033D01*
X95177579Y-98092976D01*
X95171668Y-98097360D01*
X95165355Y-98101144D01*
X95158701Y-98104291D01*
X95151771Y-98106771D01*
X95144632Y-98108559D01*
X95137351Y-98109639D01*
X95130000Y-98110000D01*
X93805000Y-98110000D01*
X93797649Y-98109639D01*
X93790368Y-98108559D01*
X93783229Y-98106771D01*
X93776299Y-98104291D01*
X93769645Y-98101144D01*
X93763332Y-98097360D01*
X93757421Y-98092976D01*
X93751967Y-98088033D01*
X93747024Y-98082579D01*
X93742640Y-98076668D01*
X93738856Y-98070355D01*
X93735709Y-98063701D01*
X93733229Y-98056771D01*
X93731441Y-98049632D01*
X93730361Y-98042351D01*
X93730000Y-98035000D01*
X93730000Y-97885000D01*
X93730361Y-97877649D01*
X93731441Y-97870368D01*
X93733229Y-97863229D01*
X93735709Y-97856299D01*
X93738856Y-97849645D01*
X93742640Y-97843332D01*
X93747024Y-97837421D01*
X93751967Y-97831967D01*
X93757421Y-97827024D01*
X93763332Y-97822640D01*
X93769645Y-97818856D01*
X93776299Y-97815709D01*
X93783229Y-97813229D01*
X93790368Y-97811441D01*
X93797649Y-97810361D01*
X93805000Y-97810000D01*
X95130000Y-97810000D01*
X95137351Y-97810361D01*
G37*
G36*
X95137351Y-97310361D02*
G01*
X95144632Y-97311441D01*
X95151771Y-97313229D01*
X95158701Y-97315709D01*
X95165355Y-97318856D01*
X95171668Y-97322640D01*
X95177579Y-97327024D01*
X95183033Y-97331967D01*
X95187976Y-97337421D01*
X95192360Y-97343332D01*
X95196144Y-97349645D01*
X95199291Y-97356299D01*
X95201771Y-97363229D01*
X95203559Y-97370368D01*
X95204639Y-97377649D01*
X95205000Y-97385000D01*
X95205000Y-97535000D01*
X95204639Y-97542351D01*
X95203559Y-97549632D01*
X95201771Y-97556771D01*
X95199291Y-97563701D01*
X95196144Y-97570355D01*
X95192360Y-97576668D01*
X95187976Y-97582579D01*
X95183033Y-97588033D01*
X95177579Y-97592976D01*
X95171668Y-97597360D01*
X95165355Y-97601144D01*
X95158701Y-97604291D01*
X95151771Y-97606771D01*
X95144632Y-97608559D01*
X95137351Y-97609639D01*
X95130000Y-97610000D01*
X93805000Y-97610000D01*
X93797649Y-97609639D01*
X93790368Y-97608559D01*
X93783229Y-97606771D01*
X93776299Y-97604291D01*
X93769645Y-97601144D01*
X93763332Y-97597360D01*
X93757421Y-97592976D01*
X93751967Y-97588033D01*
X93747024Y-97582579D01*
X93742640Y-97576668D01*
X93738856Y-97570355D01*
X93735709Y-97563701D01*
X93733229Y-97556771D01*
X93731441Y-97549632D01*
X93730361Y-97542351D01*
X93730000Y-97535000D01*
X93730000Y-97385000D01*
X93730361Y-97377649D01*
X93731441Y-97370368D01*
X93733229Y-97363229D01*
X93735709Y-97356299D01*
X93738856Y-97349645D01*
X93742640Y-97343332D01*
X93747024Y-97337421D01*
X93751967Y-97331967D01*
X93757421Y-97327024D01*
X93763332Y-97322640D01*
X93769645Y-97318856D01*
X93776299Y-97315709D01*
X93783229Y-97313229D01*
X93790368Y-97311441D01*
X93797649Y-97310361D01*
X93805000Y-97310000D01*
X95130000Y-97310000D01*
X95137351Y-97310361D01*
G37*
G36*
X95137351Y-96810361D02*
G01*
X95144632Y-96811441D01*
X95151771Y-96813229D01*
X95158701Y-96815709D01*
X95165355Y-96818856D01*
X95171668Y-96822640D01*
X95177579Y-96827024D01*
X95183033Y-96831967D01*
X95187976Y-96837421D01*
X95192360Y-96843332D01*
X95196144Y-96849645D01*
X95199291Y-96856299D01*
X95201771Y-96863229D01*
X95203559Y-96870368D01*
X95204639Y-96877649D01*
X95205000Y-96885000D01*
X95205000Y-97035000D01*
X95204639Y-97042351D01*
X95203559Y-97049632D01*
X95201771Y-97056771D01*
X95199291Y-97063701D01*
X95196144Y-97070355D01*
X95192360Y-97076668D01*
X95187976Y-97082579D01*
X95183033Y-97088033D01*
X95177579Y-97092976D01*
X95171668Y-97097360D01*
X95165355Y-97101144D01*
X95158701Y-97104291D01*
X95151771Y-97106771D01*
X95144632Y-97108559D01*
X95137351Y-97109639D01*
X95130000Y-97110000D01*
X93805000Y-97110000D01*
X93797649Y-97109639D01*
X93790368Y-97108559D01*
X93783229Y-97106771D01*
X93776299Y-97104291D01*
X93769645Y-97101144D01*
X93763332Y-97097360D01*
X93757421Y-97092976D01*
X93751967Y-97088033D01*
X93747024Y-97082579D01*
X93742640Y-97076668D01*
X93738856Y-97070355D01*
X93735709Y-97063701D01*
X93733229Y-97056771D01*
X93731441Y-97049632D01*
X93730361Y-97042351D01*
X93730000Y-97035000D01*
X93730000Y-96885000D01*
X93730361Y-96877649D01*
X93731441Y-96870368D01*
X93733229Y-96863229D01*
X93735709Y-96856299D01*
X93738856Y-96849645D01*
X93742640Y-96843332D01*
X93747024Y-96837421D01*
X93751967Y-96831967D01*
X93757421Y-96827024D01*
X93763332Y-96822640D01*
X93769645Y-96818856D01*
X93776299Y-96815709D01*
X93783229Y-96813229D01*
X93790368Y-96811441D01*
X93797649Y-96810361D01*
X93805000Y-96810000D01*
X95130000Y-96810000D01*
X95137351Y-96810361D01*
G37*
G36*
X95137351Y-96310361D02*
G01*
X95144632Y-96311441D01*
X95151771Y-96313229D01*
X95158701Y-96315709D01*
X95165355Y-96318856D01*
X95171668Y-96322640D01*
X95177579Y-96327024D01*
X95183033Y-96331967D01*
X95187976Y-96337421D01*
X95192360Y-96343332D01*
X95196144Y-96349645D01*
X95199291Y-96356299D01*
X95201771Y-96363229D01*
X95203559Y-96370368D01*
X95204639Y-96377649D01*
X95205000Y-96385000D01*
X95205000Y-96535000D01*
X95204639Y-96542351D01*
X95203559Y-96549632D01*
X95201771Y-96556771D01*
X95199291Y-96563701D01*
X95196144Y-96570355D01*
X95192360Y-96576668D01*
X95187976Y-96582579D01*
X95183033Y-96588033D01*
X95177579Y-96592976D01*
X95171668Y-96597360D01*
X95165355Y-96601144D01*
X95158701Y-96604291D01*
X95151771Y-96606771D01*
X95144632Y-96608559D01*
X95137351Y-96609639D01*
X95130000Y-96610000D01*
X93805000Y-96610000D01*
X93797649Y-96609639D01*
X93790368Y-96608559D01*
X93783229Y-96606771D01*
X93776299Y-96604291D01*
X93769645Y-96601144D01*
X93763332Y-96597360D01*
X93757421Y-96592976D01*
X93751967Y-96588033D01*
X93747024Y-96582579D01*
X93742640Y-96576668D01*
X93738856Y-96570355D01*
X93735709Y-96563701D01*
X93733229Y-96556771D01*
X93731441Y-96549632D01*
X93730361Y-96542351D01*
X93730000Y-96535000D01*
X93730000Y-96385000D01*
X93730361Y-96377649D01*
X93731441Y-96370368D01*
X93733229Y-96363229D01*
X93735709Y-96356299D01*
X93738856Y-96349645D01*
X93742640Y-96343332D01*
X93747024Y-96337421D01*
X93751967Y-96331967D01*
X93757421Y-96327024D01*
X93763332Y-96322640D01*
X93769645Y-96318856D01*
X93776299Y-96315709D01*
X93783229Y-96313229D01*
X93790368Y-96311441D01*
X93797649Y-96310361D01*
X93805000Y-96310000D01*
X95130000Y-96310000D01*
X95137351Y-96310361D01*
G37*
G36*
X95137351Y-95810361D02*
G01*
X95144632Y-95811441D01*
X95151771Y-95813229D01*
X95158701Y-95815709D01*
X95165355Y-95818856D01*
X95171668Y-95822640D01*
X95177579Y-95827024D01*
X95183033Y-95831967D01*
X95187976Y-95837421D01*
X95192360Y-95843332D01*
X95196144Y-95849645D01*
X95199291Y-95856299D01*
X95201771Y-95863229D01*
X95203559Y-95870368D01*
X95204639Y-95877649D01*
X95205000Y-95885000D01*
X95205000Y-96035000D01*
X95204639Y-96042351D01*
X95203559Y-96049632D01*
X95201771Y-96056771D01*
X95199291Y-96063701D01*
X95196144Y-96070355D01*
X95192360Y-96076668D01*
X95187976Y-96082579D01*
X95183033Y-96088033D01*
X95177579Y-96092976D01*
X95171668Y-96097360D01*
X95165355Y-96101144D01*
X95158701Y-96104291D01*
X95151771Y-96106771D01*
X95144632Y-96108559D01*
X95137351Y-96109639D01*
X95130000Y-96110000D01*
X93805000Y-96110000D01*
X93797649Y-96109639D01*
X93790368Y-96108559D01*
X93783229Y-96106771D01*
X93776299Y-96104291D01*
X93769645Y-96101144D01*
X93763332Y-96097360D01*
X93757421Y-96092976D01*
X93751967Y-96088033D01*
X93747024Y-96082579D01*
X93742640Y-96076668D01*
X93738856Y-96070355D01*
X93735709Y-96063701D01*
X93733229Y-96056771D01*
X93731441Y-96049632D01*
X93730361Y-96042351D01*
X93730000Y-96035000D01*
X93730000Y-95885000D01*
X93730361Y-95877649D01*
X93731441Y-95870368D01*
X93733229Y-95863229D01*
X93735709Y-95856299D01*
X93738856Y-95849645D01*
X93742640Y-95843332D01*
X93747024Y-95837421D01*
X93751967Y-95831967D01*
X93757421Y-95827024D01*
X93763332Y-95822640D01*
X93769645Y-95818856D01*
X93776299Y-95815709D01*
X93783229Y-95813229D01*
X93790368Y-95811441D01*
X93797649Y-95810361D01*
X93805000Y-95810000D01*
X95130000Y-95810000D01*
X95137351Y-95810361D01*
G37*
G36*
X95137351Y-95310361D02*
G01*
X95144632Y-95311441D01*
X95151771Y-95313229D01*
X95158701Y-95315709D01*
X95165355Y-95318856D01*
X95171668Y-95322640D01*
X95177579Y-95327024D01*
X95183033Y-95331967D01*
X95187976Y-95337421D01*
X95192360Y-95343332D01*
X95196144Y-95349645D01*
X95199291Y-95356299D01*
X95201771Y-95363229D01*
X95203559Y-95370368D01*
X95204639Y-95377649D01*
X95205000Y-95385000D01*
X95205000Y-95535000D01*
X95204639Y-95542351D01*
X95203559Y-95549632D01*
X95201771Y-95556771D01*
X95199291Y-95563701D01*
X95196144Y-95570355D01*
X95192360Y-95576668D01*
X95187976Y-95582579D01*
X95183033Y-95588033D01*
X95177579Y-95592976D01*
X95171668Y-95597360D01*
X95165355Y-95601144D01*
X95158701Y-95604291D01*
X95151771Y-95606771D01*
X95144632Y-95608559D01*
X95137351Y-95609639D01*
X95130000Y-95610000D01*
X93805000Y-95610000D01*
X93797649Y-95609639D01*
X93790368Y-95608559D01*
X93783229Y-95606771D01*
X93776299Y-95604291D01*
X93769645Y-95601144D01*
X93763332Y-95597360D01*
X93757421Y-95592976D01*
X93751967Y-95588033D01*
X93747024Y-95582579D01*
X93742640Y-95576668D01*
X93738856Y-95570355D01*
X93735709Y-95563701D01*
X93733229Y-95556771D01*
X93731441Y-95549632D01*
X93730361Y-95542351D01*
X93730000Y-95535000D01*
X93730000Y-95385000D01*
X93730361Y-95377649D01*
X93731441Y-95370368D01*
X93733229Y-95363229D01*
X93735709Y-95356299D01*
X93738856Y-95349645D01*
X93742640Y-95343332D01*
X93747024Y-95337421D01*
X93751967Y-95331967D01*
X93757421Y-95327024D01*
X93763332Y-95322640D01*
X93769645Y-95318856D01*
X93776299Y-95315709D01*
X93783229Y-95313229D01*
X93790368Y-95311441D01*
X93797649Y-95310361D01*
X93805000Y-95310000D01*
X95130000Y-95310000D01*
X95137351Y-95310361D01*
G37*
G36*
X95137351Y-94810361D02*
G01*
X95144632Y-94811441D01*
X95151771Y-94813229D01*
X95158701Y-94815709D01*
X95165355Y-94818856D01*
X95171668Y-94822640D01*
X95177579Y-94827024D01*
X95183033Y-94831967D01*
X95187976Y-94837421D01*
X95192360Y-94843332D01*
X95196144Y-94849645D01*
X95199291Y-94856299D01*
X95201771Y-94863229D01*
X95203559Y-94870368D01*
X95204639Y-94877649D01*
X95205000Y-94885000D01*
X95205000Y-95035000D01*
X95204639Y-95042351D01*
X95203559Y-95049632D01*
X95201771Y-95056771D01*
X95199291Y-95063701D01*
X95196144Y-95070355D01*
X95192360Y-95076668D01*
X95187976Y-95082579D01*
X95183033Y-95088033D01*
X95177579Y-95092976D01*
X95171668Y-95097360D01*
X95165355Y-95101144D01*
X95158701Y-95104291D01*
X95151771Y-95106771D01*
X95144632Y-95108559D01*
X95137351Y-95109639D01*
X95130000Y-95110000D01*
X93805000Y-95110000D01*
X93797649Y-95109639D01*
X93790368Y-95108559D01*
X93783229Y-95106771D01*
X93776299Y-95104291D01*
X93769645Y-95101144D01*
X93763332Y-95097360D01*
X93757421Y-95092976D01*
X93751967Y-95088033D01*
X93747024Y-95082579D01*
X93742640Y-95076668D01*
X93738856Y-95070355D01*
X93735709Y-95063701D01*
X93733229Y-95056771D01*
X93731441Y-95049632D01*
X93730361Y-95042351D01*
X93730000Y-95035000D01*
X93730000Y-94885000D01*
X93730361Y-94877649D01*
X93731441Y-94870368D01*
X93733229Y-94863229D01*
X93735709Y-94856299D01*
X93738856Y-94849645D01*
X93742640Y-94843332D01*
X93747024Y-94837421D01*
X93751967Y-94831967D01*
X93757421Y-94827024D01*
X93763332Y-94822640D01*
X93769645Y-94818856D01*
X93776299Y-94815709D01*
X93783229Y-94813229D01*
X93790368Y-94811441D01*
X93797649Y-94810361D01*
X93805000Y-94810000D01*
X95130000Y-94810000D01*
X95137351Y-94810361D01*
G37*
G36*
X95137351Y-94310361D02*
G01*
X95144632Y-94311441D01*
X95151771Y-94313229D01*
X95158701Y-94315709D01*
X95165355Y-94318856D01*
X95171668Y-94322640D01*
X95177579Y-94327024D01*
X95183033Y-94331967D01*
X95187976Y-94337421D01*
X95192360Y-94343332D01*
X95196144Y-94349645D01*
X95199291Y-94356299D01*
X95201771Y-94363229D01*
X95203559Y-94370368D01*
X95204639Y-94377649D01*
X95205000Y-94385000D01*
X95205000Y-94535000D01*
X95204639Y-94542351D01*
X95203559Y-94549632D01*
X95201771Y-94556771D01*
X95199291Y-94563701D01*
X95196144Y-94570355D01*
X95192360Y-94576668D01*
X95187976Y-94582579D01*
X95183033Y-94588033D01*
X95177579Y-94592976D01*
X95171668Y-94597360D01*
X95165355Y-94601144D01*
X95158701Y-94604291D01*
X95151771Y-94606771D01*
X95144632Y-94608559D01*
X95137351Y-94609639D01*
X95130000Y-94610000D01*
X93805000Y-94610000D01*
X93797649Y-94609639D01*
X93790368Y-94608559D01*
X93783229Y-94606771D01*
X93776299Y-94604291D01*
X93769645Y-94601144D01*
X93763332Y-94597360D01*
X93757421Y-94592976D01*
X93751967Y-94588033D01*
X93747024Y-94582579D01*
X93742640Y-94576668D01*
X93738856Y-94570355D01*
X93735709Y-94563701D01*
X93733229Y-94556771D01*
X93731441Y-94549632D01*
X93730361Y-94542351D01*
X93730000Y-94535000D01*
X93730000Y-94385000D01*
X93730361Y-94377649D01*
X93731441Y-94370368D01*
X93733229Y-94363229D01*
X93735709Y-94356299D01*
X93738856Y-94349645D01*
X93742640Y-94343332D01*
X93747024Y-94337421D01*
X93751967Y-94331967D01*
X93757421Y-94327024D01*
X93763332Y-94322640D01*
X93769645Y-94318856D01*
X93776299Y-94315709D01*
X93783229Y-94313229D01*
X93790368Y-94311441D01*
X93797649Y-94310361D01*
X93805000Y-94310000D01*
X95130000Y-94310000D01*
X95137351Y-94310361D01*
G37*
G36*
X95137351Y-93810361D02*
G01*
X95144632Y-93811441D01*
X95151771Y-93813229D01*
X95158701Y-93815709D01*
X95165355Y-93818856D01*
X95171668Y-93822640D01*
X95177579Y-93827024D01*
X95183033Y-93831967D01*
X95187976Y-93837421D01*
X95192360Y-93843332D01*
X95196144Y-93849645D01*
X95199291Y-93856299D01*
X95201771Y-93863229D01*
X95203559Y-93870368D01*
X95204639Y-93877649D01*
X95205000Y-93885000D01*
X95205000Y-94035000D01*
X95204639Y-94042351D01*
X95203559Y-94049632D01*
X95201771Y-94056771D01*
X95199291Y-94063701D01*
X95196144Y-94070355D01*
X95192360Y-94076668D01*
X95187976Y-94082579D01*
X95183033Y-94088033D01*
X95177579Y-94092976D01*
X95171668Y-94097360D01*
X95165355Y-94101144D01*
X95158701Y-94104291D01*
X95151771Y-94106771D01*
X95144632Y-94108559D01*
X95137351Y-94109639D01*
X95130000Y-94110000D01*
X93805000Y-94110000D01*
X93797649Y-94109639D01*
X93790368Y-94108559D01*
X93783229Y-94106771D01*
X93776299Y-94104291D01*
X93769645Y-94101144D01*
X93763332Y-94097360D01*
X93757421Y-94092976D01*
X93751967Y-94088033D01*
X93747024Y-94082579D01*
X93742640Y-94076668D01*
X93738856Y-94070355D01*
X93735709Y-94063701D01*
X93733229Y-94056771D01*
X93731441Y-94049632D01*
X93730361Y-94042351D01*
X93730000Y-94035000D01*
X93730000Y-93885000D01*
X93730361Y-93877649D01*
X93731441Y-93870368D01*
X93733229Y-93863229D01*
X93735709Y-93856299D01*
X93738856Y-93849645D01*
X93742640Y-93843332D01*
X93747024Y-93837421D01*
X93751967Y-93831967D01*
X93757421Y-93827024D01*
X93763332Y-93822640D01*
X93769645Y-93818856D01*
X93776299Y-93815709D01*
X93783229Y-93813229D01*
X93790368Y-93811441D01*
X93797649Y-93810361D01*
X93805000Y-93810000D01*
X95130000Y-93810000D01*
X95137351Y-93810361D01*
G37*
%TD*%
D13*
%TO.C,Y1*%
X91250000Y-94600000D03*
D14*
X91250000Y-95800000D03*
D13*
X91250000Y-97000000D03*
%TD*%
D15*
%TO.C,U2*%
X105150000Y-91650000D03*
X105150000Y-92600000D03*
X105150000Y-90700000D03*
X107350000Y-90700000D03*
X107350000Y-91650000D03*
X107350000Y-92600000D03*
%TD*%
D16*
%TO.C,D3*%
X105000000Y-94250000D03*
X105000000Y-97550000D03*
%TD*%
D10*
%TO.C,C6*%
G36*
X103677691Y-90576053D02*
G01*
X103698926Y-90579203D01*
X103719750Y-90584419D01*
X103739962Y-90591651D01*
X103759368Y-90600830D01*
X103777781Y-90611866D01*
X103795024Y-90624654D01*
X103810930Y-90639070D01*
X103825346Y-90654976D01*
X103838134Y-90672219D01*
X103849170Y-90690632D01*
X103858349Y-90710038D01*
X103865581Y-90730250D01*
X103870797Y-90751074D01*
X103873947Y-90772309D01*
X103875000Y-90793750D01*
X103875000Y-91231250D01*
X103873947Y-91252691D01*
X103870797Y-91273926D01*
X103865581Y-91294750D01*
X103858349Y-91314962D01*
X103849170Y-91334368D01*
X103838134Y-91352781D01*
X103825346Y-91370024D01*
X103810930Y-91385930D01*
X103795024Y-91400346D01*
X103777781Y-91413134D01*
X103759368Y-91424170D01*
X103739962Y-91433349D01*
X103719750Y-91440581D01*
X103698926Y-91445797D01*
X103677691Y-91448947D01*
X103656250Y-91450000D01*
X103143750Y-91450000D01*
X103122309Y-91448947D01*
X103101074Y-91445797D01*
X103080250Y-91440581D01*
X103060038Y-91433349D01*
X103040632Y-91424170D01*
X103022219Y-91413134D01*
X103004976Y-91400346D01*
X102989070Y-91385930D01*
X102974654Y-91370024D01*
X102961866Y-91352781D01*
X102950830Y-91334368D01*
X102941651Y-91314962D01*
X102934419Y-91294750D01*
X102929203Y-91273926D01*
X102926053Y-91252691D01*
X102925000Y-91231250D01*
X102925000Y-90793750D01*
X102926053Y-90772309D01*
X102929203Y-90751074D01*
X102934419Y-90730250D01*
X102941651Y-90710038D01*
X102950830Y-90690632D01*
X102961866Y-90672219D01*
X102974654Y-90654976D01*
X102989070Y-90639070D01*
X103004976Y-90624654D01*
X103022219Y-90611866D01*
X103040632Y-90600830D01*
X103060038Y-90591651D01*
X103080250Y-90584419D01*
X103101074Y-90579203D01*
X103122309Y-90576053D01*
X103143750Y-90575000D01*
X103656250Y-90575000D01*
X103677691Y-90576053D01*
G37*
G36*
X103677691Y-92151053D02*
G01*
X103698926Y-92154203D01*
X103719750Y-92159419D01*
X103739962Y-92166651D01*
X103759368Y-92175830D01*
X103777781Y-92186866D01*
X103795024Y-92199654D01*
X103810930Y-92214070D01*
X103825346Y-92229976D01*
X103838134Y-92247219D01*
X103849170Y-92265632D01*
X103858349Y-92285038D01*
X103865581Y-92305250D01*
X103870797Y-92326074D01*
X103873947Y-92347309D01*
X103875000Y-92368750D01*
X103875000Y-92806250D01*
X103873947Y-92827691D01*
X103870797Y-92848926D01*
X103865581Y-92869750D01*
X103858349Y-92889962D01*
X103849170Y-92909368D01*
X103838134Y-92927781D01*
X103825346Y-92945024D01*
X103810930Y-92960930D01*
X103795024Y-92975346D01*
X103777781Y-92988134D01*
X103759368Y-92999170D01*
X103739962Y-93008349D01*
X103719750Y-93015581D01*
X103698926Y-93020797D01*
X103677691Y-93023947D01*
X103656250Y-93025000D01*
X103143750Y-93025000D01*
X103122309Y-93023947D01*
X103101074Y-93020797D01*
X103080250Y-93015581D01*
X103060038Y-93008349D01*
X103040632Y-92999170D01*
X103022219Y-92988134D01*
X103004976Y-92975346D01*
X102989070Y-92960930D01*
X102974654Y-92945024D01*
X102961866Y-92927781D01*
X102950830Y-92909368D01*
X102941651Y-92889962D01*
X102934419Y-92869750D01*
X102929203Y-92848926D01*
X102926053Y-92827691D01*
X102925000Y-92806250D01*
X102925000Y-92368750D01*
X102926053Y-92347309D01*
X102929203Y-92326074D01*
X102934419Y-92305250D01*
X102941651Y-92285038D01*
X102950830Y-92265632D01*
X102961866Y-92247219D01*
X102974654Y-92229976D01*
X102989070Y-92214070D01*
X103004976Y-92199654D01*
X103022219Y-92186866D01*
X103040632Y-92175830D01*
X103060038Y-92166651D01*
X103080250Y-92159419D01*
X103101074Y-92154203D01*
X103122309Y-92151053D01*
X103143750Y-92150000D01*
X103656250Y-92150000D01*
X103677691Y-92151053D01*
G37*
%TD*%
M02*
