M48
; DRILL file {KiCad (5.1.5)-3} date 31/10/2021 01:47:21
; FORMAT={3:3/ absolute / metric / suppress leading zeros}
; #@! TF.CreationDate,2021-10-31T01:47:21+08:00
; #@! TF.GenerationSoftware,Kicad,Pcbnew,(5.1.5)-3
FMAT,2
METRIC,TZ
T1C0.200
T2C0.400
T3C1.000
%
G90
G05
T1
X92599Y-95951
X93100Y-93300
X93250Y-95200
X95300Y-102100
X95300Y-104700
X95700Y-96200
X96900Y-98700
X96950Y-94650
X97000Y-102650
X97350Y-108300
X97375Y-98100
X97750Y-99250
X98389Y-91350
X98884Y-91716
X99400Y-102256
X99825Y-110803
X99825Y-111300
X99950Y-106150
X99950Y-106650
X99950Y-107200
X99950Y-107750
X100000Y-99500
X100550Y-106150
X100550Y-106650
X100550Y-107200
X100550Y-107750
X100632Y-102418
X100700Y-97600
X101100Y-106150
X101100Y-106650
X101100Y-107200
X101100Y-107750
X101400Y-91300
X101450Y-96300
X101500Y-98500
X102450Y-90200
X102950Y-101950
X103300Y-99850
X103850Y-98950
X103850Y-97950
X104100Y-98450
X105150Y-105254
X107700Y-101900
T2
X87900Y-99850
X87950Y-100800
X88950Y-100800
X88950Y-99900
X89650Y-96500
X90100Y-98050
X90100Y-100950
X90110Y-99150
X90750Y-92500
X90750Y-102400
X91250Y-91250
X92500Y-102650
X93100Y-97750
X93700Y-110500
X94100Y-111200
X94425Y-103400
X94500Y-110450
X94700Y-91850
X94750Y-92850
X94800Y-111200
X95100Y-90850
X95976Y-97226
X96150Y-88550
X96250Y-107550
X97321Y-90850
X98050Y-94300
X98095Y-97300
X98900Y-112600
X99100Y-94050
X100575Y-94300
X100617Y-95203
X102450Y-89600
X104100Y-101850
X104600Y-91650
X105000Y-109500
X105675Y-93500
X106100Y-109500
X106200Y-89250
X106200Y-97550
X106400Y-99400
X106550Y-101700
X108400Y-91650
X110800Y-95250
T3
X108720Y-95720
X109589Y-98107
X110457Y-100494
T0
M30
