%TF.GenerationSoftware,KiCad,Pcbnew,(5.1.5)-3*%
%TF.CreationDate,2021-10-31T01:47:11+08:00*%
%TF.ProjectId,STM32_FOC,53544d33-325f-4464-9f43-2e6b69636164,rev?*%
%TF.SameCoordinates,Original*%
%TF.FileFunction,Copper,L3,Inr*%
%TF.FilePolarity,Positive*%
%FSLAX46Y46*%
G04 Gerber Fmt 4.6, Leading zero omitted, Abs format (unit mm)*
G04 Created by KiCad (PCBNEW (5.1.5)-3) date 2021-10-31 01:47:11*
%MOMM*%
%LPD*%
G04 APERTURE LIST*
%TA.AperFunction,ViaPad*%
%ADD10C,1.700000*%
%TD*%
%TA.AperFunction,ViaPad*%
%ADD11C,0.100000*%
%TD*%
%TA.AperFunction,ViaPad*%
%ADD12C,0.450000*%
%TD*%
%TA.AperFunction,ViaPad*%
%ADD13C,0.600000*%
%TD*%
%TA.AperFunction,ViaPad*%
%ADD14C,0.800000*%
%TD*%
%TA.AperFunction,Conductor*%
%ADD15C,0.250000*%
%TD*%
%TA.AperFunction,Conductor*%
%ADD16C,0.300000*%
%TD*%
%TA.AperFunction,Conductor*%
%ADD17C,0.254000*%
%TD*%
%TA.AperFunction,Conductor*%
%ADD18C,0.025400*%
%TD*%
G04 APERTURE END LIST*
D10*
%TO.N,W*%
%TO.C,J3*%
X110457462Y-100493639D02*
X110457462Y-100493639D01*
%TO.N,V*%
X109588731Y-98106819D02*
X109588731Y-98106819D01*
%TA.AperFunction,ViaPad*%
D11*
%TO.N,U*%
G36*
X109228022Y-94630544D02*
G01*
X109809456Y-96228022D01*
X108211978Y-96809456D01*
X107630544Y-95211978D01*
X109228022Y-94630544D01*
G37*
%TD.AperFunction*%
%TD*%
D12*
%TO.N,GND*%
X99950000Y-106650000D03*
X99950000Y-106150000D03*
X101100000Y-106150000D03*
X100550000Y-106150000D03*
X101100000Y-106650000D03*
X101100000Y-107200000D03*
X101100000Y-107750000D03*
X100550000Y-106650000D03*
X100550000Y-107200000D03*
X100550000Y-107750000D03*
X99950000Y-107750000D03*
X99950000Y-107200000D03*
D13*
X89650000Y-96500000D03*
X90750000Y-92500000D03*
X91250000Y-91250000D03*
X94700000Y-91850000D03*
X98050000Y-94300000D03*
X106200000Y-89250000D03*
X108400000Y-91650000D03*
X106200000Y-97550000D03*
X106550000Y-101700000D03*
X106400000Y-99400000D03*
X93100000Y-97750000D03*
X96150000Y-88550000D03*
X97320797Y-90849653D03*
D12*
X100000000Y-99500006D03*
X101450000Y-96300000D03*
D13*
X90100000Y-98049990D03*
D12*
X97350000Y-108300000D03*
X102950000Y-101950000D03*
D13*
X90110000Y-99149990D03*
X90750000Y-102400000D03*
X100616971Y-95203340D03*
D12*
X95300000Y-104700000D03*
D13*
X98900000Y-112600000D03*
%TO.N,+3V3*%
X110800000Y-95250000D03*
X100575010Y-94300000D03*
D12*
X96950000Y-94650000D03*
D13*
X94750000Y-92850000D03*
X95100000Y-90850000D03*
X90100000Y-100950000D03*
X104100000Y-101850000D03*
X98095000Y-97300000D03*
X95975769Y-97225769D03*
%TO.N,Net-(C9-Pad2)*%
X105675010Y-93500000D03*
D12*
%TO.N,V*%
X99825000Y-110802580D03*
X99825000Y-111300000D03*
D13*
%TO.N,USART2_RX*%
X94425000Y-103400000D03*
%TO.N,USART2_TX*%
X96250002Y-107550002D03*
D12*
%TO.N,SWCLK*%
X101400000Y-91300000D03*
%TO.N,SWDIO*%
X105150000Y-105254402D03*
D14*
%TO.N,+12V*%
X87900000Y-99850000D03*
X87950000Y-100800000D03*
X88950000Y-100800000D03*
D13*
X93700000Y-110500000D03*
X94100000Y-111200000D03*
X94500000Y-110450000D03*
X105000000Y-109500000D03*
X94800000Y-111200000D03*
X102450000Y-89600000D03*
X106100000Y-109500000D03*
D12*
X102450000Y-90200000D03*
D13*
X104600020Y-91650000D03*
D14*
X88950004Y-99900000D03*
D13*
%TO.N,Net-(JP1-Pad2)*%
X99100000Y-94050000D03*
D12*
%TO.N,I2C1_SCL*%
X98884310Y-91715711D03*
X99400000Y-102255820D03*
%TO.N,I2C1_SDA*%
X98389327Y-91350010D03*
X100632149Y-102417851D03*
%TO.N,EN1*%
X97000000Y-102650000D03*
D13*
X92500006Y-102650000D03*
D12*
%TO.N,SPI2_MOSI*%
X103850000Y-97950000D03*
X93100000Y-93300000D03*
%TO.N,SPI2_MISO*%
X104100000Y-98450000D03*
X95700000Y-96200000D03*
%TO.N,SPI2_SCK*%
X93250000Y-95200000D03*
X103849989Y-98950000D03*
%TO.N,SPI2_CS*%
X92599479Y-95950521D03*
X103300000Y-99849991D03*
%TO.N,CS*%
X97375010Y-98100000D03*
%TO.N,SCK*%
X96900000Y-98700000D03*
%TO.N,MISO*%
X100700000Y-97600000D03*
%TO.N,MOSI*%
X97749979Y-99250000D03*
%TO.N,A*%
X95299994Y-102100000D03*
%TO.N,B*%
X101500000Y-98500000D03*
%TO.N,Z*%
X107699970Y-101900000D03*
%TD*%
D15*
%TO.N,+3V3*%
X104100000Y-101425736D02*
X104100000Y-101850000D01*
X105300000Y-100225736D02*
X104100000Y-101425736D01*
X110800000Y-94850000D02*
X109150000Y-93200000D01*
X110800000Y-95250000D02*
X110800000Y-94850000D01*
X109150000Y-93200000D02*
X108000000Y-93200000D01*
X108000000Y-93200000D02*
X105300000Y-95900000D01*
X105300000Y-95900000D02*
X105300000Y-100225736D01*
D16*
X92251538Y-100950000D02*
X95675770Y-97525768D01*
X96050000Y-97300000D02*
X95975769Y-97225769D01*
X95675770Y-97525768D02*
X95975769Y-97225769D01*
X98095000Y-97300000D02*
X96050000Y-97300000D01*
X90100000Y-100950000D02*
X92251538Y-100950000D01*
%TO.N,+12V*%
X94750000Y-89600000D02*
X88950004Y-95399996D01*
X100400000Y-87550000D02*
X98100000Y-87550000D01*
X88950004Y-95399996D02*
X88950004Y-99334315D01*
X88950004Y-99334315D02*
X88950004Y-99900000D01*
X98100000Y-87550000D02*
X96050000Y-89600000D01*
X102450000Y-89600000D02*
X100400000Y-87550000D01*
X96050000Y-89600000D02*
X94750000Y-89600000D01*
X95099999Y-110900001D02*
X94800000Y-111200000D01*
X105500000Y-109450000D02*
X96550000Y-109450000D01*
X96550000Y-109450000D02*
X95099999Y-110900001D01*
D15*
%TO.N,I2C1_SCL*%
X99850020Y-96410040D02*
X99850021Y-98289957D01*
X99649989Y-92481390D02*
X99649989Y-96210009D01*
X99850021Y-98289957D02*
X99400000Y-98739978D01*
X98884310Y-91715711D02*
X99649989Y-92481390D01*
X99649989Y-96210009D02*
X99850020Y-96410040D01*
X99400000Y-101937622D02*
X99400000Y-102255820D01*
X99400000Y-98739978D02*
X99400000Y-101937622D01*
%TO.N,I2C1_SDA*%
X100632149Y-102099653D02*
X100632149Y-102417851D01*
X100632149Y-99403147D02*
X100632149Y-102099653D01*
X100200030Y-96265060D02*
X100200030Y-98971028D01*
X98389327Y-91350010D02*
X98489326Y-91250011D01*
X100200030Y-98971028D02*
X100632149Y-99403147D01*
X98489326Y-91250011D02*
X99055021Y-91250011D01*
X100000000Y-96065030D02*
X100200030Y-96265060D01*
X99055021Y-91250011D02*
X100000000Y-92194990D01*
X100000000Y-92194990D02*
X100000000Y-96065030D01*
%TO.N,SPI2_MOSI*%
X93299999Y-93499999D02*
X93100000Y-93300000D01*
X95533997Y-93499999D02*
X93299999Y-93499999D01*
X103850000Y-97950000D02*
X103850000Y-95550000D01*
X99200000Y-90900000D02*
X98133996Y-90900000D01*
X103850000Y-95550000D02*
X99200000Y-90900000D01*
X98133996Y-90900000D02*
X95533997Y-93499999D01*
%TO.N,SPI2_MISO*%
X98799998Y-97650002D02*
X98799998Y-96899998D01*
X102150008Y-101150008D02*
X102150008Y-102755963D01*
X102150008Y-102755963D02*
X101205954Y-103700017D01*
X98799998Y-96899998D02*
X98450000Y-96550000D01*
X98450000Y-96550000D02*
X96050000Y-96550000D01*
X98199989Y-102700719D02*
X98199990Y-98250010D01*
X96050000Y-96550000D02*
X95700000Y-96200000D01*
X99199287Y-103700017D02*
X98199989Y-102700719D01*
X103149992Y-101150008D02*
X102150008Y-101150008D01*
X104299999Y-100000001D02*
X103149992Y-101150008D01*
X98199990Y-98250010D02*
X98799998Y-97650002D01*
X104299999Y-98649999D02*
X104299999Y-100000001D01*
X104100000Y-98450000D02*
X104299999Y-98649999D01*
X101205954Y-103700017D02*
X99199287Y-103700017D01*
%TO.N,SPI2_SCK*%
X98550000Y-98394990D02*
X98550001Y-102555741D01*
X101799997Y-100900007D02*
X102400002Y-100300002D01*
X98594979Y-96199989D02*
X99150009Y-96755019D01*
X103504001Y-100300002D02*
X103849989Y-99954014D01*
X103849989Y-99268198D02*
X103849989Y-98950000D01*
X96277014Y-95200000D02*
X97277003Y-96199989D01*
X103849989Y-99954014D02*
X103849989Y-99268198D01*
X99150009Y-97794981D02*
X98550000Y-98394990D01*
X99344260Y-103350000D02*
X101060981Y-103350000D01*
X101060981Y-103350000D02*
X101799997Y-102610984D01*
X93250000Y-95200000D02*
X96277014Y-95200000D01*
X102400002Y-100300002D02*
X103504001Y-100300002D01*
X97277003Y-96199989D02*
X98594979Y-96199989D01*
X99150009Y-96755019D02*
X99150009Y-97794981D01*
X101799997Y-102610984D02*
X101799997Y-100900007D01*
X98550001Y-102555741D02*
X99344260Y-103350000D01*
%TO.N,SPI2_CS*%
X101150001Y-100649999D02*
X101950009Y-99849991D01*
X101950009Y-99849991D02*
X102981802Y-99849991D01*
X93255020Y-94099990D02*
X95671993Y-94099989D01*
X98739958Y-95849978D02*
X99500020Y-96610040D01*
X99500020Y-98144970D02*
X98900011Y-98744979D01*
X99489240Y-102999990D02*
X100916001Y-102999990D01*
X101150001Y-102765990D02*
X101150001Y-100649999D01*
X95671993Y-94099989D02*
X97421982Y-95849978D01*
X92599479Y-94755531D02*
X93255020Y-94099990D01*
X102981802Y-99849991D02*
X103300000Y-99849991D01*
X100916001Y-102999990D02*
X101150001Y-102765990D01*
X97421982Y-95849978D02*
X98739958Y-95849978D01*
X92599479Y-95950521D02*
X92599479Y-94755531D01*
X98900011Y-98744979D02*
X98900011Y-102410761D01*
X99500020Y-96610040D02*
X99500020Y-98144970D01*
X98900011Y-102410761D02*
X99489240Y-102999990D01*
%TD*%
D17*
%TO.N,+12V*%
G36*
X101058585Y-87224783D02*
G01*
X102457539Y-87418773D01*
X103826661Y-87765482D01*
X105149334Y-88260702D01*
X105673000Y-88525707D01*
X105673000Y-88813921D01*
X105671033Y-88815888D01*
X105596506Y-88927426D01*
X105545171Y-89051360D01*
X105519000Y-89182927D01*
X105519000Y-89317073D01*
X105545171Y-89448640D01*
X105596506Y-89572574D01*
X105671033Y-89684112D01*
X105673000Y-89686079D01*
X105673000Y-91873000D01*
X101600211Y-91873000D01*
X101687049Y-91837030D01*
X101786302Y-91770711D01*
X101870711Y-91686302D01*
X101937030Y-91587049D01*
X101982712Y-91476764D01*
X102006000Y-91359686D01*
X102006000Y-91240314D01*
X101982712Y-91123236D01*
X101937030Y-91012951D01*
X101870711Y-90913698D01*
X101786302Y-90829289D01*
X101687049Y-90762970D01*
X101576764Y-90717288D01*
X101459686Y-90694000D01*
X101340314Y-90694000D01*
X101223236Y-90717288D01*
X101112951Y-90762970D01*
X101013698Y-90829289D01*
X100929289Y-90913698D01*
X100862970Y-91012951D01*
X100817288Y-91123236D01*
X100794000Y-91240314D01*
X100794000Y-91359686D01*
X100817288Y-91476764D01*
X100862970Y-91587049D01*
X100929289Y-91686302D01*
X101013698Y-91770711D01*
X101112951Y-91837030D01*
X101199789Y-91873000D01*
X100888591Y-91873000D01*
X99984484Y-90968893D01*
X100144673Y-90968893D01*
X100428460Y-90912444D01*
X100695782Y-90801716D01*
X100936364Y-90640963D01*
X101140963Y-90436364D01*
X101301716Y-90195782D01*
X101412444Y-89928460D01*
X101468893Y-89644673D01*
X101468893Y-89355327D01*
X101412444Y-89071540D01*
X101301716Y-88804218D01*
X101140963Y-88563636D01*
X100936364Y-88359037D01*
X100695782Y-88198284D01*
X100428460Y-88087556D01*
X100144673Y-88031107D01*
X99855327Y-88031107D01*
X99571540Y-88087556D01*
X99304218Y-88198284D01*
X99063636Y-88359037D01*
X98859037Y-88563636D01*
X98698284Y-88804218D01*
X98587556Y-89071540D01*
X98531107Y-89355327D01*
X98531107Y-89644673D01*
X98587556Y-89928460D01*
X98698284Y-90195782D01*
X98830730Y-90394000D01*
X98158850Y-90394000D01*
X98133996Y-90391552D01*
X98109142Y-90394000D01*
X98034803Y-90401322D01*
X97939421Y-90430255D01*
X97880603Y-90461694D01*
X97849764Y-90415541D01*
X97754909Y-90320686D01*
X97643371Y-90246159D01*
X97519437Y-90194824D01*
X97387870Y-90168653D01*
X97253724Y-90168653D01*
X97122157Y-90194824D01*
X96998223Y-90246159D01*
X96886685Y-90320686D01*
X96791830Y-90415541D01*
X96717303Y-90527079D01*
X96665968Y-90651013D01*
X96639797Y-90782580D01*
X96639797Y-90916726D01*
X96665968Y-91048293D01*
X96717303Y-91172227D01*
X96791830Y-91283765D01*
X96886685Y-91378620D01*
X96918516Y-91399889D01*
X95591649Y-92726756D01*
X95431000Y-92813774D01*
X95431000Y-92782927D01*
X95404829Y-92651360D01*
X95353494Y-92527426D01*
X95278967Y-92415888D01*
X95188079Y-92325000D01*
X95228967Y-92284112D01*
X95303494Y-92172574D01*
X95354829Y-92048640D01*
X95381000Y-91917073D01*
X95381000Y-91782927D01*
X95354829Y-91651360D01*
X95303494Y-91527426D01*
X95289597Y-91506628D01*
X95298640Y-91504829D01*
X95422574Y-91453494D01*
X95534112Y-91378967D01*
X95628967Y-91284112D01*
X95703494Y-91172574D01*
X95754829Y-91048640D01*
X95781000Y-90917073D01*
X95781000Y-90782927D01*
X95754829Y-90651360D01*
X95703494Y-90527426D01*
X95628967Y-90415888D01*
X95534112Y-90321033D01*
X95422574Y-90246506D01*
X95298640Y-90195171D01*
X95167073Y-90169000D01*
X95032927Y-90169000D01*
X94901360Y-90195171D01*
X94777426Y-90246506D01*
X94665888Y-90321033D01*
X94571033Y-90415888D01*
X94496506Y-90527426D01*
X94445171Y-90651360D01*
X94419000Y-90782927D01*
X94419000Y-90917073D01*
X94445171Y-91048640D01*
X94496506Y-91172574D01*
X94510403Y-91193372D01*
X94501360Y-91195171D01*
X94377426Y-91246506D01*
X94265888Y-91321033D01*
X94171033Y-91415888D01*
X94096506Y-91527426D01*
X94045171Y-91651360D01*
X94019000Y-91782927D01*
X94019000Y-91917073D01*
X94045171Y-92048640D01*
X94096506Y-92172574D01*
X94171033Y-92284112D01*
X94261921Y-92375000D01*
X94221033Y-92415888D01*
X94146506Y-92527426D01*
X94095171Y-92651360D01*
X94069000Y-92782927D01*
X94069000Y-92917073D01*
X94084302Y-92993999D01*
X93624367Y-92993999D01*
X93570711Y-92913698D01*
X93486302Y-92829289D01*
X93387049Y-92762970D01*
X93276764Y-92717288D01*
X93159686Y-92694000D01*
X93040314Y-92694000D01*
X92923236Y-92717288D01*
X92812951Y-92762970D01*
X92713698Y-92829289D01*
X92629289Y-92913698D01*
X92562970Y-93012951D01*
X92517288Y-93123236D01*
X92494000Y-93240314D01*
X92494000Y-93359686D01*
X92517288Y-93476764D01*
X92562970Y-93587049D01*
X92629289Y-93686302D01*
X92713698Y-93770711D01*
X92806619Y-93832799D01*
X92259259Y-94380160D01*
X92239953Y-94396004D01*
X92176721Y-94473052D01*
X92163044Y-94498640D01*
X92129734Y-94560957D01*
X92100801Y-94656339D01*
X92091032Y-94755531D01*
X92093480Y-94780387D01*
X92093479Y-95503340D01*
X92093015Y-95545225D01*
X92091823Y-95574495D01*
X92090240Y-95593645D01*
X92088771Y-95604291D01*
X92087703Y-95609493D01*
X92086594Y-95613463D01*
X92084062Y-95620673D01*
X92078399Y-95634427D01*
X92071042Y-95650612D01*
X92062449Y-95663472D01*
X92016767Y-95773757D01*
X91993479Y-95890835D01*
X91993479Y-96010207D01*
X92016767Y-96127285D01*
X92062449Y-96237570D01*
X92128768Y-96336823D01*
X92213177Y-96421232D01*
X92273000Y-96461205D01*
X92273000Y-100177592D01*
X92031592Y-100419000D01*
X90531069Y-100419000D01*
X90422574Y-100346506D01*
X90298640Y-100295171D01*
X90167073Y-100269000D01*
X90032927Y-100269000D01*
X89901360Y-100295171D01*
X89777426Y-100346506D01*
X89665888Y-100421033D01*
X89571033Y-100515888D01*
X89496506Y-100627426D01*
X89445171Y-100751360D01*
X89419000Y-100882927D01*
X89419000Y-101017073D01*
X89445171Y-101148640D01*
X89496506Y-101272574D01*
X89571033Y-101384112D01*
X89665888Y-101478967D01*
X89777426Y-101553494D01*
X89901360Y-101604829D01*
X90032927Y-101631000D01*
X90167073Y-101631000D01*
X90298640Y-101604829D01*
X90422574Y-101553494D01*
X90531069Y-101481000D01*
X92225464Y-101481000D01*
X92251538Y-101483568D01*
X92273000Y-101481454D01*
X92273000Y-102006921D01*
X92177432Y-102046506D01*
X92065894Y-102121033D01*
X91971039Y-102215888D01*
X91896512Y-102327426D01*
X91845177Y-102451360D01*
X91819006Y-102582927D01*
X91819006Y-102717073D01*
X91845177Y-102848640D01*
X91896512Y-102972574D01*
X91971039Y-103084112D01*
X92065894Y-103178967D01*
X92177432Y-103253494D01*
X92273000Y-103293079D01*
X92273000Y-104726313D01*
X92201716Y-104554218D01*
X92040963Y-104313636D01*
X91836364Y-104109037D01*
X91595782Y-103948284D01*
X91328460Y-103837556D01*
X91044673Y-103781107D01*
X90755327Y-103781107D01*
X90471540Y-103837556D01*
X90204218Y-103948284D01*
X89963636Y-104109037D01*
X89759037Y-104313636D01*
X89598284Y-104554218D01*
X89487556Y-104821540D01*
X89431107Y-105105327D01*
X89431107Y-105394673D01*
X89487556Y-105678460D01*
X89598284Y-105945782D01*
X89759037Y-106186364D01*
X89963636Y-106390963D01*
X90204218Y-106551716D01*
X90471540Y-106662444D01*
X90755327Y-106718893D01*
X91044673Y-106718893D01*
X91328460Y-106662444D01*
X91595782Y-106551716D01*
X91836364Y-106390963D01*
X92040963Y-106186364D01*
X92201716Y-105945782D01*
X92273000Y-105773687D01*
X92273000Y-106800000D01*
X92275440Y-106824776D01*
X92282667Y-106848601D01*
X92294403Y-106870557D01*
X92310197Y-106889803D01*
X92329443Y-106905597D01*
X92351399Y-106917333D01*
X92375224Y-106924560D01*
X92400000Y-106927000D01*
X95974525Y-106927000D01*
X95927428Y-106946508D01*
X95815890Y-107021035D01*
X95721035Y-107115890D01*
X95646508Y-107227428D01*
X95595173Y-107351362D01*
X95569002Y-107482929D01*
X95569002Y-107617075D01*
X95595173Y-107748642D01*
X95646508Y-107872576D01*
X95721035Y-107984114D01*
X95815890Y-108078969D01*
X95927428Y-108153496D01*
X96051362Y-108204831D01*
X96182929Y-108231002D01*
X96317075Y-108231002D01*
X96448642Y-108204831D01*
X96572576Y-108153496D01*
X96684114Y-108078969D01*
X96778969Y-107984114D01*
X96853496Y-107872576D01*
X96904831Y-107748642D01*
X96931002Y-107617075D01*
X96931002Y-107482929D01*
X96904831Y-107351362D01*
X96853496Y-107227428D01*
X96778969Y-107115890D01*
X96684114Y-107021035D01*
X96572576Y-106946508D01*
X96525479Y-106927000D01*
X99407151Y-106927000D01*
X99367288Y-107023236D01*
X99344000Y-107140314D01*
X99344000Y-107259686D01*
X99367288Y-107376764D01*
X99407979Y-107475000D01*
X99367288Y-107573236D01*
X99344000Y-107690314D01*
X99344000Y-107809686D01*
X99367288Y-107926764D01*
X99412970Y-108037049D01*
X99479289Y-108136302D01*
X99563698Y-108220711D01*
X99662951Y-108287030D01*
X99773236Y-108332712D01*
X99890314Y-108356000D01*
X100009686Y-108356000D01*
X100126764Y-108332712D01*
X100237049Y-108287030D01*
X100250000Y-108278376D01*
X100262951Y-108287030D01*
X100373236Y-108332712D01*
X100490314Y-108356000D01*
X100609686Y-108356000D01*
X100726764Y-108332712D01*
X100825000Y-108292021D01*
X100923236Y-108332712D01*
X101040314Y-108356000D01*
X101159686Y-108356000D01*
X101276764Y-108332712D01*
X101387049Y-108287030D01*
X101486302Y-108220711D01*
X101570711Y-108136302D01*
X101637030Y-108037049D01*
X101682712Y-107926764D01*
X101706000Y-107809686D01*
X101706000Y-107690314D01*
X101682712Y-107573236D01*
X101642021Y-107475000D01*
X101682712Y-107376764D01*
X101706000Y-107259686D01*
X101706000Y-107140314D01*
X101682712Y-107023236D01*
X101642849Y-106927000D01*
X107873000Y-106927000D01*
X107873000Y-110097569D01*
X107591864Y-110329103D01*
X106409500Y-111101580D01*
X105149334Y-111739298D01*
X103826661Y-112234518D01*
X102457539Y-112581227D01*
X101058585Y-112775217D01*
X99646781Y-112814133D01*
X99551676Y-112806252D01*
X99554829Y-112798640D01*
X99581000Y-112667073D01*
X99581000Y-112532927D01*
X99554829Y-112401360D01*
X99503494Y-112277426D01*
X99428967Y-112165888D01*
X99334112Y-112071033D01*
X99222574Y-111996506D01*
X99098640Y-111945171D01*
X98967073Y-111919000D01*
X98832927Y-111919000D01*
X98701360Y-111945171D01*
X98577426Y-111996506D01*
X98465888Y-112071033D01*
X98371033Y-112165888D01*
X98296506Y-112277426D01*
X98245171Y-112401360D01*
X98219000Y-112532927D01*
X98219000Y-112667073D01*
X98224479Y-112694615D01*
X96853122Y-112426742D01*
X95505177Y-112005138D01*
X94211794Y-111437807D01*
X93008170Y-110742894D01*
X99219000Y-110742894D01*
X99219000Y-110862266D01*
X99242288Y-110979344D01*
X99272089Y-111051290D01*
X99242288Y-111123236D01*
X99219000Y-111240314D01*
X99219000Y-111359686D01*
X99242288Y-111476764D01*
X99287970Y-111587049D01*
X99354289Y-111686302D01*
X99438698Y-111770711D01*
X99537951Y-111837030D01*
X99648236Y-111882712D01*
X99765314Y-111906000D01*
X99884686Y-111906000D01*
X100001764Y-111882712D01*
X100112049Y-111837030D01*
X100211302Y-111770711D01*
X100295711Y-111686302D01*
X100362030Y-111587049D01*
X100407712Y-111476764D01*
X100431000Y-111359686D01*
X100431000Y-111240314D01*
X100407712Y-111123236D01*
X100377911Y-111051290D01*
X100407712Y-110979344D01*
X100431000Y-110862266D01*
X100431000Y-110742894D01*
X100407712Y-110625816D01*
X100362030Y-110515531D01*
X100295711Y-110416278D01*
X100211302Y-110331869D01*
X100112049Y-110265550D01*
X100001764Y-110219868D01*
X99884686Y-110196580D01*
X99765314Y-110196580D01*
X99648236Y-110219868D01*
X99537951Y-110265550D01*
X99438698Y-110331869D01*
X99354289Y-110416278D01*
X99287970Y-110515531D01*
X99242288Y-110625816D01*
X99219000Y-110742894D01*
X93008170Y-110742894D01*
X92988672Y-110731637D01*
X91850657Y-109895200D01*
X90811565Y-108938648D01*
X90203386Y-108240314D01*
X96744000Y-108240314D01*
X96744000Y-108359686D01*
X96767288Y-108476764D01*
X96812970Y-108587049D01*
X96879289Y-108686302D01*
X96963698Y-108770711D01*
X97062951Y-108837030D01*
X97173236Y-108882712D01*
X97290314Y-108906000D01*
X97409686Y-108906000D01*
X97526764Y-108882712D01*
X97637049Y-108837030D01*
X97736302Y-108770711D01*
X97820711Y-108686302D01*
X97887030Y-108587049D01*
X97932712Y-108476764D01*
X97956000Y-108359686D01*
X97956000Y-108240314D01*
X97932712Y-108123236D01*
X97887030Y-108012951D01*
X97820711Y-107913698D01*
X97736302Y-107829289D01*
X97637049Y-107762970D01*
X97526764Y-107717288D01*
X97409686Y-107694000D01*
X97290314Y-107694000D01*
X97173236Y-107717288D01*
X97062951Y-107762970D01*
X96963698Y-107829289D01*
X96879289Y-107913698D01*
X96812970Y-108012951D01*
X96767288Y-108123236D01*
X96744000Y-108240314D01*
X90203386Y-108240314D01*
X89884008Y-107873593D01*
X89079245Y-106712963D01*
X88407046Y-105470847D01*
X87875569Y-104162322D01*
X87491266Y-102803273D01*
X87412780Y-102332927D01*
X90069000Y-102332927D01*
X90069000Y-102467073D01*
X90095171Y-102598640D01*
X90146506Y-102722574D01*
X90221033Y-102834112D01*
X90315888Y-102928967D01*
X90427426Y-103003494D01*
X90551360Y-103054829D01*
X90682927Y-103081000D01*
X90817073Y-103081000D01*
X90948640Y-103054829D01*
X91072574Y-103003494D01*
X91184112Y-102928967D01*
X91278967Y-102834112D01*
X91353494Y-102722574D01*
X91404829Y-102598640D01*
X91431000Y-102467073D01*
X91431000Y-102332927D01*
X91404829Y-102201360D01*
X91353494Y-102077426D01*
X91278967Y-101965888D01*
X91184112Y-101871033D01*
X91072574Y-101796506D01*
X90948640Y-101745171D01*
X90817073Y-101719000D01*
X90682927Y-101719000D01*
X90551360Y-101745171D01*
X90427426Y-101796506D01*
X90315888Y-101871033D01*
X90221033Y-101965888D01*
X90146506Y-102077426D01*
X90095171Y-102201360D01*
X90069000Y-102332927D01*
X87412780Y-102332927D01*
X87258803Y-101410195D01*
X87181000Y-100000000D01*
X87258803Y-98589805D01*
X87360074Y-97982917D01*
X89419000Y-97982917D01*
X89419000Y-98117063D01*
X89445171Y-98248630D01*
X89496506Y-98372564D01*
X89571033Y-98484102D01*
X89665888Y-98578957D01*
X89702366Y-98603331D01*
X89675888Y-98621023D01*
X89581033Y-98715878D01*
X89506506Y-98827416D01*
X89455171Y-98951350D01*
X89429000Y-99082917D01*
X89429000Y-99217063D01*
X89455171Y-99348630D01*
X89506506Y-99472564D01*
X89581033Y-99584102D01*
X89675888Y-99678957D01*
X89787426Y-99753484D01*
X89911360Y-99804819D01*
X90042927Y-99830990D01*
X90177073Y-99830990D01*
X90308640Y-99804819D01*
X90432574Y-99753484D01*
X90544112Y-99678957D01*
X90638967Y-99584102D01*
X90713494Y-99472564D01*
X90764829Y-99348630D01*
X90791000Y-99217063D01*
X90791000Y-99082917D01*
X90764829Y-98951350D01*
X90713494Y-98827416D01*
X90638967Y-98715878D01*
X90544112Y-98621023D01*
X90507634Y-98596649D01*
X90534112Y-98578957D01*
X90628967Y-98484102D01*
X90703494Y-98372564D01*
X90754829Y-98248630D01*
X90781000Y-98117063D01*
X90781000Y-97982917D01*
X90754829Y-97851350D01*
X90703494Y-97727416D01*
X90628967Y-97615878D01*
X90534112Y-97521023D01*
X90422574Y-97446496D01*
X90298640Y-97395161D01*
X90167073Y-97368990D01*
X90032927Y-97368990D01*
X89901360Y-97395161D01*
X89777426Y-97446496D01*
X89665888Y-97521023D01*
X89571033Y-97615878D01*
X89496506Y-97727416D01*
X89445171Y-97851350D01*
X89419000Y-97982917D01*
X87360074Y-97982917D01*
X87491266Y-97196727D01*
X87707248Y-96432927D01*
X88969000Y-96432927D01*
X88969000Y-96567073D01*
X88995171Y-96698640D01*
X89046506Y-96822574D01*
X89121033Y-96934112D01*
X89215888Y-97028967D01*
X89327426Y-97103494D01*
X89451360Y-97154829D01*
X89582927Y-97181000D01*
X89717073Y-97181000D01*
X89848640Y-97154829D01*
X89972574Y-97103494D01*
X90084112Y-97028967D01*
X90178967Y-96934112D01*
X90253494Y-96822574D01*
X90304829Y-96698640D01*
X90331000Y-96567073D01*
X90331000Y-96432927D01*
X90304829Y-96301360D01*
X90253494Y-96177426D01*
X90178967Y-96065888D01*
X90084112Y-95971033D01*
X89972574Y-95896506D01*
X89848640Y-95845171D01*
X89717073Y-95819000D01*
X89582927Y-95819000D01*
X89451360Y-95845171D01*
X89327426Y-95896506D01*
X89215888Y-95971033D01*
X89121033Y-96065888D01*
X89046506Y-96177426D01*
X88995171Y-96301360D01*
X88969000Y-96432927D01*
X87707248Y-96432927D01*
X87875569Y-95837678D01*
X88407046Y-94529153D01*
X89079245Y-93287037D01*
X89884008Y-92126407D01*
X90572692Y-91335635D01*
X90595171Y-91448640D01*
X90646506Y-91572574D01*
X90721033Y-91684112D01*
X90815888Y-91778967D01*
X90900697Y-91835634D01*
X90817073Y-91819000D01*
X90682927Y-91819000D01*
X90551360Y-91845171D01*
X90427426Y-91896506D01*
X90315888Y-91971033D01*
X90221033Y-92065888D01*
X90146506Y-92177426D01*
X90095171Y-92301360D01*
X90069000Y-92432927D01*
X90069000Y-92567073D01*
X90095171Y-92698640D01*
X90146506Y-92822574D01*
X90221033Y-92934112D01*
X90315888Y-93028967D01*
X90427426Y-93103494D01*
X90551360Y-93154829D01*
X90682927Y-93181000D01*
X90817073Y-93181000D01*
X90948640Y-93154829D01*
X91072574Y-93103494D01*
X91184112Y-93028967D01*
X91278967Y-92934112D01*
X91353494Y-92822574D01*
X91404829Y-92698640D01*
X91431000Y-92567073D01*
X91431000Y-92432927D01*
X91404829Y-92301360D01*
X91353494Y-92177426D01*
X91278967Y-92065888D01*
X91184112Y-91971033D01*
X91099303Y-91914366D01*
X91182927Y-91931000D01*
X91317073Y-91931000D01*
X91448640Y-91904829D01*
X91572574Y-91853494D01*
X91684112Y-91778967D01*
X91778967Y-91684112D01*
X91853494Y-91572574D01*
X91904829Y-91448640D01*
X91931000Y-91317073D01*
X91931000Y-91182927D01*
X91904829Y-91051360D01*
X91853494Y-90927426D01*
X91778967Y-90815888D01*
X91684112Y-90721033D01*
X91572574Y-90646506D01*
X91448640Y-90595171D01*
X91341190Y-90573797D01*
X91850657Y-90104800D01*
X92988672Y-89268363D01*
X94211794Y-88562193D01*
X94392502Y-88482927D01*
X95469000Y-88482927D01*
X95469000Y-88617073D01*
X95495171Y-88748640D01*
X95546506Y-88872574D01*
X95621033Y-88984112D01*
X95715888Y-89078967D01*
X95827426Y-89153494D01*
X95951360Y-89204829D01*
X96082927Y-89231000D01*
X96217073Y-89231000D01*
X96348640Y-89204829D01*
X96472574Y-89153494D01*
X96584112Y-89078967D01*
X96678967Y-88984112D01*
X96753494Y-88872574D01*
X96804829Y-88748640D01*
X96831000Y-88617073D01*
X96831000Y-88482927D01*
X96804829Y-88351360D01*
X96753494Y-88227426D01*
X96678967Y-88115888D01*
X96584112Y-88021033D01*
X96472574Y-87946506D01*
X96348640Y-87895171D01*
X96217073Y-87869000D01*
X96082927Y-87869000D01*
X95951360Y-87895171D01*
X95827426Y-87946506D01*
X95715888Y-88021033D01*
X95621033Y-88115888D01*
X95546506Y-88227426D01*
X95495171Y-88351360D01*
X95469000Y-88482927D01*
X94392502Y-88482927D01*
X95505177Y-87994862D01*
X96853122Y-87573258D01*
X98239265Y-87302497D01*
X99646781Y-87185867D01*
X101058585Y-87224783D01*
G37*
X101058585Y-87224783D02*
X102457539Y-87418773D01*
X103826661Y-87765482D01*
X105149334Y-88260702D01*
X105673000Y-88525707D01*
X105673000Y-88813921D01*
X105671033Y-88815888D01*
X105596506Y-88927426D01*
X105545171Y-89051360D01*
X105519000Y-89182927D01*
X105519000Y-89317073D01*
X105545171Y-89448640D01*
X105596506Y-89572574D01*
X105671033Y-89684112D01*
X105673000Y-89686079D01*
X105673000Y-91873000D01*
X101600211Y-91873000D01*
X101687049Y-91837030D01*
X101786302Y-91770711D01*
X101870711Y-91686302D01*
X101937030Y-91587049D01*
X101982712Y-91476764D01*
X102006000Y-91359686D01*
X102006000Y-91240314D01*
X101982712Y-91123236D01*
X101937030Y-91012951D01*
X101870711Y-90913698D01*
X101786302Y-90829289D01*
X101687049Y-90762970D01*
X101576764Y-90717288D01*
X101459686Y-90694000D01*
X101340314Y-90694000D01*
X101223236Y-90717288D01*
X101112951Y-90762970D01*
X101013698Y-90829289D01*
X100929289Y-90913698D01*
X100862970Y-91012951D01*
X100817288Y-91123236D01*
X100794000Y-91240314D01*
X100794000Y-91359686D01*
X100817288Y-91476764D01*
X100862970Y-91587049D01*
X100929289Y-91686302D01*
X101013698Y-91770711D01*
X101112951Y-91837030D01*
X101199789Y-91873000D01*
X100888591Y-91873000D01*
X99984484Y-90968893D01*
X100144673Y-90968893D01*
X100428460Y-90912444D01*
X100695782Y-90801716D01*
X100936364Y-90640963D01*
X101140963Y-90436364D01*
X101301716Y-90195782D01*
X101412444Y-89928460D01*
X101468893Y-89644673D01*
X101468893Y-89355327D01*
X101412444Y-89071540D01*
X101301716Y-88804218D01*
X101140963Y-88563636D01*
X100936364Y-88359037D01*
X100695782Y-88198284D01*
X100428460Y-88087556D01*
X100144673Y-88031107D01*
X99855327Y-88031107D01*
X99571540Y-88087556D01*
X99304218Y-88198284D01*
X99063636Y-88359037D01*
X98859037Y-88563636D01*
X98698284Y-88804218D01*
X98587556Y-89071540D01*
X98531107Y-89355327D01*
X98531107Y-89644673D01*
X98587556Y-89928460D01*
X98698284Y-90195782D01*
X98830730Y-90394000D01*
X98158850Y-90394000D01*
X98133996Y-90391552D01*
X98109142Y-90394000D01*
X98034803Y-90401322D01*
X97939421Y-90430255D01*
X97880603Y-90461694D01*
X97849764Y-90415541D01*
X97754909Y-90320686D01*
X97643371Y-90246159D01*
X97519437Y-90194824D01*
X97387870Y-90168653D01*
X97253724Y-90168653D01*
X97122157Y-90194824D01*
X96998223Y-90246159D01*
X96886685Y-90320686D01*
X96791830Y-90415541D01*
X96717303Y-90527079D01*
X96665968Y-90651013D01*
X96639797Y-90782580D01*
X96639797Y-90916726D01*
X96665968Y-91048293D01*
X96717303Y-91172227D01*
X96791830Y-91283765D01*
X96886685Y-91378620D01*
X96918516Y-91399889D01*
X95591649Y-92726756D01*
X95431000Y-92813774D01*
X95431000Y-92782927D01*
X95404829Y-92651360D01*
X95353494Y-92527426D01*
X95278967Y-92415888D01*
X95188079Y-92325000D01*
X95228967Y-92284112D01*
X95303494Y-92172574D01*
X95354829Y-92048640D01*
X95381000Y-91917073D01*
X95381000Y-91782927D01*
X95354829Y-91651360D01*
X95303494Y-91527426D01*
X95289597Y-91506628D01*
X95298640Y-91504829D01*
X95422574Y-91453494D01*
X95534112Y-91378967D01*
X95628967Y-91284112D01*
X95703494Y-91172574D01*
X95754829Y-91048640D01*
X95781000Y-90917073D01*
X95781000Y-90782927D01*
X95754829Y-90651360D01*
X95703494Y-90527426D01*
X95628967Y-90415888D01*
X95534112Y-90321033D01*
X95422574Y-90246506D01*
X95298640Y-90195171D01*
X95167073Y-90169000D01*
X95032927Y-90169000D01*
X94901360Y-90195171D01*
X94777426Y-90246506D01*
X94665888Y-90321033D01*
X94571033Y-90415888D01*
X94496506Y-90527426D01*
X94445171Y-90651360D01*
X94419000Y-90782927D01*
X94419000Y-90917073D01*
X94445171Y-91048640D01*
X94496506Y-91172574D01*
X94510403Y-91193372D01*
X94501360Y-91195171D01*
X94377426Y-91246506D01*
X94265888Y-91321033D01*
X94171033Y-91415888D01*
X94096506Y-91527426D01*
X94045171Y-91651360D01*
X94019000Y-91782927D01*
X94019000Y-91917073D01*
X94045171Y-92048640D01*
X94096506Y-92172574D01*
X94171033Y-92284112D01*
X94261921Y-92375000D01*
X94221033Y-92415888D01*
X94146506Y-92527426D01*
X94095171Y-92651360D01*
X94069000Y-92782927D01*
X94069000Y-92917073D01*
X94084302Y-92993999D01*
X93624367Y-92993999D01*
X93570711Y-92913698D01*
X93486302Y-92829289D01*
X93387049Y-92762970D01*
X93276764Y-92717288D01*
X93159686Y-92694000D01*
X93040314Y-92694000D01*
X92923236Y-92717288D01*
X92812951Y-92762970D01*
X92713698Y-92829289D01*
X92629289Y-92913698D01*
X92562970Y-93012951D01*
X92517288Y-93123236D01*
X92494000Y-93240314D01*
X92494000Y-93359686D01*
X92517288Y-93476764D01*
X92562970Y-93587049D01*
X92629289Y-93686302D01*
X92713698Y-93770711D01*
X92806619Y-93832799D01*
X92259259Y-94380160D01*
X92239953Y-94396004D01*
X92176721Y-94473052D01*
X92163044Y-94498640D01*
X92129734Y-94560957D01*
X92100801Y-94656339D01*
X92091032Y-94755531D01*
X92093480Y-94780387D01*
X92093479Y-95503340D01*
X92093015Y-95545225D01*
X92091823Y-95574495D01*
X92090240Y-95593645D01*
X92088771Y-95604291D01*
X92087703Y-95609493D01*
X92086594Y-95613463D01*
X92084062Y-95620673D01*
X92078399Y-95634427D01*
X92071042Y-95650612D01*
X92062449Y-95663472D01*
X92016767Y-95773757D01*
X91993479Y-95890835D01*
X91993479Y-96010207D01*
X92016767Y-96127285D01*
X92062449Y-96237570D01*
X92128768Y-96336823D01*
X92213177Y-96421232D01*
X92273000Y-96461205D01*
X92273000Y-100177592D01*
X92031592Y-100419000D01*
X90531069Y-100419000D01*
X90422574Y-100346506D01*
X90298640Y-100295171D01*
X90167073Y-100269000D01*
X90032927Y-100269000D01*
X89901360Y-100295171D01*
X89777426Y-100346506D01*
X89665888Y-100421033D01*
X89571033Y-100515888D01*
X89496506Y-100627426D01*
X89445171Y-100751360D01*
X89419000Y-100882927D01*
X89419000Y-101017073D01*
X89445171Y-101148640D01*
X89496506Y-101272574D01*
X89571033Y-101384112D01*
X89665888Y-101478967D01*
X89777426Y-101553494D01*
X89901360Y-101604829D01*
X90032927Y-101631000D01*
X90167073Y-101631000D01*
X90298640Y-101604829D01*
X90422574Y-101553494D01*
X90531069Y-101481000D01*
X92225464Y-101481000D01*
X92251538Y-101483568D01*
X92273000Y-101481454D01*
X92273000Y-102006921D01*
X92177432Y-102046506D01*
X92065894Y-102121033D01*
X91971039Y-102215888D01*
X91896512Y-102327426D01*
X91845177Y-102451360D01*
X91819006Y-102582927D01*
X91819006Y-102717073D01*
X91845177Y-102848640D01*
X91896512Y-102972574D01*
X91971039Y-103084112D01*
X92065894Y-103178967D01*
X92177432Y-103253494D01*
X92273000Y-103293079D01*
X92273000Y-104726313D01*
X92201716Y-104554218D01*
X92040963Y-104313636D01*
X91836364Y-104109037D01*
X91595782Y-103948284D01*
X91328460Y-103837556D01*
X91044673Y-103781107D01*
X90755327Y-103781107D01*
X90471540Y-103837556D01*
X90204218Y-103948284D01*
X89963636Y-104109037D01*
X89759037Y-104313636D01*
X89598284Y-104554218D01*
X89487556Y-104821540D01*
X89431107Y-105105327D01*
X89431107Y-105394673D01*
X89487556Y-105678460D01*
X89598284Y-105945782D01*
X89759037Y-106186364D01*
X89963636Y-106390963D01*
X90204218Y-106551716D01*
X90471540Y-106662444D01*
X90755327Y-106718893D01*
X91044673Y-106718893D01*
X91328460Y-106662444D01*
X91595782Y-106551716D01*
X91836364Y-106390963D01*
X92040963Y-106186364D01*
X92201716Y-105945782D01*
X92273000Y-105773687D01*
X92273000Y-106800000D01*
X92275440Y-106824776D01*
X92282667Y-106848601D01*
X92294403Y-106870557D01*
X92310197Y-106889803D01*
X92329443Y-106905597D01*
X92351399Y-106917333D01*
X92375224Y-106924560D01*
X92400000Y-106927000D01*
X95974525Y-106927000D01*
X95927428Y-106946508D01*
X95815890Y-107021035D01*
X95721035Y-107115890D01*
X95646508Y-107227428D01*
X95595173Y-107351362D01*
X95569002Y-107482929D01*
X95569002Y-107617075D01*
X95595173Y-107748642D01*
X95646508Y-107872576D01*
X95721035Y-107984114D01*
X95815890Y-108078969D01*
X95927428Y-108153496D01*
X96051362Y-108204831D01*
X96182929Y-108231002D01*
X96317075Y-108231002D01*
X96448642Y-108204831D01*
X96572576Y-108153496D01*
X96684114Y-108078969D01*
X96778969Y-107984114D01*
X96853496Y-107872576D01*
X96904831Y-107748642D01*
X96931002Y-107617075D01*
X96931002Y-107482929D01*
X96904831Y-107351362D01*
X96853496Y-107227428D01*
X96778969Y-107115890D01*
X96684114Y-107021035D01*
X96572576Y-106946508D01*
X96525479Y-106927000D01*
X99407151Y-106927000D01*
X99367288Y-107023236D01*
X99344000Y-107140314D01*
X99344000Y-107259686D01*
X99367288Y-107376764D01*
X99407979Y-107475000D01*
X99367288Y-107573236D01*
X99344000Y-107690314D01*
X99344000Y-107809686D01*
X99367288Y-107926764D01*
X99412970Y-108037049D01*
X99479289Y-108136302D01*
X99563698Y-108220711D01*
X99662951Y-108287030D01*
X99773236Y-108332712D01*
X99890314Y-108356000D01*
X100009686Y-108356000D01*
X100126764Y-108332712D01*
X100237049Y-108287030D01*
X100250000Y-108278376D01*
X100262951Y-108287030D01*
X100373236Y-108332712D01*
X100490314Y-108356000D01*
X100609686Y-108356000D01*
X100726764Y-108332712D01*
X100825000Y-108292021D01*
X100923236Y-108332712D01*
X101040314Y-108356000D01*
X101159686Y-108356000D01*
X101276764Y-108332712D01*
X101387049Y-108287030D01*
X101486302Y-108220711D01*
X101570711Y-108136302D01*
X101637030Y-108037049D01*
X101682712Y-107926764D01*
X101706000Y-107809686D01*
X101706000Y-107690314D01*
X101682712Y-107573236D01*
X101642021Y-107475000D01*
X101682712Y-107376764D01*
X101706000Y-107259686D01*
X101706000Y-107140314D01*
X101682712Y-107023236D01*
X101642849Y-106927000D01*
X107873000Y-106927000D01*
X107873000Y-110097569D01*
X107591864Y-110329103D01*
X106409500Y-111101580D01*
X105149334Y-111739298D01*
X103826661Y-112234518D01*
X102457539Y-112581227D01*
X101058585Y-112775217D01*
X99646781Y-112814133D01*
X99551676Y-112806252D01*
X99554829Y-112798640D01*
X99581000Y-112667073D01*
X99581000Y-112532927D01*
X99554829Y-112401360D01*
X99503494Y-112277426D01*
X99428967Y-112165888D01*
X99334112Y-112071033D01*
X99222574Y-111996506D01*
X99098640Y-111945171D01*
X98967073Y-111919000D01*
X98832927Y-111919000D01*
X98701360Y-111945171D01*
X98577426Y-111996506D01*
X98465888Y-112071033D01*
X98371033Y-112165888D01*
X98296506Y-112277426D01*
X98245171Y-112401360D01*
X98219000Y-112532927D01*
X98219000Y-112667073D01*
X98224479Y-112694615D01*
X96853122Y-112426742D01*
X95505177Y-112005138D01*
X94211794Y-111437807D01*
X93008170Y-110742894D01*
X99219000Y-110742894D01*
X99219000Y-110862266D01*
X99242288Y-110979344D01*
X99272089Y-111051290D01*
X99242288Y-111123236D01*
X99219000Y-111240314D01*
X99219000Y-111359686D01*
X99242288Y-111476764D01*
X99287970Y-111587049D01*
X99354289Y-111686302D01*
X99438698Y-111770711D01*
X99537951Y-111837030D01*
X99648236Y-111882712D01*
X99765314Y-111906000D01*
X99884686Y-111906000D01*
X100001764Y-111882712D01*
X100112049Y-111837030D01*
X100211302Y-111770711D01*
X100295711Y-111686302D01*
X100362030Y-111587049D01*
X100407712Y-111476764D01*
X100431000Y-111359686D01*
X100431000Y-111240314D01*
X100407712Y-111123236D01*
X100377911Y-111051290D01*
X100407712Y-110979344D01*
X100431000Y-110862266D01*
X100431000Y-110742894D01*
X100407712Y-110625816D01*
X100362030Y-110515531D01*
X100295711Y-110416278D01*
X100211302Y-110331869D01*
X100112049Y-110265550D01*
X100001764Y-110219868D01*
X99884686Y-110196580D01*
X99765314Y-110196580D01*
X99648236Y-110219868D01*
X99537951Y-110265550D01*
X99438698Y-110331869D01*
X99354289Y-110416278D01*
X99287970Y-110515531D01*
X99242288Y-110625816D01*
X99219000Y-110742894D01*
X93008170Y-110742894D01*
X92988672Y-110731637D01*
X91850657Y-109895200D01*
X90811565Y-108938648D01*
X90203386Y-108240314D01*
X96744000Y-108240314D01*
X96744000Y-108359686D01*
X96767288Y-108476764D01*
X96812970Y-108587049D01*
X96879289Y-108686302D01*
X96963698Y-108770711D01*
X97062951Y-108837030D01*
X97173236Y-108882712D01*
X97290314Y-108906000D01*
X97409686Y-108906000D01*
X97526764Y-108882712D01*
X97637049Y-108837030D01*
X97736302Y-108770711D01*
X97820711Y-108686302D01*
X97887030Y-108587049D01*
X97932712Y-108476764D01*
X97956000Y-108359686D01*
X97956000Y-108240314D01*
X97932712Y-108123236D01*
X97887030Y-108012951D01*
X97820711Y-107913698D01*
X97736302Y-107829289D01*
X97637049Y-107762970D01*
X97526764Y-107717288D01*
X97409686Y-107694000D01*
X97290314Y-107694000D01*
X97173236Y-107717288D01*
X97062951Y-107762970D01*
X96963698Y-107829289D01*
X96879289Y-107913698D01*
X96812970Y-108012951D01*
X96767288Y-108123236D01*
X96744000Y-108240314D01*
X90203386Y-108240314D01*
X89884008Y-107873593D01*
X89079245Y-106712963D01*
X88407046Y-105470847D01*
X87875569Y-104162322D01*
X87491266Y-102803273D01*
X87412780Y-102332927D01*
X90069000Y-102332927D01*
X90069000Y-102467073D01*
X90095171Y-102598640D01*
X90146506Y-102722574D01*
X90221033Y-102834112D01*
X90315888Y-102928967D01*
X90427426Y-103003494D01*
X90551360Y-103054829D01*
X90682927Y-103081000D01*
X90817073Y-103081000D01*
X90948640Y-103054829D01*
X91072574Y-103003494D01*
X91184112Y-102928967D01*
X91278967Y-102834112D01*
X91353494Y-102722574D01*
X91404829Y-102598640D01*
X91431000Y-102467073D01*
X91431000Y-102332927D01*
X91404829Y-102201360D01*
X91353494Y-102077426D01*
X91278967Y-101965888D01*
X91184112Y-101871033D01*
X91072574Y-101796506D01*
X90948640Y-101745171D01*
X90817073Y-101719000D01*
X90682927Y-101719000D01*
X90551360Y-101745171D01*
X90427426Y-101796506D01*
X90315888Y-101871033D01*
X90221033Y-101965888D01*
X90146506Y-102077426D01*
X90095171Y-102201360D01*
X90069000Y-102332927D01*
X87412780Y-102332927D01*
X87258803Y-101410195D01*
X87181000Y-100000000D01*
X87258803Y-98589805D01*
X87360074Y-97982917D01*
X89419000Y-97982917D01*
X89419000Y-98117063D01*
X89445171Y-98248630D01*
X89496506Y-98372564D01*
X89571033Y-98484102D01*
X89665888Y-98578957D01*
X89702366Y-98603331D01*
X89675888Y-98621023D01*
X89581033Y-98715878D01*
X89506506Y-98827416D01*
X89455171Y-98951350D01*
X89429000Y-99082917D01*
X89429000Y-99217063D01*
X89455171Y-99348630D01*
X89506506Y-99472564D01*
X89581033Y-99584102D01*
X89675888Y-99678957D01*
X89787426Y-99753484D01*
X89911360Y-99804819D01*
X90042927Y-99830990D01*
X90177073Y-99830990D01*
X90308640Y-99804819D01*
X90432574Y-99753484D01*
X90544112Y-99678957D01*
X90638967Y-99584102D01*
X90713494Y-99472564D01*
X90764829Y-99348630D01*
X90791000Y-99217063D01*
X90791000Y-99082917D01*
X90764829Y-98951350D01*
X90713494Y-98827416D01*
X90638967Y-98715878D01*
X90544112Y-98621023D01*
X90507634Y-98596649D01*
X90534112Y-98578957D01*
X90628967Y-98484102D01*
X90703494Y-98372564D01*
X90754829Y-98248630D01*
X90781000Y-98117063D01*
X90781000Y-97982917D01*
X90754829Y-97851350D01*
X90703494Y-97727416D01*
X90628967Y-97615878D01*
X90534112Y-97521023D01*
X90422574Y-97446496D01*
X90298640Y-97395161D01*
X90167073Y-97368990D01*
X90032927Y-97368990D01*
X89901360Y-97395161D01*
X89777426Y-97446496D01*
X89665888Y-97521023D01*
X89571033Y-97615878D01*
X89496506Y-97727416D01*
X89445171Y-97851350D01*
X89419000Y-97982917D01*
X87360074Y-97982917D01*
X87491266Y-97196727D01*
X87707248Y-96432927D01*
X88969000Y-96432927D01*
X88969000Y-96567073D01*
X88995171Y-96698640D01*
X89046506Y-96822574D01*
X89121033Y-96934112D01*
X89215888Y-97028967D01*
X89327426Y-97103494D01*
X89451360Y-97154829D01*
X89582927Y-97181000D01*
X89717073Y-97181000D01*
X89848640Y-97154829D01*
X89972574Y-97103494D01*
X90084112Y-97028967D01*
X90178967Y-96934112D01*
X90253494Y-96822574D01*
X90304829Y-96698640D01*
X90331000Y-96567073D01*
X90331000Y-96432927D01*
X90304829Y-96301360D01*
X90253494Y-96177426D01*
X90178967Y-96065888D01*
X90084112Y-95971033D01*
X89972574Y-95896506D01*
X89848640Y-95845171D01*
X89717073Y-95819000D01*
X89582927Y-95819000D01*
X89451360Y-95845171D01*
X89327426Y-95896506D01*
X89215888Y-95971033D01*
X89121033Y-96065888D01*
X89046506Y-96177426D01*
X88995171Y-96301360D01*
X88969000Y-96432927D01*
X87707248Y-96432927D01*
X87875569Y-95837678D01*
X88407046Y-94529153D01*
X89079245Y-93287037D01*
X89884008Y-92126407D01*
X90572692Y-91335635D01*
X90595171Y-91448640D01*
X90646506Y-91572574D01*
X90721033Y-91684112D01*
X90815888Y-91778967D01*
X90900697Y-91835634D01*
X90817073Y-91819000D01*
X90682927Y-91819000D01*
X90551360Y-91845171D01*
X90427426Y-91896506D01*
X90315888Y-91971033D01*
X90221033Y-92065888D01*
X90146506Y-92177426D01*
X90095171Y-92301360D01*
X90069000Y-92432927D01*
X90069000Y-92567073D01*
X90095171Y-92698640D01*
X90146506Y-92822574D01*
X90221033Y-92934112D01*
X90315888Y-93028967D01*
X90427426Y-93103494D01*
X90551360Y-93154829D01*
X90682927Y-93181000D01*
X90817073Y-93181000D01*
X90948640Y-93154829D01*
X91072574Y-93103494D01*
X91184112Y-93028967D01*
X91278967Y-92934112D01*
X91353494Y-92822574D01*
X91404829Y-92698640D01*
X91431000Y-92567073D01*
X91431000Y-92432927D01*
X91404829Y-92301360D01*
X91353494Y-92177426D01*
X91278967Y-92065888D01*
X91184112Y-91971033D01*
X91099303Y-91914366D01*
X91182927Y-91931000D01*
X91317073Y-91931000D01*
X91448640Y-91904829D01*
X91572574Y-91853494D01*
X91684112Y-91778967D01*
X91778967Y-91684112D01*
X91853494Y-91572574D01*
X91904829Y-91448640D01*
X91931000Y-91317073D01*
X91931000Y-91182927D01*
X91904829Y-91051360D01*
X91853494Y-90927426D01*
X91778967Y-90815888D01*
X91684112Y-90721033D01*
X91572574Y-90646506D01*
X91448640Y-90595171D01*
X91341190Y-90573797D01*
X91850657Y-90104800D01*
X92988672Y-89268363D01*
X94211794Y-88562193D01*
X94392502Y-88482927D01*
X95469000Y-88482927D01*
X95469000Y-88617073D01*
X95495171Y-88748640D01*
X95546506Y-88872574D01*
X95621033Y-88984112D01*
X95715888Y-89078967D01*
X95827426Y-89153494D01*
X95951360Y-89204829D01*
X96082927Y-89231000D01*
X96217073Y-89231000D01*
X96348640Y-89204829D01*
X96472574Y-89153494D01*
X96584112Y-89078967D01*
X96678967Y-88984112D01*
X96753494Y-88872574D01*
X96804829Y-88748640D01*
X96831000Y-88617073D01*
X96831000Y-88482927D01*
X96804829Y-88351360D01*
X96753494Y-88227426D01*
X96678967Y-88115888D01*
X96584112Y-88021033D01*
X96472574Y-87946506D01*
X96348640Y-87895171D01*
X96217073Y-87869000D01*
X96082927Y-87869000D01*
X95951360Y-87895171D01*
X95827426Y-87946506D01*
X95715888Y-88021033D01*
X95621033Y-88115888D01*
X95546506Y-88227426D01*
X95495171Y-88351360D01*
X95469000Y-88482927D01*
X94392502Y-88482927D01*
X95505177Y-87994862D01*
X96853122Y-87573258D01*
X98239265Y-87302497D01*
X99646781Y-87185867D01*
X101058585Y-87224783D01*
%TO.N,+3V3*%
G36*
X107591864Y-89670897D02*
G01*
X108682072Y-90568755D01*
X109666893Y-91581096D01*
X110534370Y-92695631D01*
X111273974Y-93898830D01*
X111876727Y-95176090D01*
X112335313Y-96511906D01*
X112644166Y-97890062D01*
X112799535Y-99293830D01*
X112799535Y-100706170D01*
X112644166Y-102109938D01*
X112335313Y-103488094D01*
X111876727Y-104823910D01*
X111273974Y-106101170D01*
X110534370Y-107304369D01*
X109666893Y-108418904D01*
X108682072Y-109431245D01*
X108381000Y-109679198D01*
X108381000Y-106800000D01*
X108373679Y-106725671D01*
X108351998Y-106654198D01*
X108316790Y-106588328D01*
X108269408Y-106530592D01*
X108211672Y-106483210D01*
X108145802Y-106448002D01*
X108074329Y-106426321D01*
X108000000Y-106419000D01*
X101660246Y-106419000D01*
X101652376Y-106400000D01*
X101682712Y-106326764D01*
X101706000Y-106209686D01*
X101706000Y-106090314D01*
X101682712Y-105973236D01*
X101637030Y-105862951D01*
X101570711Y-105763698D01*
X101486302Y-105679289D01*
X101387049Y-105612970D01*
X101276764Y-105567288D01*
X101159686Y-105544000D01*
X101040314Y-105544000D01*
X100923236Y-105567288D01*
X100825000Y-105607979D01*
X100726764Y-105567288D01*
X100609686Y-105544000D01*
X100490314Y-105544000D01*
X100373236Y-105567288D01*
X100262951Y-105612970D01*
X100250000Y-105621624D01*
X100237049Y-105612970D01*
X100126764Y-105567288D01*
X100009686Y-105544000D01*
X99890314Y-105544000D01*
X99773236Y-105567288D01*
X99662951Y-105612970D01*
X99563698Y-105679289D01*
X99479289Y-105763698D01*
X99412970Y-105862951D01*
X99367288Y-105973236D01*
X99344000Y-106090314D01*
X99344000Y-106209686D01*
X99367288Y-106326764D01*
X99397624Y-106400000D01*
X99389754Y-106419000D01*
X92781000Y-106419000D01*
X92781000Y-104640314D01*
X94694000Y-104640314D01*
X94694000Y-104759686D01*
X94717288Y-104876764D01*
X94762970Y-104987049D01*
X94829289Y-105086302D01*
X94913698Y-105170711D01*
X95012951Y-105237030D01*
X95123236Y-105282712D01*
X95240314Y-105306000D01*
X95359686Y-105306000D01*
X95476764Y-105282712D01*
X95587049Y-105237030D01*
X95650376Y-105194716D01*
X104544000Y-105194716D01*
X104544000Y-105314088D01*
X104567288Y-105431166D01*
X104612970Y-105541451D01*
X104679289Y-105640704D01*
X104763698Y-105725113D01*
X104862951Y-105791432D01*
X104973236Y-105837114D01*
X105090314Y-105860402D01*
X105209686Y-105860402D01*
X105326764Y-105837114D01*
X105437049Y-105791432D01*
X105536302Y-105725113D01*
X105620711Y-105640704D01*
X105687030Y-105541451D01*
X105732712Y-105431166D01*
X105756000Y-105314088D01*
X105756000Y-105194716D01*
X105738220Y-105105327D01*
X107631107Y-105105327D01*
X107631107Y-105394673D01*
X107687556Y-105678460D01*
X107798284Y-105945782D01*
X107959037Y-106186364D01*
X108163636Y-106390963D01*
X108404218Y-106551716D01*
X108671540Y-106662444D01*
X108955327Y-106718893D01*
X109244673Y-106718893D01*
X109528460Y-106662444D01*
X109795782Y-106551716D01*
X110036364Y-106390963D01*
X110240963Y-106186364D01*
X110401716Y-105945782D01*
X110512444Y-105678460D01*
X110568893Y-105394673D01*
X110568893Y-105105327D01*
X110512444Y-104821540D01*
X110401716Y-104554218D01*
X110240963Y-104313636D01*
X110036364Y-104109037D01*
X109795782Y-103948284D01*
X109528460Y-103837556D01*
X109244673Y-103781107D01*
X108955327Y-103781107D01*
X108671540Y-103837556D01*
X108404218Y-103948284D01*
X108163636Y-104109037D01*
X107959037Y-104313636D01*
X107798284Y-104554218D01*
X107687556Y-104821540D01*
X107631107Y-105105327D01*
X105738220Y-105105327D01*
X105732712Y-105077638D01*
X105687030Y-104967353D01*
X105620711Y-104868100D01*
X105536302Y-104783691D01*
X105437049Y-104717372D01*
X105326764Y-104671690D01*
X105209686Y-104648402D01*
X105090314Y-104648402D01*
X104973236Y-104671690D01*
X104862951Y-104717372D01*
X104763698Y-104783691D01*
X104679289Y-104868100D01*
X104612970Y-104967353D01*
X104567288Y-105077638D01*
X104544000Y-105194716D01*
X95650376Y-105194716D01*
X95686302Y-105170711D01*
X95770711Y-105086302D01*
X95837030Y-104987049D01*
X95882712Y-104876764D01*
X95906000Y-104759686D01*
X95906000Y-104640314D01*
X95882712Y-104523236D01*
X95837030Y-104412951D01*
X95770711Y-104313698D01*
X95686302Y-104229289D01*
X95587049Y-104162970D01*
X95476764Y-104117288D01*
X95359686Y-104094000D01*
X95240314Y-104094000D01*
X95123236Y-104117288D01*
X95012951Y-104162970D01*
X94913698Y-104229289D01*
X94829289Y-104313698D01*
X94762970Y-104412951D01*
X94717288Y-104523236D01*
X94694000Y-104640314D01*
X92781000Y-104640314D01*
X92781000Y-103332927D01*
X93744000Y-103332927D01*
X93744000Y-103467073D01*
X93770171Y-103598640D01*
X93821506Y-103722574D01*
X93896033Y-103834112D01*
X93990888Y-103928967D01*
X94102426Y-104003494D01*
X94226360Y-104054829D01*
X94357927Y-104081000D01*
X94492073Y-104081000D01*
X94623640Y-104054829D01*
X94747574Y-104003494D01*
X94859112Y-103928967D01*
X94953967Y-103834112D01*
X95028494Y-103722574D01*
X95079829Y-103598640D01*
X95106000Y-103467073D01*
X95106000Y-103332927D01*
X95079829Y-103201360D01*
X95028494Y-103077426D01*
X94953967Y-102965888D01*
X94859112Y-102871033D01*
X94747574Y-102796506D01*
X94623640Y-102745171D01*
X94492073Y-102719000D01*
X94357927Y-102719000D01*
X94226360Y-102745171D01*
X94102426Y-102796506D01*
X93990888Y-102871033D01*
X93896033Y-102965888D01*
X93821506Y-103077426D01*
X93770171Y-103201360D01*
X93744000Y-103332927D01*
X92781000Y-103332927D01*
X92781000Y-103270717D01*
X92822580Y-103253494D01*
X92934118Y-103178967D01*
X93028973Y-103084112D01*
X93103500Y-102972574D01*
X93154835Y-102848640D01*
X93181006Y-102717073D01*
X93181006Y-102582927D01*
X93154835Y-102451360D01*
X93103500Y-102327426D01*
X93028973Y-102215888D01*
X92934118Y-102121033D01*
X92822580Y-102046506D01*
X92807632Y-102040314D01*
X94693994Y-102040314D01*
X94693994Y-102159686D01*
X94717282Y-102276764D01*
X94762964Y-102387049D01*
X94829283Y-102486302D01*
X94913692Y-102570711D01*
X95012945Y-102637030D01*
X95123230Y-102682712D01*
X95240308Y-102706000D01*
X95359680Y-102706000D01*
X95476758Y-102682712D01*
X95587043Y-102637030D01*
X95656958Y-102590314D01*
X96394000Y-102590314D01*
X96394000Y-102709686D01*
X96417288Y-102826764D01*
X96462970Y-102937049D01*
X96529289Y-103036302D01*
X96613698Y-103120711D01*
X96712951Y-103187030D01*
X96823236Y-103232712D01*
X96940314Y-103256000D01*
X97059686Y-103256000D01*
X97176764Y-103232712D01*
X97287049Y-103187030D01*
X97386302Y-103120711D01*
X97470711Y-103036302D01*
X97537030Y-102937049D01*
X97582712Y-102826764D01*
X97606000Y-102709686D01*
X97606000Y-102590314D01*
X97582712Y-102473236D01*
X97537030Y-102362951D01*
X97470711Y-102263698D01*
X97386302Y-102179289D01*
X97287049Y-102112970D01*
X97176764Y-102067288D01*
X97059686Y-102044000D01*
X96940314Y-102044000D01*
X96823236Y-102067288D01*
X96712951Y-102112970D01*
X96613698Y-102179289D01*
X96529289Y-102263698D01*
X96462970Y-102362951D01*
X96417288Y-102473236D01*
X96394000Y-102590314D01*
X95656958Y-102590314D01*
X95686296Y-102570711D01*
X95770705Y-102486302D01*
X95837024Y-102387049D01*
X95882706Y-102276764D01*
X95905994Y-102159686D01*
X95905994Y-102040314D01*
X95882706Y-101923236D01*
X95837024Y-101812951D01*
X95770705Y-101713698D01*
X95686296Y-101629289D01*
X95587043Y-101562970D01*
X95476758Y-101517288D01*
X95359680Y-101494000D01*
X95240308Y-101494000D01*
X95123230Y-101517288D01*
X95012945Y-101562970D01*
X94913692Y-101629289D01*
X94829283Y-101713698D01*
X94762964Y-101812951D01*
X94717282Y-101923236D01*
X94693994Y-102040314D01*
X92807632Y-102040314D01*
X92781000Y-102029283D01*
X92781000Y-98354974D01*
X92901360Y-98404829D01*
X93032927Y-98431000D01*
X93167073Y-98431000D01*
X93298640Y-98404829D01*
X93422574Y-98353494D01*
X93534112Y-98278967D01*
X93628967Y-98184112D01*
X93703494Y-98072574D01*
X93754829Y-97948640D01*
X93781000Y-97817073D01*
X93781000Y-97682927D01*
X93754829Y-97551360D01*
X93703494Y-97427426D01*
X93628967Y-97315888D01*
X93534112Y-97221033D01*
X93422574Y-97146506D01*
X93298640Y-97095171D01*
X93167073Y-97069000D01*
X93032927Y-97069000D01*
X92901360Y-97095171D01*
X92781000Y-97145026D01*
X92781000Y-96531263D01*
X92886528Y-96487551D01*
X92985781Y-96421232D01*
X93070190Y-96336823D01*
X93136509Y-96237570D01*
X93182191Y-96127285D01*
X93205479Y-96010207D01*
X93205479Y-95890835D01*
X93188534Y-95805646D01*
X93190314Y-95806000D01*
X93309686Y-95806000D01*
X93426764Y-95782712D01*
X93537049Y-95737030D01*
X93549916Y-95728432D01*
X93566093Y-95721079D01*
X93579847Y-95715416D01*
X93587057Y-95712884D01*
X93591027Y-95711775D01*
X93596229Y-95710707D01*
X93606875Y-95709238D01*
X93626025Y-95707655D01*
X93655295Y-95706463D01*
X93697135Y-95706000D01*
X95348552Y-95706000D01*
X95313698Y-95729289D01*
X95229289Y-95813698D01*
X95162970Y-95912951D01*
X95117288Y-96023236D01*
X95094000Y-96140314D01*
X95094000Y-96259686D01*
X95117288Y-96376764D01*
X95162970Y-96487049D01*
X95229289Y-96586302D01*
X95313698Y-96670711D01*
X95412951Y-96737030D01*
X95523236Y-96782712D01*
X95538418Y-96785732D01*
X95555071Y-96791977D01*
X95568782Y-96797690D01*
X95575656Y-96800991D01*
X95579272Y-96803028D01*
X95583682Y-96805936D01*
X95592268Y-96812440D01*
X95606924Y-96824858D01*
X95628446Y-96844695D01*
X95658415Y-96874007D01*
X95674628Y-96890220D01*
X95690473Y-96909527D01*
X95767521Y-96972759D01*
X95848271Y-97015921D01*
X95855425Y-97019745D01*
X95950807Y-97048678D01*
X96050000Y-97058448D01*
X96074854Y-97056000D01*
X98240409Y-97056000D01*
X98293999Y-97109590D01*
X98293998Y-97440410D01*
X97914798Y-97819610D01*
X97912040Y-97812951D01*
X97845721Y-97713698D01*
X97761312Y-97629289D01*
X97662059Y-97562970D01*
X97551774Y-97517288D01*
X97434696Y-97494000D01*
X97315324Y-97494000D01*
X97198246Y-97517288D01*
X97087961Y-97562970D01*
X96988708Y-97629289D01*
X96904299Y-97713698D01*
X96837980Y-97812951D01*
X96792298Y-97923236D01*
X96769010Y-98040314D01*
X96769010Y-98108183D01*
X96723236Y-98117288D01*
X96612951Y-98162970D01*
X96513698Y-98229289D01*
X96429289Y-98313698D01*
X96362970Y-98412951D01*
X96317288Y-98523236D01*
X96294000Y-98640314D01*
X96294000Y-98759686D01*
X96317288Y-98876764D01*
X96362970Y-98987049D01*
X96429289Y-99086302D01*
X96513698Y-99170711D01*
X96612951Y-99237030D01*
X96723236Y-99282712D01*
X96840314Y-99306000D01*
X96959686Y-99306000D01*
X97076764Y-99282712D01*
X97143979Y-99254870D01*
X97143979Y-99309686D01*
X97167267Y-99426764D01*
X97212949Y-99537049D01*
X97279268Y-99636302D01*
X97363677Y-99720711D01*
X97462930Y-99787030D01*
X97573215Y-99832712D01*
X97690293Y-99856000D01*
X97693990Y-99856000D01*
X97693989Y-102675873D01*
X97691542Y-102700719D01*
X97693989Y-102725565D01*
X97693989Y-102725572D01*
X97701311Y-102799911D01*
X97730244Y-102895293D01*
X97777230Y-102983197D01*
X97840462Y-103060245D01*
X97859768Y-103076089D01*
X98823915Y-104040237D01*
X98839760Y-104059544D01*
X98916808Y-104122776D01*
X98990793Y-104162322D01*
X99004712Y-104169762D01*
X99100094Y-104198695D01*
X99199287Y-104208465D01*
X99224141Y-104206017D01*
X101181108Y-104206017D01*
X101205954Y-104208464D01*
X101230800Y-104206017D01*
X101230808Y-104206017D01*
X101305147Y-104198695D01*
X101400529Y-104169762D01*
X101488433Y-104122776D01*
X101565481Y-104059544D01*
X101581330Y-104040232D01*
X102490228Y-103131335D01*
X102509535Y-103115490D01*
X102572767Y-103038442D01*
X102619753Y-102950538D01*
X102648686Y-102855156D01*
X102656008Y-102780817D01*
X102656008Y-102780809D01*
X102658455Y-102755963D01*
X102656008Y-102731117D01*
X102656008Y-102482391D01*
X102662951Y-102487030D01*
X102773236Y-102532712D01*
X102890314Y-102556000D01*
X103009686Y-102556000D01*
X103126764Y-102532712D01*
X103237049Y-102487030D01*
X103336302Y-102420711D01*
X103420711Y-102336302D01*
X103487030Y-102237049D01*
X103532712Y-102126764D01*
X103556000Y-102009686D01*
X103556000Y-101890314D01*
X103532712Y-101773236D01*
X103487030Y-101662951D01*
X103466969Y-101632927D01*
X105869000Y-101632927D01*
X105869000Y-101767073D01*
X105895171Y-101898640D01*
X105946506Y-102022574D01*
X106021033Y-102134112D01*
X106115888Y-102228967D01*
X106227426Y-102303494D01*
X106351360Y-102354829D01*
X106482927Y-102381000D01*
X106617073Y-102381000D01*
X106748640Y-102354829D01*
X106872574Y-102303494D01*
X106984112Y-102228967D01*
X107078967Y-102134112D01*
X107117269Y-102076789D01*
X107162940Y-102187049D01*
X107229259Y-102286302D01*
X107313668Y-102370711D01*
X107412921Y-102437030D01*
X107523206Y-102482712D01*
X107640284Y-102506000D01*
X107759656Y-102506000D01*
X107876734Y-102482712D01*
X107987019Y-102437030D01*
X108086272Y-102370711D01*
X108170681Y-102286302D01*
X108237000Y-102187049D01*
X108282682Y-102076764D01*
X108305970Y-101959686D01*
X108305970Y-101840314D01*
X108282682Y-101723236D01*
X108237000Y-101612951D01*
X108170681Y-101513698D01*
X108086272Y-101429289D01*
X107987019Y-101362970D01*
X107876734Y-101317288D01*
X107759656Y-101294000D01*
X107640284Y-101294000D01*
X107523206Y-101317288D01*
X107412921Y-101362970D01*
X107313668Y-101429289D01*
X107229259Y-101513698D01*
X107212325Y-101539042D01*
X107204829Y-101501360D01*
X107153494Y-101377426D01*
X107078967Y-101265888D01*
X106984112Y-101171033D01*
X106872574Y-101096506D01*
X106748640Y-101045171D01*
X106617073Y-101019000D01*
X106482927Y-101019000D01*
X106351360Y-101045171D01*
X106227426Y-101096506D01*
X106115888Y-101171033D01*
X106021033Y-101265888D01*
X105946506Y-101377426D01*
X105895171Y-101501360D01*
X105869000Y-101632927D01*
X103466969Y-101632927D01*
X103428271Y-101575012D01*
X103432471Y-101572767D01*
X103509519Y-101509535D01*
X103525368Y-101490223D01*
X104640219Y-100375373D01*
X104643846Y-100372396D01*
X109226462Y-100372396D01*
X109226462Y-100614882D01*
X109273769Y-100852708D01*
X109366564Y-101076736D01*
X109501282Y-101278356D01*
X109672745Y-101449819D01*
X109874365Y-101584537D01*
X110098393Y-101677332D01*
X110336219Y-101724639D01*
X110578705Y-101724639D01*
X110816531Y-101677332D01*
X111040559Y-101584537D01*
X111242179Y-101449819D01*
X111413642Y-101278356D01*
X111548360Y-101076736D01*
X111641155Y-100852708D01*
X111688462Y-100614882D01*
X111688462Y-100372396D01*
X111641155Y-100134570D01*
X111548360Y-99910542D01*
X111413642Y-99708922D01*
X111242179Y-99537459D01*
X111040559Y-99402741D01*
X110816531Y-99309946D01*
X110578705Y-99262639D01*
X110336219Y-99262639D01*
X110098393Y-99309946D01*
X109874365Y-99402741D01*
X109672745Y-99537459D01*
X109501282Y-99708922D01*
X109366564Y-99910542D01*
X109273769Y-100134570D01*
X109226462Y-100372396D01*
X104643846Y-100372396D01*
X104659526Y-100359528D01*
X104722758Y-100282480D01*
X104769744Y-100194576D01*
X104796786Y-100105428D01*
X104798677Y-100099195D01*
X104802987Y-100055431D01*
X104805999Y-100024855D01*
X104805999Y-100024848D01*
X104808446Y-100000002D01*
X104805999Y-99975156D01*
X104805999Y-99332927D01*
X105719000Y-99332927D01*
X105719000Y-99467073D01*
X105745171Y-99598640D01*
X105796506Y-99722574D01*
X105871033Y-99834112D01*
X105965888Y-99928967D01*
X106077426Y-100003494D01*
X106201360Y-100054829D01*
X106332927Y-100081000D01*
X106467073Y-100081000D01*
X106598640Y-100054829D01*
X106722574Y-100003494D01*
X106834112Y-99928967D01*
X106928967Y-99834112D01*
X107003494Y-99722574D01*
X107054829Y-99598640D01*
X107081000Y-99467073D01*
X107081000Y-99332927D01*
X107054829Y-99201360D01*
X107003494Y-99077426D01*
X106928967Y-98965888D01*
X106834112Y-98871033D01*
X106722574Y-98796506D01*
X106598640Y-98745171D01*
X106467073Y-98719000D01*
X106332927Y-98719000D01*
X106201360Y-98745171D01*
X106077426Y-98796506D01*
X105965888Y-98871033D01*
X105871033Y-98965888D01*
X105796506Y-99077426D01*
X105745171Y-99201360D01*
X105719000Y-99332927D01*
X104805999Y-99332927D01*
X104805999Y-98674844D01*
X104808446Y-98649998D01*
X104805999Y-98625152D01*
X104805999Y-98625145D01*
X104798677Y-98550806D01*
X104798556Y-98550405D01*
X104788311Y-98516634D01*
X104769744Y-98455424D01*
X104722758Y-98367520D01*
X104714723Y-98357729D01*
X104714218Y-98356503D01*
X104699247Y-98320640D01*
X104685510Y-98286477D01*
X104685152Y-98285505D01*
X104682712Y-98273236D01*
X104637030Y-98162951D01*
X104570711Y-98063698D01*
X104486302Y-97979289D01*
X104456000Y-97959042D01*
X104456000Y-97890314D01*
X104432712Y-97773236D01*
X104387030Y-97662951D01*
X104378434Y-97650086D01*
X104371079Y-97633906D01*
X104365416Y-97620152D01*
X104362884Y-97612942D01*
X104361775Y-97608972D01*
X104360707Y-97603770D01*
X104359238Y-97593124D01*
X104357655Y-97573974D01*
X104356463Y-97544704D01*
X104356000Y-97502865D01*
X104356000Y-97482927D01*
X105519000Y-97482927D01*
X105519000Y-97617073D01*
X105545171Y-97748640D01*
X105596506Y-97872574D01*
X105671033Y-97984112D01*
X105765888Y-98078967D01*
X105877426Y-98153494D01*
X106001360Y-98204829D01*
X106132927Y-98231000D01*
X106267073Y-98231000D01*
X106398640Y-98204829D01*
X106522574Y-98153494D01*
X106634112Y-98078967D01*
X106727503Y-97985576D01*
X108357731Y-97985576D01*
X108357731Y-98228062D01*
X108405038Y-98465888D01*
X108497833Y-98689916D01*
X108632551Y-98891536D01*
X108804014Y-99062999D01*
X109005634Y-99197717D01*
X109229662Y-99290512D01*
X109467488Y-99337819D01*
X109709974Y-99337819D01*
X109947800Y-99290512D01*
X110171828Y-99197717D01*
X110373448Y-99062999D01*
X110544911Y-98891536D01*
X110679629Y-98689916D01*
X110772424Y-98465888D01*
X110819731Y-98228062D01*
X110819731Y-97985576D01*
X110772424Y-97747750D01*
X110679629Y-97523722D01*
X110544911Y-97322102D01*
X110373448Y-97150639D01*
X110171828Y-97015921D01*
X109947800Y-96923126D01*
X109709974Y-96875819D01*
X109467488Y-96875819D01*
X109229662Y-96923126D01*
X109005634Y-97015921D01*
X108804014Y-97150639D01*
X108632551Y-97322102D01*
X108497833Y-97523722D01*
X108405038Y-97747750D01*
X108357731Y-97985576D01*
X106727503Y-97985576D01*
X106728967Y-97984112D01*
X106803494Y-97872574D01*
X106854829Y-97748640D01*
X106881000Y-97617073D01*
X106881000Y-97482927D01*
X106854829Y-97351360D01*
X106803494Y-97227426D01*
X106728967Y-97115888D01*
X106634112Y-97021033D01*
X106522574Y-96946506D01*
X106398640Y-96895171D01*
X106267073Y-96869000D01*
X106132927Y-96869000D01*
X106001360Y-96895171D01*
X105877426Y-96946506D01*
X105765888Y-97021033D01*
X105671033Y-97115888D01*
X105596506Y-97227426D01*
X105545171Y-97351360D01*
X105519000Y-97482927D01*
X104356000Y-97482927D01*
X104356000Y-95574845D01*
X104358447Y-95549999D01*
X104356000Y-95525153D01*
X104356000Y-95525146D01*
X104348678Y-95450807D01*
X104319745Y-95355425D01*
X104272759Y-95267521D01*
X104213472Y-95195279D01*
X107248065Y-95195279D01*
X107252157Y-95270217D01*
X107270789Y-95342918D01*
X107852223Y-96940396D01*
X107884681Y-97008065D01*
X107929716Y-97068101D01*
X107985599Y-97118198D01*
X108050181Y-97156430D01*
X108120982Y-97181327D01*
X108195279Y-97191935D01*
X108270217Y-97187843D01*
X108342918Y-97169211D01*
X109940396Y-96587777D01*
X110008065Y-96555319D01*
X110068101Y-96510284D01*
X110118198Y-96454401D01*
X110156430Y-96389819D01*
X110181327Y-96319018D01*
X110191935Y-96244721D01*
X110187843Y-96169783D01*
X110169211Y-96097082D01*
X109587777Y-94499604D01*
X109555319Y-94431935D01*
X109510284Y-94371899D01*
X109454401Y-94321802D01*
X109389819Y-94283570D01*
X109319018Y-94258673D01*
X109244721Y-94248065D01*
X109169783Y-94252157D01*
X109097082Y-94270789D01*
X107499604Y-94852223D01*
X107431935Y-94884681D01*
X107371899Y-94929716D01*
X107321802Y-94985599D01*
X107283570Y-95050181D01*
X107258673Y-95120982D01*
X107248065Y-95195279D01*
X104213472Y-95195279D01*
X104209527Y-95190473D01*
X104190220Y-95174628D01*
X102448519Y-93432927D01*
X104994010Y-93432927D01*
X104994010Y-93567073D01*
X105020181Y-93698640D01*
X105071516Y-93822574D01*
X105146043Y-93934112D01*
X105240898Y-94028967D01*
X105352436Y-94103494D01*
X105476370Y-94154829D01*
X105607937Y-94181000D01*
X105742083Y-94181000D01*
X105873650Y-94154829D01*
X105997584Y-94103494D01*
X106109122Y-94028967D01*
X106203977Y-93934112D01*
X106278504Y-93822574D01*
X106329839Y-93698640D01*
X106356010Y-93567073D01*
X106356010Y-93432927D01*
X106329839Y-93301360D01*
X106278504Y-93177426D01*
X106203977Y-93065888D01*
X106109122Y-92971033D01*
X105997584Y-92896506D01*
X105873650Y-92845171D01*
X105742083Y-92819000D01*
X105607937Y-92819000D01*
X105476370Y-92845171D01*
X105352436Y-92896506D01*
X105240898Y-92971033D01*
X105146043Y-93065888D01*
X105071516Y-93177426D01*
X105020181Y-93301360D01*
X104994010Y-93432927D01*
X102448519Y-93432927D01*
X101396591Y-92381000D01*
X105800000Y-92381000D01*
X105874329Y-92373679D01*
X105945802Y-92351998D01*
X106011672Y-92316790D01*
X106069408Y-92269408D01*
X106116790Y-92211672D01*
X106151998Y-92145802D01*
X106173679Y-92074329D01*
X106181000Y-92000000D01*
X106181000Y-91582927D01*
X107719000Y-91582927D01*
X107719000Y-91717073D01*
X107745171Y-91848640D01*
X107796506Y-91972574D01*
X107871033Y-92084112D01*
X107965888Y-92178967D01*
X108077426Y-92253494D01*
X108201360Y-92304829D01*
X108332927Y-92331000D01*
X108467073Y-92331000D01*
X108598640Y-92304829D01*
X108722574Y-92253494D01*
X108834112Y-92178967D01*
X108928967Y-92084112D01*
X109003494Y-91972574D01*
X109054829Y-91848640D01*
X109081000Y-91717073D01*
X109081000Y-91582927D01*
X109054829Y-91451360D01*
X109003494Y-91327426D01*
X108928967Y-91215888D01*
X108834112Y-91121033D01*
X108722574Y-91046506D01*
X108598640Y-90995171D01*
X108467073Y-90969000D01*
X108332927Y-90969000D01*
X108201360Y-90995171D01*
X108077426Y-91046506D01*
X107965888Y-91121033D01*
X107871033Y-91215888D01*
X107796506Y-91327426D01*
X107745171Y-91451360D01*
X107719000Y-91582927D01*
X106181000Y-91582927D01*
X106181000Y-89931000D01*
X106267073Y-89931000D01*
X106398640Y-89904829D01*
X106522574Y-89853494D01*
X106634112Y-89778967D01*
X106728967Y-89684112D01*
X106803494Y-89572574D01*
X106854829Y-89448640D01*
X106881000Y-89317073D01*
X106881000Y-89206466D01*
X107591864Y-89670897D01*
G37*
X107591864Y-89670897D02*
X108682072Y-90568755D01*
X109666893Y-91581096D01*
X110534370Y-92695631D01*
X111273974Y-93898830D01*
X111876727Y-95176090D01*
X112335313Y-96511906D01*
X112644166Y-97890062D01*
X112799535Y-99293830D01*
X112799535Y-100706170D01*
X112644166Y-102109938D01*
X112335313Y-103488094D01*
X111876727Y-104823910D01*
X111273974Y-106101170D01*
X110534370Y-107304369D01*
X109666893Y-108418904D01*
X108682072Y-109431245D01*
X108381000Y-109679198D01*
X108381000Y-106800000D01*
X108373679Y-106725671D01*
X108351998Y-106654198D01*
X108316790Y-106588328D01*
X108269408Y-106530592D01*
X108211672Y-106483210D01*
X108145802Y-106448002D01*
X108074329Y-106426321D01*
X108000000Y-106419000D01*
X101660246Y-106419000D01*
X101652376Y-106400000D01*
X101682712Y-106326764D01*
X101706000Y-106209686D01*
X101706000Y-106090314D01*
X101682712Y-105973236D01*
X101637030Y-105862951D01*
X101570711Y-105763698D01*
X101486302Y-105679289D01*
X101387049Y-105612970D01*
X101276764Y-105567288D01*
X101159686Y-105544000D01*
X101040314Y-105544000D01*
X100923236Y-105567288D01*
X100825000Y-105607979D01*
X100726764Y-105567288D01*
X100609686Y-105544000D01*
X100490314Y-105544000D01*
X100373236Y-105567288D01*
X100262951Y-105612970D01*
X100250000Y-105621624D01*
X100237049Y-105612970D01*
X100126764Y-105567288D01*
X100009686Y-105544000D01*
X99890314Y-105544000D01*
X99773236Y-105567288D01*
X99662951Y-105612970D01*
X99563698Y-105679289D01*
X99479289Y-105763698D01*
X99412970Y-105862951D01*
X99367288Y-105973236D01*
X99344000Y-106090314D01*
X99344000Y-106209686D01*
X99367288Y-106326764D01*
X99397624Y-106400000D01*
X99389754Y-106419000D01*
X92781000Y-106419000D01*
X92781000Y-104640314D01*
X94694000Y-104640314D01*
X94694000Y-104759686D01*
X94717288Y-104876764D01*
X94762970Y-104987049D01*
X94829289Y-105086302D01*
X94913698Y-105170711D01*
X95012951Y-105237030D01*
X95123236Y-105282712D01*
X95240314Y-105306000D01*
X95359686Y-105306000D01*
X95476764Y-105282712D01*
X95587049Y-105237030D01*
X95650376Y-105194716D01*
X104544000Y-105194716D01*
X104544000Y-105314088D01*
X104567288Y-105431166D01*
X104612970Y-105541451D01*
X104679289Y-105640704D01*
X104763698Y-105725113D01*
X104862951Y-105791432D01*
X104973236Y-105837114D01*
X105090314Y-105860402D01*
X105209686Y-105860402D01*
X105326764Y-105837114D01*
X105437049Y-105791432D01*
X105536302Y-105725113D01*
X105620711Y-105640704D01*
X105687030Y-105541451D01*
X105732712Y-105431166D01*
X105756000Y-105314088D01*
X105756000Y-105194716D01*
X105738220Y-105105327D01*
X107631107Y-105105327D01*
X107631107Y-105394673D01*
X107687556Y-105678460D01*
X107798284Y-105945782D01*
X107959037Y-106186364D01*
X108163636Y-106390963D01*
X108404218Y-106551716D01*
X108671540Y-106662444D01*
X108955327Y-106718893D01*
X109244673Y-106718893D01*
X109528460Y-106662444D01*
X109795782Y-106551716D01*
X110036364Y-106390963D01*
X110240963Y-106186364D01*
X110401716Y-105945782D01*
X110512444Y-105678460D01*
X110568893Y-105394673D01*
X110568893Y-105105327D01*
X110512444Y-104821540D01*
X110401716Y-104554218D01*
X110240963Y-104313636D01*
X110036364Y-104109037D01*
X109795782Y-103948284D01*
X109528460Y-103837556D01*
X109244673Y-103781107D01*
X108955327Y-103781107D01*
X108671540Y-103837556D01*
X108404218Y-103948284D01*
X108163636Y-104109037D01*
X107959037Y-104313636D01*
X107798284Y-104554218D01*
X107687556Y-104821540D01*
X107631107Y-105105327D01*
X105738220Y-105105327D01*
X105732712Y-105077638D01*
X105687030Y-104967353D01*
X105620711Y-104868100D01*
X105536302Y-104783691D01*
X105437049Y-104717372D01*
X105326764Y-104671690D01*
X105209686Y-104648402D01*
X105090314Y-104648402D01*
X104973236Y-104671690D01*
X104862951Y-104717372D01*
X104763698Y-104783691D01*
X104679289Y-104868100D01*
X104612970Y-104967353D01*
X104567288Y-105077638D01*
X104544000Y-105194716D01*
X95650376Y-105194716D01*
X95686302Y-105170711D01*
X95770711Y-105086302D01*
X95837030Y-104987049D01*
X95882712Y-104876764D01*
X95906000Y-104759686D01*
X95906000Y-104640314D01*
X95882712Y-104523236D01*
X95837030Y-104412951D01*
X95770711Y-104313698D01*
X95686302Y-104229289D01*
X95587049Y-104162970D01*
X95476764Y-104117288D01*
X95359686Y-104094000D01*
X95240314Y-104094000D01*
X95123236Y-104117288D01*
X95012951Y-104162970D01*
X94913698Y-104229289D01*
X94829289Y-104313698D01*
X94762970Y-104412951D01*
X94717288Y-104523236D01*
X94694000Y-104640314D01*
X92781000Y-104640314D01*
X92781000Y-103332927D01*
X93744000Y-103332927D01*
X93744000Y-103467073D01*
X93770171Y-103598640D01*
X93821506Y-103722574D01*
X93896033Y-103834112D01*
X93990888Y-103928967D01*
X94102426Y-104003494D01*
X94226360Y-104054829D01*
X94357927Y-104081000D01*
X94492073Y-104081000D01*
X94623640Y-104054829D01*
X94747574Y-104003494D01*
X94859112Y-103928967D01*
X94953967Y-103834112D01*
X95028494Y-103722574D01*
X95079829Y-103598640D01*
X95106000Y-103467073D01*
X95106000Y-103332927D01*
X95079829Y-103201360D01*
X95028494Y-103077426D01*
X94953967Y-102965888D01*
X94859112Y-102871033D01*
X94747574Y-102796506D01*
X94623640Y-102745171D01*
X94492073Y-102719000D01*
X94357927Y-102719000D01*
X94226360Y-102745171D01*
X94102426Y-102796506D01*
X93990888Y-102871033D01*
X93896033Y-102965888D01*
X93821506Y-103077426D01*
X93770171Y-103201360D01*
X93744000Y-103332927D01*
X92781000Y-103332927D01*
X92781000Y-103270717D01*
X92822580Y-103253494D01*
X92934118Y-103178967D01*
X93028973Y-103084112D01*
X93103500Y-102972574D01*
X93154835Y-102848640D01*
X93181006Y-102717073D01*
X93181006Y-102582927D01*
X93154835Y-102451360D01*
X93103500Y-102327426D01*
X93028973Y-102215888D01*
X92934118Y-102121033D01*
X92822580Y-102046506D01*
X92807632Y-102040314D01*
X94693994Y-102040314D01*
X94693994Y-102159686D01*
X94717282Y-102276764D01*
X94762964Y-102387049D01*
X94829283Y-102486302D01*
X94913692Y-102570711D01*
X95012945Y-102637030D01*
X95123230Y-102682712D01*
X95240308Y-102706000D01*
X95359680Y-102706000D01*
X95476758Y-102682712D01*
X95587043Y-102637030D01*
X95656958Y-102590314D01*
X96394000Y-102590314D01*
X96394000Y-102709686D01*
X96417288Y-102826764D01*
X96462970Y-102937049D01*
X96529289Y-103036302D01*
X96613698Y-103120711D01*
X96712951Y-103187030D01*
X96823236Y-103232712D01*
X96940314Y-103256000D01*
X97059686Y-103256000D01*
X97176764Y-103232712D01*
X97287049Y-103187030D01*
X97386302Y-103120711D01*
X97470711Y-103036302D01*
X97537030Y-102937049D01*
X97582712Y-102826764D01*
X97606000Y-102709686D01*
X97606000Y-102590314D01*
X97582712Y-102473236D01*
X97537030Y-102362951D01*
X97470711Y-102263698D01*
X97386302Y-102179289D01*
X97287049Y-102112970D01*
X97176764Y-102067288D01*
X97059686Y-102044000D01*
X96940314Y-102044000D01*
X96823236Y-102067288D01*
X96712951Y-102112970D01*
X96613698Y-102179289D01*
X96529289Y-102263698D01*
X96462970Y-102362951D01*
X96417288Y-102473236D01*
X96394000Y-102590314D01*
X95656958Y-102590314D01*
X95686296Y-102570711D01*
X95770705Y-102486302D01*
X95837024Y-102387049D01*
X95882706Y-102276764D01*
X95905994Y-102159686D01*
X95905994Y-102040314D01*
X95882706Y-101923236D01*
X95837024Y-101812951D01*
X95770705Y-101713698D01*
X95686296Y-101629289D01*
X95587043Y-101562970D01*
X95476758Y-101517288D01*
X95359680Y-101494000D01*
X95240308Y-101494000D01*
X95123230Y-101517288D01*
X95012945Y-101562970D01*
X94913692Y-101629289D01*
X94829283Y-101713698D01*
X94762964Y-101812951D01*
X94717282Y-101923236D01*
X94693994Y-102040314D01*
X92807632Y-102040314D01*
X92781000Y-102029283D01*
X92781000Y-98354974D01*
X92901360Y-98404829D01*
X93032927Y-98431000D01*
X93167073Y-98431000D01*
X93298640Y-98404829D01*
X93422574Y-98353494D01*
X93534112Y-98278967D01*
X93628967Y-98184112D01*
X93703494Y-98072574D01*
X93754829Y-97948640D01*
X93781000Y-97817073D01*
X93781000Y-97682927D01*
X93754829Y-97551360D01*
X93703494Y-97427426D01*
X93628967Y-97315888D01*
X93534112Y-97221033D01*
X93422574Y-97146506D01*
X93298640Y-97095171D01*
X93167073Y-97069000D01*
X93032927Y-97069000D01*
X92901360Y-97095171D01*
X92781000Y-97145026D01*
X92781000Y-96531263D01*
X92886528Y-96487551D01*
X92985781Y-96421232D01*
X93070190Y-96336823D01*
X93136509Y-96237570D01*
X93182191Y-96127285D01*
X93205479Y-96010207D01*
X93205479Y-95890835D01*
X93188534Y-95805646D01*
X93190314Y-95806000D01*
X93309686Y-95806000D01*
X93426764Y-95782712D01*
X93537049Y-95737030D01*
X93549916Y-95728432D01*
X93566093Y-95721079D01*
X93579847Y-95715416D01*
X93587057Y-95712884D01*
X93591027Y-95711775D01*
X93596229Y-95710707D01*
X93606875Y-95709238D01*
X93626025Y-95707655D01*
X93655295Y-95706463D01*
X93697135Y-95706000D01*
X95348552Y-95706000D01*
X95313698Y-95729289D01*
X95229289Y-95813698D01*
X95162970Y-95912951D01*
X95117288Y-96023236D01*
X95094000Y-96140314D01*
X95094000Y-96259686D01*
X95117288Y-96376764D01*
X95162970Y-96487049D01*
X95229289Y-96586302D01*
X95313698Y-96670711D01*
X95412951Y-96737030D01*
X95523236Y-96782712D01*
X95538418Y-96785732D01*
X95555071Y-96791977D01*
X95568782Y-96797690D01*
X95575656Y-96800991D01*
X95579272Y-96803028D01*
X95583682Y-96805936D01*
X95592268Y-96812440D01*
X95606924Y-96824858D01*
X95628446Y-96844695D01*
X95658415Y-96874007D01*
X95674628Y-96890220D01*
X95690473Y-96909527D01*
X95767521Y-96972759D01*
X95848271Y-97015921D01*
X95855425Y-97019745D01*
X95950807Y-97048678D01*
X96050000Y-97058448D01*
X96074854Y-97056000D01*
X98240409Y-97056000D01*
X98293999Y-97109590D01*
X98293998Y-97440410D01*
X97914798Y-97819610D01*
X97912040Y-97812951D01*
X97845721Y-97713698D01*
X97761312Y-97629289D01*
X97662059Y-97562970D01*
X97551774Y-97517288D01*
X97434696Y-97494000D01*
X97315324Y-97494000D01*
X97198246Y-97517288D01*
X97087961Y-97562970D01*
X96988708Y-97629289D01*
X96904299Y-97713698D01*
X96837980Y-97812951D01*
X96792298Y-97923236D01*
X96769010Y-98040314D01*
X96769010Y-98108183D01*
X96723236Y-98117288D01*
X96612951Y-98162970D01*
X96513698Y-98229289D01*
X96429289Y-98313698D01*
X96362970Y-98412951D01*
X96317288Y-98523236D01*
X96294000Y-98640314D01*
X96294000Y-98759686D01*
X96317288Y-98876764D01*
X96362970Y-98987049D01*
X96429289Y-99086302D01*
X96513698Y-99170711D01*
X96612951Y-99237030D01*
X96723236Y-99282712D01*
X96840314Y-99306000D01*
X96959686Y-99306000D01*
X97076764Y-99282712D01*
X97143979Y-99254870D01*
X97143979Y-99309686D01*
X97167267Y-99426764D01*
X97212949Y-99537049D01*
X97279268Y-99636302D01*
X97363677Y-99720711D01*
X97462930Y-99787030D01*
X97573215Y-99832712D01*
X97690293Y-99856000D01*
X97693990Y-99856000D01*
X97693989Y-102675873D01*
X97691542Y-102700719D01*
X97693989Y-102725565D01*
X97693989Y-102725572D01*
X97701311Y-102799911D01*
X97730244Y-102895293D01*
X97777230Y-102983197D01*
X97840462Y-103060245D01*
X97859768Y-103076089D01*
X98823915Y-104040237D01*
X98839760Y-104059544D01*
X98916808Y-104122776D01*
X98990793Y-104162322D01*
X99004712Y-104169762D01*
X99100094Y-104198695D01*
X99199287Y-104208465D01*
X99224141Y-104206017D01*
X101181108Y-104206017D01*
X101205954Y-104208464D01*
X101230800Y-104206017D01*
X101230808Y-104206017D01*
X101305147Y-104198695D01*
X101400529Y-104169762D01*
X101488433Y-104122776D01*
X101565481Y-104059544D01*
X101581330Y-104040232D01*
X102490228Y-103131335D01*
X102509535Y-103115490D01*
X102572767Y-103038442D01*
X102619753Y-102950538D01*
X102648686Y-102855156D01*
X102656008Y-102780817D01*
X102656008Y-102780809D01*
X102658455Y-102755963D01*
X102656008Y-102731117D01*
X102656008Y-102482391D01*
X102662951Y-102487030D01*
X102773236Y-102532712D01*
X102890314Y-102556000D01*
X103009686Y-102556000D01*
X103126764Y-102532712D01*
X103237049Y-102487030D01*
X103336302Y-102420711D01*
X103420711Y-102336302D01*
X103487030Y-102237049D01*
X103532712Y-102126764D01*
X103556000Y-102009686D01*
X103556000Y-101890314D01*
X103532712Y-101773236D01*
X103487030Y-101662951D01*
X103466969Y-101632927D01*
X105869000Y-101632927D01*
X105869000Y-101767073D01*
X105895171Y-101898640D01*
X105946506Y-102022574D01*
X106021033Y-102134112D01*
X106115888Y-102228967D01*
X106227426Y-102303494D01*
X106351360Y-102354829D01*
X106482927Y-102381000D01*
X106617073Y-102381000D01*
X106748640Y-102354829D01*
X106872574Y-102303494D01*
X106984112Y-102228967D01*
X107078967Y-102134112D01*
X107117269Y-102076789D01*
X107162940Y-102187049D01*
X107229259Y-102286302D01*
X107313668Y-102370711D01*
X107412921Y-102437030D01*
X107523206Y-102482712D01*
X107640284Y-102506000D01*
X107759656Y-102506000D01*
X107876734Y-102482712D01*
X107987019Y-102437030D01*
X108086272Y-102370711D01*
X108170681Y-102286302D01*
X108237000Y-102187049D01*
X108282682Y-102076764D01*
X108305970Y-101959686D01*
X108305970Y-101840314D01*
X108282682Y-101723236D01*
X108237000Y-101612951D01*
X108170681Y-101513698D01*
X108086272Y-101429289D01*
X107987019Y-101362970D01*
X107876734Y-101317288D01*
X107759656Y-101294000D01*
X107640284Y-101294000D01*
X107523206Y-101317288D01*
X107412921Y-101362970D01*
X107313668Y-101429289D01*
X107229259Y-101513698D01*
X107212325Y-101539042D01*
X107204829Y-101501360D01*
X107153494Y-101377426D01*
X107078967Y-101265888D01*
X106984112Y-101171033D01*
X106872574Y-101096506D01*
X106748640Y-101045171D01*
X106617073Y-101019000D01*
X106482927Y-101019000D01*
X106351360Y-101045171D01*
X106227426Y-101096506D01*
X106115888Y-101171033D01*
X106021033Y-101265888D01*
X105946506Y-101377426D01*
X105895171Y-101501360D01*
X105869000Y-101632927D01*
X103466969Y-101632927D01*
X103428271Y-101575012D01*
X103432471Y-101572767D01*
X103509519Y-101509535D01*
X103525368Y-101490223D01*
X104640219Y-100375373D01*
X104643846Y-100372396D01*
X109226462Y-100372396D01*
X109226462Y-100614882D01*
X109273769Y-100852708D01*
X109366564Y-101076736D01*
X109501282Y-101278356D01*
X109672745Y-101449819D01*
X109874365Y-101584537D01*
X110098393Y-101677332D01*
X110336219Y-101724639D01*
X110578705Y-101724639D01*
X110816531Y-101677332D01*
X111040559Y-101584537D01*
X111242179Y-101449819D01*
X111413642Y-101278356D01*
X111548360Y-101076736D01*
X111641155Y-100852708D01*
X111688462Y-100614882D01*
X111688462Y-100372396D01*
X111641155Y-100134570D01*
X111548360Y-99910542D01*
X111413642Y-99708922D01*
X111242179Y-99537459D01*
X111040559Y-99402741D01*
X110816531Y-99309946D01*
X110578705Y-99262639D01*
X110336219Y-99262639D01*
X110098393Y-99309946D01*
X109874365Y-99402741D01*
X109672745Y-99537459D01*
X109501282Y-99708922D01*
X109366564Y-99910542D01*
X109273769Y-100134570D01*
X109226462Y-100372396D01*
X104643846Y-100372396D01*
X104659526Y-100359528D01*
X104722758Y-100282480D01*
X104769744Y-100194576D01*
X104796786Y-100105428D01*
X104798677Y-100099195D01*
X104802987Y-100055431D01*
X104805999Y-100024855D01*
X104805999Y-100024848D01*
X104808446Y-100000002D01*
X104805999Y-99975156D01*
X104805999Y-99332927D01*
X105719000Y-99332927D01*
X105719000Y-99467073D01*
X105745171Y-99598640D01*
X105796506Y-99722574D01*
X105871033Y-99834112D01*
X105965888Y-99928967D01*
X106077426Y-100003494D01*
X106201360Y-100054829D01*
X106332927Y-100081000D01*
X106467073Y-100081000D01*
X106598640Y-100054829D01*
X106722574Y-100003494D01*
X106834112Y-99928967D01*
X106928967Y-99834112D01*
X107003494Y-99722574D01*
X107054829Y-99598640D01*
X107081000Y-99467073D01*
X107081000Y-99332927D01*
X107054829Y-99201360D01*
X107003494Y-99077426D01*
X106928967Y-98965888D01*
X106834112Y-98871033D01*
X106722574Y-98796506D01*
X106598640Y-98745171D01*
X106467073Y-98719000D01*
X106332927Y-98719000D01*
X106201360Y-98745171D01*
X106077426Y-98796506D01*
X105965888Y-98871033D01*
X105871033Y-98965888D01*
X105796506Y-99077426D01*
X105745171Y-99201360D01*
X105719000Y-99332927D01*
X104805999Y-99332927D01*
X104805999Y-98674844D01*
X104808446Y-98649998D01*
X104805999Y-98625152D01*
X104805999Y-98625145D01*
X104798677Y-98550806D01*
X104798556Y-98550405D01*
X104788311Y-98516634D01*
X104769744Y-98455424D01*
X104722758Y-98367520D01*
X104714723Y-98357729D01*
X104714218Y-98356503D01*
X104699247Y-98320640D01*
X104685510Y-98286477D01*
X104685152Y-98285505D01*
X104682712Y-98273236D01*
X104637030Y-98162951D01*
X104570711Y-98063698D01*
X104486302Y-97979289D01*
X104456000Y-97959042D01*
X104456000Y-97890314D01*
X104432712Y-97773236D01*
X104387030Y-97662951D01*
X104378434Y-97650086D01*
X104371079Y-97633906D01*
X104365416Y-97620152D01*
X104362884Y-97612942D01*
X104361775Y-97608972D01*
X104360707Y-97603770D01*
X104359238Y-97593124D01*
X104357655Y-97573974D01*
X104356463Y-97544704D01*
X104356000Y-97502865D01*
X104356000Y-97482927D01*
X105519000Y-97482927D01*
X105519000Y-97617073D01*
X105545171Y-97748640D01*
X105596506Y-97872574D01*
X105671033Y-97984112D01*
X105765888Y-98078967D01*
X105877426Y-98153494D01*
X106001360Y-98204829D01*
X106132927Y-98231000D01*
X106267073Y-98231000D01*
X106398640Y-98204829D01*
X106522574Y-98153494D01*
X106634112Y-98078967D01*
X106727503Y-97985576D01*
X108357731Y-97985576D01*
X108357731Y-98228062D01*
X108405038Y-98465888D01*
X108497833Y-98689916D01*
X108632551Y-98891536D01*
X108804014Y-99062999D01*
X109005634Y-99197717D01*
X109229662Y-99290512D01*
X109467488Y-99337819D01*
X109709974Y-99337819D01*
X109947800Y-99290512D01*
X110171828Y-99197717D01*
X110373448Y-99062999D01*
X110544911Y-98891536D01*
X110679629Y-98689916D01*
X110772424Y-98465888D01*
X110819731Y-98228062D01*
X110819731Y-97985576D01*
X110772424Y-97747750D01*
X110679629Y-97523722D01*
X110544911Y-97322102D01*
X110373448Y-97150639D01*
X110171828Y-97015921D01*
X109947800Y-96923126D01*
X109709974Y-96875819D01*
X109467488Y-96875819D01*
X109229662Y-96923126D01*
X109005634Y-97015921D01*
X108804014Y-97150639D01*
X108632551Y-97322102D01*
X108497833Y-97523722D01*
X108405038Y-97747750D01*
X108357731Y-97985576D01*
X106727503Y-97985576D01*
X106728967Y-97984112D01*
X106803494Y-97872574D01*
X106854829Y-97748640D01*
X106881000Y-97617073D01*
X106881000Y-97482927D01*
X106854829Y-97351360D01*
X106803494Y-97227426D01*
X106728967Y-97115888D01*
X106634112Y-97021033D01*
X106522574Y-96946506D01*
X106398640Y-96895171D01*
X106267073Y-96869000D01*
X106132927Y-96869000D01*
X106001360Y-96895171D01*
X105877426Y-96946506D01*
X105765888Y-97021033D01*
X105671033Y-97115888D01*
X105596506Y-97227426D01*
X105545171Y-97351360D01*
X105519000Y-97482927D01*
X104356000Y-97482927D01*
X104356000Y-95574845D01*
X104358447Y-95549999D01*
X104356000Y-95525153D01*
X104356000Y-95525146D01*
X104348678Y-95450807D01*
X104319745Y-95355425D01*
X104272759Y-95267521D01*
X104213472Y-95195279D01*
X107248065Y-95195279D01*
X107252157Y-95270217D01*
X107270789Y-95342918D01*
X107852223Y-96940396D01*
X107884681Y-97008065D01*
X107929716Y-97068101D01*
X107985599Y-97118198D01*
X108050181Y-97156430D01*
X108120982Y-97181327D01*
X108195279Y-97191935D01*
X108270217Y-97187843D01*
X108342918Y-97169211D01*
X109940396Y-96587777D01*
X110008065Y-96555319D01*
X110068101Y-96510284D01*
X110118198Y-96454401D01*
X110156430Y-96389819D01*
X110181327Y-96319018D01*
X110191935Y-96244721D01*
X110187843Y-96169783D01*
X110169211Y-96097082D01*
X109587777Y-94499604D01*
X109555319Y-94431935D01*
X109510284Y-94371899D01*
X109454401Y-94321802D01*
X109389819Y-94283570D01*
X109319018Y-94258673D01*
X109244721Y-94248065D01*
X109169783Y-94252157D01*
X109097082Y-94270789D01*
X107499604Y-94852223D01*
X107431935Y-94884681D01*
X107371899Y-94929716D01*
X107321802Y-94985599D01*
X107283570Y-95050181D01*
X107258673Y-95120982D01*
X107248065Y-95195279D01*
X104213472Y-95195279D01*
X104209527Y-95190473D01*
X104190220Y-95174628D01*
X102448519Y-93432927D01*
X104994010Y-93432927D01*
X104994010Y-93567073D01*
X105020181Y-93698640D01*
X105071516Y-93822574D01*
X105146043Y-93934112D01*
X105240898Y-94028967D01*
X105352436Y-94103494D01*
X105476370Y-94154829D01*
X105607937Y-94181000D01*
X105742083Y-94181000D01*
X105873650Y-94154829D01*
X105997584Y-94103494D01*
X106109122Y-94028967D01*
X106203977Y-93934112D01*
X106278504Y-93822574D01*
X106329839Y-93698640D01*
X106356010Y-93567073D01*
X106356010Y-93432927D01*
X106329839Y-93301360D01*
X106278504Y-93177426D01*
X106203977Y-93065888D01*
X106109122Y-92971033D01*
X105997584Y-92896506D01*
X105873650Y-92845171D01*
X105742083Y-92819000D01*
X105607937Y-92819000D01*
X105476370Y-92845171D01*
X105352436Y-92896506D01*
X105240898Y-92971033D01*
X105146043Y-93065888D01*
X105071516Y-93177426D01*
X105020181Y-93301360D01*
X104994010Y-93432927D01*
X102448519Y-93432927D01*
X101396591Y-92381000D01*
X105800000Y-92381000D01*
X105874329Y-92373679D01*
X105945802Y-92351998D01*
X106011672Y-92316790D01*
X106069408Y-92269408D01*
X106116790Y-92211672D01*
X106151998Y-92145802D01*
X106173679Y-92074329D01*
X106181000Y-92000000D01*
X106181000Y-91582927D01*
X107719000Y-91582927D01*
X107719000Y-91717073D01*
X107745171Y-91848640D01*
X107796506Y-91972574D01*
X107871033Y-92084112D01*
X107965888Y-92178967D01*
X108077426Y-92253494D01*
X108201360Y-92304829D01*
X108332927Y-92331000D01*
X108467073Y-92331000D01*
X108598640Y-92304829D01*
X108722574Y-92253494D01*
X108834112Y-92178967D01*
X108928967Y-92084112D01*
X109003494Y-91972574D01*
X109054829Y-91848640D01*
X109081000Y-91717073D01*
X109081000Y-91582927D01*
X109054829Y-91451360D01*
X109003494Y-91327426D01*
X108928967Y-91215888D01*
X108834112Y-91121033D01*
X108722574Y-91046506D01*
X108598640Y-90995171D01*
X108467073Y-90969000D01*
X108332927Y-90969000D01*
X108201360Y-90995171D01*
X108077426Y-91046506D01*
X107965888Y-91121033D01*
X107871033Y-91215888D01*
X107796506Y-91327426D01*
X107745171Y-91451360D01*
X107719000Y-91582927D01*
X106181000Y-91582927D01*
X106181000Y-89931000D01*
X106267073Y-89931000D01*
X106398640Y-89904829D01*
X106522574Y-89853494D01*
X106634112Y-89778967D01*
X106728967Y-89684112D01*
X106803494Y-89572574D01*
X106854829Y-89448640D01*
X106881000Y-89317073D01*
X106881000Y-89206466D01*
X107591864Y-89670897D01*
G36*
X103344001Y-95759593D02*
G01*
X103344000Y-97502836D01*
X103343536Y-97544704D01*
X103342344Y-97573974D01*
X103340761Y-97593124D01*
X103339292Y-97603770D01*
X103338224Y-97608972D01*
X103337115Y-97612942D01*
X103334583Y-97620152D01*
X103328920Y-97633906D01*
X103321563Y-97650091D01*
X103312970Y-97662951D01*
X103267288Y-97773236D01*
X103244000Y-97890314D01*
X103244000Y-98009686D01*
X103267288Y-98126764D01*
X103312970Y-98237049D01*
X103379289Y-98336302D01*
X103463698Y-98420711D01*
X103494000Y-98440958D01*
X103494000Y-98459034D01*
X103463687Y-98479289D01*
X103379278Y-98563698D01*
X103312959Y-98662951D01*
X103267277Y-98773236D01*
X103243989Y-98890314D01*
X103243989Y-99009686D01*
X103267277Y-99126764D01*
X103312959Y-99237049D01*
X103317598Y-99243991D01*
X103240314Y-99243991D01*
X103123236Y-99267279D01*
X103012951Y-99312961D01*
X103000514Y-99321271D01*
X102984085Y-99328649D01*
X102970429Y-99334155D01*
X102962994Y-99336687D01*
X102958338Y-99337935D01*
X102951941Y-99339181D01*
X102939612Y-99340775D01*
X102918455Y-99342390D01*
X102886975Y-99343556D01*
X102843137Y-99343991D01*
X101974854Y-99343991D01*
X101950008Y-99341544D01*
X101925162Y-99343991D01*
X101925155Y-99343991D01*
X101860703Y-99350339D01*
X101850815Y-99351313D01*
X101761872Y-99378293D01*
X101755434Y-99380246D01*
X101667530Y-99427232D01*
X101590482Y-99490464D01*
X101574637Y-99509771D01*
X101138149Y-99946260D01*
X101138149Y-99428001D01*
X101140597Y-99403147D01*
X101130827Y-99303954D01*
X101101894Y-99208572D01*
X101092135Y-99190314D01*
X101054908Y-99120668D01*
X100991676Y-99043620D01*
X100972369Y-99027775D01*
X100706030Y-98761437D01*
X100706030Y-98206000D01*
X100759686Y-98206000D01*
X100876764Y-98182712D01*
X100987049Y-98137030D01*
X101044032Y-98098955D01*
X101029289Y-98113698D01*
X100962970Y-98212951D01*
X100917288Y-98323236D01*
X100894000Y-98440314D01*
X100894000Y-98559686D01*
X100917288Y-98676764D01*
X100962970Y-98787049D01*
X101029289Y-98886302D01*
X101113698Y-98970711D01*
X101212951Y-99037030D01*
X101323236Y-99082712D01*
X101440314Y-99106000D01*
X101559686Y-99106000D01*
X101676764Y-99082712D01*
X101787049Y-99037030D01*
X101886302Y-98970711D01*
X101970711Y-98886302D01*
X102037030Y-98787049D01*
X102082712Y-98676764D01*
X102106000Y-98559686D01*
X102106000Y-98440314D01*
X102082712Y-98323236D01*
X102037030Y-98212951D01*
X101970711Y-98113698D01*
X101886302Y-98029289D01*
X101787049Y-97962970D01*
X101676764Y-97917288D01*
X101559686Y-97894000D01*
X101440314Y-97894000D01*
X101323236Y-97917288D01*
X101212951Y-97962970D01*
X101155968Y-98001045D01*
X101170711Y-97986302D01*
X101237030Y-97887049D01*
X101282712Y-97776764D01*
X101306000Y-97659686D01*
X101306000Y-97540314D01*
X101282712Y-97423236D01*
X101237030Y-97312951D01*
X101170711Y-97213698D01*
X101086302Y-97129289D01*
X100987049Y-97062970D01*
X100876764Y-97017288D01*
X100759686Y-96994000D01*
X100706030Y-96994000D01*
X100706030Y-96289905D01*
X100708477Y-96265059D01*
X100706040Y-96240314D01*
X100844000Y-96240314D01*
X100844000Y-96359686D01*
X100867288Y-96476764D01*
X100912970Y-96587049D01*
X100979289Y-96686302D01*
X101063698Y-96770711D01*
X101162951Y-96837030D01*
X101273236Y-96882712D01*
X101390314Y-96906000D01*
X101509686Y-96906000D01*
X101626764Y-96882712D01*
X101737049Y-96837030D01*
X101836302Y-96770711D01*
X101920711Y-96686302D01*
X101987030Y-96587049D01*
X102032712Y-96476764D01*
X102056000Y-96359686D01*
X102056000Y-96240314D01*
X102032712Y-96123236D01*
X101987030Y-96012951D01*
X101920711Y-95913698D01*
X101836302Y-95829289D01*
X101737049Y-95762970D01*
X101626764Y-95717288D01*
X101509686Y-95694000D01*
X101390314Y-95694000D01*
X101273236Y-95717288D01*
X101162951Y-95762970D01*
X101063698Y-95829289D01*
X100979289Y-95913698D01*
X100912970Y-96012951D01*
X100867288Y-96123236D01*
X100844000Y-96240314D01*
X100706040Y-96240314D01*
X100706030Y-96240213D01*
X100706030Y-96240206D01*
X100698708Y-96165867D01*
X100698210Y-96164223D01*
X100669775Y-96070485D01*
X100666859Y-96065030D01*
X100622789Y-95982581D01*
X100559557Y-95905533D01*
X100540245Y-95889684D01*
X100531177Y-95880616D01*
X100549898Y-95884340D01*
X100684044Y-95884340D01*
X100815611Y-95858169D01*
X100939545Y-95806834D01*
X101051083Y-95732307D01*
X101145938Y-95637452D01*
X101220465Y-95525914D01*
X101271800Y-95401980D01*
X101297971Y-95270413D01*
X101297971Y-95136267D01*
X101271800Y-95004700D01*
X101220465Y-94880766D01*
X101145938Y-94769228D01*
X101051083Y-94674373D01*
X100939545Y-94599846D01*
X100815611Y-94548511D01*
X100684044Y-94522340D01*
X100549898Y-94522340D01*
X100506000Y-94531072D01*
X100506000Y-92921591D01*
X103344001Y-95759593D01*
G37*
X103344001Y-95759593D02*
X103344000Y-97502836D01*
X103343536Y-97544704D01*
X103342344Y-97573974D01*
X103340761Y-97593124D01*
X103339292Y-97603770D01*
X103338224Y-97608972D01*
X103337115Y-97612942D01*
X103334583Y-97620152D01*
X103328920Y-97633906D01*
X103321563Y-97650091D01*
X103312970Y-97662951D01*
X103267288Y-97773236D01*
X103244000Y-97890314D01*
X103244000Y-98009686D01*
X103267288Y-98126764D01*
X103312970Y-98237049D01*
X103379289Y-98336302D01*
X103463698Y-98420711D01*
X103494000Y-98440958D01*
X103494000Y-98459034D01*
X103463687Y-98479289D01*
X103379278Y-98563698D01*
X103312959Y-98662951D01*
X103267277Y-98773236D01*
X103243989Y-98890314D01*
X103243989Y-99009686D01*
X103267277Y-99126764D01*
X103312959Y-99237049D01*
X103317598Y-99243991D01*
X103240314Y-99243991D01*
X103123236Y-99267279D01*
X103012951Y-99312961D01*
X103000514Y-99321271D01*
X102984085Y-99328649D01*
X102970429Y-99334155D01*
X102962994Y-99336687D01*
X102958338Y-99337935D01*
X102951941Y-99339181D01*
X102939612Y-99340775D01*
X102918455Y-99342390D01*
X102886975Y-99343556D01*
X102843137Y-99343991D01*
X101974854Y-99343991D01*
X101950008Y-99341544D01*
X101925162Y-99343991D01*
X101925155Y-99343991D01*
X101860703Y-99350339D01*
X101850815Y-99351313D01*
X101761872Y-99378293D01*
X101755434Y-99380246D01*
X101667530Y-99427232D01*
X101590482Y-99490464D01*
X101574637Y-99509771D01*
X101138149Y-99946260D01*
X101138149Y-99428001D01*
X101140597Y-99403147D01*
X101130827Y-99303954D01*
X101101894Y-99208572D01*
X101092135Y-99190314D01*
X101054908Y-99120668D01*
X100991676Y-99043620D01*
X100972369Y-99027775D01*
X100706030Y-98761437D01*
X100706030Y-98206000D01*
X100759686Y-98206000D01*
X100876764Y-98182712D01*
X100987049Y-98137030D01*
X101044032Y-98098955D01*
X101029289Y-98113698D01*
X100962970Y-98212951D01*
X100917288Y-98323236D01*
X100894000Y-98440314D01*
X100894000Y-98559686D01*
X100917288Y-98676764D01*
X100962970Y-98787049D01*
X101029289Y-98886302D01*
X101113698Y-98970711D01*
X101212951Y-99037030D01*
X101323236Y-99082712D01*
X101440314Y-99106000D01*
X101559686Y-99106000D01*
X101676764Y-99082712D01*
X101787049Y-99037030D01*
X101886302Y-98970711D01*
X101970711Y-98886302D01*
X102037030Y-98787049D01*
X102082712Y-98676764D01*
X102106000Y-98559686D01*
X102106000Y-98440314D01*
X102082712Y-98323236D01*
X102037030Y-98212951D01*
X101970711Y-98113698D01*
X101886302Y-98029289D01*
X101787049Y-97962970D01*
X101676764Y-97917288D01*
X101559686Y-97894000D01*
X101440314Y-97894000D01*
X101323236Y-97917288D01*
X101212951Y-97962970D01*
X101155968Y-98001045D01*
X101170711Y-97986302D01*
X101237030Y-97887049D01*
X101282712Y-97776764D01*
X101306000Y-97659686D01*
X101306000Y-97540314D01*
X101282712Y-97423236D01*
X101237030Y-97312951D01*
X101170711Y-97213698D01*
X101086302Y-97129289D01*
X100987049Y-97062970D01*
X100876764Y-97017288D01*
X100759686Y-96994000D01*
X100706030Y-96994000D01*
X100706030Y-96289905D01*
X100708477Y-96265059D01*
X100706040Y-96240314D01*
X100844000Y-96240314D01*
X100844000Y-96359686D01*
X100867288Y-96476764D01*
X100912970Y-96587049D01*
X100979289Y-96686302D01*
X101063698Y-96770711D01*
X101162951Y-96837030D01*
X101273236Y-96882712D01*
X101390314Y-96906000D01*
X101509686Y-96906000D01*
X101626764Y-96882712D01*
X101737049Y-96837030D01*
X101836302Y-96770711D01*
X101920711Y-96686302D01*
X101987030Y-96587049D01*
X102032712Y-96476764D01*
X102056000Y-96359686D01*
X102056000Y-96240314D01*
X102032712Y-96123236D01*
X101987030Y-96012951D01*
X101920711Y-95913698D01*
X101836302Y-95829289D01*
X101737049Y-95762970D01*
X101626764Y-95717288D01*
X101509686Y-95694000D01*
X101390314Y-95694000D01*
X101273236Y-95717288D01*
X101162951Y-95762970D01*
X101063698Y-95829289D01*
X100979289Y-95913698D01*
X100912970Y-96012951D01*
X100867288Y-96123236D01*
X100844000Y-96240314D01*
X100706040Y-96240314D01*
X100706030Y-96240213D01*
X100706030Y-96240206D01*
X100698708Y-96165867D01*
X100698210Y-96164223D01*
X100669775Y-96070485D01*
X100666859Y-96065030D01*
X100622789Y-95982581D01*
X100559557Y-95905533D01*
X100540245Y-95889684D01*
X100531177Y-95880616D01*
X100549898Y-95884340D01*
X100684044Y-95884340D01*
X100815611Y-95858169D01*
X100939545Y-95806834D01*
X101051083Y-95732307D01*
X101145938Y-95637452D01*
X101220465Y-95525914D01*
X101271800Y-95401980D01*
X101297971Y-95270413D01*
X101297971Y-95136267D01*
X101271800Y-95004700D01*
X101220465Y-94880766D01*
X101145938Y-94769228D01*
X101051083Y-94674373D01*
X100939545Y-94599846D01*
X100815611Y-94548511D01*
X100684044Y-94522340D01*
X100549898Y-94522340D01*
X100506000Y-94531072D01*
X100506000Y-92921591D01*
X103344001Y-95759593D01*
G36*
X98842745Y-92389738D02*
G01*
X99143989Y-92690982D01*
X99143989Y-93369000D01*
X99032927Y-93369000D01*
X98901360Y-93395171D01*
X98777426Y-93446506D01*
X98665888Y-93521033D01*
X98571033Y-93615888D01*
X98496506Y-93727426D01*
X98479672Y-93768066D01*
X98372574Y-93696506D01*
X98248640Y-93645171D01*
X98117073Y-93619000D01*
X97982927Y-93619000D01*
X97851360Y-93645171D01*
X97727426Y-93696506D01*
X97615888Y-93771033D01*
X97521033Y-93865888D01*
X97446506Y-93977426D01*
X97395171Y-94101360D01*
X97369000Y-94232927D01*
X97369000Y-94367073D01*
X97395171Y-94498640D01*
X97446506Y-94622574D01*
X97521033Y-94734112D01*
X97615888Y-94828967D01*
X97727426Y-94903494D01*
X97851360Y-94954829D01*
X97982927Y-94981000D01*
X98117073Y-94981000D01*
X98248640Y-94954829D01*
X98372574Y-94903494D01*
X98484112Y-94828967D01*
X98578967Y-94734112D01*
X98653494Y-94622574D01*
X98670328Y-94581934D01*
X98777426Y-94653494D01*
X98901360Y-94704829D01*
X99032927Y-94731000D01*
X99143990Y-94731000D01*
X99143990Y-95538419D01*
X99115334Y-95509763D01*
X99099485Y-95490451D01*
X99022437Y-95427219D01*
X98934533Y-95380233D01*
X98839151Y-95351300D01*
X98764812Y-95343978D01*
X98764804Y-95343978D01*
X98739958Y-95341531D01*
X98715112Y-95343978D01*
X97631574Y-95343978D01*
X96047364Y-93759769D01*
X96031519Y-93740462D01*
X96019219Y-93730368D01*
X97368588Y-92381000D01*
X98833812Y-92381000D01*
X98842745Y-92389738D01*
G37*
X98842745Y-92389738D02*
X99143989Y-92690982D01*
X99143989Y-93369000D01*
X99032927Y-93369000D01*
X98901360Y-93395171D01*
X98777426Y-93446506D01*
X98665888Y-93521033D01*
X98571033Y-93615888D01*
X98496506Y-93727426D01*
X98479672Y-93768066D01*
X98372574Y-93696506D01*
X98248640Y-93645171D01*
X98117073Y-93619000D01*
X97982927Y-93619000D01*
X97851360Y-93645171D01*
X97727426Y-93696506D01*
X97615888Y-93771033D01*
X97521033Y-93865888D01*
X97446506Y-93977426D01*
X97395171Y-94101360D01*
X97369000Y-94232927D01*
X97369000Y-94367073D01*
X97395171Y-94498640D01*
X97446506Y-94622574D01*
X97521033Y-94734112D01*
X97615888Y-94828967D01*
X97727426Y-94903494D01*
X97851360Y-94954829D01*
X97982927Y-94981000D01*
X98117073Y-94981000D01*
X98248640Y-94954829D01*
X98372574Y-94903494D01*
X98484112Y-94828967D01*
X98578967Y-94734112D01*
X98653494Y-94622574D01*
X98670328Y-94581934D01*
X98777426Y-94653494D01*
X98901360Y-94704829D01*
X99032927Y-94731000D01*
X99143990Y-94731000D01*
X99143990Y-95538419D01*
X99115334Y-95509763D01*
X99099485Y-95490451D01*
X99022437Y-95427219D01*
X98934533Y-95380233D01*
X98839151Y-95351300D01*
X98764812Y-95343978D01*
X98764804Y-95343978D01*
X98739958Y-95341531D01*
X98715112Y-95343978D01*
X97631574Y-95343978D01*
X96047364Y-93759769D01*
X96031519Y-93740462D01*
X96019219Y-93730368D01*
X97368588Y-92381000D01*
X98833812Y-92381000D01*
X98842745Y-92389738D01*
D18*
%TO.N,I2C1_SCL*%
G36*
X99087801Y-91654398D02*
G01*
X99097797Y-91682726D01*
X99097882Y-91682959D01*
X99110063Y-91715442D01*
X99110231Y-91715868D01*
X99122457Y-91745209D01*
X99122731Y-91745821D01*
X99135792Y-91773023D01*
X99136176Y-91773760D01*
X99150861Y-91799826D01*
X99151323Y-91800583D01*
X99168422Y-91826515D01*
X99168902Y-91827192D01*
X99189205Y-91853995D01*
X99189639Y-91854537D01*
X99213936Y-91883212D01*
X99214287Y-91883609D01*
X99243368Y-91915160D01*
X99243627Y-91915433D01*
X99269499Y-91941885D01*
X99110484Y-92100900D01*
X99084032Y-92075028D01*
X99083759Y-92074769D01*
X99052208Y-92045688D01*
X99051811Y-92045337D01*
X99023136Y-92021040D01*
X99022594Y-92020606D01*
X98995791Y-92000303D01*
X98995114Y-91999823D01*
X98969182Y-91982724D01*
X98968425Y-91982262D01*
X98942359Y-91967577D01*
X98941622Y-91967193D01*
X98914420Y-91954132D01*
X98913808Y-91953858D01*
X98884467Y-91941632D01*
X98884041Y-91941464D01*
X98851558Y-91929283D01*
X98851325Y-91929198D01*
X98822997Y-91919202D01*
X98817717Y-91649118D01*
X99087801Y-91654398D01*
G37*
X99087801Y-91654398D02*
X99097797Y-91682726D01*
X99097882Y-91682959D01*
X99110063Y-91715442D01*
X99110231Y-91715868D01*
X99122457Y-91745209D01*
X99122731Y-91745821D01*
X99135792Y-91773023D01*
X99136176Y-91773760D01*
X99150861Y-91799826D01*
X99151323Y-91800583D01*
X99168422Y-91826515D01*
X99168902Y-91827192D01*
X99189205Y-91853995D01*
X99189639Y-91854537D01*
X99213936Y-91883212D01*
X99214287Y-91883609D01*
X99243368Y-91915160D01*
X99243627Y-91915433D01*
X99269499Y-91941885D01*
X99110484Y-92100900D01*
X99084032Y-92075028D01*
X99083759Y-92074769D01*
X99052208Y-92045688D01*
X99051811Y-92045337D01*
X99023136Y-92021040D01*
X99022594Y-92020606D01*
X98995791Y-92000303D01*
X98995114Y-91999823D01*
X98969182Y-91982724D01*
X98968425Y-91982262D01*
X98942359Y-91967577D01*
X98941622Y-91967193D01*
X98914420Y-91954132D01*
X98913808Y-91953858D01*
X98884467Y-91941632D01*
X98884041Y-91941464D01*
X98851558Y-91929283D01*
X98851325Y-91929198D01*
X98822997Y-91919202D01*
X98817717Y-91649118D01*
X99087801Y-91654398D01*
G36*
X99512805Y-101851877D02*
G01*
X99512813Y-101852221D01*
X99514446Y-101896308D01*
X99514474Y-101896805D01*
X99517417Y-101935344D01*
X99517485Y-101936005D01*
X99521917Y-101970292D01*
X99522046Y-101971092D01*
X99528149Y-102002426D01*
X99528348Y-102003286D01*
X99536302Y-102032962D01*
X99536547Y-102033768D01*
X99546531Y-102063084D01*
X99546774Y-102063739D01*
X99558971Y-102093992D01*
X99559165Y-102094446D01*
X99573753Y-102126931D01*
X99573873Y-102127191D01*
X99587255Y-102155276D01*
X99400000Y-102349998D01*
X99212745Y-102155275D01*
X99226126Y-102127191D01*
X99226246Y-102126931D01*
X99240834Y-102094446D01*
X99241028Y-102093992D01*
X99253225Y-102063739D01*
X99253468Y-102063084D01*
X99263452Y-102033768D01*
X99263697Y-102032962D01*
X99271651Y-102003286D01*
X99271850Y-102002426D01*
X99277953Y-101971092D01*
X99278082Y-101970292D01*
X99282514Y-101936005D01*
X99282582Y-101935344D01*
X99285525Y-101896805D01*
X99285553Y-101896308D01*
X99287186Y-101852221D01*
X99287194Y-101851877D01*
X99287574Y-101813520D01*
X99512425Y-101813520D01*
X99512805Y-101851877D01*
G37*
X99512805Y-101851877D02*
X99512813Y-101852221D01*
X99514446Y-101896308D01*
X99514474Y-101896805D01*
X99517417Y-101935344D01*
X99517485Y-101936005D01*
X99521917Y-101970292D01*
X99522046Y-101971092D01*
X99528149Y-102002426D01*
X99528348Y-102003286D01*
X99536302Y-102032962D01*
X99536547Y-102033768D01*
X99546531Y-102063084D01*
X99546774Y-102063739D01*
X99558971Y-102093992D01*
X99559165Y-102094446D01*
X99573753Y-102126931D01*
X99573873Y-102127191D01*
X99587255Y-102155276D01*
X99400000Y-102349998D01*
X99212745Y-102155275D01*
X99226126Y-102127191D01*
X99226246Y-102126931D01*
X99240834Y-102094446D01*
X99241028Y-102093992D01*
X99253225Y-102063739D01*
X99253468Y-102063084D01*
X99263452Y-102033768D01*
X99263697Y-102032962D01*
X99271651Y-102003286D01*
X99271850Y-102002426D01*
X99277953Y-101971092D01*
X99278082Y-101970292D01*
X99282514Y-101936005D01*
X99282582Y-101935344D01*
X99285525Y-101896805D01*
X99285553Y-101896308D01*
X99287186Y-101852221D01*
X99287194Y-101851877D01*
X99287574Y-101813520D01*
X99512425Y-101813520D01*
X99512805Y-101851877D01*
%TO.N,I2C1_SDA*%
G36*
X100744954Y-102013908D02*
G01*
X100744962Y-102014252D01*
X100746595Y-102058339D01*
X100746623Y-102058836D01*
X100749566Y-102097375D01*
X100749634Y-102098036D01*
X100754066Y-102132323D01*
X100754195Y-102133123D01*
X100760298Y-102164457D01*
X100760497Y-102165317D01*
X100768451Y-102194993D01*
X100768696Y-102195799D01*
X100778680Y-102225115D01*
X100778923Y-102225770D01*
X100791120Y-102256023D01*
X100791314Y-102256477D01*
X100805902Y-102288962D01*
X100806022Y-102289222D01*
X100819404Y-102317307D01*
X100632149Y-102512029D01*
X100444894Y-102317306D01*
X100458275Y-102289222D01*
X100458395Y-102288962D01*
X100472983Y-102256477D01*
X100473177Y-102256023D01*
X100485374Y-102225770D01*
X100485617Y-102225115D01*
X100495601Y-102195799D01*
X100495846Y-102194993D01*
X100503800Y-102165317D01*
X100503999Y-102164457D01*
X100510102Y-102133123D01*
X100510231Y-102132323D01*
X100514663Y-102098036D01*
X100514731Y-102097375D01*
X100517674Y-102058836D01*
X100517702Y-102058339D01*
X100519335Y-102014252D01*
X100519343Y-102013908D01*
X100519723Y-101975551D01*
X100744574Y-101975551D01*
X100744954Y-102013908D01*
G37*
X100744954Y-102013908D02*
X100744962Y-102014252D01*
X100746595Y-102058339D01*
X100746623Y-102058836D01*
X100749566Y-102097375D01*
X100749634Y-102098036D01*
X100754066Y-102132323D01*
X100754195Y-102133123D01*
X100760298Y-102164457D01*
X100760497Y-102165317D01*
X100768451Y-102194993D01*
X100768696Y-102195799D01*
X100778680Y-102225115D01*
X100778923Y-102225770D01*
X100791120Y-102256023D01*
X100791314Y-102256477D01*
X100805902Y-102288962D01*
X100806022Y-102289222D01*
X100819404Y-102317307D01*
X100632149Y-102512029D01*
X100444894Y-102317306D01*
X100458275Y-102289222D01*
X100458395Y-102288962D01*
X100472983Y-102256477D01*
X100473177Y-102256023D01*
X100485374Y-102225770D01*
X100485617Y-102225115D01*
X100495601Y-102195799D01*
X100495846Y-102194993D01*
X100503800Y-102165317D01*
X100503999Y-102164457D01*
X100510102Y-102133123D01*
X100510231Y-102132323D01*
X100514663Y-102098036D01*
X100514731Y-102097375D01*
X100517674Y-102058836D01*
X100517702Y-102058339D01*
X100519335Y-102014252D01*
X100519343Y-102013908D01*
X100519723Y-101975551D01*
X100744574Y-101975551D01*
X100744954Y-102013908D01*
G36*
X98811626Y-91362600D02*
G01*
X98784121Y-91363233D01*
X98783377Y-91363272D01*
X98748388Y-91366135D01*
X98747399Y-91366255D01*
X98716652Y-91371221D01*
X98715414Y-91371485D01*
X98688226Y-91378712D01*
X98686805Y-91379181D01*
X98662496Y-91388826D01*
X98661037Y-91389516D01*
X98638923Y-91401738D01*
X98637604Y-91402576D01*
X98617005Y-91417533D01*
X98615955Y-91418384D01*
X98596188Y-91436234D01*
X98595440Y-91436969D01*
X98575823Y-91457871D01*
X98575337Y-91458419D01*
X98560739Y-91475889D01*
X98304299Y-91390500D01*
X98399580Y-91137765D01*
X98437846Y-91137984D01*
X98437871Y-91137984D01*
X98479547Y-91138140D01*
X98479574Y-91138140D01*
X98517544Y-91138203D01*
X98517569Y-91138203D01*
X98553556Y-91138193D01*
X98553575Y-91138193D01*
X98589302Y-91138129D01*
X98589312Y-91138129D01*
X98626503Y-91138032D01*
X98626505Y-91138032D01*
X98666881Y-91137921D01*
X98712161Y-91137817D01*
X98764070Y-91137741D01*
X98811626Y-91137717D01*
X98811626Y-91362600D01*
G37*
X98811626Y-91362600D02*
X98784121Y-91363233D01*
X98783377Y-91363272D01*
X98748388Y-91366135D01*
X98747399Y-91366255D01*
X98716652Y-91371221D01*
X98715414Y-91371485D01*
X98688226Y-91378712D01*
X98686805Y-91379181D01*
X98662496Y-91388826D01*
X98661037Y-91389516D01*
X98638923Y-91401738D01*
X98637604Y-91402576D01*
X98617005Y-91417533D01*
X98615955Y-91418384D01*
X98596188Y-91436234D01*
X98595440Y-91436969D01*
X98575823Y-91457871D01*
X98575337Y-91458419D01*
X98560739Y-91475889D01*
X98304299Y-91390500D01*
X98399580Y-91137765D01*
X98437846Y-91137984D01*
X98437871Y-91137984D01*
X98479547Y-91138140D01*
X98479574Y-91138140D01*
X98517544Y-91138203D01*
X98517569Y-91138203D01*
X98553556Y-91138193D01*
X98553575Y-91138193D01*
X98589302Y-91138129D01*
X98589312Y-91138129D01*
X98626503Y-91138032D01*
X98626505Y-91138032D01*
X98666881Y-91137921D01*
X98712161Y-91137817D01*
X98764070Y-91137741D01*
X98811626Y-91137717D01*
X98811626Y-91362600D01*
%TO.N,SPI2_MOSI*%
G36*
X93303471Y-93238687D02*
G01*
X93308820Y-93253942D01*
X93308922Y-93254221D01*
X93317436Y-93276797D01*
X93317689Y-93277418D01*
X93327000Y-93298641D01*
X93327482Y-93299624D01*
X93338138Y-93319147D01*
X93338970Y-93320469D01*
X93351518Y-93337944D01*
X93352827Y-93339491D01*
X93367816Y-93354569D01*
X93369639Y-93356088D01*
X93387617Y-93368421D01*
X93389790Y-93369617D01*
X93411306Y-93378857D01*
X93413511Y-93379574D01*
X93439114Y-93385374D01*
X93441077Y-93385660D01*
X93459457Y-93386882D01*
X93459457Y-93611983D01*
X93409011Y-93610742D01*
X93355100Y-93606297D01*
X93308576Y-93599273D01*
X93267540Y-93589969D01*
X93230080Y-93578652D01*
X93194216Y-93565539D01*
X93158107Y-93550878D01*
X93120009Y-93534974D01*
X93119855Y-93534911D01*
X93078089Y-93518117D01*
X93077736Y-93517981D01*
X93038689Y-93503615D01*
X93033407Y-93233407D01*
X93303471Y-93238687D01*
G37*
X93303471Y-93238687D02*
X93308820Y-93253942D01*
X93308922Y-93254221D01*
X93317436Y-93276797D01*
X93317689Y-93277418D01*
X93327000Y-93298641D01*
X93327482Y-93299624D01*
X93338138Y-93319147D01*
X93338970Y-93320469D01*
X93351518Y-93337944D01*
X93352827Y-93339491D01*
X93367816Y-93354569D01*
X93369639Y-93356088D01*
X93387617Y-93368421D01*
X93389790Y-93369617D01*
X93411306Y-93378857D01*
X93413511Y-93379574D01*
X93439114Y-93385374D01*
X93441077Y-93385660D01*
X93459457Y-93386882D01*
X93459457Y-93611983D01*
X93409011Y-93610742D01*
X93355100Y-93606297D01*
X93308576Y-93599273D01*
X93267540Y-93589969D01*
X93230080Y-93578652D01*
X93194216Y-93565539D01*
X93158107Y-93550878D01*
X93120009Y-93534974D01*
X93119855Y-93534911D01*
X93078089Y-93518117D01*
X93077736Y-93517981D01*
X93038689Y-93503615D01*
X93033407Y-93233407D01*
X93303471Y-93238687D01*
G36*
X103962849Y-97554696D02*
G01*
X103962859Y-97555073D01*
X103964606Y-97597947D01*
X103964638Y-97598476D01*
X103967734Y-97635933D01*
X103967810Y-97636623D01*
X103972406Y-97669932D01*
X103972546Y-97670750D01*
X103978793Y-97701178D01*
X103979002Y-97702040D01*
X103987049Y-97730855D01*
X103987299Y-97731648D01*
X103997299Y-97760118D01*
X103997537Y-97760744D01*
X104009639Y-97790137D01*
X104009821Y-97790557D01*
X104024177Y-97822139D01*
X104024282Y-97822364D01*
X104037245Y-97849466D01*
X103850000Y-98044178D01*
X103662754Y-97849466D01*
X103675717Y-97822364D01*
X103675822Y-97822139D01*
X103690178Y-97790557D01*
X103690360Y-97790137D01*
X103702462Y-97760744D01*
X103702700Y-97760118D01*
X103712700Y-97731648D01*
X103712950Y-97730855D01*
X103720997Y-97702040D01*
X103721206Y-97701178D01*
X103727453Y-97670750D01*
X103727593Y-97669932D01*
X103732189Y-97636623D01*
X103732265Y-97635933D01*
X103735361Y-97598476D01*
X103735393Y-97597947D01*
X103737140Y-97555073D01*
X103737150Y-97554697D01*
X103737560Y-97517700D01*
X103962440Y-97517700D01*
X103962849Y-97554696D01*
G37*
X103962849Y-97554696D02*
X103962859Y-97555073D01*
X103964606Y-97597947D01*
X103964638Y-97598476D01*
X103967734Y-97635933D01*
X103967810Y-97636623D01*
X103972406Y-97669932D01*
X103972546Y-97670750D01*
X103978793Y-97701178D01*
X103979002Y-97702040D01*
X103987049Y-97730855D01*
X103987299Y-97731648D01*
X103997299Y-97760118D01*
X103997537Y-97760744D01*
X104009639Y-97790137D01*
X104009821Y-97790557D01*
X104024177Y-97822139D01*
X104024282Y-97822364D01*
X104037245Y-97849466D01*
X103850000Y-98044178D01*
X103662754Y-97849466D01*
X103675717Y-97822364D01*
X103675822Y-97822139D01*
X103690178Y-97790557D01*
X103690360Y-97790137D01*
X103702462Y-97760744D01*
X103702700Y-97760118D01*
X103712700Y-97731648D01*
X103712950Y-97730855D01*
X103720997Y-97702040D01*
X103721206Y-97701178D01*
X103727453Y-97670750D01*
X103727593Y-97669932D01*
X103732189Y-97636623D01*
X103732265Y-97635933D01*
X103735361Y-97598476D01*
X103735393Y-97597947D01*
X103737140Y-97555073D01*
X103737150Y-97554697D01*
X103737560Y-97517700D01*
X103962440Y-97517700D01*
X103962849Y-97554696D01*
%TO.N,SPI2_MISO*%
G36*
X95903491Y-96138687D02*
G01*
X95913487Y-96167015D01*
X95913572Y-96167248D01*
X95925753Y-96199731D01*
X95925921Y-96200157D01*
X95938147Y-96229498D01*
X95938421Y-96230110D01*
X95951482Y-96257312D01*
X95951866Y-96258049D01*
X95966551Y-96284115D01*
X95967013Y-96284872D01*
X95984112Y-96310804D01*
X95984592Y-96311481D01*
X96004895Y-96338284D01*
X96005329Y-96338826D01*
X96029626Y-96367501D01*
X96029977Y-96367898D01*
X96059058Y-96399449D01*
X96059317Y-96399722D01*
X96085189Y-96426174D01*
X95926174Y-96585189D01*
X95899722Y-96559317D01*
X95899449Y-96559058D01*
X95867898Y-96529977D01*
X95867501Y-96529626D01*
X95838826Y-96505329D01*
X95838284Y-96504895D01*
X95811481Y-96484592D01*
X95810804Y-96484112D01*
X95784872Y-96467013D01*
X95784115Y-96466551D01*
X95758049Y-96451866D01*
X95757312Y-96451482D01*
X95730110Y-96438421D01*
X95729498Y-96438147D01*
X95700157Y-96425921D01*
X95699731Y-96425753D01*
X95667248Y-96413572D01*
X95667015Y-96413487D01*
X95638687Y-96403491D01*
X95633407Y-96133407D01*
X95903491Y-96138687D01*
G37*
X95903491Y-96138687D02*
X95913487Y-96167015D01*
X95913572Y-96167248D01*
X95925753Y-96199731D01*
X95925921Y-96200157D01*
X95938147Y-96229498D01*
X95938421Y-96230110D01*
X95951482Y-96257312D01*
X95951866Y-96258049D01*
X95966551Y-96284115D01*
X95967013Y-96284872D01*
X95984112Y-96310804D01*
X95984592Y-96311481D01*
X96004895Y-96338284D01*
X96005329Y-96338826D01*
X96029626Y-96367501D01*
X96029977Y-96367898D01*
X96059058Y-96399449D01*
X96059317Y-96399722D01*
X96085189Y-96426174D01*
X95926174Y-96585189D01*
X95899722Y-96559317D01*
X95899449Y-96559058D01*
X95867898Y-96529977D01*
X95867501Y-96529626D01*
X95838826Y-96505329D01*
X95838284Y-96504895D01*
X95811481Y-96484592D01*
X95810804Y-96484112D01*
X95784872Y-96467013D01*
X95784115Y-96466551D01*
X95758049Y-96451866D01*
X95757312Y-96451482D01*
X95730110Y-96438421D01*
X95729498Y-96438147D01*
X95700157Y-96425921D01*
X95699731Y-96425753D01*
X95667248Y-96413572D01*
X95667015Y-96413487D01*
X95638687Y-96403491D01*
X95633407Y-96133407D01*
X95903491Y-96138687D01*
G36*
X104303615Y-98388689D02*
G01*
X104317981Y-98427736D01*
X104318117Y-98428089D01*
X104334911Y-98469855D01*
X104334974Y-98470009D01*
X104350878Y-98508107D01*
X104365539Y-98544216D01*
X104378652Y-98580080D01*
X104389969Y-98617540D01*
X104399273Y-98658576D01*
X104406297Y-98705100D01*
X104410742Y-98759011D01*
X104411983Y-98809457D01*
X104186882Y-98809457D01*
X104185660Y-98791077D01*
X104185374Y-98789114D01*
X104179574Y-98763511D01*
X104178857Y-98761306D01*
X104169617Y-98739790D01*
X104168421Y-98737617D01*
X104156088Y-98719639D01*
X104154569Y-98717816D01*
X104139491Y-98702827D01*
X104137944Y-98701518D01*
X104120469Y-98688970D01*
X104119147Y-98688138D01*
X104099624Y-98677482D01*
X104098641Y-98677000D01*
X104077418Y-98667689D01*
X104076797Y-98667436D01*
X104054221Y-98658922D01*
X104053942Y-98658820D01*
X104038687Y-98653471D01*
X104033407Y-98383407D01*
X104303615Y-98388689D01*
G37*
X104303615Y-98388689D02*
X104317981Y-98427736D01*
X104318117Y-98428089D01*
X104334911Y-98469855D01*
X104334974Y-98470009D01*
X104350878Y-98508107D01*
X104365539Y-98544216D01*
X104378652Y-98580080D01*
X104389969Y-98617540D01*
X104399273Y-98658576D01*
X104406297Y-98705100D01*
X104410742Y-98759011D01*
X104411983Y-98809457D01*
X104186882Y-98809457D01*
X104185660Y-98791077D01*
X104185374Y-98789114D01*
X104179574Y-98763511D01*
X104178857Y-98761306D01*
X104169617Y-98739790D01*
X104168421Y-98737617D01*
X104156088Y-98719639D01*
X104154569Y-98717816D01*
X104139491Y-98702827D01*
X104137944Y-98701518D01*
X104120469Y-98688970D01*
X104119147Y-98688138D01*
X104099624Y-98677482D01*
X104098641Y-98677000D01*
X104077418Y-98667689D01*
X104076797Y-98667436D01*
X104054221Y-98658922D01*
X104053942Y-98658820D01*
X104038687Y-98653471D01*
X104033407Y-98383407D01*
X104303615Y-98388689D01*
%TO.N,SPI2_SCK*%
G36*
X104037244Y-99050544D02*
G01*
X104023862Y-99078628D01*
X104023742Y-99078888D01*
X104009154Y-99111373D01*
X104008960Y-99111827D01*
X103996763Y-99142080D01*
X103996520Y-99142735D01*
X103986536Y-99172051D01*
X103986291Y-99172857D01*
X103978337Y-99202533D01*
X103978138Y-99203393D01*
X103972035Y-99234727D01*
X103971906Y-99235527D01*
X103967474Y-99269814D01*
X103967406Y-99270475D01*
X103964463Y-99309014D01*
X103964435Y-99309511D01*
X103962802Y-99353598D01*
X103962794Y-99353942D01*
X103962414Y-99392300D01*
X103737563Y-99392300D01*
X103737183Y-99353942D01*
X103737175Y-99353598D01*
X103735542Y-99309511D01*
X103735514Y-99309014D01*
X103732571Y-99270475D01*
X103732503Y-99269814D01*
X103728071Y-99235527D01*
X103727942Y-99234727D01*
X103721839Y-99203393D01*
X103721640Y-99202533D01*
X103713686Y-99172857D01*
X103713441Y-99172051D01*
X103703457Y-99142735D01*
X103703214Y-99142080D01*
X103691017Y-99111827D01*
X103690823Y-99111373D01*
X103676235Y-99078888D01*
X103676115Y-99078628D01*
X103662734Y-99050544D01*
X103849989Y-98855822D01*
X104037244Y-99050544D01*
G37*
X104037244Y-99050544D02*
X104023862Y-99078628D01*
X104023742Y-99078888D01*
X104009154Y-99111373D01*
X104008960Y-99111827D01*
X103996763Y-99142080D01*
X103996520Y-99142735D01*
X103986536Y-99172051D01*
X103986291Y-99172857D01*
X103978337Y-99202533D01*
X103978138Y-99203393D01*
X103972035Y-99234727D01*
X103971906Y-99235527D01*
X103967474Y-99269814D01*
X103967406Y-99270475D01*
X103964463Y-99309014D01*
X103964435Y-99309511D01*
X103962802Y-99353598D01*
X103962794Y-99353942D01*
X103962414Y-99392300D01*
X103737563Y-99392300D01*
X103737183Y-99353942D01*
X103737175Y-99353598D01*
X103735542Y-99309511D01*
X103735514Y-99309014D01*
X103732571Y-99270475D01*
X103732503Y-99269814D01*
X103728071Y-99235527D01*
X103727942Y-99234727D01*
X103721839Y-99203393D01*
X103721640Y-99202533D01*
X103713686Y-99172857D01*
X103713441Y-99172051D01*
X103703457Y-99142735D01*
X103703214Y-99142080D01*
X103691017Y-99111827D01*
X103690823Y-99111373D01*
X103676235Y-99078888D01*
X103676115Y-99078628D01*
X103662734Y-99050544D01*
X103849989Y-98855822D01*
X104037244Y-99050544D01*
G36*
X93377635Y-95025717D02*
G01*
X93377860Y-95025822D01*
X93409442Y-95040178D01*
X93409862Y-95040360D01*
X93439255Y-95052462D01*
X93439881Y-95052700D01*
X93468351Y-95062700D01*
X93469144Y-95062950D01*
X93497959Y-95070997D01*
X93498821Y-95071206D01*
X93529249Y-95077453D01*
X93530067Y-95077593D01*
X93563376Y-95082189D01*
X93564066Y-95082265D01*
X93601523Y-95085361D01*
X93602052Y-95085393D01*
X93644926Y-95087140D01*
X93645302Y-95087150D01*
X93682300Y-95087560D01*
X93682300Y-95312440D01*
X93645303Y-95312849D01*
X93644926Y-95312859D01*
X93602052Y-95314606D01*
X93601523Y-95314638D01*
X93564066Y-95317734D01*
X93563376Y-95317810D01*
X93530067Y-95322406D01*
X93529249Y-95322546D01*
X93498821Y-95328793D01*
X93497959Y-95329002D01*
X93469144Y-95337049D01*
X93468351Y-95337299D01*
X93439881Y-95347299D01*
X93439255Y-95347537D01*
X93409862Y-95359639D01*
X93409442Y-95359821D01*
X93377860Y-95374177D01*
X93377635Y-95374282D01*
X93350534Y-95387245D01*
X93155822Y-95200000D01*
X93350534Y-95012754D01*
X93377635Y-95025717D01*
G37*
X93377635Y-95025717D02*
X93377860Y-95025822D01*
X93409442Y-95040178D01*
X93409862Y-95040360D01*
X93439255Y-95052462D01*
X93439881Y-95052700D01*
X93468351Y-95062700D01*
X93469144Y-95062950D01*
X93497959Y-95070997D01*
X93498821Y-95071206D01*
X93529249Y-95077453D01*
X93530067Y-95077593D01*
X93563376Y-95082189D01*
X93564066Y-95082265D01*
X93601523Y-95085361D01*
X93602052Y-95085393D01*
X93644926Y-95087140D01*
X93645302Y-95087150D01*
X93682300Y-95087560D01*
X93682300Y-95312440D01*
X93645303Y-95312849D01*
X93644926Y-95312859D01*
X93602052Y-95314606D01*
X93601523Y-95314638D01*
X93564066Y-95317734D01*
X93563376Y-95317810D01*
X93530067Y-95322406D01*
X93529249Y-95322546D01*
X93498821Y-95328793D01*
X93497959Y-95329002D01*
X93469144Y-95337049D01*
X93468351Y-95337299D01*
X93439881Y-95347299D01*
X93439255Y-95347537D01*
X93409862Y-95359639D01*
X93409442Y-95359821D01*
X93377860Y-95374177D01*
X93377635Y-95374282D01*
X93350534Y-95387245D01*
X93155822Y-95200000D01*
X93350534Y-95012754D01*
X93377635Y-95025717D01*
%TO.N,SPI2_CS*%
G36*
X103394178Y-99849991D02*
G01*
X103199456Y-100037246D01*
X103171371Y-100023864D01*
X103171111Y-100023744D01*
X103138626Y-100009156D01*
X103138172Y-100008962D01*
X103107919Y-99996765D01*
X103107264Y-99996522D01*
X103077948Y-99986538D01*
X103077142Y-99986293D01*
X103047466Y-99978339D01*
X103046606Y-99978140D01*
X103015272Y-99972037D01*
X103014472Y-99971908D01*
X102980185Y-99967476D01*
X102979524Y-99967408D01*
X102940985Y-99964465D01*
X102940488Y-99964437D01*
X102896401Y-99962804D01*
X102896057Y-99962796D01*
X102857700Y-99962416D01*
X102857700Y-99737565D01*
X102896057Y-99737185D01*
X102896401Y-99737177D01*
X102940488Y-99735544D01*
X102940985Y-99735516D01*
X102979524Y-99732573D01*
X102980185Y-99732505D01*
X103014472Y-99728073D01*
X103015272Y-99727944D01*
X103046606Y-99721841D01*
X103047466Y-99721642D01*
X103077142Y-99713688D01*
X103077948Y-99713443D01*
X103107264Y-99703459D01*
X103107919Y-99703216D01*
X103138172Y-99691019D01*
X103138626Y-99690825D01*
X103171111Y-99676237D01*
X103171371Y-99676117D01*
X103199455Y-99662736D01*
X103394178Y-99849991D01*
G37*
X103394178Y-99849991D02*
X103199456Y-100037246D01*
X103171371Y-100023864D01*
X103171111Y-100023744D01*
X103138626Y-100009156D01*
X103138172Y-100008962D01*
X103107919Y-99996765D01*
X103107264Y-99996522D01*
X103077948Y-99986538D01*
X103077142Y-99986293D01*
X103047466Y-99978339D01*
X103046606Y-99978140D01*
X103015272Y-99972037D01*
X103014472Y-99971908D01*
X102980185Y-99967476D01*
X102979524Y-99967408D01*
X102940985Y-99964465D01*
X102940488Y-99964437D01*
X102896401Y-99962804D01*
X102896057Y-99962796D01*
X102857700Y-99962416D01*
X102857700Y-99737565D01*
X102896057Y-99737185D01*
X102896401Y-99737177D01*
X102940488Y-99735544D01*
X102940985Y-99735516D01*
X102979524Y-99732573D01*
X102980185Y-99732505D01*
X103014472Y-99728073D01*
X103015272Y-99727944D01*
X103046606Y-99721841D01*
X103047466Y-99721642D01*
X103077142Y-99713688D01*
X103077948Y-99713443D01*
X103107264Y-99703459D01*
X103107919Y-99703216D01*
X103138172Y-99691019D01*
X103138626Y-99690825D01*
X103171111Y-99676237D01*
X103171371Y-99676117D01*
X103199455Y-99662736D01*
X103394178Y-99849991D01*
G36*
X92712328Y-95555217D02*
G01*
X92712338Y-95555594D01*
X92714085Y-95598468D01*
X92714117Y-95598997D01*
X92717213Y-95636454D01*
X92717289Y-95637144D01*
X92721885Y-95670453D01*
X92722025Y-95671271D01*
X92728272Y-95701699D01*
X92728481Y-95702561D01*
X92736528Y-95731376D01*
X92736778Y-95732169D01*
X92746778Y-95760639D01*
X92747016Y-95761265D01*
X92759118Y-95790658D01*
X92759300Y-95791078D01*
X92773656Y-95822660D01*
X92773761Y-95822885D01*
X92786724Y-95849987D01*
X92599479Y-96044699D01*
X92412233Y-95849987D01*
X92425196Y-95822885D01*
X92425301Y-95822660D01*
X92439657Y-95791078D01*
X92439839Y-95790658D01*
X92451941Y-95761265D01*
X92452179Y-95760639D01*
X92462179Y-95732169D01*
X92462429Y-95731376D01*
X92470476Y-95702561D01*
X92470685Y-95701699D01*
X92476932Y-95671271D01*
X92477072Y-95670453D01*
X92481668Y-95637144D01*
X92481744Y-95636454D01*
X92484840Y-95598997D01*
X92484872Y-95598468D01*
X92486619Y-95555594D01*
X92486629Y-95555218D01*
X92487039Y-95518221D01*
X92711919Y-95518221D01*
X92712328Y-95555217D01*
G37*
X92712328Y-95555217D02*
X92712338Y-95555594D01*
X92714085Y-95598468D01*
X92714117Y-95598997D01*
X92717213Y-95636454D01*
X92717289Y-95637144D01*
X92721885Y-95670453D01*
X92722025Y-95671271D01*
X92728272Y-95701699D01*
X92728481Y-95702561D01*
X92736528Y-95731376D01*
X92736778Y-95732169D01*
X92746778Y-95760639D01*
X92747016Y-95761265D01*
X92759118Y-95790658D01*
X92759300Y-95791078D01*
X92773656Y-95822660D01*
X92773761Y-95822885D01*
X92786724Y-95849987D01*
X92599479Y-96044699D01*
X92412233Y-95849987D01*
X92425196Y-95822885D01*
X92425301Y-95822660D01*
X92439657Y-95791078D01*
X92439839Y-95790658D01*
X92451941Y-95761265D01*
X92452179Y-95760639D01*
X92462179Y-95732169D01*
X92462429Y-95731376D01*
X92470476Y-95702561D01*
X92470685Y-95701699D01*
X92476932Y-95671271D01*
X92477072Y-95670453D01*
X92481668Y-95637144D01*
X92481744Y-95636454D01*
X92484840Y-95598997D01*
X92484872Y-95598468D01*
X92486619Y-95555594D01*
X92486629Y-95555218D01*
X92487039Y-95518221D01*
X92711919Y-95518221D01*
X92712328Y-95555217D01*
%TD*%
M02*
