M48
; DRILL file {KiCad (5.1.5)-3} date 2021/1/24 2:28:16
; FORMAT={-:-/ absolute / metric / decimal}
; #@! TF.CreationDate,2021-01-24T02:28:16+08:00
; #@! TF.GenerationSoftware,Kicad,Pcbnew,(5.1.5)-3
FMAT,2
METRIC
T1C0.400
T2C1.000
%
G90
G05
T1
X91.02Y-93.14
X93.07Y-96.47
X93.17Y-108.495
X93.246Y-103.07
X93.37Y-106.045
X93.397Y-107.157
X93.614Y-97.722
X93.92Y-103.645
X94.095Y-101.22
X95.013Y-102.136
X95.231Y-91.279
X95.674Y-101.474
X95.753Y-107.157
X96.226Y-90.367
X96.971Y-89.471
X97.37Y-93.857
X97.599Y-97.709
X97.75Y-94.89
X97.82Y-98.547
X98.341Y-88.125
X98.595Y-98.745
X99.645Y-111.345
X99.97Y-99.12
X100.032Y-91.074
X100.17Y-94.342
X100.945Y-99.12
X101.27Y-95.72
X102.245Y-97.97
X102.414Y-98.991
X102.69Y-95.17
X103.45Y-107.22
X105.895Y-105.295
X105.935Y-100.785
X105.995Y-102.07
X106.07Y-92.82
X106.295Y-99.22
X108.511Y-92.401
X108.745Y-93.42
X109.071Y-95.119
X111.14Y-94.386
T2
X107.0Y-94.83
X107.869Y-97.217
X108.737Y-99.604
T0
M30
