%TF.GenerationSoftware,KiCad,Pcbnew,(5.1.5)-3*%
%TF.CreationDate,2021-01-24T02:28:12+08:00*%
%TF.ProjectId,STM32_FOC,53544d33-325f-4464-9f43-2e6b69636164,rev?*%
%TF.SameCoordinates,Original*%
%TF.FileFunction,Paste,Top*%
%TF.FilePolarity,Positive*%
%FSLAX46Y46*%
G04 Gerber Fmt 4.6, Leading zero omitted, Abs format (unit mm)*
G04 Created by KiCad (PCBNEW (5.1.5)-3) date 2021-01-24 02:28:12*
%MOMM*%
%LPD*%
G04 APERTURE LIST*
%ADD10R,0.304800X1.239520*%
%ADD11R,5.199380X3.098800*%
%ADD12R,0.400000X1.800000*%
%ADD13R,0.400000X1.600000*%
%ADD14C,0.100000*%
%ADD15R,1.060000X0.650000*%
G04 APERTURE END LIST*
D10*
%TO.C,U4*%
X95705980Y-109130380D03*
X96356220Y-109130380D03*
X97006460Y-109130380D03*
X97656700Y-109130380D03*
X98306940Y-109130380D03*
X98957180Y-109130380D03*
X99607420Y-109130380D03*
X100252580Y-109130380D03*
X100902820Y-109130380D03*
X101553060Y-109130380D03*
X102203300Y-109130380D03*
X102853540Y-109130380D03*
X103503780Y-109130380D03*
X104154020Y-109130380D03*
X104154020Y-103049620D03*
X103503780Y-103049620D03*
X102853540Y-103049620D03*
X102203300Y-103049620D03*
X101553060Y-103049620D03*
X100902820Y-103049620D03*
X100252580Y-103049620D03*
X99607420Y-103049620D03*
X98957180Y-103049620D03*
X98306940Y-103049620D03*
X97656700Y-103049620D03*
X97006460Y-103049620D03*
X96356220Y-103049620D03*
X95705980Y-103049620D03*
D11*
X99930000Y-106090000D03*
%TD*%
D12*
%TO.C,Y1*%
X91840000Y-95060000D03*
D13*
X93040000Y-95060000D03*
D12*
X94240000Y-95060000D03*
%TD*%
D14*
%TO.C,J4*%
G36*
X93039703Y-98200722D02*
G01*
X93054264Y-98202882D01*
X93068543Y-98206459D01*
X93082403Y-98211418D01*
X93095710Y-98217712D01*
X93108336Y-98225280D01*
X93120159Y-98234048D01*
X93131066Y-98243934D01*
X93140952Y-98254841D01*
X93149720Y-98266664D01*
X93157288Y-98279290D01*
X93163582Y-98292597D01*
X93168541Y-98306457D01*
X93172118Y-98320736D01*
X93174278Y-98335297D01*
X93175000Y-98350000D01*
X93175000Y-98650000D01*
X93174278Y-98664703D01*
X93172118Y-98679264D01*
X93168541Y-98693543D01*
X93163582Y-98707403D01*
X93157288Y-98720710D01*
X93149720Y-98733336D01*
X93140952Y-98745159D01*
X93131066Y-98756066D01*
X93120159Y-98765952D01*
X93108336Y-98774720D01*
X93095710Y-98782288D01*
X93082403Y-98788582D01*
X93068543Y-98793541D01*
X93054264Y-98797118D01*
X93039703Y-98799278D01*
X93025000Y-98800000D01*
X91775000Y-98800000D01*
X91760297Y-98799278D01*
X91745736Y-98797118D01*
X91731457Y-98793541D01*
X91717597Y-98788582D01*
X91704290Y-98782288D01*
X91691664Y-98774720D01*
X91679841Y-98765952D01*
X91668934Y-98756066D01*
X91659048Y-98745159D01*
X91650280Y-98733336D01*
X91642712Y-98720710D01*
X91636418Y-98707403D01*
X91631459Y-98693543D01*
X91627882Y-98679264D01*
X91625722Y-98664703D01*
X91625000Y-98650000D01*
X91625000Y-98350000D01*
X91625722Y-98335297D01*
X91627882Y-98320736D01*
X91631459Y-98306457D01*
X91636418Y-98292597D01*
X91642712Y-98279290D01*
X91650280Y-98266664D01*
X91659048Y-98254841D01*
X91668934Y-98243934D01*
X91679841Y-98234048D01*
X91691664Y-98225280D01*
X91704290Y-98217712D01*
X91717597Y-98211418D01*
X91731457Y-98206459D01*
X91745736Y-98202882D01*
X91760297Y-98200722D01*
X91775000Y-98200000D01*
X93025000Y-98200000D01*
X93039703Y-98200722D01*
G37*
G36*
X93039703Y-99200722D02*
G01*
X93054264Y-99202882D01*
X93068543Y-99206459D01*
X93082403Y-99211418D01*
X93095710Y-99217712D01*
X93108336Y-99225280D01*
X93120159Y-99234048D01*
X93131066Y-99243934D01*
X93140952Y-99254841D01*
X93149720Y-99266664D01*
X93157288Y-99279290D01*
X93163582Y-99292597D01*
X93168541Y-99306457D01*
X93172118Y-99320736D01*
X93174278Y-99335297D01*
X93175000Y-99350000D01*
X93175000Y-99650000D01*
X93174278Y-99664703D01*
X93172118Y-99679264D01*
X93168541Y-99693543D01*
X93163582Y-99707403D01*
X93157288Y-99720710D01*
X93149720Y-99733336D01*
X93140952Y-99745159D01*
X93131066Y-99756066D01*
X93120159Y-99765952D01*
X93108336Y-99774720D01*
X93095710Y-99782288D01*
X93082403Y-99788582D01*
X93068543Y-99793541D01*
X93054264Y-99797118D01*
X93039703Y-99799278D01*
X93025000Y-99800000D01*
X91775000Y-99800000D01*
X91760297Y-99799278D01*
X91745736Y-99797118D01*
X91731457Y-99793541D01*
X91717597Y-99788582D01*
X91704290Y-99782288D01*
X91691664Y-99774720D01*
X91679841Y-99765952D01*
X91668934Y-99756066D01*
X91659048Y-99745159D01*
X91650280Y-99733336D01*
X91642712Y-99720710D01*
X91636418Y-99707403D01*
X91631459Y-99693543D01*
X91627882Y-99679264D01*
X91625722Y-99664703D01*
X91625000Y-99650000D01*
X91625000Y-99350000D01*
X91625722Y-99335297D01*
X91627882Y-99320736D01*
X91631459Y-99306457D01*
X91636418Y-99292597D01*
X91642712Y-99279290D01*
X91650280Y-99266664D01*
X91659048Y-99254841D01*
X91668934Y-99243934D01*
X91679841Y-99234048D01*
X91691664Y-99225280D01*
X91704290Y-99217712D01*
X91717597Y-99211418D01*
X91731457Y-99206459D01*
X91745736Y-99202882D01*
X91760297Y-99200722D01*
X91775000Y-99200000D01*
X93025000Y-99200000D01*
X93039703Y-99200722D01*
G37*
G36*
X93039703Y-100200722D02*
G01*
X93054264Y-100202882D01*
X93068543Y-100206459D01*
X93082403Y-100211418D01*
X93095710Y-100217712D01*
X93108336Y-100225280D01*
X93120159Y-100234048D01*
X93131066Y-100243934D01*
X93140952Y-100254841D01*
X93149720Y-100266664D01*
X93157288Y-100279290D01*
X93163582Y-100292597D01*
X93168541Y-100306457D01*
X93172118Y-100320736D01*
X93174278Y-100335297D01*
X93175000Y-100350000D01*
X93175000Y-100650000D01*
X93174278Y-100664703D01*
X93172118Y-100679264D01*
X93168541Y-100693543D01*
X93163582Y-100707403D01*
X93157288Y-100720710D01*
X93149720Y-100733336D01*
X93140952Y-100745159D01*
X93131066Y-100756066D01*
X93120159Y-100765952D01*
X93108336Y-100774720D01*
X93095710Y-100782288D01*
X93082403Y-100788582D01*
X93068543Y-100793541D01*
X93054264Y-100797118D01*
X93039703Y-100799278D01*
X93025000Y-100800000D01*
X91775000Y-100800000D01*
X91760297Y-100799278D01*
X91745736Y-100797118D01*
X91731457Y-100793541D01*
X91717597Y-100788582D01*
X91704290Y-100782288D01*
X91691664Y-100774720D01*
X91679841Y-100765952D01*
X91668934Y-100756066D01*
X91659048Y-100745159D01*
X91650280Y-100733336D01*
X91642712Y-100720710D01*
X91636418Y-100707403D01*
X91631459Y-100693543D01*
X91627882Y-100679264D01*
X91625722Y-100664703D01*
X91625000Y-100650000D01*
X91625000Y-100350000D01*
X91625722Y-100335297D01*
X91627882Y-100320736D01*
X91631459Y-100306457D01*
X91636418Y-100292597D01*
X91642712Y-100279290D01*
X91650280Y-100266664D01*
X91659048Y-100254841D01*
X91668934Y-100243934D01*
X91679841Y-100234048D01*
X91691664Y-100225280D01*
X91704290Y-100217712D01*
X91717597Y-100211418D01*
X91731457Y-100206459D01*
X91745736Y-100202882D01*
X91760297Y-100200722D01*
X91775000Y-100200000D01*
X93025000Y-100200000D01*
X93039703Y-100200722D01*
G37*
G36*
X93039703Y-101200722D02*
G01*
X93054264Y-101202882D01*
X93068543Y-101206459D01*
X93082403Y-101211418D01*
X93095710Y-101217712D01*
X93108336Y-101225280D01*
X93120159Y-101234048D01*
X93131066Y-101243934D01*
X93140952Y-101254841D01*
X93149720Y-101266664D01*
X93157288Y-101279290D01*
X93163582Y-101292597D01*
X93168541Y-101306457D01*
X93172118Y-101320736D01*
X93174278Y-101335297D01*
X93175000Y-101350000D01*
X93175000Y-101650000D01*
X93174278Y-101664703D01*
X93172118Y-101679264D01*
X93168541Y-101693543D01*
X93163582Y-101707403D01*
X93157288Y-101720710D01*
X93149720Y-101733336D01*
X93140952Y-101745159D01*
X93131066Y-101756066D01*
X93120159Y-101765952D01*
X93108336Y-101774720D01*
X93095710Y-101782288D01*
X93082403Y-101788582D01*
X93068543Y-101793541D01*
X93054264Y-101797118D01*
X93039703Y-101799278D01*
X93025000Y-101800000D01*
X91775000Y-101800000D01*
X91760297Y-101799278D01*
X91745736Y-101797118D01*
X91731457Y-101793541D01*
X91717597Y-101788582D01*
X91704290Y-101782288D01*
X91691664Y-101774720D01*
X91679841Y-101765952D01*
X91668934Y-101756066D01*
X91659048Y-101745159D01*
X91650280Y-101733336D01*
X91642712Y-101720710D01*
X91636418Y-101707403D01*
X91631459Y-101693543D01*
X91627882Y-101679264D01*
X91625722Y-101664703D01*
X91625000Y-101650000D01*
X91625000Y-101350000D01*
X91625722Y-101335297D01*
X91627882Y-101320736D01*
X91631459Y-101306457D01*
X91636418Y-101292597D01*
X91642712Y-101279290D01*
X91650280Y-101266664D01*
X91659048Y-101254841D01*
X91668934Y-101243934D01*
X91679841Y-101234048D01*
X91691664Y-101225280D01*
X91704290Y-101217712D01*
X91717597Y-101211418D01*
X91731457Y-101206459D01*
X91745736Y-101202882D01*
X91760297Y-101200722D01*
X91775000Y-101200000D01*
X93025000Y-101200000D01*
X93039703Y-101200722D01*
G37*
G36*
X89199505Y-96601204D02*
G01*
X89223773Y-96604804D01*
X89247572Y-96610765D01*
X89270671Y-96619030D01*
X89292850Y-96629520D01*
X89313893Y-96642132D01*
X89333599Y-96656747D01*
X89351777Y-96673223D01*
X89368253Y-96691401D01*
X89382868Y-96711107D01*
X89395480Y-96732150D01*
X89405970Y-96754329D01*
X89414235Y-96777428D01*
X89420196Y-96801227D01*
X89423796Y-96825495D01*
X89425000Y-96849999D01*
X89425000Y-97550001D01*
X89423796Y-97574505D01*
X89420196Y-97598773D01*
X89414235Y-97622572D01*
X89405970Y-97645671D01*
X89395480Y-97667850D01*
X89382868Y-97688893D01*
X89368253Y-97708599D01*
X89351777Y-97726777D01*
X89333599Y-97743253D01*
X89313893Y-97757868D01*
X89292850Y-97770480D01*
X89270671Y-97780970D01*
X89247572Y-97789235D01*
X89223773Y-97795196D01*
X89199505Y-97798796D01*
X89175001Y-97800000D01*
X87874999Y-97800000D01*
X87850495Y-97798796D01*
X87826227Y-97795196D01*
X87802428Y-97789235D01*
X87779329Y-97780970D01*
X87757150Y-97770480D01*
X87736107Y-97757868D01*
X87716401Y-97743253D01*
X87698223Y-97726777D01*
X87681747Y-97708599D01*
X87667132Y-97688893D01*
X87654520Y-97667850D01*
X87644030Y-97645671D01*
X87635765Y-97622572D01*
X87629804Y-97598773D01*
X87626204Y-97574505D01*
X87625000Y-97550001D01*
X87625000Y-96849999D01*
X87626204Y-96825495D01*
X87629804Y-96801227D01*
X87635765Y-96777428D01*
X87644030Y-96754329D01*
X87654520Y-96732150D01*
X87667132Y-96711107D01*
X87681747Y-96691401D01*
X87698223Y-96673223D01*
X87716401Y-96656747D01*
X87736107Y-96642132D01*
X87757150Y-96629520D01*
X87779329Y-96619030D01*
X87802428Y-96610765D01*
X87826227Y-96604804D01*
X87850495Y-96601204D01*
X87874999Y-96600000D01*
X89175001Y-96600000D01*
X89199505Y-96601204D01*
G37*
G36*
X89199505Y-102201204D02*
G01*
X89223773Y-102204804D01*
X89247572Y-102210765D01*
X89270671Y-102219030D01*
X89292850Y-102229520D01*
X89313893Y-102242132D01*
X89333599Y-102256747D01*
X89351777Y-102273223D01*
X89368253Y-102291401D01*
X89382868Y-102311107D01*
X89395480Y-102332150D01*
X89405970Y-102354329D01*
X89414235Y-102377428D01*
X89420196Y-102401227D01*
X89423796Y-102425495D01*
X89425000Y-102449999D01*
X89425000Y-103150001D01*
X89423796Y-103174505D01*
X89420196Y-103198773D01*
X89414235Y-103222572D01*
X89405970Y-103245671D01*
X89395480Y-103267850D01*
X89382868Y-103288893D01*
X89368253Y-103308599D01*
X89351777Y-103326777D01*
X89333599Y-103343253D01*
X89313893Y-103357868D01*
X89292850Y-103370480D01*
X89270671Y-103380970D01*
X89247572Y-103389235D01*
X89223773Y-103395196D01*
X89199505Y-103398796D01*
X89175001Y-103400000D01*
X87874999Y-103400000D01*
X87850495Y-103398796D01*
X87826227Y-103395196D01*
X87802428Y-103389235D01*
X87779329Y-103380970D01*
X87757150Y-103370480D01*
X87736107Y-103357868D01*
X87716401Y-103343253D01*
X87698223Y-103326777D01*
X87681747Y-103308599D01*
X87667132Y-103288893D01*
X87654520Y-103267850D01*
X87644030Y-103245671D01*
X87635765Y-103222572D01*
X87629804Y-103198773D01*
X87626204Y-103174505D01*
X87625000Y-103150001D01*
X87625000Y-102449999D01*
X87626204Y-102425495D01*
X87629804Y-102401227D01*
X87635765Y-102377428D01*
X87644030Y-102354329D01*
X87654520Y-102332150D01*
X87667132Y-102311107D01*
X87681747Y-102291401D01*
X87698223Y-102273223D01*
X87716401Y-102256747D01*
X87736107Y-102242132D01*
X87757150Y-102229520D01*
X87779329Y-102219030D01*
X87802428Y-102210765D01*
X87826227Y-102204804D01*
X87850495Y-102201204D01*
X87874999Y-102200000D01*
X89175001Y-102200000D01*
X89199505Y-102201204D01*
G37*
%TD*%
D15*
%TO.C,U2*%
X105490000Y-91670000D03*
X105490000Y-92620000D03*
X105490000Y-90720000D03*
X107690000Y-90720000D03*
X107690000Y-91670000D03*
X107690000Y-92620000D03*
%TD*%
D14*
%TO.C,U1*%
G36*
X96737351Y-93610361D02*
G01*
X96744632Y-93611441D01*
X96751771Y-93613229D01*
X96758701Y-93615709D01*
X96765355Y-93618856D01*
X96771668Y-93622640D01*
X96777579Y-93627024D01*
X96783033Y-93631967D01*
X96787976Y-93637421D01*
X96792360Y-93643332D01*
X96796144Y-93649645D01*
X96799291Y-93656299D01*
X96801771Y-93663229D01*
X96803559Y-93670368D01*
X96804639Y-93677649D01*
X96805000Y-93685000D01*
X96805000Y-93835000D01*
X96804639Y-93842351D01*
X96803559Y-93849632D01*
X96801771Y-93856771D01*
X96799291Y-93863701D01*
X96796144Y-93870355D01*
X96792360Y-93876668D01*
X96787976Y-93882579D01*
X96783033Y-93888033D01*
X96777579Y-93892976D01*
X96771668Y-93897360D01*
X96765355Y-93901144D01*
X96758701Y-93904291D01*
X96751771Y-93906771D01*
X96744632Y-93908559D01*
X96737351Y-93909639D01*
X96730000Y-93910000D01*
X95405000Y-93910000D01*
X95397649Y-93909639D01*
X95390368Y-93908559D01*
X95383229Y-93906771D01*
X95376299Y-93904291D01*
X95369645Y-93901144D01*
X95363332Y-93897360D01*
X95357421Y-93892976D01*
X95351967Y-93888033D01*
X95347024Y-93882579D01*
X95342640Y-93876668D01*
X95338856Y-93870355D01*
X95335709Y-93863701D01*
X95333229Y-93856771D01*
X95331441Y-93849632D01*
X95330361Y-93842351D01*
X95330000Y-93835000D01*
X95330000Y-93685000D01*
X95330361Y-93677649D01*
X95331441Y-93670368D01*
X95333229Y-93663229D01*
X95335709Y-93656299D01*
X95338856Y-93649645D01*
X95342640Y-93643332D01*
X95347024Y-93637421D01*
X95351967Y-93631967D01*
X95357421Y-93627024D01*
X95363332Y-93622640D01*
X95369645Y-93618856D01*
X95376299Y-93615709D01*
X95383229Y-93613229D01*
X95390368Y-93611441D01*
X95397649Y-93610361D01*
X95405000Y-93610000D01*
X96730000Y-93610000D01*
X96737351Y-93610361D01*
G37*
G36*
X96737351Y-94110361D02*
G01*
X96744632Y-94111441D01*
X96751771Y-94113229D01*
X96758701Y-94115709D01*
X96765355Y-94118856D01*
X96771668Y-94122640D01*
X96777579Y-94127024D01*
X96783033Y-94131967D01*
X96787976Y-94137421D01*
X96792360Y-94143332D01*
X96796144Y-94149645D01*
X96799291Y-94156299D01*
X96801771Y-94163229D01*
X96803559Y-94170368D01*
X96804639Y-94177649D01*
X96805000Y-94185000D01*
X96805000Y-94335000D01*
X96804639Y-94342351D01*
X96803559Y-94349632D01*
X96801771Y-94356771D01*
X96799291Y-94363701D01*
X96796144Y-94370355D01*
X96792360Y-94376668D01*
X96787976Y-94382579D01*
X96783033Y-94388033D01*
X96777579Y-94392976D01*
X96771668Y-94397360D01*
X96765355Y-94401144D01*
X96758701Y-94404291D01*
X96751771Y-94406771D01*
X96744632Y-94408559D01*
X96737351Y-94409639D01*
X96730000Y-94410000D01*
X95405000Y-94410000D01*
X95397649Y-94409639D01*
X95390368Y-94408559D01*
X95383229Y-94406771D01*
X95376299Y-94404291D01*
X95369645Y-94401144D01*
X95363332Y-94397360D01*
X95357421Y-94392976D01*
X95351967Y-94388033D01*
X95347024Y-94382579D01*
X95342640Y-94376668D01*
X95338856Y-94370355D01*
X95335709Y-94363701D01*
X95333229Y-94356771D01*
X95331441Y-94349632D01*
X95330361Y-94342351D01*
X95330000Y-94335000D01*
X95330000Y-94185000D01*
X95330361Y-94177649D01*
X95331441Y-94170368D01*
X95333229Y-94163229D01*
X95335709Y-94156299D01*
X95338856Y-94149645D01*
X95342640Y-94143332D01*
X95347024Y-94137421D01*
X95351967Y-94131967D01*
X95357421Y-94127024D01*
X95363332Y-94122640D01*
X95369645Y-94118856D01*
X95376299Y-94115709D01*
X95383229Y-94113229D01*
X95390368Y-94111441D01*
X95397649Y-94110361D01*
X95405000Y-94110000D01*
X96730000Y-94110000D01*
X96737351Y-94110361D01*
G37*
G36*
X96737351Y-94610361D02*
G01*
X96744632Y-94611441D01*
X96751771Y-94613229D01*
X96758701Y-94615709D01*
X96765355Y-94618856D01*
X96771668Y-94622640D01*
X96777579Y-94627024D01*
X96783033Y-94631967D01*
X96787976Y-94637421D01*
X96792360Y-94643332D01*
X96796144Y-94649645D01*
X96799291Y-94656299D01*
X96801771Y-94663229D01*
X96803559Y-94670368D01*
X96804639Y-94677649D01*
X96805000Y-94685000D01*
X96805000Y-94835000D01*
X96804639Y-94842351D01*
X96803559Y-94849632D01*
X96801771Y-94856771D01*
X96799291Y-94863701D01*
X96796144Y-94870355D01*
X96792360Y-94876668D01*
X96787976Y-94882579D01*
X96783033Y-94888033D01*
X96777579Y-94892976D01*
X96771668Y-94897360D01*
X96765355Y-94901144D01*
X96758701Y-94904291D01*
X96751771Y-94906771D01*
X96744632Y-94908559D01*
X96737351Y-94909639D01*
X96730000Y-94910000D01*
X95405000Y-94910000D01*
X95397649Y-94909639D01*
X95390368Y-94908559D01*
X95383229Y-94906771D01*
X95376299Y-94904291D01*
X95369645Y-94901144D01*
X95363332Y-94897360D01*
X95357421Y-94892976D01*
X95351967Y-94888033D01*
X95347024Y-94882579D01*
X95342640Y-94876668D01*
X95338856Y-94870355D01*
X95335709Y-94863701D01*
X95333229Y-94856771D01*
X95331441Y-94849632D01*
X95330361Y-94842351D01*
X95330000Y-94835000D01*
X95330000Y-94685000D01*
X95330361Y-94677649D01*
X95331441Y-94670368D01*
X95333229Y-94663229D01*
X95335709Y-94656299D01*
X95338856Y-94649645D01*
X95342640Y-94643332D01*
X95347024Y-94637421D01*
X95351967Y-94631967D01*
X95357421Y-94627024D01*
X95363332Y-94622640D01*
X95369645Y-94618856D01*
X95376299Y-94615709D01*
X95383229Y-94613229D01*
X95390368Y-94611441D01*
X95397649Y-94610361D01*
X95405000Y-94610000D01*
X96730000Y-94610000D01*
X96737351Y-94610361D01*
G37*
G36*
X96737351Y-95110361D02*
G01*
X96744632Y-95111441D01*
X96751771Y-95113229D01*
X96758701Y-95115709D01*
X96765355Y-95118856D01*
X96771668Y-95122640D01*
X96777579Y-95127024D01*
X96783033Y-95131967D01*
X96787976Y-95137421D01*
X96792360Y-95143332D01*
X96796144Y-95149645D01*
X96799291Y-95156299D01*
X96801771Y-95163229D01*
X96803559Y-95170368D01*
X96804639Y-95177649D01*
X96805000Y-95185000D01*
X96805000Y-95335000D01*
X96804639Y-95342351D01*
X96803559Y-95349632D01*
X96801771Y-95356771D01*
X96799291Y-95363701D01*
X96796144Y-95370355D01*
X96792360Y-95376668D01*
X96787976Y-95382579D01*
X96783033Y-95388033D01*
X96777579Y-95392976D01*
X96771668Y-95397360D01*
X96765355Y-95401144D01*
X96758701Y-95404291D01*
X96751771Y-95406771D01*
X96744632Y-95408559D01*
X96737351Y-95409639D01*
X96730000Y-95410000D01*
X95405000Y-95410000D01*
X95397649Y-95409639D01*
X95390368Y-95408559D01*
X95383229Y-95406771D01*
X95376299Y-95404291D01*
X95369645Y-95401144D01*
X95363332Y-95397360D01*
X95357421Y-95392976D01*
X95351967Y-95388033D01*
X95347024Y-95382579D01*
X95342640Y-95376668D01*
X95338856Y-95370355D01*
X95335709Y-95363701D01*
X95333229Y-95356771D01*
X95331441Y-95349632D01*
X95330361Y-95342351D01*
X95330000Y-95335000D01*
X95330000Y-95185000D01*
X95330361Y-95177649D01*
X95331441Y-95170368D01*
X95333229Y-95163229D01*
X95335709Y-95156299D01*
X95338856Y-95149645D01*
X95342640Y-95143332D01*
X95347024Y-95137421D01*
X95351967Y-95131967D01*
X95357421Y-95127024D01*
X95363332Y-95122640D01*
X95369645Y-95118856D01*
X95376299Y-95115709D01*
X95383229Y-95113229D01*
X95390368Y-95111441D01*
X95397649Y-95110361D01*
X95405000Y-95110000D01*
X96730000Y-95110000D01*
X96737351Y-95110361D01*
G37*
G36*
X96737351Y-95610361D02*
G01*
X96744632Y-95611441D01*
X96751771Y-95613229D01*
X96758701Y-95615709D01*
X96765355Y-95618856D01*
X96771668Y-95622640D01*
X96777579Y-95627024D01*
X96783033Y-95631967D01*
X96787976Y-95637421D01*
X96792360Y-95643332D01*
X96796144Y-95649645D01*
X96799291Y-95656299D01*
X96801771Y-95663229D01*
X96803559Y-95670368D01*
X96804639Y-95677649D01*
X96805000Y-95685000D01*
X96805000Y-95835000D01*
X96804639Y-95842351D01*
X96803559Y-95849632D01*
X96801771Y-95856771D01*
X96799291Y-95863701D01*
X96796144Y-95870355D01*
X96792360Y-95876668D01*
X96787976Y-95882579D01*
X96783033Y-95888033D01*
X96777579Y-95892976D01*
X96771668Y-95897360D01*
X96765355Y-95901144D01*
X96758701Y-95904291D01*
X96751771Y-95906771D01*
X96744632Y-95908559D01*
X96737351Y-95909639D01*
X96730000Y-95910000D01*
X95405000Y-95910000D01*
X95397649Y-95909639D01*
X95390368Y-95908559D01*
X95383229Y-95906771D01*
X95376299Y-95904291D01*
X95369645Y-95901144D01*
X95363332Y-95897360D01*
X95357421Y-95892976D01*
X95351967Y-95888033D01*
X95347024Y-95882579D01*
X95342640Y-95876668D01*
X95338856Y-95870355D01*
X95335709Y-95863701D01*
X95333229Y-95856771D01*
X95331441Y-95849632D01*
X95330361Y-95842351D01*
X95330000Y-95835000D01*
X95330000Y-95685000D01*
X95330361Y-95677649D01*
X95331441Y-95670368D01*
X95333229Y-95663229D01*
X95335709Y-95656299D01*
X95338856Y-95649645D01*
X95342640Y-95643332D01*
X95347024Y-95637421D01*
X95351967Y-95631967D01*
X95357421Y-95627024D01*
X95363332Y-95622640D01*
X95369645Y-95618856D01*
X95376299Y-95615709D01*
X95383229Y-95613229D01*
X95390368Y-95611441D01*
X95397649Y-95610361D01*
X95405000Y-95610000D01*
X96730000Y-95610000D01*
X96737351Y-95610361D01*
G37*
G36*
X96737351Y-96110361D02*
G01*
X96744632Y-96111441D01*
X96751771Y-96113229D01*
X96758701Y-96115709D01*
X96765355Y-96118856D01*
X96771668Y-96122640D01*
X96777579Y-96127024D01*
X96783033Y-96131967D01*
X96787976Y-96137421D01*
X96792360Y-96143332D01*
X96796144Y-96149645D01*
X96799291Y-96156299D01*
X96801771Y-96163229D01*
X96803559Y-96170368D01*
X96804639Y-96177649D01*
X96805000Y-96185000D01*
X96805000Y-96335000D01*
X96804639Y-96342351D01*
X96803559Y-96349632D01*
X96801771Y-96356771D01*
X96799291Y-96363701D01*
X96796144Y-96370355D01*
X96792360Y-96376668D01*
X96787976Y-96382579D01*
X96783033Y-96388033D01*
X96777579Y-96392976D01*
X96771668Y-96397360D01*
X96765355Y-96401144D01*
X96758701Y-96404291D01*
X96751771Y-96406771D01*
X96744632Y-96408559D01*
X96737351Y-96409639D01*
X96730000Y-96410000D01*
X95405000Y-96410000D01*
X95397649Y-96409639D01*
X95390368Y-96408559D01*
X95383229Y-96406771D01*
X95376299Y-96404291D01*
X95369645Y-96401144D01*
X95363332Y-96397360D01*
X95357421Y-96392976D01*
X95351967Y-96388033D01*
X95347024Y-96382579D01*
X95342640Y-96376668D01*
X95338856Y-96370355D01*
X95335709Y-96363701D01*
X95333229Y-96356771D01*
X95331441Y-96349632D01*
X95330361Y-96342351D01*
X95330000Y-96335000D01*
X95330000Y-96185000D01*
X95330361Y-96177649D01*
X95331441Y-96170368D01*
X95333229Y-96163229D01*
X95335709Y-96156299D01*
X95338856Y-96149645D01*
X95342640Y-96143332D01*
X95347024Y-96137421D01*
X95351967Y-96131967D01*
X95357421Y-96127024D01*
X95363332Y-96122640D01*
X95369645Y-96118856D01*
X95376299Y-96115709D01*
X95383229Y-96113229D01*
X95390368Y-96111441D01*
X95397649Y-96110361D01*
X95405000Y-96110000D01*
X96730000Y-96110000D01*
X96737351Y-96110361D01*
G37*
G36*
X96737351Y-96610361D02*
G01*
X96744632Y-96611441D01*
X96751771Y-96613229D01*
X96758701Y-96615709D01*
X96765355Y-96618856D01*
X96771668Y-96622640D01*
X96777579Y-96627024D01*
X96783033Y-96631967D01*
X96787976Y-96637421D01*
X96792360Y-96643332D01*
X96796144Y-96649645D01*
X96799291Y-96656299D01*
X96801771Y-96663229D01*
X96803559Y-96670368D01*
X96804639Y-96677649D01*
X96805000Y-96685000D01*
X96805000Y-96835000D01*
X96804639Y-96842351D01*
X96803559Y-96849632D01*
X96801771Y-96856771D01*
X96799291Y-96863701D01*
X96796144Y-96870355D01*
X96792360Y-96876668D01*
X96787976Y-96882579D01*
X96783033Y-96888033D01*
X96777579Y-96892976D01*
X96771668Y-96897360D01*
X96765355Y-96901144D01*
X96758701Y-96904291D01*
X96751771Y-96906771D01*
X96744632Y-96908559D01*
X96737351Y-96909639D01*
X96730000Y-96910000D01*
X95405000Y-96910000D01*
X95397649Y-96909639D01*
X95390368Y-96908559D01*
X95383229Y-96906771D01*
X95376299Y-96904291D01*
X95369645Y-96901144D01*
X95363332Y-96897360D01*
X95357421Y-96892976D01*
X95351967Y-96888033D01*
X95347024Y-96882579D01*
X95342640Y-96876668D01*
X95338856Y-96870355D01*
X95335709Y-96863701D01*
X95333229Y-96856771D01*
X95331441Y-96849632D01*
X95330361Y-96842351D01*
X95330000Y-96835000D01*
X95330000Y-96685000D01*
X95330361Y-96677649D01*
X95331441Y-96670368D01*
X95333229Y-96663229D01*
X95335709Y-96656299D01*
X95338856Y-96649645D01*
X95342640Y-96643332D01*
X95347024Y-96637421D01*
X95351967Y-96631967D01*
X95357421Y-96627024D01*
X95363332Y-96622640D01*
X95369645Y-96618856D01*
X95376299Y-96615709D01*
X95383229Y-96613229D01*
X95390368Y-96611441D01*
X95397649Y-96610361D01*
X95405000Y-96610000D01*
X96730000Y-96610000D01*
X96737351Y-96610361D01*
G37*
G36*
X96737351Y-97110361D02*
G01*
X96744632Y-97111441D01*
X96751771Y-97113229D01*
X96758701Y-97115709D01*
X96765355Y-97118856D01*
X96771668Y-97122640D01*
X96777579Y-97127024D01*
X96783033Y-97131967D01*
X96787976Y-97137421D01*
X96792360Y-97143332D01*
X96796144Y-97149645D01*
X96799291Y-97156299D01*
X96801771Y-97163229D01*
X96803559Y-97170368D01*
X96804639Y-97177649D01*
X96805000Y-97185000D01*
X96805000Y-97335000D01*
X96804639Y-97342351D01*
X96803559Y-97349632D01*
X96801771Y-97356771D01*
X96799291Y-97363701D01*
X96796144Y-97370355D01*
X96792360Y-97376668D01*
X96787976Y-97382579D01*
X96783033Y-97388033D01*
X96777579Y-97392976D01*
X96771668Y-97397360D01*
X96765355Y-97401144D01*
X96758701Y-97404291D01*
X96751771Y-97406771D01*
X96744632Y-97408559D01*
X96737351Y-97409639D01*
X96730000Y-97410000D01*
X95405000Y-97410000D01*
X95397649Y-97409639D01*
X95390368Y-97408559D01*
X95383229Y-97406771D01*
X95376299Y-97404291D01*
X95369645Y-97401144D01*
X95363332Y-97397360D01*
X95357421Y-97392976D01*
X95351967Y-97388033D01*
X95347024Y-97382579D01*
X95342640Y-97376668D01*
X95338856Y-97370355D01*
X95335709Y-97363701D01*
X95333229Y-97356771D01*
X95331441Y-97349632D01*
X95330361Y-97342351D01*
X95330000Y-97335000D01*
X95330000Y-97185000D01*
X95330361Y-97177649D01*
X95331441Y-97170368D01*
X95333229Y-97163229D01*
X95335709Y-97156299D01*
X95338856Y-97149645D01*
X95342640Y-97143332D01*
X95347024Y-97137421D01*
X95351967Y-97131967D01*
X95357421Y-97127024D01*
X95363332Y-97122640D01*
X95369645Y-97118856D01*
X95376299Y-97115709D01*
X95383229Y-97113229D01*
X95390368Y-97111441D01*
X95397649Y-97110361D01*
X95405000Y-97110000D01*
X96730000Y-97110000D01*
X96737351Y-97110361D01*
G37*
G36*
X96737351Y-97610361D02*
G01*
X96744632Y-97611441D01*
X96751771Y-97613229D01*
X96758701Y-97615709D01*
X96765355Y-97618856D01*
X96771668Y-97622640D01*
X96777579Y-97627024D01*
X96783033Y-97631967D01*
X96787976Y-97637421D01*
X96792360Y-97643332D01*
X96796144Y-97649645D01*
X96799291Y-97656299D01*
X96801771Y-97663229D01*
X96803559Y-97670368D01*
X96804639Y-97677649D01*
X96805000Y-97685000D01*
X96805000Y-97835000D01*
X96804639Y-97842351D01*
X96803559Y-97849632D01*
X96801771Y-97856771D01*
X96799291Y-97863701D01*
X96796144Y-97870355D01*
X96792360Y-97876668D01*
X96787976Y-97882579D01*
X96783033Y-97888033D01*
X96777579Y-97892976D01*
X96771668Y-97897360D01*
X96765355Y-97901144D01*
X96758701Y-97904291D01*
X96751771Y-97906771D01*
X96744632Y-97908559D01*
X96737351Y-97909639D01*
X96730000Y-97910000D01*
X95405000Y-97910000D01*
X95397649Y-97909639D01*
X95390368Y-97908559D01*
X95383229Y-97906771D01*
X95376299Y-97904291D01*
X95369645Y-97901144D01*
X95363332Y-97897360D01*
X95357421Y-97892976D01*
X95351967Y-97888033D01*
X95347024Y-97882579D01*
X95342640Y-97876668D01*
X95338856Y-97870355D01*
X95335709Y-97863701D01*
X95333229Y-97856771D01*
X95331441Y-97849632D01*
X95330361Y-97842351D01*
X95330000Y-97835000D01*
X95330000Y-97685000D01*
X95330361Y-97677649D01*
X95331441Y-97670368D01*
X95333229Y-97663229D01*
X95335709Y-97656299D01*
X95338856Y-97649645D01*
X95342640Y-97643332D01*
X95347024Y-97637421D01*
X95351967Y-97631967D01*
X95357421Y-97627024D01*
X95363332Y-97622640D01*
X95369645Y-97618856D01*
X95376299Y-97615709D01*
X95383229Y-97613229D01*
X95390368Y-97611441D01*
X95397649Y-97610361D01*
X95405000Y-97610000D01*
X96730000Y-97610000D01*
X96737351Y-97610361D01*
G37*
G36*
X96737351Y-98110361D02*
G01*
X96744632Y-98111441D01*
X96751771Y-98113229D01*
X96758701Y-98115709D01*
X96765355Y-98118856D01*
X96771668Y-98122640D01*
X96777579Y-98127024D01*
X96783033Y-98131967D01*
X96787976Y-98137421D01*
X96792360Y-98143332D01*
X96796144Y-98149645D01*
X96799291Y-98156299D01*
X96801771Y-98163229D01*
X96803559Y-98170368D01*
X96804639Y-98177649D01*
X96805000Y-98185000D01*
X96805000Y-98335000D01*
X96804639Y-98342351D01*
X96803559Y-98349632D01*
X96801771Y-98356771D01*
X96799291Y-98363701D01*
X96796144Y-98370355D01*
X96792360Y-98376668D01*
X96787976Y-98382579D01*
X96783033Y-98388033D01*
X96777579Y-98392976D01*
X96771668Y-98397360D01*
X96765355Y-98401144D01*
X96758701Y-98404291D01*
X96751771Y-98406771D01*
X96744632Y-98408559D01*
X96737351Y-98409639D01*
X96730000Y-98410000D01*
X95405000Y-98410000D01*
X95397649Y-98409639D01*
X95390368Y-98408559D01*
X95383229Y-98406771D01*
X95376299Y-98404291D01*
X95369645Y-98401144D01*
X95363332Y-98397360D01*
X95357421Y-98392976D01*
X95351967Y-98388033D01*
X95347024Y-98382579D01*
X95342640Y-98376668D01*
X95338856Y-98370355D01*
X95335709Y-98363701D01*
X95333229Y-98356771D01*
X95331441Y-98349632D01*
X95330361Y-98342351D01*
X95330000Y-98335000D01*
X95330000Y-98185000D01*
X95330361Y-98177649D01*
X95331441Y-98170368D01*
X95333229Y-98163229D01*
X95335709Y-98156299D01*
X95338856Y-98149645D01*
X95342640Y-98143332D01*
X95347024Y-98137421D01*
X95351967Y-98131967D01*
X95357421Y-98127024D01*
X95363332Y-98122640D01*
X95369645Y-98118856D01*
X95376299Y-98115709D01*
X95383229Y-98113229D01*
X95390368Y-98111441D01*
X95397649Y-98110361D01*
X95405000Y-98110000D01*
X96730000Y-98110000D01*
X96737351Y-98110361D01*
G37*
G36*
X96737351Y-98610361D02*
G01*
X96744632Y-98611441D01*
X96751771Y-98613229D01*
X96758701Y-98615709D01*
X96765355Y-98618856D01*
X96771668Y-98622640D01*
X96777579Y-98627024D01*
X96783033Y-98631967D01*
X96787976Y-98637421D01*
X96792360Y-98643332D01*
X96796144Y-98649645D01*
X96799291Y-98656299D01*
X96801771Y-98663229D01*
X96803559Y-98670368D01*
X96804639Y-98677649D01*
X96805000Y-98685000D01*
X96805000Y-98835000D01*
X96804639Y-98842351D01*
X96803559Y-98849632D01*
X96801771Y-98856771D01*
X96799291Y-98863701D01*
X96796144Y-98870355D01*
X96792360Y-98876668D01*
X96787976Y-98882579D01*
X96783033Y-98888033D01*
X96777579Y-98892976D01*
X96771668Y-98897360D01*
X96765355Y-98901144D01*
X96758701Y-98904291D01*
X96751771Y-98906771D01*
X96744632Y-98908559D01*
X96737351Y-98909639D01*
X96730000Y-98910000D01*
X95405000Y-98910000D01*
X95397649Y-98909639D01*
X95390368Y-98908559D01*
X95383229Y-98906771D01*
X95376299Y-98904291D01*
X95369645Y-98901144D01*
X95363332Y-98897360D01*
X95357421Y-98892976D01*
X95351967Y-98888033D01*
X95347024Y-98882579D01*
X95342640Y-98876668D01*
X95338856Y-98870355D01*
X95335709Y-98863701D01*
X95333229Y-98856771D01*
X95331441Y-98849632D01*
X95330361Y-98842351D01*
X95330000Y-98835000D01*
X95330000Y-98685000D01*
X95330361Y-98677649D01*
X95331441Y-98670368D01*
X95333229Y-98663229D01*
X95335709Y-98656299D01*
X95338856Y-98649645D01*
X95342640Y-98643332D01*
X95347024Y-98637421D01*
X95351967Y-98631967D01*
X95357421Y-98627024D01*
X95363332Y-98622640D01*
X95369645Y-98618856D01*
X95376299Y-98615709D01*
X95383229Y-98613229D01*
X95390368Y-98611441D01*
X95397649Y-98610361D01*
X95405000Y-98610000D01*
X96730000Y-98610000D01*
X96737351Y-98610361D01*
G37*
G36*
X96737351Y-99110361D02*
G01*
X96744632Y-99111441D01*
X96751771Y-99113229D01*
X96758701Y-99115709D01*
X96765355Y-99118856D01*
X96771668Y-99122640D01*
X96777579Y-99127024D01*
X96783033Y-99131967D01*
X96787976Y-99137421D01*
X96792360Y-99143332D01*
X96796144Y-99149645D01*
X96799291Y-99156299D01*
X96801771Y-99163229D01*
X96803559Y-99170368D01*
X96804639Y-99177649D01*
X96805000Y-99185000D01*
X96805000Y-99335000D01*
X96804639Y-99342351D01*
X96803559Y-99349632D01*
X96801771Y-99356771D01*
X96799291Y-99363701D01*
X96796144Y-99370355D01*
X96792360Y-99376668D01*
X96787976Y-99382579D01*
X96783033Y-99388033D01*
X96777579Y-99392976D01*
X96771668Y-99397360D01*
X96765355Y-99401144D01*
X96758701Y-99404291D01*
X96751771Y-99406771D01*
X96744632Y-99408559D01*
X96737351Y-99409639D01*
X96730000Y-99410000D01*
X95405000Y-99410000D01*
X95397649Y-99409639D01*
X95390368Y-99408559D01*
X95383229Y-99406771D01*
X95376299Y-99404291D01*
X95369645Y-99401144D01*
X95363332Y-99397360D01*
X95357421Y-99392976D01*
X95351967Y-99388033D01*
X95347024Y-99382579D01*
X95342640Y-99376668D01*
X95338856Y-99370355D01*
X95335709Y-99363701D01*
X95333229Y-99356771D01*
X95331441Y-99349632D01*
X95330361Y-99342351D01*
X95330000Y-99335000D01*
X95330000Y-99185000D01*
X95330361Y-99177649D01*
X95331441Y-99170368D01*
X95333229Y-99163229D01*
X95335709Y-99156299D01*
X95338856Y-99149645D01*
X95342640Y-99143332D01*
X95347024Y-99137421D01*
X95351967Y-99131967D01*
X95357421Y-99127024D01*
X95363332Y-99122640D01*
X95369645Y-99118856D01*
X95376299Y-99115709D01*
X95383229Y-99113229D01*
X95390368Y-99111441D01*
X95397649Y-99110361D01*
X95405000Y-99110000D01*
X96730000Y-99110000D01*
X96737351Y-99110361D01*
G37*
G36*
X97562351Y-99935361D02*
G01*
X97569632Y-99936441D01*
X97576771Y-99938229D01*
X97583701Y-99940709D01*
X97590355Y-99943856D01*
X97596668Y-99947640D01*
X97602579Y-99952024D01*
X97608033Y-99956967D01*
X97612976Y-99962421D01*
X97617360Y-99968332D01*
X97621144Y-99974645D01*
X97624291Y-99981299D01*
X97626771Y-99988229D01*
X97628559Y-99995368D01*
X97629639Y-100002649D01*
X97630000Y-100010000D01*
X97630000Y-101335000D01*
X97629639Y-101342351D01*
X97628559Y-101349632D01*
X97626771Y-101356771D01*
X97624291Y-101363701D01*
X97621144Y-101370355D01*
X97617360Y-101376668D01*
X97612976Y-101382579D01*
X97608033Y-101388033D01*
X97602579Y-101392976D01*
X97596668Y-101397360D01*
X97590355Y-101401144D01*
X97583701Y-101404291D01*
X97576771Y-101406771D01*
X97569632Y-101408559D01*
X97562351Y-101409639D01*
X97555000Y-101410000D01*
X97405000Y-101410000D01*
X97397649Y-101409639D01*
X97390368Y-101408559D01*
X97383229Y-101406771D01*
X97376299Y-101404291D01*
X97369645Y-101401144D01*
X97363332Y-101397360D01*
X97357421Y-101392976D01*
X97351967Y-101388033D01*
X97347024Y-101382579D01*
X97342640Y-101376668D01*
X97338856Y-101370355D01*
X97335709Y-101363701D01*
X97333229Y-101356771D01*
X97331441Y-101349632D01*
X97330361Y-101342351D01*
X97330000Y-101335000D01*
X97330000Y-100010000D01*
X97330361Y-100002649D01*
X97331441Y-99995368D01*
X97333229Y-99988229D01*
X97335709Y-99981299D01*
X97338856Y-99974645D01*
X97342640Y-99968332D01*
X97347024Y-99962421D01*
X97351967Y-99956967D01*
X97357421Y-99952024D01*
X97363332Y-99947640D01*
X97369645Y-99943856D01*
X97376299Y-99940709D01*
X97383229Y-99938229D01*
X97390368Y-99936441D01*
X97397649Y-99935361D01*
X97405000Y-99935000D01*
X97555000Y-99935000D01*
X97562351Y-99935361D01*
G37*
G36*
X98062351Y-99935361D02*
G01*
X98069632Y-99936441D01*
X98076771Y-99938229D01*
X98083701Y-99940709D01*
X98090355Y-99943856D01*
X98096668Y-99947640D01*
X98102579Y-99952024D01*
X98108033Y-99956967D01*
X98112976Y-99962421D01*
X98117360Y-99968332D01*
X98121144Y-99974645D01*
X98124291Y-99981299D01*
X98126771Y-99988229D01*
X98128559Y-99995368D01*
X98129639Y-100002649D01*
X98130000Y-100010000D01*
X98130000Y-101335000D01*
X98129639Y-101342351D01*
X98128559Y-101349632D01*
X98126771Y-101356771D01*
X98124291Y-101363701D01*
X98121144Y-101370355D01*
X98117360Y-101376668D01*
X98112976Y-101382579D01*
X98108033Y-101388033D01*
X98102579Y-101392976D01*
X98096668Y-101397360D01*
X98090355Y-101401144D01*
X98083701Y-101404291D01*
X98076771Y-101406771D01*
X98069632Y-101408559D01*
X98062351Y-101409639D01*
X98055000Y-101410000D01*
X97905000Y-101410000D01*
X97897649Y-101409639D01*
X97890368Y-101408559D01*
X97883229Y-101406771D01*
X97876299Y-101404291D01*
X97869645Y-101401144D01*
X97863332Y-101397360D01*
X97857421Y-101392976D01*
X97851967Y-101388033D01*
X97847024Y-101382579D01*
X97842640Y-101376668D01*
X97838856Y-101370355D01*
X97835709Y-101363701D01*
X97833229Y-101356771D01*
X97831441Y-101349632D01*
X97830361Y-101342351D01*
X97830000Y-101335000D01*
X97830000Y-100010000D01*
X97830361Y-100002649D01*
X97831441Y-99995368D01*
X97833229Y-99988229D01*
X97835709Y-99981299D01*
X97838856Y-99974645D01*
X97842640Y-99968332D01*
X97847024Y-99962421D01*
X97851967Y-99956967D01*
X97857421Y-99952024D01*
X97863332Y-99947640D01*
X97869645Y-99943856D01*
X97876299Y-99940709D01*
X97883229Y-99938229D01*
X97890368Y-99936441D01*
X97897649Y-99935361D01*
X97905000Y-99935000D01*
X98055000Y-99935000D01*
X98062351Y-99935361D01*
G37*
G36*
X98562351Y-99935361D02*
G01*
X98569632Y-99936441D01*
X98576771Y-99938229D01*
X98583701Y-99940709D01*
X98590355Y-99943856D01*
X98596668Y-99947640D01*
X98602579Y-99952024D01*
X98608033Y-99956967D01*
X98612976Y-99962421D01*
X98617360Y-99968332D01*
X98621144Y-99974645D01*
X98624291Y-99981299D01*
X98626771Y-99988229D01*
X98628559Y-99995368D01*
X98629639Y-100002649D01*
X98630000Y-100010000D01*
X98630000Y-101335000D01*
X98629639Y-101342351D01*
X98628559Y-101349632D01*
X98626771Y-101356771D01*
X98624291Y-101363701D01*
X98621144Y-101370355D01*
X98617360Y-101376668D01*
X98612976Y-101382579D01*
X98608033Y-101388033D01*
X98602579Y-101392976D01*
X98596668Y-101397360D01*
X98590355Y-101401144D01*
X98583701Y-101404291D01*
X98576771Y-101406771D01*
X98569632Y-101408559D01*
X98562351Y-101409639D01*
X98555000Y-101410000D01*
X98405000Y-101410000D01*
X98397649Y-101409639D01*
X98390368Y-101408559D01*
X98383229Y-101406771D01*
X98376299Y-101404291D01*
X98369645Y-101401144D01*
X98363332Y-101397360D01*
X98357421Y-101392976D01*
X98351967Y-101388033D01*
X98347024Y-101382579D01*
X98342640Y-101376668D01*
X98338856Y-101370355D01*
X98335709Y-101363701D01*
X98333229Y-101356771D01*
X98331441Y-101349632D01*
X98330361Y-101342351D01*
X98330000Y-101335000D01*
X98330000Y-100010000D01*
X98330361Y-100002649D01*
X98331441Y-99995368D01*
X98333229Y-99988229D01*
X98335709Y-99981299D01*
X98338856Y-99974645D01*
X98342640Y-99968332D01*
X98347024Y-99962421D01*
X98351967Y-99956967D01*
X98357421Y-99952024D01*
X98363332Y-99947640D01*
X98369645Y-99943856D01*
X98376299Y-99940709D01*
X98383229Y-99938229D01*
X98390368Y-99936441D01*
X98397649Y-99935361D01*
X98405000Y-99935000D01*
X98555000Y-99935000D01*
X98562351Y-99935361D01*
G37*
G36*
X99062351Y-99935361D02*
G01*
X99069632Y-99936441D01*
X99076771Y-99938229D01*
X99083701Y-99940709D01*
X99090355Y-99943856D01*
X99096668Y-99947640D01*
X99102579Y-99952024D01*
X99108033Y-99956967D01*
X99112976Y-99962421D01*
X99117360Y-99968332D01*
X99121144Y-99974645D01*
X99124291Y-99981299D01*
X99126771Y-99988229D01*
X99128559Y-99995368D01*
X99129639Y-100002649D01*
X99130000Y-100010000D01*
X99130000Y-101335000D01*
X99129639Y-101342351D01*
X99128559Y-101349632D01*
X99126771Y-101356771D01*
X99124291Y-101363701D01*
X99121144Y-101370355D01*
X99117360Y-101376668D01*
X99112976Y-101382579D01*
X99108033Y-101388033D01*
X99102579Y-101392976D01*
X99096668Y-101397360D01*
X99090355Y-101401144D01*
X99083701Y-101404291D01*
X99076771Y-101406771D01*
X99069632Y-101408559D01*
X99062351Y-101409639D01*
X99055000Y-101410000D01*
X98905000Y-101410000D01*
X98897649Y-101409639D01*
X98890368Y-101408559D01*
X98883229Y-101406771D01*
X98876299Y-101404291D01*
X98869645Y-101401144D01*
X98863332Y-101397360D01*
X98857421Y-101392976D01*
X98851967Y-101388033D01*
X98847024Y-101382579D01*
X98842640Y-101376668D01*
X98838856Y-101370355D01*
X98835709Y-101363701D01*
X98833229Y-101356771D01*
X98831441Y-101349632D01*
X98830361Y-101342351D01*
X98830000Y-101335000D01*
X98830000Y-100010000D01*
X98830361Y-100002649D01*
X98831441Y-99995368D01*
X98833229Y-99988229D01*
X98835709Y-99981299D01*
X98838856Y-99974645D01*
X98842640Y-99968332D01*
X98847024Y-99962421D01*
X98851967Y-99956967D01*
X98857421Y-99952024D01*
X98863332Y-99947640D01*
X98869645Y-99943856D01*
X98876299Y-99940709D01*
X98883229Y-99938229D01*
X98890368Y-99936441D01*
X98897649Y-99935361D01*
X98905000Y-99935000D01*
X99055000Y-99935000D01*
X99062351Y-99935361D01*
G37*
G36*
X99562351Y-99935361D02*
G01*
X99569632Y-99936441D01*
X99576771Y-99938229D01*
X99583701Y-99940709D01*
X99590355Y-99943856D01*
X99596668Y-99947640D01*
X99602579Y-99952024D01*
X99608033Y-99956967D01*
X99612976Y-99962421D01*
X99617360Y-99968332D01*
X99621144Y-99974645D01*
X99624291Y-99981299D01*
X99626771Y-99988229D01*
X99628559Y-99995368D01*
X99629639Y-100002649D01*
X99630000Y-100010000D01*
X99630000Y-101335000D01*
X99629639Y-101342351D01*
X99628559Y-101349632D01*
X99626771Y-101356771D01*
X99624291Y-101363701D01*
X99621144Y-101370355D01*
X99617360Y-101376668D01*
X99612976Y-101382579D01*
X99608033Y-101388033D01*
X99602579Y-101392976D01*
X99596668Y-101397360D01*
X99590355Y-101401144D01*
X99583701Y-101404291D01*
X99576771Y-101406771D01*
X99569632Y-101408559D01*
X99562351Y-101409639D01*
X99555000Y-101410000D01*
X99405000Y-101410000D01*
X99397649Y-101409639D01*
X99390368Y-101408559D01*
X99383229Y-101406771D01*
X99376299Y-101404291D01*
X99369645Y-101401144D01*
X99363332Y-101397360D01*
X99357421Y-101392976D01*
X99351967Y-101388033D01*
X99347024Y-101382579D01*
X99342640Y-101376668D01*
X99338856Y-101370355D01*
X99335709Y-101363701D01*
X99333229Y-101356771D01*
X99331441Y-101349632D01*
X99330361Y-101342351D01*
X99330000Y-101335000D01*
X99330000Y-100010000D01*
X99330361Y-100002649D01*
X99331441Y-99995368D01*
X99333229Y-99988229D01*
X99335709Y-99981299D01*
X99338856Y-99974645D01*
X99342640Y-99968332D01*
X99347024Y-99962421D01*
X99351967Y-99956967D01*
X99357421Y-99952024D01*
X99363332Y-99947640D01*
X99369645Y-99943856D01*
X99376299Y-99940709D01*
X99383229Y-99938229D01*
X99390368Y-99936441D01*
X99397649Y-99935361D01*
X99405000Y-99935000D01*
X99555000Y-99935000D01*
X99562351Y-99935361D01*
G37*
G36*
X100062351Y-99935361D02*
G01*
X100069632Y-99936441D01*
X100076771Y-99938229D01*
X100083701Y-99940709D01*
X100090355Y-99943856D01*
X100096668Y-99947640D01*
X100102579Y-99952024D01*
X100108033Y-99956967D01*
X100112976Y-99962421D01*
X100117360Y-99968332D01*
X100121144Y-99974645D01*
X100124291Y-99981299D01*
X100126771Y-99988229D01*
X100128559Y-99995368D01*
X100129639Y-100002649D01*
X100130000Y-100010000D01*
X100130000Y-101335000D01*
X100129639Y-101342351D01*
X100128559Y-101349632D01*
X100126771Y-101356771D01*
X100124291Y-101363701D01*
X100121144Y-101370355D01*
X100117360Y-101376668D01*
X100112976Y-101382579D01*
X100108033Y-101388033D01*
X100102579Y-101392976D01*
X100096668Y-101397360D01*
X100090355Y-101401144D01*
X100083701Y-101404291D01*
X100076771Y-101406771D01*
X100069632Y-101408559D01*
X100062351Y-101409639D01*
X100055000Y-101410000D01*
X99905000Y-101410000D01*
X99897649Y-101409639D01*
X99890368Y-101408559D01*
X99883229Y-101406771D01*
X99876299Y-101404291D01*
X99869645Y-101401144D01*
X99863332Y-101397360D01*
X99857421Y-101392976D01*
X99851967Y-101388033D01*
X99847024Y-101382579D01*
X99842640Y-101376668D01*
X99838856Y-101370355D01*
X99835709Y-101363701D01*
X99833229Y-101356771D01*
X99831441Y-101349632D01*
X99830361Y-101342351D01*
X99830000Y-101335000D01*
X99830000Y-100010000D01*
X99830361Y-100002649D01*
X99831441Y-99995368D01*
X99833229Y-99988229D01*
X99835709Y-99981299D01*
X99838856Y-99974645D01*
X99842640Y-99968332D01*
X99847024Y-99962421D01*
X99851967Y-99956967D01*
X99857421Y-99952024D01*
X99863332Y-99947640D01*
X99869645Y-99943856D01*
X99876299Y-99940709D01*
X99883229Y-99938229D01*
X99890368Y-99936441D01*
X99897649Y-99935361D01*
X99905000Y-99935000D01*
X100055000Y-99935000D01*
X100062351Y-99935361D01*
G37*
G36*
X100562351Y-99935361D02*
G01*
X100569632Y-99936441D01*
X100576771Y-99938229D01*
X100583701Y-99940709D01*
X100590355Y-99943856D01*
X100596668Y-99947640D01*
X100602579Y-99952024D01*
X100608033Y-99956967D01*
X100612976Y-99962421D01*
X100617360Y-99968332D01*
X100621144Y-99974645D01*
X100624291Y-99981299D01*
X100626771Y-99988229D01*
X100628559Y-99995368D01*
X100629639Y-100002649D01*
X100630000Y-100010000D01*
X100630000Y-101335000D01*
X100629639Y-101342351D01*
X100628559Y-101349632D01*
X100626771Y-101356771D01*
X100624291Y-101363701D01*
X100621144Y-101370355D01*
X100617360Y-101376668D01*
X100612976Y-101382579D01*
X100608033Y-101388033D01*
X100602579Y-101392976D01*
X100596668Y-101397360D01*
X100590355Y-101401144D01*
X100583701Y-101404291D01*
X100576771Y-101406771D01*
X100569632Y-101408559D01*
X100562351Y-101409639D01*
X100555000Y-101410000D01*
X100405000Y-101410000D01*
X100397649Y-101409639D01*
X100390368Y-101408559D01*
X100383229Y-101406771D01*
X100376299Y-101404291D01*
X100369645Y-101401144D01*
X100363332Y-101397360D01*
X100357421Y-101392976D01*
X100351967Y-101388033D01*
X100347024Y-101382579D01*
X100342640Y-101376668D01*
X100338856Y-101370355D01*
X100335709Y-101363701D01*
X100333229Y-101356771D01*
X100331441Y-101349632D01*
X100330361Y-101342351D01*
X100330000Y-101335000D01*
X100330000Y-100010000D01*
X100330361Y-100002649D01*
X100331441Y-99995368D01*
X100333229Y-99988229D01*
X100335709Y-99981299D01*
X100338856Y-99974645D01*
X100342640Y-99968332D01*
X100347024Y-99962421D01*
X100351967Y-99956967D01*
X100357421Y-99952024D01*
X100363332Y-99947640D01*
X100369645Y-99943856D01*
X100376299Y-99940709D01*
X100383229Y-99938229D01*
X100390368Y-99936441D01*
X100397649Y-99935361D01*
X100405000Y-99935000D01*
X100555000Y-99935000D01*
X100562351Y-99935361D01*
G37*
G36*
X101062351Y-99935361D02*
G01*
X101069632Y-99936441D01*
X101076771Y-99938229D01*
X101083701Y-99940709D01*
X101090355Y-99943856D01*
X101096668Y-99947640D01*
X101102579Y-99952024D01*
X101108033Y-99956967D01*
X101112976Y-99962421D01*
X101117360Y-99968332D01*
X101121144Y-99974645D01*
X101124291Y-99981299D01*
X101126771Y-99988229D01*
X101128559Y-99995368D01*
X101129639Y-100002649D01*
X101130000Y-100010000D01*
X101130000Y-101335000D01*
X101129639Y-101342351D01*
X101128559Y-101349632D01*
X101126771Y-101356771D01*
X101124291Y-101363701D01*
X101121144Y-101370355D01*
X101117360Y-101376668D01*
X101112976Y-101382579D01*
X101108033Y-101388033D01*
X101102579Y-101392976D01*
X101096668Y-101397360D01*
X101090355Y-101401144D01*
X101083701Y-101404291D01*
X101076771Y-101406771D01*
X101069632Y-101408559D01*
X101062351Y-101409639D01*
X101055000Y-101410000D01*
X100905000Y-101410000D01*
X100897649Y-101409639D01*
X100890368Y-101408559D01*
X100883229Y-101406771D01*
X100876299Y-101404291D01*
X100869645Y-101401144D01*
X100863332Y-101397360D01*
X100857421Y-101392976D01*
X100851967Y-101388033D01*
X100847024Y-101382579D01*
X100842640Y-101376668D01*
X100838856Y-101370355D01*
X100835709Y-101363701D01*
X100833229Y-101356771D01*
X100831441Y-101349632D01*
X100830361Y-101342351D01*
X100830000Y-101335000D01*
X100830000Y-100010000D01*
X100830361Y-100002649D01*
X100831441Y-99995368D01*
X100833229Y-99988229D01*
X100835709Y-99981299D01*
X100838856Y-99974645D01*
X100842640Y-99968332D01*
X100847024Y-99962421D01*
X100851967Y-99956967D01*
X100857421Y-99952024D01*
X100863332Y-99947640D01*
X100869645Y-99943856D01*
X100876299Y-99940709D01*
X100883229Y-99938229D01*
X100890368Y-99936441D01*
X100897649Y-99935361D01*
X100905000Y-99935000D01*
X101055000Y-99935000D01*
X101062351Y-99935361D01*
G37*
G36*
X101562351Y-99935361D02*
G01*
X101569632Y-99936441D01*
X101576771Y-99938229D01*
X101583701Y-99940709D01*
X101590355Y-99943856D01*
X101596668Y-99947640D01*
X101602579Y-99952024D01*
X101608033Y-99956967D01*
X101612976Y-99962421D01*
X101617360Y-99968332D01*
X101621144Y-99974645D01*
X101624291Y-99981299D01*
X101626771Y-99988229D01*
X101628559Y-99995368D01*
X101629639Y-100002649D01*
X101630000Y-100010000D01*
X101630000Y-101335000D01*
X101629639Y-101342351D01*
X101628559Y-101349632D01*
X101626771Y-101356771D01*
X101624291Y-101363701D01*
X101621144Y-101370355D01*
X101617360Y-101376668D01*
X101612976Y-101382579D01*
X101608033Y-101388033D01*
X101602579Y-101392976D01*
X101596668Y-101397360D01*
X101590355Y-101401144D01*
X101583701Y-101404291D01*
X101576771Y-101406771D01*
X101569632Y-101408559D01*
X101562351Y-101409639D01*
X101555000Y-101410000D01*
X101405000Y-101410000D01*
X101397649Y-101409639D01*
X101390368Y-101408559D01*
X101383229Y-101406771D01*
X101376299Y-101404291D01*
X101369645Y-101401144D01*
X101363332Y-101397360D01*
X101357421Y-101392976D01*
X101351967Y-101388033D01*
X101347024Y-101382579D01*
X101342640Y-101376668D01*
X101338856Y-101370355D01*
X101335709Y-101363701D01*
X101333229Y-101356771D01*
X101331441Y-101349632D01*
X101330361Y-101342351D01*
X101330000Y-101335000D01*
X101330000Y-100010000D01*
X101330361Y-100002649D01*
X101331441Y-99995368D01*
X101333229Y-99988229D01*
X101335709Y-99981299D01*
X101338856Y-99974645D01*
X101342640Y-99968332D01*
X101347024Y-99962421D01*
X101351967Y-99956967D01*
X101357421Y-99952024D01*
X101363332Y-99947640D01*
X101369645Y-99943856D01*
X101376299Y-99940709D01*
X101383229Y-99938229D01*
X101390368Y-99936441D01*
X101397649Y-99935361D01*
X101405000Y-99935000D01*
X101555000Y-99935000D01*
X101562351Y-99935361D01*
G37*
G36*
X102062351Y-99935361D02*
G01*
X102069632Y-99936441D01*
X102076771Y-99938229D01*
X102083701Y-99940709D01*
X102090355Y-99943856D01*
X102096668Y-99947640D01*
X102102579Y-99952024D01*
X102108033Y-99956967D01*
X102112976Y-99962421D01*
X102117360Y-99968332D01*
X102121144Y-99974645D01*
X102124291Y-99981299D01*
X102126771Y-99988229D01*
X102128559Y-99995368D01*
X102129639Y-100002649D01*
X102130000Y-100010000D01*
X102130000Y-101335000D01*
X102129639Y-101342351D01*
X102128559Y-101349632D01*
X102126771Y-101356771D01*
X102124291Y-101363701D01*
X102121144Y-101370355D01*
X102117360Y-101376668D01*
X102112976Y-101382579D01*
X102108033Y-101388033D01*
X102102579Y-101392976D01*
X102096668Y-101397360D01*
X102090355Y-101401144D01*
X102083701Y-101404291D01*
X102076771Y-101406771D01*
X102069632Y-101408559D01*
X102062351Y-101409639D01*
X102055000Y-101410000D01*
X101905000Y-101410000D01*
X101897649Y-101409639D01*
X101890368Y-101408559D01*
X101883229Y-101406771D01*
X101876299Y-101404291D01*
X101869645Y-101401144D01*
X101863332Y-101397360D01*
X101857421Y-101392976D01*
X101851967Y-101388033D01*
X101847024Y-101382579D01*
X101842640Y-101376668D01*
X101838856Y-101370355D01*
X101835709Y-101363701D01*
X101833229Y-101356771D01*
X101831441Y-101349632D01*
X101830361Y-101342351D01*
X101830000Y-101335000D01*
X101830000Y-100010000D01*
X101830361Y-100002649D01*
X101831441Y-99995368D01*
X101833229Y-99988229D01*
X101835709Y-99981299D01*
X101838856Y-99974645D01*
X101842640Y-99968332D01*
X101847024Y-99962421D01*
X101851967Y-99956967D01*
X101857421Y-99952024D01*
X101863332Y-99947640D01*
X101869645Y-99943856D01*
X101876299Y-99940709D01*
X101883229Y-99938229D01*
X101890368Y-99936441D01*
X101897649Y-99935361D01*
X101905000Y-99935000D01*
X102055000Y-99935000D01*
X102062351Y-99935361D01*
G37*
G36*
X102562351Y-99935361D02*
G01*
X102569632Y-99936441D01*
X102576771Y-99938229D01*
X102583701Y-99940709D01*
X102590355Y-99943856D01*
X102596668Y-99947640D01*
X102602579Y-99952024D01*
X102608033Y-99956967D01*
X102612976Y-99962421D01*
X102617360Y-99968332D01*
X102621144Y-99974645D01*
X102624291Y-99981299D01*
X102626771Y-99988229D01*
X102628559Y-99995368D01*
X102629639Y-100002649D01*
X102630000Y-100010000D01*
X102630000Y-101335000D01*
X102629639Y-101342351D01*
X102628559Y-101349632D01*
X102626771Y-101356771D01*
X102624291Y-101363701D01*
X102621144Y-101370355D01*
X102617360Y-101376668D01*
X102612976Y-101382579D01*
X102608033Y-101388033D01*
X102602579Y-101392976D01*
X102596668Y-101397360D01*
X102590355Y-101401144D01*
X102583701Y-101404291D01*
X102576771Y-101406771D01*
X102569632Y-101408559D01*
X102562351Y-101409639D01*
X102555000Y-101410000D01*
X102405000Y-101410000D01*
X102397649Y-101409639D01*
X102390368Y-101408559D01*
X102383229Y-101406771D01*
X102376299Y-101404291D01*
X102369645Y-101401144D01*
X102363332Y-101397360D01*
X102357421Y-101392976D01*
X102351967Y-101388033D01*
X102347024Y-101382579D01*
X102342640Y-101376668D01*
X102338856Y-101370355D01*
X102335709Y-101363701D01*
X102333229Y-101356771D01*
X102331441Y-101349632D01*
X102330361Y-101342351D01*
X102330000Y-101335000D01*
X102330000Y-100010000D01*
X102330361Y-100002649D01*
X102331441Y-99995368D01*
X102333229Y-99988229D01*
X102335709Y-99981299D01*
X102338856Y-99974645D01*
X102342640Y-99968332D01*
X102347024Y-99962421D01*
X102351967Y-99956967D01*
X102357421Y-99952024D01*
X102363332Y-99947640D01*
X102369645Y-99943856D01*
X102376299Y-99940709D01*
X102383229Y-99938229D01*
X102390368Y-99936441D01*
X102397649Y-99935361D01*
X102405000Y-99935000D01*
X102555000Y-99935000D01*
X102562351Y-99935361D01*
G37*
G36*
X103062351Y-99935361D02*
G01*
X103069632Y-99936441D01*
X103076771Y-99938229D01*
X103083701Y-99940709D01*
X103090355Y-99943856D01*
X103096668Y-99947640D01*
X103102579Y-99952024D01*
X103108033Y-99956967D01*
X103112976Y-99962421D01*
X103117360Y-99968332D01*
X103121144Y-99974645D01*
X103124291Y-99981299D01*
X103126771Y-99988229D01*
X103128559Y-99995368D01*
X103129639Y-100002649D01*
X103130000Y-100010000D01*
X103130000Y-101335000D01*
X103129639Y-101342351D01*
X103128559Y-101349632D01*
X103126771Y-101356771D01*
X103124291Y-101363701D01*
X103121144Y-101370355D01*
X103117360Y-101376668D01*
X103112976Y-101382579D01*
X103108033Y-101388033D01*
X103102579Y-101392976D01*
X103096668Y-101397360D01*
X103090355Y-101401144D01*
X103083701Y-101404291D01*
X103076771Y-101406771D01*
X103069632Y-101408559D01*
X103062351Y-101409639D01*
X103055000Y-101410000D01*
X102905000Y-101410000D01*
X102897649Y-101409639D01*
X102890368Y-101408559D01*
X102883229Y-101406771D01*
X102876299Y-101404291D01*
X102869645Y-101401144D01*
X102863332Y-101397360D01*
X102857421Y-101392976D01*
X102851967Y-101388033D01*
X102847024Y-101382579D01*
X102842640Y-101376668D01*
X102838856Y-101370355D01*
X102835709Y-101363701D01*
X102833229Y-101356771D01*
X102831441Y-101349632D01*
X102830361Y-101342351D01*
X102830000Y-101335000D01*
X102830000Y-100010000D01*
X102830361Y-100002649D01*
X102831441Y-99995368D01*
X102833229Y-99988229D01*
X102835709Y-99981299D01*
X102838856Y-99974645D01*
X102842640Y-99968332D01*
X102847024Y-99962421D01*
X102851967Y-99956967D01*
X102857421Y-99952024D01*
X102863332Y-99947640D01*
X102869645Y-99943856D01*
X102876299Y-99940709D01*
X102883229Y-99938229D01*
X102890368Y-99936441D01*
X102897649Y-99935361D01*
X102905000Y-99935000D01*
X103055000Y-99935000D01*
X103062351Y-99935361D01*
G37*
G36*
X105062351Y-99110361D02*
G01*
X105069632Y-99111441D01*
X105076771Y-99113229D01*
X105083701Y-99115709D01*
X105090355Y-99118856D01*
X105096668Y-99122640D01*
X105102579Y-99127024D01*
X105108033Y-99131967D01*
X105112976Y-99137421D01*
X105117360Y-99143332D01*
X105121144Y-99149645D01*
X105124291Y-99156299D01*
X105126771Y-99163229D01*
X105128559Y-99170368D01*
X105129639Y-99177649D01*
X105130000Y-99185000D01*
X105130000Y-99335000D01*
X105129639Y-99342351D01*
X105128559Y-99349632D01*
X105126771Y-99356771D01*
X105124291Y-99363701D01*
X105121144Y-99370355D01*
X105117360Y-99376668D01*
X105112976Y-99382579D01*
X105108033Y-99388033D01*
X105102579Y-99392976D01*
X105096668Y-99397360D01*
X105090355Y-99401144D01*
X105083701Y-99404291D01*
X105076771Y-99406771D01*
X105069632Y-99408559D01*
X105062351Y-99409639D01*
X105055000Y-99410000D01*
X103730000Y-99410000D01*
X103722649Y-99409639D01*
X103715368Y-99408559D01*
X103708229Y-99406771D01*
X103701299Y-99404291D01*
X103694645Y-99401144D01*
X103688332Y-99397360D01*
X103682421Y-99392976D01*
X103676967Y-99388033D01*
X103672024Y-99382579D01*
X103667640Y-99376668D01*
X103663856Y-99370355D01*
X103660709Y-99363701D01*
X103658229Y-99356771D01*
X103656441Y-99349632D01*
X103655361Y-99342351D01*
X103655000Y-99335000D01*
X103655000Y-99185000D01*
X103655361Y-99177649D01*
X103656441Y-99170368D01*
X103658229Y-99163229D01*
X103660709Y-99156299D01*
X103663856Y-99149645D01*
X103667640Y-99143332D01*
X103672024Y-99137421D01*
X103676967Y-99131967D01*
X103682421Y-99127024D01*
X103688332Y-99122640D01*
X103694645Y-99118856D01*
X103701299Y-99115709D01*
X103708229Y-99113229D01*
X103715368Y-99111441D01*
X103722649Y-99110361D01*
X103730000Y-99110000D01*
X105055000Y-99110000D01*
X105062351Y-99110361D01*
G37*
G36*
X105062351Y-98610361D02*
G01*
X105069632Y-98611441D01*
X105076771Y-98613229D01*
X105083701Y-98615709D01*
X105090355Y-98618856D01*
X105096668Y-98622640D01*
X105102579Y-98627024D01*
X105108033Y-98631967D01*
X105112976Y-98637421D01*
X105117360Y-98643332D01*
X105121144Y-98649645D01*
X105124291Y-98656299D01*
X105126771Y-98663229D01*
X105128559Y-98670368D01*
X105129639Y-98677649D01*
X105130000Y-98685000D01*
X105130000Y-98835000D01*
X105129639Y-98842351D01*
X105128559Y-98849632D01*
X105126771Y-98856771D01*
X105124291Y-98863701D01*
X105121144Y-98870355D01*
X105117360Y-98876668D01*
X105112976Y-98882579D01*
X105108033Y-98888033D01*
X105102579Y-98892976D01*
X105096668Y-98897360D01*
X105090355Y-98901144D01*
X105083701Y-98904291D01*
X105076771Y-98906771D01*
X105069632Y-98908559D01*
X105062351Y-98909639D01*
X105055000Y-98910000D01*
X103730000Y-98910000D01*
X103722649Y-98909639D01*
X103715368Y-98908559D01*
X103708229Y-98906771D01*
X103701299Y-98904291D01*
X103694645Y-98901144D01*
X103688332Y-98897360D01*
X103682421Y-98892976D01*
X103676967Y-98888033D01*
X103672024Y-98882579D01*
X103667640Y-98876668D01*
X103663856Y-98870355D01*
X103660709Y-98863701D01*
X103658229Y-98856771D01*
X103656441Y-98849632D01*
X103655361Y-98842351D01*
X103655000Y-98835000D01*
X103655000Y-98685000D01*
X103655361Y-98677649D01*
X103656441Y-98670368D01*
X103658229Y-98663229D01*
X103660709Y-98656299D01*
X103663856Y-98649645D01*
X103667640Y-98643332D01*
X103672024Y-98637421D01*
X103676967Y-98631967D01*
X103682421Y-98627024D01*
X103688332Y-98622640D01*
X103694645Y-98618856D01*
X103701299Y-98615709D01*
X103708229Y-98613229D01*
X103715368Y-98611441D01*
X103722649Y-98610361D01*
X103730000Y-98610000D01*
X105055000Y-98610000D01*
X105062351Y-98610361D01*
G37*
G36*
X105062351Y-98110361D02*
G01*
X105069632Y-98111441D01*
X105076771Y-98113229D01*
X105083701Y-98115709D01*
X105090355Y-98118856D01*
X105096668Y-98122640D01*
X105102579Y-98127024D01*
X105108033Y-98131967D01*
X105112976Y-98137421D01*
X105117360Y-98143332D01*
X105121144Y-98149645D01*
X105124291Y-98156299D01*
X105126771Y-98163229D01*
X105128559Y-98170368D01*
X105129639Y-98177649D01*
X105130000Y-98185000D01*
X105130000Y-98335000D01*
X105129639Y-98342351D01*
X105128559Y-98349632D01*
X105126771Y-98356771D01*
X105124291Y-98363701D01*
X105121144Y-98370355D01*
X105117360Y-98376668D01*
X105112976Y-98382579D01*
X105108033Y-98388033D01*
X105102579Y-98392976D01*
X105096668Y-98397360D01*
X105090355Y-98401144D01*
X105083701Y-98404291D01*
X105076771Y-98406771D01*
X105069632Y-98408559D01*
X105062351Y-98409639D01*
X105055000Y-98410000D01*
X103730000Y-98410000D01*
X103722649Y-98409639D01*
X103715368Y-98408559D01*
X103708229Y-98406771D01*
X103701299Y-98404291D01*
X103694645Y-98401144D01*
X103688332Y-98397360D01*
X103682421Y-98392976D01*
X103676967Y-98388033D01*
X103672024Y-98382579D01*
X103667640Y-98376668D01*
X103663856Y-98370355D01*
X103660709Y-98363701D01*
X103658229Y-98356771D01*
X103656441Y-98349632D01*
X103655361Y-98342351D01*
X103655000Y-98335000D01*
X103655000Y-98185000D01*
X103655361Y-98177649D01*
X103656441Y-98170368D01*
X103658229Y-98163229D01*
X103660709Y-98156299D01*
X103663856Y-98149645D01*
X103667640Y-98143332D01*
X103672024Y-98137421D01*
X103676967Y-98131967D01*
X103682421Y-98127024D01*
X103688332Y-98122640D01*
X103694645Y-98118856D01*
X103701299Y-98115709D01*
X103708229Y-98113229D01*
X103715368Y-98111441D01*
X103722649Y-98110361D01*
X103730000Y-98110000D01*
X105055000Y-98110000D01*
X105062351Y-98110361D01*
G37*
G36*
X105062351Y-97610361D02*
G01*
X105069632Y-97611441D01*
X105076771Y-97613229D01*
X105083701Y-97615709D01*
X105090355Y-97618856D01*
X105096668Y-97622640D01*
X105102579Y-97627024D01*
X105108033Y-97631967D01*
X105112976Y-97637421D01*
X105117360Y-97643332D01*
X105121144Y-97649645D01*
X105124291Y-97656299D01*
X105126771Y-97663229D01*
X105128559Y-97670368D01*
X105129639Y-97677649D01*
X105130000Y-97685000D01*
X105130000Y-97835000D01*
X105129639Y-97842351D01*
X105128559Y-97849632D01*
X105126771Y-97856771D01*
X105124291Y-97863701D01*
X105121144Y-97870355D01*
X105117360Y-97876668D01*
X105112976Y-97882579D01*
X105108033Y-97888033D01*
X105102579Y-97892976D01*
X105096668Y-97897360D01*
X105090355Y-97901144D01*
X105083701Y-97904291D01*
X105076771Y-97906771D01*
X105069632Y-97908559D01*
X105062351Y-97909639D01*
X105055000Y-97910000D01*
X103730000Y-97910000D01*
X103722649Y-97909639D01*
X103715368Y-97908559D01*
X103708229Y-97906771D01*
X103701299Y-97904291D01*
X103694645Y-97901144D01*
X103688332Y-97897360D01*
X103682421Y-97892976D01*
X103676967Y-97888033D01*
X103672024Y-97882579D01*
X103667640Y-97876668D01*
X103663856Y-97870355D01*
X103660709Y-97863701D01*
X103658229Y-97856771D01*
X103656441Y-97849632D01*
X103655361Y-97842351D01*
X103655000Y-97835000D01*
X103655000Y-97685000D01*
X103655361Y-97677649D01*
X103656441Y-97670368D01*
X103658229Y-97663229D01*
X103660709Y-97656299D01*
X103663856Y-97649645D01*
X103667640Y-97643332D01*
X103672024Y-97637421D01*
X103676967Y-97631967D01*
X103682421Y-97627024D01*
X103688332Y-97622640D01*
X103694645Y-97618856D01*
X103701299Y-97615709D01*
X103708229Y-97613229D01*
X103715368Y-97611441D01*
X103722649Y-97610361D01*
X103730000Y-97610000D01*
X105055000Y-97610000D01*
X105062351Y-97610361D01*
G37*
G36*
X105062351Y-97110361D02*
G01*
X105069632Y-97111441D01*
X105076771Y-97113229D01*
X105083701Y-97115709D01*
X105090355Y-97118856D01*
X105096668Y-97122640D01*
X105102579Y-97127024D01*
X105108033Y-97131967D01*
X105112976Y-97137421D01*
X105117360Y-97143332D01*
X105121144Y-97149645D01*
X105124291Y-97156299D01*
X105126771Y-97163229D01*
X105128559Y-97170368D01*
X105129639Y-97177649D01*
X105130000Y-97185000D01*
X105130000Y-97335000D01*
X105129639Y-97342351D01*
X105128559Y-97349632D01*
X105126771Y-97356771D01*
X105124291Y-97363701D01*
X105121144Y-97370355D01*
X105117360Y-97376668D01*
X105112976Y-97382579D01*
X105108033Y-97388033D01*
X105102579Y-97392976D01*
X105096668Y-97397360D01*
X105090355Y-97401144D01*
X105083701Y-97404291D01*
X105076771Y-97406771D01*
X105069632Y-97408559D01*
X105062351Y-97409639D01*
X105055000Y-97410000D01*
X103730000Y-97410000D01*
X103722649Y-97409639D01*
X103715368Y-97408559D01*
X103708229Y-97406771D01*
X103701299Y-97404291D01*
X103694645Y-97401144D01*
X103688332Y-97397360D01*
X103682421Y-97392976D01*
X103676967Y-97388033D01*
X103672024Y-97382579D01*
X103667640Y-97376668D01*
X103663856Y-97370355D01*
X103660709Y-97363701D01*
X103658229Y-97356771D01*
X103656441Y-97349632D01*
X103655361Y-97342351D01*
X103655000Y-97335000D01*
X103655000Y-97185000D01*
X103655361Y-97177649D01*
X103656441Y-97170368D01*
X103658229Y-97163229D01*
X103660709Y-97156299D01*
X103663856Y-97149645D01*
X103667640Y-97143332D01*
X103672024Y-97137421D01*
X103676967Y-97131967D01*
X103682421Y-97127024D01*
X103688332Y-97122640D01*
X103694645Y-97118856D01*
X103701299Y-97115709D01*
X103708229Y-97113229D01*
X103715368Y-97111441D01*
X103722649Y-97110361D01*
X103730000Y-97110000D01*
X105055000Y-97110000D01*
X105062351Y-97110361D01*
G37*
G36*
X105062351Y-96610361D02*
G01*
X105069632Y-96611441D01*
X105076771Y-96613229D01*
X105083701Y-96615709D01*
X105090355Y-96618856D01*
X105096668Y-96622640D01*
X105102579Y-96627024D01*
X105108033Y-96631967D01*
X105112976Y-96637421D01*
X105117360Y-96643332D01*
X105121144Y-96649645D01*
X105124291Y-96656299D01*
X105126771Y-96663229D01*
X105128559Y-96670368D01*
X105129639Y-96677649D01*
X105130000Y-96685000D01*
X105130000Y-96835000D01*
X105129639Y-96842351D01*
X105128559Y-96849632D01*
X105126771Y-96856771D01*
X105124291Y-96863701D01*
X105121144Y-96870355D01*
X105117360Y-96876668D01*
X105112976Y-96882579D01*
X105108033Y-96888033D01*
X105102579Y-96892976D01*
X105096668Y-96897360D01*
X105090355Y-96901144D01*
X105083701Y-96904291D01*
X105076771Y-96906771D01*
X105069632Y-96908559D01*
X105062351Y-96909639D01*
X105055000Y-96910000D01*
X103730000Y-96910000D01*
X103722649Y-96909639D01*
X103715368Y-96908559D01*
X103708229Y-96906771D01*
X103701299Y-96904291D01*
X103694645Y-96901144D01*
X103688332Y-96897360D01*
X103682421Y-96892976D01*
X103676967Y-96888033D01*
X103672024Y-96882579D01*
X103667640Y-96876668D01*
X103663856Y-96870355D01*
X103660709Y-96863701D01*
X103658229Y-96856771D01*
X103656441Y-96849632D01*
X103655361Y-96842351D01*
X103655000Y-96835000D01*
X103655000Y-96685000D01*
X103655361Y-96677649D01*
X103656441Y-96670368D01*
X103658229Y-96663229D01*
X103660709Y-96656299D01*
X103663856Y-96649645D01*
X103667640Y-96643332D01*
X103672024Y-96637421D01*
X103676967Y-96631967D01*
X103682421Y-96627024D01*
X103688332Y-96622640D01*
X103694645Y-96618856D01*
X103701299Y-96615709D01*
X103708229Y-96613229D01*
X103715368Y-96611441D01*
X103722649Y-96610361D01*
X103730000Y-96610000D01*
X105055000Y-96610000D01*
X105062351Y-96610361D01*
G37*
G36*
X105062351Y-96110361D02*
G01*
X105069632Y-96111441D01*
X105076771Y-96113229D01*
X105083701Y-96115709D01*
X105090355Y-96118856D01*
X105096668Y-96122640D01*
X105102579Y-96127024D01*
X105108033Y-96131967D01*
X105112976Y-96137421D01*
X105117360Y-96143332D01*
X105121144Y-96149645D01*
X105124291Y-96156299D01*
X105126771Y-96163229D01*
X105128559Y-96170368D01*
X105129639Y-96177649D01*
X105130000Y-96185000D01*
X105130000Y-96335000D01*
X105129639Y-96342351D01*
X105128559Y-96349632D01*
X105126771Y-96356771D01*
X105124291Y-96363701D01*
X105121144Y-96370355D01*
X105117360Y-96376668D01*
X105112976Y-96382579D01*
X105108033Y-96388033D01*
X105102579Y-96392976D01*
X105096668Y-96397360D01*
X105090355Y-96401144D01*
X105083701Y-96404291D01*
X105076771Y-96406771D01*
X105069632Y-96408559D01*
X105062351Y-96409639D01*
X105055000Y-96410000D01*
X103730000Y-96410000D01*
X103722649Y-96409639D01*
X103715368Y-96408559D01*
X103708229Y-96406771D01*
X103701299Y-96404291D01*
X103694645Y-96401144D01*
X103688332Y-96397360D01*
X103682421Y-96392976D01*
X103676967Y-96388033D01*
X103672024Y-96382579D01*
X103667640Y-96376668D01*
X103663856Y-96370355D01*
X103660709Y-96363701D01*
X103658229Y-96356771D01*
X103656441Y-96349632D01*
X103655361Y-96342351D01*
X103655000Y-96335000D01*
X103655000Y-96185000D01*
X103655361Y-96177649D01*
X103656441Y-96170368D01*
X103658229Y-96163229D01*
X103660709Y-96156299D01*
X103663856Y-96149645D01*
X103667640Y-96143332D01*
X103672024Y-96137421D01*
X103676967Y-96131967D01*
X103682421Y-96127024D01*
X103688332Y-96122640D01*
X103694645Y-96118856D01*
X103701299Y-96115709D01*
X103708229Y-96113229D01*
X103715368Y-96111441D01*
X103722649Y-96110361D01*
X103730000Y-96110000D01*
X105055000Y-96110000D01*
X105062351Y-96110361D01*
G37*
G36*
X105062351Y-95610361D02*
G01*
X105069632Y-95611441D01*
X105076771Y-95613229D01*
X105083701Y-95615709D01*
X105090355Y-95618856D01*
X105096668Y-95622640D01*
X105102579Y-95627024D01*
X105108033Y-95631967D01*
X105112976Y-95637421D01*
X105117360Y-95643332D01*
X105121144Y-95649645D01*
X105124291Y-95656299D01*
X105126771Y-95663229D01*
X105128559Y-95670368D01*
X105129639Y-95677649D01*
X105130000Y-95685000D01*
X105130000Y-95835000D01*
X105129639Y-95842351D01*
X105128559Y-95849632D01*
X105126771Y-95856771D01*
X105124291Y-95863701D01*
X105121144Y-95870355D01*
X105117360Y-95876668D01*
X105112976Y-95882579D01*
X105108033Y-95888033D01*
X105102579Y-95892976D01*
X105096668Y-95897360D01*
X105090355Y-95901144D01*
X105083701Y-95904291D01*
X105076771Y-95906771D01*
X105069632Y-95908559D01*
X105062351Y-95909639D01*
X105055000Y-95910000D01*
X103730000Y-95910000D01*
X103722649Y-95909639D01*
X103715368Y-95908559D01*
X103708229Y-95906771D01*
X103701299Y-95904291D01*
X103694645Y-95901144D01*
X103688332Y-95897360D01*
X103682421Y-95892976D01*
X103676967Y-95888033D01*
X103672024Y-95882579D01*
X103667640Y-95876668D01*
X103663856Y-95870355D01*
X103660709Y-95863701D01*
X103658229Y-95856771D01*
X103656441Y-95849632D01*
X103655361Y-95842351D01*
X103655000Y-95835000D01*
X103655000Y-95685000D01*
X103655361Y-95677649D01*
X103656441Y-95670368D01*
X103658229Y-95663229D01*
X103660709Y-95656299D01*
X103663856Y-95649645D01*
X103667640Y-95643332D01*
X103672024Y-95637421D01*
X103676967Y-95631967D01*
X103682421Y-95627024D01*
X103688332Y-95622640D01*
X103694645Y-95618856D01*
X103701299Y-95615709D01*
X103708229Y-95613229D01*
X103715368Y-95611441D01*
X103722649Y-95610361D01*
X103730000Y-95610000D01*
X105055000Y-95610000D01*
X105062351Y-95610361D01*
G37*
G36*
X105062351Y-95110361D02*
G01*
X105069632Y-95111441D01*
X105076771Y-95113229D01*
X105083701Y-95115709D01*
X105090355Y-95118856D01*
X105096668Y-95122640D01*
X105102579Y-95127024D01*
X105108033Y-95131967D01*
X105112976Y-95137421D01*
X105117360Y-95143332D01*
X105121144Y-95149645D01*
X105124291Y-95156299D01*
X105126771Y-95163229D01*
X105128559Y-95170368D01*
X105129639Y-95177649D01*
X105130000Y-95185000D01*
X105130000Y-95335000D01*
X105129639Y-95342351D01*
X105128559Y-95349632D01*
X105126771Y-95356771D01*
X105124291Y-95363701D01*
X105121144Y-95370355D01*
X105117360Y-95376668D01*
X105112976Y-95382579D01*
X105108033Y-95388033D01*
X105102579Y-95392976D01*
X105096668Y-95397360D01*
X105090355Y-95401144D01*
X105083701Y-95404291D01*
X105076771Y-95406771D01*
X105069632Y-95408559D01*
X105062351Y-95409639D01*
X105055000Y-95410000D01*
X103730000Y-95410000D01*
X103722649Y-95409639D01*
X103715368Y-95408559D01*
X103708229Y-95406771D01*
X103701299Y-95404291D01*
X103694645Y-95401144D01*
X103688332Y-95397360D01*
X103682421Y-95392976D01*
X103676967Y-95388033D01*
X103672024Y-95382579D01*
X103667640Y-95376668D01*
X103663856Y-95370355D01*
X103660709Y-95363701D01*
X103658229Y-95356771D01*
X103656441Y-95349632D01*
X103655361Y-95342351D01*
X103655000Y-95335000D01*
X103655000Y-95185000D01*
X103655361Y-95177649D01*
X103656441Y-95170368D01*
X103658229Y-95163229D01*
X103660709Y-95156299D01*
X103663856Y-95149645D01*
X103667640Y-95143332D01*
X103672024Y-95137421D01*
X103676967Y-95131967D01*
X103682421Y-95127024D01*
X103688332Y-95122640D01*
X103694645Y-95118856D01*
X103701299Y-95115709D01*
X103708229Y-95113229D01*
X103715368Y-95111441D01*
X103722649Y-95110361D01*
X103730000Y-95110000D01*
X105055000Y-95110000D01*
X105062351Y-95110361D01*
G37*
G36*
X105062351Y-94610361D02*
G01*
X105069632Y-94611441D01*
X105076771Y-94613229D01*
X105083701Y-94615709D01*
X105090355Y-94618856D01*
X105096668Y-94622640D01*
X105102579Y-94627024D01*
X105108033Y-94631967D01*
X105112976Y-94637421D01*
X105117360Y-94643332D01*
X105121144Y-94649645D01*
X105124291Y-94656299D01*
X105126771Y-94663229D01*
X105128559Y-94670368D01*
X105129639Y-94677649D01*
X105130000Y-94685000D01*
X105130000Y-94835000D01*
X105129639Y-94842351D01*
X105128559Y-94849632D01*
X105126771Y-94856771D01*
X105124291Y-94863701D01*
X105121144Y-94870355D01*
X105117360Y-94876668D01*
X105112976Y-94882579D01*
X105108033Y-94888033D01*
X105102579Y-94892976D01*
X105096668Y-94897360D01*
X105090355Y-94901144D01*
X105083701Y-94904291D01*
X105076771Y-94906771D01*
X105069632Y-94908559D01*
X105062351Y-94909639D01*
X105055000Y-94910000D01*
X103730000Y-94910000D01*
X103722649Y-94909639D01*
X103715368Y-94908559D01*
X103708229Y-94906771D01*
X103701299Y-94904291D01*
X103694645Y-94901144D01*
X103688332Y-94897360D01*
X103682421Y-94892976D01*
X103676967Y-94888033D01*
X103672024Y-94882579D01*
X103667640Y-94876668D01*
X103663856Y-94870355D01*
X103660709Y-94863701D01*
X103658229Y-94856771D01*
X103656441Y-94849632D01*
X103655361Y-94842351D01*
X103655000Y-94835000D01*
X103655000Y-94685000D01*
X103655361Y-94677649D01*
X103656441Y-94670368D01*
X103658229Y-94663229D01*
X103660709Y-94656299D01*
X103663856Y-94649645D01*
X103667640Y-94643332D01*
X103672024Y-94637421D01*
X103676967Y-94631967D01*
X103682421Y-94627024D01*
X103688332Y-94622640D01*
X103694645Y-94618856D01*
X103701299Y-94615709D01*
X103708229Y-94613229D01*
X103715368Y-94611441D01*
X103722649Y-94610361D01*
X103730000Y-94610000D01*
X105055000Y-94610000D01*
X105062351Y-94610361D01*
G37*
G36*
X105062351Y-94110361D02*
G01*
X105069632Y-94111441D01*
X105076771Y-94113229D01*
X105083701Y-94115709D01*
X105090355Y-94118856D01*
X105096668Y-94122640D01*
X105102579Y-94127024D01*
X105108033Y-94131967D01*
X105112976Y-94137421D01*
X105117360Y-94143332D01*
X105121144Y-94149645D01*
X105124291Y-94156299D01*
X105126771Y-94163229D01*
X105128559Y-94170368D01*
X105129639Y-94177649D01*
X105130000Y-94185000D01*
X105130000Y-94335000D01*
X105129639Y-94342351D01*
X105128559Y-94349632D01*
X105126771Y-94356771D01*
X105124291Y-94363701D01*
X105121144Y-94370355D01*
X105117360Y-94376668D01*
X105112976Y-94382579D01*
X105108033Y-94388033D01*
X105102579Y-94392976D01*
X105096668Y-94397360D01*
X105090355Y-94401144D01*
X105083701Y-94404291D01*
X105076771Y-94406771D01*
X105069632Y-94408559D01*
X105062351Y-94409639D01*
X105055000Y-94410000D01*
X103730000Y-94410000D01*
X103722649Y-94409639D01*
X103715368Y-94408559D01*
X103708229Y-94406771D01*
X103701299Y-94404291D01*
X103694645Y-94401144D01*
X103688332Y-94397360D01*
X103682421Y-94392976D01*
X103676967Y-94388033D01*
X103672024Y-94382579D01*
X103667640Y-94376668D01*
X103663856Y-94370355D01*
X103660709Y-94363701D01*
X103658229Y-94356771D01*
X103656441Y-94349632D01*
X103655361Y-94342351D01*
X103655000Y-94335000D01*
X103655000Y-94185000D01*
X103655361Y-94177649D01*
X103656441Y-94170368D01*
X103658229Y-94163229D01*
X103660709Y-94156299D01*
X103663856Y-94149645D01*
X103667640Y-94143332D01*
X103672024Y-94137421D01*
X103676967Y-94131967D01*
X103682421Y-94127024D01*
X103688332Y-94122640D01*
X103694645Y-94118856D01*
X103701299Y-94115709D01*
X103708229Y-94113229D01*
X103715368Y-94111441D01*
X103722649Y-94110361D01*
X103730000Y-94110000D01*
X105055000Y-94110000D01*
X105062351Y-94110361D01*
G37*
G36*
X105062351Y-93610361D02*
G01*
X105069632Y-93611441D01*
X105076771Y-93613229D01*
X105083701Y-93615709D01*
X105090355Y-93618856D01*
X105096668Y-93622640D01*
X105102579Y-93627024D01*
X105108033Y-93631967D01*
X105112976Y-93637421D01*
X105117360Y-93643332D01*
X105121144Y-93649645D01*
X105124291Y-93656299D01*
X105126771Y-93663229D01*
X105128559Y-93670368D01*
X105129639Y-93677649D01*
X105130000Y-93685000D01*
X105130000Y-93835000D01*
X105129639Y-93842351D01*
X105128559Y-93849632D01*
X105126771Y-93856771D01*
X105124291Y-93863701D01*
X105121144Y-93870355D01*
X105117360Y-93876668D01*
X105112976Y-93882579D01*
X105108033Y-93888033D01*
X105102579Y-93892976D01*
X105096668Y-93897360D01*
X105090355Y-93901144D01*
X105083701Y-93904291D01*
X105076771Y-93906771D01*
X105069632Y-93908559D01*
X105062351Y-93909639D01*
X105055000Y-93910000D01*
X103730000Y-93910000D01*
X103722649Y-93909639D01*
X103715368Y-93908559D01*
X103708229Y-93906771D01*
X103701299Y-93904291D01*
X103694645Y-93901144D01*
X103688332Y-93897360D01*
X103682421Y-93892976D01*
X103676967Y-93888033D01*
X103672024Y-93882579D01*
X103667640Y-93876668D01*
X103663856Y-93870355D01*
X103660709Y-93863701D01*
X103658229Y-93856771D01*
X103656441Y-93849632D01*
X103655361Y-93842351D01*
X103655000Y-93835000D01*
X103655000Y-93685000D01*
X103655361Y-93677649D01*
X103656441Y-93670368D01*
X103658229Y-93663229D01*
X103660709Y-93656299D01*
X103663856Y-93649645D01*
X103667640Y-93643332D01*
X103672024Y-93637421D01*
X103676967Y-93631967D01*
X103682421Y-93627024D01*
X103688332Y-93622640D01*
X103694645Y-93618856D01*
X103701299Y-93615709D01*
X103708229Y-93613229D01*
X103715368Y-93611441D01*
X103722649Y-93610361D01*
X103730000Y-93610000D01*
X105055000Y-93610000D01*
X105062351Y-93610361D01*
G37*
G36*
X103062351Y-91610361D02*
G01*
X103069632Y-91611441D01*
X103076771Y-91613229D01*
X103083701Y-91615709D01*
X103090355Y-91618856D01*
X103096668Y-91622640D01*
X103102579Y-91627024D01*
X103108033Y-91631967D01*
X103112976Y-91637421D01*
X103117360Y-91643332D01*
X103121144Y-91649645D01*
X103124291Y-91656299D01*
X103126771Y-91663229D01*
X103128559Y-91670368D01*
X103129639Y-91677649D01*
X103130000Y-91685000D01*
X103130000Y-93010000D01*
X103129639Y-93017351D01*
X103128559Y-93024632D01*
X103126771Y-93031771D01*
X103124291Y-93038701D01*
X103121144Y-93045355D01*
X103117360Y-93051668D01*
X103112976Y-93057579D01*
X103108033Y-93063033D01*
X103102579Y-93067976D01*
X103096668Y-93072360D01*
X103090355Y-93076144D01*
X103083701Y-93079291D01*
X103076771Y-93081771D01*
X103069632Y-93083559D01*
X103062351Y-93084639D01*
X103055000Y-93085000D01*
X102905000Y-93085000D01*
X102897649Y-93084639D01*
X102890368Y-93083559D01*
X102883229Y-93081771D01*
X102876299Y-93079291D01*
X102869645Y-93076144D01*
X102863332Y-93072360D01*
X102857421Y-93067976D01*
X102851967Y-93063033D01*
X102847024Y-93057579D01*
X102842640Y-93051668D01*
X102838856Y-93045355D01*
X102835709Y-93038701D01*
X102833229Y-93031771D01*
X102831441Y-93024632D01*
X102830361Y-93017351D01*
X102830000Y-93010000D01*
X102830000Y-91685000D01*
X102830361Y-91677649D01*
X102831441Y-91670368D01*
X102833229Y-91663229D01*
X102835709Y-91656299D01*
X102838856Y-91649645D01*
X102842640Y-91643332D01*
X102847024Y-91637421D01*
X102851967Y-91631967D01*
X102857421Y-91627024D01*
X102863332Y-91622640D01*
X102869645Y-91618856D01*
X102876299Y-91615709D01*
X102883229Y-91613229D01*
X102890368Y-91611441D01*
X102897649Y-91610361D01*
X102905000Y-91610000D01*
X103055000Y-91610000D01*
X103062351Y-91610361D01*
G37*
G36*
X102562351Y-91610361D02*
G01*
X102569632Y-91611441D01*
X102576771Y-91613229D01*
X102583701Y-91615709D01*
X102590355Y-91618856D01*
X102596668Y-91622640D01*
X102602579Y-91627024D01*
X102608033Y-91631967D01*
X102612976Y-91637421D01*
X102617360Y-91643332D01*
X102621144Y-91649645D01*
X102624291Y-91656299D01*
X102626771Y-91663229D01*
X102628559Y-91670368D01*
X102629639Y-91677649D01*
X102630000Y-91685000D01*
X102630000Y-93010000D01*
X102629639Y-93017351D01*
X102628559Y-93024632D01*
X102626771Y-93031771D01*
X102624291Y-93038701D01*
X102621144Y-93045355D01*
X102617360Y-93051668D01*
X102612976Y-93057579D01*
X102608033Y-93063033D01*
X102602579Y-93067976D01*
X102596668Y-93072360D01*
X102590355Y-93076144D01*
X102583701Y-93079291D01*
X102576771Y-93081771D01*
X102569632Y-93083559D01*
X102562351Y-93084639D01*
X102555000Y-93085000D01*
X102405000Y-93085000D01*
X102397649Y-93084639D01*
X102390368Y-93083559D01*
X102383229Y-93081771D01*
X102376299Y-93079291D01*
X102369645Y-93076144D01*
X102363332Y-93072360D01*
X102357421Y-93067976D01*
X102351967Y-93063033D01*
X102347024Y-93057579D01*
X102342640Y-93051668D01*
X102338856Y-93045355D01*
X102335709Y-93038701D01*
X102333229Y-93031771D01*
X102331441Y-93024632D01*
X102330361Y-93017351D01*
X102330000Y-93010000D01*
X102330000Y-91685000D01*
X102330361Y-91677649D01*
X102331441Y-91670368D01*
X102333229Y-91663229D01*
X102335709Y-91656299D01*
X102338856Y-91649645D01*
X102342640Y-91643332D01*
X102347024Y-91637421D01*
X102351967Y-91631967D01*
X102357421Y-91627024D01*
X102363332Y-91622640D01*
X102369645Y-91618856D01*
X102376299Y-91615709D01*
X102383229Y-91613229D01*
X102390368Y-91611441D01*
X102397649Y-91610361D01*
X102405000Y-91610000D01*
X102555000Y-91610000D01*
X102562351Y-91610361D01*
G37*
G36*
X102062351Y-91610361D02*
G01*
X102069632Y-91611441D01*
X102076771Y-91613229D01*
X102083701Y-91615709D01*
X102090355Y-91618856D01*
X102096668Y-91622640D01*
X102102579Y-91627024D01*
X102108033Y-91631967D01*
X102112976Y-91637421D01*
X102117360Y-91643332D01*
X102121144Y-91649645D01*
X102124291Y-91656299D01*
X102126771Y-91663229D01*
X102128559Y-91670368D01*
X102129639Y-91677649D01*
X102130000Y-91685000D01*
X102130000Y-93010000D01*
X102129639Y-93017351D01*
X102128559Y-93024632D01*
X102126771Y-93031771D01*
X102124291Y-93038701D01*
X102121144Y-93045355D01*
X102117360Y-93051668D01*
X102112976Y-93057579D01*
X102108033Y-93063033D01*
X102102579Y-93067976D01*
X102096668Y-93072360D01*
X102090355Y-93076144D01*
X102083701Y-93079291D01*
X102076771Y-93081771D01*
X102069632Y-93083559D01*
X102062351Y-93084639D01*
X102055000Y-93085000D01*
X101905000Y-93085000D01*
X101897649Y-93084639D01*
X101890368Y-93083559D01*
X101883229Y-93081771D01*
X101876299Y-93079291D01*
X101869645Y-93076144D01*
X101863332Y-93072360D01*
X101857421Y-93067976D01*
X101851967Y-93063033D01*
X101847024Y-93057579D01*
X101842640Y-93051668D01*
X101838856Y-93045355D01*
X101835709Y-93038701D01*
X101833229Y-93031771D01*
X101831441Y-93024632D01*
X101830361Y-93017351D01*
X101830000Y-93010000D01*
X101830000Y-91685000D01*
X101830361Y-91677649D01*
X101831441Y-91670368D01*
X101833229Y-91663229D01*
X101835709Y-91656299D01*
X101838856Y-91649645D01*
X101842640Y-91643332D01*
X101847024Y-91637421D01*
X101851967Y-91631967D01*
X101857421Y-91627024D01*
X101863332Y-91622640D01*
X101869645Y-91618856D01*
X101876299Y-91615709D01*
X101883229Y-91613229D01*
X101890368Y-91611441D01*
X101897649Y-91610361D01*
X101905000Y-91610000D01*
X102055000Y-91610000D01*
X102062351Y-91610361D01*
G37*
G36*
X101562351Y-91610361D02*
G01*
X101569632Y-91611441D01*
X101576771Y-91613229D01*
X101583701Y-91615709D01*
X101590355Y-91618856D01*
X101596668Y-91622640D01*
X101602579Y-91627024D01*
X101608033Y-91631967D01*
X101612976Y-91637421D01*
X101617360Y-91643332D01*
X101621144Y-91649645D01*
X101624291Y-91656299D01*
X101626771Y-91663229D01*
X101628559Y-91670368D01*
X101629639Y-91677649D01*
X101630000Y-91685000D01*
X101630000Y-93010000D01*
X101629639Y-93017351D01*
X101628559Y-93024632D01*
X101626771Y-93031771D01*
X101624291Y-93038701D01*
X101621144Y-93045355D01*
X101617360Y-93051668D01*
X101612976Y-93057579D01*
X101608033Y-93063033D01*
X101602579Y-93067976D01*
X101596668Y-93072360D01*
X101590355Y-93076144D01*
X101583701Y-93079291D01*
X101576771Y-93081771D01*
X101569632Y-93083559D01*
X101562351Y-93084639D01*
X101555000Y-93085000D01*
X101405000Y-93085000D01*
X101397649Y-93084639D01*
X101390368Y-93083559D01*
X101383229Y-93081771D01*
X101376299Y-93079291D01*
X101369645Y-93076144D01*
X101363332Y-93072360D01*
X101357421Y-93067976D01*
X101351967Y-93063033D01*
X101347024Y-93057579D01*
X101342640Y-93051668D01*
X101338856Y-93045355D01*
X101335709Y-93038701D01*
X101333229Y-93031771D01*
X101331441Y-93024632D01*
X101330361Y-93017351D01*
X101330000Y-93010000D01*
X101330000Y-91685000D01*
X101330361Y-91677649D01*
X101331441Y-91670368D01*
X101333229Y-91663229D01*
X101335709Y-91656299D01*
X101338856Y-91649645D01*
X101342640Y-91643332D01*
X101347024Y-91637421D01*
X101351967Y-91631967D01*
X101357421Y-91627024D01*
X101363332Y-91622640D01*
X101369645Y-91618856D01*
X101376299Y-91615709D01*
X101383229Y-91613229D01*
X101390368Y-91611441D01*
X101397649Y-91610361D01*
X101405000Y-91610000D01*
X101555000Y-91610000D01*
X101562351Y-91610361D01*
G37*
G36*
X101062351Y-91610361D02*
G01*
X101069632Y-91611441D01*
X101076771Y-91613229D01*
X101083701Y-91615709D01*
X101090355Y-91618856D01*
X101096668Y-91622640D01*
X101102579Y-91627024D01*
X101108033Y-91631967D01*
X101112976Y-91637421D01*
X101117360Y-91643332D01*
X101121144Y-91649645D01*
X101124291Y-91656299D01*
X101126771Y-91663229D01*
X101128559Y-91670368D01*
X101129639Y-91677649D01*
X101130000Y-91685000D01*
X101130000Y-93010000D01*
X101129639Y-93017351D01*
X101128559Y-93024632D01*
X101126771Y-93031771D01*
X101124291Y-93038701D01*
X101121144Y-93045355D01*
X101117360Y-93051668D01*
X101112976Y-93057579D01*
X101108033Y-93063033D01*
X101102579Y-93067976D01*
X101096668Y-93072360D01*
X101090355Y-93076144D01*
X101083701Y-93079291D01*
X101076771Y-93081771D01*
X101069632Y-93083559D01*
X101062351Y-93084639D01*
X101055000Y-93085000D01*
X100905000Y-93085000D01*
X100897649Y-93084639D01*
X100890368Y-93083559D01*
X100883229Y-93081771D01*
X100876299Y-93079291D01*
X100869645Y-93076144D01*
X100863332Y-93072360D01*
X100857421Y-93067976D01*
X100851967Y-93063033D01*
X100847024Y-93057579D01*
X100842640Y-93051668D01*
X100838856Y-93045355D01*
X100835709Y-93038701D01*
X100833229Y-93031771D01*
X100831441Y-93024632D01*
X100830361Y-93017351D01*
X100830000Y-93010000D01*
X100830000Y-91685000D01*
X100830361Y-91677649D01*
X100831441Y-91670368D01*
X100833229Y-91663229D01*
X100835709Y-91656299D01*
X100838856Y-91649645D01*
X100842640Y-91643332D01*
X100847024Y-91637421D01*
X100851967Y-91631967D01*
X100857421Y-91627024D01*
X100863332Y-91622640D01*
X100869645Y-91618856D01*
X100876299Y-91615709D01*
X100883229Y-91613229D01*
X100890368Y-91611441D01*
X100897649Y-91610361D01*
X100905000Y-91610000D01*
X101055000Y-91610000D01*
X101062351Y-91610361D01*
G37*
G36*
X100562351Y-91610361D02*
G01*
X100569632Y-91611441D01*
X100576771Y-91613229D01*
X100583701Y-91615709D01*
X100590355Y-91618856D01*
X100596668Y-91622640D01*
X100602579Y-91627024D01*
X100608033Y-91631967D01*
X100612976Y-91637421D01*
X100617360Y-91643332D01*
X100621144Y-91649645D01*
X100624291Y-91656299D01*
X100626771Y-91663229D01*
X100628559Y-91670368D01*
X100629639Y-91677649D01*
X100630000Y-91685000D01*
X100630000Y-93010000D01*
X100629639Y-93017351D01*
X100628559Y-93024632D01*
X100626771Y-93031771D01*
X100624291Y-93038701D01*
X100621144Y-93045355D01*
X100617360Y-93051668D01*
X100612976Y-93057579D01*
X100608033Y-93063033D01*
X100602579Y-93067976D01*
X100596668Y-93072360D01*
X100590355Y-93076144D01*
X100583701Y-93079291D01*
X100576771Y-93081771D01*
X100569632Y-93083559D01*
X100562351Y-93084639D01*
X100555000Y-93085000D01*
X100405000Y-93085000D01*
X100397649Y-93084639D01*
X100390368Y-93083559D01*
X100383229Y-93081771D01*
X100376299Y-93079291D01*
X100369645Y-93076144D01*
X100363332Y-93072360D01*
X100357421Y-93067976D01*
X100351967Y-93063033D01*
X100347024Y-93057579D01*
X100342640Y-93051668D01*
X100338856Y-93045355D01*
X100335709Y-93038701D01*
X100333229Y-93031771D01*
X100331441Y-93024632D01*
X100330361Y-93017351D01*
X100330000Y-93010000D01*
X100330000Y-91685000D01*
X100330361Y-91677649D01*
X100331441Y-91670368D01*
X100333229Y-91663229D01*
X100335709Y-91656299D01*
X100338856Y-91649645D01*
X100342640Y-91643332D01*
X100347024Y-91637421D01*
X100351967Y-91631967D01*
X100357421Y-91627024D01*
X100363332Y-91622640D01*
X100369645Y-91618856D01*
X100376299Y-91615709D01*
X100383229Y-91613229D01*
X100390368Y-91611441D01*
X100397649Y-91610361D01*
X100405000Y-91610000D01*
X100555000Y-91610000D01*
X100562351Y-91610361D01*
G37*
G36*
X100062351Y-91610361D02*
G01*
X100069632Y-91611441D01*
X100076771Y-91613229D01*
X100083701Y-91615709D01*
X100090355Y-91618856D01*
X100096668Y-91622640D01*
X100102579Y-91627024D01*
X100108033Y-91631967D01*
X100112976Y-91637421D01*
X100117360Y-91643332D01*
X100121144Y-91649645D01*
X100124291Y-91656299D01*
X100126771Y-91663229D01*
X100128559Y-91670368D01*
X100129639Y-91677649D01*
X100130000Y-91685000D01*
X100130000Y-93010000D01*
X100129639Y-93017351D01*
X100128559Y-93024632D01*
X100126771Y-93031771D01*
X100124291Y-93038701D01*
X100121144Y-93045355D01*
X100117360Y-93051668D01*
X100112976Y-93057579D01*
X100108033Y-93063033D01*
X100102579Y-93067976D01*
X100096668Y-93072360D01*
X100090355Y-93076144D01*
X100083701Y-93079291D01*
X100076771Y-93081771D01*
X100069632Y-93083559D01*
X100062351Y-93084639D01*
X100055000Y-93085000D01*
X99905000Y-93085000D01*
X99897649Y-93084639D01*
X99890368Y-93083559D01*
X99883229Y-93081771D01*
X99876299Y-93079291D01*
X99869645Y-93076144D01*
X99863332Y-93072360D01*
X99857421Y-93067976D01*
X99851967Y-93063033D01*
X99847024Y-93057579D01*
X99842640Y-93051668D01*
X99838856Y-93045355D01*
X99835709Y-93038701D01*
X99833229Y-93031771D01*
X99831441Y-93024632D01*
X99830361Y-93017351D01*
X99830000Y-93010000D01*
X99830000Y-91685000D01*
X99830361Y-91677649D01*
X99831441Y-91670368D01*
X99833229Y-91663229D01*
X99835709Y-91656299D01*
X99838856Y-91649645D01*
X99842640Y-91643332D01*
X99847024Y-91637421D01*
X99851967Y-91631967D01*
X99857421Y-91627024D01*
X99863332Y-91622640D01*
X99869645Y-91618856D01*
X99876299Y-91615709D01*
X99883229Y-91613229D01*
X99890368Y-91611441D01*
X99897649Y-91610361D01*
X99905000Y-91610000D01*
X100055000Y-91610000D01*
X100062351Y-91610361D01*
G37*
G36*
X99562351Y-91610361D02*
G01*
X99569632Y-91611441D01*
X99576771Y-91613229D01*
X99583701Y-91615709D01*
X99590355Y-91618856D01*
X99596668Y-91622640D01*
X99602579Y-91627024D01*
X99608033Y-91631967D01*
X99612976Y-91637421D01*
X99617360Y-91643332D01*
X99621144Y-91649645D01*
X99624291Y-91656299D01*
X99626771Y-91663229D01*
X99628559Y-91670368D01*
X99629639Y-91677649D01*
X99630000Y-91685000D01*
X99630000Y-93010000D01*
X99629639Y-93017351D01*
X99628559Y-93024632D01*
X99626771Y-93031771D01*
X99624291Y-93038701D01*
X99621144Y-93045355D01*
X99617360Y-93051668D01*
X99612976Y-93057579D01*
X99608033Y-93063033D01*
X99602579Y-93067976D01*
X99596668Y-93072360D01*
X99590355Y-93076144D01*
X99583701Y-93079291D01*
X99576771Y-93081771D01*
X99569632Y-93083559D01*
X99562351Y-93084639D01*
X99555000Y-93085000D01*
X99405000Y-93085000D01*
X99397649Y-93084639D01*
X99390368Y-93083559D01*
X99383229Y-93081771D01*
X99376299Y-93079291D01*
X99369645Y-93076144D01*
X99363332Y-93072360D01*
X99357421Y-93067976D01*
X99351967Y-93063033D01*
X99347024Y-93057579D01*
X99342640Y-93051668D01*
X99338856Y-93045355D01*
X99335709Y-93038701D01*
X99333229Y-93031771D01*
X99331441Y-93024632D01*
X99330361Y-93017351D01*
X99330000Y-93010000D01*
X99330000Y-91685000D01*
X99330361Y-91677649D01*
X99331441Y-91670368D01*
X99333229Y-91663229D01*
X99335709Y-91656299D01*
X99338856Y-91649645D01*
X99342640Y-91643332D01*
X99347024Y-91637421D01*
X99351967Y-91631967D01*
X99357421Y-91627024D01*
X99363332Y-91622640D01*
X99369645Y-91618856D01*
X99376299Y-91615709D01*
X99383229Y-91613229D01*
X99390368Y-91611441D01*
X99397649Y-91610361D01*
X99405000Y-91610000D01*
X99555000Y-91610000D01*
X99562351Y-91610361D01*
G37*
G36*
X99062351Y-91610361D02*
G01*
X99069632Y-91611441D01*
X99076771Y-91613229D01*
X99083701Y-91615709D01*
X99090355Y-91618856D01*
X99096668Y-91622640D01*
X99102579Y-91627024D01*
X99108033Y-91631967D01*
X99112976Y-91637421D01*
X99117360Y-91643332D01*
X99121144Y-91649645D01*
X99124291Y-91656299D01*
X99126771Y-91663229D01*
X99128559Y-91670368D01*
X99129639Y-91677649D01*
X99130000Y-91685000D01*
X99130000Y-93010000D01*
X99129639Y-93017351D01*
X99128559Y-93024632D01*
X99126771Y-93031771D01*
X99124291Y-93038701D01*
X99121144Y-93045355D01*
X99117360Y-93051668D01*
X99112976Y-93057579D01*
X99108033Y-93063033D01*
X99102579Y-93067976D01*
X99096668Y-93072360D01*
X99090355Y-93076144D01*
X99083701Y-93079291D01*
X99076771Y-93081771D01*
X99069632Y-93083559D01*
X99062351Y-93084639D01*
X99055000Y-93085000D01*
X98905000Y-93085000D01*
X98897649Y-93084639D01*
X98890368Y-93083559D01*
X98883229Y-93081771D01*
X98876299Y-93079291D01*
X98869645Y-93076144D01*
X98863332Y-93072360D01*
X98857421Y-93067976D01*
X98851967Y-93063033D01*
X98847024Y-93057579D01*
X98842640Y-93051668D01*
X98838856Y-93045355D01*
X98835709Y-93038701D01*
X98833229Y-93031771D01*
X98831441Y-93024632D01*
X98830361Y-93017351D01*
X98830000Y-93010000D01*
X98830000Y-91685000D01*
X98830361Y-91677649D01*
X98831441Y-91670368D01*
X98833229Y-91663229D01*
X98835709Y-91656299D01*
X98838856Y-91649645D01*
X98842640Y-91643332D01*
X98847024Y-91637421D01*
X98851967Y-91631967D01*
X98857421Y-91627024D01*
X98863332Y-91622640D01*
X98869645Y-91618856D01*
X98876299Y-91615709D01*
X98883229Y-91613229D01*
X98890368Y-91611441D01*
X98897649Y-91610361D01*
X98905000Y-91610000D01*
X99055000Y-91610000D01*
X99062351Y-91610361D01*
G37*
G36*
X98562351Y-91610361D02*
G01*
X98569632Y-91611441D01*
X98576771Y-91613229D01*
X98583701Y-91615709D01*
X98590355Y-91618856D01*
X98596668Y-91622640D01*
X98602579Y-91627024D01*
X98608033Y-91631967D01*
X98612976Y-91637421D01*
X98617360Y-91643332D01*
X98621144Y-91649645D01*
X98624291Y-91656299D01*
X98626771Y-91663229D01*
X98628559Y-91670368D01*
X98629639Y-91677649D01*
X98630000Y-91685000D01*
X98630000Y-93010000D01*
X98629639Y-93017351D01*
X98628559Y-93024632D01*
X98626771Y-93031771D01*
X98624291Y-93038701D01*
X98621144Y-93045355D01*
X98617360Y-93051668D01*
X98612976Y-93057579D01*
X98608033Y-93063033D01*
X98602579Y-93067976D01*
X98596668Y-93072360D01*
X98590355Y-93076144D01*
X98583701Y-93079291D01*
X98576771Y-93081771D01*
X98569632Y-93083559D01*
X98562351Y-93084639D01*
X98555000Y-93085000D01*
X98405000Y-93085000D01*
X98397649Y-93084639D01*
X98390368Y-93083559D01*
X98383229Y-93081771D01*
X98376299Y-93079291D01*
X98369645Y-93076144D01*
X98363332Y-93072360D01*
X98357421Y-93067976D01*
X98351967Y-93063033D01*
X98347024Y-93057579D01*
X98342640Y-93051668D01*
X98338856Y-93045355D01*
X98335709Y-93038701D01*
X98333229Y-93031771D01*
X98331441Y-93024632D01*
X98330361Y-93017351D01*
X98330000Y-93010000D01*
X98330000Y-91685000D01*
X98330361Y-91677649D01*
X98331441Y-91670368D01*
X98333229Y-91663229D01*
X98335709Y-91656299D01*
X98338856Y-91649645D01*
X98342640Y-91643332D01*
X98347024Y-91637421D01*
X98351967Y-91631967D01*
X98357421Y-91627024D01*
X98363332Y-91622640D01*
X98369645Y-91618856D01*
X98376299Y-91615709D01*
X98383229Y-91613229D01*
X98390368Y-91611441D01*
X98397649Y-91610361D01*
X98405000Y-91610000D01*
X98555000Y-91610000D01*
X98562351Y-91610361D01*
G37*
G36*
X98062351Y-91610361D02*
G01*
X98069632Y-91611441D01*
X98076771Y-91613229D01*
X98083701Y-91615709D01*
X98090355Y-91618856D01*
X98096668Y-91622640D01*
X98102579Y-91627024D01*
X98108033Y-91631967D01*
X98112976Y-91637421D01*
X98117360Y-91643332D01*
X98121144Y-91649645D01*
X98124291Y-91656299D01*
X98126771Y-91663229D01*
X98128559Y-91670368D01*
X98129639Y-91677649D01*
X98130000Y-91685000D01*
X98130000Y-93010000D01*
X98129639Y-93017351D01*
X98128559Y-93024632D01*
X98126771Y-93031771D01*
X98124291Y-93038701D01*
X98121144Y-93045355D01*
X98117360Y-93051668D01*
X98112976Y-93057579D01*
X98108033Y-93063033D01*
X98102579Y-93067976D01*
X98096668Y-93072360D01*
X98090355Y-93076144D01*
X98083701Y-93079291D01*
X98076771Y-93081771D01*
X98069632Y-93083559D01*
X98062351Y-93084639D01*
X98055000Y-93085000D01*
X97905000Y-93085000D01*
X97897649Y-93084639D01*
X97890368Y-93083559D01*
X97883229Y-93081771D01*
X97876299Y-93079291D01*
X97869645Y-93076144D01*
X97863332Y-93072360D01*
X97857421Y-93067976D01*
X97851967Y-93063033D01*
X97847024Y-93057579D01*
X97842640Y-93051668D01*
X97838856Y-93045355D01*
X97835709Y-93038701D01*
X97833229Y-93031771D01*
X97831441Y-93024632D01*
X97830361Y-93017351D01*
X97830000Y-93010000D01*
X97830000Y-91685000D01*
X97830361Y-91677649D01*
X97831441Y-91670368D01*
X97833229Y-91663229D01*
X97835709Y-91656299D01*
X97838856Y-91649645D01*
X97842640Y-91643332D01*
X97847024Y-91637421D01*
X97851967Y-91631967D01*
X97857421Y-91627024D01*
X97863332Y-91622640D01*
X97869645Y-91618856D01*
X97876299Y-91615709D01*
X97883229Y-91613229D01*
X97890368Y-91611441D01*
X97897649Y-91610361D01*
X97905000Y-91610000D01*
X98055000Y-91610000D01*
X98062351Y-91610361D01*
G37*
G36*
X97562351Y-91610361D02*
G01*
X97569632Y-91611441D01*
X97576771Y-91613229D01*
X97583701Y-91615709D01*
X97590355Y-91618856D01*
X97596668Y-91622640D01*
X97602579Y-91627024D01*
X97608033Y-91631967D01*
X97612976Y-91637421D01*
X97617360Y-91643332D01*
X97621144Y-91649645D01*
X97624291Y-91656299D01*
X97626771Y-91663229D01*
X97628559Y-91670368D01*
X97629639Y-91677649D01*
X97630000Y-91685000D01*
X97630000Y-93010000D01*
X97629639Y-93017351D01*
X97628559Y-93024632D01*
X97626771Y-93031771D01*
X97624291Y-93038701D01*
X97621144Y-93045355D01*
X97617360Y-93051668D01*
X97612976Y-93057579D01*
X97608033Y-93063033D01*
X97602579Y-93067976D01*
X97596668Y-93072360D01*
X97590355Y-93076144D01*
X97583701Y-93079291D01*
X97576771Y-93081771D01*
X97569632Y-93083559D01*
X97562351Y-93084639D01*
X97555000Y-93085000D01*
X97405000Y-93085000D01*
X97397649Y-93084639D01*
X97390368Y-93083559D01*
X97383229Y-93081771D01*
X97376299Y-93079291D01*
X97369645Y-93076144D01*
X97363332Y-93072360D01*
X97357421Y-93067976D01*
X97351967Y-93063033D01*
X97347024Y-93057579D01*
X97342640Y-93051668D01*
X97338856Y-93045355D01*
X97335709Y-93038701D01*
X97333229Y-93031771D01*
X97331441Y-93024632D01*
X97330361Y-93017351D01*
X97330000Y-93010000D01*
X97330000Y-91685000D01*
X97330361Y-91677649D01*
X97331441Y-91670368D01*
X97333229Y-91663229D01*
X97335709Y-91656299D01*
X97338856Y-91649645D01*
X97342640Y-91643332D01*
X97347024Y-91637421D01*
X97351967Y-91631967D01*
X97357421Y-91627024D01*
X97363332Y-91622640D01*
X97369645Y-91618856D01*
X97376299Y-91615709D01*
X97383229Y-91613229D01*
X97390368Y-91611441D01*
X97397649Y-91610361D01*
X97405000Y-91610000D01*
X97555000Y-91610000D01*
X97562351Y-91610361D01*
G37*
%TD*%
%TO.C,R10*%
G36*
X105822691Y-103421053D02*
G01*
X105843926Y-103424203D01*
X105864750Y-103429419D01*
X105884962Y-103436651D01*
X105904368Y-103445830D01*
X105922781Y-103456866D01*
X105940024Y-103469654D01*
X105955930Y-103484070D01*
X105970346Y-103499976D01*
X105983134Y-103517219D01*
X105994170Y-103535632D01*
X106003349Y-103555038D01*
X106010581Y-103575250D01*
X106015797Y-103596074D01*
X106018947Y-103617309D01*
X106020000Y-103638750D01*
X106020000Y-104076250D01*
X106018947Y-104097691D01*
X106015797Y-104118926D01*
X106010581Y-104139750D01*
X106003349Y-104159962D01*
X105994170Y-104179368D01*
X105983134Y-104197781D01*
X105970346Y-104215024D01*
X105955930Y-104230930D01*
X105940024Y-104245346D01*
X105922781Y-104258134D01*
X105904368Y-104269170D01*
X105884962Y-104278349D01*
X105864750Y-104285581D01*
X105843926Y-104290797D01*
X105822691Y-104293947D01*
X105801250Y-104295000D01*
X105288750Y-104295000D01*
X105267309Y-104293947D01*
X105246074Y-104290797D01*
X105225250Y-104285581D01*
X105205038Y-104278349D01*
X105185632Y-104269170D01*
X105167219Y-104258134D01*
X105149976Y-104245346D01*
X105134070Y-104230930D01*
X105119654Y-104215024D01*
X105106866Y-104197781D01*
X105095830Y-104179368D01*
X105086651Y-104159962D01*
X105079419Y-104139750D01*
X105074203Y-104118926D01*
X105071053Y-104097691D01*
X105070000Y-104076250D01*
X105070000Y-103638750D01*
X105071053Y-103617309D01*
X105074203Y-103596074D01*
X105079419Y-103575250D01*
X105086651Y-103555038D01*
X105095830Y-103535632D01*
X105106866Y-103517219D01*
X105119654Y-103499976D01*
X105134070Y-103484070D01*
X105149976Y-103469654D01*
X105167219Y-103456866D01*
X105185632Y-103445830D01*
X105205038Y-103436651D01*
X105225250Y-103429419D01*
X105246074Y-103424203D01*
X105267309Y-103421053D01*
X105288750Y-103420000D01*
X105801250Y-103420000D01*
X105822691Y-103421053D01*
G37*
G36*
X105822691Y-101846053D02*
G01*
X105843926Y-101849203D01*
X105864750Y-101854419D01*
X105884962Y-101861651D01*
X105904368Y-101870830D01*
X105922781Y-101881866D01*
X105940024Y-101894654D01*
X105955930Y-101909070D01*
X105970346Y-101924976D01*
X105983134Y-101942219D01*
X105994170Y-101960632D01*
X106003349Y-101980038D01*
X106010581Y-102000250D01*
X106015797Y-102021074D01*
X106018947Y-102042309D01*
X106020000Y-102063750D01*
X106020000Y-102501250D01*
X106018947Y-102522691D01*
X106015797Y-102543926D01*
X106010581Y-102564750D01*
X106003349Y-102584962D01*
X105994170Y-102604368D01*
X105983134Y-102622781D01*
X105970346Y-102640024D01*
X105955930Y-102655930D01*
X105940024Y-102670346D01*
X105922781Y-102683134D01*
X105904368Y-102694170D01*
X105884962Y-102703349D01*
X105864750Y-102710581D01*
X105843926Y-102715797D01*
X105822691Y-102718947D01*
X105801250Y-102720000D01*
X105288750Y-102720000D01*
X105267309Y-102718947D01*
X105246074Y-102715797D01*
X105225250Y-102710581D01*
X105205038Y-102703349D01*
X105185632Y-102694170D01*
X105167219Y-102683134D01*
X105149976Y-102670346D01*
X105134070Y-102655930D01*
X105119654Y-102640024D01*
X105106866Y-102622781D01*
X105095830Y-102604368D01*
X105086651Y-102584962D01*
X105079419Y-102564750D01*
X105074203Y-102543926D01*
X105071053Y-102522691D01*
X105070000Y-102501250D01*
X105070000Y-102063750D01*
X105071053Y-102042309D01*
X105074203Y-102021074D01*
X105079419Y-102000250D01*
X105086651Y-101980038D01*
X105095830Y-101960632D01*
X105106866Y-101942219D01*
X105119654Y-101924976D01*
X105134070Y-101909070D01*
X105149976Y-101894654D01*
X105167219Y-101881866D01*
X105185632Y-101870830D01*
X105205038Y-101861651D01*
X105225250Y-101854419D01*
X105246074Y-101849203D01*
X105267309Y-101846053D01*
X105288750Y-101845000D01*
X105801250Y-101845000D01*
X105822691Y-101846053D01*
G37*
%TD*%
%TO.C,R6*%
G36*
X109643101Y-93082155D02*
G01*
X109664427Y-93084609D01*
X109685411Y-93089141D01*
X109705849Y-93095708D01*
X109725545Y-93104246D01*
X109744309Y-93114674D01*
X109761961Y-93126891D01*
X109778330Y-93140779D01*
X109793259Y-93156205D01*
X109806604Y-93173020D01*
X109818237Y-93191062D01*
X110036987Y-93569948D01*
X110046795Y-93589043D01*
X110054685Y-93609008D01*
X110060580Y-93629650D01*
X110064423Y-93650770D01*
X110066177Y-93672166D01*
X110065826Y-93693630D01*
X110063372Y-93714956D01*
X110058840Y-93735940D01*
X110052273Y-93756378D01*
X110043735Y-93776074D01*
X110033307Y-93794838D01*
X110021090Y-93812490D01*
X110007202Y-93828859D01*
X109991776Y-93843788D01*
X109974961Y-93857133D01*
X109956919Y-93868766D01*
X109513081Y-94125016D01*
X109493986Y-94134824D01*
X109474021Y-94142714D01*
X109453379Y-94148609D01*
X109432259Y-94152452D01*
X109410863Y-94154206D01*
X109389399Y-94153855D01*
X109368073Y-94151401D01*
X109347089Y-94146869D01*
X109326651Y-94140302D01*
X109306955Y-94131764D01*
X109288191Y-94121336D01*
X109270539Y-94109119D01*
X109254170Y-94095231D01*
X109239241Y-94079805D01*
X109225896Y-94062990D01*
X109214263Y-94044948D01*
X108995513Y-93666062D01*
X108985705Y-93646967D01*
X108977815Y-93627002D01*
X108971920Y-93606360D01*
X108968077Y-93585240D01*
X108966323Y-93563844D01*
X108966674Y-93542380D01*
X108969128Y-93521054D01*
X108973660Y-93500070D01*
X108980227Y-93479632D01*
X108988765Y-93459936D01*
X108999193Y-93441172D01*
X109011410Y-93423520D01*
X109025298Y-93407151D01*
X109040724Y-93392222D01*
X109057539Y-93378877D01*
X109075581Y-93367244D01*
X109519419Y-93110994D01*
X109538514Y-93101186D01*
X109558479Y-93093296D01*
X109579121Y-93087401D01*
X109600241Y-93083558D01*
X109621637Y-93081804D01*
X109643101Y-93082155D01*
G37*
G36*
X110430601Y-94446145D02*
G01*
X110451927Y-94448599D01*
X110472911Y-94453131D01*
X110493349Y-94459698D01*
X110513045Y-94468236D01*
X110531809Y-94478664D01*
X110549461Y-94490881D01*
X110565830Y-94504769D01*
X110580759Y-94520195D01*
X110594104Y-94537010D01*
X110605737Y-94555052D01*
X110824487Y-94933938D01*
X110834295Y-94953033D01*
X110842185Y-94972998D01*
X110848080Y-94993640D01*
X110851923Y-95014760D01*
X110853677Y-95036156D01*
X110853326Y-95057620D01*
X110850872Y-95078946D01*
X110846340Y-95099930D01*
X110839773Y-95120368D01*
X110831235Y-95140064D01*
X110820807Y-95158828D01*
X110808590Y-95176480D01*
X110794702Y-95192849D01*
X110779276Y-95207778D01*
X110762461Y-95221123D01*
X110744419Y-95232756D01*
X110300581Y-95489006D01*
X110281486Y-95498814D01*
X110261521Y-95506704D01*
X110240879Y-95512599D01*
X110219759Y-95516442D01*
X110198363Y-95518196D01*
X110176899Y-95517845D01*
X110155573Y-95515391D01*
X110134589Y-95510859D01*
X110114151Y-95504292D01*
X110094455Y-95495754D01*
X110075691Y-95485326D01*
X110058039Y-95473109D01*
X110041670Y-95459221D01*
X110026741Y-95443795D01*
X110013396Y-95426980D01*
X110001763Y-95408938D01*
X109783013Y-95030052D01*
X109773205Y-95010957D01*
X109765315Y-94990992D01*
X109759420Y-94970350D01*
X109755577Y-94949230D01*
X109753823Y-94927834D01*
X109754174Y-94906370D01*
X109756628Y-94885044D01*
X109761160Y-94864060D01*
X109767727Y-94843622D01*
X109776265Y-94823926D01*
X109786693Y-94805162D01*
X109798910Y-94787510D01*
X109812798Y-94771141D01*
X109828224Y-94756212D01*
X109845039Y-94742867D01*
X109863081Y-94731234D01*
X110306919Y-94474984D01*
X110326014Y-94465176D01*
X110345979Y-94457286D01*
X110366621Y-94451391D01*
X110387741Y-94447548D01*
X110409137Y-94445794D01*
X110430601Y-94446145D01*
G37*
%TD*%
%TO.C,R5*%
G36*
X111338907Y-95971307D02*
G01*
X111360259Y-95973528D01*
X111381290Y-95977831D01*
X111401799Y-95984174D01*
X111421587Y-95992497D01*
X111440464Y-96002720D01*
X111458248Y-96014744D01*
X111474767Y-96028453D01*
X111489864Y-96043715D01*
X111503392Y-96060383D01*
X111515221Y-96078297D01*
X111525237Y-96097285D01*
X111710132Y-96493795D01*
X111718239Y-96513672D01*
X111724358Y-96534248D01*
X111728431Y-96555326D01*
X111730419Y-96576701D01*
X111730302Y-96598167D01*
X111728081Y-96619519D01*
X111723778Y-96640551D01*
X111717435Y-96661059D01*
X111709111Y-96680847D01*
X111698889Y-96699724D01*
X111686865Y-96717508D01*
X111673156Y-96734028D01*
X111657894Y-96749124D01*
X111641226Y-96762652D01*
X111623312Y-96774481D01*
X111604325Y-96784497D01*
X111139842Y-97001089D01*
X111119964Y-97009196D01*
X111099388Y-97015315D01*
X111078311Y-97019388D01*
X111056936Y-97021376D01*
X111035469Y-97021259D01*
X111014117Y-97019038D01*
X110993086Y-97014735D01*
X110972577Y-97008392D01*
X110952789Y-97000069D01*
X110933912Y-96989846D01*
X110916128Y-96977822D01*
X110899609Y-96964113D01*
X110884512Y-96948851D01*
X110870984Y-96932183D01*
X110859155Y-96914269D01*
X110849139Y-96895281D01*
X110664244Y-96498771D01*
X110656137Y-96478894D01*
X110650018Y-96458318D01*
X110645945Y-96437240D01*
X110643957Y-96415865D01*
X110644074Y-96394399D01*
X110646295Y-96373047D01*
X110650598Y-96352015D01*
X110656941Y-96331507D01*
X110665265Y-96311719D01*
X110675487Y-96292842D01*
X110687511Y-96275058D01*
X110701220Y-96258538D01*
X110716482Y-96243442D01*
X110733150Y-96229914D01*
X110751064Y-96218085D01*
X110770051Y-96208069D01*
X111234534Y-95991477D01*
X111254412Y-95983370D01*
X111274988Y-95977251D01*
X111296065Y-95973178D01*
X111317440Y-95971190D01*
X111338907Y-95971307D01*
G37*
G36*
X112004531Y-97398741D02*
G01*
X112025883Y-97400962D01*
X112046914Y-97405265D01*
X112067423Y-97411608D01*
X112087211Y-97419931D01*
X112106088Y-97430154D01*
X112123872Y-97442178D01*
X112140391Y-97455887D01*
X112155488Y-97471149D01*
X112169016Y-97487817D01*
X112180845Y-97505731D01*
X112190861Y-97524719D01*
X112375756Y-97921229D01*
X112383863Y-97941106D01*
X112389982Y-97961682D01*
X112394055Y-97982760D01*
X112396043Y-98004135D01*
X112395926Y-98025601D01*
X112393705Y-98046953D01*
X112389402Y-98067985D01*
X112383059Y-98088493D01*
X112374735Y-98108281D01*
X112364513Y-98127158D01*
X112352489Y-98144942D01*
X112338780Y-98161462D01*
X112323518Y-98176558D01*
X112306850Y-98190086D01*
X112288936Y-98201915D01*
X112269949Y-98211931D01*
X111805466Y-98428523D01*
X111785588Y-98436630D01*
X111765012Y-98442749D01*
X111743935Y-98446822D01*
X111722560Y-98448810D01*
X111701093Y-98448693D01*
X111679741Y-98446472D01*
X111658710Y-98442169D01*
X111638201Y-98435826D01*
X111618413Y-98427503D01*
X111599536Y-98417280D01*
X111581752Y-98405256D01*
X111565233Y-98391547D01*
X111550136Y-98376285D01*
X111536608Y-98359617D01*
X111524779Y-98341703D01*
X111514763Y-98322715D01*
X111329868Y-97926205D01*
X111321761Y-97906328D01*
X111315642Y-97885752D01*
X111311569Y-97864674D01*
X111309581Y-97843299D01*
X111309698Y-97821833D01*
X111311919Y-97800481D01*
X111316222Y-97779449D01*
X111322565Y-97758941D01*
X111330889Y-97739153D01*
X111341111Y-97720276D01*
X111353135Y-97702492D01*
X111366844Y-97685972D01*
X111382106Y-97670876D01*
X111398774Y-97657348D01*
X111416688Y-97645519D01*
X111435675Y-97635503D01*
X111900158Y-97418911D01*
X111920036Y-97410804D01*
X111940612Y-97404685D01*
X111961689Y-97400612D01*
X111983064Y-97398624D01*
X112004531Y-97398741D01*
G37*
%TD*%
%TO.C,R4*%
G36*
X105622691Y-88921053D02*
G01*
X105643926Y-88924203D01*
X105664750Y-88929419D01*
X105684962Y-88936651D01*
X105704368Y-88945830D01*
X105722781Y-88956866D01*
X105740024Y-88969654D01*
X105755930Y-88984070D01*
X105770346Y-88999976D01*
X105783134Y-89017219D01*
X105794170Y-89035632D01*
X105803349Y-89055038D01*
X105810581Y-89075250D01*
X105815797Y-89096074D01*
X105818947Y-89117309D01*
X105820000Y-89138750D01*
X105820000Y-89651250D01*
X105818947Y-89672691D01*
X105815797Y-89693926D01*
X105810581Y-89714750D01*
X105803349Y-89734962D01*
X105794170Y-89754368D01*
X105783134Y-89772781D01*
X105770346Y-89790024D01*
X105755930Y-89805930D01*
X105740024Y-89820346D01*
X105722781Y-89833134D01*
X105704368Y-89844170D01*
X105684962Y-89853349D01*
X105664750Y-89860581D01*
X105643926Y-89865797D01*
X105622691Y-89868947D01*
X105601250Y-89870000D01*
X105163750Y-89870000D01*
X105142309Y-89868947D01*
X105121074Y-89865797D01*
X105100250Y-89860581D01*
X105080038Y-89853349D01*
X105060632Y-89844170D01*
X105042219Y-89833134D01*
X105024976Y-89820346D01*
X105009070Y-89805930D01*
X104994654Y-89790024D01*
X104981866Y-89772781D01*
X104970830Y-89754368D01*
X104961651Y-89734962D01*
X104954419Y-89714750D01*
X104949203Y-89693926D01*
X104946053Y-89672691D01*
X104945000Y-89651250D01*
X104945000Y-89138750D01*
X104946053Y-89117309D01*
X104949203Y-89096074D01*
X104954419Y-89075250D01*
X104961651Y-89055038D01*
X104970830Y-89035632D01*
X104981866Y-89017219D01*
X104994654Y-88999976D01*
X105009070Y-88984070D01*
X105024976Y-88969654D01*
X105042219Y-88956866D01*
X105060632Y-88945830D01*
X105080038Y-88936651D01*
X105100250Y-88929419D01*
X105121074Y-88924203D01*
X105142309Y-88921053D01*
X105163750Y-88920000D01*
X105601250Y-88920000D01*
X105622691Y-88921053D01*
G37*
G36*
X104047691Y-88921053D02*
G01*
X104068926Y-88924203D01*
X104089750Y-88929419D01*
X104109962Y-88936651D01*
X104129368Y-88945830D01*
X104147781Y-88956866D01*
X104165024Y-88969654D01*
X104180930Y-88984070D01*
X104195346Y-88999976D01*
X104208134Y-89017219D01*
X104219170Y-89035632D01*
X104228349Y-89055038D01*
X104235581Y-89075250D01*
X104240797Y-89096074D01*
X104243947Y-89117309D01*
X104245000Y-89138750D01*
X104245000Y-89651250D01*
X104243947Y-89672691D01*
X104240797Y-89693926D01*
X104235581Y-89714750D01*
X104228349Y-89734962D01*
X104219170Y-89754368D01*
X104208134Y-89772781D01*
X104195346Y-89790024D01*
X104180930Y-89805930D01*
X104165024Y-89820346D01*
X104147781Y-89833134D01*
X104129368Y-89844170D01*
X104109962Y-89853349D01*
X104089750Y-89860581D01*
X104068926Y-89865797D01*
X104047691Y-89868947D01*
X104026250Y-89870000D01*
X103588750Y-89870000D01*
X103567309Y-89868947D01*
X103546074Y-89865797D01*
X103525250Y-89860581D01*
X103505038Y-89853349D01*
X103485632Y-89844170D01*
X103467219Y-89833134D01*
X103449976Y-89820346D01*
X103434070Y-89805930D01*
X103419654Y-89790024D01*
X103406866Y-89772781D01*
X103395830Y-89754368D01*
X103386651Y-89734962D01*
X103379419Y-89714750D01*
X103374203Y-89693926D01*
X103371053Y-89672691D01*
X103370000Y-89651250D01*
X103370000Y-89138750D01*
X103371053Y-89117309D01*
X103374203Y-89096074D01*
X103379419Y-89075250D01*
X103386651Y-89055038D01*
X103395830Y-89035632D01*
X103406866Y-89017219D01*
X103419654Y-88999976D01*
X103434070Y-88984070D01*
X103449976Y-88969654D01*
X103467219Y-88956866D01*
X103485632Y-88945830D01*
X103505038Y-88936651D01*
X103525250Y-88929419D01*
X103546074Y-88924203D01*
X103567309Y-88921053D01*
X103588750Y-88920000D01*
X104026250Y-88920000D01*
X104047691Y-88921053D01*
G37*
%TD*%
%TO.C,R3*%
G36*
X102597691Y-88071053D02*
G01*
X102618926Y-88074203D01*
X102639750Y-88079419D01*
X102659962Y-88086651D01*
X102679368Y-88095830D01*
X102697781Y-88106866D01*
X102715024Y-88119654D01*
X102730930Y-88134070D01*
X102745346Y-88149976D01*
X102758134Y-88167219D01*
X102769170Y-88185632D01*
X102778349Y-88205038D01*
X102785581Y-88225250D01*
X102790797Y-88246074D01*
X102793947Y-88267309D01*
X102795000Y-88288750D01*
X102795000Y-88726250D01*
X102793947Y-88747691D01*
X102790797Y-88768926D01*
X102785581Y-88789750D01*
X102778349Y-88809962D01*
X102769170Y-88829368D01*
X102758134Y-88847781D01*
X102745346Y-88865024D01*
X102730930Y-88880930D01*
X102715024Y-88895346D01*
X102697781Y-88908134D01*
X102679368Y-88919170D01*
X102659962Y-88928349D01*
X102639750Y-88935581D01*
X102618926Y-88940797D01*
X102597691Y-88943947D01*
X102576250Y-88945000D01*
X102063750Y-88945000D01*
X102042309Y-88943947D01*
X102021074Y-88940797D01*
X102000250Y-88935581D01*
X101980038Y-88928349D01*
X101960632Y-88919170D01*
X101942219Y-88908134D01*
X101924976Y-88895346D01*
X101909070Y-88880930D01*
X101894654Y-88865024D01*
X101881866Y-88847781D01*
X101870830Y-88829368D01*
X101861651Y-88809962D01*
X101854419Y-88789750D01*
X101849203Y-88768926D01*
X101846053Y-88747691D01*
X101845000Y-88726250D01*
X101845000Y-88288750D01*
X101846053Y-88267309D01*
X101849203Y-88246074D01*
X101854419Y-88225250D01*
X101861651Y-88205038D01*
X101870830Y-88185632D01*
X101881866Y-88167219D01*
X101894654Y-88149976D01*
X101909070Y-88134070D01*
X101924976Y-88119654D01*
X101942219Y-88106866D01*
X101960632Y-88095830D01*
X101980038Y-88086651D01*
X102000250Y-88079419D01*
X102021074Y-88074203D01*
X102042309Y-88071053D01*
X102063750Y-88070000D01*
X102576250Y-88070000D01*
X102597691Y-88071053D01*
G37*
G36*
X102597691Y-89646053D02*
G01*
X102618926Y-89649203D01*
X102639750Y-89654419D01*
X102659962Y-89661651D01*
X102679368Y-89670830D01*
X102697781Y-89681866D01*
X102715024Y-89694654D01*
X102730930Y-89709070D01*
X102745346Y-89724976D01*
X102758134Y-89742219D01*
X102769170Y-89760632D01*
X102778349Y-89780038D01*
X102785581Y-89800250D01*
X102790797Y-89821074D01*
X102793947Y-89842309D01*
X102795000Y-89863750D01*
X102795000Y-90301250D01*
X102793947Y-90322691D01*
X102790797Y-90343926D01*
X102785581Y-90364750D01*
X102778349Y-90384962D01*
X102769170Y-90404368D01*
X102758134Y-90422781D01*
X102745346Y-90440024D01*
X102730930Y-90455930D01*
X102715024Y-90470346D01*
X102697781Y-90483134D01*
X102679368Y-90494170D01*
X102659962Y-90503349D01*
X102639750Y-90510581D01*
X102618926Y-90515797D01*
X102597691Y-90518947D01*
X102576250Y-90520000D01*
X102063750Y-90520000D01*
X102042309Y-90518947D01*
X102021074Y-90515797D01*
X102000250Y-90510581D01*
X101980038Y-90503349D01*
X101960632Y-90494170D01*
X101942219Y-90483134D01*
X101924976Y-90470346D01*
X101909070Y-90455930D01*
X101894654Y-90440024D01*
X101881866Y-90422781D01*
X101870830Y-90404368D01*
X101861651Y-90384962D01*
X101854419Y-90364750D01*
X101849203Y-90343926D01*
X101846053Y-90322691D01*
X101845000Y-90301250D01*
X101845000Y-89863750D01*
X101846053Y-89842309D01*
X101849203Y-89821074D01*
X101854419Y-89800250D01*
X101861651Y-89780038D01*
X101870830Y-89760632D01*
X101881866Y-89742219D01*
X101894654Y-89724976D01*
X101909070Y-89709070D01*
X101924976Y-89694654D01*
X101942219Y-89681866D01*
X101960632Y-89670830D01*
X101980038Y-89661651D01*
X102000250Y-89654419D01*
X102021074Y-89649203D01*
X102042309Y-89646053D01*
X102063750Y-89645000D01*
X102576250Y-89645000D01*
X102597691Y-89646053D01*
G37*
%TD*%
%TO.C,R2*%
G36*
X92041771Y-90379580D02*
G01*
X92063006Y-90382730D01*
X92083830Y-90387946D01*
X92104042Y-90395178D01*
X92123448Y-90404357D01*
X92141861Y-90415393D01*
X92159104Y-90428181D01*
X92175010Y-90442597D01*
X92537403Y-90804990D01*
X92551819Y-90820896D01*
X92564607Y-90838139D01*
X92575643Y-90856552D01*
X92584822Y-90875958D01*
X92592054Y-90896170D01*
X92597270Y-90916994D01*
X92600420Y-90938229D01*
X92601473Y-90959670D01*
X92600420Y-90981111D01*
X92597270Y-91002346D01*
X92592054Y-91023170D01*
X92584822Y-91043382D01*
X92575643Y-91062788D01*
X92564607Y-91081201D01*
X92551819Y-91098444D01*
X92537403Y-91114350D01*
X92228044Y-91423709D01*
X92212138Y-91438125D01*
X92194895Y-91450913D01*
X92176482Y-91461949D01*
X92157076Y-91471128D01*
X92136864Y-91478360D01*
X92116040Y-91483576D01*
X92094805Y-91486726D01*
X92073364Y-91487779D01*
X92051923Y-91486726D01*
X92030688Y-91483576D01*
X92009864Y-91478360D01*
X91989652Y-91471128D01*
X91970246Y-91461949D01*
X91951833Y-91450913D01*
X91934590Y-91438125D01*
X91918684Y-91423709D01*
X91556291Y-91061316D01*
X91541875Y-91045410D01*
X91529087Y-91028167D01*
X91518051Y-91009754D01*
X91508872Y-90990348D01*
X91501640Y-90970136D01*
X91496424Y-90949312D01*
X91493274Y-90928077D01*
X91492221Y-90906636D01*
X91493274Y-90885195D01*
X91496424Y-90863960D01*
X91501640Y-90843136D01*
X91508872Y-90822924D01*
X91518051Y-90803518D01*
X91529087Y-90785105D01*
X91541875Y-90767862D01*
X91556291Y-90751956D01*
X91865650Y-90442597D01*
X91881556Y-90428181D01*
X91898799Y-90415393D01*
X91917212Y-90404357D01*
X91936618Y-90395178D01*
X91956830Y-90387946D01*
X91977654Y-90382730D01*
X91998889Y-90379580D01*
X92020330Y-90378527D01*
X92041771Y-90379580D01*
G37*
G36*
X90928077Y-91493274D02*
G01*
X90949312Y-91496424D01*
X90970136Y-91501640D01*
X90990348Y-91508872D01*
X91009754Y-91518051D01*
X91028167Y-91529087D01*
X91045410Y-91541875D01*
X91061316Y-91556291D01*
X91423709Y-91918684D01*
X91438125Y-91934590D01*
X91450913Y-91951833D01*
X91461949Y-91970246D01*
X91471128Y-91989652D01*
X91478360Y-92009864D01*
X91483576Y-92030688D01*
X91486726Y-92051923D01*
X91487779Y-92073364D01*
X91486726Y-92094805D01*
X91483576Y-92116040D01*
X91478360Y-92136864D01*
X91471128Y-92157076D01*
X91461949Y-92176482D01*
X91450913Y-92194895D01*
X91438125Y-92212138D01*
X91423709Y-92228044D01*
X91114350Y-92537403D01*
X91098444Y-92551819D01*
X91081201Y-92564607D01*
X91062788Y-92575643D01*
X91043382Y-92584822D01*
X91023170Y-92592054D01*
X91002346Y-92597270D01*
X90981111Y-92600420D01*
X90959670Y-92601473D01*
X90938229Y-92600420D01*
X90916994Y-92597270D01*
X90896170Y-92592054D01*
X90875958Y-92584822D01*
X90856552Y-92575643D01*
X90838139Y-92564607D01*
X90820896Y-92551819D01*
X90804990Y-92537403D01*
X90442597Y-92175010D01*
X90428181Y-92159104D01*
X90415393Y-92141861D01*
X90404357Y-92123448D01*
X90395178Y-92104042D01*
X90387946Y-92083830D01*
X90382730Y-92063006D01*
X90379580Y-92041771D01*
X90378527Y-92020330D01*
X90379580Y-91998889D01*
X90382730Y-91977654D01*
X90387946Y-91956830D01*
X90395178Y-91936618D01*
X90404357Y-91917212D01*
X90415393Y-91898799D01*
X90428181Y-91881556D01*
X90442597Y-91865650D01*
X90751956Y-91556291D01*
X90767862Y-91541875D01*
X90785105Y-91529087D01*
X90803518Y-91518051D01*
X90822924Y-91508872D01*
X90843136Y-91501640D01*
X90863960Y-91496424D01*
X90885195Y-91493274D01*
X90906636Y-91492221D01*
X90928077Y-91493274D01*
G37*
%TD*%
%TO.C,R1*%
G36*
X95958167Y-88284698D02*
G01*
X95979519Y-88286919D01*
X96000551Y-88291222D01*
X96021059Y-88297565D01*
X96040847Y-88305889D01*
X96059724Y-88316111D01*
X96077508Y-88328135D01*
X96094028Y-88341844D01*
X96109124Y-88357106D01*
X96122652Y-88373774D01*
X96134481Y-88391688D01*
X96144497Y-88410675D01*
X96361089Y-88875158D01*
X96369196Y-88895036D01*
X96375315Y-88915612D01*
X96379388Y-88936689D01*
X96381376Y-88958064D01*
X96381259Y-88979531D01*
X96379038Y-89000883D01*
X96374735Y-89021914D01*
X96368392Y-89042423D01*
X96360069Y-89062211D01*
X96349846Y-89081088D01*
X96337822Y-89098872D01*
X96324113Y-89115391D01*
X96308851Y-89130488D01*
X96292183Y-89144016D01*
X96274269Y-89155845D01*
X96255281Y-89165861D01*
X95858771Y-89350756D01*
X95838894Y-89358863D01*
X95818318Y-89364982D01*
X95797240Y-89369055D01*
X95775865Y-89371043D01*
X95754399Y-89370926D01*
X95733047Y-89368705D01*
X95712015Y-89364402D01*
X95691507Y-89358059D01*
X95671719Y-89349735D01*
X95652842Y-89339513D01*
X95635058Y-89327489D01*
X95618538Y-89313780D01*
X95603442Y-89298518D01*
X95589914Y-89281850D01*
X95578085Y-89263936D01*
X95568069Y-89244949D01*
X95351477Y-88780466D01*
X95343370Y-88760588D01*
X95337251Y-88740012D01*
X95333178Y-88718935D01*
X95331190Y-88697560D01*
X95331307Y-88676093D01*
X95333528Y-88654741D01*
X95337831Y-88633710D01*
X95344174Y-88613201D01*
X95352497Y-88593413D01*
X95362720Y-88574536D01*
X95374744Y-88556752D01*
X95388453Y-88540233D01*
X95403715Y-88525136D01*
X95420383Y-88511608D01*
X95438297Y-88499779D01*
X95457285Y-88489763D01*
X95853795Y-88304868D01*
X95873672Y-88296761D01*
X95894248Y-88290642D01*
X95915326Y-88286569D01*
X95936701Y-88284581D01*
X95958167Y-88284698D01*
G37*
G36*
X97385601Y-87619074D02*
G01*
X97406953Y-87621295D01*
X97427985Y-87625598D01*
X97448493Y-87631941D01*
X97468281Y-87640265D01*
X97487158Y-87650487D01*
X97504942Y-87662511D01*
X97521462Y-87676220D01*
X97536558Y-87691482D01*
X97550086Y-87708150D01*
X97561915Y-87726064D01*
X97571931Y-87745051D01*
X97788523Y-88209534D01*
X97796630Y-88229412D01*
X97802749Y-88249988D01*
X97806822Y-88271065D01*
X97808810Y-88292440D01*
X97808693Y-88313907D01*
X97806472Y-88335259D01*
X97802169Y-88356290D01*
X97795826Y-88376799D01*
X97787503Y-88396587D01*
X97777280Y-88415464D01*
X97765256Y-88433248D01*
X97751547Y-88449767D01*
X97736285Y-88464864D01*
X97719617Y-88478392D01*
X97701703Y-88490221D01*
X97682715Y-88500237D01*
X97286205Y-88685132D01*
X97266328Y-88693239D01*
X97245752Y-88699358D01*
X97224674Y-88703431D01*
X97203299Y-88705419D01*
X97181833Y-88705302D01*
X97160481Y-88703081D01*
X97139449Y-88698778D01*
X97118941Y-88692435D01*
X97099153Y-88684111D01*
X97080276Y-88673889D01*
X97062492Y-88661865D01*
X97045972Y-88648156D01*
X97030876Y-88632894D01*
X97017348Y-88616226D01*
X97005519Y-88598312D01*
X96995503Y-88579325D01*
X96778911Y-88114842D01*
X96770804Y-88094964D01*
X96764685Y-88074388D01*
X96760612Y-88053311D01*
X96758624Y-88031936D01*
X96758741Y-88010469D01*
X96760962Y-87989117D01*
X96765265Y-87968086D01*
X96771608Y-87947577D01*
X96779931Y-87927789D01*
X96790154Y-87908912D01*
X96802178Y-87891128D01*
X96815887Y-87874609D01*
X96831149Y-87859512D01*
X96847817Y-87845984D01*
X96865731Y-87834155D01*
X96884719Y-87824139D01*
X97281229Y-87639244D01*
X97301106Y-87631137D01*
X97321682Y-87625018D01*
X97342760Y-87620945D01*
X97364135Y-87618957D01*
X97385601Y-87619074D01*
G37*
%TD*%
%TO.C,D2*%
G36*
X94752620Y-88976674D02*
G01*
X94773946Y-88979128D01*
X94794930Y-88983660D01*
X94815368Y-88990227D01*
X94835064Y-88998765D01*
X94853828Y-89009193D01*
X94871480Y-89021410D01*
X94887849Y-89035298D01*
X94902778Y-89050724D01*
X94916123Y-89067539D01*
X94927756Y-89085581D01*
X95184006Y-89529419D01*
X95193814Y-89548514D01*
X95201704Y-89568479D01*
X95207599Y-89589121D01*
X95211442Y-89610241D01*
X95213196Y-89631637D01*
X95212845Y-89653101D01*
X95210391Y-89674427D01*
X95205859Y-89695411D01*
X95199292Y-89715849D01*
X95190754Y-89735545D01*
X95180326Y-89754309D01*
X95168109Y-89771961D01*
X95154221Y-89788330D01*
X95138795Y-89803259D01*
X95121980Y-89816604D01*
X95103938Y-89828237D01*
X94725052Y-90046987D01*
X94705957Y-90056795D01*
X94685992Y-90064685D01*
X94665350Y-90070580D01*
X94644230Y-90074423D01*
X94622834Y-90076177D01*
X94601370Y-90075826D01*
X94580044Y-90073372D01*
X94559060Y-90068840D01*
X94538622Y-90062273D01*
X94518926Y-90053735D01*
X94500162Y-90043307D01*
X94482510Y-90031090D01*
X94466141Y-90017202D01*
X94451212Y-90001776D01*
X94437867Y-89984961D01*
X94426234Y-89966919D01*
X94169984Y-89523081D01*
X94160176Y-89503986D01*
X94152286Y-89484021D01*
X94146391Y-89463379D01*
X94142548Y-89442259D01*
X94140794Y-89420863D01*
X94141145Y-89399399D01*
X94143599Y-89378073D01*
X94148131Y-89357089D01*
X94154698Y-89336651D01*
X94163236Y-89316955D01*
X94173664Y-89298191D01*
X94185881Y-89280539D01*
X94199769Y-89264170D01*
X94215195Y-89249241D01*
X94232010Y-89235896D01*
X94250052Y-89224263D01*
X94628938Y-89005513D01*
X94648033Y-88995705D01*
X94667998Y-88987815D01*
X94688640Y-88981920D01*
X94709760Y-88978077D01*
X94731156Y-88976323D01*
X94752620Y-88976674D01*
G37*
G36*
X93388630Y-89764174D02*
G01*
X93409956Y-89766628D01*
X93430940Y-89771160D01*
X93451378Y-89777727D01*
X93471074Y-89786265D01*
X93489838Y-89796693D01*
X93507490Y-89808910D01*
X93523859Y-89822798D01*
X93538788Y-89838224D01*
X93552133Y-89855039D01*
X93563766Y-89873081D01*
X93820016Y-90316919D01*
X93829824Y-90336014D01*
X93837714Y-90355979D01*
X93843609Y-90376621D01*
X93847452Y-90397741D01*
X93849206Y-90419137D01*
X93848855Y-90440601D01*
X93846401Y-90461927D01*
X93841869Y-90482911D01*
X93835302Y-90503349D01*
X93826764Y-90523045D01*
X93816336Y-90541809D01*
X93804119Y-90559461D01*
X93790231Y-90575830D01*
X93774805Y-90590759D01*
X93757990Y-90604104D01*
X93739948Y-90615737D01*
X93361062Y-90834487D01*
X93341967Y-90844295D01*
X93322002Y-90852185D01*
X93301360Y-90858080D01*
X93280240Y-90861923D01*
X93258844Y-90863677D01*
X93237380Y-90863326D01*
X93216054Y-90860872D01*
X93195070Y-90856340D01*
X93174632Y-90849773D01*
X93154936Y-90841235D01*
X93136172Y-90830807D01*
X93118520Y-90818590D01*
X93102151Y-90804702D01*
X93087222Y-90789276D01*
X93073877Y-90772461D01*
X93062244Y-90754419D01*
X92805994Y-90310581D01*
X92796186Y-90291486D01*
X92788296Y-90271521D01*
X92782401Y-90250879D01*
X92778558Y-90229759D01*
X92776804Y-90208363D01*
X92777155Y-90186899D01*
X92779609Y-90165573D01*
X92784141Y-90144589D01*
X92790708Y-90124151D01*
X92799246Y-90104455D01*
X92809674Y-90085691D01*
X92821891Y-90068039D01*
X92835779Y-90051670D01*
X92851205Y-90036741D01*
X92868020Y-90023396D01*
X92886062Y-90011763D01*
X93264948Y-89793013D01*
X93284043Y-89783205D01*
X93304008Y-89775315D01*
X93324650Y-89769420D01*
X93345770Y-89765577D01*
X93367166Y-89763823D01*
X93388630Y-89764174D01*
G37*
%TD*%
%TO.C,C19*%
G36*
X107372691Y-101121053D02*
G01*
X107393926Y-101124203D01*
X107414750Y-101129419D01*
X107434962Y-101136651D01*
X107454368Y-101145830D01*
X107472781Y-101156866D01*
X107490024Y-101169654D01*
X107505930Y-101184070D01*
X107520346Y-101199976D01*
X107533134Y-101217219D01*
X107544170Y-101235632D01*
X107553349Y-101255038D01*
X107560581Y-101275250D01*
X107565797Y-101296074D01*
X107568947Y-101317309D01*
X107570000Y-101338750D01*
X107570000Y-101776250D01*
X107568947Y-101797691D01*
X107565797Y-101818926D01*
X107560581Y-101839750D01*
X107553349Y-101859962D01*
X107544170Y-101879368D01*
X107533134Y-101897781D01*
X107520346Y-101915024D01*
X107505930Y-101930930D01*
X107490024Y-101945346D01*
X107472781Y-101958134D01*
X107454368Y-101969170D01*
X107434962Y-101978349D01*
X107414750Y-101985581D01*
X107393926Y-101990797D01*
X107372691Y-101993947D01*
X107351250Y-101995000D01*
X106838750Y-101995000D01*
X106817309Y-101993947D01*
X106796074Y-101990797D01*
X106775250Y-101985581D01*
X106755038Y-101978349D01*
X106735632Y-101969170D01*
X106717219Y-101958134D01*
X106699976Y-101945346D01*
X106684070Y-101930930D01*
X106669654Y-101915024D01*
X106656866Y-101897781D01*
X106645830Y-101879368D01*
X106636651Y-101859962D01*
X106629419Y-101839750D01*
X106624203Y-101818926D01*
X106621053Y-101797691D01*
X106620000Y-101776250D01*
X106620000Y-101338750D01*
X106621053Y-101317309D01*
X106624203Y-101296074D01*
X106629419Y-101275250D01*
X106636651Y-101255038D01*
X106645830Y-101235632D01*
X106656866Y-101217219D01*
X106669654Y-101199976D01*
X106684070Y-101184070D01*
X106699976Y-101169654D01*
X106717219Y-101156866D01*
X106735632Y-101145830D01*
X106755038Y-101136651D01*
X106775250Y-101129419D01*
X106796074Y-101124203D01*
X106817309Y-101121053D01*
X106838750Y-101120000D01*
X107351250Y-101120000D01*
X107372691Y-101121053D01*
G37*
G36*
X107372691Y-102696053D02*
G01*
X107393926Y-102699203D01*
X107414750Y-102704419D01*
X107434962Y-102711651D01*
X107454368Y-102720830D01*
X107472781Y-102731866D01*
X107490024Y-102744654D01*
X107505930Y-102759070D01*
X107520346Y-102774976D01*
X107533134Y-102792219D01*
X107544170Y-102810632D01*
X107553349Y-102830038D01*
X107560581Y-102850250D01*
X107565797Y-102871074D01*
X107568947Y-102892309D01*
X107570000Y-102913750D01*
X107570000Y-103351250D01*
X107568947Y-103372691D01*
X107565797Y-103393926D01*
X107560581Y-103414750D01*
X107553349Y-103434962D01*
X107544170Y-103454368D01*
X107533134Y-103472781D01*
X107520346Y-103490024D01*
X107505930Y-103505930D01*
X107490024Y-103520346D01*
X107472781Y-103533134D01*
X107454368Y-103544170D01*
X107434962Y-103553349D01*
X107414750Y-103560581D01*
X107393926Y-103565797D01*
X107372691Y-103568947D01*
X107351250Y-103570000D01*
X106838750Y-103570000D01*
X106817309Y-103568947D01*
X106796074Y-103565797D01*
X106775250Y-103560581D01*
X106755038Y-103553349D01*
X106735632Y-103544170D01*
X106717219Y-103533134D01*
X106699976Y-103520346D01*
X106684070Y-103505930D01*
X106669654Y-103490024D01*
X106656866Y-103472781D01*
X106645830Y-103454368D01*
X106636651Y-103434962D01*
X106629419Y-103414750D01*
X106624203Y-103393926D01*
X106621053Y-103372691D01*
X106620000Y-103351250D01*
X106620000Y-102913750D01*
X106621053Y-102892309D01*
X106624203Y-102871074D01*
X106629419Y-102850250D01*
X106636651Y-102830038D01*
X106645830Y-102810632D01*
X106656866Y-102792219D01*
X106669654Y-102774976D01*
X106684070Y-102759070D01*
X106699976Y-102744654D01*
X106717219Y-102731866D01*
X106735632Y-102720830D01*
X106755038Y-102711651D01*
X106775250Y-102704419D01*
X106796074Y-102699203D01*
X106817309Y-102696053D01*
X106838750Y-102695000D01*
X107351250Y-102695000D01*
X107372691Y-102696053D01*
G37*
%TD*%
%TO.C,C17*%
G36*
X96150222Y-110394796D02*
G01*
X96171521Y-110397482D01*
X96602374Y-110473454D01*
X96623307Y-110478215D01*
X96643672Y-110485004D01*
X96663273Y-110493757D01*
X96681923Y-110504389D01*
X96699440Y-110516798D01*
X96715657Y-110530864D01*
X96730417Y-110546452D01*
X96743578Y-110563412D01*
X96755013Y-110581579D01*
X96764613Y-110600781D01*
X96772284Y-110620830D01*
X96777953Y-110641535D01*
X96781565Y-110662696D01*
X96783086Y-110684109D01*
X96782501Y-110705569D01*
X96779815Y-110726867D01*
X96690820Y-111231581D01*
X96686059Y-111252513D01*
X96679270Y-111272878D01*
X96670517Y-111292480D01*
X96659885Y-111311129D01*
X96647476Y-111328647D01*
X96633410Y-111344864D01*
X96617822Y-111359624D01*
X96600863Y-111372785D01*
X96582695Y-111384220D01*
X96563494Y-111393819D01*
X96543444Y-111401491D01*
X96522739Y-111407160D01*
X96501578Y-111410772D01*
X96480165Y-111412293D01*
X96458706Y-111411708D01*
X96437407Y-111409022D01*
X96006554Y-111333050D01*
X95985621Y-111328289D01*
X95965256Y-111321500D01*
X95945655Y-111312747D01*
X95927005Y-111302115D01*
X95909488Y-111289706D01*
X95893271Y-111275640D01*
X95878511Y-111260052D01*
X95865350Y-111243092D01*
X95853915Y-111224925D01*
X95844315Y-111205723D01*
X95836644Y-111185674D01*
X95830975Y-111164969D01*
X95827363Y-111143808D01*
X95825842Y-111122395D01*
X95826427Y-111100935D01*
X95829113Y-111079637D01*
X95918108Y-110574923D01*
X95922869Y-110553991D01*
X95929658Y-110533626D01*
X95938411Y-110514024D01*
X95949043Y-110495375D01*
X95961452Y-110477857D01*
X95975518Y-110461640D01*
X95991106Y-110446880D01*
X96008065Y-110433719D01*
X96026233Y-110422284D01*
X96045434Y-110412685D01*
X96065484Y-110405013D01*
X96086189Y-110399344D01*
X96107350Y-110395732D01*
X96128763Y-110394211D01*
X96150222Y-110394796D01*
G37*
G36*
X97701294Y-110668292D02*
G01*
X97722593Y-110670978D01*
X98153446Y-110746950D01*
X98174379Y-110751711D01*
X98194744Y-110758500D01*
X98214345Y-110767253D01*
X98232995Y-110777885D01*
X98250512Y-110790294D01*
X98266729Y-110804360D01*
X98281489Y-110819948D01*
X98294650Y-110836908D01*
X98306085Y-110855075D01*
X98315685Y-110874277D01*
X98323356Y-110894326D01*
X98329025Y-110915031D01*
X98332637Y-110936192D01*
X98334158Y-110957605D01*
X98333573Y-110979065D01*
X98330887Y-111000363D01*
X98241892Y-111505077D01*
X98237131Y-111526009D01*
X98230342Y-111546374D01*
X98221589Y-111565976D01*
X98210957Y-111584625D01*
X98198548Y-111602143D01*
X98184482Y-111618360D01*
X98168894Y-111633120D01*
X98151935Y-111646281D01*
X98133767Y-111657716D01*
X98114566Y-111667315D01*
X98094516Y-111674987D01*
X98073811Y-111680656D01*
X98052650Y-111684268D01*
X98031237Y-111685789D01*
X98009778Y-111685204D01*
X97988479Y-111682518D01*
X97557626Y-111606546D01*
X97536693Y-111601785D01*
X97516328Y-111594996D01*
X97496727Y-111586243D01*
X97478077Y-111575611D01*
X97460560Y-111563202D01*
X97444343Y-111549136D01*
X97429583Y-111533548D01*
X97416422Y-111516588D01*
X97404987Y-111498421D01*
X97395387Y-111479219D01*
X97387716Y-111459170D01*
X97382047Y-111438465D01*
X97378435Y-111417304D01*
X97376914Y-111395891D01*
X97377499Y-111374431D01*
X97380185Y-111353133D01*
X97469180Y-110848419D01*
X97473941Y-110827487D01*
X97480730Y-110807122D01*
X97489483Y-110787520D01*
X97500115Y-110768871D01*
X97512524Y-110751353D01*
X97526590Y-110735136D01*
X97542178Y-110720376D01*
X97559137Y-110707215D01*
X97577305Y-110695780D01*
X97596506Y-110686181D01*
X97616556Y-110678509D01*
X97637261Y-110672840D01*
X97658422Y-110669228D01*
X97679835Y-110667707D01*
X97701294Y-110668292D01*
G37*
%TD*%
%TO.C,C16*%
G36*
X106027691Y-106276053D02*
G01*
X106048926Y-106279203D01*
X106069750Y-106284419D01*
X106089962Y-106291651D01*
X106109368Y-106300830D01*
X106127781Y-106311866D01*
X106145024Y-106324654D01*
X106160930Y-106339070D01*
X106175346Y-106354976D01*
X106188134Y-106372219D01*
X106199170Y-106390632D01*
X106208349Y-106410038D01*
X106215581Y-106430250D01*
X106220797Y-106451074D01*
X106223947Y-106472309D01*
X106225000Y-106493750D01*
X106225000Y-106931250D01*
X106223947Y-106952691D01*
X106220797Y-106973926D01*
X106215581Y-106994750D01*
X106208349Y-107014962D01*
X106199170Y-107034368D01*
X106188134Y-107052781D01*
X106175346Y-107070024D01*
X106160930Y-107085930D01*
X106145024Y-107100346D01*
X106127781Y-107113134D01*
X106109368Y-107124170D01*
X106089962Y-107133349D01*
X106069750Y-107140581D01*
X106048926Y-107145797D01*
X106027691Y-107148947D01*
X106006250Y-107150000D01*
X105493750Y-107150000D01*
X105472309Y-107148947D01*
X105451074Y-107145797D01*
X105430250Y-107140581D01*
X105410038Y-107133349D01*
X105390632Y-107124170D01*
X105372219Y-107113134D01*
X105354976Y-107100346D01*
X105339070Y-107085930D01*
X105324654Y-107070024D01*
X105311866Y-107052781D01*
X105300830Y-107034368D01*
X105291651Y-107014962D01*
X105284419Y-106994750D01*
X105279203Y-106973926D01*
X105276053Y-106952691D01*
X105275000Y-106931250D01*
X105275000Y-106493750D01*
X105276053Y-106472309D01*
X105279203Y-106451074D01*
X105284419Y-106430250D01*
X105291651Y-106410038D01*
X105300830Y-106390632D01*
X105311866Y-106372219D01*
X105324654Y-106354976D01*
X105339070Y-106339070D01*
X105354976Y-106324654D01*
X105372219Y-106311866D01*
X105390632Y-106300830D01*
X105410038Y-106291651D01*
X105430250Y-106284419D01*
X105451074Y-106279203D01*
X105472309Y-106276053D01*
X105493750Y-106275000D01*
X106006250Y-106275000D01*
X106027691Y-106276053D01*
G37*
G36*
X106027691Y-107851053D02*
G01*
X106048926Y-107854203D01*
X106069750Y-107859419D01*
X106089962Y-107866651D01*
X106109368Y-107875830D01*
X106127781Y-107886866D01*
X106145024Y-107899654D01*
X106160930Y-107914070D01*
X106175346Y-107929976D01*
X106188134Y-107947219D01*
X106199170Y-107965632D01*
X106208349Y-107985038D01*
X106215581Y-108005250D01*
X106220797Y-108026074D01*
X106223947Y-108047309D01*
X106225000Y-108068750D01*
X106225000Y-108506250D01*
X106223947Y-108527691D01*
X106220797Y-108548926D01*
X106215581Y-108569750D01*
X106208349Y-108589962D01*
X106199170Y-108609368D01*
X106188134Y-108627781D01*
X106175346Y-108645024D01*
X106160930Y-108660930D01*
X106145024Y-108675346D01*
X106127781Y-108688134D01*
X106109368Y-108699170D01*
X106089962Y-108708349D01*
X106069750Y-108715581D01*
X106048926Y-108720797D01*
X106027691Y-108723947D01*
X106006250Y-108725000D01*
X105493750Y-108725000D01*
X105472309Y-108723947D01*
X105451074Y-108720797D01*
X105430250Y-108715581D01*
X105410038Y-108708349D01*
X105390632Y-108699170D01*
X105372219Y-108688134D01*
X105354976Y-108675346D01*
X105339070Y-108660930D01*
X105324654Y-108645024D01*
X105311866Y-108627781D01*
X105300830Y-108609368D01*
X105291651Y-108589962D01*
X105284419Y-108569750D01*
X105279203Y-108548926D01*
X105276053Y-108527691D01*
X105275000Y-108506250D01*
X105275000Y-108068750D01*
X105276053Y-108047309D01*
X105279203Y-108026074D01*
X105284419Y-108005250D01*
X105291651Y-107985038D01*
X105300830Y-107965632D01*
X105311866Y-107947219D01*
X105324654Y-107929976D01*
X105339070Y-107914070D01*
X105354976Y-107899654D01*
X105372219Y-107886866D01*
X105390632Y-107875830D01*
X105410038Y-107866651D01*
X105430250Y-107859419D01*
X105451074Y-107854203D01*
X105472309Y-107851053D01*
X105493750Y-107850000D01*
X106006250Y-107850000D01*
X106027691Y-107851053D01*
G37*
%TD*%
%TO.C,C13*%
G36*
X92964002Y-109326621D02*
G01*
X92985354Y-109328842D01*
X93006385Y-109333145D01*
X93026894Y-109339488D01*
X93438009Y-109489122D01*
X93457797Y-109497445D01*
X93476674Y-109507668D01*
X93494458Y-109519692D01*
X93510977Y-109533401D01*
X93526074Y-109548663D01*
X93539602Y-109565331D01*
X93551431Y-109583245D01*
X93561447Y-109602232D01*
X93569554Y-109622110D01*
X93575673Y-109642686D01*
X93579746Y-109663764D01*
X93581734Y-109685138D01*
X93581617Y-109706605D01*
X93579396Y-109727957D01*
X93575093Y-109748989D01*
X93568750Y-109769497D01*
X93393465Y-110251089D01*
X93385142Y-110270877D01*
X93374919Y-110289754D01*
X93362895Y-110307538D01*
X93349186Y-110324057D01*
X93333924Y-110339154D01*
X93317256Y-110352682D01*
X93299342Y-110364511D01*
X93280355Y-110374527D01*
X93260477Y-110382634D01*
X93239901Y-110388753D01*
X93218824Y-110392826D01*
X93197449Y-110394814D01*
X93175982Y-110394697D01*
X93154630Y-110392476D01*
X93133599Y-110388173D01*
X93113090Y-110381830D01*
X92701975Y-110232196D01*
X92682187Y-110223873D01*
X92663310Y-110213650D01*
X92645526Y-110201626D01*
X92629007Y-110187917D01*
X92613910Y-110172655D01*
X92600382Y-110155987D01*
X92588553Y-110138073D01*
X92578537Y-110119086D01*
X92570430Y-110099208D01*
X92564311Y-110078632D01*
X92560238Y-110057554D01*
X92558250Y-110036180D01*
X92558367Y-110014713D01*
X92560588Y-109993361D01*
X92564891Y-109972329D01*
X92571234Y-109951821D01*
X92746519Y-109470229D01*
X92754842Y-109450441D01*
X92765065Y-109431564D01*
X92777089Y-109413780D01*
X92790798Y-109397261D01*
X92806060Y-109382164D01*
X92822728Y-109368636D01*
X92840642Y-109356807D01*
X92859629Y-109346791D01*
X92879507Y-109338684D01*
X92900083Y-109332565D01*
X92921160Y-109328492D01*
X92942535Y-109326504D01*
X92964002Y-109326621D01*
G37*
G36*
X94444018Y-109865303D02*
G01*
X94465370Y-109867524D01*
X94486401Y-109871827D01*
X94506910Y-109878170D01*
X94918025Y-110027804D01*
X94937813Y-110036127D01*
X94956690Y-110046350D01*
X94974474Y-110058374D01*
X94990993Y-110072083D01*
X95006090Y-110087345D01*
X95019618Y-110104013D01*
X95031447Y-110121927D01*
X95041463Y-110140914D01*
X95049570Y-110160792D01*
X95055689Y-110181368D01*
X95059762Y-110202446D01*
X95061750Y-110223820D01*
X95061633Y-110245287D01*
X95059412Y-110266639D01*
X95055109Y-110287671D01*
X95048766Y-110308179D01*
X94873481Y-110789771D01*
X94865158Y-110809559D01*
X94854935Y-110828436D01*
X94842911Y-110846220D01*
X94829202Y-110862739D01*
X94813940Y-110877836D01*
X94797272Y-110891364D01*
X94779358Y-110903193D01*
X94760371Y-110913209D01*
X94740493Y-110921316D01*
X94719917Y-110927435D01*
X94698840Y-110931508D01*
X94677465Y-110933496D01*
X94655998Y-110933379D01*
X94634646Y-110931158D01*
X94613615Y-110926855D01*
X94593106Y-110920512D01*
X94181991Y-110770878D01*
X94162203Y-110762555D01*
X94143326Y-110752332D01*
X94125542Y-110740308D01*
X94109023Y-110726599D01*
X94093926Y-110711337D01*
X94080398Y-110694669D01*
X94068569Y-110676755D01*
X94058553Y-110657768D01*
X94050446Y-110637890D01*
X94044327Y-110617314D01*
X94040254Y-110596236D01*
X94038266Y-110574862D01*
X94038383Y-110553395D01*
X94040604Y-110532043D01*
X94044907Y-110511011D01*
X94051250Y-110490503D01*
X94226535Y-110008911D01*
X94234858Y-109989123D01*
X94245081Y-109970246D01*
X94257105Y-109952462D01*
X94270814Y-109935943D01*
X94286076Y-109920846D01*
X94302744Y-109907318D01*
X94320658Y-109895489D01*
X94339645Y-109885473D01*
X94359523Y-109877366D01*
X94380099Y-109871247D01*
X94401176Y-109867174D01*
X94422551Y-109865186D01*
X94444018Y-109865303D01*
G37*
%TD*%
%TO.C,C8*%
G36*
X96322691Y-90266053D02*
G01*
X96343926Y-90269203D01*
X96364750Y-90274419D01*
X96384962Y-90281651D01*
X96404368Y-90290830D01*
X96422781Y-90301866D01*
X96440024Y-90314654D01*
X96455930Y-90329070D01*
X96470346Y-90344976D01*
X96483134Y-90362219D01*
X96494170Y-90380632D01*
X96503349Y-90400038D01*
X96510581Y-90420250D01*
X96515797Y-90441074D01*
X96518947Y-90462309D01*
X96520000Y-90483750D01*
X96520000Y-90996250D01*
X96518947Y-91017691D01*
X96515797Y-91038926D01*
X96510581Y-91059750D01*
X96503349Y-91079962D01*
X96494170Y-91099368D01*
X96483134Y-91117781D01*
X96470346Y-91135024D01*
X96455930Y-91150930D01*
X96440024Y-91165346D01*
X96422781Y-91178134D01*
X96404368Y-91189170D01*
X96384962Y-91198349D01*
X96364750Y-91205581D01*
X96343926Y-91210797D01*
X96322691Y-91213947D01*
X96301250Y-91215000D01*
X95863750Y-91215000D01*
X95842309Y-91213947D01*
X95821074Y-91210797D01*
X95800250Y-91205581D01*
X95780038Y-91198349D01*
X95760632Y-91189170D01*
X95742219Y-91178134D01*
X95724976Y-91165346D01*
X95709070Y-91150930D01*
X95694654Y-91135024D01*
X95681866Y-91117781D01*
X95670830Y-91099368D01*
X95661651Y-91079962D01*
X95654419Y-91059750D01*
X95649203Y-91038926D01*
X95646053Y-91017691D01*
X95645000Y-90996250D01*
X95645000Y-90483750D01*
X95646053Y-90462309D01*
X95649203Y-90441074D01*
X95654419Y-90420250D01*
X95661651Y-90400038D01*
X95670830Y-90380632D01*
X95681866Y-90362219D01*
X95694654Y-90344976D01*
X95709070Y-90329070D01*
X95724976Y-90314654D01*
X95742219Y-90301866D01*
X95760632Y-90290830D01*
X95780038Y-90281651D01*
X95800250Y-90274419D01*
X95821074Y-90269203D01*
X95842309Y-90266053D01*
X95863750Y-90265000D01*
X96301250Y-90265000D01*
X96322691Y-90266053D01*
G37*
G36*
X97897691Y-90266053D02*
G01*
X97918926Y-90269203D01*
X97939750Y-90274419D01*
X97959962Y-90281651D01*
X97979368Y-90290830D01*
X97997781Y-90301866D01*
X98015024Y-90314654D01*
X98030930Y-90329070D01*
X98045346Y-90344976D01*
X98058134Y-90362219D01*
X98069170Y-90380632D01*
X98078349Y-90400038D01*
X98085581Y-90420250D01*
X98090797Y-90441074D01*
X98093947Y-90462309D01*
X98095000Y-90483750D01*
X98095000Y-90996250D01*
X98093947Y-91017691D01*
X98090797Y-91038926D01*
X98085581Y-91059750D01*
X98078349Y-91079962D01*
X98069170Y-91099368D01*
X98058134Y-91117781D01*
X98045346Y-91135024D01*
X98030930Y-91150930D01*
X98015024Y-91165346D01*
X97997781Y-91178134D01*
X97979368Y-91189170D01*
X97959962Y-91198349D01*
X97939750Y-91205581D01*
X97918926Y-91210797D01*
X97897691Y-91213947D01*
X97876250Y-91215000D01*
X97438750Y-91215000D01*
X97417309Y-91213947D01*
X97396074Y-91210797D01*
X97375250Y-91205581D01*
X97355038Y-91198349D01*
X97335632Y-91189170D01*
X97317219Y-91178134D01*
X97299976Y-91165346D01*
X97284070Y-91150930D01*
X97269654Y-91135024D01*
X97256866Y-91117781D01*
X97245830Y-91099368D01*
X97236651Y-91079962D01*
X97229419Y-91059750D01*
X97224203Y-91038926D01*
X97221053Y-91017691D01*
X97220000Y-90996250D01*
X97220000Y-90483750D01*
X97221053Y-90462309D01*
X97224203Y-90441074D01*
X97229419Y-90420250D01*
X97236651Y-90400038D01*
X97245830Y-90380632D01*
X97256866Y-90362219D01*
X97269654Y-90344976D01*
X97284070Y-90329070D01*
X97299976Y-90314654D01*
X97317219Y-90301866D01*
X97335632Y-90290830D01*
X97355038Y-90281651D01*
X97375250Y-90274419D01*
X97396074Y-90269203D01*
X97417309Y-90266053D01*
X97438750Y-90265000D01*
X97876250Y-90265000D01*
X97897691Y-90266053D01*
G37*
%TD*%
%TO.C,C6*%
G36*
X104372691Y-92046053D02*
G01*
X104393926Y-92049203D01*
X104414750Y-92054419D01*
X104434962Y-92061651D01*
X104454368Y-92070830D01*
X104472781Y-92081866D01*
X104490024Y-92094654D01*
X104505930Y-92109070D01*
X104520346Y-92124976D01*
X104533134Y-92142219D01*
X104544170Y-92160632D01*
X104553349Y-92180038D01*
X104560581Y-92200250D01*
X104565797Y-92221074D01*
X104568947Y-92242309D01*
X104570000Y-92263750D01*
X104570000Y-92701250D01*
X104568947Y-92722691D01*
X104565797Y-92743926D01*
X104560581Y-92764750D01*
X104553349Y-92784962D01*
X104544170Y-92804368D01*
X104533134Y-92822781D01*
X104520346Y-92840024D01*
X104505930Y-92855930D01*
X104490024Y-92870346D01*
X104472781Y-92883134D01*
X104454368Y-92894170D01*
X104434962Y-92903349D01*
X104414750Y-92910581D01*
X104393926Y-92915797D01*
X104372691Y-92918947D01*
X104351250Y-92920000D01*
X103838750Y-92920000D01*
X103817309Y-92918947D01*
X103796074Y-92915797D01*
X103775250Y-92910581D01*
X103755038Y-92903349D01*
X103735632Y-92894170D01*
X103717219Y-92883134D01*
X103699976Y-92870346D01*
X103684070Y-92855930D01*
X103669654Y-92840024D01*
X103656866Y-92822781D01*
X103645830Y-92804368D01*
X103636651Y-92784962D01*
X103629419Y-92764750D01*
X103624203Y-92743926D01*
X103621053Y-92722691D01*
X103620000Y-92701250D01*
X103620000Y-92263750D01*
X103621053Y-92242309D01*
X103624203Y-92221074D01*
X103629419Y-92200250D01*
X103636651Y-92180038D01*
X103645830Y-92160632D01*
X103656866Y-92142219D01*
X103669654Y-92124976D01*
X103684070Y-92109070D01*
X103699976Y-92094654D01*
X103717219Y-92081866D01*
X103735632Y-92070830D01*
X103755038Y-92061651D01*
X103775250Y-92054419D01*
X103796074Y-92049203D01*
X103817309Y-92046053D01*
X103838750Y-92045000D01*
X104351250Y-92045000D01*
X104372691Y-92046053D01*
G37*
G36*
X104372691Y-90471053D02*
G01*
X104393926Y-90474203D01*
X104414750Y-90479419D01*
X104434962Y-90486651D01*
X104454368Y-90495830D01*
X104472781Y-90506866D01*
X104490024Y-90519654D01*
X104505930Y-90534070D01*
X104520346Y-90549976D01*
X104533134Y-90567219D01*
X104544170Y-90585632D01*
X104553349Y-90605038D01*
X104560581Y-90625250D01*
X104565797Y-90646074D01*
X104568947Y-90667309D01*
X104570000Y-90688750D01*
X104570000Y-91126250D01*
X104568947Y-91147691D01*
X104565797Y-91168926D01*
X104560581Y-91189750D01*
X104553349Y-91209962D01*
X104544170Y-91229368D01*
X104533134Y-91247781D01*
X104520346Y-91265024D01*
X104505930Y-91280930D01*
X104490024Y-91295346D01*
X104472781Y-91308134D01*
X104454368Y-91319170D01*
X104434962Y-91328349D01*
X104414750Y-91335581D01*
X104393926Y-91340797D01*
X104372691Y-91343947D01*
X104351250Y-91345000D01*
X103838750Y-91345000D01*
X103817309Y-91343947D01*
X103796074Y-91340797D01*
X103775250Y-91335581D01*
X103755038Y-91328349D01*
X103735632Y-91319170D01*
X103717219Y-91308134D01*
X103699976Y-91295346D01*
X103684070Y-91280930D01*
X103669654Y-91265024D01*
X103656866Y-91247781D01*
X103645830Y-91229368D01*
X103636651Y-91209962D01*
X103629419Y-91189750D01*
X103624203Y-91168926D01*
X103621053Y-91147691D01*
X103620000Y-91126250D01*
X103620000Y-90688750D01*
X103621053Y-90667309D01*
X103624203Y-90646074D01*
X103629419Y-90625250D01*
X103636651Y-90605038D01*
X103645830Y-90585632D01*
X103656866Y-90567219D01*
X103669654Y-90549976D01*
X103684070Y-90534070D01*
X103699976Y-90519654D01*
X103717219Y-90506866D01*
X103735632Y-90495830D01*
X103755038Y-90486651D01*
X103775250Y-90479419D01*
X103796074Y-90474203D01*
X103817309Y-90471053D01*
X103838750Y-90470000D01*
X104351250Y-90470000D01*
X104372691Y-90471053D01*
G37*
%TD*%
%TO.C,C5*%
G36*
X104497691Y-100246053D02*
G01*
X104518926Y-100249203D01*
X104539750Y-100254419D01*
X104559962Y-100261651D01*
X104579368Y-100270830D01*
X104597781Y-100281866D01*
X104615024Y-100294654D01*
X104630930Y-100309070D01*
X104645346Y-100324976D01*
X104658134Y-100342219D01*
X104669170Y-100360632D01*
X104678349Y-100380038D01*
X104685581Y-100400250D01*
X104690797Y-100421074D01*
X104693947Y-100442309D01*
X104695000Y-100463750D01*
X104695000Y-100976250D01*
X104693947Y-100997691D01*
X104690797Y-101018926D01*
X104685581Y-101039750D01*
X104678349Y-101059962D01*
X104669170Y-101079368D01*
X104658134Y-101097781D01*
X104645346Y-101115024D01*
X104630930Y-101130930D01*
X104615024Y-101145346D01*
X104597781Y-101158134D01*
X104579368Y-101169170D01*
X104559962Y-101178349D01*
X104539750Y-101185581D01*
X104518926Y-101190797D01*
X104497691Y-101193947D01*
X104476250Y-101195000D01*
X104038750Y-101195000D01*
X104017309Y-101193947D01*
X103996074Y-101190797D01*
X103975250Y-101185581D01*
X103955038Y-101178349D01*
X103935632Y-101169170D01*
X103917219Y-101158134D01*
X103899976Y-101145346D01*
X103884070Y-101130930D01*
X103869654Y-101115024D01*
X103856866Y-101097781D01*
X103845830Y-101079368D01*
X103836651Y-101059962D01*
X103829419Y-101039750D01*
X103824203Y-101018926D01*
X103821053Y-100997691D01*
X103820000Y-100976250D01*
X103820000Y-100463750D01*
X103821053Y-100442309D01*
X103824203Y-100421074D01*
X103829419Y-100400250D01*
X103836651Y-100380038D01*
X103845830Y-100360632D01*
X103856866Y-100342219D01*
X103869654Y-100324976D01*
X103884070Y-100309070D01*
X103899976Y-100294654D01*
X103917219Y-100281866D01*
X103935632Y-100270830D01*
X103955038Y-100261651D01*
X103975250Y-100254419D01*
X103996074Y-100249203D01*
X104017309Y-100246053D01*
X104038750Y-100245000D01*
X104476250Y-100245000D01*
X104497691Y-100246053D01*
G37*
G36*
X106072691Y-100246053D02*
G01*
X106093926Y-100249203D01*
X106114750Y-100254419D01*
X106134962Y-100261651D01*
X106154368Y-100270830D01*
X106172781Y-100281866D01*
X106190024Y-100294654D01*
X106205930Y-100309070D01*
X106220346Y-100324976D01*
X106233134Y-100342219D01*
X106244170Y-100360632D01*
X106253349Y-100380038D01*
X106260581Y-100400250D01*
X106265797Y-100421074D01*
X106268947Y-100442309D01*
X106270000Y-100463750D01*
X106270000Y-100976250D01*
X106268947Y-100997691D01*
X106265797Y-101018926D01*
X106260581Y-101039750D01*
X106253349Y-101059962D01*
X106244170Y-101079368D01*
X106233134Y-101097781D01*
X106220346Y-101115024D01*
X106205930Y-101130930D01*
X106190024Y-101145346D01*
X106172781Y-101158134D01*
X106154368Y-101169170D01*
X106134962Y-101178349D01*
X106114750Y-101185581D01*
X106093926Y-101190797D01*
X106072691Y-101193947D01*
X106051250Y-101195000D01*
X105613750Y-101195000D01*
X105592309Y-101193947D01*
X105571074Y-101190797D01*
X105550250Y-101185581D01*
X105530038Y-101178349D01*
X105510632Y-101169170D01*
X105492219Y-101158134D01*
X105474976Y-101145346D01*
X105459070Y-101130930D01*
X105444654Y-101115024D01*
X105431866Y-101097781D01*
X105420830Y-101079368D01*
X105411651Y-101059962D01*
X105404419Y-101039750D01*
X105399203Y-101018926D01*
X105396053Y-100997691D01*
X105395000Y-100976250D01*
X105395000Y-100463750D01*
X105396053Y-100442309D01*
X105399203Y-100421074D01*
X105404419Y-100400250D01*
X105411651Y-100380038D01*
X105420830Y-100360632D01*
X105431866Y-100342219D01*
X105444654Y-100324976D01*
X105459070Y-100309070D01*
X105474976Y-100294654D01*
X105492219Y-100281866D01*
X105510632Y-100270830D01*
X105530038Y-100261651D01*
X105550250Y-100254419D01*
X105571074Y-100249203D01*
X105592309Y-100246053D01*
X105613750Y-100245000D01*
X106051250Y-100245000D01*
X106072691Y-100246053D01*
G37*
%TD*%
%TO.C,C4*%
G36*
X92122691Y-92721053D02*
G01*
X92143926Y-92724203D01*
X92164750Y-92729419D01*
X92184962Y-92736651D01*
X92204368Y-92745830D01*
X92222781Y-92756866D01*
X92240024Y-92769654D01*
X92255930Y-92784070D01*
X92270346Y-92799976D01*
X92283134Y-92817219D01*
X92294170Y-92835632D01*
X92303349Y-92855038D01*
X92310581Y-92875250D01*
X92315797Y-92896074D01*
X92318947Y-92917309D01*
X92320000Y-92938750D01*
X92320000Y-93451250D01*
X92318947Y-93472691D01*
X92315797Y-93493926D01*
X92310581Y-93514750D01*
X92303349Y-93534962D01*
X92294170Y-93554368D01*
X92283134Y-93572781D01*
X92270346Y-93590024D01*
X92255930Y-93605930D01*
X92240024Y-93620346D01*
X92222781Y-93633134D01*
X92204368Y-93644170D01*
X92184962Y-93653349D01*
X92164750Y-93660581D01*
X92143926Y-93665797D01*
X92122691Y-93668947D01*
X92101250Y-93670000D01*
X91663750Y-93670000D01*
X91642309Y-93668947D01*
X91621074Y-93665797D01*
X91600250Y-93660581D01*
X91580038Y-93653349D01*
X91560632Y-93644170D01*
X91542219Y-93633134D01*
X91524976Y-93620346D01*
X91509070Y-93605930D01*
X91494654Y-93590024D01*
X91481866Y-93572781D01*
X91470830Y-93554368D01*
X91461651Y-93534962D01*
X91454419Y-93514750D01*
X91449203Y-93493926D01*
X91446053Y-93472691D01*
X91445000Y-93451250D01*
X91445000Y-92938750D01*
X91446053Y-92917309D01*
X91449203Y-92896074D01*
X91454419Y-92875250D01*
X91461651Y-92855038D01*
X91470830Y-92835632D01*
X91481866Y-92817219D01*
X91494654Y-92799976D01*
X91509070Y-92784070D01*
X91524976Y-92769654D01*
X91542219Y-92756866D01*
X91560632Y-92745830D01*
X91580038Y-92736651D01*
X91600250Y-92729419D01*
X91621074Y-92724203D01*
X91642309Y-92721053D01*
X91663750Y-92720000D01*
X92101250Y-92720000D01*
X92122691Y-92721053D01*
G37*
G36*
X93697691Y-92721053D02*
G01*
X93718926Y-92724203D01*
X93739750Y-92729419D01*
X93759962Y-92736651D01*
X93779368Y-92745830D01*
X93797781Y-92756866D01*
X93815024Y-92769654D01*
X93830930Y-92784070D01*
X93845346Y-92799976D01*
X93858134Y-92817219D01*
X93869170Y-92835632D01*
X93878349Y-92855038D01*
X93885581Y-92875250D01*
X93890797Y-92896074D01*
X93893947Y-92917309D01*
X93895000Y-92938750D01*
X93895000Y-93451250D01*
X93893947Y-93472691D01*
X93890797Y-93493926D01*
X93885581Y-93514750D01*
X93878349Y-93534962D01*
X93869170Y-93554368D01*
X93858134Y-93572781D01*
X93845346Y-93590024D01*
X93830930Y-93605930D01*
X93815024Y-93620346D01*
X93797781Y-93633134D01*
X93779368Y-93644170D01*
X93759962Y-93653349D01*
X93739750Y-93660581D01*
X93718926Y-93665797D01*
X93697691Y-93668947D01*
X93676250Y-93670000D01*
X93238750Y-93670000D01*
X93217309Y-93668947D01*
X93196074Y-93665797D01*
X93175250Y-93660581D01*
X93155038Y-93653349D01*
X93135632Y-93644170D01*
X93117219Y-93633134D01*
X93099976Y-93620346D01*
X93084070Y-93605930D01*
X93069654Y-93590024D01*
X93056866Y-93572781D01*
X93045830Y-93554368D01*
X93036651Y-93534962D01*
X93029419Y-93514750D01*
X93024203Y-93493926D01*
X93021053Y-93472691D01*
X93020000Y-93451250D01*
X93020000Y-92938750D01*
X93021053Y-92917309D01*
X93024203Y-92896074D01*
X93029419Y-92875250D01*
X93036651Y-92855038D01*
X93045830Y-92835632D01*
X93056866Y-92817219D01*
X93069654Y-92799976D01*
X93084070Y-92784070D01*
X93099976Y-92769654D01*
X93117219Y-92756866D01*
X93135632Y-92745830D01*
X93155038Y-92736651D01*
X93175250Y-92729419D01*
X93196074Y-92724203D01*
X93217309Y-92721053D01*
X93238750Y-92720000D01*
X93676250Y-92720000D01*
X93697691Y-92721053D01*
G37*
%TD*%
%TO.C,C3*%
G36*
X94567691Y-97126053D02*
G01*
X94588926Y-97129203D01*
X94609750Y-97134419D01*
X94629962Y-97141651D01*
X94649368Y-97150830D01*
X94667781Y-97161866D01*
X94685024Y-97174654D01*
X94700930Y-97189070D01*
X94715346Y-97204976D01*
X94728134Y-97222219D01*
X94739170Y-97240632D01*
X94748349Y-97260038D01*
X94755581Y-97280250D01*
X94760797Y-97301074D01*
X94763947Y-97322309D01*
X94765000Y-97343750D01*
X94765000Y-97781250D01*
X94763947Y-97802691D01*
X94760797Y-97823926D01*
X94755581Y-97844750D01*
X94748349Y-97864962D01*
X94739170Y-97884368D01*
X94728134Y-97902781D01*
X94715346Y-97920024D01*
X94700930Y-97935930D01*
X94685024Y-97950346D01*
X94667781Y-97963134D01*
X94649368Y-97974170D01*
X94629962Y-97983349D01*
X94609750Y-97990581D01*
X94588926Y-97995797D01*
X94567691Y-97998947D01*
X94546250Y-98000000D01*
X94033750Y-98000000D01*
X94012309Y-97998947D01*
X93991074Y-97995797D01*
X93970250Y-97990581D01*
X93950038Y-97983349D01*
X93930632Y-97974170D01*
X93912219Y-97963134D01*
X93894976Y-97950346D01*
X93879070Y-97935930D01*
X93864654Y-97920024D01*
X93851866Y-97902781D01*
X93840830Y-97884368D01*
X93831651Y-97864962D01*
X93824419Y-97844750D01*
X93819203Y-97823926D01*
X93816053Y-97802691D01*
X93815000Y-97781250D01*
X93815000Y-97343750D01*
X93816053Y-97322309D01*
X93819203Y-97301074D01*
X93824419Y-97280250D01*
X93831651Y-97260038D01*
X93840830Y-97240632D01*
X93851866Y-97222219D01*
X93864654Y-97204976D01*
X93879070Y-97189070D01*
X93894976Y-97174654D01*
X93912219Y-97161866D01*
X93930632Y-97150830D01*
X93950038Y-97141651D01*
X93970250Y-97134419D01*
X93991074Y-97129203D01*
X94012309Y-97126053D01*
X94033750Y-97125000D01*
X94546250Y-97125000D01*
X94567691Y-97126053D01*
G37*
G36*
X94567691Y-98701053D02*
G01*
X94588926Y-98704203D01*
X94609750Y-98709419D01*
X94629962Y-98716651D01*
X94649368Y-98725830D01*
X94667781Y-98736866D01*
X94685024Y-98749654D01*
X94700930Y-98764070D01*
X94715346Y-98779976D01*
X94728134Y-98797219D01*
X94739170Y-98815632D01*
X94748349Y-98835038D01*
X94755581Y-98855250D01*
X94760797Y-98876074D01*
X94763947Y-98897309D01*
X94765000Y-98918750D01*
X94765000Y-99356250D01*
X94763947Y-99377691D01*
X94760797Y-99398926D01*
X94755581Y-99419750D01*
X94748349Y-99439962D01*
X94739170Y-99459368D01*
X94728134Y-99477781D01*
X94715346Y-99495024D01*
X94700930Y-99510930D01*
X94685024Y-99525346D01*
X94667781Y-99538134D01*
X94649368Y-99549170D01*
X94629962Y-99558349D01*
X94609750Y-99565581D01*
X94588926Y-99570797D01*
X94567691Y-99573947D01*
X94546250Y-99575000D01*
X94033750Y-99575000D01*
X94012309Y-99573947D01*
X93991074Y-99570797D01*
X93970250Y-99565581D01*
X93950038Y-99558349D01*
X93930632Y-99549170D01*
X93912219Y-99538134D01*
X93894976Y-99525346D01*
X93879070Y-99510930D01*
X93864654Y-99495024D01*
X93851866Y-99477781D01*
X93840830Y-99459368D01*
X93831651Y-99439962D01*
X93824419Y-99419750D01*
X93819203Y-99398926D01*
X93816053Y-99377691D01*
X93815000Y-99356250D01*
X93815000Y-98918750D01*
X93816053Y-98897309D01*
X93819203Y-98876074D01*
X93824419Y-98855250D01*
X93831651Y-98835038D01*
X93840830Y-98815632D01*
X93851866Y-98797219D01*
X93864654Y-98779976D01*
X93879070Y-98764070D01*
X93894976Y-98749654D01*
X93912219Y-98736866D01*
X93930632Y-98725830D01*
X93950038Y-98716651D01*
X93970250Y-98709419D01*
X93991074Y-98704203D01*
X94012309Y-98701053D01*
X94033750Y-98700000D01*
X94546250Y-98700000D01*
X94567691Y-98701053D01*
G37*
%TD*%
%TO.C,C2*%
G36*
X95147691Y-91746053D02*
G01*
X95168926Y-91749203D01*
X95189750Y-91754419D01*
X95209962Y-91761651D01*
X95229368Y-91770830D01*
X95247781Y-91781866D01*
X95265024Y-91794654D01*
X95280930Y-91809070D01*
X95295346Y-91824976D01*
X95308134Y-91842219D01*
X95319170Y-91860632D01*
X95328349Y-91880038D01*
X95335581Y-91900250D01*
X95340797Y-91921074D01*
X95343947Y-91942309D01*
X95345000Y-91963750D01*
X95345000Y-92476250D01*
X95343947Y-92497691D01*
X95340797Y-92518926D01*
X95335581Y-92539750D01*
X95328349Y-92559962D01*
X95319170Y-92579368D01*
X95308134Y-92597781D01*
X95295346Y-92615024D01*
X95280930Y-92630930D01*
X95265024Y-92645346D01*
X95247781Y-92658134D01*
X95229368Y-92669170D01*
X95209962Y-92678349D01*
X95189750Y-92685581D01*
X95168926Y-92690797D01*
X95147691Y-92693947D01*
X95126250Y-92695000D01*
X94688750Y-92695000D01*
X94667309Y-92693947D01*
X94646074Y-92690797D01*
X94625250Y-92685581D01*
X94605038Y-92678349D01*
X94585632Y-92669170D01*
X94567219Y-92658134D01*
X94549976Y-92645346D01*
X94534070Y-92630930D01*
X94519654Y-92615024D01*
X94506866Y-92597781D01*
X94495830Y-92579368D01*
X94486651Y-92559962D01*
X94479419Y-92539750D01*
X94474203Y-92518926D01*
X94471053Y-92497691D01*
X94470000Y-92476250D01*
X94470000Y-91963750D01*
X94471053Y-91942309D01*
X94474203Y-91921074D01*
X94479419Y-91900250D01*
X94486651Y-91880038D01*
X94495830Y-91860632D01*
X94506866Y-91842219D01*
X94519654Y-91824976D01*
X94534070Y-91809070D01*
X94549976Y-91794654D01*
X94567219Y-91781866D01*
X94585632Y-91770830D01*
X94605038Y-91761651D01*
X94625250Y-91754419D01*
X94646074Y-91749203D01*
X94667309Y-91746053D01*
X94688750Y-91745000D01*
X95126250Y-91745000D01*
X95147691Y-91746053D01*
G37*
G36*
X96722691Y-91746053D02*
G01*
X96743926Y-91749203D01*
X96764750Y-91754419D01*
X96784962Y-91761651D01*
X96804368Y-91770830D01*
X96822781Y-91781866D01*
X96840024Y-91794654D01*
X96855930Y-91809070D01*
X96870346Y-91824976D01*
X96883134Y-91842219D01*
X96894170Y-91860632D01*
X96903349Y-91880038D01*
X96910581Y-91900250D01*
X96915797Y-91921074D01*
X96918947Y-91942309D01*
X96920000Y-91963750D01*
X96920000Y-92476250D01*
X96918947Y-92497691D01*
X96915797Y-92518926D01*
X96910581Y-92539750D01*
X96903349Y-92559962D01*
X96894170Y-92579368D01*
X96883134Y-92597781D01*
X96870346Y-92615024D01*
X96855930Y-92630930D01*
X96840024Y-92645346D01*
X96822781Y-92658134D01*
X96804368Y-92669170D01*
X96784962Y-92678349D01*
X96764750Y-92685581D01*
X96743926Y-92690797D01*
X96722691Y-92693947D01*
X96701250Y-92695000D01*
X96263750Y-92695000D01*
X96242309Y-92693947D01*
X96221074Y-92690797D01*
X96200250Y-92685581D01*
X96180038Y-92678349D01*
X96160632Y-92669170D01*
X96142219Y-92658134D01*
X96124976Y-92645346D01*
X96109070Y-92630930D01*
X96094654Y-92615024D01*
X96081866Y-92597781D01*
X96070830Y-92579368D01*
X96061651Y-92559962D01*
X96054419Y-92539750D01*
X96049203Y-92518926D01*
X96046053Y-92497691D01*
X96045000Y-92476250D01*
X96045000Y-91963750D01*
X96046053Y-91942309D01*
X96049203Y-91921074D01*
X96054419Y-91900250D01*
X96061651Y-91880038D01*
X96070830Y-91860632D01*
X96081866Y-91842219D01*
X96094654Y-91824976D01*
X96109070Y-91809070D01*
X96124976Y-91794654D01*
X96142219Y-91781866D01*
X96160632Y-91770830D01*
X96180038Y-91761651D01*
X96200250Y-91754419D01*
X96221074Y-91749203D01*
X96242309Y-91746053D01*
X96263750Y-91745000D01*
X96701250Y-91745000D01*
X96722691Y-91746053D01*
G37*
%TD*%
%TO.C,C1*%
G36*
X89670813Y-92965891D02*
G01*
X89692111Y-92968577D01*
X90196825Y-93057572D01*
X90217757Y-93062333D01*
X90238122Y-93069122D01*
X90257724Y-93077875D01*
X90276373Y-93088507D01*
X90293891Y-93100916D01*
X90310108Y-93114982D01*
X90324868Y-93130570D01*
X90338029Y-93147529D01*
X90349464Y-93165697D01*
X90359063Y-93184898D01*
X90366735Y-93204948D01*
X90372404Y-93225653D01*
X90376016Y-93246814D01*
X90377537Y-93268227D01*
X90376952Y-93289686D01*
X90374266Y-93310985D01*
X90298294Y-93741838D01*
X90293533Y-93762771D01*
X90286744Y-93783136D01*
X90277991Y-93802737D01*
X90267359Y-93821387D01*
X90254950Y-93838904D01*
X90240884Y-93855121D01*
X90225296Y-93869881D01*
X90208336Y-93883042D01*
X90190169Y-93894477D01*
X90170967Y-93904077D01*
X90150918Y-93911748D01*
X90130213Y-93917417D01*
X90109052Y-93921029D01*
X90087639Y-93922550D01*
X90066179Y-93921965D01*
X90044881Y-93919279D01*
X89540167Y-93830284D01*
X89519235Y-93825523D01*
X89498870Y-93818734D01*
X89479268Y-93809981D01*
X89460619Y-93799349D01*
X89443101Y-93786940D01*
X89426884Y-93772874D01*
X89412124Y-93757286D01*
X89398963Y-93740327D01*
X89387528Y-93722159D01*
X89377929Y-93702958D01*
X89370257Y-93682908D01*
X89364588Y-93662203D01*
X89360976Y-93641042D01*
X89359455Y-93619629D01*
X89360040Y-93598170D01*
X89362726Y-93576871D01*
X89438698Y-93146018D01*
X89443459Y-93125085D01*
X89450248Y-93104720D01*
X89459001Y-93085119D01*
X89469633Y-93066469D01*
X89482042Y-93048952D01*
X89496108Y-93032735D01*
X89511696Y-93017975D01*
X89528656Y-93004814D01*
X89546823Y-92993379D01*
X89566025Y-92983779D01*
X89586074Y-92976108D01*
X89606779Y-92970439D01*
X89627940Y-92966827D01*
X89649353Y-92965306D01*
X89670813Y-92965891D01*
G37*
G36*
X89397317Y-94516963D02*
G01*
X89418615Y-94519649D01*
X89923329Y-94608644D01*
X89944261Y-94613405D01*
X89964626Y-94620194D01*
X89984228Y-94628947D01*
X90002877Y-94639579D01*
X90020395Y-94651988D01*
X90036612Y-94666054D01*
X90051372Y-94681642D01*
X90064533Y-94698601D01*
X90075968Y-94716769D01*
X90085567Y-94735970D01*
X90093239Y-94756020D01*
X90098908Y-94776725D01*
X90102520Y-94797886D01*
X90104041Y-94819299D01*
X90103456Y-94840758D01*
X90100770Y-94862057D01*
X90024798Y-95292910D01*
X90020037Y-95313843D01*
X90013248Y-95334208D01*
X90004495Y-95353809D01*
X89993863Y-95372459D01*
X89981454Y-95389976D01*
X89967388Y-95406193D01*
X89951800Y-95420953D01*
X89934840Y-95434114D01*
X89916673Y-95445549D01*
X89897471Y-95455149D01*
X89877422Y-95462820D01*
X89856717Y-95468489D01*
X89835556Y-95472101D01*
X89814143Y-95473622D01*
X89792683Y-95473037D01*
X89771385Y-95470351D01*
X89266671Y-95381356D01*
X89245739Y-95376595D01*
X89225374Y-95369806D01*
X89205772Y-95361053D01*
X89187123Y-95350421D01*
X89169605Y-95338012D01*
X89153388Y-95323946D01*
X89138628Y-95308358D01*
X89125467Y-95291399D01*
X89114032Y-95273231D01*
X89104433Y-95254030D01*
X89096761Y-95233980D01*
X89091092Y-95213275D01*
X89087480Y-95192114D01*
X89085959Y-95170701D01*
X89086544Y-95149242D01*
X89089230Y-95127943D01*
X89165202Y-94697090D01*
X89169963Y-94676157D01*
X89176752Y-94655792D01*
X89185505Y-94636191D01*
X89196137Y-94617541D01*
X89208546Y-94600024D01*
X89222612Y-94583807D01*
X89238200Y-94569047D01*
X89255160Y-94555886D01*
X89273327Y-94544451D01*
X89292529Y-94534851D01*
X89312578Y-94527180D01*
X89333283Y-94521511D01*
X89354444Y-94517899D01*
X89375857Y-94516378D01*
X89397317Y-94516963D01*
G37*
%TD*%
M02*
