%TF.GenerationSoftware,KiCad,Pcbnew,(5.1.5)-3*%
%TF.CreationDate,2021-08-14T21:38:10+08:00*%
%TF.ProjectId,STM32_FOC,53544d33-325f-4464-9f43-2e6b69636164,rev?*%
%TF.SameCoordinates,Original*%
%TF.FileFunction,Paste,Bot*%
%TF.FilePolarity,Positive*%
%FSLAX46Y46*%
G04 Gerber Fmt 4.6, Leading zero omitted, Abs format (unit mm)*
G04 Created by KiCad (PCBNEW (5.1.5)-3) date 2021-08-14 21:38:10*
%MOMM*%
%LPD*%
G04 APERTURE LIST*
%ADD10R,0.600000X1.400000*%
%ADD11R,0.600000X1.100000*%
%ADD12R,0.600000X1.200000*%
%ADD13C,0.100000*%
G04 APERTURE END LIST*
D10*
%TO.C,U3*%
X98095000Y-97300000D03*
D11*
X99365000Y-97150000D03*
D10*
X101905000Y-97300000D03*
X101905000Y-102700000D03*
D12*
X100635000Y-102800000D03*
X99365000Y-102800000D03*
D10*
X98095000Y-102700000D03*
D13*
G36*
X99318626Y-98125301D02*
G01*
X99324693Y-98126201D01*
X99330643Y-98127691D01*
X99336418Y-98129758D01*
X99341962Y-98132380D01*
X99347223Y-98135533D01*
X99352150Y-98139187D01*
X99356694Y-98143306D01*
X99360813Y-98147850D01*
X99364467Y-98152777D01*
X99367620Y-98158038D01*
X99370242Y-98163582D01*
X99372309Y-98169357D01*
X99373799Y-98175307D01*
X99374699Y-98181374D01*
X99375000Y-98187500D01*
X99375000Y-98937500D01*
X99374699Y-98943626D01*
X99373799Y-98949693D01*
X99372309Y-98955643D01*
X99370242Y-98961418D01*
X99367620Y-98966962D01*
X99364467Y-98972223D01*
X99360813Y-98977150D01*
X99356694Y-98981694D01*
X99352150Y-98985813D01*
X99347223Y-98989467D01*
X99341962Y-98992620D01*
X99336418Y-98995242D01*
X99330643Y-98997309D01*
X99324693Y-98998799D01*
X99318626Y-98999699D01*
X99312500Y-99000000D01*
X99187500Y-99000000D01*
X99181374Y-98999699D01*
X99175307Y-98998799D01*
X99169357Y-98997309D01*
X99163582Y-98995242D01*
X99158038Y-98992620D01*
X99152777Y-98989467D01*
X99147850Y-98985813D01*
X99143306Y-98981694D01*
X99139187Y-98977150D01*
X99135533Y-98972223D01*
X99132380Y-98966962D01*
X99129758Y-98961418D01*
X99127691Y-98955643D01*
X99126201Y-98949693D01*
X99125301Y-98943626D01*
X99125000Y-98937500D01*
X99125000Y-98187500D01*
X99125301Y-98181374D01*
X99126201Y-98175307D01*
X99127691Y-98169357D01*
X99129758Y-98163582D01*
X99132380Y-98158038D01*
X99135533Y-98152777D01*
X99139187Y-98147850D01*
X99143306Y-98143306D01*
X99147850Y-98139187D01*
X99152777Y-98135533D01*
X99158038Y-98132380D01*
X99163582Y-98129758D01*
X99169357Y-98127691D01*
X99175307Y-98126201D01*
X99181374Y-98125301D01*
X99187500Y-98125000D01*
X99312500Y-98125000D01*
X99318626Y-98125301D01*
G37*
G36*
X98943626Y-100625301D02*
G01*
X98949693Y-100626201D01*
X98955643Y-100627691D01*
X98961418Y-100629758D01*
X98966962Y-100632380D01*
X98972223Y-100635533D01*
X98977150Y-100639187D01*
X98981694Y-100643306D01*
X98985813Y-100647850D01*
X98989467Y-100652777D01*
X98992620Y-100658038D01*
X98995242Y-100663582D01*
X98997309Y-100669357D01*
X98998799Y-100675307D01*
X98999699Y-100681374D01*
X99000000Y-100687500D01*
X99000000Y-100812500D01*
X98999699Y-100818626D01*
X98998799Y-100824693D01*
X98997309Y-100830643D01*
X98995242Y-100836418D01*
X98992620Y-100841962D01*
X98989467Y-100847223D01*
X98985813Y-100852150D01*
X98981694Y-100856694D01*
X98977150Y-100860813D01*
X98972223Y-100864467D01*
X98966962Y-100867620D01*
X98961418Y-100870242D01*
X98955643Y-100872309D01*
X98949693Y-100873799D01*
X98943626Y-100874699D01*
X98937500Y-100875000D01*
X98187500Y-100875000D01*
X98181374Y-100874699D01*
X98175307Y-100873799D01*
X98169357Y-100872309D01*
X98163582Y-100870242D01*
X98158038Y-100867620D01*
X98152777Y-100864467D01*
X98147850Y-100860813D01*
X98143306Y-100856694D01*
X98139187Y-100852150D01*
X98135533Y-100847223D01*
X98132380Y-100841962D01*
X98129758Y-100836418D01*
X98127691Y-100830643D01*
X98126201Y-100824693D01*
X98125301Y-100818626D01*
X98125000Y-100812500D01*
X98125000Y-100687500D01*
X98125301Y-100681374D01*
X98126201Y-100675307D01*
X98127691Y-100669357D01*
X98129758Y-100663582D01*
X98132380Y-100658038D01*
X98135533Y-100652777D01*
X98139187Y-100647850D01*
X98143306Y-100643306D01*
X98147850Y-100639187D01*
X98152777Y-100635533D01*
X98158038Y-100632380D01*
X98163582Y-100629758D01*
X98169357Y-100627691D01*
X98175307Y-100626201D01*
X98181374Y-100625301D01*
X98187500Y-100625000D01*
X98937500Y-100625000D01*
X98943626Y-100625301D01*
G37*
G36*
X100818626Y-98125301D02*
G01*
X100824693Y-98126201D01*
X100830643Y-98127691D01*
X100836418Y-98129758D01*
X100841962Y-98132380D01*
X100847223Y-98135533D01*
X100852150Y-98139187D01*
X100856694Y-98143306D01*
X100860813Y-98147850D01*
X100864467Y-98152777D01*
X100867620Y-98158038D01*
X100870242Y-98163582D01*
X100872309Y-98169357D01*
X100873799Y-98175307D01*
X100874699Y-98181374D01*
X100875000Y-98187500D01*
X100875000Y-98937500D01*
X100874699Y-98943626D01*
X100873799Y-98949693D01*
X100872309Y-98955643D01*
X100870242Y-98961418D01*
X100867620Y-98966962D01*
X100864467Y-98972223D01*
X100860813Y-98977150D01*
X100856694Y-98981694D01*
X100852150Y-98985813D01*
X100847223Y-98989467D01*
X100841962Y-98992620D01*
X100836418Y-98995242D01*
X100830643Y-98997309D01*
X100824693Y-98998799D01*
X100818626Y-98999699D01*
X100812500Y-99000000D01*
X100687500Y-99000000D01*
X100681374Y-98999699D01*
X100675307Y-98998799D01*
X100669357Y-98997309D01*
X100663582Y-98995242D01*
X100658038Y-98992620D01*
X100652777Y-98989467D01*
X100647850Y-98985813D01*
X100643306Y-98981694D01*
X100639187Y-98977150D01*
X100635533Y-98972223D01*
X100632380Y-98966962D01*
X100629758Y-98961418D01*
X100627691Y-98955643D01*
X100626201Y-98949693D01*
X100625301Y-98943626D01*
X100625000Y-98937500D01*
X100625000Y-98187500D01*
X100625301Y-98181374D01*
X100626201Y-98175307D01*
X100627691Y-98169357D01*
X100629758Y-98163582D01*
X100632380Y-98158038D01*
X100635533Y-98152777D01*
X100639187Y-98147850D01*
X100643306Y-98143306D01*
X100647850Y-98139187D01*
X100652777Y-98135533D01*
X100658038Y-98132380D01*
X100663582Y-98129758D01*
X100669357Y-98127691D01*
X100675307Y-98126201D01*
X100681374Y-98125301D01*
X100687500Y-98125000D01*
X100812500Y-98125000D01*
X100818626Y-98125301D01*
G37*
G36*
X101818626Y-99125301D02*
G01*
X101824693Y-99126201D01*
X101830643Y-99127691D01*
X101836418Y-99129758D01*
X101841962Y-99132380D01*
X101847223Y-99135533D01*
X101852150Y-99139187D01*
X101856694Y-99143306D01*
X101860813Y-99147850D01*
X101864467Y-99152777D01*
X101867620Y-99158038D01*
X101870242Y-99163582D01*
X101872309Y-99169357D01*
X101873799Y-99175307D01*
X101874699Y-99181374D01*
X101875000Y-99187500D01*
X101875000Y-99312500D01*
X101874699Y-99318626D01*
X101873799Y-99324693D01*
X101872309Y-99330643D01*
X101870242Y-99336418D01*
X101867620Y-99341962D01*
X101864467Y-99347223D01*
X101860813Y-99352150D01*
X101856694Y-99356694D01*
X101852150Y-99360813D01*
X101847223Y-99364467D01*
X101841962Y-99367620D01*
X101836418Y-99370242D01*
X101830643Y-99372309D01*
X101824693Y-99373799D01*
X101818626Y-99374699D01*
X101812500Y-99375000D01*
X101062500Y-99375000D01*
X101056374Y-99374699D01*
X101050307Y-99373799D01*
X101044357Y-99372309D01*
X101038582Y-99370242D01*
X101033038Y-99367620D01*
X101027777Y-99364467D01*
X101022850Y-99360813D01*
X101018306Y-99356694D01*
X101014187Y-99352150D01*
X101010533Y-99347223D01*
X101007380Y-99341962D01*
X101004758Y-99336418D01*
X101002691Y-99330643D01*
X101001201Y-99324693D01*
X101000301Y-99318626D01*
X101000000Y-99312500D01*
X101000000Y-99187500D01*
X101000301Y-99181374D01*
X101001201Y-99175307D01*
X101002691Y-99169357D01*
X101004758Y-99163582D01*
X101007380Y-99158038D01*
X101010533Y-99152777D01*
X101014187Y-99147850D01*
X101018306Y-99143306D01*
X101022850Y-99139187D01*
X101027777Y-99135533D01*
X101033038Y-99132380D01*
X101038582Y-99129758D01*
X101044357Y-99127691D01*
X101050307Y-99126201D01*
X101056374Y-99125301D01*
X101062500Y-99125000D01*
X101812500Y-99125000D01*
X101818626Y-99125301D01*
G37*
G36*
X98943626Y-99625301D02*
G01*
X98949693Y-99626201D01*
X98955643Y-99627691D01*
X98961418Y-99629758D01*
X98966962Y-99632380D01*
X98972223Y-99635533D01*
X98977150Y-99639187D01*
X98981694Y-99643306D01*
X98985813Y-99647850D01*
X98989467Y-99652777D01*
X98992620Y-99658038D01*
X98995242Y-99663582D01*
X98997309Y-99669357D01*
X98998799Y-99675307D01*
X98999699Y-99681374D01*
X99000000Y-99687500D01*
X99000000Y-99812500D01*
X98999699Y-99818626D01*
X98998799Y-99824693D01*
X98997309Y-99830643D01*
X98995242Y-99836418D01*
X98992620Y-99841962D01*
X98989467Y-99847223D01*
X98985813Y-99852150D01*
X98981694Y-99856694D01*
X98977150Y-99860813D01*
X98972223Y-99864467D01*
X98966962Y-99867620D01*
X98961418Y-99870242D01*
X98955643Y-99872309D01*
X98949693Y-99873799D01*
X98943626Y-99874699D01*
X98937500Y-99875000D01*
X98187500Y-99875000D01*
X98181374Y-99874699D01*
X98175307Y-99873799D01*
X98169357Y-99872309D01*
X98163582Y-99870242D01*
X98158038Y-99867620D01*
X98152777Y-99864467D01*
X98147850Y-99860813D01*
X98143306Y-99856694D01*
X98139187Y-99852150D01*
X98135533Y-99847223D01*
X98132380Y-99841962D01*
X98129758Y-99836418D01*
X98127691Y-99830643D01*
X98126201Y-99824693D01*
X98125301Y-99818626D01*
X98125000Y-99812500D01*
X98125000Y-99687500D01*
X98125301Y-99681374D01*
X98126201Y-99675307D01*
X98127691Y-99669357D01*
X98129758Y-99663582D01*
X98132380Y-99658038D01*
X98135533Y-99652777D01*
X98139187Y-99647850D01*
X98143306Y-99643306D01*
X98147850Y-99639187D01*
X98152777Y-99635533D01*
X98158038Y-99632380D01*
X98163582Y-99629758D01*
X98169357Y-99627691D01*
X98175307Y-99626201D01*
X98181374Y-99625301D01*
X98187500Y-99625000D01*
X98937500Y-99625000D01*
X98943626Y-99625301D01*
G37*
G36*
X101818626Y-100625301D02*
G01*
X101824693Y-100626201D01*
X101830643Y-100627691D01*
X101836418Y-100629758D01*
X101841962Y-100632380D01*
X101847223Y-100635533D01*
X101852150Y-100639187D01*
X101856694Y-100643306D01*
X101860813Y-100647850D01*
X101864467Y-100652777D01*
X101867620Y-100658038D01*
X101870242Y-100663582D01*
X101872309Y-100669357D01*
X101873799Y-100675307D01*
X101874699Y-100681374D01*
X101875000Y-100687500D01*
X101875000Y-100812500D01*
X101874699Y-100818626D01*
X101873799Y-100824693D01*
X101872309Y-100830643D01*
X101870242Y-100836418D01*
X101867620Y-100841962D01*
X101864467Y-100847223D01*
X101860813Y-100852150D01*
X101856694Y-100856694D01*
X101852150Y-100860813D01*
X101847223Y-100864467D01*
X101841962Y-100867620D01*
X101836418Y-100870242D01*
X101830643Y-100872309D01*
X101824693Y-100873799D01*
X101818626Y-100874699D01*
X101812500Y-100875000D01*
X101062500Y-100875000D01*
X101056374Y-100874699D01*
X101050307Y-100873799D01*
X101044357Y-100872309D01*
X101038582Y-100870242D01*
X101033038Y-100867620D01*
X101027777Y-100864467D01*
X101022850Y-100860813D01*
X101018306Y-100856694D01*
X101014187Y-100852150D01*
X101010533Y-100847223D01*
X101007380Y-100841962D01*
X101004758Y-100836418D01*
X101002691Y-100830643D01*
X101001201Y-100824693D01*
X101000301Y-100818626D01*
X101000000Y-100812500D01*
X101000000Y-100687500D01*
X101000301Y-100681374D01*
X101001201Y-100675307D01*
X101002691Y-100669357D01*
X101004758Y-100663582D01*
X101007380Y-100658038D01*
X101010533Y-100652777D01*
X101014187Y-100647850D01*
X101018306Y-100643306D01*
X101022850Y-100639187D01*
X101027777Y-100635533D01*
X101033038Y-100632380D01*
X101038582Y-100629758D01*
X101044357Y-100627691D01*
X101050307Y-100626201D01*
X101056374Y-100625301D01*
X101062500Y-100625000D01*
X101812500Y-100625000D01*
X101818626Y-100625301D01*
G37*
G36*
X100818626Y-101000301D02*
G01*
X100824693Y-101001201D01*
X100830643Y-101002691D01*
X100836418Y-101004758D01*
X100841962Y-101007380D01*
X100847223Y-101010533D01*
X100852150Y-101014187D01*
X100856694Y-101018306D01*
X100860813Y-101022850D01*
X100864467Y-101027777D01*
X100867620Y-101033038D01*
X100870242Y-101038582D01*
X100872309Y-101044357D01*
X100873799Y-101050307D01*
X100874699Y-101056374D01*
X100875000Y-101062500D01*
X100875000Y-101812500D01*
X100874699Y-101818626D01*
X100873799Y-101824693D01*
X100872309Y-101830643D01*
X100870242Y-101836418D01*
X100867620Y-101841962D01*
X100864467Y-101847223D01*
X100860813Y-101852150D01*
X100856694Y-101856694D01*
X100852150Y-101860813D01*
X100847223Y-101864467D01*
X100841962Y-101867620D01*
X100836418Y-101870242D01*
X100830643Y-101872309D01*
X100824693Y-101873799D01*
X100818626Y-101874699D01*
X100812500Y-101875000D01*
X100687500Y-101875000D01*
X100681374Y-101874699D01*
X100675307Y-101873799D01*
X100669357Y-101872309D01*
X100663582Y-101870242D01*
X100658038Y-101867620D01*
X100652777Y-101864467D01*
X100647850Y-101860813D01*
X100643306Y-101856694D01*
X100639187Y-101852150D01*
X100635533Y-101847223D01*
X100632380Y-101841962D01*
X100629758Y-101836418D01*
X100627691Y-101830643D01*
X100626201Y-101824693D01*
X100625301Y-101818626D01*
X100625000Y-101812500D01*
X100625000Y-101062500D01*
X100625301Y-101056374D01*
X100626201Y-101050307D01*
X100627691Y-101044357D01*
X100629758Y-101038582D01*
X100632380Y-101033038D01*
X100635533Y-101027777D01*
X100639187Y-101022850D01*
X100643306Y-101018306D01*
X100647850Y-101014187D01*
X100652777Y-101010533D01*
X100658038Y-101007380D01*
X100663582Y-101004758D01*
X100669357Y-101002691D01*
X100675307Y-101001201D01*
X100681374Y-101000301D01*
X100687500Y-101000000D01*
X100812500Y-101000000D01*
X100818626Y-101000301D01*
G37*
G36*
X100519212Y-100070698D02*
G01*
X100533288Y-100072786D01*
X100547091Y-100076244D01*
X100560489Y-100081037D01*
X100573353Y-100087121D01*
X100585558Y-100094437D01*
X100596987Y-100102913D01*
X100607530Y-100112470D01*
X100617087Y-100123013D01*
X100625563Y-100134442D01*
X100632879Y-100146647D01*
X100638963Y-100159511D01*
X100643756Y-100172909D01*
X100647214Y-100186712D01*
X100649302Y-100200788D01*
X100650000Y-100215000D01*
X100650000Y-100505000D01*
X100649302Y-100519212D01*
X100647214Y-100533288D01*
X100643756Y-100547091D01*
X100638963Y-100560489D01*
X100632879Y-100573353D01*
X100625563Y-100585558D01*
X100617087Y-100596987D01*
X100607530Y-100607530D01*
X100596987Y-100617087D01*
X100585558Y-100625563D01*
X100573353Y-100632879D01*
X100560489Y-100638963D01*
X100547091Y-100643756D01*
X100533288Y-100647214D01*
X100519212Y-100649302D01*
X100505000Y-100650000D01*
X100215000Y-100650000D01*
X100200788Y-100649302D01*
X100186712Y-100647214D01*
X100172909Y-100643756D01*
X100159511Y-100638963D01*
X100146647Y-100632879D01*
X100134442Y-100625563D01*
X100123013Y-100617087D01*
X100112470Y-100607530D01*
X100102913Y-100596987D01*
X100094437Y-100585558D01*
X100087121Y-100573353D01*
X100081037Y-100560489D01*
X100076244Y-100547091D01*
X100072786Y-100533288D01*
X100070698Y-100519212D01*
X100070000Y-100505000D01*
X100070000Y-100215000D01*
X100070698Y-100200788D01*
X100072786Y-100186712D01*
X100076244Y-100172909D01*
X100081037Y-100159511D01*
X100087121Y-100146647D01*
X100094437Y-100134442D01*
X100102913Y-100123013D01*
X100112470Y-100112470D01*
X100123013Y-100102913D01*
X100134442Y-100094437D01*
X100146647Y-100087121D01*
X100159511Y-100081037D01*
X100172909Y-100076244D01*
X100186712Y-100072786D01*
X100200788Y-100070698D01*
X100215000Y-100070000D01*
X100505000Y-100070000D01*
X100519212Y-100070698D01*
G37*
G36*
X101818626Y-100125301D02*
G01*
X101824693Y-100126201D01*
X101830643Y-100127691D01*
X101836418Y-100129758D01*
X101841962Y-100132380D01*
X101847223Y-100135533D01*
X101852150Y-100139187D01*
X101856694Y-100143306D01*
X101860813Y-100147850D01*
X101864467Y-100152777D01*
X101867620Y-100158038D01*
X101870242Y-100163582D01*
X101872309Y-100169357D01*
X101873799Y-100175307D01*
X101874699Y-100181374D01*
X101875000Y-100187500D01*
X101875000Y-100312500D01*
X101874699Y-100318626D01*
X101873799Y-100324693D01*
X101872309Y-100330643D01*
X101870242Y-100336418D01*
X101867620Y-100341962D01*
X101864467Y-100347223D01*
X101860813Y-100352150D01*
X101856694Y-100356694D01*
X101852150Y-100360813D01*
X101847223Y-100364467D01*
X101841962Y-100367620D01*
X101836418Y-100370242D01*
X101830643Y-100372309D01*
X101824693Y-100373799D01*
X101818626Y-100374699D01*
X101812500Y-100375000D01*
X101062500Y-100375000D01*
X101056374Y-100374699D01*
X101050307Y-100373799D01*
X101044357Y-100372309D01*
X101038582Y-100370242D01*
X101033038Y-100367620D01*
X101027777Y-100364467D01*
X101022850Y-100360813D01*
X101018306Y-100356694D01*
X101014187Y-100352150D01*
X101010533Y-100347223D01*
X101007380Y-100341962D01*
X101004758Y-100336418D01*
X101002691Y-100330643D01*
X101001201Y-100324693D01*
X101000301Y-100318626D01*
X101000000Y-100312500D01*
X101000000Y-100187500D01*
X101000301Y-100181374D01*
X101001201Y-100175307D01*
X101002691Y-100169357D01*
X101004758Y-100163582D01*
X101007380Y-100158038D01*
X101010533Y-100152777D01*
X101014187Y-100147850D01*
X101018306Y-100143306D01*
X101022850Y-100139187D01*
X101027777Y-100135533D01*
X101033038Y-100132380D01*
X101038582Y-100129758D01*
X101044357Y-100127691D01*
X101050307Y-100126201D01*
X101056374Y-100125301D01*
X101062500Y-100125000D01*
X101812500Y-100125000D01*
X101818626Y-100125301D01*
G37*
G36*
X99818626Y-101000301D02*
G01*
X99824693Y-101001201D01*
X99830643Y-101002691D01*
X99836418Y-101004758D01*
X99841962Y-101007380D01*
X99847223Y-101010533D01*
X99852150Y-101014187D01*
X99856694Y-101018306D01*
X99860813Y-101022850D01*
X99864467Y-101027777D01*
X99867620Y-101033038D01*
X99870242Y-101038582D01*
X99872309Y-101044357D01*
X99873799Y-101050307D01*
X99874699Y-101056374D01*
X99875000Y-101062500D01*
X99875000Y-101812500D01*
X99874699Y-101818626D01*
X99873799Y-101824693D01*
X99872309Y-101830643D01*
X99870242Y-101836418D01*
X99867620Y-101841962D01*
X99864467Y-101847223D01*
X99860813Y-101852150D01*
X99856694Y-101856694D01*
X99852150Y-101860813D01*
X99847223Y-101864467D01*
X99841962Y-101867620D01*
X99836418Y-101870242D01*
X99830643Y-101872309D01*
X99824693Y-101873799D01*
X99818626Y-101874699D01*
X99812500Y-101875000D01*
X99687500Y-101875000D01*
X99681374Y-101874699D01*
X99675307Y-101873799D01*
X99669357Y-101872309D01*
X99663582Y-101870242D01*
X99658038Y-101867620D01*
X99652777Y-101864467D01*
X99647850Y-101860813D01*
X99643306Y-101856694D01*
X99639187Y-101852150D01*
X99635533Y-101847223D01*
X99632380Y-101841962D01*
X99629758Y-101836418D01*
X99627691Y-101830643D01*
X99626201Y-101824693D01*
X99625301Y-101818626D01*
X99625000Y-101812500D01*
X99625000Y-101062500D01*
X99625301Y-101056374D01*
X99626201Y-101050307D01*
X99627691Y-101044357D01*
X99629758Y-101038582D01*
X99632380Y-101033038D01*
X99635533Y-101027777D01*
X99639187Y-101022850D01*
X99643306Y-101018306D01*
X99647850Y-101014187D01*
X99652777Y-101010533D01*
X99658038Y-101007380D01*
X99663582Y-101004758D01*
X99669357Y-101002691D01*
X99675307Y-101001201D01*
X99681374Y-101000301D01*
X99687500Y-101000000D01*
X99812500Y-101000000D01*
X99818626Y-101000301D01*
G37*
G36*
X100318626Y-101000301D02*
G01*
X100324693Y-101001201D01*
X100330643Y-101002691D01*
X100336418Y-101004758D01*
X100341962Y-101007380D01*
X100347223Y-101010533D01*
X100352150Y-101014187D01*
X100356694Y-101018306D01*
X100360813Y-101022850D01*
X100364467Y-101027777D01*
X100367620Y-101033038D01*
X100370242Y-101038582D01*
X100372309Y-101044357D01*
X100373799Y-101050307D01*
X100374699Y-101056374D01*
X100375000Y-101062500D01*
X100375000Y-101812500D01*
X100374699Y-101818626D01*
X100373799Y-101824693D01*
X100372309Y-101830643D01*
X100370242Y-101836418D01*
X100367620Y-101841962D01*
X100364467Y-101847223D01*
X100360813Y-101852150D01*
X100356694Y-101856694D01*
X100352150Y-101860813D01*
X100347223Y-101864467D01*
X100341962Y-101867620D01*
X100336418Y-101870242D01*
X100330643Y-101872309D01*
X100324693Y-101873799D01*
X100318626Y-101874699D01*
X100312500Y-101875000D01*
X100187500Y-101875000D01*
X100181374Y-101874699D01*
X100175307Y-101873799D01*
X100169357Y-101872309D01*
X100163582Y-101870242D01*
X100158038Y-101867620D01*
X100152777Y-101864467D01*
X100147850Y-101860813D01*
X100143306Y-101856694D01*
X100139187Y-101852150D01*
X100135533Y-101847223D01*
X100132380Y-101841962D01*
X100129758Y-101836418D01*
X100127691Y-101830643D01*
X100126201Y-101824693D01*
X100125301Y-101818626D01*
X100125000Y-101812500D01*
X100125000Y-101062500D01*
X100125301Y-101056374D01*
X100126201Y-101050307D01*
X100127691Y-101044357D01*
X100129758Y-101038582D01*
X100132380Y-101033038D01*
X100135533Y-101027777D01*
X100139187Y-101022850D01*
X100143306Y-101018306D01*
X100147850Y-101014187D01*
X100152777Y-101010533D01*
X100158038Y-101007380D01*
X100163582Y-101004758D01*
X100169357Y-101002691D01*
X100175307Y-101001201D01*
X100181374Y-101000301D01*
X100187500Y-101000000D01*
X100312500Y-101000000D01*
X100318626Y-101000301D01*
G37*
G36*
X100318626Y-98125301D02*
G01*
X100324693Y-98126201D01*
X100330643Y-98127691D01*
X100336418Y-98129758D01*
X100341962Y-98132380D01*
X100347223Y-98135533D01*
X100352150Y-98139187D01*
X100356694Y-98143306D01*
X100360813Y-98147850D01*
X100364467Y-98152777D01*
X100367620Y-98158038D01*
X100370242Y-98163582D01*
X100372309Y-98169357D01*
X100373799Y-98175307D01*
X100374699Y-98181374D01*
X100375000Y-98187500D01*
X100375000Y-98937500D01*
X100374699Y-98943626D01*
X100373799Y-98949693D01*
X100372309Y-98955643D01*
X100370242Y-98961418D01*
X100367620Y-98966962D01*
X100364467Y-98972223D01*
X100360813Y-98977150D01*
X100356694Y-98981694D01*
X100352150Y-98985813D01*
X100347223Y-98989467D01*
X100341962Y-98992620D01*
X100336418Y-98995242D01*
X100330643Y-98997309D01*
X100324693Y-98998799D01*
X100318626Y-98999699D01*
X100312500Y-99000000D01*
X100187500Y-99000000D01*
X100181374Y-98999699D01*
X100175307Y-98998799D01*
X100169357Y-98997309D01*
X100163582Y-98995242D01*
X100158038Y-98992620D01*
X100152777Y-98989467D01*
X100147850Y-98985813D01*
X100143306Y-98981694D01*
X100139187Y-98977150D01*
X100135533Y-98972223D01*
X100132380Y-98966962D01*
X100129758Y-98961418D01*
X100127691Y-98955643D01*
X100126201Y-98949693D01*
X100125301Y-98943626D01*
X100125000Y-98937500D01*
X100125000Y-98187500D01*
X100125301Y-98181374D01*
X100126201Y-98175307D01*
X100127691Y-98169357D01*
X100129758Y-98163582D01*
X100132380Y-98158038D01*
X100135533Y-98152777D01*
X100139187Y-98147850D01*
X100143306Y-98143306D01*
X100147850Y-98139187D01*
X100152777Y-98135533D01*
X100158038Y-98132380D01*
X100163582Y-98129758D01*
X100169357Y-98127691D01*
X100175307Y-98126201D01*
X100181374Y-98125301D01*
X100187500Y-98125000D01*
X100312500Y-98125000D01*
X100318626Y-98125301D01*
G37*
G36*
X101818626Y-99625301D02*
G01*
X101824693Y-99626201D01*
X101830643Y-99627691D01*
X101836418Y-99629758D01*
X101841962Y-99632380D01*
X101847223Y-99635533D01*
X101852150Y-99639187D01*
X101856694Y-99643306D01*
X101860813Y-99647850D01*
X101864467Y-99652777D01*
X101867620Y-99658038D01*
X101870242Y-99663582D01*
X101872309Y-99669357D01*
X101873799Y-99675307D01*
X101874699Y-99681374D01*
X101875000Y-99687500D01*
X101875000Y-99812500D01*
X101874699Y-99818626D01*
X101873799Y-99824693D01*
X101872309Y-99830643D01*
X101870242Y-99836418D01*
X101867620Y-99841962D01*
X101864467Y-99847223D01*
X101860813Y-99852150D01*
X101856694Y-99856694D01*
X101852150Y-99860813D01*
X101847223Y-99864467D01*
X101841962Y-99867620D01*
X101836418Y-99870242D01*
X101830643Y-99872309D01*
X101824693Y-99873799D01*
X101818626Y-99874699D01*
X101812500Y-99875000D01*
X101062500Y-99875000D01*
X101056374Y-99874699D01*
X101050307Y-99873799D01*
X101044357Y-99872309D01*
X101038582Y-99870242D01*
X101033038Y-99867620D01*
X101027777Y-99864467D01*
X101022850Y-99860813D01*
X101018306Y-99856694D01*
X101014187Y-99852150D01*
X101010533Y-99847223D01*
X101007380Y-99841962D01*
X101004758Y-99836418D01*
X101002691Y-99830643D01*
X101001201Y-99824693D01*
X101000301Y-99818626D01*
X101000000Y-99812500D01*
X101000000Y-99687500D01*
X101000301Y-99681374D01*
X101001201Y-99675307D01*
X101002691Y-99669357D01*
X101004758Y-99663582D01*
X101007380Y-99658038D01*
X101010533Y-99652777D01*
X101014187Y-99647850D01*
X101018306Y-99643306D01*
X101022850Y-99639187D01*
X101027777Y-99635533D01*
X101033038Y-99632380D01*
X101038582Y-99629758D01*
X101044357Y-99627691D01*
X101050307Y-99626201D01*
X101056374Y-99625301D01*
X101062500Y-99625000D01*
X101812500Y-99625000D01*
X101818626Y-99625301D01*
G37*
G36*
X98943626Y-100125301D02*
G01*
X98949693Y-100126201D01*
X98955643Y-100127691D01*
X98961418Y-100129758D01*
X98966962Y-100132380D01*
X98972223Y-100135533D01*
X98977150Y-100139187D01*
X98981694Y-100143306D01*
X98985813Y-100147850D01*
X98989467Y-100152777D01*
X98992620Y-100158038D01*
X98995242Y-100163582D01*
X98997309Y-100169357D01*
X98998799Y-100175307D01*
X98999699Y-100181374D01*
X99000000Y-100187500D01*
X99000000Y-100312500D01*
X98999699Y-100318626D01*
X98998799Y-100324693D01*
X98997309Y-100330643D01*
X98995242Y-100336418D01*
X98992620Y-100341962D01*
X98989467Y-100347223D01*
X98985813Y-100352150D01*
X98981694Y-100356694D01*
X98977150Y-100360813D01*
X98972223Y-100364467D01*
X98966962Y-100367620D01*
X98961418Y-100370242D01*
X98955643Y-100372309D01*
X98949693Y-100373799D01*
X98943626Y-100374699D01*
X98937500Y-100375000D01*
X98187500Y-100375000D01*
X98181374Y-100374699D01*
X98175307Y-100373799D01*
X98169357Y-100372309D01*
X98163582Y-100370242D01*
X98158038Y-100367620D01*
X98152777Y-100364467D01*
X98147850Y-100360813D01*
X98143306Y-100356694D01*
X98139187Y-100352150D01*
X98135533Y-100347223D01*
X98132380Y-100341962D01*
X98129758Y-100336418D01*
X98127691Y-100330643D01*
X98126201Y-100324693D01*
X98125301Y-100318626D01*
X98125000Y-100312500D01*
X98125000Y-100187500D01*
X98125301Y-100181374D01*
X98126201Y-100175307D01*
X98127691Y-100169357D01*
X98129758Y-100163582D01*
X98132380Y-100158038D01*
X98135533Y-100152777D01*
X98139187Y-100147850D01*
X98143306Y-100143306D01*
X98147850Y-100139187D01*
X98152777Y-100135533D01*
X98158038Y-100132380D01*
X98163582Y-100129758D01*
X98169357Y-100127691D01*
X98175307Y-100126201D01*
X98181374Y-100125301D01*
X98187500Y-100125000D01*
X98937500Y-100125000D01*
X98943626Y-100125301D01*
G37*
G36*
X98943626Y-99125301D02*
G01*
X98949693Y-99126201D01*
X98955643Y-99127691D01*
X98961418Y-99129758D01*
X98966962Y-99132380D01*
X98972223Y-99135533D01*
X98977150Y-99139187D01*
X98981694Y-99143306D01*
X98985813Y-99147850D01*
X98989467Y-99152777D01*
X98992620Y-99158038D01*
X98995242Y-99163582D01*
X98997309Y-99169357D01*
X98998799Y-99175307D01*
X98999699Y-99181374D01*
X99000000Y-99187500D01*
X99000000Y-99312500D01*
X98999699Y-99318626D01*
X98998799Y-99324693D01*
X98997309Y-99330643D01*
X98995242Y-99336418D01*
X98992620Y-99341962D01*
X98989467Y-99347223D01*
X98985813Y-99352150D01*
X98981694Y-99356694D01*
X98977150Y-99360813D01*
X98972223Y-99364467D01*
X98966962Y-99367620D01*
X98961418Y-99370242D01*
X98955643Y-99372309D01*
X98949693Y-99373799D01*
X98943626Y-99374699D01*
X98937500Y-99375000D01*
X98187500Y-99375000D01*
X98181374Y-99374699D01*
X98175307Y-99373799D01*
X98169357Y-99372309D01*
X98163582Y-99370242D01*
X98158038Y-99367620D01*
X98152777Y-99364467D01*
X98147850Y-99360813D01*
X98143306Y-99356694D01*
X98139187Y-99352150D01*
X98135533Y-99347223D01*
X98132380Y-99341962D01*
X98129758Y-99336418D01*
X98127691Y-99330643D01*
X98126201Y-99324693D01*
X98125301Y-99318626D01*
X98125000Y-99312500D01*
X98125000Y-99187500D01*
X98125301Y-99181374D01*
X98126201Y-99175307D01*
X98127691Y-99169357D01*
X98129758Y-99163582D01*
X98132380Y-99158038D01*
X98135533Y-99152777D01*
X98139187Y-99147850D01*
X98143306Y-99143306D01*
X98147850Y-99139187D01*
X98152777Y-99135533D01*
X98158038Y-99132380D01*
X98163582Y-99129758D01*
X98169357Y-99127691D01*
X98175307Y-99126201D01*
X98181374Y-99125301D01*
X98187500Y-99125000D01*
X98937500Y-99125000D01*
X98943626Y-99125301D01*
G37*
G36*
X100519212Y-99350698D02*
G01*
X100533288Y-99352786D01*
X100547091Y-99356244D01*
X100560489Y-99361037D01*
X100573353Y-99367121D01*
X100585558Y-99374437D01*
X100596987Y-99382913D01*
X100607530Y-99392470D01*
X100617087Y-99403013D01*
X100625563Y-99414442D01*
X100632879Y-99426647D01*
X100638963Y-99439511D01*
X100643756Y-99452909D01*
X100647214Y-99466712D01*
X100649302Y-99480788D01*
X100650000Y-99495000D01*
X100650000Y-99785000D01*
X100649302Y-99799212D01*
X100647214Y-99813288D01*
X100643756Y-99827091D01*
X100638963Y-99840489D01*
X100632879Y-99853353D01*
X100625563Y-99865558D01*
X100617087Y-99876987D01*
X100607530Y-99887530D01*
X100596987Y-99897087D01*
X100585558Y-99905563D01*
X100573353Y-99912879D01*
X100560489Y-99918963D01*
X100547091Y-99923756D01*
X100533288Y-99927214D01*
X100519212Y-99929302D01*
X100505000Y-99930000D01*
X100215000Y-99930000D01*
X100200788Y-99929302D01*
X100186712Y-99927214D01*
X100172909Y-99923756D01*
X100159511Y-99918963D01*
X100146647Y-99912879D01*
X100134442Y-99905563D01*
X100123013Y-99897087D01*
X100112470Y-99887530D01*
X100102913Y-99876987D01*
X100094437Y-99865558D01*
X100087121Y-99853353D01*
X100081037Y-99840489D01*
X100076244Y-99827091D01*
X100072786Y-99813288D01*
X100070698Y-99799212D01*
X100070000Y-99785000D01*
X100070000Y-99495000D01*
X100070698Y-99480788D01*
X100072786Y-99466712D01*
X100076244Y-99452909D01*
X100081037Y-99439511D01*
X100087121Y-99426647D01*
X100094437Y-99414442D01*
X100102913Y-99403013D01*
X100112470Y-99392470D01*
X100123013Y-99382913D01*
X100134442Y-99374437D01*
X100146647Y-99367121D01*
X100159511Y-99361037D01*
X100172909Y-99356244D01*
X100186712Y-99352786D01*
X100200788Y-99350698D01*
X100215000Y-99350000D01*
X100505000Y-99350000D01*
X100519212Y-99350698D01*
G37*
G36*
X99318626Y-101000301D02*
G01*
X99324693Y-101001201D01*
X99330643Y-101002691D01*
X99336418Y-101004758D01*
X99341962Y-101007380D01*
X99347223Y-101010533D01*
X99352150Y-101014187D01*
X99356694Y-101018306D01*
X99360813Y-101022850D01*
X99364467Y-101027777D01*
X99367620Y-101033038D01*
X99370242Y-101038582D01*
X99372309Y-101044357D01*
X99373799Y-101050307D01*
X99374699Y-101056374D01*
X99375000Y-101062500D01*
X99375000Y-101812500D01*
X99374699Y-101818626D01*
X99373799Y-101824693D01*
X99372309Y-101830643D01*
X99370242Y-101836418D01*
X99367620Y-101841962D01*
X99364467Y-101847223D01*
X99360813Y-101852150D01*
X99356694Y-101856694D01*
X99352150Y-101860813D01*
X99347223Y-101864467D01*
X99341962Y-101867620D01*
X99336418Y-101870242D01*
X99330643Y-101872309D01*
X99324693Y-101873799D01*
X99318626Y-101874699D01*
X99312500Y-101875000D01*
X99187500Y-101875000D01*
X99181374Y-101874699D01*
X99175307Y-101873799D01*
X99169357Y-101872309D01*
X99163582Y-101870242D01*
X99158038Y-101867620D01*
X99152777Y-101864467D01*
X99147850Y-101860813D01*
X99143306Y-101856694D01*
X99139187Y-101852150D01*
X99135533Y-101847223D01*
X99132380Y-101841962D01*
X99129758Y-101836418D01*
X99127691Y-101830643D01*
X99126201Y-101824693D01*
X99125301Y-101818626D01*
X99125000Y-101812500D01*
X99125000Y-101062500D01*
X99125301Y-101056374D01*
X99126201Y-101050307D01*
X99127691Y-101044357D01*
X99129758Y-101038582D01*
X99132380Y-101033038D01*
X99135533Y-101027777D01*
X99139187Y-101022850D01*
X99143306Y-101018306D01*
X99147850Y-101014187D01*
X99152777Y-101010533D01*
X99158038Y-101007380D01*
X99163582Y-101004758D01*
X99169357Y-101002691D01*
X99175307Y-101001201D01*
X99181374Y-101000301D01*
X99187500Y-101000000D01*
X99312500Y-101000000D01*
X99318626Y-101000301D01*
G37*
G36*
X99799212Y-100070698D02*
G01*
X99813288Y-100072786D01*
X99827091Y-100076244D01*
X99840489Y-100081037D01*
X99853353Y-100087121D01*
X99865558Y-100094437D01*
X99876987Y-100102913D01*
X99887530Y-100112470D01*
X99897087Y-100123013D01*
X99905563Y-100134442D01*
X99912879Y-100146647D01*
X99918963Y-100159511D01*
X99923756Y-100172909D01*
X99927214Y-100186712D01*
X99929302Y-100200788D01*
X99930000Y-100215000D01*
X99930000Y-100505000D01*
X99929302Y-100519212D01*
X99927214Y-100533288D01*
X99923756Y-100547091D01*
X99918963Y-100560489D01*
X99912879Y-100573353D01*
X99905563Y-100585558D01*
X99897087Y-100596987D01*
X99887530Y-100607530D01*
X99876987Y-100617087D01*
X99865558Y-100625563D01*
X99853353Y-100632879D01*
X99840489Y-100638963D01*
X99827091Y-100643756D01*
X99813288Y-100647214D01*
X99799212Y-100649302D01*
X99785000Y-100650000D01*
X99495000Y-100650000D01*
X99480788Y-100649302D01*
X99466712Y-100647214D01*
X99452909Y-100643756D01*
X99439511Y-100638963D01*
X99426647Y-100632879D01*
X99414442Y-100625563D01*
X99403013Y-100617087D01*
X99392470Y-100607530D01*
X99382913Y-100596987D01*
X99374437Y-100585558D01*
X99367121Y-100573353D01*
X99361037Y-100560489D01*
X99356244Y-100547091D01*
X99352786Y-100533288D01*
X99350698Y-100519212D01*
X99350000Y-100505000D01*
X99350000Y-100215000D01*
X99350698Y-100200788D01*
X99352786Y-100186712D01*
X99356244Y-100172909D01*
X99361037Y-100159511D01*
X99367121Y-100146647D01*
X99374437Y-100134442D01*
X99382913Y-100123013D01*
X99392470Y-100112470D01*
X99403013Y-100102913D01*
X99414442Y-100094437D01*
X99426647Y-100087121D01*
X99439511Y-100081037D01*
X99452909Y-100076244D01*
X99466712Y-100072786D01*
X99480788Y-100070698D01*
X99495000Y-100070000D01*
X99785000Y-100070000D01*
X99799212Y-100070698D01*
G37*
G36*
X99818626Y-98125301D02*
G01*
X99824693Y-98126201D01*
X99830643Y-98127691D01*
X99836418Y-98129758D01*
X99841962Y-98132380D01*
X99847223Y-98135533D01*
X99852150Y-98139187D01*
X99856694Y-98143306D01*
X99860813Y-98147850D01*
X99864467Y-98152777D01*
X99867620Y-98158038D01*
X99870242Y-98163582D01*
X99872309Y-98169357D01*
X99873799Y-98175307D01*
X99874699Y-98181374D01*
X99875000Y-98187500D01*
X99875000Y-98937500D01*
X99874699Y-98943626D01*
X99873799Y-98949693D01*
X99872309Y-98955643D01*
X99870242Y-98961418D01*
X99867620Y-98966962D01*
X99864467Y-98972223D01*
X99860813Y-98977150D01*
X99856694Y-98981694D01*
X99852150Y-98985813D01*
X99847223Y-98989467D01*
X99841962Y-98992620D01*
X99836418Y-98995242D01*
X99830643Y-98997309D01*
X99824693Y-98998799D01*
X99818626Y-98999699D01*
X99812500Y-99000000D01*
X99687500Y-99000000D01*
X99681374Y-98999699D01*
X99675307Y-98998799D01*
X99669357Y-98997309D01*
X99663582Y-98995242D01*
X99658038Y-98992620D01*
X99652777Y-98989467D01*
X99647850Y-98985813D01*
X99643306Y-98981694D01*
X99639187Y-98977150D01*
X99635533Y-98972223D01*
X99632380Y-98966962D01*
X99629758Y-98961418D01*
X99627691Y-98955643D01*
X99626201Y-98949693D01*
X99625301Y-98943626D01*
X99625000Y-98937500D01*
X99625000Y-98187500D01*
X99625301Y-98181374D01*
X99626201Y-98175307D01*
X99627691Y-98169357D01*
X99629758Y-98163582D01*
X99632380Y-98158038D01*
X99635533Y-98152777D01*
X99639187Y-98147850D01*
X99643306Y-98143306D01*
X99647850Y-98139187D01*
X99652777Y-98135533D01*
X99658038Y-98132380D01*
X99663582Y-98129758D01*
X99669357Y-98127691D01*
X99675307Y-98126201D01*
X99681374Y-98125301D01*
X99687500Y-98125000D01*
X99812500Y-98125000D01*
X99818626Y-98125301D01*
G37*
G36*
X99799212Y-99350698D02*
G01*
X99813288Y-99352786D01*
X99827091Y-99356244D01*
X99840489Y-99361037D01*
X99853353Y-99367121D01*
X99865558Y-99374437D01*
X99876987Y-99382913D01*
X99887530Y-99392470D01*
X99897087Y-99403013D01*
X99905563Y-99414442D01*
X99912879Y-99426647D01*
X99918963Y-99439511D01*
X99923756Y-99452909D01*
X99927214Y-99466712D01*
X99929302Y-99480788D01*
X99930000Y-99495000D01*
X99930000Y-99785000D01*
X99929302Y-99799212D01*
X99927214Y-99813288D01*
X99923756Y-99827091D01*
X99918963Y-99840489D01*
X99912879Y-99853353D01*
X99905563Y-99865558D01*
X99897087Y-99876987D01*
X99887530Y-99887530D01*
X99876987Y-99897087D01*
X99865558Y-99905563D01*
X99853353Y-99912879D01*
X99840489Y-99918963D01*
X99827091Y-99923756D01*
X99813288Y-99927214D01*
X99799212Y-99929302D01*
X99785000Y-99930000D01*
X99495000Y-99930000D01*
X99480788Y-99929302D01*
X99466712Y-99927214D01*
X99452909Y-99923756D01*
X99439511Y-99918963D01*
X99426647Y-99912879D01*
X99414442Y-99905563D01*
X99403013Y-99897087D01*
X99392470Y-99887530D01*
X99382913Y-99876987D01*
X99374437Y-99865558D01*
X99367121Y-99853353D01*
X99361037Y-99840489D01*
X99356244Y-99827091D01*
X99352786Y-99813288D01*
X99350698Y-99799212D01*
X99350000Y-99785000D01*
X99350000Y-99495000D01*
X99350698Y-99480788D01*
X99352786Y-99466712D01*
X99356244Y-99452909D01*
X99361037Y-99439511D01*
X99367121Y-99426647D01*
X99374437Y-99414442D01*
X99382913Y-99403013D01*
X99392470Y-99392470D01*
X99403013Y-99382913D01*
X99414442Y-99374437D01*
X99426647Y-99367121D01*
X99439511Y-99361037D01*
X99452909Y-99356244D01*
X99466712Y-99352786D01*
X99480788Y-99350698D01*
X99495000Y-99350000D01*
X99785000Y-99350000D01*
X99799212Y-99350698D01*
G37*
%TD*%
%TO.C,J1*%
G36*
X104426253Y-105052004D02*
G01*
X104440876Y-105053687D01*
X104455265Y-105056794D01*
X104469280Y-105061297D01*
X104482785Y-105067152D01*
X104495652Y-105074303D01*
X104507756Y-105082680D01*
X104518981Y-105092203D01*
X104529218Y-105102781D01*
X104538369Y-105114311D01*
X104546346Y-105126683D01*
X105171346Y-106209215D01*
X105178072Y-106222309D01*
X105183482Y-106235999D01*
X105187524Y-106250154D01*
X105190159Y-106264636D01*
X105191362Y-106279307D01*
X105191121Y-106294025D01*
X105189438Y-106308649D01*
X105186331Y-106323038D01*
X105181828Y-106337053D01*
X105175973Y-106350558D01*
X105168822Y-106363425D01*
X105160445Y-106375529D01*
X105150922Y-106386754D01*
X105140344Y-106396991D01*
X105128814Y-106406142D01*
X105116442Y-106414119D01*
X104856634Y-106564119D01*
X104843540Y-106570845D01*
X104829850Y-106576255D01*
X104815695Y-106580297D01*
X104801213Y-106582932D01*
X104786542Y-106584135D01*
X104771823Y-106583894D01*
X104757200Y-106582211D01*
X104742811Y-106579104D01*
X104728796Y-106574601D01*
X104715291Y-106568746D01*
X104702424Y-106561595D01*
X104690320Y-106553218D01*
X104679095Y-106543695D01*
X104668858Y-106533117D01*
X104659707Y-106521587D01*
X104651730Y-106509215D01*
X104026730Y-105426683D01*
X104020004Y-105413589D01*
X104014594Y-105399899D01*
X104010552Y-105385744D01*
X104007917Y-105371262D01*
X104006714Y-105356591D01*
X104006955Y-105341873D01*
X104008638Y-105327249D01*
X104011745Y-105312860D01*
X104016248Y-105298845D01*
X104022103Y-105285340D01*
X104029254Y-105272473D01*
X104037631Y-105260369D01*
X104047154Y-105249144D01*
X104057732Y-105238907D01*
X104069262Y-105229756D01*
X104081634Y-105221779D01*
X104341442Y-105071779D01*
X104354536Y-105065053D01*
X104368226Y-105059643D01*
X104382381Y-105055601D01*
X104396863Y-105052966D01*
X104411534Y-105051763D01*
X104426253Y-105052004D01*
G37*
G36*
X103560228Y-105552004D02*
G01*
X103574851Y-105553687D01*
X103589240Y-105556794D01*
X103603255Y-105561297D01*
X103616760Y-105567152D01*
X103629627Y-105574303D01*
X103641731Y-105582680D01*
X103652956Y-105592203D01*
X103663193Y-105602781D01*
X103672344Y-105614311D01*
X103680321Y-105626683D01*
X104305321Y-106709215D01*
X104312047Y-106722309D01*
X104317457Y-106735999D01*
X104321499Y-106750154D01*
X104324134Y-106764636D01*
X104325337Y-106779307D01*
X104325096Y-106794025D01*
X104323413Y-106808649D01*
X104320306Y-106823038D01*
X104315803Y-106837053D01*
X104309948Y-106850558D01*
X104302797Y-106863425D01*
X104294420Y-106875529D01*
X104284897Y-106886754D01*
X104274319Y-106896991D01*
X104262789Y-106906142D01*
X104250417Y-106914119D01*
X103990609Y-107064119D01*
X103977515Y-107070845D01*
X103963825Y-107076255D01*
X103949670Y-107080297D01*
X103935188Y-107082932D01*
X103920517Y-107084135D01*
X103905798Y-107083894D01*
X103891175Y-107082211D01*
X103876786Y-107079104D01*
X103862771Y-107074601D01*
X103849266Y-107068746D01*
X103836399Y-107061595D01*
X103824295Y-107053218D01*
X103813070Y-107043695D01*
X103802833Y-107033117D01*
X103793682Y-107021587D01*
X103785705Y-107009215D01*
X103160705Y-105926683D01*
X103153979Y-105913589D01*
X103148569Y-105899899D01*
X103144527Y-105885744D01*
X103141892Y-105871262D01*
X103140689Y-105856591D01*
X103140930Y-105841873D01*
X103142613Y-105827249D01*
X103145720Y-105812860D01*
X103150223Y-105798845D01*
X103156078Y-105785340D01*
X103163229Y-105772473D01*
X103171606Y-105760369D01*
X103181129Y-105749144D01*
X103191707Y-105738907D01*
X103203237Y-105729756D01*
X103215609Y-105721779D01*
X103475417Y-105571779D01*
X103488511Y-105565053D01*
X103502201Y-105559643D01*
X103516356Y-105555601D01*
X103530838Y-105552966D01*
X103545509Y-105551763D01*
X103560228Y-105552004D01*
G37*
G36*
X102694202Y-106052004D02*
G01*
X102708825Y-106053687D01*
X102723214Y-106056794D01*
X102737229Y-106061297D01*
X102750734Y-106067152D01*
X102763601Y-106074303D01*
X102775705Y-106082680D01*
X102786930Y-106092203D01*
X102797167Y-106102781D01*
X102806318Y-106114311D01*
X102814295Y-106126683D01*
X103439295Y-107209215D01*
X103446021Y-107222309D01*
X103451431Y-107235999D01*
X103455473Y-107250154D01*
X103458108Y-107264636D01*
X103459311Y-107279307D01*
X103459070Y-107294025D01*
X103457387Y-107308649D01*
X103454280Y-107323038D01*
X103449777Y-107337053D01*
X103443922Y-107350558D01*
X103436771Y-107363425D01*
X103428394Y-107375529D01*
X103418871Y-107386754D01*
X103408293Y-107396991D01*
X103396763Y-107406142D01*
X103384391Y-107414119D01*
X103124583Y-107564119D01*
X103111489Y-107570845D01*
X103097799Y-107576255D01*
X103083644Y-107580297D01*
X103069162Y-107582932D01*
X103054491Y-107584135D01*
X103039772Y-107583894D01*
X103025149Y-107582211D01*
X103010760Y-107579104D01*
X102996745Y-107574601D01*
X102983240Y-107568746D01*
X102970373Y-107561595D01*
X102958269Y-107553218D01*
X102947044Y-107543695D01*
X102936807Y-107533117D01*
X102927656Y-107521587D01*
X102919679Y-107509215D01*
X102294679Y-106426683D01*
X102287953Y-106413589D01*
X102282543Y-106399899D01*
X102278501Y-106385744D01*
X102275866Y-106371262D01*
X102274663Y-106356591D01*
X102274904Y-106341873D01*
X102276587Y-106327249D01*
X102279694Y-106312860D01*
X102284197Y-106298845D01*
X102290052Y-106285340D01*
X102297203Y-106272473D01*
X102305580Y-106260369D01*
X102315103Y-106249144D01*
X102325681Y-106238907D01*
X102337211Y-106229756D01*
X102349583Y-106221779D01*
X102609391Y-106071779D01*
X102622485Y-106065053D01*
X102636175Y-106059643D01*
X102650330Y-106055601D01*
X102664812Y-106052966D01*
X102679483Y-106051763D01*
X102694202Y-106052004D01*
G37*
G36*
X101828177Y-106552004D02*
G01*
X101842800Y-106553687D01*
X101857189Y-106556794D01*
X101871204Y-106561297D01*
X101884709Y-106567152D01*
X101897576Y-106574303D01*
X101909680Y-106582680D01*
X101920905Y-106592203D01*
X101931142Y-106602781D01*
X101940293Y-106614311D01*
X101948270Y-106626683D01*
X102573270Y-107709215D01*
X102579996Y-107722309D01*
X102585406Y-107735999D01*
X102589448Y-107750154D01*
X102592083Y-107764636D01*
X102593286Y-107779307D01*
X102593045Y-107794025D01*
X102591362Y-107808649D01*
X102588255Y-107823038D01*
X102583752Y-107837053D01*
X102577897Y-107850558D01*
X102570746Y-107863425D01*
X102562369Y-107875529D01*
X102552846Y-107886754D01*
X102542268Y-107896991D01*
X102530738Y-107906142D01*
X102518366Y-107914119D01*
X102258558Y-108064119D01*
X102245464Y-108070845D01*
X102231774Y-108076255D01*
X102217619Y-108080297D01*
X102203137Y-108082932D01*
X102188466Y-108084135D01*
X102173747Y-108083894D01*
X102159124Y-108082211D01*
X102144735Y-108079104D01*
X102130720Y-108074601D01*
X102117215Y-108068746D01*
X102104348Y-108061595D01*
X102092244Y-108053218D01*
X102081019Y-108043695D01*
X102070782Y-108033117D01*
X102061631Y-108021587D01*
X102053654Y-108009215D01*
X101428654Y-106926683D01*
X101421928Y-106913589D01*
X101416518Y-106899899D01*
X101412476Y-106885744D01*
X101409841Y-106871262D01*
X101408638Y-106856591D01*
X101408879Y-106841873D01*
X101410562Y-106827249D01*
X101413669Y-106812860D01*
X101418172Y-106798845D01*
X101424027Y-106785340D01*
X101431178Y-106772473D01*
X101439555Y-106760369D01*
X101449078Y-106749144D01*
X101459656Y-106738907D01*
X101471186Y-106729756D01*
X101483558Y-106721779D01*
X101743366Y-106571779D01*
X101756460Y-106565053D01*
X101770150Y-106559643D01*
X101784305Y-106555601D01*
X101798787Y-106552966D01*
X101813458Y-106551763D01*
X101828177Y-106552004D01*
G37*
G36*
X107656831Y-107536416D02*
G01*
X107681204Y-107539220D01*
X107705184Y-107544399D01*
X107728542Y-107551904D01*
X107751052Y-107561663D01*
X107772496Y-107573580D01*
X107792670Y-107587542D01*
X107811377Y-107603415D01*
X107828439Y-107621044D01*
X107843691Y-107640261D01*
X107856985Y-107660881D01*
X108506986Y-108786716D01*
X108518196Y-108808539D01*
X108527213Y-108831355D01*
X108533949Y-108854946D01*
X108538341Y-108879084D01*
X108540346Y-108903535D01*
X108539945Y-108928066D01*
X108537141Y-108952439D01*
X108531961Y-108976420D01*
X108524457Y-108999777D01*
X108514698Y-109022287D01*
X108502781Y-109043731D01*
X108488819Y-109063905D01*
X108472946Y-109082612D01*
X108455317Y-109099674D01*
X108436100Y-109114926D01*
X108415481Y-109128220D01*
X107809262Y-109478221D01*
X107787438Y-109489431D01*
X107764622Y-109498448D01*
X107741031Y-109505184D01*
X107716894Y-109509576D01*
X107692442Y-109511581D01*
X107667911Y-109511180D01*
X107643538Y-109508376D01*
X107619558Y-109503197D01*
X107596200Y-109495692D01*
X107573690Y-109485933D01*
X107552246Y-109474016D01*
X107532072Y-109460054D01*
X107513365Y-109444181D01*
X107496303Y-109426552D01*
X107481051Y-109407335D01*
X107467757Y-109386715D01*
X106817756Y-108260880D01*
X106806546Y-108239057D01*
X106797529Y-108216241D01*
X106790793Y-108192650D01*
X106786401Y-108168512D01*
X106784396Y-108144061D01*
X106784797Y-108119530D01*
X106787601Y-108095157D01*
X106792781Y-108071176D01*
X106800285Y-108047819D01*
X106810044Y-108025309D01*
X106821961Y-108003865D01*
X106835923Y-107983691D01*
X106851796Y-107964984D01*
X106869425Y-107947922D01*
X106888642Y-107932670D01*
X106909261Y-107919376D01*
X107515480Y-107569375D01*
X107537304Y-107558165D01*
X107560120Y-107549148D01*
X107583711Y-107542412D01*
X107607848Y-107538020D01*
X107632300Y-107536015D01*
X107656831Y-107536416D01*
G37*
G36*
X102807089Y-110336416D02*
G01*
X102831462Y-110339220D01*
X102855442Y-110344399D01*
X102878800Y-110351904D01*
X102901310Y-110361663D01*
X102922754Y-110373580D01*
X102942928Y-110387542D01*
X102961635Y-110403415D01*
X102978697Y-110421044D01*
X102993949Y-110440261D01*
X103007243Y-110460881D01*
X103657244Y-111586716D01*
X103668454Y-111608539D01*
X103677471Y-111631355D01*
X103684207Y-111654946D01*
X103688599Y-111679084D01*
X103690604Y-111703535D01*
X103690203Y-111728066D01*
X103687399Y-111752439D01*
X103682219Y-111776420D01*
X103674715Y-111799777D01*
X103664956Y-111822287D01*
X103653039Y-111843731D01*
X103639077Y-111863905D01*
X103623204Y-111882612D01*
X103605575Y-111899674D01*
X103586358Y-111914926D01*
X103565739Y-111928220D01*
X102959520Y-112278221D01*
X102937696Y-112289431D01*
X102914880Y-112298448D01*
X102891289Y-112305184D01*
X102867152Y-112309576D01*
X102842700Y-112311581D01*
X102818169Y-112311180D01*
X102793796Y-112308376D01*
X102769816Y-112303197D01*
X102746458Y-112295692D01*
X102723948Y-112285933D01*
X102702504Y-112274016D01*
X102682330Y-112260054D01*
X102663623Y-112244181D01*
X102646561Y-112226552D01*
X102631309Y-112207335D01*
X102618015Y-112186715D01*
X101968014Y-111060880D01*
X101956804Y-111039057D01*
X101947787Y-111016241D01*
X101941051Y-110992650D01*
X101936659Y-110968512D01*
X101934654Y-110944061D01*
X101935055Y-110919530D01*
X101937859Y-110895157D01*
X101943039Y-110871176D01*
X101950543Y-110847819D01*
X101960302Y-110825309D01*
X101972219Y-110803865D01*
X101986181Y-110783691D01*
X102002054Y-110764984D01*
X102019683Y-110747922D01*
X102038900Y-110732670D01*
X102059519Y-110719376D01*
X102665738Y-110369375D01*
X102687562Y-110358165D01*
X102710378Y-110349148D01*
X102733969Y-110342412D01*
X102758106Y-110338020D01*
X102782558Y-110336015D01*
X102807089Y-110336416D01*
G37*
%TD*%
%TO.C,R9*%
G36*
X100836958Y-105040710D02*
G01*
X100851276Y-105042834D01*
X100865317Y-105046351D01*
X100878946Y-105051228D01*
X100892031Y-105057417D01*
X100904447Y-105064858D01*
X100916073Y-105073481D01*
X100926798Y-105083202D01*
X100936519Y-105093927D01*
X100945142Y-105105553D01*
X100952583Y-105117969D01*
X100958772Y-105131054D01*
X100963649Y-105144683D01*
X100967166Y-105158724D01*
X100969290Y-105173042D01*
X100970000Y-105187500D01*
X100970000Y-105482500D01*
X100969290Y-105496958D01*
X100967166Y-105511276D01*
X100963649Y-105525317D01*
X100958772Y-105538946D01*
X100952583Y-105552031D01*
X100945142Y-105564447D01*
X100936519Y-105576073D01*
X100926798Y-105586798D01*
X100916073Y-105596519D01*
X100904447Y-105605142D01*
X100892031Y-105612583D01*
X100878946Y-105618772D01*
X100865317Y-105623649D01*
X100851276Y-105627166D01*
X100836958Y-105629290D01*
X100822500Y-105630000D01*
X100477500Y-105630000D01*
X100463042Y-105629290D01*
X100448724Y-105627166D01*
X100434683Y-105623649D01*
X100421054Y-105618772D01*
X100407969Y-105612583D01*
X100395553Y-105605142D01*
X100383927Y-105596519D01*
X100373202Y-105586798D01*
X100363481Y-105576073D01*
X100354858Y-105564447D01*
X100347417Y-105552031D01*
X100341228Y-105538946D01*
X100336351Y-105525317D01*
X100332834Y-105511276D01*
X100330710Y-105496958D01*
X100330000Y-105482500D01*
X100330000Y-105187500D01*
X100330710Y-105173042D01*
X100332834Y-105158724D01*
X100336351Y-105144683D01*
X100341228Y-105131054D01*
X100347417Y-105117969D01*
X100354858Y-105105553D01*
X100363481Y-105093927D01*
X100373202Y-105083202D01*
X100383927Y-105073481D01*
X100395553Y-105064858D01*
X100407969Y-105057417D01*
X100421054Y-105051228D01*
X100434683Y-105046351D01*
X100448724Y-105042834D01*
X100463042Y-105040710D01*
X100477500Y-105040000D01*
X100822500Y-105040000D01*
X100836958Y-105040710D01*
G37*
G36*
X100836958Y-104070710D02*
G01*
X100851276Y-104072834D01*
X100865317Y-104076351D01*
X100878946Y-104081228D01*
X100892031Y-104087417D01*
X100904447Y-104094858D01*
X100916073Y-104103481D01*
X100926798Y-104113202D01*
X100936519Y-104123927D01*
X100945142Y-104135553D01*
X100952583Y-104147969D01*
X100958772Y-104161054D01*
X100963649Y-104174683D01*
X100967166Y-104188724D01*
X100969290Y-104203042D01*
X100970000Y-104217500D01*
X100970000Y-104512500D01*
X100969290Y-104526958D01*
X100967166Y-104541276D01*
X100963649Y-104555317D01*
X100958772Y-104568946D01*
X100952583Y-104582031D01*
X100945142Y-104594447D01*
X100936519Y-104606073D01*
X100926798Y-104616798D01*
X100916073Y-104626519D01*
X100904447Y-104635142D01*
X100892031Y-104642583D01*
X100878946Y-104648772D01*
X100865317Y-104653649D01*
X100851276Y-104657166D01*
X100836958Y-104659290D01*
X100822500Y-104660000D01*
X100477500Y-104660000D01*
X100463042Y-104659290D01*
X100448724Y-104657166D01*
X100434683Y-104653649D01*
X100421054Y-104648772D01*
X100407969Y-104642583D01*
X100395553Y-104635142D01*
X100383927Y-104626519D01*
X100373202Y-104616798D01*
X100363481Y-104606073D01*
X100354858Y-104594447D01*
X100347417Y-104582031D01*
X100341228Y-104568946D01*
X100336351Y-104555317D01*
X100332834Y-104541276D01*
X100330710Y-104526958D01*
X100330000Y-104512500D01*
X100330000Y-104217500D01*
X100330710Y-104203042D01*
X100332834Y-104188724D01*
X100336351Y-104174683D01*
X100341228Y-104161054D01*
X100347417Y-104147969D01*
X100354858Y-104135553D01*
X100363481Y-104123927D01*
X100373202Y-104113202D01*
X100383927Y-104103481D01*
X100395553Y-104094858D01*
X100407969Y-104087417D01*
X100421054Y-104081228D01*
X100434683Y-104076351D01*
X100448724Y-104072834D01*
X100463042Y-104070710D01*
X100477500Y-104070000D01*
X100822500Y-104070000D01*
X100836958Y-104070710D01*
G37*
%TD*%
%TO.C,R8*%
G36*
X102136958Y-104990710D02*
G01*
X102151276Y-104992834D01*
X102165317Y-104996351D01*
X102178946Y-105001228D01*
X102192031Y-105007417D01*
X102204447Y-105014858D01*
X102216073Y-105023481D01*
X102226798Y-105033202D01*
X102236519Y-105043927D01*
X102245142Y-105055553D01*
X102252583Y-105067969D01*
X102258772Y-105081054D01*
X102263649Y-105094683D01*
X102267166Y-105108724D01*
X102269290Y-105123042D01*
X102270000Y-105137500D01*
X102270000Y-105432500D01*
X102269290Y-105446958D01*
X102267166Y-105461276D01*
X102263649Y-105475317D01*
X102258772Y-105488946D01*
X102252583Y-105502031D01*
X102245142Y-105514447D01*
X102236519Y-105526073D01*
X102226798Y-105536798D01*
X102216073Y-105546519D01*
X102204447Y-105555142D01*
X102192031Y-105562583D01*
X102178946Y-105568772D01*
X102165317Y-105573649D01*
X102151276Y-105577166D01*
X102136958Y-105579290D01*
X102122500Y-105580000D01*
X101777500Y-105580000D01*
X101763042Y-105579290D01*
X101748724Y-105577166D01*
X101734683Y-105573649D01*
X101721054Y-105568772D01*
X101707969Y-105562583D01*
X101695553Y-105555142D01*
X101683927Y-105546519D01*
X101673202Y-105536798D01*
X101663481Y-105526073D01*
X101654858Y-105514447D01*
X101647417Y-105502031D01*
X101641228Y-105488946D01*
X101636351Y-105475317D01*
X101632834Y-105461276D01*
X101630710Y-105446958D01*
X101630000Y-105432500D01*
X101630000Y-105137500D01*
X101630710Y-105123042D01*
X101632834Y-105108724D01*
X101636351Y-105094683D01*
X101641228Y-105081054D01*
X101647417Y-105067969D01*
X101654858Y-105055553D01*
X101663481Y-105043927D01*
X101673202Y-105033202D01*
X101683927Y-105023481D01*
X101695553Y-105014858D01*
X101707969Y-105007417D01*
X101721054Y-105001228D01*
X101734683Y-104996351D01*
X101748724Y-104992834D01*
X101763042Y-104990710D01*
X101777500Y-104990000D01*
X102122500Y-104990000D01*
X102136958Y-104990710D01*
G37*
G36*
X102136958Y-104020710D02*
G01*
X102151276Y-104022834D01*
X102165317Y-104026351D01*
X102178946Y-104031228D01*
X102192031Y-104037417D01*
X102204447Y-104044858D01*
X102216073Y-104053481D01*
X102226798Y-104063202D01*
X102236519Y-104073927D01*
X102245142Y-104085553D01*
X102252583Y-104097969D01*
X102258772Y-104111054D01*
X102263649Y-104124683D01*
X102267166Y-104138724D01*
X102269290Y-104153042D01*
X102270000Y-104167500D01*
X102270000Y-104462500D01*
X102269290Y-104476958D01*
X102267166Y-104491276D01*
X102263649Y-104505317D01*
X102258772Y-104518946D01*
X102252583Y-104532031D01*
X102245142Y-104544447D01*
X102236519Y-104556073D01*
X102226798Y-104566798D01*
X102216073Y-104576519D01*
X102204447Y-104585142D01*
X102192031Y-104592583D01*
X102178946Y-104598772D01*
X102165317Y-104603649D01*
X102151276Y-104607166D01*
X102136958Y-104609290D01*
X102122500Y-104610000D01*
X101777500Y-104610000D01*
X101763042Y-104609290D01*
X101748724Y-104607166D01*
X101734683Y-104603649D01*
X101721054Y-104598772D01*
X101707969Y-104592583D01*
X101695553Y-104585142D01*
X101683927Y-104576519D01*
X101673202Y-104566798D01*
X101663481Y-104556073D01*
X101654858Y-104544447D01*
X101647417Y-104532031D01*
X101641228Y-104518946D01*
X101636351Y-104505317D01*
X101632834Y-104491276D01*
X101630710Y-104476958D01*
X101630000Y-104462500D01*
X101630000Y-104167500D01*
X101630710Y-104153042D01*
X101632834Y-104138724D01*
X101636351Y-104124683D01*
X101641228Y-104111054D01*
X101647417Y-104097969D01*
X101654858Y-104085553D01*
X101663481Y-104073927D01*
X101673202Y-104063202D01*
X101683927Y-104053481D01*
X101695553Y-104044858D01*
X101707969Y-104037417D01*
X101721054Y-104031228D01*
X101734683Y-104026351D01*
X101748724Y-104022834D01*
X101763042Y-104020710D01*
X101777500Y-104020000D01*
X102122500Y-104020000D01*
X102136958Y-104020710D01*
G37*
%TD*%
%TO.C,R7*%
G36*
X99586958Y-105040710D02*
G01*
X99601276Y-105042834D01*
X99615317Y-105046351D01*
X99628946Y-105051228D01*
X99642031Y-105057417D01*
X99654447Y-105064858D01*
X99666073Y-105073481D01*
X99676798Y-105083202D01*
X99686519Y-105093927D01*
X99695142Y-105105553D01*
X99702583Y-105117969D01*
X99708772Y-105131054D01*
X99713649Y-105144683D01*
X99717166Y-105158724D01*
X99719290Y-105173042D01*
X99720000Y-105187500D01*
X99720000Y-105482500D01*
X99719290Y-105496958D01*
X99717166Y-105511276D01*
X99713649Y-105525317D01*
X99708772Y-105538946D01*
X99702583Y-105552031D01*
X99695142Y-105564447D01*
X99686519Y-105576073D01*
X99676798Y-105586798D01*
X99666073Y-105596519D01*
X99654447Y-105605142D01*
X99642031Y-105612583D01*
X99628946Y-105618772D01*
X99615317Y-105623649D01*
X99601276Y-105627166D01*
X99586958Y-105629290D01*
X99572500Y-105630000D01*
X99227500Y-105630000D01*
X99213042Y-105629290D01*
X99198724Y-105627166D01*
X99184683Y-105623649D01*
X99171054Y-105618772D01*
X99157969Y-105612583D01*
X99145553Y-105605142D01*
X99133927Y-105596519D01*
X99123202Y-105586798D01*
X99113481Y-105576073D01*
X99104858Y-105564447D01*
X99097417Y-105552031D01*
X99091228Y-105538946D01*
X99086351Y-105525317D01*
X99082834Y-105511276D01*
X99080710Y-105496958D01*
X99080000Y-105482500D01*
X99080000Y-105187500D01*
X99080710Y-105173042D01*
X99082834Y-105158724D01*
X99086351Y-105144683D01*
X99091228Y-105131054D01*
X99097417Y-105117969D01*
X99104858Y-105105553D01*
X99113481Y-105093927D01*
X99123202Y-105083202D01*
X99133927Y-105073481D01*
X99145553Y-105064858D01*
X99157969Y-105057417D01*
X99171054Y-105051228D01*
X99184683Y-105046351D01*
X99198724Y-105042834D01*
X99213042Y-105040710D01*
X99227500Y-105040000D01*
X99572500Y-105040000D01*
X99586958Y-105040710D01*
G37*
G36*
X99586958Y-104070710D02*
G01*
X99601276Y-104072834D01*
X99615317Y-104076351D01*
X99628946Y-104081228D01*
X99642031Y-104087417D01*
X99654447Y-104094858D01*
X99666073Y-104103481D01*
X99676798Y-104113202D01*
X99686519Y-104123927D01*
X99695142Y-104135553D01*
X99702583Y-104147969D01*
X99708772Y-104161054D01*
X99713649Y-104174683D01*
X99717166Y-104188724D01*
X99719290Y-104203042D01*
X99720000Y-104217500D01*
X99720000Y-104512500D01*
X99719290Y-104526958D01*
X99717166Y-104541276D01*
X99713649Y-104555317D01*
X99708772Y-104568946D01*
X99702583Y-104582031D01*
X99695142Y-104594447D01*
X99686519Y-104606073D01*
X99676798Y-104616798D01*
X99666073Y-104626519D01*
X99654447Y-104635142D01*
X99642031Y-104642583D01*
X99628946Y-104648772D01*
X99615317Y-104653649D01*
X99601276Y-104657166D01*
X99586958Y-104659290D01*
X99572500Y-104660000D01*
X99227500Y-104660000D01*
X99213042Y-104659290D01*
X99198724Y-104657166D01*
X99184683Y-104653649D01*
X99171054Y-104648772D01*
X99157969Y-104642583D01*
X99145553Y-104635142D01*
X99133927Y-104626519D01*
X99123202Y-104616798D01*
X99113481Y-104606073D01*
X99104858Y-104594447D01*
X99097417Y-104582031D01*
X99091228Y-104568946D01*
X99086351Y-104555317D01*
X99082834Y-104541276D01*
X99080710Y-104526958D01*
X99080000Y-104512500D01*
X99080000Y-104217500D01*
X99080710Y-104203042D01*
X99082834Y-104188724D01*
X99086351Y-104174683D01*
X99091228Y-104161054D01*
X99097417Y-104147969D01*
X99104858Y-104135553D01*
X99113481Y-104123927D01*
X99123202Y-104113202D01*
X99133927Y-104103481D01*
X99145553Y-104094858D01*
X99157969Y-104087417D01*
X99171054Y-104081228D01*
X99184683Y-104076351D01*
X99198724Y-104072834D01*
X99213042Y-104070710D01*
X99227500Y-104070000D01*
X99572500Y-104070000D01*
X99586958Y-104070710D01*
G37*
%TD*%
%TO.C,C21*%
G36*
X104286958Y-100290710D02*
G01*
X104301276Y-100292834D01*
X104315317Y-100296351D01*
X104328946Y-100301228D01*
X104342031Y-100307417D01*
X104354447Y-100314858D01*
X104366073Y-100323481D01*
X104376798Y-100333202D01*
X104386519Y-100343927D01*
X104395142Y-100355553D01*
X104402583Y-100367969D01*
X104408772Y-100381054D01*
X104413649Y-100394683D01*
X104417166Y-100408724D01*
X104419290Y-100423042D01*
X104420000Y-100437500D01*
X104420000Y-100732500D01*
X104419290Y-100746958D01*
X104417166Y-100761276D01*
X104413649Y-100775317D01*
X104408772Y-100788946D01*
X104402583Y-100802031D01*
X104395142Y-100814447D01*
X104386519Y-100826073D01*
X104376798Y-100836798D01*
X104366073Y-100846519D01*
X104354447Y-100855142D01*
X104342031Y-100862583D01*
X104328946Y-100868772D01*
X104315317Y-100873649D01*
X104301276Y-100877166D01*
X104286958Y-100879290D01*
X104272500Y-100880000D01*
X103927500Y-100880000D01*
X103913042Y-100879290D01*
X103898724Y-100877166D01*
X103884683Y-100873649D01*
X103871054Y-100868772D01*
X103857969Y-100862583D01*
X103845553Y-100855142D01*
X103833927Y-100846519D01*
X103823202Y-100836798D01*
X103813481Y-100826073D01*
X103804858Y-100814447D01*
X103797417Y-100802031D01*
X103791228Y-100788946D01*
X103786351Y-100775317D01*
X103782834Y-100761276D01*
X103780710Y-100746958D01*
X103780000Y-100732500D01*
X103780000Y-100437500D01*
X103780710Y-100423042D01*
X103782834Y-100408724D01*
X103786351Y-100394683D01*
X103791228Y-100381054D01*
X103797417Y-100367969D01*
X103804858Y-100355553D01*
X103813481Y-100343927D01*
X103823202Y-100333202D01*
X103833927Y-100323481D01*
X103845553Y-100314858D01*
X103857969Y-100307417D01*
X103871054Y-100301228D01*
X103884683Y-100296351D01*
X103898724Y-100292834D01*
X103913042Y-100290710D01*
X103927500Y-100290000D01*
X104272500Y-100290000D01*
X104286958Y-100290710D01*
G37*
G36*
X104286958Y-99320710D02*
G01*
X104301276Y-99322834D01*
X104315317Y-99326351D01*
X104328946Y-99331228D01*
X104342031Y-99337417D01*
X104354447Y-99344858D01*
X104366073Y-99353481D01*
X104376798Y-99363202D01*
X104386519Y-99373927D01*
X104395142Y-99385553D01*
X104402583Y-99397969D01*
X104408772Y-99411054D01*
X104413649Y-99424683D01*
X104417166Y-99438724D01*
X104419290Y-99453042D01*
X104420000Y-99467500D01*
X104420000Y-99762500D01*
X104419290Y-99776958D01*
X104417166Y-99791276D01*
X104413649Y-99805317D01*
X104408772Y-99818946D01*
X104402583Y-99832031D01*
X104395142Y-99844447D01*
X104386519Y-99856073D01*
X104376798Y-99866798D01*
X104366073Y-99876519D01*
X104354447Y-99885142D01*
X104342031Y-99892583D01*
X104328946Y-99898772D01*
X104315317Y-99903649D01*
X104301276Y-99907166D01*
X104286958Y-99909290D01*
X104272500Y-99910000D01*
X103927500Y-99910000D01*
X103913042Y-99909290D01*
X103898724Y-99907166D01*
X103884683Y-99903649D01*
X103871054Y-99898772D01*
X103857969Y-99892583D01*
X103845553Y-99885142D01*
X103833927Y-99876519D01*
X103823202Y-99866798D01*
X103813481Y-99856073D01*
X103804858Y-99844447D01*
X103797417Y-99832031D01*
X103791228Y-99818946D01*
X103786351Y-99805317D01*
X103782834Y-99791276D01*
X103780710Y-99776958D01*
X103780000Y-99762500D01*
X103780000Y-99467500D01*
X103780710Y-99453042D01*
X103782834Y-99438724D01*
X103786351Y-99424683D01*
X103791228Y-99411054D01*
X103797417Y-99397969D01*
X103804858Y-99385553D01*
X103813481Y-99373927D01*
X103823202Y-99363202D01*
X103833927Y-99353481D01*
X103845553Y-99344858D01*
X103857969Y-99337417D01*
X103871054Y-99331228D01*
X103884683Y-99326351D01*
X103898724Y-99322834D01*
X103913042Y-99320710D01*
X103927500Y-99320000D01*
X104272500Y-99320000D01*
X104286958Y-99320710D01*
G37*
%TD*%
%TO.C,C14*%
G36*
X96386958Y-99340710D02*
G01*
X96401276Y-99342834D01*
X96415317Y-99346351D01*
X96428946Y-99351228D01*
X96442031Y-99357417D01*
X96454447Y-99364858D01*
X96466073Y-99373481D01*
X96476798Y-99383202D01*
X96486519Y-99393927D01*
X96495142Y-99405553D01*
X96502583Y-99417969D01*
X96508772Y-99431054D01*
X96513649Y-99444683D01*
X96517166Y-99458724D01*
X96519290Y-99473042D01*
X96520000Y-99487500D01*
X96520000Y-99782500D01*
X96519290Y-99796958D01*
X96517166Y-99811276D01*
X96513649Y-99825317D01*
X96508772Y-99838946D01*
X96502583Y-99852031D01*
X96495142Y-99864447D01*
X96486519Y-99876073D01*
X96476798Y-99886798D01*
X96466073Y-99896519D01*
X96454447Y-99905142D01*
X96442031Y-99912583D01*
X96428946Y-99918772D01*
X96415317Y-99923649D01*
X96401276Y-99927166D01*
X96386958Y-99929290D01*
X96372500Y-99930000D01*
X96027500Y-99930000D01*
X96013042Y-99929290D01*
X95998724Y-99927166D01*
X95984683Y-99923649D01*
X95971054Y-99918772D01*
X95957969Y-99912583D01*
X95945553Y-99905142D01*
X95933927Y-99896519D01*
X95923202Y-99886798D01*
X95913481Y-99876073D01*
X95904858Y-99864447D01*
X95897417Y-99852031D01*
X95891228Y-99838946D01*
X95886351Y-99825317D01*
X95882834Y-99811276D01*
X95880710Y-99796958D01*
X95880000Y-99782500D01*
X95880000Y-99487500D01*
X95880710Y-99473042D01*
X95882834Y-99458724D01*
X95886351Y-99444683D01*
X95891228Y-99431054D01*
X95897417Y-99417969D01*
X95904858Y-99405553D01*
X95913481Y-99393927D01*
X95923202Y-99383202D01*
X95933927Y-99373481D01*
X95945553Y-99364858D01*
X95957969Y-99357417D01*
X95971054Y-99351228D01*
X95984683Y-99346351D01*
X95998724Y-99342834D01*
X96013042Y-99340710D01*
X96027500Y-99340000D01*
X96372500Y-99340000D01*
X96386958Y-99340710D01*
G37*
G36*
X96386958Y-98370710D02*
G01*
X96401276Y-98372834D01*
X96415317Y-98376351D01*
X96428946Y-98381228D01*
X96442031Y-98387417D01*
X96454447Y-98394858D01*
X96466073Y-98403481D01*
X96476798Y-98413202D01*
X96486519Y-98423927D01*
X96495142Y-98435553D01*
X96502583Y-98447969D01*
X96508772Y-98461054D01*
X96513649Y-98474683D01*
X96517166Y-98488724D01*
X96519290Y-98503042D01*
X96520000Y-98517500D01*
X96520000Y-98812500D01*
X96519290Y-98826958D01*
X96517166Y-98841276D01*
X96513649Y-98855317D01*
X96508772Y-98868946D01*
X96502583Y-98882031D01*
X96495142Y-98894447D01*
X96486519Y-98906073D01*
X96476798Y-98916798D01*
X96466073Y-98926519D01*
X96454447Y-98935142D01*
X96442031Y-98942583D01*
X96428946Y-98948772D01*
X96415317Y-98953649D01*
X96401276Y-98957166D01*
X96386958Y-98959290D01*
X96372500Y-98960000D01*
X96027500Y-98960000D01*
X96013042Y-98959290D01*
X95998724Y-98957166D01*
X95984683Y-98953649D01*
X95971054Y-98948772D01*
X95957969Y-98942583D01*
X95945553Y-98935142D01*
X95933927Y-98926519D01*
X95923202Y-98916798D01*
X95913481Y-98906073D01*
X95904858Y-98894447D01*
X95897417Y-98882031D01*
X95891228Y-98868946D01*
X95886351Y-98855317D01*
X95882834Y-98841276D01*
X95880710Y-98826958D01*
X95880000Y-98812500D01*
X95880000Y-98517500D01*
X95880710Y-98503042D01*
X95882834Y-98488724D01*
X95886351Y-98474683D01*
X95891228Y-98461054D01*
X95897417Y-98447969D01*
X95904858Y-98435553D01*
X95913481Y-98423927D01*
X95923202Y-98413202D01*
X95933927Y-98403481D01*
X95945553Y-98394858D01*
X95957969Y-98387417D01*
X95971054Y-98381228D01*
X95984683Y-98376351D01*
X95998724Y-98372834D01*
X96013042Y-98370710D01*
X96027500Y-98370000D01*
X96372500Y-98370000D01*
X96386958Y-98370710D01*
G37*
%TD*%
%TO.C,C11*%
G36*
X103636958Y-93770710D02*
G01*
X103651276Y-93772834D01*
X103665317Y-93776351D01*
X103678946Y-93781228D01*
X103692031Y-93787417D01*
X103704447Y-93794858D01*
X103716073Y-93803481D01*
X103726798Y-93813202D01*
X103736519Y-93823927D01*
X103745142Y-93835553D01*
X103752583Y-93847969D01*
X103758772Y-93861054D01*
X103763649Y-93874683D01*
X103767166Y-93888724D01*
X103769290Y-93903042D01*
X103770000Y-93917500D01*
X103770000Y-94212500D01*
X103769290Y-94226958D01*
X103767166Y-94241276D01*
X103763649Y-94255317D01*
X103758772Y-94268946D01*
X103752583Y-94282031D01*
X103745142Y-94294447D01*
X103736519Y-94306073D01*
X103726798Y-94316798D01*
X103716073Y-94326519D01*
X103704447Y-94335142D01*
X103692031Y-94342583D01*
X103678946Y-94348772D01*
X103665317Y-94353649D01*
X103651276Y-94357166D01*
X103636958Y-94359290D01*
X103622500Y-94360000D01*
X103277500Y-94360000D01*
X103263042Y-94359290D01*
X103248724Y-94357166D01*
X103234683Y-94353649D01*
X103221054Y-94348772D01*
X103207969Y-94342583D01*
X103195553Y-94335142D01*
X103183927Y-94326519D01*
X103173202Y-94316798D01*
X103163481Y-94306073D01*
X103154858Y-94294447D01*
X103147417Y-94282031D01*
X103141228Y-94268946D01*
X103136351Y-94255317D01*
X103132834Y-94241276D01*
X103130710Y-94226958D01*
X103130000Y-94212500D01*
X103130000Y-93917500D01*
X103130710Y-93903042D01*
X103132834Y-93888724D01*
X103136351Y-93874683D01*
X103141228Y-93861054D01*
X103147417Y-93847969D01*
X103154858Y-93835553D01*
X103163481Y-93823927D01*
X103173202Y-93813202D01*
X103183927Y-93803481D01*
X103195553Y-93794858D01*
X103207969Y-93787417D01*
X103221054Y-93781228D01*
X103234683Y-93776351D01*
X103248724Y-93772834D01*
X103263042Y-93770710D01*
X103277500Y-93770000D01*
X103622500Y-93770000D01*
X103636958Y-93770710D01*
G37*
G36*
X103636958Y-94740710D02*
G01*
X103651276Y-94742834D01*
X103665317Y-94746351D01*
X103678946Y-94751228D01*
X103692031Y-94757417D01*
X103704447Y-94764858D01*
X103716073Y-94773481D01*
X103726798Y-94783202D01*
X103736519Y-94793927D01*
X103745142Y-94805553D01*
X103752583Y-94817969D01*
X103758772Y-94831054D01*
X103763649Y-94844683D01*
X103767166Y-94858724D01*
X103769290Y-94873042D01*
X103770000Y-94887500D01*
X103770000Y-95182500D01*
X103769290Y-95196958D01*
X103767166Y-95211276D01*
X103763649Y-95225317D01*
X103758772Y-95238946D01*
X103752583Y-95252031D01*
X103745142Y-95264447D01*
X103736519Y-95276073D01*
X103726798Y-95286798D01*
X103716073Y-95296519D01*
X103704447Y-95305142D01*
X103692031Y-95312583D01*
X103678946Y-95318772D01*
X103665317Y-95323649D01*
X103651276Y-95327166D01*
X103636958Y-95329290D01*
X103622500Y-95330000D01*
X103277500Y-95330000D01*
X103263042Y-95329290D01*
X103248724Y-95327166D01*
X103234683Y-95323649D01*
X103221054Y-95318772D01*
X103207969Y-95312583D01*
X103195553Y-95305142D01*
X103183927Y-95296519D01*
X103173202Y-95286798D01*
X103163481Y-95276073D01*
X103154858Y-95264447D01*
X103147417Y-95252031D01*
X103141228Y-95238946D01*
X103136351Y-95225317D01*
X103132834Y-95211276D01*
X103130710Y-95196958D01*
X103130000Y-95182500D01*
X103130000Y-94887500D01*
X103130710Y-94873042D01*
X103132834Y-94858724D01*
X103136351Y-94844683D01*
X103141228Y-94831054D01*
X103147417Y-94817969D01*
X103154858Y-94805553D01*
X103163481Y-94793927D01*
X103173202Y-94783202D01*
X103183927Y-94773481D01*
X103195553Y-94764858D01*
X103207969Y-94757417D01*
X103221054Y-94751228D01*
X103234683Y-94746351D01*
X103248724Y-94742834D01*
X103263042Y-94740710D01*
X103277500Y-94740000D01*
X103622500Y-94740000D01*
X103636958Y-94740710D01*
G37*
%TD*%
%TO.C,C10*%
G36*
X102586958Y-93770710D02*
G01*
X102601276Y-93772834D01*
X102615317Y-93776351D01*
X102628946Y-93781228D01*
X102642031Y-93787417D01*
X102654447Y-93794858D01*
X102666073Y-93803481D01*
X102676798Y-93813202D01*
X102686519Y-93823927D01*
X102695142Y-93835553D01*
X102702583Y-93847969D01*
X102708772Y-93861054D01*
X102713649Y-93874683D01*
X102717166Y-93888724D01*
X102719290Y-93903042D01*
X102720000Y-93917500D01*
X102720000Y-94212500D01*
X102719290Y-94226958D01*
X102717166Y-94241276D01*
X102713649Y-94255317D01*
X102708772Y-94268946D01*
X102702583Y-94282031D01*
X102695142Y-94294447D01*
X102686519Y-94306073D01*
X102676798Y-94316798D01*
X102666073Y-94326519D01*
X102654447Y-94335142D01*
X102642031Y-94342583D01*
X102628946Y-94348772D01*
X102615317Y-94353649D01*
X102601276Y-94357166D01*
X102586958Y-94359290D01*
X102572500Y-94360000D01*
X102227500Y-94360000D01*
X102213042Y-94359290D01*
X102198724Y-94357166D01*
X102184683Y-94353649D01*
X102171054Y-94348772D01*
X102157969Y-94342583D01*
X102145553Y-94335142D01*
X102133927Y-94326519D01*
X102123202Y-94316798D01*
X102113481Y-94306073D01*
X102104858Y-94294447D01*
X102097417Y-94282031D01*
X102091228Y-94268946D01*
X102086351Y-94255317D01*
X102082834Y-94241276D01*
X102080710Y-94226958D01*
X102080000Y-94212500D01*
X102080000Y-93917500D01*
X102080710Y-93903042D01*
X102082834Y-93888724D01*
X102086351Y-93874683D01*
X102091228Y-93861054D01*
X102097417Y-93847969D01*
X102104858Y-93835553D01*
X102113481Y-93823927D01*
X102123202Y-93813202D01*
X102133927Y-93803481D01*
X102145553Y-93794858D01*
X102157969Y-93787417D01*
X102171054Y-93781228D01*
X102184683Y-93776351D01*
X102198724Y-93772834D01*
X102213042Y-93770710D01*
X102227500Y-93770000D01*
X102572500Y-93770000D01*
X102586958Y-93770710D01*
G37*
G36*
X102586958Y-94740710D02*
G01*
X102601276Y-94742834D01*
X102615317Y-94746351D01*
X102628946Y-94751228D01*
X102642031Y-94757417D01*
X102654447Y-94764858D01*
X102666073Y-94773481D01*
X102676798Y-94783202D01*
X102686519Y-94793927D01*
X102695142Y-94805553D01*
X102702583Y-94817969D01*
X102708772Y-94831054D01*
X102713649Y-94844683D01*
X102717166Y-94858724D01*
X102719290Y-94873042D01*
X102720000Y-94887500D01*
X102720000Y-95182500D01*
X102719290Y-95196958D01*
X102717166Y-95211276D01*
X102713649Y-95225317D01*
X102708772Y-95238946D01*
X102702583Y-95252031D01*
X102695142Y-95264447D01*
X102686519Y-95276073D01*
X102676798Y-95286798D01*
X102666073Y-95296519D01*
X102654447Y-95305142D01*
X102642031Y-95312583D01*
X102628946Y-95318772D01*
X102615317Y-95323649D01*
X102601276Y-95327166D01*
X102586958Y-95329290D01*
X102572500Y-95330000D01*
X102227500Y-95330000D01*
X102213042Y-95329290D01*
X102198724Y-95327166D01*
X102184683Y-95323649D01*
X102171054Y-95318772D01*
X102157969Y-95312583D01*
X102145553Y-95305142D01*
X102133927Y-95296519D01*
X102123202Y-95286798D01*
X102113481Y-95276073D01*
X102104858Y-95264447D01*
X102097417Y-95252031D01*
X102091228Y-95238946D01*
X102086351Y-95225317D01*
X102082834Y-95211276D01*
X102080710Y-95196958D01*
X102080000Y-95182500D01*
X102080000Y-94887500D01*
X102080710Y-94873042D01*
X102082834Y-94858724D01*
X102086351Y-94844683D01*
X102091228Y-94831054D01*
X102097417Y-94817969D01*
X102104858Y-94805553D01*
X102113481Y-94793927D01*
X102123202Y-94783202D01*
X102133927Y-94773481D01*
X102145553Y-94764858D01*
X102157969Y-94757417D01*
X102171054Y-94751228D01*
X102184683Y-94746351D01*
X102198724Y-94742834D01*
X102213042Y-94740710D01*
X102227500Y-94740000D01*
X102572500Y-94740000D01*
X102586958Y-94740710D01*
G37*
%TD*%
%TO.C,C7*%
G36*
X101436958Y-93770710D02*
G01*
X101451276Y-93772834D01*
X101465317Y-93776351D01*
X101478946Y-93781228D01*
X101492031Y-93787417D01*
X101504447Y-93794858D01*
X101516073Y-93803481D01*
X101526798Y-93813202D01*
X101536519Y-93823927D01*
X101545142Y-93835553D01*
X101552583Y-93847969D01*
X101558772Y-93861054D01*
X101563649Y-93874683D01*
X101567166Y-93888724D01*
X101569290Y-93903042D01*
X101570000Y-93917500D01*
X101570000Y-94212500D01*
X101569290Y-94226958D01*
X101567166Y-94241276D01*
X101563649Y-94255317D01*
X101558772Y-94268946D01*
X101552583Y-94282031D01*
X101545142Y-94294447D01*
X101536519Y-94306073D01*
X101526798Y-94316798D01*
X101516073Y-94326519D01*
X101504447Y-94335142D01*
X101492031Y-94342583D01*
X101478946Y-94348772D01*
X101465317Y-94353649D01*
X101451276Y-94357166D01*
X101436958Y-94359290D01*
X101422500Y-94360000D01*
X101077500Y-94360000D01*
X101063042Y-94359290D01*
X101048724Y-94357166D01*
X101034683Y-94353649D01*
X101021054Y-94348772D01*
X101007969Y-94342583D01*
X100995553Y-94335142D01*
X100983927Y-94326519D01*
X100973202Y-94316798D01*
X100963481Y-94306073D01*
X100954858Y-94294447D01*
X100947417Y-94282031D01*
X100941228Y-94268946D01*
X100936351Y-94255317D01*
X100932834Y-94241276D01*
X100930710Y-94226958D01*
X100930000Y-94212500D01*
X100930000Y-93917500D01*
X100930710Y-93903042D01*
X100932834Y-93888724D01*
X100936351Y-93874683D01*
X100941228Y-93861054D01*
X100947417Y-93847969D01*
X100954858Y-93835553D01*
X100963481Y-93823927D01*
X100973202Y-93813202D01*
X100983927Y-93803481D01*
X100995553Y-93794858D01*
X101007969Y-93787417D01*
X101021054Y-93781228D01*
X101034683Y-93776351D01*
X101048724Y-93772834D01*
X101063042Y-93770710D01*
X101077500Y-93770000D01*
X101422500Y-93770000D01*
X101436958Y-93770710D01*
G37*
G36*
X101436958Y-94740710D02*
G01*
X101451276Y-94742834D01*
X101465317Y-94746351D01*
X101478946Y-94751228D01*
X101492031Y-94757417D01*
X101504447Y-94764858D01*
X101516073Y-94773481D01*
X101526798Y-94783202D01*
X101536519Y-94793927D01*
X101545142Y-94805553D01*
X101552583Y-94817969D01*
X101558772Y-94831054D01*
X101563649Y-94844683D01*
X101567166Y-94858724D01*
X101569290Y-94873042D01*
X101570000Y-94887500D01*
X101570000Y-95182500D01*
X101569290Y-95196958D01*
X101567166Y-95211276D01*
X101563649Y-95225317D01*
X101558772Y-95238946D01*
X101552583Y-95252031D01*
X101545142Y-95264447D01*
X101536519Y-95276073D01*
X101526798Y-95286798D01*
X101516073Y-95296519D01*
X101504447Y-95305142D01*
X101492031Y-95312583D01*
X101478946Y-95318772D01*
X101465317Y-95323649D01*
X101451276Y-95327166D01*
X101436958Y-95329290D01*
X101422500Y-95330000D01*
X101077500Y-95330000D01*
X101063042Y-95329290D01*
X101048724Y-95327166D01*
X101034683Y-95323649D01*
X101021054Y-95318772D01*
X101007969Y-95312583D01*
X100995553Y-95305142D01*
X100983927Y-95296519D01*
X100973202Y-95286798D01*
X100963481Y-95276073D01*
X100954858Y-95264447D01*
X100947417Y-95252031D01*
X100941228Y-95238946D01*
X100936351Y-95225317D01*
X100932834Y-95211276D01*
X100930710Y-95196958D01*
X100930000Y-95182500D01*
X100930000Y-94887500D01*
X100930710Y-94873042D01*
X100932834Y-94858724D01*
X100936351Y-94844683D01*
X100941228Y-94831054D01*
X100947417Y-94817969D01*
X100954858Y-94805553D01*
X100963481Y-94793927D01*
X100973202Y-94783202D01*
X100983927Y-94773481D01*
X100995553Y-94764858D01*
X101007969Y-94757417D01*
X101021054Y-94751228D01*
X101034683Y-94746351D01*
X101048724Y-94742834D01*
X101063042Y-94740710D01*
X101077500Y-94740000D01*
X101422500Y-94740000D01*
X101436958Y-94740710D01*
G37*
%TD*%
%TO.C,J5*%
G36*
X92975274Y-95934695D02*
G01*
X92989835Y-95936855D01*
X93004114Y-95940432D01*
X93017974Y-95945391D01*
X93031281Y-95951685D01*
X93043907Y-95959253D01*
X93055730Y-95968021D01*
X93066637Y-95977907D01*
X93950521Y-96861791D01*
X93960407Y-96872698D01*
X93969175Y-96884521D01*
X93976743Y-96897147D01*
X93983037Y-96910454D01*
X93987996Y-96924314D01*
X93991573Y-96938593D01*
X93993733Y-96953154D01*
X93994455Y-96967857D01*
X93993733Y-96982560D01*
X93991573Y-96997121D01*
X93987996Y-97011400D01*
X93983037Y-97025260D01*
X93976743Y-97038567D01*
X93969175Y-97051193D01*
X93960407Y-97063016D01*
X93950521Y-97073923D01*
X93738389Y-97286055D01*
X93727482Y-97295941D01*
X93715659Y-97304709D01*
X93703033Y-97312277D01*
X93689726Y-97318571D01*
X93675866Y-97323530D01*
X93661587Y-97327107D01*
X93647026Y-97329267D01*
X93632323Y-97329989D01*
X93617620Y-97329267D01*
X93603059Y-97327107D01*
X93588780Y-97323530D01*
X93574920Y-97318571D01*
X93561613Y-97312277D01*
X93548987Y-97304709D01*
X93537164Y-97295941D01*
X93526257Y-97286055D01*
X92642373Y-96402171D01*
X92632487Y-96391264D01*
X92623719Y-96379441D01*
X92616151Y-96366815D01*
X92609857Y-96353508D01*
X92604898Y-96339648D01*
X92601321Y-96325369D01*
X92599161Y-96310808D01*
X92598439Y-96296105D01*
X92599161Y-96281402D01*
X92601321Y-96266841D01*
X92604898Y-96252562D01*
X92609857Y-96238702D01*
X92616151Y-96225395D01*
X92623719Y-96212769D01*
X92632487Y-96200946D01*
X92642373Y-96190039D01*
X92854505Y-95977907D01*
X92865412Y-95968021D01*
X92877235Y-95959253D01*
X92889861Y-95951685D01*
X92903168Y-95945391D01*
X92917028Y-95940432D01*
X92931307Y-95936855D01*
X92945868Y-95934695D01*
X92960571Y-95933973D01*
X92975274Y-95934695D01*
G37*
G36*
X93682380Y-95227588D02*
G01*
X93696941Y-95229748D01*
X93711220Y-95233325D01*
X93725080Y-95238284D01*
X93738387Y-95244578D01*
X93751013Y-95252146D01*
X93762836Y-95260914D01*
X93773743Y-95270800D01*
X94657627Y-96154684D01*
X94667513Y-96165591D01*
X94676281Y-96177414D01*
X94683849Y-96190040D01*
X94690143Y-96203347D01*
X94695102Y-96217207D01*
X94698679Y-96231486D01*
X94700839Y-96246047D01*
X94701561Y-96260750D01*
X94700839Y-96275453D01*
X94698679Y-96290014D01*
X94695102Y-96304293D01*
X94690143Y-96318153D01*
X94683849Y-96331460D01*
X94676281Y-96344086D01*
X94667513Y-96355909D01*
X94657627Y-96366816D01*
X94445495Y-96578948D01*
X94434588Y-96588834D01*
X94422765Y-96597602D01*
X94410139Y-96605170D01*
X94396832Y-96611464D01*
X94382972Y-96616423D01*
X94368693Y-96620000D01*
X94354132Y-96622160D01*
X94339429Y-96622882D01*
X94324726Y-96622160D01*
X94310165Y-96620000D01*
X94295886Y-96616423D01*
X94282026Y-96611464D01*
X94268719Y-96605170D01*
X94256093Y-96597602D01*
X94244270Y-96588834D01*
X94233363Y-96578948D01*
X93349479Y-95695064D01*
X93339593Y-95684157D01*
X93330825Y-95672334D01*
X93323257Y-95659708D01*
X93316963Y-95646401D01*
X93312004Y-95632541D01*
X93308427Y-95618262D01*
X93306267Y-95603701D01*
X93305545Y-95588998D01*
X93306267Y-95574295D01*
X93308427Y-95559734D01*
X93312004Y-95545455D01*
X93316963Y-95531595D01*
X93323257Y-95518288D01*
X93330825Y-95505662D01*
X93339593Y-95493839D01*
X93349479Y-95482932D01*
X93561611Y-95270800D01*
X93572518Y-95260914D01*
X93584341Y-95252146D01*
X93596967Y-95244578D01*
X93610274Y-95238284D01*
X93624134Y-95233325D01*
X93638413Y-95229748D01*
X93652974Y-95227588D01*
X93667677Y-95226866D01*
X93682380Y-95227588D01*
G37*
G36*
X94389487Y-94520481D02*
G01*
X94404048Y-94522641D01*
X94418327Y-94526218D01*
X94432187Y-94531177D01*
X94445494Y-94537471D01*
X94458120Y-94545039D01*
X94469943Y-94553807D01*
X94480850Y-94563693D01*
X95364734Y-95447577D01*
X95374620Y-95458484D01*
X95383388Y-95470307D01*
X95390956Y-95482933D01*
X95397250Y-95496240D01*
X95402209Y-95510100D01*
X95405786Y-95524379D01*
X95407946Y-95538940D01*
X95408668Y-95553643D01*
X95407946Y-95568346D01*
X95405786Y-95582907D01*
X95402209Y-95597186D01*
X95397250Y-95611046D01*
X95390956Y-95624353D01*
X95383388Y-95636979D01*
X95374620Y-95648802D01*
X95364734Y-95659709D01*
X95152602Y-95871841D01*
X95141695Y-95881727D01*
X95129872Y-95890495D01*
X95117246Y-95898063D01*
X95103939Y-95904357D01*
X95090079Y-95909316D01*
X95075800Y-95912893D01*
X95061239Y-95915053D01*
X95046536Y-95915775D01*
X95031833Y-95915053D01*
X95017272Y-95912893D01*
X95002993Y-95909316D01*
X94989133Y-95904357D01*
X94975826Y-95898063D01*
X94963200Y-95890495D01*
X94951377Y-95881727D01*
X94940470Y-95871841D01*
X94056586Y-94987957D01*
X94046700Y-94977050D01*
X94037932Y-94965227D01*
X94030364Y-94952601D01*
X94024070Y-94939294D01*
X94019111Y-94925434D01*
X94015534Y-94911155D01*
X94013374Y-94896594D01*
X94012652Y-94881891D01*
X94013374Y-94867188D01*
X94015534Y-94852627D01*
X94019111Y-94838348D01*
X94024070Y-94824488D01*
X94030364Y-94811181D01*
X94037932Y-94798555D01*
X94046700Y-94786732D01*
X94056586Y-94775825D01*
X94268718Y-94563693D01*
X94279625Y-94553807D01*
X94291448Y-94545039D01*
X94304074Y-94537471D01*
X94317381Y-94531177D01*
X94331241Y-94526218D01*
X94345520Y-94522641D01*
X94360081Y-94520481D01*
X94374784Y-94519759D01*
X94389487Y-94520481D01*
G37*
G36*
X95096594Y-93813374D02*
G01*
X95111155Y-93815534D01*
X95125434Y-93819111D01*
X95139294Y-93824070D01*
X95152601Y-93830364D01*
X95165227Y-93837932D01*
X95177050Y-93846700D01*
X95187957Y-93856586D01*
X96071841Y-94740470D01*
X96081727Y-94751377D01*
X96090495Y-94763200D01*
X96098063Y-94775826D01*
X96104357Y-94789133D01*
X96109316Y-94802993D01*
X96112893Y-94817272D01*
X96115053Y-94831833D01*
X96115775Y-94846536D01*
X96115053Y-94861239D01*
X96112893Y-94875800D01*
X96109316Y-94890079D01*
X96104357Y-94903939D01*
X96098063Y-94917246D01*
X96090495Y-94929872D01*
X96081727Y-94941695D01*
X96071841Y-94952602D01*
X95859709Y-95164734D01*
X95848802Y-95174620D01*
X95836979Y-95183388D01*
X95824353Y-95190956D01*
X95811046Y-95197250D01*
X95797186Y-95202209D01*
X95782907Y-95205786D01*
X95768346Y-95207946D01*
X95753643Y-95208668D01*
X95738940Y-95207946D01*
X95724379Y-95205786D01*
X95710100Y-95202209D01*
X95696240Y-95197250D01*
X95682933Y-95190956D01*
X95670307Y-95183388D01*
X95658484Y-95174620D01*
X95647577Y-95164734D01*
X94763693Y-94280850D01*
X94753807Y-94269943D01*
X94745039Y-94258120D01*
X94737471Y-94245494D01*
X94731177Y-94232187D01*
X94726218Y-94218327D01*
X94722641Y-94204048D01*
X94720481Y-94189487D01*
X94719759Y-94174784D01*
X94720481Y-94160081D01*
X94722641Y-94145520D01*
X94726218Y-94131241D01*
X94731177Y-94117381D01*
X94737471Y-94104074D01*
X94745039Y-94091448D01*
X94753807Y-94079625D01*
X94763693Y-94068718D01*
X94975825Y-93856586D01*
X94986732Y-93846700D01*
X94998555Y-93837932D01*
X95011181Y-93830364D01*
X95024488Y-93824070D01*
X95038348Y-93819111D01*
X95052627Y-93815534D01*
X95067188Y-93813374D01*
X95081891Y-93812652D01*
X95096594Y-93813374D01*
G37*
G36*
X95803701Y-93106267D02*
G01*
X95818262Y-93108427D01*
X95832541Y-93112004D01*
X95846401Y-93116963D01*
X95859708Y-93123257D01*
X95872334Y-93130825D01*
X95884157Y-93139593D01*
X95895064Y-93149479D01*
X96778948Y-94033363D01*
X96788834Y-94044270D01*
X96797602Y-94056093D01*
X96805170Y-94068719D01*
X96811464Y-94082026D01*
X96816423Y-94095886D01*
X96820000Y-94110165D01*
X96822160Y-94124726D01*
X96822882Y-94139429D01*
X96822160Y-94154132D01*
X96820000Y-94168693D01*
X96816423Y-94182972D01*
X96811464Y-94196832D01*
X96805170Y-94210139D01*
X96797602Y-94222765D01*
X96788834Y-94234588D01*
X96778948Y-94245495D01*
X96566816Y-94457627D01*
X96555909Y-94467513D01*
X96544086Y-94476281D01*
X96531460Y-94483849D01*
X96518153Y-94490143D01*
X96504293Y-94495102D01*
X96490014Y-94498679D01*
X96475453Y-94500839D01*
X96460750Y-94501561D01*
X96446047Y-94500839D01*
X96431486Y-94498679D01*
X96417207Y-94495102D01*
X96403347Y-94490143D01*
X96390040Y-94483849D01*
X96377414Y-94476281D01*
X96365591Y-94467513D01*
X96354684Y-94457627D01*
X95470800Y-93573743D01*
X95460914Y-93562836D01*
X95452146Y-93551013D01*
X95444578Y-93538387D01*
X95438284Y-93525080D01*
X95433325Y-93511220D01*
X95429748Y-93496941D01*
X95427588Y-93482380D01*
X95426866Y-93467677D01*
X95427588Y-93452974D01*
X95429748Y-93438413D01*
X95433325Y-93424134D01*
X95438284Y-93410274D01*
X95444578Y-93396967D01*
X95452146Y-93384341D01*
X95460914Y-93372518D01*
X95470800Y-93361611D01*
X95682932Y-93149479D01*
X95693839Y-93139593D01*
X95705662Y-93130825D01*
X95718288Y-93123257D01*
X95731595Y-93116963D01*
X95745455Y-93112004D01*
X95759734Y-93108427D01*
X95774295Y-93106267D01*
X95788998Y-93105545D01*
X95803701Y-93106267D01*
G37*
G36*
X96510808Y-92399161D02*
G01*
X96525369Y-92401321D01*
X96539648Y-92404898D01*
X96553508Y-92409857D01*
X96566815Y-92416151D01*
X96579441Y-92423719D01*
X96591264Y-92432487D01*
X96602171Y-92442373D01*
X97486055Y-93326257D01*
X97495941Y-93337164D01*
X97504709Y-93348987D01*
X97512277Y-93361613D01*
X97518571Y-93374920D01*
X97523530Y-93388780D01*
X97527107Y-93403059D01*
X97529267Y-93417620D01*
X97529989Y-93432323D01*
X97529267Y-93447026D01*
X97527107Y-93461587D01*
X97523530Y-93475866D01*
X97518571Y-93489726D01*
X97512277Y-93503033D01*
X97504709Y-93515659D01*
X97495941Y-93527482D01*
X97486055Y-93538389D01*
X97273923Y-93750521D01*
X97263016Y-93760407D01*
X97251193Y-93769175D01*
X97238567Y-93776743D01*
X97225260Y-93783037D01*
X97211400Y-93787996D01*
X97197121Y-93791573D01*
X97182560Y-93793733D01*
X97167857Y-93794455D01*
X97153154Y-93793733D01*
X97138593Y-93791573D01*
X97124314Y-93787996D01*
X97110454Y-93783037D01*
X97097147Y-93776743D01*
X97084521Y-93769175D01*
X97072698Y-93760407D01*
X97061791Y-93750521D01*
X96177907Y-92866637D01*
X96168021Y-92855730D01*
X96159253Y-92843907D01*
X96151685Y-92831281D01*
X96145391Y-92817974D01*
X96140432Y-92804114D01*
X96136855Y-92789835D01*
X96134695Y-92775274D01*
X96133973Y-92760571D01*
X96134695Y-92745868D01*
X96136855Y-92731307D01*
X96140432Y-92717028D01*
X96145391Y-92703168D01*
X96151685Y-92689861D01*
X96159253Y-92677235D01*
X96168021Y-92665412D01*
X96177907Y-92654505D01*
X96390039Y-92442373D01*
X96400946Y-92432487D01*
X96412769Y-92423719D01*
X96425395Y-92416151D01*
X96438702Y-92409857D01*
X96452562Y-92404898D01*
X96466841Y-92401321D01*
X96481402Y-92399161D01*
X96496105Y-92398439D01*
X96510808Y-92399161D01*
G37*
G36*
X89449541Y-93855278D02*
G01*
X89473809Y-93858878D01*
X89497608Y-93864839D01*
X89520707Y-93873104D01*
X89542886Y-93883594D01*
X89563929Y-93896206D01*
X89583635Y-93910821D01*
X89601813Y-93927297D01*
X90521053Y-94846537D01*
X90537529Y-94864715D01*
X90552144Y-94884421D01*
X90564756Y-94905464D01*
X90575246Y-94927643D01*
X90583511Y-94950742D01*
X90589472Y-94974541D01*
X90593072Y-94998809D01*
X90594276Y-95023313D01*
X90593072Y-95047817D01*
X90589472Y-95072085D01*
X90583511Y-95095884D01*
X90575246Y-95118983D01*
X90564756Y-95141162D01*
X90552144Y-95162205D01*
X90537529Y-95181911D01*
X90521053Y-95200089D01*
X90026077Y-95695065D01*
X90007899Y-95711541D01*
X89988193Y-95726156D01*
X89967150Y-95738768D01*
X89944971Y-95749258D01*
X89921872Y-95757523D01*
X89898073Y-95763484D01*
X89873805Y-95767084D01*
X89849301Y-95768288D01*
X89824797Y-95767084D01*
X89800529Y-95763484D01*
X89776730Y-95757523D01*
X89753631Y-95749258D01*
X89731452Y-95738768D01*
X89710409Y-95726156D01*
X89690703Y-95711541D01*
X89672525Y-95695065D01*
X88753285Y-94775825D01*
X88736809Y-94757647D01*
X88722194Y-94737941D01*
X88709582Y-94716898D01*
X88699092Y-94694719D01*
X88690827Y-94671620D01*
X88684866Y-94647821D01*
X88681266Y-94623553D01*
X88680062Y-94599049D01*
X88681266Y-94574545D01*
X88684866Y-94550277D01*
X88690827Y-94526478D01*
X88699092Y-94503379D01*
X88709582Y-94481200D01*
X88722194Y-94460157D01*
X88736809Y-94440451D01*
X88753285Y-94422273D01*
X89248261Y-93927297D01*
X89266439Y-93910821D01*
X89286145Y-93896206D01*
X89307188Y-93883594D01*
X89329367Y-93873104D01*
X89352466Y-93864839D01*
X89376265Y-93858878D01*
X89400533Y-93855278D01*
X89425037Y-93854074D01*
X89449541Y-93855278D01*
G37*
G36*
X94823553Y-88481266D02*
G01*
X94847821Y-88484866D01*
X94871620Y-88490827D01*
X94894719Y-88499092D01*
X94916898Y-88509582D01*
X94937941Y-88522194D01*
X94957647Y-88536809D01*
X94975825Y-88553285D01*
X95895065Y-89472525D01*
X95911541Y-89490703D01*
X95926156Y-89510409D01*
X95938768Y-89531452D01*
X95949258Y-89553631D01*
X95957523Y-89576730D01*
X95963484Y-89600529D01*
X95967084Y-89624797D01*
X95968288Y-89649301D01*
X95967084Y-89673805D01*
X95963484Y-89698073D01*
X95957523Y-89721872D01*
X95949258Y-89744971D01*
X95938768Y-89767150D01*
X95926156Y-89788193D01*
X95911541Y-89807899D01*
X95895065Y-89826077D01*
X95400089Y-90321053D01*
X95381911Y-90337529D01*
X95362205Y-90352144D01*
X95341162Y-90364756D01*
X95318983Y-90375246D01*
X95295884Y-90383511D01*
X95272085Y-90389472D01*
X95247817Y-90393072D01*
X95223313Y-90394276D01*
X95198809Y-90393072D01*
X95174541Y-90389472D01*
X95150742Y-90383511D01*
X95127643Y-90375246D01*
X95105464Y-90364756D01*
X95084421Y-90352144D01*
X95064715Y-90337529D01*
X95046537Y-90321053D01*
X94127297Y-89401813D01*
X94110821Y-89383635D01*
X94096206Y-89363929D01*
X94083594Y-89342886D01*
X94073104Y-89320707D01*
X94064839Y-89297608D01*
X94058878Y-89273809D01*
X94055278Y-89249541D01*
X94054074Y-89225037D01*
X94055278Y-89200533D01*
X94058878Y-89176265D01*
X94064839Y-89152466D01*
X94073104Y-89129367D01*
X94083594Y-89107188D01*
X94096206Y-89086145D01*
X94110821Y-89066439D01*
X94127297Y-89048261D01*
X94622273Y-88553285D01*
X94640451Y-88536809D01*
X94660157Y-88522194D01*
X94681200Y-88509582D01*
X94703379Y-88499092D01*
X94726478Y-88490827D01*
X94750277Y-88484866D01*
X94774545Y-88481266D01*
X94799049Y-88480062D01*
X94823553Y-88481266D01*
G37*
%TD*%
%TO.C,C22*%
G36*
X105627691Y-100551053D02*
G01*
X105648926Y-100554203D01*
X105669750Y-100559419D01*
X105689962Y-100566651D01*
X105709368Y-100575830D01*
X105727781Y-100586866D01*
X105745024Y-100599654D01*
X105760930Y-100614070D01*
X105775346Y-100629976D01*
X105788134Y-100647219D01*
X105799170Y-100665632D01*
X105808349Y-100685038D01*
X105815581Y-100705250D01*
X105820797Y-100726074D01*
X105823947Y-100747309D01*
X105825000Y-100768750D01*
X105825000Y-101206250D01*
X105823947Y-101227691D01*
X105820797Y-101248926D01*
X105815581Y-101269750D01*
X105808349Y-101289962D01*
X105799170Y-101309368D01*
X105788134Y-101327781D01*
X105775346Y-101345024D01*
X105760930Y-101360930D01*
X105745024Y-101375346D01*
X105727781Y-101388134D01*
X105709368Y-101399170D01*
X105689962Y-101408349D01*
X105669750Y-101415581D01*
X105648926Y-101420797D01*
X105627691Y-101423947D01*
X105606250Y-101425000D01*
X105093750Y-101425000D01*
X105072309Y-101423947D01*
X105051074Y-101420797D01*
X105030250Y-101415581D01*
X105010038Y-101408349D01*
X104990632Y-101399170D01*
X104972219Y-101388134D01*
X104954976Y-101375346D01*
X104939070Y-101360930D01*
X104924654Y-101345024D01*
X104911866Y-101327781D01*
X104900830Y-101309368D01*
X104891651Y-101289962D01*
X104884419Y-101269750D01*
X104879203Y-101248926D01*
X104876053Y-101227691D01*
X104875000Y-101206250D01*
X104875000Y-100768750D01*
X104876053Y-100747309D01*
X104879203Y-100726074D01*
X104884419Y-100705250D01*
X104891651Y-100685038D01*
X104900830Y-100665632D01*
X104911866Y-100647219D01*
X104924654Y-100629976D01*
X104939070Y-100614070D01*
X104954976Y-100599654D01*
X104972219Y-100586866D01*
X104990632Y-100575830D01*
X105010038Y-100566651D01*
X105030250Y-100559419D01*
X105051074Y-100554203D01*
X105072309Y-100551053D01*
X105093750Y-100550000D01*
X105606250Y-100550000D01*
X105627691Y-100551053D01*
G37*
G36*
X105627691Y-98976053D02*
G01*
X105648926Y-98979203D01*
X105669750Y-98984419D01*
X105689962Y-98991651D01*
X105709368Y-99000830D01*
X105727781Y-99011866D01*
X105745024Y-99024654D01*
X105760930Y-99039070D01*
X105775346Y-99054976D01*
X105788134Y-99072219D01*
X105799170Y-99090632D01*
X105808349Y-99110038D01*
X105815581Y-99130250D01*
X105820797Y-99151074D01*
X105823947Y-99172309D01*
X105825000Y-99193750D01*
X105825000Y-99631250D01*
X105823947Y-99652691D01*
X105820797Y-99673926D01*
X105815581Y-99694750D01*
X105808349Y-99714962D01*
X105799170Y-99734368D01*
X105788134Y-99752781D01*
X105775346Y-99770024D01*
X105760930Y-99785930D01*
X105745024Y-99800346D01*
X105727781Y-99813134D01*
X105709368Y-99824170D01*
X105689962Y-99833349D01*
X105669750Y-99840581D01*
X105648926Y-99845797D01*
X105627691Y-99848947D01*
X105606250Y-99850000D01*
X105093750Y-99850000D01*
X105072309Y-99848947D01*
X105051074Y-99845797D01*
X105030250Y-99840581D01*
X105010038Y-99833349D01*
X104990632Y-99824170D01*
X104972219Y-99813134D01*
X104954976Y-99800346D01*
X104939070Y-99785930D01*
X104924654Y-99770024D01*
X104911866Y-99752781D01*
X104900830Y-99734368D01*
X104891651Y-99714962D01*
X104884419Y-99694750D01*
X104879203Y-99673926D01*
X104876053Y-99652691D01*
X104875000Y-99631250D01*
X104875000Y-99193750D01*
X104876053Y-99172309D01*
X104879203Y-99151074D01*
X104884419Y-99130250D01*
X104891651Y-99110038D01*
X104900830Y-99090632D01*
X104911866Y-99072219D01*
X104924654Y-99054976D01*
X104939070Y-99039070D01*
X104954976Y-99024654D01*
X104972219Y-99011866D01*
X104990632Y-99000830D01*
X105010038Y-98991651D01*
X105030250Y-98984419D01*
X105051074Y-98979203D01*
X105072309Y-98976053D01*
X105093750Y-98975000D01*
X105606250Y-98975000D01*
X105627691Y-98976053D01*
G37*
%TD*%
%TO.C,L1*%
G36*
X106627628Y-91167468D02*
G01*
X107926666Y-91917468D01*
X106676666Y-94082532D01*
X105377628Y-93332532D01*
X106627628Y-91167468D01*
G37*
G36*
X103423334Y-89317468D02*
G01*
X104722372Y-90067468D01*
X103472372Y-92232532D01*
X102173334Y-91482532D01*
X103423334Y-89317468D01*
G37*
%TD*%
%TO.C,J4*%
G36*
X93112756Y-107981488D02*
G01*
X93136844Y-107986143D01*
X93160360Y-107993137D01*
X93183077Y-108002402D01*
X93817494Y-108298236D01*
X93839194Y-108309683D01*
X93859667Y-108323202D01*
X93878716Y-108338662D01*
X93896159Y-108355915D01*
X93911826Y-108374795D01*
X93925567Y-108395119D01*
X93937250Y-108416693D01*
X93946762Y-108439307D01*
X93954012Y-108462746D01*
X93958929Y-108486781D01*
X93961467Y-108511184D01*
X93961601Y-108535717D01*
X93959330Y-108560145D01*
X93954675Y-108584233D01*
X93947681Y-108607749D01*
X93938416Y-108630466D01*
X93389011Y-109808668D01*
X93377564Y-109830368D01*
X93364045Y-109850841D01*
X93348585Y-109869890D01*
X93331332Y-109887333D01*
X93312452Y-109903000D01*
X93292128Y-109916741D01*
X93270554Y-109928424D01*
X93247940Y-109937936D01*
X93224501Y-109945186D01*
X93200466Y-109950103D01*
X93176064Y-109952641D01*
X93151530Y-109952775D01*
X93127102Y-109950504D01*
X93103014Y-109945849D01*
X93079498Y-109938855D01*
X93056781Y-109929590D01*
X92422364Y-109633756D01*
X92400664Y-109622309D01*
X92380191Y-109608790D01*
X92361142Y-109593330D01*
X92343699Y-109576077D01*
X92328032Y-109557197D01*
X92314291Y-109536873D01*
X92302608Y-109515299D01*
X92293096Y-109492685D01*
X92285846Y-109469246D01*
X92280929Y-109445211D01*
X92278391Y-109420808D01*
X92278257Y-109396275D01*
X92280528Y-109371847D01*
X92285183Y-109347759D01*
X92292177Y-109324243D01*
X92301442Y-109301526D01*
X92850847Y-108123324D01*
X92862294Y-108101624D01*
X92875813Y-108081151D01*
X92891273Y-108062102D01*
X92908526Y-108044659D01*
X92927406Y-108028992D01*
X92947730Y-108015251D01*
X92969304Y-108003568D01*
X92991918Y-107994056D01*
X93015357Y-107986806D01*
X93039392Y-107981889D01*
X93063794Y-107979351D01*
X93088328Y-107979217D01*
X93112756Y-107981488D01*
G37*
G36*
X98188080Y-110348150D02*
G01*
X98212168Y-110352805D01*
X98235684Y-110359799D01*
X98258401Y-110369064D01*
X98892818Y-110664898D01*
X98914518Y-110676345D01*
X98934991Y-110689864D01*
X98954040Y-110705324D01*
X98971483Y-110722577D01*
X98987150Y-110741457D01*
X99000891Y-110761781D01*
X99012574Y-110783355D01*
X99022086Y-110805969D01*
X99029336Y-110829408D01*
X99034253Y-110853443D01*
X99036791Y-110877846D01*
X99036925Y-110902379D01*
X99034654Y-110926807D01*
X99029999Y-110950895D01*
X99023005Y-110974411D01*
X99013740Y-110997128D01*
X98464335Y-112175330D01*
X98452888Y-112197030D01*
X98439369Y-112217503D01*
X98423909Y-112236552D01*
X98406656Y-112253995D01*
X98387776Y-112269662D01*
X98367452Y-112283403D01*
X98345878Y-112295086D01*
X98323264Y-112304598D01*
X98299825Y-112311848D01*
X98275790Y-112316765D01*
X98251388Y-112319303D01*
X98226854Y-112319437D01*
X98202426Y-112317166D01*
X98178338Y-112312511D01*
X98154822Y-112305517D01*
X98132105Y-112296252D01*
X97497688Y-112000418D01*
X97475988Y-111988971D01*
X97455515Y-111975452D01*
X97436466Y-111959992D01*
X97419023Y-111942739D01*
X97403356Y-111923859D01*
X97389615Y-111903535D01*
X97377932Y-111881961D01*
X97368420Y-111859347D01*
X97361170Y-111835908D01*
X97356253Y-111811873D01*
X97353715Y-111787470D01*
X97353581Y-111762937D01*
X97355852Y-111738509D01*
X97360507Y-111714421D01*
X97367501Y-111690905D01*
X97376766Y-111668188D01*
X97926171Y-110489986D01*
X97937618Y-110468286D01*
X97951137Y-110447813D01*
X97966597Y-110428764D01*
X97983850Y-110411321D01*
X98002730Y-110395654D01*
X98023054Y-110381913D01*
X98044628Y-110370230D01*
X98067242Y-110360718D01*
X98090681Y-110353468D01*
X98114716Y-110348551D01*
X98139118Y-110346013D01*
X98163652Y-110345879D01*
X98188080Y-110348150D01*
G37*
G36*
X96085165Y-105225128D02*
G01*
X96099618Y-105227921D01*
X96113727Y-105232117D01*
X96127357Y-105237676D01*
X96399250Y-105364461D01*
X96412270Y-105371329D01*
X96424554Y-105379440D01*
X96435984Y-105388716D01*
X96446449Y-105399068D01*
X96455850Y-105410396D01*
X96464095Y-105422591D01*
X96471104Y-105435535D01*
X96476812Y-105449104D01*
X96481162Y-105463167D01*
X96484112Y-105477588D01*
X96485635Y-105492229D01*
X96485715Y-105506950D01*
X96484352Y-105521607D01*
X96481559Y-105536060D01*
X96477363Y-105550169D01*
X96471804Y-105563800D01*
X95943531Y-106696685D01*
X95936663Y-106709705D01*
X95928552Y-106721988D01*
X95919275Y-106733418D01*
X95908924Y-106743884D01*
X95897596Y-106753284D01*
X95885401Y-106761529D01*
X95872457Y-106768539D01*
X95858888Y-106774246D01*
X95844825Y-106778596D01*
X95830404Y-106781546D01*
X95815762Y-106783069D01*
X95801042Y-106783149D01*
X95786385Y-106781786D01*
X95771932Y-106778993D01*
X95757823Y-106774797D01*
X95744193Y-106769238D01*
X95472300Y-106642453D01*
X95459280Y-106635585D01*
X95446996Y-106627474D01*
X95435566Y-106618198D01*
X95425101Y-106607846D01*
X95415700Y-106596518D01*
X95407455Y-106584323D01*
X95400446Y-106571379D01*
X95394738Y-106557810D01*
X95390388Y-106543747D01*
X95387438Y-106529326D01*
X95385915Y-106514685D01*
X95385835Y-106499964D01*
X95387198Y-106485307D01*
X95389991Y-106470854D01*
X95394187Y-106456745D01*
X95399746Y-106443114D01*
X95928019Y-105310229D01*
X95934887Y-105297209D01*
X95942998Y-105284926D01*
X95952275Y-105273496D01*
X95962626Y-105263030D01*
X95973954Y-105253630D01*
X95986149Y-105245385D01*
X95999093Y-105238375D01*
X96012662Y-105232668D01*
X96026725Y-105228318D01*
X96041146Y-105225368D01*
X96055788Y-105223845D01*
X96070508Y-105223765D01*
X96085165Y-105225128D01*
G37*
G36*
X96991473Y-105647746D02*
G01*
X97005926Y-105650539D01*
X97020035Y-105654735D01*
X97033665Y-105660294D01*
X97305558Y-105787079D01*
X97318578Y-105793947D01*
X97330862Y-105802058D01*
X97342292Y-105811334D01*
X97352757Y-105821686D01*
X97362158Y-105833014D01*
X97370403Y-105845209D01*
X97377412Y-105858153D01*
X97383120Y-105871722D01*
X97387470Y-105885785D01*
X97390420Y-105900206D01*
X97391943Y-105914847D01*
X97392023Y-105929568D01*
X97390660Y-105944225D01*
X97387867Y-105958678D01*
X97383671Y-105972787D01*
X97378112Y-105986418D01*
X96849839Y-107119303D01*
X96842971Y-107132323D01*
X96834860Y-107144606D01*
X96825583Y-107156036D01*
X96815232Y-107166502D01*
X96803904Y-107175902D01*
X96791709Y-107184147D01*
X96778765Y-107191157D01*
X96765196Y-107196864D01*
X96751133Y-107201214D01*
X96736712Y-107204164D01*
X96722070Y-107205687D01*
X96707350Y-107205767D01*
X96692693Y-107204404D01*
X96678240Y-107201611D01*
X96664131Y-107197415D01*
X96650501Y-107191856D01*
X96378608Y-107065071D01*
X96365588Y-107058203D01*
X96353304Y-107050092D01*
X96341874Y-107040816D01*
X96331409Y-107030464D01*
X96322008Y-107019136D01*
X96313763Y-107006941D01*
X96306754Y-106993997D01*
X96301046Y-106980428D01*
X96296696Y-106966365D01*
X96293746Y-106951944D01*
X96292223Y-106937303D01*
X96292143Y-106922582D01*
X96293506Y-106907925D01*
X96296299Y-106893472D01*
X96300495Y-106879363D01*
X96306054Y-106865732D01*
X96834327Y-105732847D01*
X96841195Y-105719827D01*
X96849306Y-105707544D01*
X96858583Y-105696114D01*
X96868934Y-105685648D01*
X96880262Y-105676248D01*
X96892457Y-105668003D01*
X96905401Y-105660993D01*
X96918970Y-105655286D01*
X96933033Y-105650936D01*
X96947454Y-105647986D01*
X96962096Y-105646463D01*
X96976816Y-105646383D01*
X96991473Y-105647746D01*
G37*
G36*
X97897780Y-106070365D02*
G01*
X97912233Y-106073158D01*
X97926342Y-106077354D01*
X97939972Y-106082913D01*
X98211865Y-106209698D01*
X98224885Y-106216566D01*
X98237169Y-106224677D01*
X98248599Y-106233953D01*
X98259064Y-106244305D01*
X98268465Y-106255633D01*
X98276710Y-106267828D01*
X98283719Y-106280772D01*
X98289427Y-106294341D01*
X98293777Y-106308404D01*
X98296727Y-106322825D01*
X98298250Y-106337466D01*
X98298330Y-106352187D01*
X98296967Y-106366844D01*
X98294174Y-106381297D01*
X98289978Y-106395406D01*
X98284419Y-106409037D01*
X97756146Y-107541922D01*
X97749278Y-107554942D01*
X97741167Y-107567225D01*
X97731890Y-107578655D01*
X97721539Y-107589121D01*
X97710211Y-107598521D01*
X97698016Y-107606766D01*
X97685072Y-107613776D01*
X97671503Y-107619483D01*
X97657440Y-107623833D01*
X97643019Y-107626783D01*
X97628377Y-107628306D01*
X97613657Y-107628386D01*
X97599000Y-107627023D01*
X97584547Y-107624230D01*
X97570438Y-107620034D01*
X97556808Y-107614475D01*
X97284915Y-107487690D01*
X97271895Y-107480822D01*
X97259611Y-107472711D01*
X97248181Y-107463435D01*
X97237716Y-107453083D01*
X97228315Y-107441755D01*
X97220070Y-107429560D01*
X97213061Y-107416616D01*
X97207353Y-107403047D01*
X97203003Y-107388984D01*
X97200053Y-107374563D01*
X97198530Y-107359922D01*
X97198450Y-107345201D01*
X97199813Y-107330544D01*
X97202606Y-107316091D01*
X97206802Y-107301982D01*
X97212361Y-107288351D01*
X97740634Y-106155466D01*
X97747502Y-106142446D01*
X97755613Y-106130163D01*
X97764890Y-106118733D01*
X97775241Y-106108267D01*
X97786569Y-106098867D01*
X97798764Y-106090622D01*
X97811708Y-106083612D01*
X97825277Y-106077905D01*
X97839340Y-106073555D01*
X97853761Y-106070605D01*
X97868403Y-106069082D01*
X97883123Y-106069002D01*
X97897780Y-106070365D01*
G37*
G36*
X98804088Y-106492983D02*
G01*
X98818541Y-106495776D01*
X98832650Y-106499972D01*
X98846280Y-106505531D01*
X99118173Y-106632316D01*
X99131193Y-106639184D01*
X99143477Y-106647295D01*
X99154907Y-106656571D01*
X99165372Y-106666923D01*
X99174773Y-106678251D01*
X99183018Y-106690446D01*
X99190027Y-106703390D01*
X99195735Y-106716959D01*
X99200085Y-106731022D01*
X99203035Y-106745443D01*
X99204558Y-106760084D01*
X99204638Y-106774805D01*
X99203275Y-106789462D01*
X99200482Y-106803915D01*
X99196286Y-106818024D01*
X99190727Y-106831655D01*
X98662454Y-107964540D01*
X98655586Y-107977560D01*
X98647475Y-107989843D01*
X98638198Y-108001273D01*
X98627847Y-108011739D01*
X98616519Y-108021139D01*
X98604324Y-108029384D01*
X98591380Y-108036394D01*
X98577811Y-108042101D01*
X98563748Y-108046451D01*
X98549327Y-108049401D01*
X98534685Y-108050924D01*
X98519965Y-108051004D01*
X98505308Y-108049641D01*
X98490855Y-108046848D01*
X98476746Y-108042652D01*
X98463116Y-108037093D01*
X98191223Y-107910308D01*
X98178203Y-107903440D01*
X98165919Y-107895329D01*
X98154489Y-107886053D01*
X98144024Y-107875701D01*
X98134623Y-107864373D01*
X98126378Y-107852178D01*
X98119369Y-107839234D01*
X98113661Y-107825665D01*
X98109311Y-107811602D01*
X98106361Y-107797181D01*
X98104838Y-107782540D01*
X98104758Y-107767819D01*
X98106121Y-107753162D01*
X98108914Y-107738709D01*
X98113110Y-107724600D01*
X98118669Y-107710969D01*
X98646942Y-106578084D01*
X98653810Y-106565064D01*
X98661921Y-106552781D01*
X98671198Y-106541351D01*
X98681549Y-106530885D01*
X98692877Y-106521485D01*
X98705072Y-106513240D01*
X98718016Y-106506230D01*
X98731585Y-106500523D01*
X98745648Y-106496173D01*
X98760069Y-106493223D01*
X98774711Y-106491700D01*
X98789431Y-106491620D01*
X98804088Y-106492983D01*
G37*
%TD*%
%TO.C,J2*%
G36*
X89299505Y-97901204D02*
G01*
X89323773Y-97904804D01*
X89347572Y-97910765D01*
X89370671Y-97919030D01*
X89392850Y-97929520D01*
X89413893Y-97942132D01*
X89433599Y-97956747D01*
X89451777Y-97973223D01*
X89468253Y-97991401D01*
X89482868Y-98011107D01*
X89495480Y-98032150D01*
X89505970Y-98054329D01*
X89514235Y-98077428D01*
X89520196Y-98101227D01*
X89523796Y-98125495D01*
X89525000Y-98149999D01*
X89525000Y-98850001D01*
X89523796Y-98874505D01*
X89520196Y-98898773D01*
X89514235Y-98922572D01*
X89505970Y-98945671D01*
X89495480Y-98967850D01*
X89482868Y-98988893D01*
X89468253Y-99008599D01*
X89451777Y-99026777D01*
X89433599Y-99043253D01*
X89413893Y-99057868D01*
X89392850Y-99070480D01*
X89370671Y-99080970D01*
X89347572Y-99089235D01*
X89323773Y-99095196D01*
X89299505Y-99098796D01*
X89275001Y-99100000D01*
X87974999Y-99100000D01*
X87950495Y-99098796D01*
X87926227Y-99095196D01*
X87902428Y-99089235D01*
X87879329Y-99080970D01*
X87857150Y-99070480D01*
X87836107Y-99057868D01*
X87816401Y-99043253D01*
X87798223Y-99026777D01*
X87781747Y-99008599D01*
X87767132Y-98988893D01*
X87754520Y-98967850D01*
X87744030Y-98945671D01*
X87735765Y-98922572D01*
X87729804Y-98898773D01*
X87726204Y-98874505D01*
X87725000Y-98850001D01*
X87725000Y-98149999D01*
X87726204Y-98125495D01*
X87729804Y-98101227D01*
X87735765Y-98077428D01*
X87744030Y-98054329D01*
X87754520Y-98032150D01*
X87767132Y-98011107D01*
X87781747Y-97991401D01*
X87798223Y-97973223D01*
X87816401Y-97956747D01*
X87836107Y-97942132D01*
X87857150Y-97929520D01*
X87879329Y-97919030D01*
X87902428Y-97910765D01*
X87926227Y-97904804D01*
X87950495Y-97901204D01*
X87974999Y-97900000D01*
X89275001Y-97900000D01*
X89299505Y-97901204D01*
G37*
G36*
X89299505Y-101501204D02*
G01*
X89323773Y-101504804D01*
X89347572Y-101510765D01*
X89370671Y-101519030D01*
X89392850Y-101529520D01*
X89413893Y-101542132D01*
X89433599Y-101556747D01*
X89451777Y-101573223D01*
X89468253Y-101591401D01*
X89482868Y-101611107D01*
X89495480Y-101632150D01*
X89505970Y-101654329D01*
X89514235Y-101677428D01*
X89520196Y-101701227D01*
X89523796Y-101725495D01*
X89525000Y-101749999D01*
X89525000Y-102450001D01*
X89523796Y-102474505D01*
X89520196Y-102498773D01*
X89514235Y-102522572D01*
X89505970Y-102545671D01*
X89495480Y-102567850D01*
X89482868Y-102588893D01*
X89468253Y-102608599D01*
X89451777Y-102626777D01*
X89433599Y-102643253D01*
X89413893Y-102657868D01*
X89392850Y-102670480D01*
X89370671Y-102680970D01*
X89347572Y-102689235D01*
X89323773Y-102695196D01*
X89299505Y-102698796D01*
X89275001Y-102700000D01*
X87974999Y-102700000D01*
X87950495Y-102698796D01*
X87926227Y-102695196D01*
X87902428Y-102689235D01*
X87879329Y-102680970D01*
X87857150Y-102670480D01*
X87836107Y-102657868D01*
X87816401Y-102643253D01*
X87798223Y-102626777D01*
X87781747Y-102608599D01*
X87767132Y-102588893D01*
X87754520Y-102567850D01*
X87744030Y-102545671D01*
X87735765Y-102522572D01*
X87729804Y-102498773D01*
X87726204Y-102474505D01*
X87725000Y-102450001D01*
X87725000Y-101749999D01*
X87726204Y-101725495D01*
X87729804Y-101701227D01*
X87735765Y-101677428D01*
X87744030Y-101654329D01*
X87754520Y-101632150D01*
X87767132Y-101611107D01*
X87781747Y-101591401D01*
X87798223Y-101573223D01*
X87816401Y-101556747D01*
X87836107Y-101542132D01*
X87857150Y-101529520D01*
X87879329Y-101519030D01*
X87902428Y-101510765D01*
X87926227Y-101504804D01*
X87950495Y-101501204D01*
X87974999Y-101500000D01*
X89275001Y-101500000D01*
X89299505Y-101501204D01*
G37*
G36*
X93139703Y-99500722D02*
G01*
X93154264Y-99502882D01*
X93168543Y-99506459D01*
X93182403Y-99511418D01*
X93195710Y-99517712D01*
X93208336Y-99525280D01*
X93220159Y-99534048D01*
X93231066Y-99543934D01*
X93240952Y-99554841D01*
X93249720Y-99566664D01*
X93257288Y-99579290D01*
X93263582Y-99592597D01*
X93268541Y-99606457D01*
X93272118Y-99620736D01*
X93274278Y-99635297D01*
X93275000Y-99650000D01*
X93275000Y-99950000D01*
X93274278Y-99964703D01*
X93272118Y-99979264D01*
X93268541Y-99993543D01*
X93263582Y-100007403D01*
X93257288Y-100020710D01*
X93249720Y-100033336D01*
X93240952Y-100045159D01*
X93231066Y-100056066D01*
X93220159Y-100065952D01*
X93208336Y-100074720D01*
X93195710Y-100082288D01*
X93182403Y-100088582D01*
X93168543Y-100093541D01*
X93154264Y-100097118D01*
X93139703Y-100099278D01*
X93125000Y-100100000D01*
X91875000Y-100100000D01*
X91860297Y-100099278D01*
X91845736Y-100097118D01*
X91831457Y-100093541D01*
X91817597Y-100088582D01*
X91804290Y-100082288D01*
X91791664Y-100074720D01*
X91779841Y-100065952D01*
X91768934Y-100056066D01*
X91759048Y-100045159D01*
X91750280Y-100033336D01*
X91742712Y-100020710D01*
X91736418Y-100007403D01*
X91731459Y-99993543D01*
X91727882Y-99979264D01*
X91725722Y-99964703D01*
X91725000Y-99950000D01*
X91725000Y-99650000D01*
X91725722Y-99635297D01*
X91727882Y-99620736D01*
X91731459Y-99606457D01*
X91736418Y-99592597D01*
X91742712Y-99579290D01*
X91750280Y-99566664D01*
X91759048Y-99554841D01*
X91768934Y-99543934D01*
X91779841Y-99534048D01*
X91791664Y-99525280D01*
X91804290Y-99517712D01*
X91817597Y-99511418D01*
X91831457Y-99506459D01*
X91845736Y-99502882D01*
X91860297Y-99500722D01*
X91875000Y-99500000D01*
X93125000Y-99500000D01*
X93139703Y-99500722D01*
G37*
G36*
X93139703Y-100500722D02*
G01*
X93154264Y-100502882D01*
X93168543Y-100506459D01*
X93182403Y-100511418D01*
X93195710Y-100517712D01*
X93208336Y-100525280D01*
X93220159Y-100534048D01*
X93231066Y-100543934D01*
X93240952Y-100554841D01*
X93249720Y-100566664D01*
X93257288Y-100579290D01*
X93263582Y-100592597D01*
X93268541Y-100606457D01*
X93272118Y-100620736D01*
X93274278Y-100635297D01*
X93275000Y-100650000D01*
X93275000Y-100950000D01*
X93274278Y-100964703D01*
X93272118Y-100979264D01*
X93268541Y-100993543D01*
X93263582Y-101007403D01*
X93257288Y-101020710D01*
X93249720Y-101033336D01*
X93240952Y-101045159D01*
X93231066Y-101056066D01*
X93220159Y-101065952D01*
X93208336Y-101074720D01*
X93195710Y-101082288D01*
X93182403Y-101088582D01*
X93168543Y-101093541D01*
X93154264Y-101097118D01*
X93139703Y-101099278D01*
X93125000Y-101100000D01*
X91875000Y-101100000D01*
X91860297Y-101099278D01*
X91845736Y-101097118D01*
X91831457Y-101093541D01*
X91817597Y-101088582D01*
X91804290Y-101082288D01*
X91791664Y-101074720D01*
X91779841Y-101065952D01*
X91768934Y-101056066D01*
X91759048Y-101045159D01*
X91750280Y-101033336D01*
X91742712Y-101020710D01*
X91736418Y-101007403D01*
X91731459Y-100993543D01*
X91727882Y-100979264D01*
X91725722Y-100964703D01*
X91725000Y-100950000D01*
X91725000Y-100650000D01*
X91725722Y-100635297D01*
X91727882Y-100620736D01*
X91731459Y-100606457D01*
X91736418Y-100592597D01*
X91742712Y-100579290D01*
X91750280Y-100566664D01*
X91759048Y-100554841D01*
X91768934Y-100543934D01*
X91779841Y-100534048D01*
X91791664Y-100525280D01*
X91804290Y-100517712D01*
X91817597Y-100511418D01*
X91831457Y-100506459D01*
X91845736Y-100502882D01*
X91860297Y-100500722D01*
X91875000Y-100500000D01*
X93125000Y-100500000D01*
X93139703Y-100500722D01*
G37*
%TD*%
%TO.C,C15*%
G36*
X95177691Y-99551053D02*
G01*
X95198926Y-99554203D01*
X95219750Y-99559419D01*
X95239962Y-99566651D01*
X95259368Y-99575830D01*
X95277781Y-99586866D01*
X95295024Y-99599654D01*
X95310930Y-99614070D01*
X95325346Y-99629976D01*
X95338134Y-99647219D01*
X95349170Y-99665632D01*
X95358349Y-99685038D01*
X95365581Y-99705250D01*
X95370797Y-99726074D01*
X95373947Y-99747309D01*
X95375000Y-99768750D01*
X95375000Y-100206250D01*
X95373947Y-100227691D01*
X95370797Y-100248926D01*
X95365581Y-100269750D01*
X95358349Y-100289962D01*
X95349170Y-100309368D01*
X95338134Y-100327781D01*
X95325346Y-100345024D01*
X95310930Y-100360930D01*
X95295024Y-100375346D01*
X95277781Y-100388134D01*
X95259368Y-100399170D01*
X95239962Y-100408349D01*
X95219750Y-100415581D01*
X95198926Y-100420797D01*
X95177691Y-100423947D01*
X95156250Y-100425000D01*
X94643750Y-100425000D01*
X94622309Y-100423947D01*
X94601074Y-100420797D01*
X94580250Y-100415581D01*
X94560038Y-100408349D01*
X94540632Y-100399170D01*
X94522219Y-100388134D01*
X94504976Y-100375346D01*
X94489070Y-100360930D01*
X94474654Y-100345024D01*
X94461866Y-100327781D01*
X94450830Y-100309368D01*
X94441651Y-100289962D01*
X94434419Y-100269750D01*
X94429203Y-100248926D01*
X94426053Y-100227691D01*
X94425000Y-100206250D01*
X94425000Y-99768750D01*
X94426053Y-99747309D01*
X94429203Y-99726074D01*
X94434419Y-99705250D01*
X94441651Y-99685038D01*
X94450830Y-99665632D01*
X94461866Y-99647219D01*
X94474654Y-99629976D01*
X94489070Y-99614070D01*
X94504976Y-99599654D01*
X94522219Y-99586866D01*
X94540632Y-99575830D01*
X94560038Y-99566651D01*
X94580250Y-99559419D01*
X94601074Y-99554203D01*
X94622309Y-99551053D01*
X94643750Y-99550000D01*
X95156250Y-99550000D01*
X95177691Y-99551053D01*
G37*
G36*
X95177691Y-97976053D02*
G01*
X95198926Y-97979203D01*
X95219750Y-97984419D01*
X95239962Y-97991651D01*
X95259368Y-98000830D01*
X95277781Y-98011866D01*
X95295024Y-98024654D01*
X95310930Y-98039070D01*
X95325346Y-98054976D01*
X95338134Y-98072219D01*
X95349170Y-98090632D01*
X95358349Y-98110038D01*
X95365581Y-98130250D01*
X95370797Y-98151074D01*
X95373947Y-98172309D01*
X95375000Y-98193750D01*
X95375000Y-98631250D01*
X95373947Y-98652691D01*
X95370797Y-98673926D01*
X95365581Y-98694750D01*
X95358349Y-98714962D01*
X95349170Y-98734368D01*
X95338134Y-98752781D01*
X95325346Y-98770024D01*
X95310930Y-98785930D01*
X95295024Y-98800346D01*
X95277781Y-98813134D01*
X95259368Y-98824170D01*
X95239962Y-98833349D01*
X95219750Y-98840581D01*
X95198926Y-98845797D01*
X95177691Y-98848947D01*
X95156250Y-98850000D01*
X94643750Y-98850000D01*
X94622309Y-98848947D01*
X94601074Y-98845797D01*
X94580250Y-98840581D01*
X94560038Y-98833349D01*
X94540632Y-98824170D01*
X94522219Y-98813134D01*
X94504976Y-98800346D01*
X94489070Y-98785930D01*
X94474654Y-98770024D01*
X94461866Y-98752781D01*
X94450830Y-98734368D01*
X94441651Y-98714962D01*
X94434419Y-98694750D01*
X94429203Y-98673926D01*
X94426053Y-98652691D01*
X94425000Y-98631250D01*
X94425000Y-98193750D01*
X94426053Y-98172309D01*
X94429203Y-98151074D01*
X94434419Y-98130250D01*
X94441651Y-98110038D01*
X94450830Y-98090632D01*
X94461866Y-98072219D01*
X94474654Y-98054976D01*
X94489070Y-98039070D01*
X94504976Y-98024654D01*
X94522219Y-98011866D01*
X94540632Y-98000830D01*
X94560038Y-97991651D01*
X94580250Y-97984419D01*
X94601074Y-97979203D01*
X94622309Y-97976053D01*
X94643750Y-97975000D01*
X95156250Y-97975000D01*
X95177691Y-97976053D01*
G37*
%TD*%
M02*
