%TF.GenerationSoftware,KiCad,Pcbnew,(5.1.5)-3*%
%TF.CreationDate,2021-01-24T02:28:12+08:00*%
%TF.ProjectId,STM32_FOC,53544d33-325f-4464-9f43-2e6b69636164,rev?*%
%TF.SameCoordinates,Original*%
%TF.FileFunction,Legend,Top*%
%TF.FilePolarity,Positive*%
%FSLAX46Y46*%
G04 Gerber Fmt 4.6, Leading zero omitted, Abs format (unit mm)*
G04 Created by KiCad (PCBNEW (5.1.5)-3) date 2021-01-24 02:28:12*
%MOMM*%
%LPD*%
G04 APERTURE LIST*
%ADD10C,0.066040*%
%ADD11C,0.203200*%
%ADD12C,0.101600*%
%ADD13C,0.100000*%
%ADD14C,0.120000*%
%ADD15R,0.406800X1.341520*%
%ADD16R,5.301380X3.200800*%
%ADD17R,0.502000X1.902000*%
%ADD18R,0.502000X1.702000*%
%ADD19R,1.162000X0.752000*%
%ADD20C,1.802000*%
G04 APERTURE END LIST*
D10*
%TO.C,U4*%
X95604380Y-108370920D02*
X95807580Y-108370920D01*
X96254620Y-108370920D02*
X96457820Y-108370920D01*
X96904860Y-108370920D02*
X97108060Y-108370920D01*
X98205340Y-108370920D02*
X98408540Y-108370920D01*
X98855580Y-108370920D02*
X99058780Y-108370920D01*
X99505820Y-108370920D02*
X99709020Y-108370920D01*
X100150980Y-108370920D02*
X100354180Y-108370920D01*
X100801220Y-108370920D02*
X101004420Y-108370920D01*
X101451460Y-108370920D02*
X101654660Y-108370920D01*
X102101700Y-108370920D02*
X102304900Y-108370920D01*
X102751940Y-108370920D02*
X102955140Y-108370920D01*
X103402180Y-108370920D02*
X103605380Y-108370920D01*
X104052420Y-108370920D02*
X104255620Y-108370920D01*
X104052420Y-103809080D02*
X104255620Y-103809080D01*
X103402180Y-103809080D02*
X103605380Y-103809080D01*
X102751940Y-103809080D02*
X102955140Y-103809080D01*
X102101700Y-103809080D02*
X102304900Y-103809080D01*
X101451460Y-103809080D02*
X101654660Y-103809080D01*
X100801220Y-103809080D02*
X101004420Y-103809080D01*
X100150980Y-103809080D02*
X100354180Y-103809080D01*
X99505820Y-103809080D02*
X99709020Y-103809080D01*
X98855580Y-103809080D02*
X99058780Y-103809080D01*
X98205340Y-103809080D02*
X98408540Y-103809080D01*
X97555100Y-103809080D02*
X97758300Y-103809080D01*
X96904860Y-103809080D02*
X97108060Y-103809080D01*
X96254620Y-103809080D02*
X96457820Y-103809080D01*
X95604380Y-103809080D02*
X95807580Y-103809080D01*
D11*
X95030340Y-108370920D02*
X104829660Y-108370920D01*
X104829660Y-103842100D02*
X104829660Y-108337900D01*
X104829660Y-103809080D02*
X95030340Y-103809080D01*
X95030340Y-108337900D02*
X95030340Y-103842100D01*
D12*
X96709989Y-107309200D02*
G75*
G03X96709989Y-107309200I-323289J0D01*
G01*
D13*
%TO.C,Y1*%
X91467000Y-96060000D02*
G75*
G03X91467000Y-96060000I-127000J0D01*
G01*
D14*
%TO.C,J4*%
X89685000Y-96890000D02*
X92185000Y-96890000D01*
X92185000Y-96890000D02*
X92185000Y-97940000D01*
X92185000Y-97940000D02*
X93175000Y-97940000D01*
X89685000Y-103110000D02*
X92185000Y-103110000D01*
X92185000Y-103110000D02*
X92185000Y-102060000D01*
X87715000Y-98060000D02*
X87715000Y-101940000D01*
%TO.C,U2*%
X105690000Y-93280000D02*
X108140000Y-93280000D01*
X107490000Y-90060000D02*
X105690000Y-90060000D01*
%TO.C,U1*%
X103390000Y-100120000D02*
X103840000Y-100120000D01*
X103840000Y-100120000D02*
X103840000Y-99670000D01*
X97070000Y-100120000D02*
X96620000Y-100120000D01*
X96620000Y-100120000D02*
X96620000Y-99670000D01*
X103390000Y-92900000D02*
X103840000Y-92900000D01*
X103840000Y-92900000D02*
X103840000Y-93350000D01*
X97070000Y-92900000D02*
X96620000Y-92900000D01*
X96620000Y-92900000D02*
X96620000Y-93350000D01*
X96620000Y-93350000D02*
X95330000Y-93350000D01*
%TO.C,R10*%
X105035000Y-102907221D02*
X105035000Y-103232779D01*
X106055000Y-102907221D02*
X106055000Y-103232779D01*
%TO.C,R6*%
X110433062Y-94185971D02*
X110270283Y-93904029D01*
X109549717Y-94695971D02*
X109386938Y-94414029D01*
%TO.C,R5*%
X112051010Y-97141993D02*
X111913424Y-96846937D01*
X111126576Y-97573063D02*
X110988990Y-97278007D01*
%TO.C,R4*%
X104432221Y-89905000D02*
X104757779Y-89905000D01*
X104432221Y-88885000D02*
X104757779Y-88885000D01*
%TO.C,R3*%
X102830000Y-89457779D02*
X102830000Y-89132221D01*
X101810000Y-89457779D02*
X101810000Y-89132221D01*
%TO.C,R2*%
X91965727Y-91735522D02*
X91735522Y-91965727D01*
X91244478Y-91014273D02*
X91014273Y-91244478D01*
%TO.C,R1*%
X96206937Y-88101576D02*
X96501993Y-87963990D01*
X96638007Y-89026010D02*
X96933063Y-88888424D01*
%TO.C,D2*%
X93076452Y-91299029D02*
X95055320Y-90156529D01*
X92341452Y-90025971D02*
X93076452Y-91299029D01*
X94320320Y-88883471D02*
X92341452Y-90025971D01*
%TO.C,C19*%
X107605000Y-102507779D02*
X107605000Y-102182221D01*
X106585000Y-102507779D02*
X106585000Y-102182221D01*
%TO.C,C17*%
X97008255Y-110509482D02*
X97328867Y-110566014D01*
X96831133Y-111513986D02*
X97151745Y-111570518D01*
%TO.C,C16*%
X106260000Y-107337221D02*
X106260000Y-107662779D01*
X105240000Y-107337221D02*
X105240000Y-107662779D01*
%TO.C,C13*%
X93831468Y-109595083D02*
X94137392Y-109706430D01*
X93482608Y-110553570D02*
X93788532Y-110664917D01*
%TO.C,C8*%
X96707221Y-90230000D02*
X97032779Y-90230000D01*
X96707221Y-91250000D02*
X97032779Y-91250000D01*
%TO.C,C6*%
X103585000Y-91532221D02*
X103585000Y-91857779D01*
X104605000Y-91532221D02*
X104605000Y-91857779D01*
%TO.C,C5*%
X104882221Y-100210000D02*
X105207779Y-100210000D01*
X104882221Y-101230000D02*
X105207779Y-101230000D01*
%TO.C,C4*%
X92832779Y-92685000D02*
X92507221Y-92685000D01*
X92832779Y-93705000D02*
X92507221Y-93705000D01*
%TO.C,C3*%
X94800000Y-98512779D02*
X94800000Y-98187221D01*
X93780000Y-98512779D02*
X93780000Y-98187221D01*
%TO.C,C2*%
X95532221Y-91710000D02*
X95857779Y-91710000D01*
X95532221Y-92730000D02*
X95857779Y-92730000D01*
%TO.C,C1*%
X90205734Y-94468331D02*
X90262266Y-94147719D01*
X89201230Y-94291209D02*
X89257762Y-93970597D01*
%TO.C,U4*%
D13*
X95826190Y-106050952D02*
X96230952Y-106050952D01*
X96278571Y-106027142D01*
X96302380Y-106003333D01*
X96326190Y-105955714D01*
X96326190Y-105860476D01*
X96302380Y-105812857D01*
X96278571Y-105789047D01*
X96230952Y-105765238D01*
X95826190Y-105765238D01*
X95992857Y-105312857D02*
X96326190Y-105312857D01*
X95802380Y-105431904D02*
X96159523Y-105550952D01*
X96159523Y-105241428D01*
%TO.C,J4*%
X89766190Y-100276666D02*
X90123333Y-100276666D01*
X90194761Y-100300476D01*
X90242380Y-100348095D01*
X90266190Y-100419523D01*
X90266190Y-100467142D01*
X89932857Y-99824285D02*
X90266190Y-99824285D01*
X89742380Y-99943333D02*
X90099523Y-100062380D01*
X90099523Y-99752857D01*
%TO.C,U2*%
X106209047Y-91396190D02*
X106209047Y-91800952D01*
X106232857Y-91848571D01*
X106256666Y-91872380D01*
X106304285Y-91896190D01*
X106399523Y-91896190D01*
X106447142Y-91872380D01*
X106470952Y-91848571D01*
X106494761Y-91800952D01*
X106494761Y-91396190D01*
X106709047Y-91443809D02*
X106732857Y-91420000D01*
X106780476Y-91396190D01*
X106899523Y-91396190D01*
X106947142Y-91420000D01*
X106970952Y-91443809D01*
X106994761Y-91491428D01*
X106994761Y-91539047D01*
X106970952Y-91610476D01*
X106685238Y-91896190D01*
X106994761Y-91896190D01*
%TO.C,U1*%
X99739047Y-94186190D02*
X99739047Y-94590952D01*
X99762857Y-94638571D01*
X99786666Y-94662380D01*
X99834285Y-94686190D01*
X99929523Y-94686190D01*
X99977142Y-94662380D01*
X100000952Y-94638571D01*
X100024761Y-94590952D01*
X100024761Y-94186190D01*
X100524761Y-94686190D02*
X100239047Y-94686190D01*
X100381904Y-94686190D02*
X100381904Y-94186190D01*
X100334285Y-94257619D01*
X100286666Y-94305238D01*
X100239047Y-94329047D01*
%TO.C,R10*%
X105373571Y-104996190D02*
X105206904Y-104758095D01*
X105087857Y-104996190D02*
X105087857Y-104496190D01*
X105278333Y-104496190D01*
X105325952Y-104520000D01*
X105349761Y-104543809D01*
X105373571Y-104591428D01*
X105373571Y-104662857D01*
X105349761Y-104710476D01*
X105325952Y-104734285D01*
X105278333Y-104758095D01*
X105087857Y-104758095D01*
X105849761Y-104996190D02*
X105564047Y-104996190D01*
X105706904Y-104996190D02*
X105706904Y-104496190D01*
X105659285Y-104567619D01*
X105611666Y-104615238D01*
X105564047Y-104639047D01*
X106159285Y-104496190D02*
X106206904Y-104496190D01*
X106254523Y-104520000D01*
X106278333Y-104543809D01*
X106302142Y-104591428D01*
X106325952Y-104686666D01*
X106325952Y-104805714D01*
X106302142Y-104900952D01*
X106278333Y-104948571D01*
X106254523Y-104972380D01*
X106206904Y-104996190D01*
X106159285Y-104996190D01*
X106111666Y-104972380D01*
X106087857Y-104948571D01*
X106064047Y-104900952D01*
X106040238Y-104805714D01*
X106040238Y-104686666D01*
X106064047Y-104591428D01*
X106087857Y-104543809D01*
X106111666Y-104520000D01*
X106159285Y-104496190D01*
%TO.C,R6*%
X108460926Y-94707553D02*
X108197541Y-94584690D01*
X108213490Y-94850410D02*
X107963490Y-94417397D01*
X108128447Y-94322159D01*
X108181591Y-94318969D01*
X108214116Y-94327684D01*
X108258545Y-94357019D01*
X108294259Y-94418878D01*
X108297449Y-94472022D01*
X108288734Y-94504546D01*
X108259400Y-94548975D01*
X108094443Y-94644213D01*
X108582080Y-94060254D02*
X108499601Y-94107873D01*
X108470267Y-94152303D01*
X108461552Y-94184827D01*
X108456027Y-94270496D01*
X108483026Y-94364879D01*
X108578264Y-94529836D01*
X108622693Y-94559171D01*
X108655218Y-94567886D01*
X108708362Y-94564696D01*
X108790840Y-94517077D01*
X108820175Y-94472647D01*
X108828890Y-94440123D01*
X108825700Y-94386979D01*
X108766176Y-94283881D01*
X108721747Y-94254546D01*
X108689223Y-94245831D01*
X108636078Y-94249021D01*
X108553600Y-94296640D01*
X108524265Y-94341069D01*
X108515550Y-94373594D01*
X108518740Y-94426738D01*
%TO.C,R5*%
X110300558Y-97964142D02*
X110048883Y-97818791D01*
X110041613Y-98084890D02*
X109830304Y-97631736D01*
X110002934Y-97551237D01*
X110056154Y-97552691D01*
X110087795Y-97564208D01*
X110129498Y-97597303D01*
X110159685Y-97662039D01*
X110158231Y-97715259D01*
X110146715Y-97746900D01*
X110113620Y-97788604D01*
X109940990Y-97869102D01*
X110499245Y-97319804D02*
X110283458Y-97420427D01*
X110362502Y-97646277D01*
X110374019Y-97614636D01*
X110407114Y-97572932D01*
X110515008Y-97522621D01*
X110568228Y-97524075D01*
X110599869Y-97535591D01*
X110641572Y-97568686D01*
X110691884Y-97676580D01*
X110690430Y-97729800D01*
X110678913Y-97761441D01*
X110645818Y-97803144D01*
X110537924Y-97853456D01*
X110484705Y-97852002D01*
X110453063Y-97840486D01*
%TO.C,R4*%
X104436666Y-88646190D02*
X104270000Y-88408095D01*
X104150952Y-88646190D02*
X104150952Y-88146190D01*
X104341428Y-88146190D01*
X104389047Y-88170000D01*
X104412857Y-88193809D01*
X104436666Y-88241428D01*
X104436666Y-88312857D01*
X104412857Y-88360476D01*
X104389047Y-88384285D01*
X104341428Y-88408095D01*
X104150952Y-88408095D01*
X104865238Y-88312857D02*
X104865238Y-88646190D01*
X104746190Y-88122380D02*
X104627142Y-88479523D01*
X104936666Y-88479523D01*
%TO.C,R3*%
X102186666Y-87721190D02*
X102020000Y-87483095D01*
X101900952Y-87721190D02*
X101900952Y-87221190D01*
X102091428Y-87221190D01*
X102139047Y-87245000D01*
X102162857Y-87268809D01*
X102186666Y-87316428D01*
X102186666Y-87387857D01*
X102162857Y-87435476D01*
X102139047Y-87459285D01*
X102091428Y-87483095D01*
X101900952Y-87483095D01*
X102353333Y-87221190D02*
X102662857Y-87221190D01*
X102496190Y-87411666D01*
X102567619Y-87411666D01*
X102615238Y-87435476D01*
X102639047Y-87459285D01*
X102662857Y-87506904D01*
X102662857Y-87625952D01*
X102639047Y-87673571D01*
X102615238Y-87697380D01*
X102567619Y-87721190D01*
X102424761Y-87721190D01*
X102377142Y-87697380D01*
X102353333Y-87673571D01*
%TO.C,R2*%
X90971015Y-91188866D02*
X90684805Y-91138358D01*
X90768984Y-91390896D02*
X90415431Y-91037343D01*
X90550118Y-90902656D01*
X90600625Y-90885820D01*
X90634297Y-90885820D01*
X90684805Y-90902656D01*
X90735312Y-90953164D01*
X90752148Y-91003671D01*
X90752148Y-91037343D01*
X90735312Y-91087851D01*
X90600625Y-91222538D01*
X90785820Y-90734297D02*
X90785820Y-90700625D01*
X90802656Y-90650118D01*
X90886835Y-90565938D01*
X90937343Y-90549103D01*
X90971015Y-90549103D01*
X91021522Y-90565938D01*
X91055194Y-90599610D01*
X91088866Y-90666954D01*
X91088866Y-91071015D01*
X91307732Y-90852148D01*
%TO.C,R1*%
X96190066Y-87985216D02*
X95938391Y-87839865D01*
X95931121Y-88105964D02*
X95719812Y-87652810D01*
X95892442Y-87572311D01*
X95945662Y-87573765D01*
X95977303Y-87585282D01*
X96019006Y-87618377D01*
X96049193Y-87683113D01*
X96047739Y-87736333D01*
X96036223Y-87767974D01*
X96003128Y-87809678D01*
X95830498Y-87890176D01*
X96621641Y-87783969D02*
X96362696Y-87904717D01*
X96492169Y-87844343D02*
X96280860Y-87391189D01*
X96267889Y-87476050D01*
X96244856Y-87539332D01*
X96211761Y-87581036D01*
%TO.C,D2*%
X93188490Y-89325410D02*
X92938490Y-88892397D01*
X93041588Y-88832873D01*
X93115352Y-88817779D01*
X93180401Y-88835209D01*
X93224830Y-88864543D01*
X93293069Y-88935117D01*
X93328783Y-88996976D01*
X93355782Y-89091359D01*
X93358972Y-89144503D01*
X93341543Y-89209552D01*
X93291588Y-89265886D01*
X93188490Y-89325410D01*
X93374693Y-88695541D02*
X93383408Y-88663017D01*
X93412742Y-88618588D01*
X93515840Y-88559064D01*
X93568984Y-88555874D01*
X93601509Y-88564589D01*
X93645938Y-88593924D01*
X93669748Y-88635163D01*
X93684842Y-88708927D01*
X93580264Y-89099220D01*
X93848319Y-88944458D01*
%TO.C,C19*%
X108148571Y-102548571D02*
X108124761Y-102572380D01*
X108053333Y-102596190D01*
X108005714Y-102596190D01*
X107934285Y-102572380D01*
X107886666Y-102524761D01*
X107862857Y-102477142D01*
X107839047Y-102381904D01*
X107839047Y-102310476D01*
X107862857Y-102215238D01*
X107886666Y-102167619D01*
X107934285Y-102120000D01*
X108005714Y-102096190D01*
X108053333Y-102096190D01*
X108124761Y-102120000D01*
X108148571Y-102143809D01*
X108624761Y-102596190D02*
X108339047Y-102596190D01*
X108481904Y-102596190D02*
X108481904Y-102096190D01*
X108434285Y-102167619D01*
X108386666Y-102215238D01*
X108339047Y-102239047D01*
X108862857Y-102596190D02*
X108958095Y-102596190D01*
X109005714Y-102572380D01*
X109029523Y-102548571D01*
X109077142Y-102477142D01*
X109100952Y-102381904D01*
X109100952Y-102191428D01*
X109077142Y-102143809D01*
X109053333Y-102120000D01*
X109005714Y-102096190D01*
X108910476Y-102096190D01*
X108862857Y-102120000D01*
X108839047Y-102143809D01*
X108815238Y-102191428D01*
X108815238Y-102310476D01*
X108839047Y-102358095D01*
X108862857Y-102381904D01*
X108910476Y-102405714D01*
X109005714Y-102405714D01*
X109053333Y-102381904D01*
X109077142Y-102358095D01*
X109100952Y-102310476D01*
%TO.C,C17*%
X96497446Y-112340043D02*
X96469863Y-112359356D01*
X96395385Y-112370400D01*
X96348490Y-112362131D01*
X96282281Y-112326280D01*
X96243654Y-112271115D01*
X96228475Y-112220085D01*
X96221565Y-112122160D01*
X96233969Y-112051816D01*
X96273955Y-111962160D01*
X96305671Y-111919398D01*
X96360836Y-111880772D01*
X96435314Y-111869727D01*
X96482209Y-111877996D01*
X96548418Y-111913848D01*
X96567732Y-111941430D01*
X96958133Y-112469628D02*
X96676759Y-112420014D01*
X96817446Y-112444821D02*
X96904270Y-111952417D01*
X96844971Y-112014491D01*
X96789806Y-112053118D01*
X96738776Y-112068297D01*
X97209091Y-112006165D02*
X97537361Y-112064048D01*
X97239506Y-112519242D01*
%TO.C,C16*%
X107048571Y-107766428D02*
X107072380Y-107790238D01*
X107096190Y-107861666D01*
X107096190Y-107909285D01*
X107072380Y-107980714D01*
X107024761Y-108028333D01*
X106977142Y-108052142D01*
X106881904Y-108075952D01*
X106810476Y-108075952D01*
X106715238Y-108052142D01*
X106667619Y-108028333D01*
X106620000Y-107980714D01*
X106596190Y-107909285D01*
X106596190Y-107861666D01*
X106620000Y-107790238D01*
X106643809Y-107766428D01*
X107096190Y-107290238D02*
X107096190Y-107575952D01*
X107096190Y-107433095D02*
X106596190Y-107433095D01*
X106667619Y-107480714D01*
X106715238Y-107528333D01*
X106739047Y-107575952D01*
X106596190Y-106861666D02*
X106596190Y-106956904D01*
X106620000Y-107004523D01*
X106643809Y-107028333D01*
X106715238Y-107075952D01*
X106810476Y-107099761D01*
X107000952Y-107099761D01*
X107048571Y-107075952D01*
X107072380Y-107052142D01*
X107096190Y-107004523D01*
X107096190Y-106909285D01*
X107072380Y-106861666D01*
X107048571Y-106837857D01*
X107000952Y-106814047D01*
X106881904Y-106814047D01*
X106834285Y-106837857D01*
X106810476Y-106861666D01*
X106786666Y-106909285D01*
X106786666Y-107004523D01*
X106810476Y-107052142D01*
X106834285Y-107075952D01*
X106881904Y-107099761D01*
%TO.C,C13*%
X93156880Y-111077867D02*
X93126363Y-111092097D01*
X93051099Y-111090041D01*
X93006352Y-111073754D01*
X92947374Y-111026950D01*
X92918914Y-110965916D01*
X92912827Y-110913026D01*
X92923027Y-110815388D01*
X92947457Y-110748267D01*
X93002404Y-110666916D01*
X93041064Y-110630312D01*
X93102098Y-110601851D01*
X93177362Y-110603908D01*
X93222109Y-110620194D01*
X93281087Y-110666998D01*
X93295317Y-110697515D01*
X93588066Y-111285481D02*
X93319583Y-111187761D01*
X93453825Y-111236621D02*
X93624835Y-110766774D01*
X93555657Y-110817609D01*
X93494623Y-110846069D01*
X93441733Y-110852156D01*
X93915692Y-110872638D02*
X94206549Y-110978501D01*
X93984787Y-111100487D01*
X94051908Y-111124917D01*
X94088512Y-111163577D01*
X94102742Y-111194094D01*
X94108829Y-111246985D01*
X94068112Y-111358853D01*
X94029452Y-111395457D01*
X93998935Y-111409687D01*
X93946045Y-111415774D01*
X93811803Y-111366914D01*
X93775199Y-111328254D01*
X93760969Y-111297737D01*
%TO.C,C8*%
X97911666Y-89798571D02*
X97887857Y-89822380D01*
X97816428Y-89846190D01*
X97768809Y-89846190D01*
X97697380Y-89822380D01*
X97649761Y-89774761D01*
X97625952Y-89727142D01*
X97602142Y-89631904D01*
X97602142Y-89560476D01*
X97625952Y-89465238D01*
X97649761Y-89417619D01*
X97697380Y-89370000D01*
X97768809Y-89346190D01*
X97816428Y-89346190D01*
X97887857Y-89370000D01*
X97911666Y-89393809D01*
X98197380Y-89560476D02*
X98149761Y-89536666D01*
X98125952Y-89512857D01*
X98102142Y-89465238D01*
X98102142Y-89441428D01*
X98125952Y-89393809D01*
X98149761Y-89370000D01*
X98197380Y-89346190D01*
X98292619Y-89346190D01*
X98340238Y-89370000D01*
X98364047Y-89393809D01*
X98387857Y-89441428D01*
X98387857Y-89465238D01*
X98364047Y-89512857D01*
X98340238Y-89536666D01*
X98292619Y-89560476D01*
X98197380Y-89560476D01*
X98149761Y-89584285D01*
X98125952Y-89608095D01*
X98102142Y-89655714D01*
X98102142Y-89750952D01*
X98125952Y-89798571D01*
X98149761Y-89822380D01*
X98197380Y-89846190D01*
X98292619Y-89846190D01*
X98340238Y-89822380D01*
X98364047Y-89798571D01*
X98387857Y-89750952D01*
X98387857Y-89655714D01*
X98364047Y-89608095D01*
X98340238Y-89584285D01*
X98292619Y-89560476D01*
%TO.C,C6*%
X104273571Y-91753333D02*
X104297380Y-91777142D01*
X104321190Y-91848571D01*
X104321190Y-91896190D01*
X104297380Y-91967619D01*
X104249761Y-92015238D01*
X104202142Y-92039047D01*
X104106904Y-92062857D01*
X104035476Y-92062857D01*
X103940238Y-92039047D01*
X103892619Y-92015238D01*
X103845000Y-91967619D01*
X103821190Y-91896190D01*
X103821190Y-91848571D01*
X103845000Y-91777142D01*
X103868809Y-91753333D01*
X103821190Y-91324761D02*
X103821190Y-91420000D01*
X103845000Y-91467619D01*
X103868809Y-91491428D01*
X103940238Y-91539047D01*
X104035476Y-91562857D01*
X104225952Y-91562857D01*
X104273571Y-91539047D01*
X104297380Y-91515238D01*
X104321190Y-91467619D01*
X104321190Y-91372380D01*
X104297380Y-91324761D01*
X104273571Y-91300952D01*
X104225952Y-91277142D01*
X104106904Y-91277142D01*
X104059285Y-91300952D01*
X104035476Y-91324761D01*
X104011666Y-91372380D01*
X104011666Y-91467619D01*
X104035476Y-91515238D01*
X104059285Y-91539047D01*
X104106904Y-91562857D01*
%TO.C,C5*%
X104911666Y-100198571D02*
X104887857Y-100222380D01*
X104816428Y-100246190D01*
X104768809Y-100246190D01*
X104697380Y-100222380D01*
X104649761Y-100174761D01*
X104625952Y-100127142D01*
X104602142Y-100031904D01*
X104602142Y-99960476D01*
X104625952Y-99865238D01*
X104649761Y-99817619D01*
X104697380Y-99770000D01*
X104768809Y-99746190D01*
X104816428Y-99746190D01*
X104887857Y-99770000D01*
X104911666Y-99793809D01*
X105364047Y-99746190D02*
X105125952Y-99746190D01*
X105102142Y-99984285D01*
X105125952Y-99960476D01*
X105173571Y-99936666D01*
X105292619Y-99936666D01*
X105340238Y-99960476D01*
X105364047Y-99984285D01*
X105387857Y-100031904D01*
X105387857Y-100150952D01*
X105364047Y-100198571D01*
X105340238Y-100222380D01*
X105292619Y-100246190D01*
X105173571Y-100246190D01*
X105125952Y-100222380D01*
X105102142Y-100198571D01*
%TO.C,C4*%
X92586666Y-92423571D02*
X92562857Y-92447380D01*
X92491428Y-92471190D01*
X92443809Y-92471190D01*
X92372380Y-92447380D01*
X92324761Y-92399761D01*
X92300952Y-92352142D01*
X92277142Y-92256904D01*
X92277142Y-92185476D01*
X92300952Y-92090238D01*
X92324761Y-92042619D01*
X92372380Y-91995000D01*
X92443809Y-91971190D01*
X92491428Y-91971190D01*
X92562857Y-91995000D01*
X92586666Y-92018809D01*
X93015238Y-92137857D02*
X93015238Y-92471190D01*
X92896190Y-91947380D02*
X92777142Y-92304523D01*
X93086666Y-92304523D01*
%TO.C,C3*%
X94236666Y-100498571D02*
X94212857Y-100522380D01*
X94141428Y-100546190D01*
X94093809Y-100546190D01*
X94022380Y-100522380D01*
X93974761Y-100474761D01*
X93950952Y-100427142D01*
X93927142Y-100331904D01*
X93927142Y-100260476D01*
X93950952Y-100165238D01*
X93974761Y-100117619D01*
X94022380Y-100070000D01*
X94093809Y-100046190D01*
X94141428Y-100046190D01*
X94212857Y-100070000D01*
X94236666Y-100093809D01*
X94403333Y-100046190D02*
X94712857Y-100046190D01*
X94546190Y-100236666D01*
X94617619Y-100236666D01*
X94665238Y-100260476D01*
X94689047Y-100284285D01*
X94712857Y-100331904D01*
X94712857Y-100450952D01*
X94689047Y-100498571D01*
X94665238Y-100522380D01*
X94617619Y-100546190D01*
X94474761Y-100546190D01*
X94427142Y-100522380D01*
X94403333Y-100498571D01*
%TO.C,C2*%
X94436666Y-91323571D02*
X94412857Y-91347380D01*
X94341428Y-91371190D01*
X94293809Y-91371190D01*
X94222380Y-91347380D01*
X94174761Y-91299761D01*
X94150952Y-91252142D01*
X94127142Y-91156904D01*
X94127142Y-91085476D01*
X94150952Y-90990238D01*
X94174761Y-90942619D01*
X94222380Y-90895000D01*
X94293809Y-90871190D01*
X94341428Y-90871190D01*
X94412857Y-90895000D01*
X94436666Y-90918809D01*
X94627142Y-90918809D02*
X94650952Y-90895000D01*
X94698571Y-90871190D01*
X94817619Y-90871190D01*
X94865238Y-90895000D01*
X94889047Y-90918809D01*
X94912857Y-90966428D01*
X94912857Y-91014047D01*
X94889047Y-91085476D01*
X94603333Y-91371190D01*
X94912857Y-91371190D01*
%TO.C,C1*%
X88831387Y-94283075D02*
X88850701Y-94310658D01*
X88861745Y-94385136D01*
X88853476Y-94432031D01*
X88817625Y-94498240D01*
X88762460Y-94536867D01*
X88711430Y-94552046D01*
X88613504Y-94558956D01*
X88543161Y-94546552D01*
X88453504Y-94506566D01*
X88410743Y-94474850D01*
X88372117Y-94419685D01*
X88361072Y-94345207D01*
X88369341Y-94298312D01*
X88405192Y-94232103D01*
X88432775Y-94212789D01*
X88960973Y-93822388D02*
X88911359Y-94103762D01*
X88936166Y-93963075D02*
X88443762Y-93876251D01*
X88505836Y-93935550D01*
X88544463Y-93990715D01*
X88559642Y-94041745D01*
%TD*%
%LPC*%
D15*
%TO.C,U4*%
X95705980Y-109130380D03*
X96356220Y-109130380D03*
X97006460Y-109130380D03*
X97656700Y-109130380D03*
X98306940Y-109130380D03*
X98957180Y-109130380D03*
X99607420Y-109130380D03*
X100252580Y-109130380D03*
X100902820Y-109130380D03*
X101553060Y-109130380D03*
X102203300Y-109130380D03*
X102853540Y-109130380D03*
X103503780Y-109130380D03*
X104154020Y-109130380D03*
X104154020Y-103049620D03*
X103503780Y-103049620D03*
X102853540Y-103049620D03*
X102203300Y-103049620D03*
X101553060Y-103049620D03*
X100902820Y-103049620D03*
X100252580Y-103049620D03*
X99607420Y-103049620D03*
X98957180Y-103049620D03*
X98306940Y-103049620D03*
X97656700Y-103049620D03*
X97006460Y-103049620D03*
X96356220Y-103049620D03*
X95705980Y-103049620D03*
D16*
X99930000Y-106090000D03*
%TD*%
D17*
%TO.C,Y1*%
X91840000Y-95060000D03*
D18*
X93040000Y-95060000D03*
D17*
X94240000Y-95060000D03*
%TD*%
D13*
%TO.C,J4*%
G36*
X93067702Y-98149845D02*
G01*
X93084738Y-98152372D01*
X93101445Y-98156557D01*
X93117661Y-98162359D01*
X93133230Y-98169723D01*
X93148003Y-98178577D01*
X93161836Y-98188837D01*
X93174597Y-98200403D01*
X93186163Y-98213164D01*
X93196423Y-98226997D01*
X93205277Y-98241770D01*
X93212641Y-98257339D01*
X93218443Y-98273555D01*
X93222628Y-98290262D01*
X93225155Y-98307298D01*
X93226000Y-98324500D01*
X93226000Y-98675500D01*
X93225155Y-98692702D01*
X93222628Y-98709738D01*
X93218443Y-98726445D01*
X93212641Y-98742661D01*
X93205277Y-98758230D01*
X93196423Y-98773003D01*
X93186163Y-98786836D01*
X93174597Y-98799597D01*
X93161836Y-98811163D01*
X93148003Y-98821423D01*
X93133230Y-98830277D01*
X93117661Y-98837641D01*
X93101445Y-98843443D01*
X93084738Y-98847628D01*
X93067702Y-98850155D01*
X93050500Y-98851000D01*
X91749500Y-98851000D01*
X91732298Y-98850155D01*
X91715262Y-98847628D01*
X91698555Y-98843443D01*
X91682339Y-98837641D01*
X91666770Y-98830277D01*
X91651997Y-98821423D01*
X91638164Y-98811163D01*
X91625403Y-98799597D01*
X91613837Y-98786836D01*
X91603577Y-98773003D01*
X91594723Y-98758230D01*
X91587359Y-98742661D01*
X91581557Y-98726445D01*
X91577372Y-98709738D01*
X91574845Y-98692702D01*
X91574000Y-98675500D01*
X91574000Y-98324500D01*
X91574845Y-98307298D01*
X91577372Y-98290262D01*
X91581557Y-98273555D01*
X91587359Y-98257339D01*
X91594723Y-98241770D01*
X91603577Y-98226997D01*
X91613837Y-98213164D01*
X91625403Y-98200403D01*
X91638164Y-98188837D01*
X91651997Y-98178577D01*
X91666770Y-98169723D01*
X91682339Y-98162359D01*
X91698555Y-98156557D01*
X91715262Y-98152372D01*
X91732298Y-98149845D01*
X91749500Y-98149000D01*
X93050500Y-98149000D01*
X93067702Y-98149845D01*
G37*
G36*
X93067702Y-99149845D02*
G01*
X93084738Y-99152372D01*
X93101445Y-99156557D01*
X93117661Y-99162359D01*
X93133230Y-99169723D01*
X93148003Y-99178577D01*
X93161836Y-99188837D01*
X93174597Y-99200403D01*
X93186163Y-99213164D01*
X93196423Y-99226997D01*
X93205277Y-99241770D01*
X93212641Y-99257339D01*
X93218443Y-99273555D01*
X93222628Y-99290262D01*
X93225155Y-99307298D01*
X93226000Y-99324500D01*
X93226000Y-99675500D01*
X93225155Y-99692702D01*
X93222628Y-99709738D01*
X93218443Y-99726445D01*
X93212641Y-99742661D01*
X93205277Y-99758230D01*
X93196423Y-99773003D01*
X93186163Y-99786836D01*
X93174597Y-99799597D01*
X93161836Y-99811163D01*
X93148003Y-99821423D01*
X93133230Y-99830277D01*
X93117661Y-99837641D01*
X93101445Y-99843443D01*
X93084738Y-99847628D01*
X93067702Y-99850155D01*
X93050500Y-99851000D01*
X91749500Y-99851000D01*
X91732298Y-99850155D01*
X91715262Y-99847628D01*
X91698555Y-99843443D01*
X91682339Y-99837641D01*
X91666770Y-99830277D01*
X91651997Y-99821423D01*
X91638164Y-99811163D01*
X91625403Y-99799597D01*
X91613837Y-99786836D01*
X91603577Y-99773003D01*
X91594723Y-99758230D01*
X91587359Y-99742661D01*
X91581557Y-99726445D01*
X91577372Y-99709738D01*
X91574845Y-99692702D01*
X91574000Y-99675500D01*
X91574000Y-99324500D01*
X91574845Y-99307298D01*
X91577372Y-99290262D01*
X91581557Y-99273555D01*
X91587359Y-99257339D01*
X91594723Y-99241770D01*
X91603577Y-99226997D01*
X91613837Y-99213164D01*
X91625403Y-99200403D01*
X91638164Y-99188837D01*
X91651997Y-99178577D01*
X91666770Y-99169723D01*
X91682339Y-99162359D01*
X91698555Y-99156557D01*
X91715262Y-99152372D01*
X91732298Y-99149845D01*
X91749500Y-99149000D01*
X93050500Y-99149000D01*
X93067702Y-99149845D01*
G37*
G36*
X93067702Y-100149845D02*
G01*
X93084738Y-100152372D01*
X93101445Y-100156557D01*
X93117661Y-100162359D01*
X93133230Y-100169723D01*
X93148003Y-100178577D01*
X93161836Y-100188837D01*
X93174597Y-100200403D01*
X93186163Y-100213164D01*
X93196423Y-100226997D01*
X93205277Y-100241770D01*
X93212641Y-100257339D01*
X93218443Y-100273555D01*
X93222628Y-100290262D01*
X93225155Y-100307298D01*
X93226000Y-100324500D01*
X93226000Y-100675500D01*
X93225155Y-100692702D01*
X93222628Y-100709738D01*
X93218443Y-100726445D01*
X93212641Y-100742661D01*
X93205277Y-100758230D01*
X93196423Y-100773003D01*
X93186163Y-100786836D01*
X93174597Y-100799597D01*
X93161836Y-100811163D01*
X93148003Y-100821423D01*
X93133230Y-100830277D01*
X93117661Y-100837641D01*
X93101445Y-100843443D01*
X93084738Y-100847628D01*
X93067702Y-100850155D01*
X93050500Y-100851000D01*
X91749500Y-100851000D01*
X91732298Y-100850155D01*
X91715262Y-100847628D01*
X91698555Y-100843443D01*
X91682339Y-100837641D01*
X91666770Y-100830277D01*
X91651997Y-100821423D01*
X91638164Y-100811163D01*
X91625403Y-100799597D01*
X91613837Y-100786836D01*
X91603577Y-100773003D01*
X91594723Y-100758230D01*
X91587359Y-100742661D01*
X91581557Y-100726445D01*
X91577372Y-100709738D01*
X91574845Y-100692702D01*
X91574000Y-100675500D01*
X91574000Y-100324500D01*
X91574845Y-100307298D01*
X91577372Y-100290262D01*
X91581557Y-100273555D01*
X91587359Y-100257339D01*
X91594723Y-100241770D01*
X91603577Y-100226997D01*
X91613837Y-100213164D01*
X91625403Y-100200403D01*
X91638164Y-100188837D01*
X91651997Y-100178577D01*
X91666770Y-100169723D01*
X91682339Y-100162359D01*
X91698555Y-100156557D01*
X91715262Y-100152372D01*
X91732298Y-100149845D01*
X91749500Y-100149000D01*
X93050500Y-100149000D01*
X93067702Y-100149845D01*
G37*
G36*
X93067702Y-101149845D02*
G01*
X93084738Y-101152372D01*
X93101445Y-101156557D01*
X93117661Y-101162359D01*
X93133230Y-101169723D01*
X93148003Y-101178577D01*
X93161836Y-101188837D01*
X93174597Y-101200403D01*
X93186163Y-101213164D01*
X93196423Y-101226997D01*
X93205277Y-101241770D01*
X93212641Y-101257339D01*
X93218443Y-101273555D01*
X93222628Y-101290262D01*
X93225155Y-101307298D01*
X93226000Y-101324500D01*
X93226000Y-101675500D01*
X93225155Y-101692702D01*
X93222628Y-101709738D01*
X93218443Y-101726445D01*
X93212641Y-101742661D01*
X93205277Y-101758230D01*
X93196423Y-101773003D01*
X93186163Y-101786836D01*
X93174597Y-101799597D01*
X93161836Y-101811163D01*
X93148003Y-101821423D01*
X93133230Y-101830277D01*
X93117661Y-101837641D01*
X93101445Y-101843443D01*
X93084738Y-101847628D01*
X93067702Y-101850155D01*
X93050500Y-101851000D01*
X91749500Y-101851000D01*
X91732298Y-101850155D01*
X91715262Y-101847628D01*
X91698555Y-101843443D01*
X91682339Y-101837641D01*
X91666770Y-101830277D01*
X91651997Y-101821423D01*
X91638164Y-101811163D01*
X91625403Y-101799597D01*
X91613837Y-101786836D01*
X91603577Y-101773003D01*
X91594723Y-101758230D01*
X91587359Y-101742661D01*
X91581557Y-101726445D01*
X91577372Y-101709738D01*
X91574845Y-101692702D01*
X91574000Y-101675500D01*
X91574000Y-101324500D01*
X91574845Y-101307298D01*
X91577372Y-101290262D01*
X91581557Y-101273555D01*
X91587359Y-101257339D01*
X91594723Y-101241770D01*
X91603577Y-101226997D01*
X91613837Y-101213164D01*
X91625403Y-101200403D01*
X91638164Y-101188837D01*
X91651997Y-101178577D01*
X91666770Y-101169723D01*
X91682339Y-101162359D01*
X91698555Y-101156557D01*
X91715262Y-101152372D01*
X91732298Y-101149845D01*
X91749500Y-101149000D01*
X93050500Y-101149000D01*
X93067702Y-101149845D01*
G37*
G36*
X89231338Y-96550306D02*
G01*
X89257669Y-96554212D01*
X89283490Y-96560680D01*
X89308553Y-96569648D01*
X89332617Y-96581029D01*
X89355449Y-96594714D01*
X89376830Y-96610571D01*
X89396553Y-96628447D01*
X89414429Y-96648170D01*
X89430286Y-96669551D01*
X89443971Y-96692383D01*
X89455352Y-96716447D01*
X89464320Y-96741510D01*
X89470788Y-96767331D01*
X89474694Y-96793662D01*
X89476000Y-96820249D01*
X89476000Y-97579751D01*
X89474694Y-97606338D01*
X89470788Y-97632669D01*
X89464320Y-97658490D01*
X89455352Y-97683553D01*
X89443971Y-97707617D01*
X89430286Y-97730449D01*
X89414429Y-97751830D01*
X89396553Y-97771553D01*
X89376830Y-97789429D01*
X89355449Y-97805286D01*
X89332617Y-97818971D01*
X89308553Y-97830352D01*
X89283490Y-97839320D01*
X89257669Y-97845788D01*
X89231338Y-97849694D01*
X89204751Y-97851000D01*
X87845249Y-97851000D01*
X87818662Y-97849694D01*
X87792331Y-97845788D01*
X87766510Y-97839320D01*
X87741447Y-97830352D01*
X87717383Y-97818971D01*
X87694551Y-97805286D01*
X87673170Y-97789429D01*
X87653447Y-97771553D01*
X87635571Y-97751830D01*
X87619714Y-97730449D01*
X87606029Y-97707617D01*
X87594648Y-97683553D01*
X87585680Y-97658490D01*
X87579212Y-97632669D01*
X87575306Y-97606338D01*
X87574000Y-97579751D01*
X87574000Y-96820249D01*
X87575306Y-96793662D01*
X87579212Y-96767331D01*
X87585680Y-96741510D01*
X87594648Y-96716447D01*
X87606029Y-96692383D01*
X87619714Y-96669551D01*
X87635571Y-96648170D01*
X87653447Y-96628447D01*
X87673170Y-96610571D01*
X87694551Y-96594714D01*
X87717383Y-96581029D01*
X87741447Y-96569648D01*
X87766510Y-96560680D01*
X87792331Y-96554212D01*
X87818662Y-96550306D01*
X87845249Y-96549000D01*
X89204751Y-96549000D01*
X89231338Y-96550306D01*
G37*
G36*
X89231338Y-102150306D02*
G01*
X89257669Y-102154212D01*
X89283490Y-102160680D01*
X89308553Y-102169648D01*
X89332617Y-102181029D01*
X89355449Y-102194714D01*
X89376830Y-102210571D01*
X89396553Y-102228447D01*
X89414429Y-102248170D01*
X89430286Y-102269551D01*
X89443971Y-102292383D01*
X89455352Y-102316447D01*
X89464320Y-102341510D01*
X89470788Y-102367331D01*
X89474694Y-102393662D01*
X89476000Y-102420249D01*
X89476000Y-103179751D01*
X89474694Y-103206338D01*
X89470788Y-103232669D01*
X89464320Y-103258490D01*
X89455352Y-103283553D01*
X89443971Y-103307617D01*
X89430286Y-103330449D01*
X89414429Y-103351830D01*
X89396553Y-103371553D01*
X89376830Y-103389429D01*
X89355449Y-103405286D01*
X89332617Y-103418971D01*
X89308553Y-103430352D01*
X89283490Y-103439320D01*
X89257669Y-103445788D01*
X89231338Y-103449694D01*
X89204751Y-103451000D01*
X87845249Y-103451000D01*
X87818662Y-103449694D01*
X87792331Y-103445788D01*
X87766510Y-103439320D01*
X87741447Y-103430352D01*
X87717383Y-103418971D01*
X87694551Y-103405286D01*
X87673170Y-103389429D01*
X87653447Y-103371553D01*
X87635571Y-103351830D01*
X87619714Y-103330449D01*
X87606029Y-103307617D01*
X87594648Y-103283553D01*
X87585680Y-103258490D01*
X87579212Y-103232669D01*
X87575306Y-103206338D01*
X87574000Y-103179751D01*
X87574000Y-102420249D01*
X87575306Y-102393662D01*
X87579212Y-102367331D01*
X87585680Y-102341510D01*
X87594648Y-102316447D01*
X87606029Y-102292383D01*
X87619714Y-102269551D01*
X87635571Y-102248170D01*
X87653447Y-102228447D01*
X87673170Y-102210571D01*
X87694551Y-102194714D01*
X87717383Y-102181029D01*
X87741447Y-102169648D01*
X87766510Y-102160680D01*
X87792331Y-102154212D01*
X87818662Y-102150306D01*
X87845249Y-102149000D01*
X89204751Y-102149000D01*
X89231338Y-102150306D01*
G37*
%TD*%
D19*
%TO.C,U2*%
X105490000Y-91670000D03*
X105490000Y-92620000D03*
X105490000Y-90720000D03*
X107690000Y-90720000D03*
X107690000Y-91670000D03*
X107690000Y-92620000D03*
%TD*%
D13*
%TO.C,U1*%
G36*
X96765351Y-93559484D02*
G01*
X96775107Y-93560931D01*
X96784674Y-93563327D01*
X96793960Y-93566650D01*
X96802875Y-93570867D01*
X96811335Y-93575937D01*
X96819257Y-93581812D01*
X96826564Y-93588436D01*
X96833188Y-93595743D01*
X96839063Y-93603665D01*
X96844133Y-93612125D01*
X96848350Y-93621040D01*
X96851673Y-93630326D01*
X96854069Y-93639893D01*
X96855516Y-93649649D01*
X96856000Y-93659500D01*
X96856000Y-93860500D01*
X96855516Y-93870351D01*
X96854069Y-93880107D01*
X96851673Y-93889674D01*
X96848350Y-93898960D01*
X96844133Y-93907875D01*
X96839063Y-93916335D01*
X96833188Y-93924257D01*
X96826564Y-93931564D01*
X96819257Y-93938188D01*
X96811335Y-93944063D01*
X96802875Y-93949133D01*
X96793960Y-93953350D01*
X96784674Y-93956673D01*
X96775107Y-93959069D01*
X96765351Y-93960516D01*
X96755500Y-93961000D01*
X95379500Y-93961000D01*
X95369649Y-93960516D01*
X95359893Y-93959069D01*
X95350326Y-93956673D01*
X95341040Y-93953350D01*
X95332125Y-93949133D01*
X95323665Y-93944063D01*
X95315743Y-93938188D01*
X95308436Y-93931564D01*
X95301812Y-93924257D01*
X95295937Y-93916335D01*
X95290867Y-93907875D01*
X95286650Y-93898960D01*
X95283327Y-93889674D01*
X95280931Y-93880107D01*
X95279484Y-93870351D01*
X95279000Y-93860500D01*
X95279000Y-93659500D01*
X95279484Y-93649649D01*
X95280931Y-93639893D01*
X95283327Y-93630326D01*
X95286650Y-93621040D01*
X95290867Y-93612125D01*
X95295937Y-93603665D01*
X95301812Y-93595743D01*
X95308436Y-93588436D01*
X95315743Y-93581812D01*
X95323665Y-93575937D01*
X95332125Y-93570867D01*
X95341040Y-93566650D01*
X95350326Y-93563327D01*
X95359893Y-93560931D01*
X95369649Y-93559484D01*
X95379500Y-93559000D01*
X96755500Y-93559000D01*
X96765351Y-93559484D01*
G37*
G36*
X96765351Y-94059484D02*
G01*
X96775107Y-94060931D01*
X96784674Y-94063327D01*
X96793960Y-94066650D01*
X96802875Y-94070867D01*
X96811335Y-94075937D01*
X96819257Y-94081812D01*
X96826564Y-94088436D01*
X96833188Y-94095743D01*
X96839063Y-94103665D01*
X96844133Y-94112125D01*
X96848350Y-94121040D01*
X96851673Y-94130326D01*
X96854069Y-94139893D01*
X96855516Y-94149649D01*
X96856000Y-94159500D01*
X96856000Y-94360500D01*
X96855516Y-94370351D01*
X96854069Y-94380107D01*
X96851673Y-94389674D01*
X96848350Y-94398960D01*
X96844133Y-94407875D01*
X96839063Y-94416335D01*
X96833188Y-94424257D01*
X96826564Y-94431564D01*
X96819257Y-94438188D01*
X96811335Y-94444063D01*
X96802875Y-94449133D01*
X96793960Y-94453350D01*
X96784674Y-94456673D01*
X96775107Y-94459069D01*
X96765351Y-94460516D01*
X96755500Y-94461000D01*
X95379500Y-94461000D01*
X95369649Y-94460516D01*
X95359893Y-94459069D01*
X95350326Y-94456673D01*
X95341040Y-94453350D01*
X95332125Y-94449133D01*
X95323665Y-94444063D01*
X95315743Y-94438188D01*
X95308436Y-94431564D01*
X95301812Y-94424257D01*
X95295937Y-94416335D01*
X95290867Y-94407875D01*
X95286650Y-94398960D01*
X95283327Y-94389674D01*
X95280931Y-94380107D01*
X95279484Y-94370351D01*
X95279000Y-94360500D01*
X95279000Y-94159500D01*
X95279484Y-94149649D01*
X95280931Y-94139893D01*
X95283327Y-94130326D01*
X95286650Y-94121040D01*
X95290867Y-94112125D01*
X95295937Y-94103665D01*
X95301812Y-94095743D01*
X95308436Y-94088436D01*
X95315743Y-94081812D01*
X95323665Y-94075937D01*
X95332125Y-94070867D01*
X95341040Y-94066650D01*
X95350326Y-94063327D01*
X95359893Y-94060931D01*
X95369649Y-94059484D01*
X95379500Y-94059000D01*
X96755500Y-94059000D01*
X96765351Y-94059484D01*
G37*
G36*
X96765351Y-94559484D02*
G01*
X96775107Y-94560931D01*
X96784674Y-94563327D01*
X96793960Y-94566650D01*
X96802875Y-94570867D01*
X96811335Y-94575937D01*
X96819257Y-94581812D01*
X96826564Y-94588436D01*
X96833188Y-94595743D01*
X96839063Y-94603665D01*
X96844133Y-94612125D01*
X96848350Y-94621040D01*
X96851673Y-94630326D01*
X96854069Y-94639893D01*
X96855516Y-94649649D01*
X96856000Y-94659500D01*
X96856000Y-94860500D01*
X96855516Y-94870351D01*
X96854069Y-94880107D01*
X96851673Y-94889674D01*
X96848350Y-94898960D01*
X96844133Y-94907875D01*
X96839063Y-94916335D01*
X96833188Y-94924257D01*
X96826564Y-94931564D01*
X96819257Y-94938188D01*
X96811335Y-94944063D01*
X96802875Y-94949133D01*
X96793960Y-94953350D01*
X96784674Y-94956673D01*
X96775107Y-94959069D01*
X96765351Y-94960516D01*
X96755500Y-94961000D01*
X95379500Y-94961000D01*
X95369649Y-94960516D01*
X95359893Y-94959069D01*
X95350326Y-94956673D01*
X95341040Y-94953350D01*
X95332125Y-94949133D01*
X95323665Y-94944063D01*
X95315743Y-94938188D01*
X95308436Y-94931564D01*
X95301812Y-94924257D01*
X95295937Y-94916335D01*
X95290867Y-94907875D01*
X95286650Y-94898960D01*
X95283327Y-94889674D01*
X95280931Y-94880107D01*
X95279484Y-94870351D01*
X95279000Y-94860500D01*
X95279000Y-94659500D01*
X95279484Y-94649649D01*
X95280931Y-94639893D01*
X95283327Y-94630326D01*
X95286650Y-94621040D01*
X95290867Y-94612125D01*
X95295937Y-94603665D01*
X95301812Y-94595743D01*
X95308436Y-94588436D01*
X95315743Y-94581812D01*
X95323665Y-94575937D01*
X95332125Y-94570867D01*
X95341040Y-94566650D01*
X95350326Y-94563327D01*
X95359893Y-94560931D01*
X95369649Y-94559484D01*
X95379500Y-94559000D01*
X96755500Y-94559000D01*
X96765351Y-94559484D01*
G37*
G36*
X96765351Y-95059484D02*
G01*
X96775107Y-95060931D01*
X96784674Y-95063327D01*
X96793960Y-95066650D01*
X96802875Y-95070867D01*
X96811335Y-95075937D01*
X96819257Y-95081812D01*
X96826564Y-95088436D01*
X96833188Y-95095743D01*
X96839063Y-95103665D01*
X96844133Y-95112125D01*
X96848350Y-95121040D01*
X96851673Y-95130326D01*
X96854069Y-95139893D01*
X96855516Y-95149649D01*
X96856000Y-95159500D01*
X96856000Y-95360500D01*
X96855516Y-95370351D01*
X96854069Y-95380107D01*
X96851673Y-95389674D01*
X96848350Y-95398960D01*
X96844133Y-95407875D01*
X96839063Y-95416335D01*
X96833188Y-95424257D01*
X96826564Y-95431564D01*
X96819257Y-95438188D01*
X96811335Y-95444063D01*
X96802875Y-95449133D01*
X96793960Y-95453350D01*
X96784674Y-95456673D01*
X96775107Y-95459069D01*
X96765351Y-95460516D01*
X96755500Y-95461000D01*
X95379500Y-95461000D01*
X95369649Y-95460516D01*
X95359893Y-95459069D01*
X95350326Y-95456673D01*
X95341040Y-95453350D01*
X95332125Y-95449133D01*
X95323665Y-95444063D01*
X95315743Y-95438188D01*
X95308436Y-95431564D01*
X95301812Y-95424257D01*
X95295937Y-95416335D01*
X95290867Y-95407875D01*
X95286650Y-95398960D01*
X95283327Y-95389674D01*
X95280931Y-95380107D01*
X95279484Y-95370351D01*
X95279000Y-95360500D01*
X95279000Y-95159500D01*
X95279484Y-95149649D01*
X95280931Y-95139893D01*
X95283327Y-95130326D01*
X95286650Y-95121040D01*
X95290867Y-95112125D01*
X95295937Y-95103665D01*
X95301812Y-95095743D01*
X95308436Y-95088436D01*
X95315743Y-95081812D01*
X95323665Y-95075937D01*
X95332125Y-95070867D01*
X95341040Y-95066650D01*
X95350326Y-95063327D01*
X95359893Y-95060931D01*
X95369649Y-95059484D01*
X95379500Y-95059000D01*
X96755500Y-95059000D01*
X96765351Y-95059484D01*
G37*
G36*
X96765351Y-95559484D02*
G01*
X96775107Y-95560931D01*
X96784674Y-95563327D01*
X96793960Y-95566650D01*
X96802875Y-95570867D01*
X96811335Y-95575937D01*
X96819257Y-95581812D01*
X96826564Y-95588436D01*
X96833188Y-95595743D01*
X96839063Y-95603665D01*
X96844133Y-95612125D01*
X96848350Y-95621040D01*
X96851673Y-95630326D01*
X96854069Y-95639893D01*
X96855516Y-95649649D01*
X96856000Y-95659500D01*
X96856000Y-95860500D01*
X96855516Y-95870351D01*
X96854069Y-95880107D01*
X96851673Y-95889674D01*
X96848350Y-95898960D01*
X96844133Y-95907875D01*
X96839063Y-95916335D01*
X96833188Y-95924257D01*
X96826564Y-95931564D01*
X96819257Y-95938188D01*
X96811335Y-95944063D01*
X96802875Y-95949133D01*
X96793960Y-95953350D01*
X96784674Y-95956673D01*
X96775107Y-95959069D01*
X96765351Y-95960516D01*
X96755500Y-95961000D01*
X95379500Y-95961000D01*
X95369649Y-95960516D01*
X95359893Y-95959069D01*
X95350326Y-95956673D01*
X95341040Y-95953350D01*
X95332125Y-95949133D01*
X95323665Y-95944063D01*
X95315743Y-95938188D01*
X95308436Y-95931564D01*
X95301812Y-95924257D01*
X95295937Y-95916335D01*
X95290867Y-95907875D01*
X95286650Y-95898960D01*
X95283327Y-95889674D01*
X95280931Y-95880107D01*
X95279484Y-95870351D01*
X95279000Y-95860500D01*
X95279000Y-95659500D01*
X95279484Y-95649649D01*
X95280931Y-95639893D01*
X95283327Y-95630326D01*
X95286650Y-95621040D01*
X95290867Y-95612125D01*
X95295937Y-95603665D01*
X95301812Y-95595743D01*
X95308436Y-95588436D01*
X95315743Y-95581812D01*
X95323665Y-95575937D01*
X95332125Y-95570867D01*
X95341040Y-95566650D01*
X95350326Y-95563327D01*
X95359893Y-95560931D01*
X95369649Y-95559484D01*
X95379500Y-95559000D01*
X96755500Y-95559000D01*
X96765351Y-95559484D01*
G37*
G36*
X96765351Y-96059484D02*
G01*
X96775107Y-96060931D01*
X96784674Y-96063327D01*
X96793960Y-96066650D01*
X96802875Y-96070867D01*
X96811335Y-96075937D01*
X96819257Y-96081812D01*
X96826564Y-96088436D01*
X96833188Y-96095743D01*
X96839063Y-96103665D01*
X96844133Y-96112125D01*
X96848350Y-96121040D01*
X96851673Y-96130326D01*
X96854069Y-96139893D01*
X96855516Y-96149649D01*
X96856000Y-96159500D01*
X96856000Y-96360500D01*
X96855516Y-96370351D01*
X96854069Y-96380107D01*
X96851673Y-96389674D01*
X96848350Y-96398960D01*
X96844133Y-96407875D01*
X96839063Y-96416335D01*
X96833188Y-96424257D01*
X96826564Y-96431564D01*
X96819257Y-96438188D01*
X96811335Y-96444063D01*
X96802875Y-96449133D01*
X96793960Y-96453350D01*
X96784674Y-96456673D01*
X96775107Y-96459069D01*
X96765351Y-96460516D01*
X96755500Y-96461000D01*
X95379500Y-96461000D01*
X95369649Y-96460516D01*
X95359893Y-96459069D01*
X95350326Y-96456673D01*
X95341040Y-96453350D01*
X95332125Y-96449133D01*
X95323665Y-96444063D01*
X95315743Y-96438188D01*
X95308436Y-96431564D01*
X95301812Y-96424257D01*
X95295937Y-96416335D01*
X95290867Y-96407875D01*
X95286650Y-96398960D01*
X95283327Y-96389674D01*
X95280931Y-96380107D01*
X95279484Y-96370351D01*
X95279000Y-96360500D01*
X95279000Y-96159500D01*
X95279484Y-96149649D01*
X95280931Y-96139893D01*
X95283327Y-96130326D01*
X95286650Y-96121040D01*
X95290867Y-96112125D01*
X95295937Y-96103665D01*
X95301812Y-96095743D01*
X95308436Y-96088436D01*
X95315743Y-96081812D01*
X95323665Y-96075937D01*
X95332125Y-96070867D01*
X95341040Y-96066650D01*
X95350326Y-96063327D01*
X95359893Y-96060931D01*
X95369649Y-96059484D01*
X95379500Y-96059000D01*
X96755500Y-96059000D01*
X96765351Y-96059484D01*
G37*
G36*
X96765351Y-96559484D02*
G01*
X96775107Y-96560931D01*
X96784674Y-96563327D01*
X96793960Y-96566650D01*
X96802875Y-96570867D01*
X96811335Y-96575937D01*
X96819257Y-96581812D01*
X96826564Y-96588436D01*
X96833188Y-96595743D01*
X96839063Y-96603665D01*
X96844133Y-96612125D01*
X96848350Y-96621040D01*
X96851673Y-96630326D01*
X96854069Y-96639893D01*
X96855516Y-96649649D01*
X96856000Y-96659500D01*
X96856000Y-96860500D01*
X96855516Y-96870351D01*
X96854069Y-96880107D01*
X96851673Y-96889674D01*
X96848350Y-96898960D01*
X96844133Y-96907875D01*
X96839063Y-96916335D01*
X96833188Y-96924257D01*
X96826564Y-96931564D01*
X96819257Y-96938188D01*
X96811335Y-96944063D01*
X96802875Y-96949133D01*
X96793960Y-96953350D01*
X96784674Y-96956673D01*
X96775107Y-96959069D01*
X96765351Y-96960516D01*
X96755500Y-96961000D01*
X95379500Y-96961000D01*
X95369649Y-96960516D01*
X95359893Y-96959069D01*
X95350326Y-96956673D01*
X95341040Y-96953350D01*
X95332125Y-96949133D01*
X95323665Y-96944063D01*
X95315743Y-96938188D01*
X95308436Y-96931564D01*
X95301812Y-96924257D01*
X95295937Y-96916335D01*
X95290867Y-96907875D01*
X95286650Y-96898960D01*
X95283327Y-96889674D01*
X95280931Y-96880107D01*
X95279484Y-96870351D01*
X95279000Y-96860500D01*
X95279000Y-96659500D01*
X95279484Y-96649649D01*
X95280931Y-96639893D01*
X95283327Y-96630326D01*
X95286650Y-96621040D01*
X95290867Y-96612125D01*
X95295937Y-96603665D01*
X95301812Y-96595743D01*
X95308436Y-96588436D01*
X95315743Y-96581812D01*
X95323665Y-96575937D01*
X95332125Y-96570867D01*
X95341040Y-96566650D01*
X95350326Y-96563327D01*
X95359893Y-96560931D01*
X95369649Y-96559484D01*
X95379500Y-96559000D01*
X96755500Y-96559000D01*
X96765351Y-96559484D01*
G37*
G36*
X96765351Y-97059484D02*
G01*
X96775107Y-97060931D01*
X96784674Y-97063327D01*
X96793960Y-97066650D01*
X96802875Y-97070867D01*
X96811335Y-97075937D01*
X96819257Y-97081812D01*
X96826564Y-97088436D01*
X96833188Y-97095743D01*
X96839063Y-97103665D01*
X96844133Y-97112125D01*
X96848350Y-97121040D01*
X96851673Y-97130326D01*
X96854069Y-97139893D01*
X96855516Y-97149649D01*
X96856000Y-97159500D01*
X96856000Y-97360500D01*
X96855516Y-97370351D01*
X96854069Y-97380107D01*
X96851673Y-97389674D01*
X96848350Y-97398960D01*
X96844133Y-97407875D01*
X96839063Y-97416335D01*
X96833188Y-97424257D01*
X96826564Y-97431564D01*
X96819257Y-97438188D01*
X96811335Y-97444063D01*
X96802875Y-97449133D01*
X96793960Y-97453350D01*
X96784674Y-97456673D01*
X96775107Y-97459069D01*
X96765351Y-97460516D01*
X96755500Y-97461000D01*
X95379500Y-97461000D01*
X95369649Y-97460516D01*
X95359893Y-97459069D01*
X95350326Y-97456673D01*
X95341040Y-97453350D01*
X95332125Y-97449133D01*
X95323665Y-97444063D01*
X95315743Y-97438188D01*
X95308436Y-97431564D01*
X95301812Y-97424257D01*
X95295937Y-97416335D01*
X95290867Y-97407875D01*
X95286650Y-97398960D01*
X95283327Y-97389674D01*
X95280931Y-97380107D01*
X95279484Y-97370351D01*
X95279000Y-97360500D01*
X95279000Y-97159500D01*
X95279484Y-97149649D01*
X95280931Y-97139893D01*
X95283327Y-97130326D01*
X95286650Y-97121040D01*
X95290867Y-97112125D01*
X95295937Y-97103665D01*
X95301812Y-97095743D01*
X95308436Y-97088436D01*
X95315743Y-97081812D01*
X95323665Y-97075937D01*
X95332125Y-97070867D01*
X95341040Y-97066650D01*
X95350326Y-97063327D01*
X95359893Y-97060931D01*
X95369649Y-97059484D01*
X95379500Y-97059000D01*
X96755500Y-97059000D01*
X96765351Y-97059484D01*
G37*
G36*
X96765351Y-97559484D02*
G01*
X96775107Y-97560931D01*
X96784674Y-97563327D01*
X96793960Y-97566650D01*
X96802875Y-97570867D01*
X96811335Y-97575937D01*
X96819257Y-97581812D01*
X96826564Y-97588436D01*
X96833188Y-97595743D01*
X96839063Y-97603665D01*
X96844133Y-97612125D01*
X96848350Y-97621040D01*
X96851673Y-97630326D01*
X96854069Y-97639893D01*
X96855516Y-97649649D01*
X96856000Y-97659500D01*
X96856000Y-97860500D01*
X96855516Y-97870351D01*
X96854069Y-97880107D01*
X96851673Y-97889674D01*
X96848350Y-97898960D01*
X96844133Y-97907875D01*
X96839063Y-97916335D01*
X96833188Y-97924257D01*
X96826564Y-97931564D01*
X96819257Y-97938188D01*
X96811335Y-97944063D01*
X96802875Y-97949133D01*
X96793960Y-97953350D01*
X96784674Y-97956673D01*
X96775107Y-97959069D01*
X96765351Y-97960516D01*
X96755500Y-97961000D01*
X95379500Y-97961000D01*
X95369649Y-97960516D01*
X95359893Y-97959069D01*
X95350326Y-97956673D01*
X95341040Y-97953350D01*
X95332125Y-97949133D01*
X95323665Y-97944063D01*
X95315743Y-97938188D01*
X95308436Y-97931564D01*
X95301812Y-97924257D01*
X95295937Y-97916335D01*
X95290867Y-97907875D01*
X95286650Y-97898960D01*
X95283327Y-97889674D01*
X95280931Y-97880107D01*
X95279484Y-97870351D01*
X95279000Y-97860500D01*
X95279000Y-97659500D01*
X95279484Y-97649649D01*
X95280931Y-97639893D01*
X95283327Y-97630326D01*
X95286650Y-97621040D01*
X95290867Y-97612125D01*
X95295937Y-97603665D01*
X95301812Y-97595743D01*
X95308436Y-97588436D01*
X95315743Y-97581812D01*
X95323665Y-97575937D01*
X95332125Y-97570867D01*
X95341040Y-97566650D01*
X95350326Y-97563327D01*
X95359893Y-97560931D01*
X95369649Y-97559484D01*
X95379500Y-97559000D01*
X96755500Y-97559000D01*
X96765351Y-97559484D01*
G37*
G36*
X96765351Y-98059484D02*
G01*
X96775107Y-98060931D01*
X96784674Y-98063327D01*
X96793960Y-98066650D01*
X96802875Y-98070867D01*
X96811335Y-98075937D01*
X96819257Y-98081812D01*
X96826564Y-98088436D01*
X96833188Y-98095743D01*
X96839063Y-98103665D01*
X96844133Y-98112125D01*
X96848350Y-98121040D01*
X96851673Y-98130326D01*
X96854069Y-98139893D01*
X96855516Y-98149649D01*
X96856000Y-98159500D01*
X96856000Y-98360500D01*
X96855516Y-98370351D01*
X96854069Y-98380107D01*
X96851673Y-98389674D01*
X96848350Y-98398960D01*
X96844133Y-98407875D01*
X96839063Y-98416335D01*
X96833188Y-98424257D01*
X96826564Y-98431564D01*
X96819257Y-98438188D01*
X96811335Y-98444063D01*
X96802875Y-98449133D01*
X96793960Y-98453350D01*
X96784674Y-98456673D01*
X96775107Y-98459069D01*
X96765351Y-98460516D01*
X96755500Y-98461000D01*
X95379500Y-98461000D01*
X95369649Y-98460516D01*
X95359893Y-98459069D01*
X95350326Y-98456673D01*
X95341040Y-98453350D01*
X95332125Y-98449133D01*
X95323665Y-98444063D01*
X95315743Y-98438188D01*
X95308436Y-98431564D01*
X95301812Y-98424257D01*
X95295937Y-98416335D01*
X95290867Y-98407875D01*
X95286650Y-98398960D01*
X95283327Y-98389674D01*
X95280931Y-98380107D01*
X95279484Y-98370351D01*
X95279000Y-98360500D01*
X95279000Y-98159500D01*
X95279484Y-98149649D01*
X95280931Y-98139893D01*
X95283327Y-98130326D01*
X95286650Y-98121040D01*
X95290867Y-98112125D01*
X95295937Y-98103665D01*
X95301812Y-98095743D01*
X95308436Y-98088436D01*
X95315743Y-98081812D01*
X95323665Y-98075937D01*
X95332125Y-98070867D01*
X95341040Y-98066650D01*
X95350326Y-98063327D01*
X95359893Y-98060931D01*
X95369649Y-98059484D01*
X95379500Y-98059000D01*
X96755500Y-98059000D01*
X96765351Y-98059484D01*
G37*
G36*
X96765351Y-98559484D02*
G01*
X96775107Y-98560931D01*
X96784674Y-98563327D01*
X96793960Y-98566650D01*
X96802875Y-98570867D01*
X96811335Y-98575937D01*
X96819257Y-98581812D01*
X96826564Y-98588436D01*
X96833188Y-98595743D01*
X96839063Y-98603665D01*
X96844133Y-98612125D01*
X96848350Y-98621040D01*
X96851673Y-98630326D01*
X96854069Y-98639893D01*
X96855516Y-98649649D01*
X96856000Y-98659500D01*
X96856000Y-98860500D01*
X96855516Y-98870351D01*
X96854069Y-98880107D01*
X96851673Y-98889674D01*
X96848350Y-98898960D01*
X96844133Y-98907875D01*
X96839063Y-98916335D01*
X96833188Y-98924257D01*
X96826564Y-98931564D01*
X96819257Y-98938188D01*
X96811335Y-98944063D01*
X96802875Y-98949133D01*
X96793960Y-98953350D01*
X96784674Y-98956673D01*
X96775107Y-98959069D01*
X96765351Y-98960516D01*
X96755500Y-98961000D01*
X95379500Y-98961000D01*
X95369649Y-98960516D01*
X95359893Y-98959069D01*
X95350326Y-98956673D01*
X95341040Y-98953350D01*
X95332125Y-98949133D01*
X95323665Y-98944063D01*
X95315743Y-98938188D01*
X95308436Y-98931564D01*
X95301812Y-98924257D01*
X95295937Y-98916335D01*
X95290867Y-98907875D01*
X95286650Y-98898960D01*
X95283327Y-98889674D01*
X95280931Y-98880107D01*
X95279484Y-98870351D01*
X95279000Y-98860500D01*
X95279000Y-98659500D01*
X95279484Y-98649649D01*
X95280931Y-98639893D01*
X95283327Y-98630326D01*
X95286650Y-98621040D01*
X95290867Y-98612125D01*
X95295937Y-98603665D01*
X95301812Y-98595743D01*
X95308436Y-98588436D01*
X95315743Y-98581812D01*
X95323665Y-98575937D01*
X95332125Y-98570867D01*
X95341040Y-98566650D01*
X95350326Y-98563327D01*
X95359893Y-98560931D01*
X95369649Y-98559484D01*
X95379500Y-98559000D01*
X96755500Y-98559000D01*
X96765351Y-98559484D01*
G37*
G36*
X96765351Y-99059484D02*
G01*
X96775107Y-99060931D01*
X96784674Y-99063327D01*
X96793960Y-99066650D01*
X96802875Y-99070867D01*
X96811335Y-99075937D01*
X96819257Y-99081812D01*
X96826564Y-99088436D01*
X96833188Y-99095743D01*
X96839063Y-99103665D01*
X96844133Y-99112125D01*
X96848350Y-99121040D01*
X96851673Y-99130326D01*
X96854069Y-99139893D01*
X96855516Y-99149649D01*
X96856000Y-99159500D01*
X96856000Y-99360500D01*
X96855516Y-99370351D01*
X96854069Y-99380107D01*
X96851673Y-99389674D01*
X96848350Y-99398960D01*
X96844133Y-99407875D01*
X96839063Y-99416335D01*
X96833188Y-99424257D01*
X96826564Y-99431564D01*
X96819257Y-99438188D01*
X96811335Y-99444063D01*
X96802875Y-99449133D01*
X96793960Y-99453350D01*
X96784674Y-99456673D01*
X96775107Y-99459069D01*
X96765351Y-99460516D01*
X96755500Y-99461000D01*
X95379500Y-99461000D01*
X95369649Y-99460516D01*
X95359893Y-99459069D01*
X95350326Y-99456673D01*
X95341040Y-99453350D01*
X95332125Y-99449133D01*
X95323665Y-99444063D01*
X95315743Y-99438188D01*
X95308436Y-99431564D01*
X95301812Y-99424257D01*
X95295937Y-99416335D01*
X95290867Y-99407875D01*
X95286650Y-99398960D01*
X95283327Y-99389674D01*
X95280931Y-99380107D01*
X95279484Y-99370351D01*
X95279000Y-99360500D01*
X95279000Y-99159500D01*
X95279484Y-99149649D01*
X95280931Y-99139893D01*
X95283327Y-99130326D01*
X95286650Y-99121040D01*
X95290867Y-99112125D01*
X95295937Y-99103665D01*
X95301812Y-99095743D01*
X95308436Y-99088436D01*
X95315743Y-99081812D01*
X95323665Y-99075937D01*
X95332125Y-99070867D01*
X95341040Y-99066650D01*
X95350326Y-99063327D01*
X95359893Y-99060931D01*
X95369649Y-99059484D01*
X95379500Y-99059000D01*
X96755500Y-99059000D01*
X96765351Y-99059484D01*
G37*
G36*
X97590351Y-99884484D02*
G01*
X97600107Y-99885931D01*
X97609674Y-99888327D01*
X97618960Y-99891650D01*
X97627875Y-99895867D01*
X97636335Y-99900937D01*
X97644257Y-99906812D01*
X97651564Y-99913436D01*
X97658188Y-99920743D01*
X97664063Y-99928665D01*
X97669133Y-99937125D01*
X97673350Y-99946040D01*
X97676673Y-99955326D01*
X97679069Y-99964893D01*
X97680516Y-99974649D01*
X97681000Y-99984500D01*
X97681000Y-101360500D01*
X97680516Y-101370351D01*
X97679069Y-101380107D01*
X97676673Y-101389674D01*
X97673350Y-101398960D01*
X97669133Y-101407875D01*
X97664063Y-101416335D01*
X97658188Y-101424257D01*
X97651564Y-101431564D01*
X97644257Y-101438188D01*
X97636335Y-101444063D01*
X97627875Y-101449133D01*
X97618960Y-101453350D01*
X97609674Y-101456673D01*
X97600107Y-101459069D01*
X97590351Y-101460516D01*
X97580500Y-101461000D01*
X97379500Y-101461000D01*
X97369649Y-101460516D01*
X97359893Y-101459069D01*
X97350326Y-101456673D01*
X97341040Y-101453350D01*
X97332125Y-101449133D01*
X97323665Y-101444063D01*
X97315743Y-101438188D01*
X97308436Y-101431564D01*
X97301812Y-101424257D01*
X97295937Y-101416335D01*
X97290867Y-101407875D01*
X97286650Y-101398960D01*
X97283327Y-101389674D01*
X97280931Y-101380107D01*
X97279484Y-101370351D01*
X97279000Y-101360500D01*
X97279000Y-99984500D01*
X97279484Y-99974649D01*
X97280931Y-99964893D01*
X97283327Y-99955326D01*
X97286650Y-99946040D01*
X97290867Y-99937125D01*
X97295937Y-99928665D01*
X97301812Y-99920743D01*
X97308436Y-99913436D01*
X97315743Y-99906812D01*
X97323665Y-99900937D01*
X97332125Y-99895867D01*
X97341040Y-99891650D01*
X97350326Y-99888327D01*
X97359893Y-99885931D01*
X97369649Y-99884484D01*
X97379500Y-99884000D01*
X97580500Y-99884000D01*
X97590351Y-99884484D01*
G37*
G36*
X98090351Y-99884484D02*
G01*
X98100107Y-99885931D01*
X98109674Y-99888327D01*
X98118960Y-99891650D01*
X98127875Y-99895867D01*
X98136335Y-99900937D01*
X98144257Y-99906812D01*
X98151564Y-99913436D01*
X98158188Y-99920743D01*
X98164063Y-99928665D01*
X98169133Y-99937125D01*
X98173350Y-99946040D01*
X98176673Y-99955326D01*
X98179069Y-99964893D01*
X98180516Y-99974649D01*
X98181000Y-99984500D01*
X98181000Y-101360500D01*
X98180516Y-101370351D01*
X98179069Y-101380107D01*
X98176673Y-101389674D01*
X98173350Y-101398960D01*
X98169133Y-101407875D01*
X98164063Y-101416335D01*
X98158188Y-101424257D01*
X98151564Y-101431564D01*
X98144257Y-101438188D01*
X98136335Y-101444063D01*
X98127875Y-101449133D01*
X98118960Y-101453350D01*
X98109674Y-101456673D01*
X98100107Y-101459069D01*
X98090351Y-101460516D01*
X98080500Y-101461000D01*
X97879500Y-101461000D01*
X97869649Y-101460516D01*
X97859893Y-101459069D01*
X97850326Y-101456673D01*
X97841040Y-101453350D01*
X97832125Y-101449133D01*
X97823665Y-101444063D01*
X97815743Y-101438188D01*
X97808436Y-101431564D01*
X97801812Y-101424257D01*
X97795937Y-101416335D01*
X97790867Y-101407875D01*
X97786650Y-101398960D01*
X97783327Y-101389674D01*
X97780931Y-101380107D01*
X97779484Y-101370351D01*
X97779000Y-101360500D01*
X97779000Y-99984500D01*
X97779484Y-99974649D01*
X97780931Y-99964893D01*
X97783327Y-99955326D01*
X97786650Y-99946040D01*
X97790867Y-99937125D01*
X97795937Y-99928665D01*
X97801812Y-99920743D01*
X97808436Y-99913436D01*
X97815743Y-99906812D01*
X97823665Y-99900937D01*
X97832125Y-99895867D01*
X97841040Y-99891650D01*
X97850326Y-99888327D01*
X97859893Y-99885931D01*
X97869649Y-99884484D01*
X97879500Y-99884000D01*
X98080500Y-99884000D01*
X98090351Y-99884484D01*
G37*
G36*
X98590351Y-99884484D02*
G01*
X98600107Y-99885931D01*
X98609674Y-99888327D01*
X98618960Y-99891650D01*
X98627875Y-99895867D01*
X98636335Y-99900937D01*
X98644257Y-99906812D01*
X98651564Y-99913436D01*
X98658188Y-99920743D01*
X98664063Y-99928665D01*
X98669133Y-99937125D01*
X98673350Y-99946040D01*
X98676673Y-99955326D01*
X98679069Y-99964893D01*
X98680516Y-99974649D01*
X98681000Y-99984500D01*
X98681000Y-101360500D01*
X98680516Y-101370351D01*
X98679069Y-101380107D01*
X98676673Y-101389674D01*
X98673350Y-101398960D01*
X98669133Y-101407875D01*
X98664063Y-101416335D01*
X98658188Y-101424257D01*
X98651564Y-101431564D01*
X98644257Y-101438188D01*
X98636335Y-101444063D01*
X98627875Y-101449133D01*
X98618960Y-101453350D01*
X98609674Y-101456673D01*
X98600107Y-101459069D01*
X98590351Y-101460516D01*
X98580500Y-101461000D01*
X98379500Y-101461000D01*
X98369649Y-101460516D01*
X98359893Y-101459069D01*
X98350326Y-101456673D01*
X98341040Y-101453350D01*
X98332125Y-101449133D01*
X98323665Y-101444063D01*
X98315743Y-101438188D01*
X98308436Y-101431564D01*
X98301812Y-101424257D01*
X98295937Y-101416335D01*
X98290867Y-101407875D01*
X98286650Y-101398960D01*
X98283327Y-101389674D01*
X98280931Y-101380107D01*
X98279484Y-101370351D01*
X98279000Y-101360500D01*
X98279000Y-99984500D01*
X98279484Y-99974649D01*
X98280931Y-99964893D01*
X98283327Y-99955326D01*
X98286650Y-99946040D01*
X98290867Y-99937125D01*
X98295937Y-99928665D01*
X98301812Y-99920743D01*
X98308436Y-99913436D01*
X98315743Y-99906812D01*
X98323665Y-99900937D01*
X98332125Y-99895867D01*
X98341040Y-99891650D01*
X98350326Y-99888327D01*
X98359893Y-99885931D01*
X98369649Y-99884484D01*
X98379500Y-99884000D01*
X98580500Y-99884000D01*
X98590351Y-99884484D01*
G37*
G36*
X99090351Y-99884484D02*
G01*
X99100107Y-99885931D01*
X99109674Y-99888327D01*
X99118960Y-99891650D01*
X99127875Y-99895867D01*
X99136335Y-99900937D01*
X99144257Y-99906812D01*
X99151564Y-99913436D01*
X99158188Y-99920743D01*
X99164063Y-99928665D01*
X99169133Y-99937125D01*
X99173350Y-99946040D01*
X99176673Y-99955326D01*
X99179069Y-99964893D01*
X99180516Y-99974649D01*
X99181000Y-99984500D01*
X99181000Y-101360500D01*
X99180516Y-101370351D01*
X99179069Y-101380107D01*
X99176673Y-101389674D01*
X99173350Y-101398960D01*
X99169133Y-101407875D01*
X99164063Y-101416335D01*
X99158188Y-101424257D01*
X99151564Y-101431564D01*
X99144257Y-101438188D01*
X99136335Y-101444063D01*
X99127875Y-101449133D01*
X99118960Y-101453350D01*
X99109674Y-101456673D01*
X99100107Y-101459069D01*
X99090351Y-101460516D01*
X99080500Y-101461000D01*
X98879500Y-101461000D01*
X98869649Y-101460516D01*
X98859893Y-101459069D01*
X98850326Y-101456673D01*
X98841040Y-101453350D01*
X98832125Y-101449133D01*
X98823665Y-101444063D01*
X98815743Y-101438188D01*
X98808436Y-101431564D01*
X98801812Y-101424257D01*
X98795937Y-101416335D01*
X98790867Y-101407875D01*
X98786650Y-101398960D01*
X98783327Y-101389674D01*
X98780931Y-101380107D01*
X98779484Y-101370351D01*
X98779000Y-101360500D01*
X98779000Y-99984500D01*
X98779484Y-99974649D01*
X98780931Y-99964893D01*
X98783327Y-99955326D01*
X98786650Y-99946040D01*
X98790867Y-99937125D01*
X98795937Y-99928665D01*
X98801812Y-99920743D01*
X98808436Y-99913436D01*
X98815743Y-99906812D01*
X98823665Y-99900937D01*
X98832125Y-99895867D01*
X98841040Y-99891650D01*
X98850326Y-99888327D01*
X98859893Y-99885931D01*
X98869649Y-99884484D01*
X98879500Y-99884000D01*
X99080500Y-99884000D01*
X99090351Y-99884484D01*
G37*
G36*
X99590351Y-99884484D02*
G01*
X99600107Y-99885931D01*
X99609674Y-99888327D01*
X99618960Y-99891650D01*
X99627875Y-99895867D01*
X99636335Y-99900937D01*
X99644257Y-99906812D01*
X99651564Y-99913436D01*
X99658188Y-99920743D01*
X99664063Y-99928665D01*
X99669133Y-99937125D01*
X99673350Y-99946040D01*
X99676673Y-99955326D01*
X99679069Y-99964893D01*
X99680516Y-99974649D01*
X99681000Y-99984500D01*
X99681000Y-101360500D01*
X99680516Y-101370351D01*
X99679069Y-101380107D01*
X99676673Y-101389674D01*
X99673350Y-101398960D01*
X99669133Y-101407875D01*
X99664063Y-101416335D01*
X99658188Y-101424257D01*
X99651564Y-101431564D01*
X99644257Y-101438188D01*
X99636335Y-101444063D01*
X99627875Y-101449133D01*
X99618960Y-101453350D01*
X99609674Y-101456673D01*
X99600107Y-101459069D01*
X99590351Y-101460516D01*
X99580500Y-101461000D01*
X99379500Y-101461000D01*
X99369649Y-101460516D01*
X99359893Y-101459069D01*
X99350326Y-101456673D01*
X99341040Y-101453350D01*
X99332125Y-101449133D01*
X99323665Y-101444063D01*
X99315743Y-101438188D01*
X99308436Y-101431564D01*
X99301812Y-101424257D01*
X99295937Y-101416335D01*
X99290867Y-101407875D01*
X99286650Y-101398960D01*
X99283327Y-101389674D01*
X99280931Y-101380107D01*
X99279484Y-101370351D01*
X99279000Y-101360500D01*
X99279000Y-99984500D01*
X99279484Y-99974649D01*
X99280931Y-99964893D01*
X99283327Y-99955326D01*
X99286650Y-99946040D01*
X99290867Y-99937125D01*
X99295937Y-99928665D01*
X99301812Y-99920743D01*
X99308436Y-99913436D01*
X99315743Y-99906812D01*
X99323665Y-99900937D01*
X99332125Y-99895867D01*
X99341040Y-99891650D01*
X99350326Y-99888327D01*
X99359893Y-99885931D01*
X99369649Y-99884484D01*
X99379500Y-99884000D01*
X99580500Y-99884000D01*
X99590351Y-99884484D01*
G37*
G36*
X100090351Y-99884484D02*
G01*
X100100107Y-99885931D01*
X100109674Y-99888327D01*
X100118960Y-99891650D01*
X100127875Y-99895867D01*
X100136335Y-99900937D01*
X100144257Y-99906812D01*
X100151564Y-99913436D01*
X100158188Y-99920743D01*
X100164063Y-99928665D01*
X100169133Y-99937125D01*
X100173350Y-99946040D01*
X100176673Y-99955326D01*
X100179069Y-99964893D01*
X100180516Y-99974649D01*
X100181000Y-99984500D01*
X100181000Y-101360500D01*
X100180516Y-101370351D01*
X100179069Y-101380107D01*
X100176673Y-101389674D01*
X100173350Y-101398960D01*
X100169133Y-101407875D01*
X100164063Y-101416335D01*
X100158188Y-101424257D01*
X100151564Y-101431564D01*
X100144257Y-101438188D01*
X100136335Y-101444063D01*
X100127875Y-101449133D01*
X100118960Y-101453350D01*
X100109674Y-101456673D01*
X100100107Y-101459069D01*
X100090351Y-101460516D01*
X100080500Y-101461000D01*
X99879500Y-101461000D01*
X99869649Y-101460516D01*
X99859893Y-101459069D01*
X99850326Y-101456673D01*
X99841040Y-101453350D01*
X99832125Y-101449133D01*
X99823665Y-101444063D01*
X99815743Y-101438188D01*
X99808436Y-101431564D01*
X99801812Y-101424257D01*
X99795937Y-101416335D01*
X99790867Y-101407875D01*
X99786650Y-101398960D01*
X99783327Y-101389674D01*
X99780931Y-101380107D01*
X99779484Y-101370351D01*
X99779000Y-101360500D01*
X99779000Y-99984500D01*
X99779484Y-99974649D01*
X99780931Y-99964893D01*
X99783327Y-99955326D01*
X99786650Y-99946040D01*
X99790867Y-99937125D01*
X99795937Y-99928665D01*
X99801812Y-99920743D01*
X99808436Y-99913436D01*
X99815743Y-99906812D01*
X99823665Y-99900937D01*
X99832125Y-99895867D01*
X99841040Y-99891650D01*
X99850326Y-99888327D01*
X99859893Y-99885931D01*
X99869649Y-99884484D01*
X99879500Y-99884000D01*
X100080500Y-99884000D01*
X100090351Y-99884484D01*
G37*
G36*
X100590351Y-99884484D02*
G01*
X100600107Y-99885931D01*
X100609674Y-99888327D01*
X100618960Y-99891650D01*
X100627875Y-99895867D01*
X100636335Y-99900937D01*
X100644257Y-99906812D01*
X100651564Y-99913436D01*
X100658188Y-99920743D01*
X100664063Y-99928665D01*
X100669133Y-99937125D01*
X100673350Y-99946040D01*
X100676673Y-99955326D01*
X100679069Y-99964893D01*
X100680516Y-99974649D01*
X100681000Y-99984500D01*
X100681000Y-101360500D01*
X100680516Y-101370351D01*
X100679069Y-101380107D01*
X100676673Y-101389674D01*
X100673350Y-101398960D01*
X100669133Y-101407875D01*
X100664063Y-101416335D01*
X100658188Y-101424257D01*
X100651564Y-101431564D01*
X100644257Y-101438188D01*
X100636335Y-101444063D01*
X100627875Y-101449133D01*
X100618960Y-101453350D01*
X100609674Y-101456673D01*
X100600107Y-101459069D01*
X100590351Y-101460516D01*
X100580500Y-101461000D01*
X100379500Y-101461000D01*
X100369649Y-101460516D01*
X100359893Y-101459069D01*
X100350326Y-101456673D01*
X100341040Y-101453350D01*
X100332125Y-101449133D01*
X100323665Y-101444063D01*
X100315743Y-101438188D01*
X100308436Y-101431564D01*
X100301812Y-101424257D01*
X100295937Y-101416335D01*
X100290867Y-101407875D01*
X100286650Y-101398960D01*
X100283327Y-101389674D01*
X100280931Y-101380107D01*
X100279484Y-101370351D01*
X100279000Y-101360500D01*
X100279000Y-99984500D01*
X100279484Y-99974649D01*
X100280931Y-99964893D01*
X100283327Y-99955326D01*
X100286650Y-99946040D01*
X100290867Y-99937125D01*
X100295937Y-99928665D01*
X100301812Y-99920743D01*
X100308436Y-99913436D01*
X100315743Y-99906812D01*
X100323665Y-99900937D01*
X100332125Y-99895867D01*
X100341040Y-99891650D01*
X100350326Y-99888327D01*
X100359893Y-99885931D01*
X100369649Y-99884484D01*
X100379500Y-99884000D01*
X100580500Y-99884000D01*
X100590351Y-99884484D01*
G37*
G36*
X101090351Y-99884484D02*
G01*
X101100107Y-99885931D01*
X101109674Y-99888327D01*
X101118960Y-99891650D01*
X101127875Y-99895867D01*
X101136335Y-99900937D01*
X101144257Y-99906812D01*
X101151564Y-99913436D01*
X101158188Y-99920743D01*
X101164063Y-99928665D01*
X101169133Y-99937125D01*
X101173350Y-99946040D01*
X101176673Y-99955326D01*
X101179069Y-99964893D01*
X101180516Y-99974649D01*
X101181000Y-99984500D01*
X101181000Y-101360500D01*
X101180516Y-101370351D01*
X101179069Y-101380107D01*
X101176673Y-101389674D01*
X101173350Y-101398960D01*
X101169133Y-101407875D01*
X101164063Y-101416335D01*
X101158188Y-101424257D01*
X101151564Y-101431564D01*
X101144257Y-101438188D01*
X101136335Y-101444063D01*
X101127875Y-101449133D01*
X101118960Y-101453350D01*
X101109674Y-101456673D01*
X101100107Y-101459069D01*
X101090351Y-101460516D01*
X101080500Y-101461000D01*
X100879500Y-101461000D01*
X100869649Y-101460516D01*
X100859893Y-101459069D01*
X100850326Y-101456673D01*
X100841040Y-101453350D01*
X100832125Y-101449133D01*
X100823665Y-101444063D01*
X100815743Y-101438188D01*
X100808436Y-101431564D01*
X100801812Y-101424257D01*
X100795937Y-101416335D01*
X100790867Y-101407875D01*
X100786650Y-101398960D01*
X100783327Y-101389674D01*
X100780931Y-101380107D01*
X100779484Y-101370351D01*
X100779000Y-101360500D01*
X100779000Y-99984500D01*
X100779484Y-99974649D01*
X100780931Y-99964893D01*
X100783327Y-99955326D01*
X100786650Y-99946040D01*
X100790867Y-99937125D01*
X100795937Y-99928665D01*
X100801812Y-99920743D01*
X100808436Y-99913436D01*
X100815743Y-99906812D01*
X100823665Y-99900937D01*
X100832125Y-99895867D01*
X100841040Y-99891650D01*
X100850326Y-99888327D01*
X100859893Y-99885931D01*
X100869649Y-99884484D01*
X100879500Y-99884000D01*
X101080500Y-99884000D01*
X101090351Y-99884484D01*
G37*
G36*
X101590351Y-99884484D02*
G01*
X101600107Y-99885931D01*
X101609674Y-99888327D01*
X101618960Y-99891650D01*
X101627875Y-99895867D01*
X101636335Y-99900937D01*
X101644257Y-99906812D01*
X101651564Y-99913436D01*
X101658188Y-99920743D01*
X101664063Y-99928665D01*
X101669133Y-99937125D01*
X101673350Y-99946040D01*
X101676673Y-99955326D01*
X101679069Y-99964893D01*
X101680516Y-99974649D01*
X101681000Y-99984500D01*
X101681000Y-101360500D01*
X101680516Y-101370351D01*
X101679069Y-101380107D01*
X101676673Y-101389674D01*
X101673350Y-101398960D01*
X101669133Y-101407875D01*
X101664063Y-101416335D01*
X101658188Y-101424257D01*
X101651564Y-101431564D01*
X101644257Y-101438188D01*
X101636335Y-101444063D01*
X101627875Y-101449133D01*
X101618960Y-101453350D01*
X101609674Y-101456673D01*
X101600107Y-101459069D01*
X101590351Y-101460516D01*
X101580500Y-101461000D01*
X101379500Y-101461000D01*
X101369649Y-101460516D01*
X101359893Y-101459069D01*
X101350326Y-101456673D01*
X101341040Y-101453350D01*
X101332125Y-101449133D01*
X101323665Y-101444063D01*
X101315743Y-101438188D01*
X101308436Y-101431564D01*
X101301812Y-101424257D01*
X101295937Y-101416335D01*
X101290867Y-101407875D01*
X101286650Y-101398960D01*
X101283327Y-101389674D01*
X101280931Y-101380107D01*
X101279484Y-101370351D01*
X101279000Y-101360500D01*
X101279000Y-99984500D01*
X101279484Y-99974649D01*
X101280931Y-99964893D01*
X101283327Y-99955326D01*
X101286650Y-99946040D01*
X101290867Y-99937125D01*
X101295937Y-99928665D01*
X101301812Y-99920743D01*
X101308436Y-99913436D01*
X101315743Y-99906812D01*
X101323665Y-99900937D01*
X101332125Y-99895867D01*
X101341040Y-99891650D01*
X101350326Y-99888327D01*
X101359893Y-99885931D01*
X101369649Y-99884484D01*
X101379500Y-99884000D01*
X101580500Y-99884000D01*
X101590351Y-99884484D01*
G37*
G36*
X102090351Y-99884484D02*
G01*
X102100107Y-99885931D01*
X102109674Y-99888327D01*
X102118960Y-99891650D01*
X102127875Y-99895867D01*
X102136335Y-99900937D01*
X102144257Y-99906812D01*
X102151564Y-99913436D01*
X102158188Y-99920743D01*
X102164063Y-99928665D01*
X102169133Y-99937125D01*
X102173350Y-99946040D01*
X102176673Y-99955326D01*
X102179069Y-99964893D01*
X102180516Y-99974649D01*
X102181000Y-99984500D01*
X102181000Y-101360500D01*
X102180516Y-101370351D01*
X102179069Y-101380107D01*
X102176673Y-101389674D01*
X102173350Y-101398960D01*
X102169133Y-101407875D01*
X102164063Y-101416335D01*
X102158188Y-101424257D01*
X102151564Y-101431564D01*
X102144257Y-101438188D01*
X102136335Y-101444063D01*
X102127875Y-101449133D01*
X102118960Y-101453350D01*
X102109674Y-101456673D01*
X102100107Y-101459069D01*
X102090351Y-101460516D01*
X102080500Y-101461000D01*
X101879500Y-101461000D01*
X101869649Y-101460516D01*
X101859893Y-101459069D01*
X101850326Y-101456673D01*
X101841040Y-101453350D01*
X101832125Y-101449133D01*
X101823665Y-101444063D01*
X101815743Y-101438188D01*
X101808436Y-101431564D01*
X101801812Y-101424257D01*
X101795937Y-101416335D01*
X101790867Y-101407875D01*
X101786650Y-101398960D01*
X101783327Y-101389674D01*
X101780931Y-101380107D01*
X101779484Y-101370351D01*
X101779000Y-101360500D01*
X101779000Y-99984500D01*
X101779484Y-99974649D01*
X101780931Y-99964893D01*
X101783327Y-99955326D01*
X101786650Y-99946040D01*
X101790867Y-99937125D01*
X101795937Y-99928665D01*
X101801812Y-99920743D01*
X101808436Y-99913436D01*
X101815743Y-99906812D01*
X101823665Y-99900937D01*
X101832125Y-99895867D01*
X101841040Y-99891650D01*
X101850326Y-99888327D01*
X101859893Y-99885931D01*
X101869649Y-99884484D01*
X101879500Y-99884000D01*
X102080500Y-99884000D01*
X102090351Y-99884484D01*
G37*
G36*
X102590351Y-99884484D02*
G01*
X102600107Y-99885931D01*
X102609674Y-99888327D01*
X102618960Y-99891650D01*
X102627875Y-99895867D01*
X102636335Y-99900937D01*
X102644257Y-99906812D01*
X102651564Y-99913436D01*
X102658188Y-99920743D01*
X102664063Y-99928665D01*
X102669133Y-99937125D01*
X102673350Y-99946040D01*
X102676673Y-99955326D01*
X102679069Y-99964893D01*
X102680516Y-99974649D01*
X102681000Y-99984500D01*
X102681000Y-101360500D01*
X102680516Y-101370351D01*
X102679069Y-101380107D01*
X102676673Y-101389674D01*
X102673350Y-101398960D01*
X102669133Y-101407875D01*
X102664063Y-101416335D01*
X102658188Y-101424257D01*
X102651564Y-101431564D01*
X102644257Y-101438188D01*
X102636335Y-101444063D01*
X102627875Y-101449133D01*
X102618960Y-101453350D01*
X102609674Y-101456673D01*
X102600107Y-101459069D01*
X102590351Y-101460516D01*
X102580500Y-101461000D01*
X102379500Y-101461000D01*
X102369649Y-101460516D01*
X102359893Y-101459069D01*
X102350326Y-101456673D01*
X102341040Y-101453350D01*
X102332125Y-101449133D01*
X102323665Y-101444063D01*
X102315743Y-101438188D01*
X102308436Y-101431564D01*
X102301812Y-101424257D01*
X102295937Y-101416335D01*
X102290867Y-101407875D01*
X102286650Y-101398960D01*
X102283327Y-101389674D01*
X102280931Y-101380107D01*
X102279484Y-101370351D01*
X102279000Y-101360500D01*
X102279000Y-99984500D01*
X102279484Y-99974649D01*
X102280931Y-99964893D01*
X102283327Y-99955326D01*
X102286650Y-99946040D01*
X102290867Y-99937125D01*
X102295937Y-99928665D01*
X102301812Y-99920743D01*
X102308436Y-99913436D01*
X102315743Y-99906812D01*
X102323665Y-99900937D01*
X102332125Y-99895867D01*
X102341040Y-99891650D01*
X102350326Y-99888327D01*
X102359893Y-99885931D01*
X102369649Y-99884484D01*
X102379500Y-99884000D01*
X102580500Y-99884000D01*
X102590351Y-99884484D01*
G37*
G36*
X103090351Y-99884484D02*
G01*
X103100107Y-99885931D01*
X103109674Y-99888327D01*
X103118960Y-99891650D01*
X103127875Y-99895867D01*
X103136335Y-99900937D01*
X103144257Y-99906812D01*
X103151564Y-99913436D01*
X103158188Y-99920743D01*
X103164063Y-99928665D01*
X103169133Y-99937125D01*
X103173350Y-99946040D01*
X103176673Y-99955326D01*
X103179069Y-99964893D01*
X103180516Y-99974649D01*
X103181000Y-99984500D01*
X103181000Y-101360500D01*
X103180516Y-101370351D01*
X103179069Y-101380107D01*
X103176673Y-101389674D01*
X103173350Y-101398960D01*
X103169133Y-101407875D01*
X103164063Y-101416335D01*
X103158188Y-101424257D01*
X103151564Y-101431564D01*
X103144257Y-101438188D01*
X103136335Y-101444063D01*
X103127875Y-101449133D01*
X103118960Y-101453350D01*
X103109674Y-101456673D01*
X103100107Y-101459069D01*
X103090351Y-101460516D01*
X103080500Y-101461000D01*
X102879500Y-101461000D01*
X102869649Y-101460516D01*
X102859893Y-101459069D01*
X102850326Y-101456673D01*
X102841040Y-101453350D01*
X102832125Y-101449133D01*
X102823665Y-101444063D01*
X102815743Y-101438188D01*
X102808436Y-101431564D01*
X102801812Y-101424257D01*
X102795937Y-101416335D01*
X102790867Y-101407875D01*
X102786650Y-101398960D01*
X102783327Y-101389674D01*
X102780931Y-101380107D01*
X102779484Y-101370351D01*
X102779000Y-101360500D01*
X102779000Y-99984500D01*
X102779484Y-99974649D01*
X102780931Y-99964893D01*
X102783327Y-99955326D01*
X102786650Y-99946040D01*
X102790867Y-99937125D01*
X102795937Y-99928665D01*
X102801812Y-99920743D01*
X102808436Y-99913436D01*
X102815743Y-99906812D01*
X102823665Y-99900937D01*
X102832125Y-99895867D01*
X102841040Y-99891650D01*
X102850326Y-99888327D01*
X102859893Y-99885931D01*
X102869649Y-99884484D01*
X102879500Y-99884000D01*
X103080500Y-99884000D01*
X103090351Y-99884484D01*
G37*
G36*
X105090351Y-99059484D02*
G01*
X105100107Y-99060931D01*
X105109674Y-99063327D01*
X105118960Y-99066650D01*
X105127875Y-99070867D01*
X105136335Y-99075937D01*
X105144257Y-99081812D01*
X105151564Y-99088436D01*
X105158188Y-99095743D01*
X105164063Y-99103665D01*
X105169133Y-99112125D01*
X105173350Y-99121040D01*
X105176673Y-99130326D01*
X105179069Y-99139893D01*
X105180516Y-99149649D01*
X105181000Y-99159500D01*
X105181000Y-99360500D01*
X105180516Y-99370351D01*
X105179069Y-99380107D01*
X105176673Y-99389674D01*
X105173350Y-99398960D01*
X105169133Y-99407875D01*
X105164063Y-99416335D01*
X105158188Y-99424257D01*
X105151564Y-99431564D01*
X105144257Y-99438188D01*
X105136335Y-99444063D01*
X105127875Y-99449133D01*
X105118960Y-99453350D01*
X105109674Y-99456673D01*
X105100107Y-99459069D01*
X105090351Y-99460516D01*
X105080500Y-99461000D01*
X103704500Y-99461000D01*
X103694649Y-99460516D01*
X103684893Y-99459069D01*
X103675326Y-99456673D01*
X103666040Y-99453350D01*
X103657125Y-99449133D01*
X103648665Y-99444063D01*
X103640743Y-99438188D01*
X103633436Y-99431564D01*
X103626812Y-99424257D01*
X103620937Y-99416335D01*
X103615867Y-99407875D01*
X103611650Y-99398960D01*
X103608327Y-99389674D01*
X103605931Y-99380107D01*
X103604484Y-99370351D01*
X103604000Y-99360500D01*
X103604000Y-99159500D01*
X103604484Y-99149649D01*
X103605931Y-99139893D01*
X103608327Y-99130326D01*
X103611650Y-99121040D01*
X103615867Y-99112125D01*
X103620937Y-99103665D01*
X103626812Y-99095743D01*
X103633436Y-99088436D01*
X103640743Y-99081812D01*
X103648665Y-99075937D01*
X103657125Y-99070867D01*
X103666040Y-99066650D01*
X103675326Y-99063327D01*
X103684893Y-99060931D01*
X103694649Y-99059484D01*
X103704500Y-99059000D01*
X105080500Y-99059000D01*
X105090351Y-99059484D01*
G37*
G36*
X105090351Y-98559484D02*
G01*
X105100107Y-98560931D01*
X105109674Y-98563327D01*
X105118960Y-98566650D01*
X105127875Y-98570867D01*
X105136335Y-98575937D01*
X105144257Y-98581812D01*
X105151564Y-98588436D01*
X105158188Y-98595743D01*
X105164063Y-98603665D01*
X105169133Y-98612125D01*
X105173350Y-98621040D01*
X105176673Y-98630326D01*
X105179069Y-98639893D01*
X105180516Y-98649649D01*
X105181000Y-98659500D01*
X105181000Y-98860500D01*
X105180516Y-98870351D01*
X105179069Y-98880107D01*
X105176673Y-98889674D01*
X105173350Y-98898960D01*
X105169133Y-98907875D01*
X105164063Y-98916335D01*
X105158188Y-98924257D01*
X105151564Y-98931564D01*
X105144257Y-98938188D01*
X105136335Y-98944063D01*
X105127875Y-98949133D01*
X105118960Y-98953350D01*
X105109674Y-98956673D01*
X105100107Y-98959069D01*
X105090351Y-98960516D01*
X105080500Y-98961000D01*
X103704500Y-98961000D01*
X103694649Y-98960516D01*
X103684893Y-98959069D01*
X103675326Y-98956673D01*
X103666040Y-98953350D01*
X103657125Y-98949133D01*
X103648665Y-98944063D01*
X103640743Y-98938188D01*
X103633436Y-98931564D01*
X103626812Y-98924257D01*
X103620937Y-98916335D01*
X103615867Y-98907875D01*
X103611650Y-98898960D01*
X103608327Y-98889674D01*
X103605931Y-98880107D01*
X103604484Y-98870351D01*
X103604000Y-98860500D01*
X103604000Y-98659500D01*
X103604484Y-98649649D01*
X103605931Y-98639893D01*
X103608327Y-98630326D01*
X103611650Y-98621040D01*
X103615867Y-98612125D01*
X103620937Y-98603665D01*
X103626812Y-98595743D01*
X103633436Y-98588436D01*
X103640743Y-98581812D01*
X103648665Y-98575937D01*
X103657125Y-98570867D01*
X103666040Y-98566650D01*
X103675326Y-98563327D01*
X103684893Y-98560931D01*
X103694649Y-98559484D01*
X103704500Y-98559000D01*
X105080500Y-98559000D01*
X105090351Y-98559484D01*
G37*
G36*
X105090351Y-98059484D02*
G01*
X105100107Y-98060931D01*
X105109674Y-98063327D01*
X105118960Y-98066650D01*
X105127875Y-98070867D01*
X105136335Y-98075937D01*
X105144257Y-98081812D01*
X105151564Y-98088436D01*
X105158188Y-98095743D01*
X105164063Y-98103665D01*
X105169133Y-98112125D01*
X105173350Y-98121040D01*
X105176673Y-98130326D01*
X105179069Y-98139893D01*
X105180516Y-98149649D01*
X105181000Y-98159500D01*
X105181000Y-98360500D01*
X105180516Y-98370351D01*
X105179069Y-98380107D01*
X105176673Y-98389674D01*
X105173350Y-98398960D01*
X105169133Y-98407875D01*
X105164063Y-98416335D01*
X105158188Y-98424257D01*
X105151564Y-98431564D01*
X105144257Y-98438188D01*
X105136335Y-98444063D01*
X105127875Y-98449133D01*
X105118960Y-98453350D01*
X105109674Y-98456673D01*
X105100107Y-98459069D01*
X105090351Y-98460516D01*
X105080500Y-98461000D01*
X103704500Y-98461000D01*
X103694649Y-98460516D01*
X103684893Y-98459069D01*
X103675326Y-98456673D01*
X103666040Y-98453350D01*
X103657125Y-98449133D01*
X103648665Y-98444063D01*
X103640743Y-98438188D01*
X103633436Y-98431564D01*
X103626812Y-98424257D01*
X103620937Y-98416335D01*
X103615867Y-98407875D01*
X103611650Y-98398960D01*
X103608327Y-98389674D01*
X103605931Y-98380107D01*
X103604484Y-98370351D01*
X103604000Y-98360500D01*
X103604000Y-98159500D01*
X103604484Y-98149649D01*
X103605931Y-98139893D01*
X103608327Y-98130326D01*
X103611650Y-98121040D01*
X103615867Y-98112125D01*
X103620937Y-98103665D01*
X103626812Y-98095743D01*
X103633436Y-98088436D01*
X103640743Y-98081812D01*
X103648665Y-98075937D01*
X103657125Y-98070867D01*
X103666040Y-98066650D01*
X103675326Y-98063327D01*
X103684893Y-98060931D01*
X103694649Y-98059484D01*
X103704500Y-98059000D01*
X105080500Y-98059000D01*
X105090351Y-98059484D01*
G37*
G36*
X105090351Y-97559484D02*
G01*
X105100107Y-97560931D01*
X105109674Y-97563327D01*
X105118960Y-97566650D01*
X105127875Y-97570867D01*
X105136335Y-97575937D01*
X105144257Y-97581812D01*
X105151564Y-97588436D01*
X105158188Y-97595743D01*
X105164063Y-97603665D01*
X105169133Y-97612125D01*
X105173350Y-97621040D01*
X105176673Y-97630326D01*
X105179069Y-97639893D01*
X105180516Y-97649649D01*
X105181000Y-97659500D01*
X105181000Y-97860500D01*
X105180516Y-97870351D01*
X105179069Y-97880107D01*
X105176673Y-97889674D01*
X105173350Y-97898960D01*
X105169133Y-97907875D01*
X105164063Y-97916335D01*
X105158188Y-97924257D01*
X105151564Y-97931564D01*
X105144257Y-97938188D01*
X105136335Y-97944063D01*
X105127875Y-97949133D01*
X105118960Y-97953350D01*
X105109674Y-97956673D01*
X105100107Y-97959069D01*
X105090351Y-97960516D01*
X105080500Y-97961000D01*
X103704500Y-97961000D01*
X103694649Y-97960516D01*
X103684893Y-97959069D01*
X103675326Y-97956673D01*
X103666040Y-97953350D01*
X103657125Y-97949133D01*
X103648665Y-97944063D01*
X103640743Y-97938188D01*
X103633436Y-97931564D01*
X103626812Y-97924257D01*
X103620937Y-97916335D01*
X103615867Y-97907875D01*
X103611650Y-97898960D01*
X103608327Y-97889674D01*
X103605931Y-97880107D01*
X103604484Y-97870351D01*
X103604000Y-97860500D01*
X103604000Y-97659500D01*
X103604484Y-97649649D01*
X103605931Y-97639893D01*
X103608327Y-97630326D01*
X103611650Y-97621040D01*
X103615867Y-97612125D01*
X103620937Y-97603665D01*
X103626812Y-97595743D01*
X103633436Y-97588436D01*
X103640743Y-97581812D01*
X103648665Y-97575937D01*
X103657125Y-97570867D01*
X103666040Y-97566650D01*
X103675326Y-97563327D01*
X103684893Y-97560931D01*
X103694649Y-97559484D01*
X103704500Y-97559000D01*
X105080500Y-97559000D01*
X105090351Y-97559484D01*
G37*
G36*
X105090351Y-97059484D02*
G01*
X105100107Y-97060931D01*
X105109674Y-97063327D01*
X105118960Y-97066650D01*
X105127875Y-97070867D01*
X105136335Y-97075937D01*
X105144257Y-97081812D01*
X105151564Y-97088436D01*
X105158188Y-97095743D01*
X105164063Y-97103665D01*
X105169133Y-97112125D01*
X105173350Y-97121040D01*
X105176673Y-97130326D01*
X105179069Y-97139893D01*
X105180516Y-97149649D01*
X105181000Y-97159500D01*
X105181000Y-97360500D01*
X105180516Y-97370351D01*
X105179069Y-97380107D01*
X105176673Y-97389674D01*
X105173350Y-97398960D01*
X105169133Y-97407875D01*
X105164063Y-97416335D01*
X105158188Y-97424257D01*
X105151564Y-97431564D01*
X105144257Y-97438188D01*
X105136335Y-97444063D01*
X105127875Y-97449133D01*
X105118960Y-97453350D01*
X105109674Y-97456673D01*
X105100107Y-97459069D01*
X105090351Y-97460516D01*
X105080500Y-97461000D01*
X103704500Y-97461000D01*
X103694649Y-97460516D01*
X103684893Y-97459069D01*
X103675326Y-97456673D01*
X103666040Y-97453350D01*
X103657125Y-97449133D01*
X103648665Y-97444063D01*
X103640743Y-97438188D01*
X103633436Y-97431564D01*
X103626812Y-97424257D01*
X103620937Y-97416335D01*
X103615867Y-97407875D01*
X103611650Y-97398960D01*
X103608327Y-97389674D01*
X103605931Y-97380107D01*
X103604484Y-97370351D01*
X103604000Y-97360500D01*
X103604000Y-97159500D01*
X103604484Y-97149649D01*
X103605931Y-97139893D01*
X103608327Y-97130326D01*
X103611650Y-97121040D01*
X103615867Y-97112125D01*
X103620937Y-97103665D01*
X103626812Y-97095743D01*
X103633436Y-97088436D01*
X103640743Y-97081812D01*
X103648665Y-97075937D01*
X103657125Y-97070867D01*
X103666040Y-97066650D01*
X103675326Y-97063327D01*
X103684893Y-97060931D01*
X103694649Y-97059484D01*
X103704500Y-97059000D01*
X105080500Y-97059000D01*
X105090351Y-97059484D01*
G37*
G36*
X105090351Y-96559484D02*
G01*
X105100107Y-96560931D01*
X105109674Y-96563327D01*
X105118960Y-96566650D01*
X105127875Y-96570867D01*
X105136335Y-96575937D01*
X105144257Y-96581812D01*
X105151564Y-96588436D01*
X105158188Y-96595743D01*
X105164063Y-96603665D01*
X105169133Y-96612125D01*
X105173350Y-96621040D01*
X105176673Y-96630326D01*
X105179069Y-96639893D01*
X105180516Y-96649649D01*
X105181000Y-96659500D01*
X105181000Y-96860500D01*
X105180516Y-96870351D01*
X105179069Y-96880107D01*
X105176673Y-96889674D01*
X105173350Y-96898960D01*
X105169133Y-96907875D01*
X105164063Y-96916335D01*
X105158188Y-96924257D01*
X105151564Y-96931564D01*
X105144257Y-96938188D01*
X105136335Y-96944063D01*
X105127875Y-96949133D01*
X105118960Y-96953350D01*
X105109674Y-96956673D01*
X105100107Y-96959069D01*
X105090351Y-96960516D01*
X105080500Y-96961000D01*
X103704500Y-96961000D01*
X103694649Y-96960516D01*
X103684893Y-96959069D01*
X103675326Y-96956673D01*
X103666040Y-96953350D01*
X103657125Y-96949133D01*
X103648665Y-96944063D01*
X103640743Y-96938188D01*
X103633436Y-96931564D01*
X103626812Y-96924257D01*
X103620937Y-96916335D01*
X103615867Y-96907875D01*
X103611650Y-96898960D01*
X103608327Y-96889674D01*
X103605931Y-96880107D01*
X103604484Y-96870351D01*
X103604000Y-96860500D01*
X103604000Y-96659500D01*
X103604484Y-96649649D01*
X103605931Y-96639893D01*
X103608327Y-96630326D01*
X103611650Y-96621040D01*
X103615867Y-96612125D01*
X103620937Y-96603665D01*
X103626812Y-96595743D01*
X103633436Y-96588436D01*
X103640743Y-96581812D01*
X103648665Y-96575937D01*
X103657125Y-96570867D01*
X103666040Y-96566650D01*
X103675326Y-96563327D01*
X103684893Y-96560931D01*
X103694649Y-96559484D01*
X103704500Y-96559000D01*
X105080500Y-96559000D01*
X105090351Y-96559484D01*
G37*
G36*
X105090351Y-96059484D02*
G01*
X105100107Y-96060931D01*
X105109674Y-96063327D01*
X105118960Y-96066650D01*
X105127875Y-96070867D01*
X105136335Y-96075937D01*
X105144257Y-96081812D01*
X105151564Y-96088436D01*
X105158188Y-96095743D01*
X105164063Y-96103665D01*
X105169133Y-96112125D01*
X105173350Y-96121040D01*
X105176673Y-96130326D01*
X105179069Y-96139893D01*
X105180516Y-96149649D01*
X105181000Y-96159500D01*
X105181000Y-96360500D01*
X105180516Y-96370351D01*
X105179069Y-96380107D01*
X105176673Y-96389674D01*
X105173350Y-96398960D01*
X105169133Y-96407875D01*
X105164063Y-96416335D01*
X105158188Y-96424257D01*
X105151564Y-96431564D01*
X105144257Y-96438188D01*
X105136335Y-96444063D01*
X105127875Y-96449133D01*
X105118960Y-96453350D01*
X105109674Y-96456673D01*
X105100107Y-96459069D01*
X105090351Y-96460516D01*
X105080500Y-96461000D01*
X103704500Y-96461000D01*
X103694649Y-96460516D01*
X103684893Y-96459069D01*
X103675326Y-96456673D01*
X103666040Y-96453350D01*
X103657125Y-96449133D01*
X103648665Y-96444063D01*
X103640743Y-96438188D01*
X103633436Y-96431564D01*
X103626812Y-96424257D01*
X103620937Y-96416335D01*
X103615867Y-96407875D01*
X103611650Y-96398960D01*
X103608327Y-96389674D01*
X103605931Y-96380107D01*
X103604484Y-96370351D01*
X103604000Y-96360500D01*
X103604000Y-96159500D01*
X103604484Y-96149649D01*
X103605931Y-96139893D01*
X103608327Y-96130326D01*
X103611650Y-96121040D01*
X103615867Y-96112125D01*
X103620937Y-96103665D01*
X103626812Y-96095743D01*
X103633436Y-96088436D01*
X103640743Y-96081812D01*
X103648665Y-96075937D01*
X103657125Y-96070867D01*
X103666040Y-96066650D01*
X103675326Y-96063327D01*
X103684893Y-96060931D01*
X103694649Y-96059484D01*
X103704500Y-96059000D01*
X105080500Y-96059000D01*
X105090351Y-96059484D01*
G37*
G36*
X105090351Y-95559484D02*
G01*
X105100107Y-95560931D01*
X105109674Y-95563327D01*
X105118960Y-95566650D01*
X105127875Y-95570867D01*
X105136335Y-95575937D01*
X105144257Y-95581812D01*
X105151564Y-95588436D01*
X105158188Y-95595743D01*
X105164063Y-95603665D01*
X105169133Y-95612125D01*
X105173350Y-95621040D01*
X105176673Y-95630326D01*
X105179069Y-95639893D01*
X105180516Y-95649649D01*
X105181000Y-95659500D01*
X105181000Y-95860500D01*
X105180516Y-95870351D01*
X105179069Y-95880107D01*
X105176673Y-95889674D01*
X105173350Y-95898960D01*
X105169133Y-95907875D01*
X105164063Y-95916335D01*
X105158188Y-95924257D01*
X105151564Y-95931564D01*
X105144257Y-95938188D01*
X105136335Y-95944063D01*
X105127875Y-95949133D01*
X105118960Y-95953350D01*
X105109674Y-95956673D01*
X105100107Y-95959069D01*
X105090351Y-95960516D01*
X105080500Y-95961000D01*
X103704500Y-95961000D01*
X103694649Y-95960516D01*
X103684893Y-95959069D01*
X103675326Y-95956673D01*
X103666040Y-95953350D01*
X103657125Y-95949133D01*
X103648665Y-95944063D01*
X103640743Y-95938188D01*
X103633436Y-95931564D01*
X103626812Y-95924257D01*
X103620937Y-95916335D01*
X103615867Y-95907875D01*
X103611650Y-95898960D01*
X103608327Y-95889674D01*
X103605931Y-95880107D01*
X103604484Y-95870351D01*
X103604000Y-95860500D01*
X103604000Y-95659500D01*
X103604484Y-95649649D01*
X103605931Y-95639893D01*
X103608327Y-95630326D01*
X103611650Y-95621040D01*
X103615867Y-95612125D01*
X103620937Y-95603665D01*
X103626812Y-95595743D01*
X103633436Y-95588436D01*
X103640743Y-95581812D01*
X103648665Y-95575937D01*
X103657125Y-95570867D01*
X103666040Y-95566650D01*
X103675326Y-95563327D01*
X103684893Y-95560931D01*
X103694649Y-95559484D01*
X103704500Y-95559000D01*
X105080500Y-95559000D01*
X105090351Y-95559484D01*
G37*
G36*
X105090351Y-95059484D02*
G01*
X105100107Y-95060931D01*
X105109674Y-95063327D01*
X105118960Y-95066650D01*
X105127875Y-95070867D01*
X105136335Y-95075937D01*
X105144257Y-95081812D01*
X105151564Y-95088436D01*
X105158188Y-95095743D01*
X105164063Y-95103665D01*
X105169133Y-95112125D01*
X105173350Y-95121040D01*
X105176673Y-95130326D01*
X105179069Y-95139893D01*
X105180516Y-95149649D01*
X105181000Y-95159500D01*
X105181000Y-95360500D01*
X105180516Y-95370351D01*
X105179069Y-95380107D01*
X105176673Y-95389674D01*
X105173350Y-95398960D01*
X105169133Y-95407875D01*
X105164063Y-95416335D01*
X105158188Y-95424257D01*
X105151564Y-95431564D01*
X105144257Y-95438188D01*
X105136335Y-95444063D01*
X105127875Y-95449133D01*
X105118960Y-95453350D01*
X105109674Y-95456673D01*
X105100107Y-95459069D01*
X105090351Y-95460516D01*
X105080500Y-95461000D01*
X103704500Y-95461000D01*
X103694649Y-95460516D01*
X103684893Y-95459069D01*
X103675326Y-95456673D01*
X103666040Y-95453350D01*
X103657125Y-95449133D01*
X103648665Y-95444063D01*
X103640743Y-95438188D01*
X103633436Y-95431564D01*
X103626812Y-95424257D01*
X103620937Y-95416335D01*
X103615867Y-95407875D01*
X103611650Y-95398960D01*
X103608327Y-95389674D01*
X103605931Y-95380107D01*
X103604484Y-95370351D01*
X103604000Y-95360500D01*
X103604000Y-95159500D01*
X103604484Y-95149649D01*
X103605931Y-95139893D01*
X103608327Y-95130326D01*
X103611650Y-95121040D01*
X103615867Y-95112125D01*
X103620937Y-95103665D01*
X103626812Y-95095743D01*
X103633436Y-95088436D01*
X103640743Y-95081812D01*
X103648665Y-95075937D01*
X103657125Y-95070867D01*
X103666040Y-95066650D01*
X103675326Y-95063327D01*
X103684893Y-95060931D01*
X103694649Y-95059484D01*
X103704500Y-95059000D01*
X105080500Y-95059000D01*
X105090351Y-95059484D01*
G37*
G36*
X105090351Y-94559484D02*
G01*
X105100107Y-94560931D01*
X105109674Y-94563327D01*
X105118960Y-94566650D01*
X105127875Y-94570867D01*
X105136335Y-94575937D01*
X105144257Y-94581812D01*
X105151564Y-94588436D01*
X105158188Y-94595743D01*
X105164063Y-94603665D01*
X105169133Y-94612125D01*
X105173350Y-94621040D01*
X105176673Y-94630326D01*
X105179069Y-94639893D01*
X105180516Y-94649649D01*
X105181000Y-94659500D01*
X105181000Y-94860500D01*
X105180516Y-94870351D01*
X105179069Y-94880107D01*
X105176673Y-94889674D01*
X105173350Y-94898960D01*
X105169133Y-94907875D01*
X105164063Y-94916335D01*
X105158188Y-94924257D01*
X105151564Y-94931564D01*
X105144257Y-94938188D01*
X105136335Y-94944063D01*
X105127875Y-94949133D01*
X105118960Y-94953350D01*
X105109674Y-94956673D01*
X105100107Y-94959069D01*
X105090351Y-94960516D01*
X105080500Y-94961000D01*
X103704500Y-94961000D01*
X103694649Y-94960516D01*
X103684893Y-94959069D01*
X103675326Y-94956673D01*
X103666040Y-94953350D01*
X103657125Y-94949133D01*
X103648665Y-94944063D01*
X103640743Y-94938188D01*
X103633436Y-94931564D01*
X103626812Y-94924257D01*
X103620937Y-94916335D01*
X103615867Y-94907875D01*
X103611650Y-94898960D01*
X103608327Y-94889674D01*
X103605931Y-94880107D01*
X103604484Y-94870351D01*
X103604000Y-94860500D01*
X103604000Y-94659500D01*
X103604484Y-94649649D01*
X103605931Y-94639893D01*
X103608327Y-94630326D01*
X103611650Y-94621040D01*
X103615867Y-94612125D01*
X103620937Y-94603665D01*
X103626812Y-94595743D01*
X103633436Y-94588436D01*
X103640743Y-94581812D01*
X103648665Y-94575937D01*
X103657125Y-94570867D01*
X103666040Y-94566650D01*
X103675326Y-94563327D01*
X103684893Y-94560931D01*
X103694649Y-94559484D01*
X103704500Y-94559000D01*
X105080500Y-94559000D01*
X105090351Y-94559484D01*
G37*
G36*
X105090351Y-94059484D02*
G01*
X105100107Y-94060931D01*
X105109674Y-94063327D01*
X105118960Y-94066650D01*
X105127875Y-94070867D01*
X105136335Y-94075937D01*
X105144257Y-94081812D01*
X105151564Y-94088436D01*
X105158188Y-94095743D01*
X105164063Y-94103665D01*
X105169133Y-94112125D01*
X105173350Y-94121040D01*
X105176673Y-94130326D01*
X105179069Y-94139893D01*
X105180516Y-94149649D01*
X105181000Y-94159500D01*
X105181000Y-94360500D01*
X105180516Y-94370351D01*
X105179069Y-94380107D01*
X105176673Y-94389674D01*
X105173350Y-94398960D01*
X105169133Y-94407875D01*
X105164063Y-94416335D01*
X105158188Y-94424257D01*
X105151564Y-94431564D01*
X105144257Y-94438188D01*
X105136335Y-94444063D01*
X105127875Y-94449133D01*
X105118960Y-94453350D01*
X105109674Y-94456673D01*
X105100107Y-94459069D01*
X105090351Y-94460516D01*
X105080500Y-94461000D01*
X103704500Y-94461000D01*
X103694649Y-94460516D01*
X103684893Y-94459069D01*
X103675326Y-94456673D01*
X103666040Y-94453350D01*
X103657125Y-94449133D01*
X103648665Y-94444063D01*
X103640743Y-94438188D01*
X103633436Y-94431564D01*
X103626812Y-94424257D01*
X103620937Y-94416335D01*
X103615867Y-94407875D01*
X103611650Y-94398960D01*
X103608327Y-94389674D01*
X103605931Y-94380107D01*
X103604484Y-94370351D01*
X103604000Y-94360500D01*
X103604000Y-94159500D01*
X103604484Y-94149649D01*
X103605931Y-94139893D01*
X103608327Y-94130326D01*
X103611650Y-94121040D01*
X103615867Y-94112125D01*
X103620937Y-94103665D01*
X103626812Y-94095743D01*
X103633436Y-94088436D01*
X103640743Y-94081812D01*
X103648665Y-94075937D01*
X103657125Y-94070867D01*
X103666040Y-94066650D01*
X103675326Y-94063327D01*
X103684893Y-94060931D01*
X103694649Y-94059484D01*
X103704500Y-94059000D01*
X105080500Y-94059000D01*
X105090351Y-94059484D01*
G37*
G36*
X105090351Y-93559484D02*
G01*
X105100107Y-93560931D01*
X105109674Y-93563327D01*
X105118960Y-93566650D01*
X105127875Y-93570867D01*
X105136335Y-93575937D01*
X105144257Y-93581812D01*
X105151564Y-93588436D01*
X105158188Y-93595743D01*
X105164063Y-93603665D01*
X105169133Y-93612125D01*
X105173350Y-93621040D01*
X105176673Y-93630326D01*
X105179069Y-93639893D01*
X105180516Y-93649649D01*
X105181000Y-93659500D01*
X105181000Y-93860500D01*
X105180516Y-93870351D01*
X105179069Y-93880107D01*
X105176673Y-93889674D01*
X105173350Y-93898960D01*
X105169133Y-93907875D01*
X105164063Y-93916335D01*
X105158188Y-93924257D01*
X105151564Y-93931564D01*
X105144257Y-93938188D01*
X105136335Y-93944063D01*
X105127875Y-93949133D01*
X105118960Y-93953350D01*
X105109674Y-93956673D01*
X105100107Y-93959069D01*
X105090351Y-93960516D01*
X105080500Y-93961000D01*
X103704500Y-93961000D01*
X103694649Y-93960516D01*
X103684893Y-93959069D01*
X103675326Y-93956673D01*
X103666040Y-93953350D01*
X103657125Y-93949133D01*
X103648665Y-93944063D01*
X103640743Y-93938188D01*
X103633436Y-93931564D01*
X103626812Y-93924257D01*
X103620937Y-93916335D01*
X103615867Y-93907875D01*
X103611650Y-93898960D01*
X103608327Y-93889674D01*
X103605931Y-93880107D01*
X103604484Y-93870351D01*
X103604000Y-93860500D01*
X103604000Y-93659500D01*
X103604484Y-93649649D01*
X103605931Y-93639893D01*
X103608327Y-93630326D01*
X103611650Y-93621040D01*
X103615867Y-93612125D01*
X103620937Y-93603665D01*
X103626812Y-93595743D01*
X103633436Y-93588436D01*
X103640743Y-93581812D01*
X103648665Y-93575937D01*
X103657125Y-93570867D01*
X103666040Y-93566650D01*
X103675326Y-93563327D01*
X103684893Y-93560931D01*
X103694649Y-93559484D01*
X103704500Y-93559000D01*
X105080500Y-93559000D01*
X105090351Y-93559484D01*
G37*
G36*
X103090351Y-91559484D02*
G01*
X103100107Y-91560931D01*
X103109674Y-91563327D01*
X103118960Y-91566650D01*
X103127875Y-91570867D01*
X103136335Y-91575937D01*
X103144257Y-91581812D01*
X103151564Y-91588436D01*
X103158188Y-91595743D01*
X103164063Y-91603665D01*
X103169133Y-91612125D01*
X103173350Y-91621040D01*
X103176673Y-91630326D01*
X103179069Y-91639893D01*
X103180516Y-91649649D01*
X103181000Y-91659500D01*
X103181000Y-93035500D01*
X103180516Y-93045351D01*
X103179069Y-93055107D01*
X103176673Y-93064674D01*
X103173350Y-93073960D01*
X103169133Y-93082875D01*
X103164063Y-93091335D01*
X103158188Y-93099257D01*
X103151564Y-93106564D01*
X103144257Y-93113188D01*
X103136335Y-93119063D01*
X103127875Y-93124133D01*
X103118960Y-93128350D01*
X103109674Y-93131673D01*
X103100107Y-93134069D01*
X103090351Y-93135516D01*
X103080500Y-93136000D01*
X102879500Y-93136000D01*
X102869649Y-93135516D01*
X102859893Y-93134069D01*
X102850326Y-93131673D01*
X102841040Y-93128350D01*
X102832125Y-93124133D01*
X102823665Y-93119063D01*
X102815743Y-93113188D01*
X102808436Y-93106564D01*
X102801812Y-93099257D01*
X102795937Y-93091335D01*
X102790867Y-93082875D01*
X102786650Y-93073960D01*
X102783327Y-93064674D01*
X102780931Y-93055107D01*
X102779484Y-93045351D01*
X102779000Y-93035500D01*
X102779000Y-91659500D01*
X102779484Y-91649649D01*
X102780931Y-91639893D01*
X102783327Y-91630326D01*
X102786650Y-91621040D01*
X102790867Y-91612125D01*
X102795937Y-91603665D01*
X102801812Y-91595743D01*
X102808436Y-91588436D01*
X102815743Y-91581812D01*
X102823665Y-91575937D01*
X102832125Y-91570867D01*
X102841040Y-91566650D01*
X102850326Y-91563327D01*
X102859893Y-91560931D01*
X102869649Y-91559484D01*
X102879500Y-91559000D01*
X103080500Y-91559000D01*
X103090351Y-91559484D01*
G37*
G36*
X102590351Y-91559484D02*
G01*
X102600107Y-91560931D01*
X102609674Y-91563327D01*
X102618960Y-91566650D01*
X102627875Y-91570867D01*
X102636335Y-91575937D01*
X102644257Y-91581812D01*
X102651564Y-91588436D01*
X102658188Y-91595743D01*
X102664063Y-91603665D01*
X102669133Y-91612125D01*
X102673350Y-91621040D01*
X102676673Y-91630326D01*
X102679069Y-91639893D01*
X102680516Y-91649649D01*
X102681000Y-91659500D01*
X102681000Y-93035500D01*
X102680516Y-93045351D01*
X102679069Y-93055107D01*
X102676673Y-93064674D01*
X102673350Y-93073960D01*
X102669133Y-93082875D01*
X102664063Y-93091335D01*
X102658188Y-93099257D01*
X102651564Y-93106564D01*
X102644257Y-93113188D01*
X102636335Y-93119063D01*
X102627875Y-93124133D01*
X102618960Y-93128350D01*
X102609674Y-93131673D01*
X102600107Y-93134069D01*
X102590351Y-93135516D01*
X102580500Y-93136000D01*
X102379500Y-93136000D01*
X102369649Y-93135516D01*
X102359893Y-93134069D01*
X102350326Y-93131673D01*
X102341040Y-93128350D01*
X102332125Y-93124133D01*
X102323665Y-93119063D01*
X102315743Y-93113188D01*
X102308436Y-93106564D01*
X102301812Y-93099257D01*
X102295937Y-93091335D01*
X102290867Y-93082875D01*
X102286650Y-93073960D01*
X102283327Y-93064674D01*
X102280931Y-93055107D01*
X102279484Y-93045351D01*
X102279000Y-93035500D01*
X102279000Y-91659500D01*
X102279484Y-91649649D01*
X102280931Y-91639893D01*
X102283327Y-91630326D01*
X102286650Y-91621040D01*
X102290867Y-91612125D01*
X102295937Y-91603665D01*
X102301812Y-91595743D01*
X102308436Y-91588436D01*
X102315743Y-91581812D01*
X102323665Y-91575937D01*
X102332125Y-91570867D01*
X102341040Y-91566650D01*
X102350326Y-91563327D01*
X102359893Y-91560931D01*
X102369649Y-91559484D01*
X102379500Y-91559000D01*
X102580500Y-91559000D01*
X102590351Y-91559484D01*
G37*
G36*
X102090351Y-91559484D02*
G01*
X102100107Y-91560931D01*
X102109674Y-91563327D01*
X102118960Y-91566650D01*
X102127875Y-91570867D01*
X102136335Y-91575937D01*
X102144257Y-91581812D01*
X102151564Y-91588436D01*
X102158188Y-91595743D01*
X102164063Y-91603665D01*
X102169133Y-91612125D01*
X102173350Y-91621040D01*
X102176673Y-91630326D01*
X102179069Y-91639893D01*
X102180516Y-91649649D01*
X102181000Y-91659500D01*
X102181000Y-93035500D01*
X102180516Y-93045351D01*
X102179069Y-93055107D01*
X102176673Y-93064674D01*
X102173350Y-93073960D01*
X102169133Y-93082875D01*
X102164063Y-93091335D01*
X102158188Y-93099257D01*
X102151564Y-93106564D01*
X102144257Y-93113188D01*
X102136335Y-93119063D01*
X102127875Y-93124133D01*
X102118960Y-93128350D01*
X102109674Y-93131673D01*
X102100107Y-93134069D01*
X102090351Y-93135516D01*
X102080500Y-93136000D01*
X101879500Y-93136000D01*
X101869649Y-93135516D01*
X101859893Y-93134069D01*
X101850326Y-93131673D01*
X101841040Y-93128350D01*
X101832125Y-93124133D01*
X101823665Y-93119063D01*
X101815743Y-93113188D01*
X101808436Y-93106564D01*
X101801812Y-93099257D01*
X101795937Y-93091335D01*
X101790867Y-93082875D01*
X101786650Y-93073960D01*
X101783327Y-93064674D01*
X101780931Y-93055107D01*
X101779484Y-93045351D01*
X101779000Y-93035500D01*
X101779000Y-91659500D01*
X101779484Y-91649649D01*
X101780931Y-91639893D01*
X101783327Y-91630326D01*
X101786650Y-91621040D01*
X101790867Y-91612125D01*
X101795937Y-91603665D01*
X101801812Y-91595743D01*
X101808436Y-91588436D01*
X101815743Y-91581812D01*
X101823665Y-91575937D01*
X101832125Y-91570867D01*
X101841040Y-91566650D01*
X101850326Y-91563327D01*
X101859893Y-91560931D01*
X101869649Y-91559484D01*
X101879500Y-91559000D01*
X102080500Y-91559000D01*
X102090351Y-91559484D01*
G37*
G36*
X101590351Y-91559484D02*
G01*
X101600107Y-91560931D01*
X101609674Y-91563327D01*
X101618960Y-91566650D01*
X101627875Y-91570867D01*
X101636335Y-91575937D01*
X101644257Y-91581812D01*
X101651564Y-91588436D01*
X101658188Y-91595743D01*
X101664063Y-91603665D01*
X101669133Y-91612125D01*
X101673350Y-91621040D01*
X101676673Y-91630326D01*
X101679069Y-91639893D01*
X101680516Y-91649649D01*
X101681000Y-91659500D01*
X101681000Y-93035500D01*
X101680516Y-93045351D01*
X101679069Y-93055107D01*
X101676673Y-93064674D01*
X101673350Y-93073960D01*
X101669133Y-93082875D01*
X101664063Y-93091335D01*
X101658188Y-93099257D01*
X101651564Y-93106564D01*
X101644257Y-93113188D01*
X101636335Y-93119063D01*
X101627875Y-93124133D01*
X101618960Y-93128350D01*
X101609674Y-93131673D01*
X101600107Y-93134069D01*
X101590351Y-93135516D01*
X101580500Y-93136000D01*
X101379500Y-93136000D01*
X101369649Y-93135516D01*
X101359893Y-93134069D01*
X101350326Y-93131673D01*
X101341040Y-93128350D01*
X101332125Y-93124133D01*
X101323665Y-93119063D01*
X101315743Y-93113188D01*
X101308436Y-93106564D01*
X101301812Y-93099257D01*
X101295937Y-93091335D01*
X101290867Y-93082875D01*
X101286650Y-93073960D01*
X101283327Y-93064674D01*
X101280931Y-93055107D01*
X101279484Y-93045351D01*
X101279000Y-93035500D01*
X101279000Y-91659500D01*
X101279484Y-91649649D01*
X101280931Y-91639893D01*
X101283327Y-91630326D01*
X101286650Y-91621040D01*
X101290867Y-91612125D01*
X101295937Y-91603665D01*
X101301812Y-91595743D01*
X101308436Y-91588436D01*
X101315743Y-91581812D01*
X101323665Y-91575937D01*
X101332125Y-91570867D01*
X101341040Y-91566650D01*
X101350326Y-91563327D01*
X101359893Y-91560931D01*
X101369649Y-91559484D01*
X101379500Y-91559000D01*
X101580500Y-91559000D01*
X101590351Y-91559484D01*
G37*
G36*
X101090351Y-91559484D02*
G01*
X101100107Y-91560931D01*
X101109674Y-91563327D01*
X101118960Y-91566650D01*
X101127875Y-91570867D01*
X101136335Y-91575937D01*
X101144257Y-91581812D01*
X101151564Y-91588436D01*
X101158188Y-91595743D01*
X101164063Y-91603665D01*
X101169133Y-91612125D01*
X101173350Y-91621040D01*
X101176673Y-91630326D01*
X101179069Y-91639893D01*
X101180516Y-91649649D01*
X101181000Y-91659500D01*
X101181000Y-93035500D01*
X101180516Y-93045351D01*
X101179069Y-93055107D01*
X101176673Y-93064674D01*
X101173350Y-93073960D01*
X101169133Y-93082875D01*
X101164063Y-93091335D01*
X101158188Y-93099257D01*
X101151564Y-93106564D01*
X101144257Y-93113188D01*
X101136335Y-93119063D01*
X101127875Y-93124133D01*
X101118960Y-93128350D01*
X101109674Y-93131673D01*
X101100107Y-93134069D01*
X101090351Y-93135516D01*
X101080500Y-93136000D01*
X100879500Y-93136000D01*
X100869649Y-93135516D01*
X100859893Y-93134069D01*
X100850326Y-93131673D01*
X100841040Y-93128350D01*
X100832125Y-93124133D01*
X100823665Y-93119063D01*
X100815743Y-93113188D01*
X100808436Y-93106564D01*
X100801812Y-93099257D01*
X100795937Y-93091335D01*
X100790867Y-93082875D01*
X100786650Y-93073960D01*
X100783327Y-93064674D01*
X100780931Y-93055107D01*
X100779484Y-93045351D01*
X100779000Y-93035500D01*
X100779000Y-91659500D01*
X100779484Y-91649649D01*
X100780931Y-91639893D01*
X100783327Y-91630326D01*
X100786650Y-91621040D01*
X100790867Y-91612125D01*
X100795937Y-91603665D01*
X100801812Y-91595743D01*
X100808436Y-91588436D01*
X100815743Y-91581812D01*
X100823665Y-91575937D01*
X100832125Y-91570867D01*
X100841040Y-91566650D01*
X100850326Y-91563327D01*
X100859893Y-91560931D01*
X100869649Y-91559484D01*
X100879500Y-91559000D01*
X101080500Y-91559000D01*
X101090351Y-91559484D01*
G37*
G36*
X100590351Y-91559484D02*
G01*
X100600107Y-91560931D01*
X100609674Y-91563327D01*
X100618960Y-91566650D01*
X100627875Y-91570867D01*
X100636335Y-91575937D01*
X100644257Y-91581812D01*
X100651564Y-91588436D01*
X100658188Y-91595743D01*
X100664063Y-91603665D01*
X100669133Y-91612125D01*
X100673350Y-91621040D01*
X100676673Y-91630326D01*
X100679069Y-91639893D01*
X100680516Y-91649649D01*
X100681000Y-91659500D01*
X100681000Y-93035500D01*
X100680516Y-93045351D01*
X100679069Y-93055107D01*
X100676673Y-93064674D01*
X100673350Y-93073960D01*
X100669133Y-93082875D01*
X100664063Y-93091335D01*
X100658188Y-93099257D01*
X100651564Y-93106564D01*
X100644257Y-93113188D01*
X100636335Y-93119063D01*
X100627875Y-93124133D01*
X100618960Y-93128350D01*
X100609674Y-93131673D01*
X100600107Y-93134069D01*
X100590351Y-93135516D01*
X100580500Y-93136000D01*
X100379500Y-93136000D01*
X100369649Y-93135516D01*
X100359893Y-93134069D01*
X100350326Y-93131673D01*
X100341040Y-93128350D01*
X100332125Y-93124133D01*
X100323665Y-93119063D01*
X100315743Y-93113188D01*
X100308436Y-93106564D01*
X100301812Y-93099257D01*
X100295937Y-93091335D01*
X100290867Y-93082875D01*
X100286650Y-93073960D01*
X100283327Y-93064674D01*
X100280931Y-93055107D01*
X100279484Y-93045351D01*
X100279000Y-93035500D01*
X100279000Y-91659500D01*
X100279484Y-91649649D01*
X100280931Y-91639893D01*
X100283327Y-91630326D01*
X100286650Y-91621040D01*
X100290867Y-91612125D01*
X100295937Y-91603665D01*
X100301812Y-91595743D01*
X100308436Y-91588436D01*
X100315743Y-91581812D01*
X100323665Y-91575937D01*
X100332125Y-91570867D01*
X100341040Y-91566650D01*
X100350326Y-91563327D01*
X100359893Y-91560931D01*
X100369649Y-91559484D01*
X100379500Y-91559000D01*
X100580500Y-91559000D01*
X100590351Y-91559484D01*
G37*
G36*
X100090351Y-91559484D02*
G01*
X100100107Y-91560931D01*
X100109674Y-91563327D01*
X100118960Y-91566650D01*
X100127875Y-91570867D01*
X100136335Y-91575937D01*
X100144257Y-91581812D01*
X100151564Y-91588436D01*
X100158188Y-91595743D01*
X100164063Y-91603665D01*
X100169133Y-91612125D01*
X100173350Y-91621040D01*
X100176673Y-91630326D01*
X100179069Y-91639893D01*
X100180516Y-91649649D01*
X100181000Y-91659500D01*
X100181000Y-93035500D01*
X100180516Y-93045351D01*
X100179069Y-93055107D01*
X100176673Y-93064674D01*
X100173350Y-93073960D01*
X100169133Y-93082875D01*
X100164063Y-93091335D01*
X100158188Y-93099257D01*
X100151564Y-93106564D01*
X100144257Y-93113188D01*
X100136335Y-93119063D01*
X100127875Y-93124133D01*
X100118960Y-93128350D01*
X100109674Y-93131673D01*
X100100107Y-93134069D01*
X100090351Y-93135516D01*
X100080500Y-93136000D01*
X99879500Y-93136000D01*
X99869649Y-93135516D01*
X99859893Y-93134069D01*
X99850326Y-93131673D01*
X99841040Y-93128350D01*
X99832125Y-93124133D01*
X99823665Y-93119063D01*
X99815743Y-93113188D01*
X99808436Y-93106564D01*
X99801812Y-93099257D01*
X99795937Y-93091335D01*
X99790867Y-93082875D01*
X99786650Y-93073960D01*
X99783327Y-93064674D01*
X99780931Y-93055107D01*
X99779484Y-93045351D01*
X99779000Y-93035500D01*
X99779000Y-91659500D01*
X99779484Y-91649649D01*
X99780931Y-91639893D01*
X99783327Y-91630326D01*
X99786650Y-91621040D01*
X99790867Y-91612125D01*
X99795937Y-91603665D01*
X99801812Y-91595743D01*
X99808436Y-91588436D01*
X99815743Y-91581812D01*
X99823665Y-91575937D01*
X99832125Y-91570867D01*
X99841040Y-91566650D01*
X99850326Y-91563327D01*
X99859893Y-91560931D01*
X99869649Y-91559484D01*
X99879500Y-91559000D01*
X100080500Y-91559000D01*
X100090351Y-91559484D01*
G37*
G36*
X99590351Y-91559484D02*
G01*
X99600107Y-91560931D01*
X99609674Y-91563327D01*
X99618960Y-91566650D01*
X99627875Y-91570867D01*
X99636335Y-91575937D01*
X99644257Y-91581812D01*
X99651564Y-91588436D01*
X99658188Y-91595743D01*
X99664063Y-91603665D01*
X99669133Y-91612125D01*
X99673350Y-91621040D01*
X99676673Y-91630326D01*
X99679069Y-91639893D01*
X99680516Y-91649649D01*
X99681000Y-91659500D01*
X99681000Y-93035500D01*
X99680516Y-93045351D01*
X99679069Y-93055107D01*
X99676673Y-93064674D01*
X99673350Y-93073960D01*
X99669133Y-93082875D01*
X99664063Y-93091335D01*
X99658188Y-93099257D01*
X99651564Y-93106564D01*
X99644257Y-93113188D01*
X99636335Y-93119063D01*
X99627875Y-93124133D01*
X99618960Y-93128350D01*
X99609674Y-93131673D01*
X99600107Y-93134069D01*
X99590351Y-93135516D01*
X99580500Y-93136000D01*
X99379500Y-93136000D01*
X99369649Y-93135516D01*
X99359893Y-93134069D01*
X99350326Y-93131673D01*
X99341040Y-93128350D01*
X99332125Y-93124133D01*
X99323665Y-93119063D01*
X99315743Y-93113188D01*
X99308436Y-93106564D01*
X99301812Y-93099257D01*
X99295937Y-93091335D01*
X99290867Y-93082875D01*
X99286650Y-93073960D01*
X99283327Y-93064674D01*
X99280931Y-93055107D01*
X99279484Y-93045351D01*
X99279000Y-93035500D01*
X99279000Y-91659500D01*
X99279484Y-91649649D01*
X99280931Y-91639893D01*
X99283327Y-91630326D01*
X99286650Y-91621040D01*
X99290867Y-91612125D01*
X99295937Y-91603665D01*
X99301812Y-91595743D01*
X99308436Y-91588436D01*
X99315743Y-91581812D01*
X99323665Y-91575937D01*
X99332125Y-91570867D01*
X99341040Y-91566650D01*
X99350326Y-91563327D01*
X99359893Y-91560931D01*
X99369649Y-91559484D01*
X99379500Y-91559000D01*
X99580500Y-91559000D01*
X99590351Y-91559484D01*
G37*
G36*
X99090351Y-91559484D02*
G01*
X99100107Y-91560931D01*
X99109674Y-91563327D01*
X99118960Y-91566650D01*
X99127875Y-91570867D01*
X99136335Y-91575937D01*
X99144257Y-91581812D01*
X99151564Y-91588436D01*
X99158188Y-91595743D01*
X99164063Y-91603665D01*
X99169133Y-91612125D01*
X99173350Y-91621040D01*
X99176673Y-91630326D01*
X99179069Y-91639893D01*
X99180516Y-91649649D01*
X99181000Y-91659500D01*
X99181000Y-93035500D01*
X99180516Y-93045351D01*
X99179069Y-93055107D01*
X99176673Y-93064674D01*
X99173350Y-93073960D01*
X99169133Y-93082875D01*
X99164063Y-93091335D01*
X99158188Y-93099257D01*
X99151564Y-93106564D01*
X99144257Y-93113188D01*
X99136335Y-93119063D01*
X99127875Y-93124133D01*
X99118960Y-93128350D01*
X99109674Y-93131673D01*
X99100107Y-93134069D01*
X99090351Y-93135516D01*
X99080500Y-93136000D01*
X98879500Y-93136000D01*
X98869649Y-93135516D01*
X98859893Y-93134069D01*
X98850326Y-93131673D01*
X98841040Y-93128350D01*
X98832125Y-93124133D01*
X98823665Y-93119063D01*
X98815743Y-93113188D01*
X98808436Y-93106564D01*
X98801812Y-93099257D01*
X98795937Y-93091335D01*
X98790867Y-93082875D01*
X98786650Y-93073960D01*
X98783327Y-93064674D01*
X98780931Y-93055107D01*
X98779484Y-93045351D01*
X98779000Y-93035500D01*
X98779000Y-91659500D01*
X98779484Y-91649649D01*
X98780931Y-91639893D01*
X98783327Y-91630326D01*
X98786650Y-91621040D01*
X98790867Y-91612125D01*
X98795937Y-91603665D01*
X98801812Y-91595743D01*
X98808436Y-91588436D01*
X98815743Y-91581812D01*
X98823665Y-91575937D01*
X98832125Y-91570867D01*
X98841040Y-91566650D01*
X98850326Y-91563327D01*
X98859893Y-91560931D01*
X98869649Y-91559484D01*
X98879500Y-91559000D01*
X99080500Y-91559000D01*
X99090351Y-91559484D01*
G37*
G36*
X98590351Y-91559484D02*
G01*
X98600107Y-91560931D01*
X98609674Y-91563327D01*
X98618960Y-91566650D01*
X98627875Y-91570867D01*
X98636335Y-91575937D01*
X98644257Y-91581812D01*
X98651564Y-91588436D01*
X98658188Y-91595743D01*
X98664063Y-91603665D01*
X98669133Y-91612125D01*
X98673350Y-91621040D01*
X98676673Y-91630326D01*
X98679069Y-91639893D01*
X98680516Y-91649649D01*
X98681000Y-91659500D01*
X98681000Y-93035500D01*
X98680516Y-93045351D01*
X98679069Y-93055107D01*
X98676673Y-93064674D01*
X98673350Y-93073960D01*
X98669133Y-93082875D01*
X98664063Y-93091335D01*
X98658188Y-93099257D01*
X98651564Y-93106564D01*
X98644257Y-93113188D01*
X98636335Y-93119063D01*
X98627875Y-93124133D01*
X98618960Y-93128350D01*
X98609674Y-93131673D01*
X98600107Y-93134069D01*
X98590351Y-93135516D01*
X98580500Y-93136000D01*
X98379500Y-93136000D01*
X98369649Y-93135516D01*
X98359893Y-93134069D01*
X98350326Y-93131673D01*
X98341040Y-93128350D01*
X98332125Y-93124133D01*
X98323665Y-93119063D01*
X98315743Y-93113188D01*
X98308436Y-93106564D01*
X98301812Y-93099257D01*
X98295937Y-93091335D01*
X98290867Y-93082875D01*
X98286650Y-93073960D01*
X98283327Y-93064674D01*
X98280931Y-93055107D01*
X98279484Y-93045351D01*
X98279000Y-93035500D01*
X98279000Y-91659500D01*
X98279484Y-91649649D01*
X98280931Y-91639893D01*
X98283327Y-91630326D01*
X98286650Y-91621040D01*
X98290867Y-91612125D01*
X98295937Y-91603665D01*
X98301812Y-91595743D01*
X98308436Y-91588436D01*
X98315743Y-91581812D01*
X98323665Y-91575937D01*
X98332125Y-91570867D01*
X98341040Y-91566650D01*
X98350326Y-91563327D01*
X98359893Y-91560931D01*
X98369649Y-91559484D01*
X98379500Y-91559000D01*
X98580500Y-91559000D01*
X98590351Y-91559484D01*
G37*
G36*
X98090351Y-91559484D02*
G01*
X98100107Y-91560931D01*
X98109674Y-91563327D01*
X98118960Y-91566650D01*
X98127875Y-91570867D01*
X98136335Y-91575937D01*
X98144257Y-91581812D01*
X98151564Y-91588436D01*
X98158188Y-91595743D01*
X98164063Y-91603665D01*
X98169133Y-91612125D01*
X98173350Y-91621040D01*
X98176673Y-91630326D01*
X98179069Y-91639893D01*
X98180516Y-91649649D01*
X98181000Y-91659500D01*
X98181000Y-93035500D01*
X98180516Y-93045351D01*
X98179069Y-93055107D01*
X98176673Y-93064674D01*
X98173350Y-93073960D01*
X98169133Y-93082875D01*
X98164063Y-93091335D01*
X98158188Y-93099257D01*
X98151564Y-93106564D01*
X98144257Y-93113188D01*
X98136335Y-93119063D01*
X98127875Y-93124133D01*
X98118960Y-93128350D01*
X98109674Y-93131673D01*
X98100107Y-93134069D01*
X98090351Y-93135516D01*
X98080500Y-93136000D01*
X97879500Y-93136000D01*
X97869649Y-93135516D01*
X97859893Y-93134069D01*
X97850326Y-93131673D01*
X97841040Y-93128350D01*
X97832125Y-93124133D01*
X97823665Y-93119063D01*
X97815743Y-93113188D01*
X97808436Y-93106564D01*
X97801812Y-93099257D01*
X97795937Y-93091335D01*
X97790867Y-93082875D01*
X97786650Y-93073960D01*
X97783327Y-93064674D01*
X97780931Y-93055107D01*
X97779484Y-93045351D01*
X97779000Y-93035500D01*
X97779000Y-91659500D01*
X97779484Y-91649649D01*
X97780931Y-91639893D01*
X97783327Y-91630326D01*
X97786650Y-91621040D01*
X97790867Y-91612125D01*
X97795937Y-91603665D01*
X97801812Y-91595743D01*
X97808436Y-91588436D01*
X97815743Y-91581812D01*
X97823665Y-91575937D01*
X97832125Y-91570867D01*
X97841040Y-91566650D01*
X97850326Y-91563327D01*
X97859893Y-91560931D01*
X97869649Y-91559484D01*
X97879500Y-91559000D01*
X98080500Y-91559000D01*
X98090351Y-91559484D01*
G37*
G36*
X97590351Y-91559484D02*
G01*
X97600107Y-91560931D01*
X97609674Y-91563327D01*
X97618960Y-91566650D01*
X97627875Y-91570867D01*
X97636335Y-91575937D01*
X97644257Y-91581812D01*
X97651564Y-91588436D01*
X97658188Y-91595743D01*
X97664063Y-91603665D01*
X97669133Y-91612125D01*
X97673350Y-91621040D01*
X97676673Y-91630326D01*
X97679069Y-91639893D01*
X97680516Y-91649649D01*
X97681000Y-91659500D01*
X97681000Y-93035500D01*
X97680516Y-93045351D01*
X97679069Y-93055107D01*
X97676673Y-93064674D01*
X97673350Y-93073960D01*
X97669133Y-93082875D01*
X97664063Y-93091335D01*
X97658188Y-93099257D01*
X97651564Y-93106564D01*
X97644257Y-93113188D01*
X97636335Y-93119063D01*
X97627875Y-93124133D01*
X97618960Y-93128350D01*
X97609674Y-93131673D01*
X97600107Y-93134069D01*
X97590351Y-93135516D01*
X97580500Y-93136000D01*
X97379500Y-93136000D01*
X97369649Y-93135516D01*
X97359893Y-93134069D01*
X97350326Y-93131673D01*
X97341040Y-93128350D01*
X97332125Y-93124133D01*
X97323665Y-93119063D01*
X97315743Y-93113188D01*
X97308436Y-93106564D01*
X97301812Y-93099257D01*
X97295937Y-93091335D01*
X97290867Y-93082875D01*
X97286650Y-93073960D01*
X97283327Y-93064674D01*
X97280931Y-93055107D01*
X97279484Y-93045351D01*
X97279000Y-93035500D01*
X97279000Y-91659500D01*
X97279484Y-91649649D01*
X97280931Y-91639893D01*
X97283327Y-91630326D01*
X97286650Y-91621040D01*
X97290867Y-91612125D01*
X97295937Y-91603665D01*
X97301812Y-91595743D01*
X97308436Y-91588436D01*
X97315743Y-91581812D01*
X97323665Y-91575937D01*
X97332125Y-91570867D01*
X97341040Y-91566650D01*
X97350326Y-91563327D01*
X97359893Y-91560931D01*
X97369649Y-91559484D01*
X97379500Y-91559000D01*
X97580500Y-91559000D01*
X97590351Y-91559484D01*
G37*
%TD*%
%TO.C,R10*%
G36*
X105850691Y-103370176D02*
G01*
X105874401Y-103373693D01*
X105897652Y-103379517D01*
X105920220Y-103387592D01*
X105941889Y-103397841D01*
X105962448Y-103410164D01*
X105981701Y-103424442D01*
X105999461Y-103440539D01*
X106015558Y-103458299D01*
X106029836Y-103477552D01*
X106042159Y-103498111D01*
X106052408Y-103519780D01*
X106060483Y-103542348D01*
X106066307Y-103565599D01*
X106069824Y-103589309D01*
X106071000Y-103613250D01*
X106071000Y-104101750D01*
X106069824Y-104125691D01*
X106066307Y-104149401D01*
X106060483Y-104172652D01*
X106052408Y-104195220D01*
X106042159Y-104216889D01*
X106029836Y-104237448D01*
X106015558Y-104256701D01*
X105999461Y-104274461D01*
X105981701Y-104290558D01*
X105962448Y-104304836D01*
X105941889Y-104317159D01*
X105920220Y-104327408D01*
X105897652Y-104335483D01*
X105874401Y-104341307D01*
X105850691Y-104344824D01*
X105826750Y-104346000D01*
X105263250Y-104346000D01*
X105239309Y-104344824D01*
X105215599Y-104341307D01*
X105192348Y-104335483D01*
X105169780Y-104327408D01*
X105148111Y-104317159D01*
X105127552Y-104304836D01*
X105108299Y-104290558D01*
X105090539Y-104274461D01*
X105074442Y-104256701D01*
X105060164Y-104237448D01*
X105047841Y-104216889D01*
X105037592Y-104195220D01*
X105029517Y-104172652D01*
X105023693Y-104149401D01*
X105020176Y-104125691D01*
X105019000Y-104101750D01*
X105019000Y-103613250D01*
X105020176Y-103589309D01*
X105023693Y-103565599D01*
X105029517Y-103542348D01*
X105037592Y-103519780D01*
X105047841Y-103498111D01*
X105060164Y-103477552D01*
X105074442Y-103458299D01*
X105090539Y-103440539D01*
X105108299Y-103424442D01*
X105127552Y-103410164D01*
X105148111Y-103397841D01*
X105169780Y-103387592D01*
X105192348Y-103379517D01*
X105215599Y-103373693D01*
X105239309Y-103370176D01*
X105263250Y-103369000D01*
X105826750Y-103369000D01*
X105850691Y-103370176D01*
G37*
G36*
X105850691Y-101795176D02*
G01*
X105874401Y-101798693D01*
X105897652Y-101804517D01*
X105920220Y-101812592D01*
X105941889Y-101822841D01*
X105962448Y-101835164D01*
X105981701Y-101849442D01*
X105999461Y-101865539D01*
X106015558Y-101883299D01*
X106029836Y-101902552D01*
X106042159Y-101923111D01*
X106052408Y-101944780D01*
X106060483Y-101967348D01*
X106066307Y-101990599D01*
X106069824Y-102014309D01*
X106071000Y-102038250D01*
X106071000Y-102526750D01*
X106069824Y-102550691D01*
X106066307Y-102574401D01*
X106060483Y-102597652D01*
X106052408Y-102620220D01*
X106042159Y-102641889D01*
X106029836Y-102662448D01*
X106015558Y-102681701D01*
X105999461Y-102699461D01*
X105981701Y-102715558D01*
X105962448Y-102729836D01*
X105941889Y-102742159D01*
X105920220Y-102752408D01*
X105897652Y-102760483D01*
X105874401Y-102766307D01*
X105850691Y-102769824D01*
X105826750Y-102771000D01*
X105263250Y-102771000D01*
X105239309Y-102769824D01*
X105215599Y-102766307D01*
X105192348Y-102760483D01*
X105169780Y-102752408D01*
X105148111Y-102742159D01*
X105127552Y-102729836D01*
X105108299Y-102715558D01*
X105090539Y-102699461D01*
X105074442Y-102681701D01*
X105060164Y-102662448D01*
X105047841Y-102641889D01*
X105037592Y-102620220D01*
X105029517Y-102597652D01*
X105023693Y-102574401D01*
X105020176Y-102550691D01*
X105019000Y-102526750D01*
X105019000Y-102038250D01*
X105020176Y-102014309D01*
X105023693Y-101990599D01*
X105029517Y-101967348D01*
X105037592Y-101944780D01*
X105047841Y-101923111D01*
X105060164Y-101902552D01*
X105074442Y-101883299D01*
X105090539Y-101865539D01*
X105108299Y-101849442D01*
X105127552Y-101835164D01*
X105148111Y-101822841D01*
X105169780Y-101812592D01*
X105192348Y-101804517D01*
X105215599Y-101798693D01*
X105239309Y-101795176D01*
X105263250Y-101794000D01*
X105826750Y-101794000D01*
X105850691Y-101795176D01*
G37*
%TD*%
%TO.C,R6*%
G36*
X109654103Y-93021876D02*
G01*
X109677915Y-93024615D01*
X109701345Y-93029676D01*
X109724165Y-93037008D01*
X109746157Y-93046542D01*
X109767109Y-93058185D01*
X109786818Y-93071827D01*
X109805096Y-93087334D01*
X109821765Y-93104558D01*
X109836666Y-93123333D01*
X109849655Y-93143478D01*
X110093905Y-93566532D01*
X110104857Y-93587853D01*
X110113666Y-93610146D01*
X110120247Y-93633194D01*
X110124538Y-93656776D01*
X110126497Y-93680666D01*
X110126105Y-93704632D01*
X110123366Y-93728444D01*
X110118305Y-93751874D01*
X110110973Y-93774694D01*
X110101439Y-93796686D01*
X110089796Y-93817638D01*
X110076154Y-93837347D01*
X110060647Y-93855625D01*
X110043423Y-93872294D01*
X110024648Y-93887195D01*
X110004503Y-93900184D01*
X109516497Y-94181934D01*
X109495176Y-94192886D01*
X109472883Y-94201695D01*
X109449835Y-94208276D01*
X109426253Y-94212567D01*
X109402363Y-94214526D01*
X109378397Y-94214134D01*
X109354585Y-94211395D01*
X109331155Y-94206334D01*
X109308335Y-94199002D01*
X109286343Y-94189468D01*
X109265391Y-94177825D01*
X109245682Y-94164183D01*
X109227404Y-94148676D01*
X109210735Y-94131452D01*
X109195834Y-94112677D01*
X109182845Y-94092532D01*
X108938595Y-93669478D01*
X108927643Y-93648157D01*
X108918834Y-93625864D01*
X108912253Y-93602816D01*
X108907962Y-93579234D01*
X108906003Y-93555344D01*
X108906395Y-93531378D01*
X108909134Y-93507566D01*
X108914195Y-93484136D01*
X108921527Y-93461316D01*
X108931061Y-93439324D01*
X108942704Y-93418372D01*
X108956346Y-93398663D01*
X108971853Y-93380385D01*
X108989077Y-93363716D01*
X109007852Y-93348815D01*
X109027997Y-93335826D01*
X109516003Y-93054076D01*
X109537324Y-93043124D01*
X109559617Y-93034315D01*
X109582665Y-93027734D01*
X109606247Y-93023443D01*
X109630137Y-93021484D01*
X109654103Y-93021876D01*
G37*
G36*
X110441603Y-94385866D02*
G01*
X110465415Y-94388605D01*
X110488845Y-94393666D01*
X110511665Y-94400998D01*
X110533657Y-94410532D01*
X110554609Y-94422175D01*
X110574318Y-94435817D01*
X110592596Y-94451324D01*
X110609265Y-94468548D01*
X110624166Y-94487323D01*
X110637155Y-94507468D01*
X110881405Y-94930522D01*
X110892357Y-94951843D01*
X110901166Y-94974136D01*
X110907747Y-94997184D01*
X110912038Y-95020766D01*
X110913997Y-95044656D01*
X110913605Y-95068622D01*
X110910866Y-95092434D01*
X110905805Y-95115864D01*
X110898473Y-95138684D01*
X110888939Y-95160676D01*
X110877296Y-95181628D01*
X110863654Y-95201337D01*
X110848147Y-95219615D01*
X110830923Y-95236284D01*
X110812148Y-95251185D01*
X110792003Y-95264174D01*
X110303997Y-95545924D01*
X110282676Y-95556876D01*
X110260383Y-95565685D01*
X110237335Y-95572266D01*
X110213753Y-95576557D01*
X110189863Y-95578516D01*
X110165897Y-95578124D01*
X110142085Y-95575385D01*
X110118655Y-95570324D01*
X110095835Y-95562992D01*
X110073843Y-95553458D01*
X110052891Y-95541815D01*
X110033182Y-95528173D01*
X110014904Y-95512666D01*
X109998235Y-95495442D01*
X109983334Y-95476667D01*
X109970345Y-95456522D01*
X109726095Y-95033468D01*
X109715143Y-95012147D01*
X109706334Y-94989854D01*
X109699753Y-94966806D01*
X109695462Y-94943224D01*
X109693503Y-94919334D01*
X109693895Y-94895368D01*
X109696634Y-94871556D01*
X109701695Y-94848126D01*
X109709027Y-94825306D01*
X109718561Y-94803314D01*
X109730204Y-94782362D01*
X109743846Y-94762653D01*
X109759353Y-94744375D01*
X109776577Y-94727706D01*
X109795352Y-94712805D01*
X109815497Y-94699816D01*
X110303503Y-94418066D01*
X110324824Y-94407114D01*
X110347117Y-94398305D01*
X110370165Y-94391724D01*
X110393747Y-94387433D01*
X110417637Y-94385474D01*
X110441603Y-94385866D01*
G37*
%TD*%
%TO.C,R5*%
G36*
X111352631Y-95911958D02*
G01*
X111376472Y-95914438D01*
X111399956Y-95919242D01*
X111422855Y-95926325D01*
X111444949Y-95935619D01*
X111466027Y-95947033D01*
X111485884Y-95960458D01*
X111504329Y-95975765D01*
X111521185Y-95992806D01*
X111536290Y-96011418D01*
X111549498Y-96031420D01*
X111560682Y-96052620D01*
X111767131Y-96495351D01*
X111776182Y-96517546D01*
X111783015Y-96540521D01*
X111787563Y-96564055D01*
X111789783Y-96587922D01*
X111789652Y-96611891D01*
X111787172Y-96635732D01*
X111782368Y-96659215D01*
X111775285Y-96682114D01*
X111765992Y-96704209D01*
X111754577Y-96725286D01*
X111741152Y-96745143D01*
X111725845Y-96763589D01*
X111708804Y-96780445D01*
X111690192Y-96795550D01*
X111670190Y-96808758D01*
X111648989Y-96819942D01*
X111138284Y-97058087D01*
X111116090Y-97067139D01*
X111093115Y-97073971D01*
X111069580Y-97078519D01*
X111045714Y-97080739D01*
X111021745Y-97080608D01*
X110997904Y-97078128D01*
X110974420Y-97073324D01*
X110951521Y-97066241D01*
X110929427Y-97056947D01*
X110908349Y-97045533D01*
X110888492Y-97032108D01*
X110870047Y-97016801D01*
X110853191Y-96999760D01*
X110838086Y-96981148D01*
X110824878Y-96961146D01*
X110813694Y-96939946D01*
X110607245Y-96497215D01*
X110598194Y-96475020D01*
X110591361Y-96452045D01*
X110586813Y-96428511D01*
X110584593Y-96404644D01*
X110584724Y-96380675D01*
X110587204Y-96356834D01*
X110592008Y-96333351D01*
X110599091Y-96310452D01*
X110608384Y-96288357D01*
X110619799Y-96267280D01*
X110633224Y-96247423D01*
X110648531Y-96228977D01*
X110665572Y-96212121D01*
X110684184Y-96197016D01*
X110704186Y-96183808D01*
X110725387Y-96172624D01*
X111236092Y-95934479D01*
X111258286Y-95925427D01*
X111281261Y-95918595D01*
X111304796Y-95914047D01*
X111328662Y-95911827D01*
X111352631Y-95911958D01*
G37*
G36*
X112018255Y-97339392D02*
G01*
X112042096Y-97341872D01*
X112065580Y-97346676D01*
X112088479Y-97353759D01*
X112110573Y-97363053D01*
X112131651Y-97374467D01*
X112151508Y-97387892D01*
X112169953Y-97403199D01*
X112186809Y-97420240D01*
X112201914Y-97438852D01*
X112215122Y-97458854D01*
X112226306Y-97480054D01*
X112432755Y-97922785D01*
X112441806Y-97944980D01*
X112448639Y-97967955D01*
X112453187Y-97991489D01*
X112455407Y-98015356D01*
X112455276Y-98039325D01*
X112452796Y-98063166D01*
X112447992Y-98086649D01*
X112440909Y-98109548D01*
X112431616Y-98131643D01*
X112420201Y-98152720D01*
X112406776Y-98172577D01*
X112391469Y-98191023D01*
X112374428Y-98207879D01*
X112355816Y-98222984D01*
X112335814Y-98236192D01*
X112314613Y-98247376D01*
X111803908Y-98485521D01*
X111781714Y-98494573D01*
X111758739Y-98501405D01*
X111735204Y-98505953D01*
X111711338Y-98508173D01*
X111687369Y-98508042D01*
X111663528Y-98505562D01*
X111640044Y-98500758D01*
X111617145Y-98493675D01*
X111595051Y-98484381D01*
X111573973Y-98472967D01*
X111554116Y-98459542D01*
X111535671Y-98444235D01*
X111518815Y-98427194D01*
X111503710Y-98408582D01*
X111490502Y-98388580D01*
X111479318Y-98367380D01*
X111272869Y-97924649D01*
X111263818Y-97902454D01*
X111256985Y-97879479D01*
X111252437Y-97855945D01*
X111250217Y-97832078D01*
X111250348Y-97808109D01*
X111252828Y-97784268D01*
X111257632Y-97760785D01*
X111264715Y-97737886D01*
X111274008Y-97715791D01*
X111285423Y-97694714D01*
X111298848Y-97674857D01*
X111314155Y-97656411D01*
X111331196Y-97639555D01*
X111349808Y-97624450D01*
X111369810Y-97611242D01*
X111391011Y-97600058D01*
X111901716Y-97361913D01*
X111923910Y-97352861D01*
X111946885Y-97346029D01*
X111970420Y-97341481D01*
X111994286Y-97339261D01*
X112018255Y-97339392D01*
G37*
%TD*%
%TO.C,R4*%
G36*
X105650691Y-88870176D02*
G01*
X105674401Y-88873693D01*
X105697652Y-88879517D01*
X105720220Y-88887592D01*
X105741889Y-88897841D01*
X105762448Y-88910164D01*
X105781701Y-88924442D01*
X105799461Y-88940539D01*
X105815558Y-88958299D01*
X105829836Y-88977552D01*
X105842159Y-88998111D01*
X105852408Y-89019780D01*
X105860483Y-89042348D01*
X105866307Y-89065599D01*
X105869824Y-89089309D01*
X105871000Y-89113250D01*
X105871000Y-89676750D01*
X105869824Y-89700691D01*
X105866307Y-89724401D01*
X105860483Y-89747652D01*
X105852408Y-89770220D01*
X105842159Y-89791889D01*
X105829836Y-89812448D01*
X105815558Y-89831701D01*
X105799461Y-89849461D01*
X105781701Y-89865558D01*
X105762448Y-89879836D01*
X105741889Y-89892159D01*
X105720220Y-89902408D01*
X105697652Y-89910483D01*
X105674401Y-89916307D01*
X105650691Y-89919824D01*
X105626750Y-89921000D01*
X105138250Y-89921000D01*
X105114309Y-89919824D01*
X105090599Y-89916307D01*
X105067348Y-89910483D01*
X105044780Y-89902408D01*
X105023111Y-89892159D01*
X105002552Y-89879836D01*
X104983299Y-89865558D01*
X104965539Y-89849461D01*
X104949442Y-89831701D01*
X104935164Y-89812448D01*
X104922841Y-89791889D01*
X104912592Y-89770220D01*
X104904517Y-89747652D01*
X104898693Y-89724401D01*
X104895176Y-89700691D01*
X104894000Y-89676750D01*
X104894000Y-89113250D01*
X104895176Y-89089309D01*
X104898693Y-89065599D01*
X104904517Y-89042348D01*
X104912592Y-89019780D01*
X104922841Y-88998111D01*
X104935164Y-88977552D01*
X104949442Y-88958299D01*
X104965539Y-88940539D01*
X104983299Y-88924442D01*
X105002552Y-88910164D01*
X105023111Y-88897841D01*
X105044780Y-88887592D01*
X105067348Y-88879517D01*
X105090599Y-88873693D01*
X105114309Y-88870176D01*
X105138250Y-88869000D01*
X105626750Y-88869000D01*
X105650691Y-88870176D01*
G37*
G36*
X104075691Y-88870176D02*
G01*
X104099401Y-88873693D01*
X104122652Y-88879517D01*
X104145220Y-88887592D01*
X104166889Y-88897841D01*
X104187448Y-88910164D01*
X104206701Y-88924442D01*
X104224461Y-88940539D01*
X104240558Y-88958299D01*
X104254836Y-88977552D01*
X104267159Y-88998111D01*
X104277408Y-89019780D01*
X104285483Y-89042348D01*
X104291307Y-89065599D01*
X104294824Y-89089309D01*
X104296000Y-89113250D01*
X104296000Y-89676750D01*
X104294824Y-89700691D01*
X104291307Y-89724401D01*
X104285483Y-89747652D01*
X104277408Y-89770220D01*
X104267159Y-89791889D01*
X104254836Y-89812448D01*
X104240558Y-89831701D01*
X104224461Y-89849461D01*
X104206701Y-89865558D01*
X104187448Y-89879836D01*
X104166889Y-89892159D01*
X104145220Y-89902408D01*
X104122652Y-89910483D01*
X104099401Y-89916307D01*
X104075691Y-89919824D01*
X104051750Y-89921000D01*
X103563250Y-89921000D01*
X103539309Y-89919824D01*
X103515599Y-89916307D01*
X103492348Y-89910483D01*
X103469780Y-89902408D01*
X103448111Y-89892159D01*
X103427552Y-89879836D01*
X103408299Y-89865558D01*
X103390539Y-89849461D01*
X103374442Y-89831701D01*
X103360164Y-89812448D01*
X103347841Y-89791889D01*
X103337592Y-89770220D01*
X103329517Y-89747652D01*
X103323693Y-89724401D01*
X103320176Y-89700691D01*
X103319000Y-89676750D01*
X103319000Y-89113250D01*
X103320176Y-89089309D01*
X103323693Y-89065599D01*
X103329517Y-89042348D01*
X103337592Y-89019780D01*
X103347841Y-88998111D01*
X103360164Y-88977552D01*
X103374442Y-88958299D01*
X103390539Y-88940539D01*
X103408299Y-88924442D01*
X103427552Y-88910164D01*
X103448111Y-88897841D01*
X103469780Y-88887592D01*
X103492348Y-88879517D01*
X103515599Y-88873693D01*
X103539309Y-88870176D01*
X103563250Y-88869000D01*
X104051750Y-88869000D01*
X104075691Y-88870176D01*
G37*
%TD*%
%TO.C,R3*%
G36*
X102625691Y-88020176D02*
G01*
X102649401Y-88023693D01*
X102672652Y-88029517D01*
X102695220Y-88037592D01*
X102716889Y-88047841D01*
X102737448Y-88060164D01*
X102756701Y-88074442D01*
X102774461Y-88090539D01*
X102790558Y-88108299D01*
X102804836Y-88127552D01*
X102817159Y-88148111D01*
X102827408Y-88169780D01*
X102835483Y-88192348D01*
X102841307Y-88215599D01*
X102844824Y-88239309D01*
X102846000Y-88263250D01*
X102846000Y-88751750D01*
X102844824Y-88775691D01*
X102841307Y-88799401D01*
X102835483Y-88822652D01*
X102827408Y-88845220D01*
X102817159Y-88866889D01*
X102804836Y-88887448D01*
X102790558Y-88906701D01*
X102774461Y-88924461D01*
X102756701Y-88940558D01*
X102737448Y-88954836D01*
X102716889Y-88967159D01*
X102695220Y-88977408D01*
X102672652Y-88985483D01*
X102649401Y-88991307D01*
X102625691Y-88994824D01*
X102601750Y-88996000D01*
X102038250Y-88996000D01*
X102014309Y-88994824D01*
X101990599Y-88991307D01*
X101967348Y-88985483D01*
X101944780Y-88977408D01*
X101923111Y-88967159D01*
X101902552Y-88954836D01*
X101883299Y-88940558D01*
X101865539Y-88924461D01*
X101849442Y-88906701D01*
X101835164Y-88887448D01*
X101822841Y-88866889D01*
X101812592Y-88845220D01*
X101804517Y-88822652D01*
X101798693Y-88799401D01*
X101795176Y-88775691D01*
X101794000Y-88751750D01*
X101794000Y-88263250D01*
X101795176Y-88239309D01*
X101798693Y-88215599D01*
X101804517Y-88192348D01*
X101812592Y-88169780D01*
X101822841Y-88148111D01*
X101835164Y-88127552D01*
X101849442Y-88108299D01*
X101865539Y-88090539D01*
X101883299Y-88074442D01*
X101902552Y-88060164D01*
X101923111Y-88047841D01*
X101944780Y-88037592D01*
X101967348Y-88029517D01*
X101990599Y-88023693D01*
X102014309Y-88020176D01*
X102038250Y-88019000D01*
X102601750Y-88019000D01*
X102625691Y-88020176D01*
G37*
G36*
X102625691Y-89595176D02*
G01*
X102649401Y-89598693D01*
X102672652Y-89604517D01*
X102695220Y-89612592D01*
X102716889Y-89622841D01*
X102737448Y-89635164D01*
X102756701Y-89649442D01*
X102774461Y-89665539D01*
X102790558Y-89683299D01*
X102804836Y-89702552D01*
X102817159Y-89723111D01*
X102827408Y-89744780D01*
X102835483Y-89767348D01*
X102841307Y-89790599D01*
X102844824Y-89814309D01*
X102846000Y-89838250D01*
X102846000Y-90326750D01*
X102844824Y-90350691D01*
X102841307Y-90374401D01*
X102835483Y-90397652D01*
X102827408Y-90420220D01*
X102817159Y-90441889D01*
X102804836Y-90462448D01*
X102790558Y-90481701D01*
X102774461Y-90499461D01*
X102756701Y-90515558D01*
X102737448Y-90529836D01*
X102716889Y-90542159D01*
X102695220Y-90552408D01*
X102672652Y-90560483D01*
X102649401Y-90566307D01*
X102625691Y-90569824D01*
X102601750Y-90571000D01*
X102038250Y-90571000D01*
X102014309Y-90569824D01*
X101990599Y-90566307D01*
X101967348Y-90560483D01*
X101944780Y-90552408D01*
X101923111Y-90542159D01*
X101902552Y-90529836D01*
X101883299Y-90515558D01*
X101865539Y-90499461D01*
X101849442Y-90481701D01*
X101835164Y-90462448D01*
X101822841Y-90441889D01*
X101812592Y-90420220D01*
X101804517Y-90397652D01*
X101798693Y-90374401D01*
X101795176Y-90350691D01*
X101794000Y-90326750D01*
X101794000Y-89838250D01*
X101795176Y-89814309D01*
X101798693Y-89790599D01*
X101804517Y-89767348D01*
X101812592Y-89744780D01*
X101822841Y-89723111D01*
X101835164Y-89702552D01*
X101849442Y-89683299D01*
X101865539Y-89665539D01*
X101883299Y-89649442D01*
X101902552Y-89635164D01*
X101923111Y-89622841D01*
X101944780Y-89612592D01*
X101967348Y-89604517D01*
X101990599Y-89598693D01*
X102014309Y-89595176D01*
X102038250Y-89594000D01*
X102601750Y-89594000D01*
X102625691Y-89595176D01*
G37*
%TD*%
%TO.C,R2*%
G36*
X92044271Y-90318141D02*
G01*
X92067981Y-90321658D01*
X92091232Y-90327482D01*
X92113800Y-90335557D01*
X92135469Y-90345806D01*
X92156028Y-90358129D01*
X92175281Y-90372407D01*
X92193041Y-90388504D01*
X92591496Y-90786959D01*
X92607593Y-90804719D01*
X92621871Y-90823972D01*
X92634194Y-90844531D01*
X92644443Y-90866200D01*
X92652518Y-90888768D01*
X92658342Y-90912019D01*
X92661859Y-90935729D01*
X92663035Y-90959670D01*
X92661859Y-90983611D01*
X92658342Y-91007321D01*
X92652518Y-91030572D01*
X92644443Y-91053140D01*
X92634194Y-91074809D01*
X92621871Y-91095368D01*
X92607593Y-91114621D01*
X92591496Y-91132381D01*
X92246075Y-91477802D01*
X92228315Y-91493899D01*
X92209062Y-91508177D01*
X92188503Y-91520500D01*
X92166834Y-91530749D01*
X92144266Y-91538824D01*
X92121015Y-91544648D01*
X92097305Y-91548165D01*
X92073364Y-91549341D01*
X92049423Y-91548165D01*
X92025713Y-91544648D01*
X92002462Y-91538824D01*
X91979894Y-91530749D01*
X91958225Y-91520500D01*
X91937666Y-91508177D01*
X91918413Y-91493899D01*
X91900653Y-91477802D01*
X91502198Y-91079347D01*
X91486101Y-91061587D01*
X91471823Y-91042334D01*
X91459500Y-91021775D01*
X91449251Y-91000106D01*
X91441176Y-90977538D01*
X91435352Y-90954287D01*
X91431835Y-90930577D01*
X91430659Y-90906636D01*
X91431835Y-90882695D01*
X91435352Y-90858985D01*
X91441176Y-90835734D01*
X91449251Y-90813166D01*
X91459500Y-90791497D01*
X91471823Y-90770938D01*
X91486101Y-90751685D01*
X91502198Y-90733925D01*
X91847619Y-90388504D01*
X91865379Y-90372407D01*
X91884632Y-90358129D01*
X91905191Y-90345806D01*
X91926860Y-90335557D01*
X91949428Y-90327482D01*
X91972679Y-90321658D01*
X91996389Y-90318141D01*
X92020330Y-90316965D01*
X92044271Y-90318141D01*
G37*
G36*
X90930577Y-91431835D02*
G01*
X90954287Y-91435352D01*
X90977538Y-91441176D01*
X91000106Y-91449251D01*
X91021775Y-91459500D01*
X91042334Y-91471823D01*
X91061587Y-91486101D01*
X91079347Y-91502198D01*
X91477802Y-91900653D01*
X91493899Y-91918413D01*
X91508177Y-91937666D01*
X91520500Y-91958225D01*
X91530749Y-91979894D01*
X91538824Y-92002462D01*
X91544648Y-92025713D01*
X91548165Y-92049423D01*
X91549341Y-92073364D01*
X91548165Y-92097305D01*
X91544648Y-92121015D01*
X91538824Y-92144266D01*
X91530749Y-92166834D01*
X91520500Y-92188503D01*
X91508177Y-92209062D01*
X91493899Y-92228315D01*
X91477802Y-92246075D01*
X91132381Y-92591496D01*
X91114621Y-92607593D01*
X91095368Y-92621871D01*
X91074809Y-92634194D01*
X91053140Y-92644443D01*
X91030572Y-92652518D01*
X91007321Y-92658342D01*
X90983611Y-92661859D01*
X90959670Y-92663035D01*
X90935729Y-92661859D01*
X90912019Y-92658342D01*
X90888768Y-92652518D01*
X90866200Y-92644443D01*
X90844531Y-92634194D01*
X90823972Y-92621871D01*
X90804719Y-92607593D01*
X90786959Y-92591496D01*
X90388504Y-92193041D01*
X90372407Y-92175281D01*
X90358129Y-92156028D01*
X90345806Y-92135469D01*
X90335557Y-92113800D01*
X90327482Y-92091232D01*
X90321658Y-92067981D01*
X90318141Y-92044271D01*
X90316965Y-92020330D01*
X90318141Y-91996389D01*
X90321658Y-91972679D01*
X90327482Y-91949428D01*
X90335557Y-91926860D01*
X90345806Y-91905191D01*
X90358129Y-91884632D01*
X90372407Y-91865379D01*
X90388504Y-91847619D01*
X90733925Y-91502198D01*
X90751685Y-91486101D01*
X90770938Y-91471823D01*
X90791497Y-91459500D01*
X90813166Y-91449251D01*
X90835734Y-91441176D01*
X90858985Y-91435352D01*
X90882695Y-91431835D01*
X90906636Y-91430659D01*
X90930577Y-91431835D01*
G37*
%TD*%
%TO.C,R1*%
G36*
X95971891Y-88225348D02*
G01*
X95995732Y-88227828D01*
X96019215Y-88232632D01*
X96042114Y-88239715D01*
X96064209Y-88249008D01*
X96085286Y-88260423D01*
X96105143Y-88273848D01*
X96123589Y-88289155D01*
X96140445Y-88306196D01*
X96155550Y-88324808D01*
X96168758Y-88344810D01*
X96179942Y-88366011D01*
X96418087Y-88876716D01*
X96427139Y-88898910D01*
X96433971Y-88921885D01*
X96438519Y-88945420D01*
X96440739Y-88969286D01*
X96440608Y-88993255D01*
X96438128Y-89017096D01*
X96433324Y-89040580D01*
X96426241Y-89063479D01*
X96416947Y-89085573D01*
X96405533Y-89106651D01*
X96392108Y-89126508D01*
X96376801Y-89144953D01*
X96359760Y-89161809D01*
X96341148Y-89176914D01*
X96321146Y-89190122D01*
X96299946Y-89201306D01*
X95857215Y-89407755D01*
X95835020Y-89416806D01*
X95812045Y-89423639D01*
X95788511Y-89428187D01*
X95764644Y-89430407D01*
X95740675Y-89430276D01*
X95716834Y-89427796D01*
X95693351Y-89422992D01*
X95670452Y-89415909D01*
X95648357Y-89406616D01*
X95627280Y-89395201D01*
X95607423Y-89381776D01*
X95588977Y-89366469D01*
X95572121Y-89349428D01*
X95557016Y-89330816D01*
X95543808Y-89310814D01*
X95532624Y-89289613D01*
X95294479Y-88778908D01*
X95285427Y-88756714D01*
X95278595Y-88733739D01*
X95274047Y-88710204D01*
X95271827Y-88686338D01*
X95271958Y-88662369D01*
X95274438Y-88638528D01*
X95279242Y-88615044D01*
X95286325Y-88592145D01*
X95295619Y-88570051D01*
X95307033Y-88548973D01*
X95320458Y-88529116D01*
X95335765Y-88510671D01*
X95352806Y-88493815D01*
X95371418Y-88478710D01*
X95391420Y-88465502D01*
X95412620Y-88454318D01*
X95855351Y-88247869D01*
X95877546Y-88238818D01*
X95900521Y-88231985D01*
X95924055Y-88227437D01*
X95947922Y-88225217D01*
X95971891Y-88225348D01*
G37*
G36*
X97399325Y-87559724D02*
G01*
X97423166Y-87562204D01*
X97446649Y-87567008D01*
X97469548Y-87574091D01*
X97491643Y-87583384D01*
X97512720Y-87594799D01*
X97532577Y-87608224D01*
X97551023Y-87623531D01*
X97567879Y-87640572D01*
X97582984Y-87659184D01*
X97596192Y-87679186D01*
X97607376Y-87700387D01*
X97845521Y-88211092D01*
X97854573Y-88233286D01*
X97861405Y-88256261D01*
X97865953Y-88279796D01*
X97868173Y-88303662D01*
X97868042Y-88327631D01*
X97865562Y-88351472D01*
X97860758Y-88374956D01*
X97853675Y-88397855D01*
X97844381Y-88419949D01*
X97832967Y-88441027D01*
X97819542Y-88460884D01*
X97804235Y-88479329D01*
X97787194Y-88496185D01*
X97768582Y-88511290D01*
X97748580Y-88524498D01*
X97727380Y-88535682D01*
X97284649Y-88742131D01*
X97262454Y-88751182D01*
X97239479Y-88758015D01*
X97215945Y-88762563D01*
X97192078Y-88764783D01*
X97168109Y-88764652D01*
X97144268Y-88762172D01*
X97120785Y-88757368D01*
X97097886Y-88750285D01*
X97075791Y-88740992D01*
X97054714Y-88729577D01*
X97034857Y-88716152D01*
X97016411Y-88700845D01*
X96999555Y-88683804D01*
X96984450Y-88665192D01*
X96971242Y-88645190D01*
X96960058Y-88623989D01*
X96721913Y-88113284D01*
X96712861Y-88091090D01*
X96706029Y-88068115D01*
X96701481Y-88044580D01*
X96699261Y-88020714D01*
X96699392Y-87996745D01*
X96701872Y-87972904D01*
X96706676Y-87949420D01*
X96713759Y-87926521D01*
X96723053Y-87904427D01*
X96734467Y-87883349D01*
X96747892Y-87863492D01*
X96763199Y-87845047D01*
X96780240Y-87828191D01*
X96798852Y-87813086D01*
X96818854Y-87799878D01*
X96840054Y-87788694D01*
X97282785Y-87582245D01*
X97304980Y-87573194D01*
X97327955Y-87566361D01*
X97351489Y-87561813D01*
X97375356Y-87559593D01*
X97399325Y-87559724D01*
G37*
%TD*%
D20*
%TO.C,J3*%
X108737462Y-99603639D02*
X108737462Y-99603639D01*
X107868731Y-97216819D02*
X107868731Y-97216819D01*
D13*
G36*
X107538503Y-93675177D02*
G01*
X108154823Y-95368503D01*
X106461497Y-95984823D01*
X105845177Y-94291497D01*
X107538503Y-93675177D01*
G37*
%TD*%
%TO.C,D2*%
G36*
X94763622Y-88916395D02*
G01*
X94787434Y-88919134D01*
X94810864Y-88924195D01*
X94833684Y-88931527D01*
X94855676Y-88941061D01*
X94876628Y-88952704D01*
X94896337Y-88966346D01*
X94914615Y-88981853D01*
X94931284Y-88999077D01*
X94946185Y-89017852D01*
X94959174Y-89037997D01*
X95240924Y-89526003D01*
X95251876Y-89547324D01*
X95260685Y-89569617D01*
X95267266Y-89592665D01*
X95271557Y-89616247D01*
X95273516Y-89640137D01*
X95273124Y-89664103D01*
X95270385Y-89687915D01*
X95265324Y-89711345D01*
X95257992Y-89734165D01*
X95248458Y-89756157D01*
X95236815Y-89777109D01*
X95223173Y-89796818D01*
X95207666Y-89815096D01*
X95190442Y-89831765D01*
X95171667Y-89846666D01*
X95151522Y-89859655D01*
X94728468Y-90103905D01*
X94707147Y-90114857D01*
X94684854Y-90123666D01*
X94661806Y-90130247D01*
X94638224Y-90134538D01*
X94614334Y-90136497D01*
X94590368Y-90136105D01*
X94566556Y-90133366D01*
X94543126Y-90128305D01*
X94520306Y-90120973D01*
X94498314Y-90111439D01*
X94477362Y-90099796D01*
X94457653Y-90086154D01*
X94439375Y-90070647D01*
X94422706Y-90053423D01*
X94407805Y-90034648D01*
X94394816Y-90014503D01*
X94113066Y-89526497D01*
X94102114Y-89505176D01*
X94093305Y-89482883D01*
X94086724Y-89459835D01*
X94082433Y-89436253D01*
X94080474Y-89412363D01*
X94080866Y-89388397D01*
X94083605Y-89364585D01*
X94088666Y-89341155D01*
X94095998Y-89318335D01*
X94105532Y-89296343D01*
X94117175Y-89275391D01*
X94130817Y-89255682D01*
X94146324Y-89237404D01*
X94163548Y-89220735D01*
X94182323Y-89205834D01*
X94202468Y-89192845D01*
X94625522Y-88948595D01*
X94646843Y-88937643D01*
X94669136Y-88928834D01*
X94692184Y-88922253D01*
X94715766Y-88917962D01*
X94739656Y-88916003D01*
X94763622Y-88916395D01*
G37*
G36*
X93399632Y-89703895D02*
G01*
X93423444Y-89706634D01*
X93446874Y-89711695D01*
X93469694Y-89719027D01*
X93491686Y-89728561D01*
X93512638Y-89740204D01*
X93532347Y-89753846D01*
X93550625Y-89769353D01*
X93567294Y-89786577D01*
X93582195Y-89805352D01*
X93595184Y-89825497D01*
X93876934Y-90313503D01*
X93887886Y-90334824D01*
X93896695Y-90357117D01*
X93903276Y-90380165D01*
X93907567Y-90403747D01*
X93909526Y-90427637D01*
X93909134Y-90451603D01*
X93906395Y-90475415D01*
X93901334Y-90498845D01*
X93894002Y-90521665D01*
X93884468Y-90543657D01*
X93872825Y-90564609D01*
X93859183Y-90584318D01*
X93843676Y-90602596D01*
X93826452Y-90619265D01*
X93807677Y-90634166D01*
X93787532Y-90647155D01*
X93364478Y-90891405D01*
X93343157Y-90902357D01*
X93320864Y-90911166D01*
X93297816Y-90917747D01*
X93274234Y-90922038D01*
X93250344Y-90923997D01*
X93226378Y-90923605D01*
X93202566Y-90920866D01*
X93179136Y-90915805D01*
X93156316Y-90908473D01*
X93134324Y-90898939D01*
X93113372Y-90887296D01*
X93093663Y-90873654D01*
X93075385Y-90858147D01*
X93058716Y-90840923D01*
X93043815Y-90822148D01*
X93030826Y-90802003D01*
X92749076Y-90313997D01*
X92738124Y-90292676D01*
X92729315Y-90270383D01*
X92722734Y-90247335D01*
X92718443Y-90223753D01*
X92716484Y-90199863D01*
X92716876Y-90175897D01*
X92719615Y-90152085D01*
X92724676Y-90128655D01*
X92732008Y-90105835D01*
X92741542Y-90083843D01*
X92753185Y-90062891D01*
X92766827Y-90043182D01*
X92782334Y-90024904D01*
X92799558Y-90008235D01*
X92818333Y-89993334D01*
X92838478Y-89980345D01*
X93261532Y-89736095D01*
X93282853Y-89725143D01*
X93305146Y-89716334D01*
X93328194Y-89709753D01*
X93351776Y-89705462D01*
X93375666Y-89703503D01*
X93399632Y-89703895D01*
G37*
%TD*%
%TO.C,C19*%
G36*
X107400691Y-101070176D02*
G01*
X107424401Y-101073693D01*
X107447652Y-101079517D01*
X107470220Y-101087592D01*
X107491889Y-101097841D01*
X107512448Y-101110164D01*
X107531701Y-101124442D01*
X107549461Y-101140539D01*
X107565558Y-101158299D01*
X107579836Y-101177552D01*
X107592159Y-101198111D01*
X107602408Y-101219780D01*
X107610483Y-101242348D01*
X107616307Y-101265599D01*
X107619824Y-101289309D01*
X107621000Y-101313250D01*
X107621000Y-101801750D01*
X107619824Y-101825691D01*
X107616307Y-101849401D01*
X107610483Y-101872652D01*
X107602408Y-101895220D01*
X107592159Y-101916889D01*
X107579836Y-101937448D01*
X107565558Y-101956701D01*
X107549461Y-101974461D01*
X107531701Y-101990558D01*
X107512448Y-102004836D01*
X107491889Y-102017159D01*
X107470220Y-102027408D01*
X107447652Y-102035483D01*
X107424401Y-102041307D01*
X107400691Y-102044824D01*
X107376750Y-102046000D01*
X106813250Y-102046000D01*
X106789309Y-102044824D01*
X106765599Y-102041307D01*
X106742348Y-102035483D01*
X106719780Y-102027408D01*
X106698111Y-102017159D01*
X106677552Y-102004836D01*
X106658299Y-101990558D01*
X106640539Y-101974461D01*
X106624442Y-101956701D01*
X106610164Y-101937448D01*
X106597841Y-101916889D01*
X106587592Y-101895220D01*
X106579517Y-101872652D01*
X106573693Y-101849401D01*
X106570176Y-101825691D01*
X106569000Y-101801750D01*
X106569000Y-101313250D01*
X106570176Y-101289309D01*
X106573693Y-101265599D01*
X106579517Y-101242348D01*
X106587592Y-101219780D01*
X106597841Y-101198111D01*
X106610164Y-101177552D01*
X106624442Y-101158299D01*
X106640539Y-101140539D01*
X106658299Y-101124442D01*
X106677552Y-101110164D01*
X106698111Y-101097841D01*
X106719780Y-101087592D01*
X106742348Y-101079517D01*
X106765599Y-101073693D01*
X106789309Y-101070176D01*
X106813250Y-101069000D01*
X107376750Y-101069000D01*
X107400691Y-101070176D01*
G37*
G36*
X107400691Y-102645176D02*
G01*
X107424401Y-102648693D01*
X107447652Y-102654517D01*
X107470220Y-102662592D01*
X107491889Y-102672841D01*
X107512448Y-102685164D01*
X107531701Y-102699442D01*
X107549461Y-102715539D01*
X107565558Y-102733299D01*
X107579836Y-102752552D01*
X107592159Y-102773111D01*
X107602408Y-102794780D01*
X107610483Y-102817348D01*
X107616307Y-102840599D01*
X107619824Y-102864309D01*
X107621000Y-102888250D01*
X107621000Y-103376750D01*
X107619824Y-103400691D01*
X107616307Y-103424401D01*
X107610483Y-103447652D01*
X107602408Y-103470220D01*
X107592159Y-103491889D01*
X107579836Y-103512448D01*
X107565558Y-103531701D01*
X107549461Y-103549461D01*
X107531701Y-103565558D01*
X107512448Y-103579836D01*
X107491889Y-103592159D01*
X107470220Y-103602408D01*
X107447652Y-103610483D01*
X107424401Y-103616307D01*
X107400691Y-103619824D01*
X107376750Y-103621000D01*
X106813250Y-103621000D01*
X106789309Y-103619824D01*
X106765599Y-103616307D01*
X106742348Y-103610483D01*
X106719780Y-103602408D01*
X106698111Y-103592159D01*
X106677552Y-103579836D01*
X106658299Y-103565558D01*
X106640539Y-103549461D01*
X106624442Y-103531701D01*
X106610164Y-103512448D01*
X106597841Y-103491889D01*
X106587592Y-103470220D01*
X106579517Y-103447652D01*
X106573693Y-103424401D01*
X106570176Y-103400691D01*
X106569000Y-103376750D01*
X106569000Y-102888250D01*
X106570176Y-102864309D01*
X106573693Y-102840599D01*
X106579517Y-102817348D01*
X106587592Y-102794780D01*
X106597841Y-102773111D01*
X106610164Y-102752552D01*
X106624442Y-102733299D01*
X106640539Y-102715539D01*
X106658299Y-102699442D01*
X106677552Y-102685164D01*
X106698111Y-102672841D01*
X106719780Y-102662592D01*
X106742348Y-102654517D01*
X106765599Y-102648693D01*
X106789309Y-102645176D01*
X106813250Y-102644000D01*
X107376750Y-102644000D01*
X107400691Y-102645176D01*
G37*
%TD*%
%TO.C,C17*%
G36*
X96131482Y-110339831D02*
G01*
X96155263Y-110342830D01*
X96636342Y-110427657D01*
X96659715Y-110432972D01*
X96682454Y-110440553D01*
X96704341Y-110450326D01*
X96725164Y-110462198D01*
X96744724Y-110476053D01*
X96762831Y-110491759D01*
X96779312Y-110509163D01*
X96794007Y-110528100D01*
X96806775Y-110548386D01*
X96817494Y-110569825D01*
X96826059Y-110592212D01*
X96832389Y-110615331D01*
X96836423Y-110638958D01*
X96838121Y-110662868D01*
X96837467Y-110686828D01*
X96834468Y-110710610D01*
X96736617Y-111265549D01*
X96731302Y-111288921D01*
X96723721Y-111311661D01*
X96713948Y-111333547D01*
X96702076Y-111354371D01*
X96688221Y-111373930D01*
X96672515Y-111392037D01*
X96655110Y-111408518D01*
X96636174Y-111423213D01*
X96615888Y-111435981D01*
X96594449Y-111446700D01*
X96572062Y-111455265D01*
X96548943Y-111461595D01*
X96525315Y-111465629D01*
X96501406Y-111467327D01*
X96477446Y-111466673D01*
X96453665Y-111463674D01*
X95972586Y-111378847D01*
X95949213Y-111373532D01*
X95926474Y-111365951D01*
X95904587Y-111356178D01*
X95883764Y-111344306D01*
X95864204Y-111330451D01*
X95846097Y-111314745D01*
X95829616Y-111297341D01*
X95814921Y-111278404D01*
X95802153Y-111258118D01*
X95791434Y-111236679D01*
X95782869Y-111214292D01*
X95776539Y-111191173D01*
X95772505Y-111167546D01*
X95770807Y-111143636D01*
X95771461Y-111119676D01*
X95774460Y-111095894D01*
X95872311Y-110540955D01*
X95877626Y-110517583D01*
X95885207Y-110494843D01*
X95894980Y-110472957D01*
X95906852Y-110452133D01*
X95920707Y-110432574D01*
X95936413Y-110414467D01*
X95953818Y-110397986D01*
X95972754Y-110383291D01*
X95993040Y-110370523D01*
X96014479Y-110359804D01*
X96036866Y-110351239D01*
X96059985Y-110344909D01*
X96083613Y-110340875D01*
X96107522Y-110339177D01*
X96131482Y-110339831D01*
G37*
G36*
X97682554Y-110613327D02*
G01*
X97706335Y-110616326D01*
X98187414Y-110701153D01*
X98210787Y-110706468D01*
X98233526Y-110714049D01*
X98255413Y-110723822D01*
X98276236Y-110735694D01*
X98295796Y-110749549D01*
X98313903Y-110765255D01*
X98330384Y-110782659D01*
X98345079Y-110801596D01*
X98357847Y-110821882D01*
X98368566Y-110843321D01*
X98377131Y-110865708D01*
X98383461Y-110888827D01*
X98387495Y-110912454D01*
X98389193Y-110936364D01*
X98388539Y-110960324D01*
X98385540Y-110984106D01*
X98287689Y-111539045D01*
X98282374Y-111562417D01*
X98274793Y-111585157D01*
X98265020Y-111607043D01*
X98253148Y-111627867D01*
X98239293Y-111647426D01*
X98223587Y-111665533D01*
X98206182Y-111682014D01*
X98187246Y-111696709D01*
X98166960Y-111709477D01*
X98145521Y-111720196D01*
X98123134Y-111728761D01*
X98100015Y-111735091D01*
X98076387Y-111739125D01*
X98052478Y-111740823D01*
X98028518Y-111740169D01*
X98004737Y-111737170D01*
X97523658Y-111652343D01*
X97500285Y-111647028D01*
X97477546Y-111639447D01*
X97455659Y-111629674D01*
X97434836Y-111617802D01*
X97415276Y-111603947D01*
X97397169Y-111588241D01*
X97380688Y-111570837D01*
X97365993Y-111551900D01*
X97353225Y-111531614D01*
X97342506Y-111510175D01*
X97333941Y-111487788D01*
X97327611Y-111464669D01*
X97323577Y-111441042D01*
X97321879Y-111417132D01*
X97322533Y-111393172D01*
X97325532Y-111369390D01*
X97423383Y-110814451D01*
X97428698Y-110791079D01*
X97436279Y-110768339D01*
X97446052Y-110746453D01*
X97457924Y-110725629D01*
X97471779Y-110706070D01*
X97487485Y-110687963D01*
X97504890Y-110671482D01*
X97523826Y-110656787D01*
X97544112Y-110644019D01*
X97565551Y-110633300D01*
X97587938Y-110624735D01*
X97611057Y-110618405D01*
X97634685Y-110614371D01*
X97658594Y-110612673D01*
X97682554Y-110613327D01*
G37*
%TD*%
%TO.C,C16*%
G36*
X106055691Y-106225176D02*
G01*
X106079401Y-106228693D01*
X106102652Y-106234517D01*
X106125220Y-106242592D01*
X106146889Y-106252841D01*
X106167448Y-106265164D01*
X106186701Y-106279442D01*
X106204461Y-106295539D01*
X106220558Y-106313299D01*
X106234836Y-106332552D01*
X106247159Y-106353111D01*
X106257408Y-106374780D01*
X106265483Y-106397348D01*
X106271307Y-106420599D01*
X106274824Y-106444309D01*
X106276000Y-106468250D01*
X106276000Y-106956750D01*
X106274824Y-106980691D01*
X106271307Y-107004401D01*
X106265483Y-107027652D01*
X106257408Y-107050220D01*
X106247159Y-107071889D01*
X106234836Y-107092448D01*
X106220558Y-107111701D01*
X106204461Y-107129461D01*
X106186701Y-107145558D01*
X106167448Y-107159836D01*
X106146889Y-107172159D01*
X106125220Y-107182408D01*
X106102652Y-107190483D01*
X106079401Y-107196307D01*
X106055691Y-107199824D01*
X106031750Y-107201000D01*
X105468250Y-107201000D01*
X105444309Y-107199824D01*
X105420599Y-107196307D01*
X105397348Y-107190483D01*
X105374780Y-107182408D01*
X105353111Y-107172159D01*
X105332552Y-107159836D01*
X105313299Y-107145558D01*
X105295539Y-107129461D01*
X105279442Y-107111701D01*
X105265164Y-107092448D01*
X105252841Y-107071889D01*
X105242592Y-107050220D01*
X105234517Y-107027652D01*
X105228693Y-107004401D01*
X105225176Y-106980691D01*
X105224000Y-106956750D01*
X105224000Y-106468250D01*
X105225176Y-106444309D01*
X105228693Y-106420599D01*
X105234517Y-106397348D01*
X105242592Y-106374780D01*
X105252841Y-106353111D01*
X105265164Y-106332552D01*
X105279442Y-106313299D01*
X105295539Y-106295539D01*
X105313299Y-106279442D01*
X105332552Y-106265164D01*
X105353111Y-106252841D01*
X105374780Y-106242592D01*
X105397348Y-106234517D01*
X105420599Y-106228693D01*
X105444309Y-106225176D01*
X105468250Y-106224000D01*
X106031750Y-106224000D01*
X106055691Y-106225176D01*
G37*
G36*
X106055691Y-107800176D02*
G01*
X106079401Y-107803693D01*
X106102652Y-107809517D01*
X106125220Y-107817592D01*
X106146889Y-107827841D01*
X106167448Y-107840164D01*
X106186701Y-107854442D01*
X106204461Y-107870539D01*
X106220558Y-107888299D01*
X106234836Y-107907552D01*
X106247159Y-107928111D01*
X106257408Y-107949780D01*
X106265483Y-107972348D01*
X106271307Y-107995599D01*
X106274824Y-108019309D01*
X106276000Y-108043250D01*
X106276000Y-108531750D01*
X106274824Y-108555691D01*
X106271307Y-108579401D01*
X106265483Y-108602652D01*
X106257408Y-108625220D01*
X106247159Y-108646889D01*
X106234836Y-108667448D01*
X106220558Y-108686701D01*
X106204461Y-108704461D01*
X106186701Y-108720558D01*
X106167448Y-108734836D01*
X106146889Y-108747159D01*
X106125220Y-108757408D01*
X106102652Y-108765483D01*
X106079401Y-108771307D01*
X106055691Y-108774824D01*
X106031750Y-108776000D01*
X105468250Y-108776000D01*
X105444309Y-108774824D01*
X105420599Y-108771307D01*
X105397348Y-108765483D01*
X105374780Y-108757408D01*
X105353111Y-108747159D01*
X105332552Y-108734836D01*
X105313299Y-108720558D01*
X105295539Y-108704461D01*
X105279442Y-108686701D01*
X105265164Y-108667448D01*
X105252841Y-108646889D01*
X105242592Y-108625220D01*
X105234517Y-108602652D01*
X105228693Y-108579401D01*
X105225176Y-108555691D01*
X105224000Y-108531750D01*
X105224000Y-108043250D01*
X105225176Y-108019309D01*
X105228693Y-107995599D01*
X105234517Y-107972348D01*
X105242592Y-107949780D01*
X105252841Y-107928111D01*
X105265164Y-107907552D01*
X105279442Y-107888299D01*
X105295539Y-107870539D01*
X105313299Y-107854442D01*
X105332552Y-107840164D01*
X105353111Y-107827841D01*
X105374780Y-107817592D01*
X105397348Y-107809517D01*
X105420599Y-107803693D01*
X105444309Y-107800176D01*
X105468250Y-107799000D01*
X106031750Y-107799000D01*
X106055691Y-107800176D01*
G37*
%TD*%
%TO.C,C13*%
G36*
X92950151Y-109268475D02*
G01*
X92973992Y-109270955D01*
X92997475Y-109275759D01*
X93020374Y-109282842D01*
X93479414Y-109449919D01*
X93501509Y-109459212D01*
X93522586Y-109470627D01*
X93542443Y-109484052D01*
X93560889Y-109499359D01*
X93577745Y-109516400D01*
X93592850Y-109535012D01*
X93606058Y-109555014D01*
X93617242Y-109576215D01*
X93626294Y-109598409D01*
X93633126Y-109621384D01*
X93637674Y-109644918D01*
X93639894Y-109668785D01*
X93639763Y-109692754D01*
X93637283Y-109716595D01*
X93632479Y-109740078D01*
X93625396Y-109762977D01*
X93432668Y-110292494D01*
X93423375Y-110314589D01*
X93411960Y-110335666D01*
X93398535Y-110355523D01*
X93383228Y-110373969D01*
X93366187Y-110390825D01*
X93347576Y-110405930D01*
X93327573Y-110419138D01*
X93306373Y-110430322D01*
X93284178Y-110439373D01*
X93261203Y-110446206D01*
X93237669Y-110450754D01*
X93213802Y-110452974D01*
X93189833Y-110452843D01*
X93165992Y-110450363D01*
X93142509Y-110445559D01*
X93119610Y-110438476D01*
X92660570Y-110271399D01*
X92638475Y-110262106D01*
X92617398Y-110250691D01*
X92597541Y-110237266D01*
X92579095Y-110221959D01*
X92562239Y-110204918D01*
X92547134Y-110186306D01*
X92533926Y-110166304D01*
X92522742Y-110145103D01*
X92513690Y-110122909D01*
X92506858Y-110099934D01*
X92502310Y-110076400D01*
X92500090Y-110052533D01*
X92500221Y-110028564D01*
X92502701Y-110004723D01*
X92507505Y-109981240D01*
X92514588Y-109958341D01*
X92707316Y-109428824D01*
X92716609Y-109406729D01*
X92728024Y-109385652D01*
X92741449Y-109365795D01*
X92756756Y-109347349D01*
X92773797Y-109330493D01*
X92792408Y-109315388D01*
X92812411Y-109302180D01*
X92833611Y-109290996D01*
X92855806Y-109281945D01*
X92878781Y-109275112D01*
X92902315Y-109270564D01*
X92926182Y-109268344D01*
X92950151Y-109268475D01*
G37*
G36*
X94430167Y-109807157D02*
G01*
X94454008Y-109809637D01*
X94477491Y-109814441D01*
X94500390Y-109821524D01*
X94959430Y-109988601D01*
X94981525Y-109997894D01*
X95002602Y-110009309D01*
X95022459Y-110022734D01*
X95040905Y-110038041D01*
X95057761Y-110055082D01*
X95072866Y-110073694D01*
X95086074Y-110093696D01*
X95097258Y-110114897D01*
X95106310Y-110137091D01*
X95113142Y-110160066D01*
X95117690Y-110183600D01*
X95119910Y-110207467D01*
X95119779Y-110231436D01*
X95117299Y-110255277D01*
X95112495Y-110278760D01*
X95105412Y-110301659D01*
X94912684Y-110831176D01*
X94903391Y-110853271D01*
X94891976Y-110874348D01*
X94878551Y-110894205D01*
X94863244Y-110912651D01*
X94846203Y-110929507D01*
X94827592Y-110944612D01*
X94807589Y-110957820D01*
X94786389Y-110969004D01*
X94764194Y-110978055D01*
X94741219Y-110984888D01*
X94717685Y-110989436D01*
X94693818Y-110991656D01*
X94669849Y-110991525D01*
X94646008Y-110989045D01*
X94622525Y-110984241D01*
X94599626Y-110977158D01*
X94140586Y-110810081D01*
X94118491Y-110800788D01*
X94097414Y-110789373D01*
X94077557Y-110775948D01*
X94059111Y-110760641D01*
X94042255Y-110743600D01*
X94027150Y-110724988D01*
X94013942Y-110704986D01*
X94002758Y-110683785D01*
X93993706Y-110661591D01*
X93986874Y-110638616D01*
X93982326Y-110615082D01*
X93980106Y-110591215D01*
X93980237Y-110567246D01*
X93982717Y-110543405D01*
X93987521Y-110519922D01*
X93994604Y-110497023D01*
X94187332Y-109967506D01*
X94196625Y-109945411D01*
X94208040Y-109924334D01*
X94221465Y-109904477D01*
X94236772Y-109886031D01*
X94253813Y-109869175D01*
X94272424Y-109854070D01*
X94292427Y-109840862D01*
X94313627Y-109829678D01*
X94335822Y-109820627D01*
X94358797Y-109813794D01*
X94382331Y-109809246D01*
X94406198Y-109807026D01*
X94430167Y-109807157D01*
G37*
%TD*%
%TO.C,C8*%
G36*
X96350691Y-90215176D02*
G01*
X96374401Y-90218693D01*
X96397652Y-90224517D01*
X96420220Y-90232592D01*
X96441889Y-90242841D01*
X96462448Y-90255164D01*
X96481701Y-90269442D01*
X96499461Y-90285539D01*
X96515558Y-90303299D01*
X96529836Y-90322552D01*
X96542159Y-90343111D01*
X96552408Y-90364780D01*
X96560483Y-90387348D01*
X96566307Y-90410599D01*
X96569824Y-90434309D01*
X96571000Y-90458250D01*
X96571000Y-91021750D01*
X96569824Y-91045691D01*
X96566307Y-91069401D01*
X96560483Y-91092652D01*
X96552408Y-91115220D01*
X96542159Y-91136889D01*
X96529836Y-91157448D01*
X96515558Y-91176701D01*
X96499461Y-91194461D01*
X96481701Y-91210558D01*
X96462448Y-91224836D01*
X96441889Y-91237159D01*
X96420220Y-91247408D01*
X96397652Y-91255483D01*
X96374401Y-91261307D01*
X96350691Y-91264824D01*
X96326750Y-91266000D01*
X95838250Y-91266000D01*
X95814309Y-91264824D01*
X95790599Y-91261307D01*
X95767348Y-91255483D01*
X95744780Y-91247408D01*
X95723111Y-91237159D01*
X95702552Y-91224836D01*
X95683299Y-91210558D01*
X95665539Y-91194461D01*
X95649442Y-91176701D01*
X95635164Y-91157448D01*
X95622841Y-91136889D01*
X95612592Y-91115220D01*
X95604517Y-91092652D01*
X95598693Y-91069401D01*
X95595176Y-91045691D01*
X95594000Y-91021750D01*
X95594000Y-90458250D01*
X95595176Y-90434309D01*
X95598693Y-90410599D01*
X95604517Y-90387348D01*
X95612592Y-90364780D01*
X95622841Y-90343111D01*
X95635164Y-90322552D01*
X95649442Y-90303299D01*
X95665539Y-90285539D01*
X95683299Y-90269442D01*
X95702552Y-90255164D01*
X95723111Y-90242841D01*
X95744780Y-90232592D01*
X95767348Y-90224517D01*
X95790599Y-90218693D01*
X95814309Y-90215176D01*
X95838250Y-90214000D01*
X96326750Y-90214000D01*
X96350691Y-90215176D01*
G37*
G36*
X97925691Y-90215176D02*
G01*
X97949401Y-90218693D01*
X97972652Y-90224517D01*
X97995220Y-90232592D01*
X98016889Y-90242841D01*
X98037448Y-90255164D01*
X98056701Y-90269442D01*
X98074461Y-90285539D01*
X98090558Y-90303299D01*
X98104836Y-90322552D01*
X98117159Y-90343111D01*
X98127408Y-90364780D01*
X98135483Y-90387348D01*
X98141307Y-90410599D01*
X98144824Y-90434309D01*
X98146000Y-90458250D01*
X98146000Y-91021750D01*
X98144824Y-91045691D01*
X98141307Y-91069401D01*
X98135483Y-91092652D01*
X98127408Y-91115220D01*
X98117159Y-91136889D01*
X98104836Y-91157448D01*
X98090558Y-91176701D01*
X98074461Y-91194461D01*
X98056701Y-91210558D01*
X98037448Y-91224836D01*
X98016889Y-91237159D01*
X97995220Y-91247408D01*
X97972652Y-91255483D01*
X97949401Y-91261307D01*
X97925691Y-91264824D01*
X97901750Y-91266000D01*
X97413250Y-91266000D01*
X97389309Y-91264824D01*
X97365599Y-91261307D01*
X97342348Y-91255483D01*
X97319780Y-91247408D01*
X97298111Y-91237159D01*
X97277552Y-91224836D01*
X97258299Y-91210558D01*
X97240539Y-91194461D01*
X97224442Y-91176701D01*
X97210164Y-91157448D01*
X97197841Y-91136889D01*
X97187592Y-91115220D01*
X97179517Y-91092652D01*
X97173693Y-91069401D01*
X97170176Y-91045691D01*
X97169000Y-91021750D01*
X97169000Y-90458250D01*
X97170176Y-90434309D01*
X97173693Y-90410599D01*
X97179517Y-90387348D01*
X97187592Y-90364780D01*
X97197841Y-90343111D01*
X97210164Y-90322552D01*
X97224442Y-90303299D01*
X97240539Y-90285539D01*
X97258299Y-90269442D01*
X97277552Y-90255164D01*
X97298111Y-90242841D01*
X97319780Y-90232592D01*
X97342348Y-90224517D01*
X97365599Y-90218693D01*
X97389309Y-90215176D01*
X97413250Y-90214000D01*
X97901750Y-90214000D01*
X97925691Y-90215176D01*
G37*
%TD*%
%TO.C,C6*%
G36*
X104400691Y-91995176D02*
G01*
X104424401Y-91998693D01*
X104447652Y-92004517D01*
X104470220Y-92012592D01*
X104491889Y-92022841D01*
X104512448Y-92035164D01*
X104531701Y-92049442D01*
X104549461Y-92065539D01*
X104565558Y-92083299D01*
X104579836Y-92102552D01*
X104592159Y-92123111D01*
X104602408Y-92144780D01*
X104610483Y-92167348D01*
X104616307Y-92190599D01*
X104619824Y-92214309D01*
X104621000Y-92238250D01*
X104621000Y-92726750D01*
X104619824Y-92750691D01*
X104616307Y-92774401D01*
X104610483Y-92797652D01*
X104602408Y-92820220D01*
X104592159Y-92841889D01*
X104579836Y-92862448D01*
X104565558Y-92881701D01*
X104549461Y-92899461D01*
X104531701Y-92915558D01*
X104512448Y-92929836D01*
X104491889Y-92942159D01*
X104470220Y-92952408D01*
X104447652Y-92960483D01*
X104424401Y-92966307D01*
X104400691Y-92969824D01*
X104376750Y-92971000D01*
X103813250Y-92971000D01*
X103789309Y-92969824D01*
X103765599Y-92966307D01*
X103742348Y-92960483D01*
X103719780Y-92952408D01*
X103698111Y-92942159D01*
X103677552Y-92929836D01*
X103658299Y-92915558D01*
X103640539Y-92899461D01*
X103624442Y-92881701D01*
X103610164Y-92862448D01*
X103597841Y-92841889D01*
X103587592Y-92820220D01*
X103579517Y-92797652D01*
X103573693Y-92774401D01*
X103570176Y-92750691D01*
X103569000Y-92726750D01*
X103569000Y-92238250D01*
X103570176Y-92214309D01*
X103573693Y-92190599D01*
X103579517Y-92167348D01*
X103587592Y-92144780D01*
X103597841Y-92123111D01*
X103610164Y-92102552D01*
X103624442Y-92083299D01*
X103640539Y-92065539D01*
X103658299Y-92049442D01*
X103677552Y-92035164D01*
X103698111Y-92022841D01*
X103719780Y-92012592D01*
X103742348Y-92004517D01*
X103765599Y-91998693D01*
X103789309Y-91995176D01*
X103813250Y-91994000D01*
X104376750Y-91994000D01*
X104400691Y-91995176D01*
G37*
G36*
X104400691Y-90420176D02*
G01*
X104424401Y-90423693D01*
X104447652Y-90429517D01*
X104470220Y-90437592D01*
X104491889Y-90447841D01*
X104512448Y-90460164D01*
X104531701Y-90474442D01*
X104549461Y-90490539D01*
X104565558Y-90508299D01*
X104579836Y-90527552D01*
X104592159Y-90548111D01*
X104602408Y-90569780D01*
X104610483Y-90592348D01*
X104616307Y-90615599D01*
X104619824Y-90639309D01*
X104621000Y-90663250D01*
X104621000Y-91151750D01*
X104619824Y-91175691D01*
X104616307Y-91199401D01*
X104610483Y-91222652D01*
X104602408Y-91245220D01*
X104592159Y-91266889D01*
X104579836Y-91287448D01*
X104565558Y-91306701D01*
X104549461Y-91324461D01*
X104531701Y-91340558D01*
X104512448Y-91354836D01*
X104491889Y-91367159D01*
X104470220Y-91377408D01*
X104447652Y-91385483D01*
X104424401Y-91391307D01*
X104400691Y-91394824D01*
X104376750Y-91396000D01*
X103813250Y-91396000D01*
X103789309Y-91394824D01*
X103765599Y-91391307D01*
X103742348Y-91385483D01*
X103719780Y-91377408D01*
X103698111Y-91367159D01*
X103677552Y-91354836D01*
X103658299Y-91340558D01*
X103640539Y-91324461D01*
X103624442Y-91306701D01*
X103610164Y-91287448D01*
X103597841Y-91266889D01*
X103587592Y-91245220D01*
X103579517Y-91222652D01*
X103573693Y-91199401D01*
X103570176Y-91175691D01*
X103569000Y-91151750D01*
X103569000Y-90663250D01*
X103570176Y-90639309D01*
X103573693Y-90615599D01*
X103579517Y-90592348D01*
X103587592Y-90569780D01*
X103597841Y-90548111D01*
X103610164Y-90527552D01*
X103624442Y-90508299D01*
X103640539Y-90490539D01*
X103658299Y-90474442D01*
X103677552Y-90460164D01*
X103698111Y-90447841D01*
X103719780Y-90437592D01*
X103742348Y-90429517D01*
X103765599Y-90423693D01*
X103789309Y-90420176D01*
X103813250Y-90419000D01*
X104376750Y-90419000D01*
X104400691Y-90420176D01*
G37*
%TD*%
%TO.C,C5*%
G36*
X104525691Y-100195176D02*
G01*
X104549401Y-100198693D01*
X104572652Y-100204517D01*
X104595220Y-100212592D01*
X104616889Y-100222841D01*
X104637448Y-100235164D01*
X104656701Y-100249442D01*
X104674461Y-100265539D01*
X104690558Y-100283299D01*
X104704836Y-100302552D01*
X104717159Y-100323111D01*
X104727408Y-100344780D01*
X104735483Y-100367348D01*
X104741307Y-100390599D01*
X104744824Y-100414309D01*
X104746000Y-100438250D01*
X104746000Y-101001750D01*
X104744824Y-101025691D01*
X104741307Y-101049401D01*
X104735483Y-101072652D01*
X104727408Y-101095220D01*
X104717159Y-101116889D01*
X104704836Y-101137448D01*
X104690558Y-101156701D01*
X104674461Y-101174461D01*
X104656701Y-101190558D01*
X104637448Y-101204836D01*
X104616889Y-101217159D01*
X104595220Y-101227408D01*
X104572652Y-101235483D01*
X104549401Y-101241307D01*
X104525691Y-101244824D01*
X104501750Y-101246000D01*
X104013250Y-101246000D01*
X103989309Y-101244824D01*
X103965599Y-101241307D01*
X103942348Y-101235483D01*
X103919780Y-101227408D01*
X103898111Y-101217159D01*
X103877552Y-101204836D01*
X103858299Y-101190558D01*
X103840539Y-101174461D01*
X103824442Y-101156701D01*
X103810164Y-101137448D01*
X103797841Y-101116889D01*
X103787592Y-101095220D01*
X103779517Y-101072652D01*
X103773693Y-101049401D01*
X103770176Y-101025691D01*
X103769000Y-101001750D01*
X103769000Y-100438250D01*
X103770176Y-100414309D01*
X103773693Y-100390599D01*
X103779517Y-100367348D01*
X103787592Y-100344780D01*
X103797841Y-100323111D01*
X103810164Y-100302552D01*
X103824442Y-100283299D01*
X103840539Y-100265539D01*
X103858299Y-100249442D01*
X103877552Y-100235164D01*
X103898111Y-100222841D01*
X103919780Y-100212592D01*
X103942348Y-100204517D01*
X103965599Y-100198693D01*
X103989309Y-100195176D01*
X104013250Y-100194000D01*
X104501750Y-100194000D01*
X104525691Y-100195176D01*
G37*
G36*
X106100691Y-100195176D02*
G01*
X106124401Y-100198693D01*
X106147652Y-100204517D01*
X106170220Y-100212592D01*
X106191889Y-100222841D01*
X106212448Y-100235164D01*
X106231701Y-100249442D01*
X106249461Y-100265539D01*
X106265558Y-100283299D01*
X106279836Y-100302552D01*
X106292159Y-100323111D01*
X106302408Y-100344780D01*
X106310483Y-100367348D01*
X106316307Y-100390599D01*
X106319824Y-100414309D01*
X106321000Y-100438250D01*
X106321000Y-101001750D01*
X106319824Y-101025691D01*
X106316307Y-101049401D01*
X106310483Y-101072652D01*
X106302408Y-101095220D01*
X106292159Y-101116889D01*
X106279836Y-101137448D01*
X106265558Y-101156701D01*
X106249461Y-101174461D01*
X106231701Y-101190558D01*
X106212448Y-101204836D01*
X106191889Y-101217159D01*
X106170220Y-101227408D01*
X106147652Y-101235483D01*
X106124401Y-101241307D01*
X106100691Y-101244824D01*
X106076750Y-101246000D01*
X105588250Y-101246000D01*
X105564309Y-101244824D01*
X105540599Y-101241307D01*
X105517348Y-101235483D01*
X105494780Y-101227408D01*
X105473111Y-101217159D01*
X105452552Y-101204836D01*
X105433299Y-101190558D01*
X105415539Y-101174461D01*
X105399442Y-101156701D01*
X105385164Y-101137448D01*
X105372841Y-101116889D01*
X105362592Y-101095220D01*
X105354517Y-101072652D01*
X105348693Y-101049401D01*
X105345176Y-101025691D01*
X105344000Y-101001750D01*
X105344000Y-100438250D01*
X105345176Y-100414309D01*
X105348693Y-100390599D01*
X105354517Y-100367348D01*
X105362592Y-100344780D01*
X105372841Y-100323111D01*
X105385164Y-100302552D01*
X105399442Y-100283299D01*
X105415539Y-100265539D01*
X105433299Y-100249442D01*
X105452552Y-100235164D01*
X105473111Y-100222841D01*
X105494780Y-100212592D01*
X105517348Y-100204517D01*
X105540599Y-100198693D01*
X105564309Y-100195176D01*
X105588250Y-100194000D01*
X106076750Y-100194000D01*
X106100691Y-100195176D01*
G37*
%TD*%
%TO.C,C4*%
G36*
X92150691Y-92670176D02*
G01*
X92174401Y-92673693D01*
X92197652Y-92679517D01*
X92220220Y-92687592D01*
X92241889Y-92697841D01*
X92262448Y-92710164D01*
X92281701Y-92724442D01*
X92299461Y-92740539D01*
X92315558Y-92758299D01*
X92329836Y-92777552D01*
X92342159Y-92798111D01*
X92352408Y-92819780D01*
X92360483Y-92842348D01*
X92366307Y-92865599D01*
X92369824Y-92889309D01*
X92371000Y-92913250D01*
X92371000Y-93476750D01*
X92369824Y-93500691D01*
X92366307Y-93524401D01*
X92360483Y-93547652D01*
X92352408Y-93570220D01*
X92342159Y-93591889D01*
X92329836Y-93612448D01*
X92315558Y-93631701D01*
X92299461Y-93649461D01*
X92281701Y-93665558D01*
X92262448Y-93679836D01*
X92241889Y-93692159D01*
X92220220Y-93702408D01*
X92197652Y-93710483D01*
X92174401Y-93716307D01*
X92150691Y-93719824D01*
X92126750Y-93721000D01*
X91638250Y-93721000D01*
X91614309Y-93719824D01*
X91590599Y-93716307D01*
X91567348Y-93710483D01*
X91544780Y-93702408D01*
X91523111Y-93692159D01*
X91502552Y-93679836D01*
X91483299Y-93665558D01*
X91465539Y-93649461D01*
X91449442Y-93631701D01*
X91435164Y-93612448D01*
X91422841Y-93591889D01*
X91412592Y-93570220D01*
X91404517Y-93547652D01*
X91398693Y-93524401D01*
X91395176Y-93500691D01*
X91394000Y-93476750D01*
X91394000Y-92913250D01*
X91395176Y-92889309D01*
X91398693Y-92865599D01*
X91404517Y-92842348D01*
X91412592Y-92819780D01*
X91422841Y-92798111D01*
X91435164Y-92777552D01*
X91449442Y-92758299D01*
X91465539Y-92740539D01*
X91483299Y-92724442D01*
X91502552Y-92710164D01*
X91523111Y-92697841D01*
X91544780Y-92687592D01*
X91567348Y-92679517D01*
X91590599Y-92673693D01*
X91614309Y-92670176D01*
X91638250Y-92669000D01*
X92126750Y-92669000D01*
X92150691Y-92670176D01*
G37*
G36*
X93725691Y-92670176D02*
G01*
X93749401Y-92673693D01*
X93772652Y-92679517D01*
X93795220Y-92687592D01*
X93816889Y-92697841D01*
X93837448Y-92710164D01*
X93856701Y-92724442D01*
X93874461Y-92740539D01*
X93890558Y-92758299D01*
X93904836Y-92777552D01*
X93917159Y-92798111D01*
X93927408Y-92819780D01*
X93935483Y-92842348D01*
X93941307Y-92865599D01*
X93944824Y-92889309D01*
X93946000Y-92913250D01*
X93946000Y-93476750D01*
X93944824Y-93500691D01*
X93941307Y-93524401D01*
X93935483Y-93547652D01*
X93927408Y-93570220D01*
X93917159Y-93591889D01*
X93904836Y-93612448D01*
X93890558Y-93631701D01*
X93874461Y-93649461D01*
X93856701Y-93665558D01*
X93837448Y-93679836D01*
X93816889Y-93692159D01*
X93795220Y-93702408D01*
X93772652Y-93710483D01*
X93749401Y-93716307D01*
X93725691Y-93719824D01*
X93701750Y-93721000D01*
X93213250Y-93721000D01*
X93189309Y-93719824D01*
X93165599Y-93716307D01*
X93142348Y-93710483D01*
X93119780Y-93702408D01*
X93098111Y-93692159D01*
X93077552Y-93679836D01*
X93058299Y-93665558D01*
X93040539Y-93649461D01*
X93024442Y-93631701D01*
X93010164Y-93612448D01*
X92997841Y-93591889D01*
X92987592Y-93570220D01*
X92979517Y-93547652D01*
X92973693Y-93524401D01*
X92970176Y-93500691D01*
X92969000Y-93476750D01*
X92969000Y-92913250D01*
X92970176Y-92889309D01*
X92973693Y-92865599D01*
X92979517Y-92842348D01*
X92987592Y-92819780D01*
X92997841Y-92798111D01*
X93010164Y-92777552D01*
X93024442Y-92758299D01*
X93040539Y-92740539D01*
X93058299Y-92724442D01*
X93077552Y-92710164D01*
X93098111Y-92697841D01*
X93119780Y-92687592D01*
X93142348Y-92679517D01*
X93165599Y-92673693D01*
X93189309Y-92670176D01*
X93213250Y-92669000D01*
X93701750Y-92669000D01*
X93725691Y-92670176D01*
G37*
%TD*%
%TO.C,C3*%
G36*
X94595691Y-97075176D02*
G01*
X94619401Y-97078693D01*
X94642652Y-97084517D01*
X94665220Y-97092592D01*
X94686889Y-97102841D01*
X94707448Y-97115164D01*
X94726701Y-97129442D01*
X94744461Y-97145539D01*
X94760558Y-97163299D01*
X94774836Y-97182552D01*
X94787159Y-97203111D01*
X94797408Y-97224780D01*
X94805483Y-97247348D01*
X94811307Y-97270599D01*
X94814824Y-97294309D01*
X94816000Y-97318250D01*
X94816000Y-97806750D01*
X94814824Y-97830691D01*
X94811307Y-97854401D01*
X94805483Y-97877652D01*
X94797408Y-97900220D01*
X94787159Y-97921889D01*
X94774836Y-97942448D01*
X94760558Y-97961701D01*
X94744461Y-97979461D01*
X94726701Y-97995558D01*
X94707448Y-98009836D01*
X94686889Y-98022159D01*
X94665220Y-98032408D01*
X94642652Y-98040483D01*
X94619401Y-98046307D01*
X94595691Y-98049824D01*
X94571750Y-98051000D01*
X94008250Y-98051000D01*
X93984309Y-98049824D01*
X93960599Y-98046307D01*
X93937348Y-98040483D01*
X93914780Y-98032408D01*
X93893111Y-98022159D01*
X93872552Y-98009836D01*
X93853299Y-97995558D01*
X93835539Y-97979461D01*
X93819442Y-97961701D01*
X93805164Y-97942448D01*
X93792841Y-97921889D01*
X93782592Y-97900220D01*
X93774517Y-97877652D01*
X93768693Y-97854401D01*
X93765176Y-97830691D01*
X93764000Y-97806750D01*
X93764000Y-97318250D01*
X93765176Y-97294309D01*
X93768693Y-97270599D01*
X93774517Y-97247348D01*
X93782592Y-97224780D01*
X93792841Y-97203111D01*
X93805164Y-97182552D01*
X93819442Y-97163299D01*
X93835539Y-97145539D01*
X93853299Y-97129442D01*
X93872552Y-97115164D01*
X93893111Y-97102841D01*
X93914780Y-97092592D01*
X93937348Y-97084517D01*
X93960599Y-97078693D01*
X93984309Y-97075176D01*
X94008250Y-97074000D01*
X94571750Y-97074000D01*
X94595691Y-97075176D01*
G37*
G36*
X94595691Y-98650176D02*
G01*
X94619401Y-98653693D01*
X94642652Y-98659517D01*
X94665220Y-98667592D01*
X94686889Y-98677841D01*
X94707448Y-98690164D01*
X94726701Y-98704442D01*
X94744461Y-98720539D01*
X94760558Y-98738299D01*
X94774836Y-98757552D01*
X94787159Y-98778111D01*
X94797408Y-98799780D01*
X94805483Y-98822348D01*
X94811307Y-98845599D01*
X94814824Y-98869309D01*
X94816000Y-98893250D01*
X94816000Y-99381750D01*
X94814824Y-99405691D01*
X94811307Y-99429401D01*
X94805483Y-99452652D01*
X94797408Y-99475220D01*
X94787159Y-99496889D01*
X94774836Y-99517448D01*
X94760558Y-99536701D01*
X94744461Y-99554461D01*
X94726701Y-99570558D01*
X94707448Y-99584836D01*
X94686889Y-99597159D01*
X94665220Y-99607408D01*
X94642652Y-99615483D01*
X94619401Y-99621307D01*
X94595691Y-99624824D01*
X94571750Y-99626000D01*
X94008250Y-99626000D01*
X93984309Y-99624824D01*
X93960599Y-99621307D01*
X93937348Y-99615483D01*
X93914780Y-99607408D01*
X93893111Y-99597159D01*
X93872552Y-99584836D01*
X93853299Y-99570558D01*
X93835539Y-99554461D01*
X93819442Y-99536701D01*
X93805164Y-99517448D01*
X93792841Y-99496889D01*
X93782592Y-99475220D01*
X93774517Y-99452652D01*
X93768693Y-99429401D01*
X93765176Y-99405691D01*
X93764000Y-99381750D01*
X93764000Y-98893250D01*
X93765176Y-98869309D01*
X93768693Y-98845599D01*
X93774517Y-98822348D01*
X93782592Y-98799780D01*
X93792841Y-98778111D01*
X93805164Y-98757552D01*
X93819442Y-98738299D01*
X93835539Y-98720539D01*
X93853299Y-98704442D01*
X93872552Y-98690164D01*
X93893111Y-98677841D01*
X93914780Y-98667592D01*
X93937348Y-98659517D01*
X93960599Y-98653693D01*
X93984309Y-98650176D01*
X94008250Y-98649000D01*
X94571750Y-98649000D01*
X94595691Y-98650176D01*
G37*
%TD*%
%TO.C,C2*%
G36*
X95175691Y-91695176D02*
G01*
X95199401Y-91698693D01*
X95222652Y-91704517D01*
X95245220Y-91712592D01*
X95266889Y-91722841D01*
X95287448Y-91735164D01*
X95306701Y-91749442D01*
X95324461Y-91765539D01*
X95340558Y-91783299D01*
X95354836Y-91802552D01*
X95367159Y-91823111D01*
X95377408Y-91844780D01*
X95385483Y-91867348D01*
X95391307Y-91890599D01*
X95394824Y-91914309D01*
X95396000Y-91938250D01*
X95396000Y-92501750D01*
X95394824Y-92525691D01*
X95391307Y-92549401D01*
X95385483Y-92572652D01*
X95377408Y-92595220D01*
X95367159Y-92616889D01*
X95354836Y-92637448D01*
X95340558Y-92656701D01*
X95324461Y-92674461D01*
X95306701Y-92690558D01*
X95287448Y-92704836D01*
X95266889Y-92717159D01*
X95245220Y-92727408D01*
X95222652Y-92735483D01*
X95199401Y-92741307D01*
X95175691Y-92744824D01*
X95151750Y-92746000D01*
X94663250Y-92746000D01*
X94639309Y-92744824D01*
X94615599Y-92741307D01*
X94592348Y-92735483D01*
X94569780Y-92727408D01*
X94548111Y-92717159D01*
X94527552Y-92704836D01*
X94508299Y-92690558D01*
X94490539Y-92674461D01*
X94474442Y-92656701D01*
X94460164Y-92637448D01*
X94447841Y-92616889D01*
X94437592Y-92595220D01*
X94429517Y-92572652D01*
X94423693Y-92549401D01*
X94420176Y-92525691D01*
X94419000Y-92501750D01*
X94419000Y-91938250D01*
X94420176Y-91914309D01*
X94423693Y-91890599D01*
X94429517Y-91867348D01*
X94437592Y-91844780D01*
X94447841Y-91823111D01*
X94460164Y-91802552D01*
X94474442Y-91783299D01*
X94490539Y-91765539D01*
X94508299Y-91749442D01*
X94527552Y-91735164D01*
X94548111Y-91722841D01*
X94569780Y-91712592D01*
X94592348Y-91704517D01*
X94615599Y-91698693D01*
X94639309Y-91695176D01*
X94663250Y-91694000D01*
X95151750Y-91694000D01*
X95175691Y-91695176D01*
G37*
G36*
X96750691Y-91695176D02*
G01*
X96774401Y-91698693D01*
X96797652Y-91704517D01*
X96820220Y-91712592D01*
X96841889Y-91722841D01*
X96862448Y-91735164D01*
X96881701Y-91749442D01*
X96899461Y-91765539D01*
X96915558Y-91783299D01*
X96929836Y-91802552D01*
X96942159Y-91823111D01*
X96952408Y-91844780D01*
X96960483Y-91867348D01*
X96966307Y-91890599D01*
X96969824Y-91914309D01*
X96971000Y-91938250D01*
X96971000Y-92501750D01*
X96969824Y-92525691D01*
X96966307Y-92549401D01*
X96960483Y-92572652D01*
X96952408Y-92595220D01*
X96942159Y-92616889D01*
X96929836Y-92637448D01*
X96915558Y-92656701D01*
X96899461Y-92674461D01*
X96881701Y-92690558D01*
X96862448Y-92704836D01*
X96841889Y-92717159D01*
X96820220Y-92727408D01*
X96797652Y-92735483D01*
X96774401Y-92741307D01*
X96750691Y-92744824D01*
X96726750Y-92746000D01*
X96238250Y-92746000D01*
X96214309Y-92744824D01*
X96190599Y-92741307D01*
X96167348Y-92735483D01*
X96144780Y-92727408D01*
X96123111Y-92717159D01*
X96102552Y-92704836D01*
X96083299Y-92690558D01*
X96065539Y-92674461D01*
X96049442Y-92656701D01*
X96035164Y-92637448D01*
X96022841Y-92616889D01*
X96012592Y-92595220D01*
X96004517Y-92572652D01*
X95998693Y-92549401D01*
X95995176Y-92525691D01*
X95994000Y-92501750D01*
X95994000Y-91938250D01*
X95995176Y-91914309D01*
X95998693Y-91890599D01*
X96004517Y-91867348D01*
X96012592Y-91844780D01*
X96022841Y-91823111D01*
X96035164Y-91802552D01*
X96049442Y-91783299D01*
X96065539Y-91765539D01*
X96083299Y-91749442D01*
X96102552Y-91735164D01*
X96123111Y-91722841D01*
X96144780Y-91712592D01*
X96167348Y-91704517D01*
X96190599Y-91698693D01*
X96214309Y-91695176D01*
X96238250Y-91694000D01*
X96726750Y-91694000D01*
X96750691Y-91695176D01*
G37*
%TD*%
%TO.C,C1*%
G36*
X89652072Y-92910925D02*
G01*
X89675854Y-92913924D01*
X90230793Y-93011775D01*
X90254165Y-93017090D01*
X90276905Y-93024671D01*
X90298791Y-93034444D01*
X90319615Y-93046316D01*
X90339174Y-93060171D01*
X90357281Y-93075877D01*
X90373762Y-93093282D01*
X90388457Y-93112218D01*
X90401225Y-93132504D01*
X90411944Y-93153943D01*
X90420509Y-93176330D01*
X90426839Y-93199449D01*
X90430873Y-93223077D01*
X90432571Y-93246986D01*
X90431917Y-93270946D01*
X90428918Y-93294727D01*
X90344091Y-93775806D01*
X90338776Y-93799179D01*
X90331195Y-93821918D01*
X90321422Y-93843805D01*
X90309550Y-93864628D01*
X90295695Y-93884188D01*
X90279989Y-93902295D01*
X90262585Y-93918776D01*
X90243648Y-93933471D01*
X90223362Y-93946239D01*
X90201923Y-93956958D01*
X90179536Y-93965523D01*
X90156417Y-93971853D01*
X90132790Y-93975887D01*
X90108880Y-93977585D01*
X90084920Y-93976931D01*
X90061138Y-93973932D01*
X89506199Y-93876081D01*
X89482827Y-93870766D01*
X89460087Y-93863185D01*
X89438201Y-93853412D01*
X89417377Y-93841540D01*
X89397818Y-93827685D01*
X89379711Y-93811979D01*
X89363230Y-93794574D01*
X89348535Y-93775638D01*
X89335767Y-93755352D01*
X89325048Y-93733913D01*
X89316483Y-93711526D01*
X89310153Y-93688407D01*
X89306119Y-93664779D01*
X89304421Y-93640870D01*
X89305075Y-93616910D01*
X89308074Y-93593129D01*
X89392901Y-93112050D01*
X89398216Y-93088677D01*
X89405797Y-93065938D01*
X89415570Y-93044051D01*
X89427442Y-93023228D01*
X89441297Y-93003668D01*
X89457003Y-92985561D01*
X89474407Y-92969080D01*
X89493344Y-92954385D01*
X89513630Y-92941617D01*
X89535069Y-92930898D01*
X89557456Y-92922333D01*
X89580575Y-92916003D01*
X89604202Y-92911969D01*
X89628112Y-92910271D01*
X89652072Y-92910925D01*
G37*
G36*
X89378576Y-94461997D02*
G01*
X89402358Y-94464996D01*
X89957297Y-94562847D01*
X89980669Y-94568162D01*
X90003409Y-94575743D01*
X90025295Y-94585516D01*
X90046119Y-94597388D01*
X90065678Y-94611243D01*
X90083785Y-94626949D01*
X90100266Y-94644354D01*
X90114961Y-94663290D01*
X90127729Y-94683576D01*
X90138448Y-94705015D01*
X90147013Y-94727402D01*
X90153343Y-94750521D01*
X90157377Y-94774149D01*
X90159075Y-94798058D01*
X90158421Y-94822018D01*
X90155422Y-94845799D01*
X90070595Y-95326878D01*
X90065280Y-95350251D01*
X90057699Y-95372990D01*
X90047926Y-95394877D01*
X90036054Y-95415700D01*
X90022199Y-95435260D01*
X90006493Y-95453367D01*
X89989089Y-95469848D01*
X89970152Y-95484543D01*
X89949866Y-95497311D01*
X89928427Y-95508030D01*
X89906040Y-95516595D01*
X89882921Y-95522925D01*
X89859294Y-95526959D01*
X89835384Y-95528657D01*
X89811424Y-95528003D01*
X89787642Y-95525004D01*
X89232703Y-95427153D01*
X89209331Y-95421838D01*
X89186591Y-95414257D01*
X89164705Y-95404484D01*
X89143881Y-95392612D01*
X89124322Y-95378757D01*
X89106215Y-95363051D01*
X89089734Y-95345646D01*
X89075039Y-95326710D01*
X89062271Y-95306424D01*
X89051552Y-95284985D01*
X89042987Y-95262598D01*
X89036657Y-95239479D01*
X89032623Y-95215851D01*
X89030925Y-95191942D01*
X89031579Y-95167982D01*
X89034578Y-95144201D01*
X89119405Y-94663122D01*
X89124720Y-94639749D01*
X89132301Y-94617010D01*
X89142074Y-94595123D01*
X89153946Y-94574300D01*
X89167801Y-94554740D01*
X89183507Y-94536633D01*
X89200911Y-94520152D01*
X89219848Y-94505457D01*
X89240134Y-94492689D01*
X89261573Y-94481970D01*
X89283960Y-94473405D01*
X89307079Y-94467075D01*
X89330706Y-94463041D01*
X89354616Y-94461343D01*
X89378576Y-94461997D01*
G37*
%TD*%
M02*
